<svg width="14" height="14" viewBox="0 0 14 14" fill="none" xmlns="http://www.w3.org/2000/svg">
<path d="M7 14C3.14008 14 0 10.8599 0 7C0 3.14008 3.14008 0 7 0C10.8599 0 14 3.14008 14 7C14 10.8599 10.8599 14 7 14ZM7 0.583333C3.46208 0.583333 0.583333 3.46208 0.583333 7C0.583333 10.5379 3.46208 13.4167 7 13.4167C10.5379 13.4167 13.4167 10.5379 13.4167 7C13.4167 3.46208 10.5379 0.583333 7 0.583333ZM7.58333 7.29167V3.20833C7.58333 3.04733 7.45267 2.91667 7.29167 2.91667C7.13067 2.91667 7 3.04733 7 3.20833V7H4.375C4.214 7 4.08333 7.13067 4.08333 7.29167C4.08333 7.45267 4.214 7.58333 4.375 7.58333H7.29167C7.45267 7.58333 7.58333 7.45267 7.58333 7.29167Z" fill="#676767"/>
</svg>
