<svg width="20" height="20" viewBox="0 0 20 20" fill="none" xmlns="http://www.w3.org/2000/svg">
<path d="M3.51761 15.4668C3.23761 15.4668 2.96844 15.5367 2.72964 15.6679C1.47171 14.0553 0.78125 12.0522 0.78125 10C0.78125 4.91669 4.91669 0.78125 10 0.78125C10.618 0.78125 11.2357 0.842743 11.8359 0.96405C12.0471 1.00677 12.2534 0.870056 12.2961 0.658569C12.3389 0.447083 12.2021 0.241089 11.9907 0.198212C11.3396 0.0666809 10.6699 0 10 0C7.32895 0 4.81766 1.04019 2.92892 2.92892C1.04019 4.81766 0 7.32895 0 10C0 12.2469 0.762939 14.4395 2.15195 16.1974C1.97311 16.4645 1.87698 16.7786 1.87698 17.1074C1.87698 17.5456 2.04773 17.9576 2.35764 18.2674C2.66739 18.5773 3.07938 18.748 3.51761 18.748C3.95584 18.748 4.36783 18.5773 4.67773 18.2674C4.98764 17.9576 5.15823 17.5455 5.15823 17.1072C5.15823 16.6692 4.98764 16.257 4.67773 15.9473C4.36783 15.6374 3.95584 15.4668 3.51761 15.4668V15.4668ZM4.12521 17.715C3.96301 17.8773 3.7471 17.9668 3.51761 17.9668C3.28812 17.9668 3.07236 17.8773 2.91 17.715C2.74765 17.5526 2.65823 17.3369 2.65823 17.1074C2.65823 16.8777 2.74765 16.662 2.91 16.4996C3.0722 16.3373 3.28812 16.248 3.51761 16.248C3.7471 16.248 3.96286 16.3374 4.12521 16.4996C4.28757 16.662 4.37698 16.8777 4.37698 17.1074C4.37698 17.3369 4.28757 17.5526 4.12521 17.715V17.715Z" fill="#1C4684"/>
<path d="M17.8476 3.80215C18.2723 3.1651 18.2041 2.29413 17.6424 1.73245C17.3325 1.4227 16.9205 1.25195 16.4823 1.25195C16.0441 1.25195 15.6321 1.4227 15.3222 1.73245C15.0123 2.04236 14.8417 2.45435 14.8417 2.89258C14.8417 3.33081 15.0123 3.7428 15.3222 4.0527C15.6321 4.36261 16.0441 4.5332 16.4823 4.5332C16.7623 4.5332 17.0315 4.46332 17.2703 4.33209C18.5282 5.94479 19.2186 7.94781 19.2186 9.99997C19.2186 15.0833 15.0832 19.2187 9.9999 19.2187C9.38802 19.2187 8.77614 19.1584 8.18151 19.0394C7.97002 18.9972 7.76418 19.1343 7.72176 19.3458C7.67949 19.5575 7.81667 19.7632 8.02816 19.8056C8.67314 19.9345 9.3366 20 9.9999 20C12.6709 20 15.1822 18.9598 17.071 17.071C18.9597 15.1823 19.9999 12.671 19.9999 9.99997C19.9999 7.75296 19.2368 5.56012 17.8476 3.80215V3.80215ZM15.8747 3.50034C15.7123 3.33798 15.6229 3.12222 15.6229 2.89258C15.6229 2.66309 15.7123 2.44733 15.8747 2.28497C16.0369 2.12262 16.2528 2.0332 16.4823 2.0332C16.7118 2.0332 16.9277 2.12262 17.09 2.28497C17.425 2.62006 17.425 3.16525 17.09 3.50034C16.9277 3.66254 16.7118 3.75195 16.4823 3.75195C16.2526 3.75195 16.0369 3.66254 15.8747 3.50034Z" fill="#1C4684"/>
<path d="M8.38818 16.7188C8.38818 16.9345 8.5632 17.1094 8.77881 17.1094H11.2213C11.437 17.1094 11.6119 16.9345 11.6119 16.7188V15.9615C12.1255 15.8232 12.6165 15.6197 13.078 15.3539L13.6126 15.8885C13.6859 15.9618 13.7852 16.003 13.889 16.003C13.9924 16.003 14.0919 15.9618 14.1652 15.8884L15.8915 14.1608C16.044 14.0082 16.044 13.7608 15.8915 13.6084L15.3575 13.0743C15.6233 12.6129 15.8268 12.1219 15.9651 11.6083H16.7195C16.9352 11.6083 17.1101 11.4334 17.1101 11.2177V8.77518C17.1101 8.55942 16.9352 8.38455 16.7195 8.38455H15.9649C15.8267 7.87109 15.6233 7.38007 15.3575 6.91864L15.8886 6.38748C15.9619 6.31424 16.0031 6.21475 16.0031 6.11115C16.0029 6.00754 15.9617 5.90805 15.8885 5.83481L14.1607 4.10843C14.0083 3.95599 13.761 3.95599 13.6084 4.10858L13.078 4.63913C12.6165 4.37332 12.1255 4.16977 11.6119 4.03152V3.28125C11.6119 3.06549 11.437 2.89062 11.2213 2.89062H8.77881C8.5632 2.89062 8.38818 3.06549 8.38818 3.28125V4.03168C7.87473 4.16977 7.3837 4.37332 6.92227 4.63913L6.39172 4.10858C6.23929 3.95615 5.99194 3.95599 5.83936 4.10843L4.11176 5.83496C4.03836 5.9082 3.99716 6.00754 3.99716 6.11115C3.99716 6.21475 4.03836 6.31424 4.1116 6.38748L4.64276 6.91864C4.37695 7.38007 4.1734 7.87094 4.03516 8.38455H3.28214C3.06638 8.38455 2.89151 8.55942 2.89151 8.77502L2.89014 11.2175C2.88998 11.3211 2.93118 11.4206 3.00443 11.4938C3.07767 11.5671 3.177 11.6083 3.28076 11.6083H4.03516C4.1734 12.1219 4.37695 12.6129 4.64276 13.0743L4.1087 13.6084C3.95627 13.7608 3.95612 14.0082 4.1087 14.1608L5.83508 15.8884C5.90833 15.9616 6.00766 16.003 6.11127 16.003H6.11142C6.21503 16.003 6.31436 15.9618 6.3876 15.8885L6.92212 15.3539C7.3837 15.6197 7.87473 15.8232 8.38818 15.9615V16.7188ZM7.07532 14.5323C6.92075 14.4324 6.71735 14.454 6.58704 14.5842L6.11142 15.0598L4.93726 13.8847L5.41241 13.4094C5.54257 13.2793 5.56424 13.0759 5.46429 12.9213C5.11014 12.3732 4.86111 11.7725 4.7244 11.1356C4.68564 10.9557 4.52664 10.827 4.34247 10.827H3.67154L3.67246 9.1658H4.34247C4.52664 9.1658 4.68564 9.03732 4.7244 8.85727C4.86111 8.22052 5.11014 7.61978 5.46429 7.07169C5.56424 6.91711 5.54257 6.71371 5.41241 6.58356L4.94031 6.1113L6.11539 4.93713L6.58704 5.40894C6.71735 5.53909 6.92059 5.56061 7.07532 5.46082C7.62326 5.10666 8.224 4.85764 8.8609 4.72092C9.0408 4.68216 9.16943 4.52301 9.16943 4.33899V3.67188H10.8307V4.33884C10.8307 4.52301 10.9591 4.68216 11.1392 4.72076C11.7759 4.85764 12.3768 5.10651 12.9248 5.46066C13.0793 5.56061 13.2827 5.53909 13.4129 5.40878L13.8847 4.93713L15.0598 6.1113L14.5877 6.5834C14.4574 6.71371 14.4359 6.91711 14.5358 7.07169C14.89 7.61978 15.1388 8.22052 15.2757 8.85727C15.3143 9.03732 15.4734 9.1658 15.6576 9.1658H16.3289V10.827H15.6576C15.4734 10.827 15.3145 10.9557 15.2757 11.1356C15.139 11.7723 14.89 12.3732 14.5358 12.9211C14.4359 13.0759 14.4575 13.2793 14.5877 13.4094L15.0628 13.8846L13.8887 15.0597L13.4131 14.5842C13.2827 14.4539 13.0793 14.4324 12.9248 14.5323C12.3767 14.8865 11.7759 15.1353 11.1392 15.2722C10.9591 15.311 10.8307 15.47 10.8307 15.6541V16.3281H9.16943V15.6541C9.16943 15.4701 9.0408 15.311 8.8609 15.2722C8.22415 15.1355 7.62341 14.8865 7.07532 14.5323V14.5323Z" fill="#1C4684"/>
<path d="M13.2276 10.0002C13.2276 8.22037 11.7797 6.77246 9.99991 6.77246C8.22012 6.77246 6.77222 8.22037 6.77222 10.0002C6.77222 11.7799 8.22012 13.2278 9.99991 13.2278C11.7797 13.2278 13.2276 11.7799 13.2276 10.0002ZM7.55347 10.0002C7.55347 8.65112 8.65088 7.55371 9.99991 7.55371C11.3489 7.55371 12.4464 8.65128 12.4464 10.0002C12.4464 11.349 11.3489 12.4466 9.99991 12.4466C8.65088 12.4466 7.55347 11.3492 7.55347 10.0002Z" fill="#1C4684"/>
<path d="M13.5967 1.47751C13.6995 1.47751 13.8002 1.4357 13.8729 1.36307C13.9455 1.28998 13.9873 1.18927 13.9873 1.08643C13.9873 0.984192 13.9456 0.883331 13.8729 0.810242C13.8002 0.73761 13.6995 0.695801 13.5967 0.695801C13.4935 0.695801 13.3933 0.73761 13.3206 0.810242C13.2479 0.883331 13.2061 0.983734 13.2061 1.08643C13.2061 1.18958 13.2479 1.28998 13.3206 1.36307C13.3933 1.4357 13.4935 1.47751 13.5967 1.47751Z" fill="#1C4684"/>
<path d="M6.42041 18.5298C6.31772 18.5298 6.21686 18.5716 6.14423 18.6442C6.07159 18.7169 6.02979 18.8177 6.02979 18.9204C6.02979 19.0236 6.07159 19.124 6.14423 19.1966C6.21686 19.2692 6.31772 19.311 6.42041 19.311C6.5231 19.311 6.62396 19.2692 6.69659 19.1966C6.76923 19.124 6.81104 19.0231 6.81104 18.9204C6.81104 18.8177 6.76923 18.7169 6.69659 18.6442C6.62396 18.5716 6.5231 18.5298 6.42041 18.5298Z" fill="#1C4684"/>
</svg>
