<svg width="15" height="15" viewBox="0 0 15 15" fill="none" xmlns="http://www.w3.org/2000/svg">
<path d="M14.4416 3.08825L11.8728 0.510192C11.5376 0.194141 11.0982 0.0127958 10.6384 0.000651813C10.1786 -0.0114921 9.7304 0.146413 9.37904 0.444329L0.941451 8.91239C0.638415 9.21909 0.449731 9.62108 0.40707 10.0509L0.00394031 13.9744C-0.00868893 14.1122 0.0091288 14.2511 0.0561233 14.3812C0.103118 14.5113 0.178132 14.6294 0.275818 14.7271C0.363419 14.8143 0.467311 14.8833 0.581535 14.9301C0.695758 14.977 0.818068 15.0007 0.941451 15H1.02583L4.93525 14.6424C5.3635 14.5996 5.76404 14.4103 6.06963 14.1061L14.5072 5.63807C14.8347 5.29085 15.0117 4.8275 14.9994 4.34955C14.9871 3.8716 14.7865 3.41804 14.4416 3.08825ZM4.76649 12.7607L1.95396 13.0241L2.20709 10.2014L7.50402 4.95122L10.0353 7.49164L4.76649 12.7607ZM11.2541 6.23084L8.74154 3.70924L10.5697 1.82745L13.1291 4.39609L11.2541 6.23084Z" fill="#325E9E"/>
</svg>
