<svg width="125" height="96" viewBox="0 0 125 96" fill="none" xmlns="http://www.w3.org/2000/svg">
<path d="M114.014 0H10.9863C4.93604 0 0 4.93066 0 10.9863V84.2285C0 90.2637 4.91406 95.2148 10.9863 95.2148H114.014C120.049 95.2148 125 90.3008 125 84.2285V10.9863C125 4.95117 120.086 0 114.014 0ZM112.497 7.32422L62.7329 57.0881L12.5388 7.32422H112.497ZM7.32422 82.7119V12.468L42.5974 47.4387L7.32422 82.7119ZM12.5032 87.8906L47.7986 52.5952L60.166 64.8564C61.5977 66.2759 63.908 66.2712 65.3337 64.8452L77.3926 52.7864L112.497 87.8906H12.5032ZM117.676 82.7117L82.5715 47.6074L117.676 12.5029V82.7117Z" fill="#3CBA54"/>
</svg>
