<svg width="19" height="21" viewBox="0 0 19 21" fill="none" xmlns="http://www.w3.org/2000/svg">
<path d="M17.7682 3.37981L9.89482 0.104784C9.57345 -0.0349281 9.20265 -0.0349281 8.87717 0.104784L1.00793 3.3757C0.517651 3.58116 0.196289 4.05371 0.196289 4.5838V11.8447C0.196289 16.8949 4.32043 21 9.38393 21C14.4474 21 18.5716 16.8908 18.5716 11.8447V4.5838C18.5716 4.05782 18.2543 3.58527 17.7682 3.37981ZM16.9236 11.8488C16.9236 15.9909 13.5369 19.3604 9.38393 19.3604C5.23095 19.3604 1.8443 15.9909 1.8443 11.8488V4.8098L9.38393 1.67449L16.9236 4.8098V11.8488Z" fill="#3CBA54"/>
<path d="M5.86686 10.0836C5.55902 9.7034 4.99689 9.64151 4.61321 9.94652C4.22953 10.2515 4.16707 10.8085 4.47491 11.1886L6.4736 13.6596C6.47806 13.6641 6.48252 13.6685 6.48252 13.6729C6.48699 13.6817 6.49591 13.6862 6.50037 13.695C6.50483 13.6994 6.50929 13.7083 6.51822 13.7127L6.54052 13.7348C6.54498 13.7392 6.55391 13.7436 6.55837 13.7525L6.58067 13.7746L6.59852 13.7922C6.60744 13.7967 6.6119 13.8055 6.62083 13.8099C6.63421 13.8188 6.64759 13.832 6.66098 13.8409C6.66544 13.8409 6.66544 13.8453 6.6699 13.8453C6.68329 13.8541 6.69667 13.863 6.70559 13.8674C6.71005 13.8718 6.71452 13.8718 6.71898 13.8762C6.73236 13.8806 6.74128 13.8895 6.75467 13.8939C6.75913 13.8983 6.76359 13.8983 6.76805 13.9028C6.77697 13.9072 6.79036 13.9116 6.79928 13.9204C6.80374 13.9249 6.8082 13.9249 6.81266 13.9293C6.82159 13.9337 6.83497 13.9381 6.8439 13.9425C6.84836 13.9425 6.85282 13.947 6.86174 13.947C6.87066 13.9514 6.88405 13.9558 6.89297 13.9558C6.89743 13.9558 6.90635 13.9602 6.91082 13.9602C6.91974 13.9646 6.93312 13.9646 6.94205 13.9691C6.94651 13.9691 6.95543 13.9735 6.95989 13.9735C6.96881 13.9779 6.9822 13.9779 6.99112 13.9823C6.99558 13.9823 7.0045 13.9867 7.00897 13.9867C7.01789 13.9867 7.03127 13.9912 7.0402 13.9912C7.04912 13.9912 7.05358 13.9912 7.0625 13.9956C7.07142 13.9956 7.08035 13.9956 7.09373 14H7.16511C7.18742 14 7.20973 14 7.2365 13.9956H7.25434C7.27219 13.9956 7.29003 13.9912 7.30788 13.9912C7.3168 13.9912 7.32126 13.9867 7.33018 13.9867C7.34357 13.9823 7.36141 13.9823 7.3748 13.9779C7.38372 13.9779 7.39264 13.9735 7.40157 13.9691L7.44172 13.9558C7.45064 13.9514 7.45956 13.9514 7.46849 13.947L7.50864 13.9337L7.53541 13.9204C7.54879 13.916 7.56218 13.9072 7.5711 13.9028L7.59787 13.8895C7.62017 13.8762 7.63802 13.8674 7.66033 13.8541L14.0892 9.61941C14.4996 9.34977 14.6111 8.80164 14.339 8.39497C14.0669 7.9883 13.5136 7.87779 13.1032 8.14743L7.35249 11.9357L5.86686 10.0836Z" fill="#3CBA54"/>
</svg>
