<svg width="60" height="60" viewBox="0 0 60 60" fill="none" xmlns="http://www.w3.org/2000/svg">
<path d="M55 6H50V4C50 2.93913 49.5786 1.92172 48.8284 1.17157C48.0783 0.421427 47.0609 0 46 0C44.9391 0 43.9217 0.421427 43.1716 1.17157C42.4214 1.92172 42 2.93913 42 4V6H34V4C34 2.93913 33.5786 1.92172 32.8284 1.17157C32.0783 0.421427 31.0609 0 30 0C28.9391 0 27.9217 0.421427 27.1716 1.17157C26.4214 1.92172 26 2.93913 26 4V6H18V4C18 2.93913 17.5786 1.92172 16.8284 1.17157C16.0783 0.421427 15.0609 0 14 0C12.9391 0 11.9217 0.421427 11.1716 1.17157C10.4214 1.92172 10 2.93913 10 4V6H5C3.67392 6 2.40215 6.52678 1.46447 7.46447C0.526784 8.40215 0 9.67392 0 11V51C0 52.3261 0.526784 53.5979 1.46447 54.5355C2.40215 55.4732 3.67392 56 5 56H33C33.2652 56 33.5196 55.8946 33.7071 55.7071C33.8946 55.5196 34 55.2652 34 55C34 54.7348 33.8946 54.4804 33.7071 54.2929C33.5196 54.1054 33.2652 54 33 54H5C4.20508 53.9976 3.4434 53.6808 2.8813 53.1187C2.31921 52.5566 2.00237 51.7949 2 51V20H58V37C58 37.2652 58.1054 37.5196 58.2929 37.7071C58.4804 37.8946 58.7348 38 59 38C59.2652 38 59.5196 37.8946 59.7071 37.7071C59.8946 37.5196 60 37.2652 60 37V11C60 9.67392 59.4732 8.40215 58.5355 7.46447C57.5979 6.52678 56.3261 6 55 6ZM44 4C44 3.46957 44.2107 2.96086 44.5858 2.58579C44.9609 2.21071 45.4696 2 46 2C46.5304 2 47.0391 2.21071 47.4142 2.58579C47.7893 2.96086 48 3.46957 48 4V10C48 10.5304 47.7893 11.0391 47.4142 11.4142C47.0391 11.7893 46.5304 12 46 12C45.4696 12 44.9609 11.7893 44.5858 11.4142C44.2107 11.0391 44 10.5304 44 10V4ZM28 4C28 3.46957 28.2107 2.96086 28.5858 2.58579C28.9609 2.21071 29.4696 2 30 2C30.5304 2 31.0391 2.21071 31.4142 2.58579C31.7893 2.96086 32 3.46957 32 4V10C32 10.5304 31.7893 11.0391 31.4142 11.4142C31.0391 11.7893 30.5304 12 30 12C29.4696 12 28.9609 11.7893 28.5858 11.4142C28.2107 11.0391 28 10.5304 28 10V4ZM12 4C12 3.46957 12.2107 2.96086 12.5858 2.58579C12.9609 2.21071 13.4696 2 14 2C14.5304 2 15.0391 2.21071 15.4142 2.58579C15.7893 2.96086 16 3.46957 16 4V10C16 10.5304 15.7893 11.0391 15.4142 11.4142C15.0391 11.7893 14.5304 12 14 12C13.4696 12 12.9609 11.7893 12.5858 11.4142C12.2107 11.0391 12 10.5304 12 10V4ZM58 18H2V11C2.00237 10.2051 2.31921 9.4434 2.8813 8.8813C3.4434 8.31921 4.20508 8.00237 5 8H10V10C10 11.0609 10.4214 12.0783 11.1716 12.8284C11.9217 13.5786 12.9391 14 14 14C15.0609 14 16.0783 13.5786 16.8284 12.8284C17.5786 12.0783 18 11.0609 18 10V8H26V10C26 11.0609 26.4214 12.0783 27.1716 12.8284C27.9217 13.5786 28.9391 14 30 14C31.0609 14 32.0783 13.5786 32.8284 12.8284C33.5786 12.0783 34 11.0609 34 10V8H42V10C42 11.0609 42.4214 12.0783 43.1716 12.8284C43.9217 13.5786 44.9391 14 46 14C47.0609 14 48.0783 13.5786 48.8284 12.8284C49.5786 12.0783 50 11.0609 50 10V8H55C55.7949 8.00237 56.5566 8.31921 57.1187 8.8813C57.6808 9.4434 57.9976 10.2051 58 11V18Z" fill="#1565D8"/>
<path d="M28 27C28 26.4696 27.7893 25.9609 27.4142 25.5858C27.0391 25.2107 26.5304 25 26 25H22C21.4696 25 20.9609 25.2107 20.5858 25.5858C20.2107 25.9609 20 26.4696 20 27V30C20 30.5304 20.2107 31.0391 20.5858 31.4142C20.9609 31.7893 21.4696 32 22 32H26C26.5304 32 27.0391 31.7893 27.4142 31.4142C27.7893 31.0391 28 30.5304 28 30V27ZM22 30V27H26V30H22Z" fill="#1565D8"/>
<path d="M16 27C16 26.4696 15.7893 25.9609 15.4142 25.5858C15.0391 25.2107 14.5304 25 14 25H10C9.46957 25 8.96086 25.2107 8.58579 25.5858C8.21071 25.9609 8 26.4696 8 27V30C8 30.5304 8.21071 31.0391 8.58579 31.4142C8.96086 31.7893 9.46957 32 10 32H14C14.5304 32 15.0391 31.7893 15.4142 31.4142C15.7893 31.0391 16 30.5304 16 30V27ZM10 30V27H14V30H10Z" fill="#1565D8"/>
<path d="M50 32C50.5304 32 51.0391 31.7893 51.4142 31.4142C51.7893 31.0391 52 30.5304 52 30V27C52 26.4696 51.7893 25.9609 51.4142 25.5858C51.0391 25.2107 50.5304 25 50 25H46C45.4696 25 44.9609 25.2107 44.5858 25.5858C44.2107 25.9609 44 26.4696 44 27V30C44 30.5304 44.2107 31.0391 44.5858 31.4142C44.9609 31.7893 45.4696 32 46 32H50ZM46 27H50V30H46V27Z" fill="#1565D8"/>
<path d="M28 36.0005C28 35.4701 27.7893 34.9613 27.4142 34.5863C27.0391 34.2112 26.5304 34.0005 26 34.0005H22C21.4696 34.0005 20.9609 34.2112 20.5858 34.5863C20.2107 34.9613 20 35.4701 20 36.0005V39.0005C20 39.5309 20.2107 40.0396 20.5858 40.4147C20.9609 40.7898 21.4696 41.0005 22 41.0005H26C26.5304 41.0005 27.0391 40.7898 27.4142 40.4147C27.7893 40.0396 28 39.5309 28 39.0005V36.0005ZM22 39.0005V36.0005H26V39.0005H22Z" fill="#1565D8"/>
<path d="M16 36.0005C16 35.4701 15.7893 34.9613 15.4142 34.5863C15.0391 34.2112 14.5304 34.0005 14 34.0005H10C9.46957 34.0005 8.96086 34.2112 8.58579 34.5863C8.21071 34.9613 8 35.4701 8 36.0005V39.0005C8 39.5309 8.21071 40.0396 8.58579 40.4147C8.96086 40.7898 9.46957 41.0005 10 41.0005H14C14.5304 41.0005 15.0391 40.7898 15.4142 40.4147C15.7893 40.0396 16 39.5309 16 39.0005V36.0005ZM10 39.0005V36.0005H14V39.0005H10Z" fill="#1565D8"/>
<path d="M26 43H22C21.4696 43 20.9609 43.2107 20.5858 43.5858C20.2107 43.9609 20 44.4696 20 45V48C20 48.5304 20.2107 49.0391 20.5858 49.4142C20.9609 49.7893 21.4696 50 22 50H26C26.5304 50 27.0391 49.7893 27.4142 49.4142C27.7893 49.0391 28 48.5304 28 48V45C28 44.4696 27.7893 43.9609 27.4142 43.5858C27.0391 43.2107 26.5304 43 26 43ZM22 48V45H26V48H22Z" fill="#1565D8"/>
<path d="M34 32H38C38.5304 32 39.0391 31.7893 39.4142 31.4142C39.7893 31.0391 40 30.5304 40 30V27C40 26.4696 39.7893 25.9609 39.4142 25.5858C39.0391 25.2107 38.5304 25 38 25H34C33.4696 25 32.9609 25.2107 32.5858 25.5858C32.2107 25.9609 32 26.4696 32 27V30C32 30.5304 32.2107 31.0391 32.5858 31.4142C32.9609 31.7893 33.4696 32 34 32ZM34 27H38V30H34V27Z" fill="#1565D8"/>
<path d="M32 39.0005C32 39.5309 32.2107 40.0396 32.5858 40.4147C32.9609 40.7898 33.4696 41.0005 34 41.0005C34.2652 41.0005 34.5196 40.8951 34.7071 40.7076C34.8946 40.5201 35 40.2657 35 40.0005C35 39.7353 34.8946 39.4809 34.7071 39.2934C34.5196 39.1058 34.2652 39.0005 34 39.0005V36.0005H38C38.2652 36.0005 38.5196 35.8951 38.7071 35.7076C38.8946 35.5201 39 35.2657 39 35.0005C39 34.7353 38.8946 34.4809 38.7071 34.2934C38.5196 34.1058 38.2652 34.0005 38 34.0005H34C33.4696 34.0005 32.9609 34.2112 32.5858 34.5863C32.2107 34.9613 32 35.4701 32 36.0005V39.0005Z" fill="#1565D8"/>
<path d="M14 43H10C9.46957 43 8.96086 43.2107 8.58579 43.5858C8.21071 43.9609 8 44.4696 8 45V48C8 48.5304 8.21071 49.0391 8.58579 49.4142C8.96086 49.7893 9.46957 50 10 50H14C14.5304 50 15.0391 49.7893 15.4142 49.4142C15.7893 49.0391 16 48.5304 16 48V45C16 44.4696 15.7893 43.9609 15.4142 43.5858C15.0391 43.2107 14.5304 43 14 43V43ZM10 48V45H14V48H10Z" fill="#1565D8"/>
<path d="M47 34.0005C44.4289 34.0005 41.9154 34.7629 39.7776 36.1914C37.6398 37.6198 35.9735 39.6502 34.9896 42.0256C34.0056 44.401 33.7482 47.0149 34.2498 49.5367C34.7514 52.0584 35.9895 54.3748 37.8076 56.1929C39.6257 58.011 41.9421 59.2491 44.4638 59.7507C46.9856 60.2523 49.5995 59.9949 51.9749 59.0109C54.3503 58.027 56.3807 56.3607 57.8091 54.2229C59.2376 52.0851 60 49.5716 60 47.0005C59.996 43.5539 58.6251 40.2496 56.188 37.8125C53.7509 35.3754 50.4466 34.0045 47 34.0005V34.0005ZM47 58.0005C44.8244 58.0005 42.6977 57.3553 40.8887 56.1467C39.0798 54.938 37.6699 53.22 36.8373 51.21C36.0048 49.2 35.7869 46.9883 36.2114 44.8545C36.6358 42.7207 37.6835 40.7607 39.2218 39.2223C40.7602 37.6839 42.7202 36.6363 44.854 36.2118C46.9878 35.7874 49.1995 36.0053 51.2095 36.8378C53.2195 37.6704 54.9375 39.0803 56.1462 40.8892C57.3549 42.6982 58 44.8249 58 47.0005C57.9966 49.9168 56.8365 52.7127 54.7744 54.7749C52.7122 56.837 49.9163 57.997 47 58.0005Z" fill="#1565D8"/>
<path d="M52.7777 42.8081L44.9997 50.5861L41.4647 47.0501C41.2761 46.8679 41.0235 46.7671 40.7613 46.7694C40.4991 46.7717 40.2483 46.8768 40.0629 47.0622C39.8775 47.2476 39.7723 47.4985 39.7701 47.7607C39.7678 48.0228 39.8686 48.2755 40.0507 48.4641L44.2927 52.7071C44.4803 52.8945 44.7346 52.9998 44.9997 52.9998C45.2649 52.9998 45.5192 52.8945 45.7067 52.7071L54.1917 44.2221C54.3739 44.0335 54.4747 43.7809 54.4724 43.5187C54.4701 43.2565 54.365 43.0056 54.1796 42.8202C53.9941 42.6348 53.7433 42.5297 53.4811 42.5274C53.2189 42.5251 52.9663 42.6259 52.7777 42.8081Z" fill="#1565D8"/>
</svg>
