<svg width="27" height="27" viewBox="0 0 27 27" fill="none" xmlns="http://www.w3.org/2000/svg">
<path d="M10.1475 23.625H2.8125C1.26225 23.625 0 22.3639 0 20.8125V2.8125C0 1.26113 1.26225 0 2.8125 0H16.3125C17.8628 0 19.125 1.26113 19.125 2.8125V9.63C19.125 9.9405 18.873 10.1925 18.5625 10.1925C18.252 10.1925 18 9.9405 18 9.63V2.8125C18 1.88213 17.2429 1.125 16.3125 1.125H2.8125C1.88213 1.125 1.125 1.88213 1.125 2.8125V20.8125C1.125 21.7429 1.88213 22.5 2.8125 22.5H10.1475C10.458 22.5 10.71 22.752 10.71 23.0625C10.71 23.373 10.458 23.625 10.1475 23.625Z" fill="#1565D8"/>
<path d="M15.1875 10.125H3.9375C3.627 10.125 3.375 9.873 3.375 9.5625C3.375 9.252 3.627 9 3.9375 9H15.1875C15.498 9 15.75 9.252 15.75 9.5625C15.75 9.873 15.498 10.125 15.1875 10.125Z" fill="#1565D8"/>
<path d="M10.6875 14.625H3.9375C3.627 14.625 3.375 14.373 3.375 14.0625C3.375 13.752 3.627 13.5 3.9375 13.5H10.6875C10.998 13.5 11.25 13.752 11.25 14.0625C11.25 14.373 10.998 14.625 10.6875 14.625Z" fill="#1565D8"/>
<path d="M9.5625 5.625H3.9375C3.627 5.625 3.375 5.373 3.375 5.0625C3.375 4.752 3.627 4.5 3.9375 4.5H9.5625C9.873 4.5 10.125 4.752 10.125 5.0625C10.125 5.373 9.873 5.625 9.5625 5.625Z" fill="#1565D8"/>
<path d="M19.6875 27C15.6555 27 12.375 23.7195 12.375 19.6875C12.375 15.6555 15.6555 12.375 19.6875 12.375C23.7195 12.375 27 15.6555 27 19.6875C27 23.7195 23.7195 27 19.6875 27ZM19.6875 13.5C16.2754 13.5 13.5 16.2765 13.5 19.6875C13.5 23.0985 16.2754 25.875 19.6875 25.875C23.0996 25.875 25.875 23.0985 25.875 19.6875C25.875 16.2765 23.0996 13.5 19.6875 13.5Z" fill="#1565D8"/>
<path d="M19.6875 23.625C19.377 23.625 19.125 23.373 19.125 23.0625V16.3125C19.125 16.002 19.377 15.75 19.6875 15.75C19.998 15.75 20.25 16.002 20.25 16.3125V23.0625C20.25 23.373 19.998 23.625 19.6875 23.625Z" fill="#1565D8"/>
<path d="M23.0625 20.25H16.3125C16.002 20.25 15.75 19.998 15.75 19.6875C15.75 19.377 16.002 19.125 16.3125 19.125H23.0625C23.373 19.125 23.625 19.377 23.625 19.6875C23.625 19.998 23.373 20.25 23.0625 20.25Z" fill="#1565D8"/>
</svg>
