<svg width="29" height="14" viewBox="0 0 29 14" fill="none" xmlns="http://www.w3.org/2000/svg">
<path fill-rule="evenodd" clip-rule="evenodd" d="M29 1.4C29 0.626801 28.3732 2.38419e-07 27.6 2.38419e-07H1.4C0.626801 2.38419e-07 4.76837e-07 0.626801 4.76837e-07 1.4V1.4C4.76837e-07 2.1732 0.626802 2.8 1.4 2.8H27.6C28.3732 2.8 29 2.1732 29 1.4V1.4ZM11.8762 12.6C11.8762 11.8268 11.2494 11.2 10.4762 11.2H1.4C0.626802 11.2 4.76837e-07 11.8268 4.76837e-07 12.6V12.6C4.76837e-07 13.3732 0.626802 14 1.4 14H10.4762C11.2494 14 11.8762 13.3732 11.8762 12.6V12.6ZM17.4 7C17.4 6.2268 16.7732 5.6 16 5.6H1.4C0.626801 5.6 4.76837e-07 6.2268 4.76837e-07 7V7C4.76837e-07 7.7732 0.626802 8.4 1.4 8.4H16C16.7732 8.4 17.4 7.7732 17.4 7V7Z" fill="#325E9E"/>
</svg>
