<svg width="17" height="17" viewBox="0 0 17 17" fill="none" xmlns="http://www.w3.org/2000/svg">
<path d="M11.4614 16.1017H4.64076C4.16114 16.1031 3.69825 15.9256 3.34267 15.6037C2.98709 15.2818 2.76442 14.8388 2.71822 14.3615L1.61365 3.28418C1.60454 3.19463 1.61434 3.10417 1.64242 3.01865C1.67049 2.93312 1.71622 2.85445 1.77663 2.78773C1.83704 2.721 1.9108 2.6677 1.99312 2.63129C2.07544 2.59488 2.16448 2.57616 2.2545 2.57636H13.8477C13.9376 2.57636 14.0266 2.59521 14.1088 2.63169C14.191 2.66817 14.2647 2.72147 14.3251 2.78815C14.3854 2.85483 14.4312 2.93342 14.4593 3.01886C14.4875 3.10429 14.4974 3.19467 14.4885 3.28418L13.3839 14.3608C13.3378 14.8383 13.1151 15.2813 12.7595 15.6033C12.404 15.9252 11.9411 16.103 11.4614 16.1017ZM2.96554 3.86449L3.99991 14.2333C4.01545 14.3924 4.08971 14.54 4.2082 14.6473C4.32669 14.7546 4.48091 14.8139 4.64076 14.8136H11.4614C11.6213 14.8139 11.7755 14.7546 11.894 14.6473C12.0125 14.54 12.0867 14.3924 12.1022 14.2333L13.1366 3.86449H2.96554Z" fill="#DB3236"/>
<path d="M15.4576 3.86448H0.644065C0.473248 3.86448 0.309428 3.79663 0.188642 3.67584C0.0678566 3.55506 0 3.39124 0 3.22042C0 3.0496 0.0678566 2.88578 0.188642 2.765C0.309428 2.64421 0.473248 2.57635 0.644065 2.57635H15.4576C15.6284 2.57635 15.7922 2.64421 15.913 2.765C16.0338 2.88578 16.1016 3.0496 16.1016 3.22042C16.1016 3.39124 16.0338 3.55506 15.913 3.67584C15.7922 3.79663 15.6284 3.86448 15.4576 3.86448ZM8.05081 13.5255C7.88 13.5255 7.71618 13.4576 7.59539 13.3368C7.4746 13.216 7.40675 13.0522 7.40675 12.8814V5.79668C7.40675 5.62586 7.4746 5.46204 7.59539 5.34126C7.71618 5.22047 7.88 5.15261 8.05081 5.15261C8.22163 5.15261 8.38545 5.22047 8.50623 5.34126C8.62702 5.46204 8.69488 5.62586 8.69488 5.79668V12.8814C8.69488 13.0522 8.62702 13.216 8.50623 13.3368C8.38545 13.4576 8.22163 13.5255 8.05081 13.5255ZM5.79594 13.5255C5.63526 13.5253 5.48044 13.4651 5.36188 13.3567C5.24331 13.2482 5.16956 13.0994 5.1551 12.9394L4.51103 5.85465C4.49564 5.68461 4.54839 5.51542 4.65769 5.38427C4.76699 5.25311 4.92389 5.17071 5.09391 5.15519C5.26404 5.14015 5.4332 5.19309 5.5644 5.30245C5.6956 5.4118 5.77815 5.56866 5.79401 5.73871L6.43807 12.8234C6.44613 12.9126 6.43551 13.0024 6.40689 13.0873C6.37828 13.1721 6.33229 13.25 6.27187 13.3161C6.21145 13.3821 6.13792 13.4349 6.05597 13.4709C5.97402 13.507 5.88546 13.5256 5.79594 13.5255ZM10.3057 13.5255C10.2162 13.5256 10.1276 13.507 10.0457 13.4709C9.96371 13.4349 9.89018 13.3821 9.82976 13.3161C9.76933 13.25 9.72335 13.1721 9.69473 13.0873C9.66611 13.0024 9.65549 12.9126 9.66355 12.8234L10.3076 5.73871C10.3405 5.38448 10.6496 5.12943 11.0077 5.15519C11.1777 5.17071 11.3346 5.25311 11.4439 5.38427C11.5532 5.51542 11.606 5.68461 11.5906 5.85465L10.9465 12.9394C10.9321 13.0994 10.8583 13.2482 10.7397 13.3567C10.6212 13.4651 10.4664 13.5253 10.3057 13.5255Z" fill="#DB3236"/>
<path d="M10.9489 3.86439H5.15237C4.98155 3.86439 4.81773 3.79653 4.69694 3.67575C4.57616 3.55496 4.5083 3.39114 4.5083 3.22032V0.644065C4.5083 0.473248 4.57616 0.309428 4.69694 0.188642C4.81773 0.0678566 4.98155 0 5.15237 0H10.9489C11.1198 0 11.2836 0.0678566 11.4044 0.188642C11.5252 0.309428 11.593 0.473248 11.593 0.644065V3.22032C11.593 3.39114 11.5252 3.55496 11.4044 3.67575C11.2836 3.79653 11.1198 3.86439 10.9489 3.86439ZM5.79643 2.57626H10.3049V1.28813H5.79643V2.57626Z" fill="#DB3236"/>
</svg>
