<svg width="26" height="26" viewBox="0 0 26 26" fill="none" xmlns="http://www.w3.org/2000/svg">
<rect width="26" height="26" rx="6" fill="#EAECEF"/>
<path d="M15 12.9998C15 13.1883 14.9612 13.375 14.8858 13.5491C14.8104 13.7233 14.6999 13.8815 14.5607 14.0148C14.4214 14.148 14.256 14.2538 14.074 14.3259C13.892 14.398 13.697 14.4352 13.5 14.4352C13.303 14.4352 13.108 14.398 12.926 14.3259C12.744 14.2538 12.5786 14.148 12.4393 14.0148C12.3001 13.8815 12.1896 13.7233 12.1142 13.5491C12.0388 13.375 12 13.1883 12 12.9998C12.0001 12.6192 12.1582 12.2541 12.4396 11.985C12.7209 11.7159 13.1025 11.5648 13.5003 11.5648C13.8982 11.5649 14.2797 11.7162 14.5609 11.9855C14.8421 12.2547 15.0001 12.6198 15 13.0005V12.9998ZM15 17.5647C15 17.7532 14.9612 17.9398 14.8858 18.114C14.8104 18.2881 14.6999 18.4463 14.5607 18.5796C14.4214 18.7129 14.256 18.8186 14.074 18.8907C13.892 18.9629 13.697 19 13.5 19C13.303 19 13.108 18.9629 12.926 18.8907C12.744 18.8186 12.5786 18.7129 12.4393 18.5796C12.3001 18.4463 12.1896 18.2881 12.1142 18.114C12.0388 17.9398 12 17.7532 12 17.5647C12.0001 17.184 12.1582 16.819 12.4396 16.5499C12.7209 16.2807 13.1025 16.1296 13.5003 16.1297C13.8982 16.1298 14.2797 16.2811 14.5609 16.5503C14.8421 16.8196 15.0001 17.1847 15 17.5653V17.5647ZM15 8.43499C15 8.62348 14.9612 8.81012 14.8858 8.98426C14.8104 9.15841 14.6999 9.31663 14.5607 9.44991C14.4214 9.5832 14.256 9.68892 14.074 9.76105C13.892 9.83319 13.697 9.87031 13.5 9.87031C13.303 9.87031 13.108 9.83319 12.926 9.76105C12.744 9.68892 12.5786 9.5832 12.4393 9.44991C12.3001 9.31663 12.1896 9.15841 12.1142 8.98426C12.0388 8.81012 12 8.62348 12 8.43499C12.0001 8.05432 12.1582 7.68928 12.4396 7.42016C12.7209 7.15105 13.1025 6.99991 13.5003 7C13.8982 7.00009 14.2797 7.15139 14.5609 7.42063C14.8421 7.68986 15.0001 8.05497 15 8.43564V8.43499Z" fill="#656565"/>
</svg>
