<?xml version="1.0"?>
<svg xmlns="http://www.w3.org/2000/svg" xmlns:xlink="http://www.w3.org/1999/xlink" xmlns:svgjs="http://svgjs.com/svgjs" version="1.1" width="512" height="512" x="0" y="0" viewBox="0 0 24 24" style="enable-background:new 0 0 512 512" xml:space="preserve"><g><path xmlns="http://www.w3.org/2000/svg" d="M17.5,0H6.5A5.507,5.507,0,0,0,1,5.5V20.472a3.5,3.5,0,0,0,6.044,2.4l4.912-5.2,5.013,5.25A3.5,3.5,0,0,0,23,20.51V5.5A5.507,5.507,0,0,0,17.5,0ZM20,20.51a.5.5,0,0,1-.861.345l-6.1-6.391A1.5,1.5,0,0,0,11.95,14h0a1.5,1.5,0,0,0-1.086.47l-6,6.345a.479.479,0,0,1-.549.122A.471.471,0,0,1,4,20.472V5.5A2.5,2.5,0,0,1,6.5,3h11A2.5,2.5,0,0,1,20,5.5Z" fill="#325e9e" data-original="#000000"/></g></svg>
