<svg width="30" height="28" viewBox="0 0 30 28" fill="none" xmlns="http://www.w3.org/2000/svg">
<path d="M18.2474 21C17.6591 21.0002 17.0809 20.8501 16.5702 20.5646L16.4982 20.5249C13.1777 18.6677 10.3997 16.009 8.42959 12.8028L8.05403 12.1908C7.66938 11.565 7.50998 10.8315 7.60125 10.1069C7.69252 9.38233 8.0292 8.70849 8.55764 8.19275L9.3059 7.46111C9.9347 6.8463 10.9573 6.8463 11.5856 7.46111L13.2341 9.07306C13.4823 9.3168 13.6424 9.63295 13.6902 9.97364C13.7381 10.3143 13.6711 10.661 13.4994 10.9611L12.8797 12.037C12.8667 12.0597 12.8616 12.0859 12.8652 12.1116C12.8688 12.1373 12.881 12.1612 12.8997 12.1796L16.5702 15.7684C16.5893 15.7867 16.6139 15.7985 16.6404 15.8019C16.6669 15.8053 16.6938 15.8002 16.7171 15.7874L17.8158 15.1821L17.8163 15.1816C18.1233 15.0139 18.4778 14.9485 18.8262 14.9952C19.1746 15.042 19.4979 15.1985 19.7473 15.4409L21.3965 17.054C22.0253 17.6688 22.0253 18.6687 21.3965 19.283L20.615 20.0465C20.3038 20.3497 19.9345 20.5901 19.5283 20.7537C19.122 20.9173 18.6867 21.001 18.2474 21ZM10.4457 8.11785C10.3257 8.11785 10.2056 8.16257 10.1142 8.252L9.36592 8.98307C9.01813 9.32253 8.79653 9.76604 8.73644 10.2429C8.67636 10.7198 8.78124 11.2027 9.03438 11.6145L9.40994 12.2265C11.2787 15.2681 13.9138 17.7903 17.0635 19.5524L17.1355 19.5921C18.0078 20.08 19.1054 19.9419 19.8062 19.2556L20.5876 18.4921C20.6312 18.4495 20.6657 18.399 20.6893 18.3434C20.7129 18.2877 20.725 18.2281 20.725 18.1679C20.725 18.1077 20.7129 18.0481 20.6893 17.9925C20.6657 17.9368 20.6312 17.8863 20.5876 17.8437L18.9385 16.2307C18.8659 16.1601 18.7717 16.1146 18.6703 16.1011C18.5689 16.0876 18.4658 16.1068 18.3765 16.1558L17.2779 16.7611C17.037 16.893 16.7587 16.9445 16.4851 16.9079C16.2116 16.8713 15.9577 16.7485 15.7619 16.5582L12.0915 12.9693C11.8966 12.7781 11.7709 12.5299 11.7335 12.2625C11.696 11.9951 11.7489 11.723 11.884 11.4876L12.5036 10.4122C12.5534 10.325 12.5728 10.2242 12.5589 10.1252C12.5449 10.0262 12.4985 9.93429 12.4264 9.86338L10.7773 8.252C10.7338 8.20939 10.6821 8.17561 10.6252 8.15259C10.5683 8.12957 10.5073 8.11777 10.4457 8.11785Z" fill="#1565D8" stroke="#1565D8" stroke-width="0.5"/>
</svg>
