<svg width="10" height="13" viewBox="0 0 10 13" fill="none" xmlns="http://www.w3.org/2000/svg">
<path d="M10 7.7487C10 4.85306 7.59838 2.49742 4.6462 2.49742L1.70809 2.49742L3.62318 0.618775L2.99233 -3.06315e-07L8.2538e-07 2.93503L2.99233 5.87006L3.62318 5.25128L1.70809 3.37263L4.6462 3.37263C7.10627 3.37263 9.1077 5.33574 9.1077 7.7487C9.1077 10.1617 7.10627 12.1248 4.6462 12.1248C3.45454 12.1248 2.33426 11.6697 1.49126 10.843L0.860401 11.462C1.35643 11.9511 1.94643 12.3389 2.59626 12.6029C3.24609 12.8669 3.94285 13.0019 4.6462 13C7.59838 13 10 10.6443 10 7.7487V7.7487Z" fill="#DB3236"/>
</svg>
