<svg width="15" height="18" viewBox="0 0 15 18" fill="none" xmlns="http://www.w3.org/2000/svg">
<path fill-rule="evenodd" clip-rule="evenodd" d="M14 7.54545C14 12.6364 7.5 17 7.5 17C7.5 17 1 12.6364 1 7.54545C1 5.80949 1.68482 4.14463 2.90381 2.91712C4.12279 1.68961 5.77609 1 7.5 1C9.22391 1 10.8772 1.68961 12.0962 2.91712C13.3152 4.14463 14 5.80949 14 7.54545V7.54545Z" stroke="#1565D8" stroke-width="1.8" stroke-linecap="round" stroke-linejoin="round"/>
<path d="M7.5 10C8.88071 10 10 8.88071 10 7.5C10 6.11929 8.88071 5 7.5 5C6.11929 5 5 6.11929 5 7.5C5 8.88071 6.11929 10 7.5 10Z" stroke="#1565D8" stroke-width="1.8" stroke-linecap="round" stroke-linejoin="round"/>
</svg>
