<svg width="16" height="16" viewBox="0 0 16 16" fill="none" xmlns="http://www.w3.org/2000/svg">
<path d="M11.4532 15C10.877 15.0002 10.3106 14.8501 9.81033 14.5646L9.73977 14.5249C6.48709 12.6677 3.76583 10.009 1.83599 6.80277L1.4681 6.19075C1.0913 5.56505 0.935162 4.83146 1.02457 4.1069C1.11397 3.38233 1.44378 2.70849 1.96142 2.19275L2.6944 1.46111C3.31035 0.846295 4.31212 0.846295 4.92751 1.46111L6.54242 3.07306C6.78546 3.3168 6.9423 3.63295 6.98918 3.97364C7.03606 4.31433 6.97044 4.66099 6.80224 4.96111L6.19525 6.03705C6.18249 6.05968 6.1775 6.08587 6.18104 6.1116C6.18458 6.13733 6.19645 6.1612 6.21485 6.17957L9.81033 9.76844C9.82902 9.78672 9.85316 9.79846 9.87911 9.80189C9.90506 9.80531 9.93142 9.80024 9.95424 9.78744L11.0305 9.18213L11.031 9.18157C11.3318 9.01386 11.679 8.94846 12.0203 8.99525C12.3616 9.04204 12.6783 9.19848 12.9226 9.44091L14.538 11.054C15.154 11.6688 15.154 12.6687 14.538 13.283L13.7726 14.0465C13.4677 14.3497 13.106 14.5901 12.708 14.7537C12.31 14.9173 11.8836 15.001 11.4532 15ZM3.81096 2.11785C3.69336 2.11785 3.57577 2.16257 3.48618 2.252L2.7532 2.98307C2.4125 3.32253 2.19543 3.76604 2.13658 4.24293C2.07772 4.71982 2.18046 5.20265 2.42842 5.6145L2.79631 6.22652C4.62689 9.26805 7.20816 11.7903 10.2936 13.5524L10.3641 13.5921C11.2186 14.08 12.2937 13.9419 12.9802 13.2556L13.7457 12.4921C13.7884 12.4495 13.8222 12.399 13.8453 12.3434C13.8684 12.2877 13.8803 12.2281 13.8803 12.1679C13.8803 12.1077 13.8684 12.0481 13.8453 11.9925C13.8222 11.9368 13.7884 11.8863 13.7457 11.8437L12.1302 10.2307C12.0591 10.1601 11.9669 10.1146 11.8676 10.1011C11.7683 10.0876 11.6672 10.1068 11.5798 10.1558L10.5036 10.7611C10.2676 10.893 9.99496 10.9445 9.72701 10.9079C9.45906 10.8713 9.21035 10.7485 9.01855 10.5582L5.42307 6.96934C5.2322 6.77812 5.10907 6.52995 5.07238 6.26252C5.0357 5.99509 5.08746 5.72301 5.21981 5.48762L5.8268 4.41225C5.87557 4.32496 5.89457 4.22421 5.88093 4.1252C5.86729 4.02619 5.82176 3.93429 5.7512 3.86338L4.13573 2.252C4.09311 2.20939 4.04248 2.17561 3.98675 2.15259C3.93101 2.12957 3.87127 2.11777 3.81096 2.11785Z" fill="#1565D8" stroke="#1565D8" stroke-width="0.5"/>
</svg>
