<svg width="33" height="27" viewBox="0 0 33 27" fill="none" xmlns="http://www.w3.org/2000/svg">
<path fill-rule="evenodd" clip-rule="evenodd" d="M12.8042 3.75778C12.8042 1.68243 14.4866 0 16.562 0C18.6373 0 20.3198 1.68243 20.3198 3.75778V5.14955C20.3198 7.2249 18.6373 8.90732 16.562 8.90732C14.4866 8.90732 12.8042 7.2249 12.8042 5.14955V3.75778ZM16.562 1.11342C15.1015 1.11342 13.9176 2.29734 13.9176 3.75778V5.14955C13.9176 6.60999 15.1015 7.79391 16.562 7.79391C18.0224 7.79391 19.2063 6.60999 19.2063 5.14955V3.75778C19.2063 2.29734 18.0224 1.11342 16.562 1.11342Z" fill="#1565D8"/>
<path d="M24.0777 15.0308C24.3851 15.0308 24.6344 15.28 24.6344 15.5875V18.7885H27.8354C28.143 18.7885 28.3922 19.0378 28.3922 19.3452C28.3922 19.6527 28.143 19.902 27.8354 19.902H24.6344V23.103C24.6344 23.4106 24.3851 23.6597 24.0777 23.6597C23.7702 23.6597 23.521 23.4106 23.521 23.103V19.902H20.3199C20.0124 19.902 19.7632 19.6527 19.7632 19.3452C19.7632 19.0378 20.0124 18.7885 20.3199 18.7885H23.521V15.5875C23.521 15.28 23.7702 15.0308 24.0777 15.0308Z" fill="#1565D8"/>
<path fill-rule="evenodd" clip-rule="evenodd" d="M24.2168 11.4126C19.9123 11.4126 16.4229 14.902 16.4229 19.2065C16.4229 23.511 19.9123 27.0004 24.2168 27.0004C28.5212 27.0004 32.0107 23.511 32.0107 19.2065C32.0107 14.902 28.5212 11.4126 24.2168 11.4126ZM17.5363 19.2065C17.5363 15.517 20.5272 12.526 24.2168 12.526C27.9063 12.526 30.8973 15.517 30.8973 19.2065C30.8973 22.8961 27.9063 25.887 24.2168 25.887C20.5272 25.887 17.5363 22.8961 17.5363 19.2065Z" fill="#1565D8"/>
<path fill-rule="evenodd" clip-rule="evenodd" d="M7.37545 1.11279C5.3001 1.11279 3.61768 2.79522 3.61768 4.87057V6.26234C3.61768 8.33769 5.3001 10.0201 7.37545 10.0201C9.4508 10.0201 11.1332 8.33769 11.1332 6.26234V4.87057C11.1332 2.79522 9.4508 1.11279 7.37545 1.11279ZM4.73109 4.87057C4.73109 3.41013 5.91501 2.22621 7.37545 2.22621C8.83589 2.22621 10.0198 3.41013 10.0198 4.87057V6.26234C10.0198 7.72278 8.83589 8.9067 7.37545 8.9067C5.91501 8.9067 4.73109 7.72278 4.73109 6.26234V4.87057Z" fill="#1565D8"/>
<path d="M9.18604 16.0051C9.18604 12.5462 11.9901 9.74219 15.449 9.74219H17.3975C18.0343 9.74219 18.6499 9.83741 19.2303 10.0148C19.5243 10.1047 19.6899 10.4159 19.6 10.7099C19.5101 11.0039 19.1989 11.1694 18.9049 11.0796C18.4288 10.9341 17.9228 10.8556 17.3975 10.8556H15.449C12.605 10.8556 10.2995 13.1611 10.2995 16.0051V20.8763C10.2995 21.1838 10.0502 21.4331 9.74274 21.4331C9.43527 21.4331 9.18604 21.1838 9.18604 20.8763V16.0051Z" fill="#1565D8"/>
<path d="M6.26296 10.855C2.80403 10.855 0 13.659 0 17.1179V20.7365C0 21.044 0.249246 21.2933 0.556708 21.2933C0.864169 21.2933 1.11342 21.044 1.11342 20.7365V17.1179C1.11342 14.2739 3.41894 11.9684 6.26296 11.9684H8.21144C8.51891 11.9684 8.76815 11.7192 8.76815 11.4117C8.76815 11.1042 8.51891 10.855 8.21144 10.855H6.26296Z" fill="#1565D8"/>
</svg>
