<svg width="30" height="28" viewBox="0 0 30 28" fill="none" xmlns="http://www.w3.org/2000/svg">
<path d="M21.8613 7H8.54912C7.0476 7 5.82617 8.25153 5.82617 9.79007V18.2099C5.82617 19.7485 7.0476 21 8.54912 21H21.8613C23.3629 21 24.5843 19.7485 24.5843 18.2099V9.79007C24.5843 8.25154 23.3629 7 21.8613 7ZM21.057 8.86005L20.2215 9.53588L15.768 13.1382C15.4352 13.4048 14.9753 13.4048 14.6425 13.1382L10.3463 9.65989L9.35595 8.86005H21.057ZM21.8613 19.14H8.54912C8.04861 19.14 7.64147 18.7228 7.64147 18.2099V9.8488L13.517 14.6014C14.0132 15.0044 14.6122 15.2028 15.2052 15.2028C15.7982 15.2028 16.3973 15.0044 16.8934 14.6014L22.769 9.85092V18.2099C22.769 18.7228 22.3618 19.14 21.8613 19.14Z" fill="#1565D8"/>
</svg>
