<svg width="28" height="28" viewBox="0 0 28 28" fill="none" xmlns="http://www.w3.org/2000/svg">
<path d="M8.22891 18.8009H11.5516C11.6548 18.8015 11.757 18.7814 11.8525 18.7416C11.948 18.7018 12.0348 18.6431 12.108 18.569L17.531 13.0266L19.7566 10.8032C19.83 10.7289 19.8883 10.6404 19.9281 10.543C19.9679 10.4455 19.9884 10.341 19.9884 10.2354C19.9884 10.1298 19.9679 10.0253 19.9281 9.92784C19.8883 9.83038 19.83 9.74192 19.7566 9.66758L16.4338 6.23657C16.361 6.16161 16.2743 6.10211 16.1788 6.06151C16.0833 6.0209 15.9809 6 15.8774 6C15.774 6 15.6716 6.0209 15.5761 6.06151C15.4806 6.10211 15.3939 6.16161 15.321 6.23657L13.1111 8.49991L7.67251 14.0423C7.59988 14.117 7.54242 14.2057 7.50342 14.3031C7.46442 14.4005 7.44466 14.5049 7.44525 14.6101V18.0012C7.44525 18.2133 7.52782 18.4167 7.67478 18.5667C7.82175 18.7167 8.02107 18.8009 8.22891 18.8009ZM15.8774 7.93208L18.0952 10.1954L16.9824 11.3311L14.7646 9.06775L15.8774 7.93208ZM9.01257 14.938L13.6597 10.1954L15.8774 12.4588L11.2303 17.2014H9.01257V14.938ZM20.7675 20.4005H6.66159C6.45375 20.4005 6.25442 20.4847 6.10746 20.6347C5.96049 20.7847 5.87793 20.9881 5.87793 21.2002C5.87793 21.4123 5.96049 21.6158 6.10746 21.7658C6.25442 21.9157 6.45375 22 6.66159 22H20.7675C20.9753 22 21.1747 21.9157 21.3216 21.7658C21.4686 21.6158 21.5512 21.4123 21.5512 21.2002C21.5512 20.9881 21.4686 20.7847 21.3216 20.6347C21.1747 20.4847 20.9753 20.4005 20.7675 20.4005Z" fill="#1565D8"/>
</svg>
