<svg width="80" height="45" viewBox="0 0 80 45" fill="none" xmlns="http://www.w3.org/2000/svg">
<path d="M73.1486 21.3111H69.7801V19.145L71.8819 16.8303C72.973 15.6288 73.5737 14.0733 73.5737 12.4502V6.96095C73.5737 3.12266 70.4509 0 66.6126 0H63.4108C59.5725 0 56.4498 3.12282 56.4498 6.96095V12.4502C56.4498 14.0733 57.0507 15.6289 58.1415 16.8303L60.2436 19.1454V21.3111H56.8751C53.6026 21.3111 50.8599 23.618 50.1843 26.6908C49.8404 26.6427 49.4898 26.6161 49.1329 26.6161H45.1873V23.9665L47.5942 21.316C48.7974 19.9907 49.4603 18.2749 49.4603 16.4847V10.3021C49.4603 6.06267 46.0113 2.61407 41.7721 2.61407C41.1077 2.61407 40.5695 3.15235 40.5695 3.81673C40.5695 4.4811 41.1077 5.01939 41.7721 5.01939C44.6851 5.01939 47.0549 7.38908 47.0549 10.3021V16.4846C47.0549 17.6757 46.614 18.8171 45.8135 19.6988L43.3351 22.4283C43.0026 22.6422 42.7823 23.0155 42.7823 23.4405V27.819C42.7823 28.4833 43.3206 29.0216 43.9849 29.0216H49.1332C51.9781 29.0216 54.2928 31.3362 54.2928 34.1812V41.7277H25.6454V34.1812C25.6454 31.963 27.0526 30.0677 29.0207 29.3399C29.1132 29.3205 29.2013 29.2897 29.2846 29.2504C29.7654 29.1019 30.276 29.0215 30.8047 29.0215H35.953C36.6173 29.0215 37.1557 28.4832 37.1557 27.8188V23.4404C37.1557 23.0155 36.9354 22.6421 36.6029 22.4282L34.1244 19.6986C33.3238 18.8169 32.8827 17.6753 32.8827 16.4844V10.3021C32.8827 7.38923 35.2524 5.01939 38.1655 5.01939C38.8298 5.01939 39.3682 4.4811 39.3682 3.81673C39.3682 3.15235 38.8298 2.61407 38.1655 2.61407C33.9262 2.61407 30.4774 6.06282 30.4774 10.3021V16.4846C30.4774 18.2746 31.1402 19.9904 32.3435 21.3158L34.7501 23.9661V26.616H30.8044C30.4683 26.616 30.138 26.6402 29.8135 26.683C29.1351 23.6141 26.3946 21.3111 23.1247 21.3111H19.7563V19.145L21.858 16.8303C22.9491 15.6288 23.5499 14.0733 23.5499 12.4502V6.96095C23.5499 3.12266 20.4271 0 16.5888 0H13.3872C9.54893 0 6.42626 3.12282 6.42626 6.96095V12.4502C6.42626 14.0733 7.02705 15.6289 8.11814 16.8303L10.22 19.1452V21.3111H6.85158C3.0736 21.3111 0 24.3847 0 28.1627V35.9309C0 36.5952 0.538439 37.1335 1.20266 37.1335H19.9149C20.5791 37.1335 21.1175 36.5952 21.1175 35.9309C21.1175 35.2665 20.5791 34.7282 19.9149 34.7282H2.40532V28.1627C2.40532 25.7111 4.39985 23.7165 6.85158 23.7165H11.4227C12.0869 23.7165 12.6253 23.1782 12.6253 22.5138V18.6263C12.6253 18.208 12.4117 17.8396 12.0877 17.6241L9.89877 15.2135C9.21049 14.4555 8.83142 13.4742 8.83142 12.4503V6.96095C8.83142 4.44892 10.875 2.40532 13.3871 2.40532H16.5889C19.101 2.40532 21.1447 4.44892 21.1447 6.96095V12.4502C21.1447 13.4741 20.7657 14.4555 20.0774 15.2133L17.8883 17.6241C17.5644 17.8396 17.351 18.208 17.351 18.6261V22.5136C17.351 23.178 17.8894 23.7163 18.5536 23.7163H23.1247C25.3083 23.7163 27.128 25.299 27.5001 27.3772C24.9802 28.606 23.2399 31.1935 23.2399 34.1807V42.9299C23.2399 43.5943 23.7783 44.1326 24.4426 44.1326H55.4951C56.1595 44.1326 56.6978 43.5943 56.6978 42.9299V34.1807C56.6978 31.2165 54.9832 28.6465 52.4945 27.4065C52.8546 25.314 54.6812 23.7163 56.8751 23.7163H61.4462C62.1106 23.7163 62.6489 23.178 62.6489 22.5136V18.6261C62.6489 18.2077 62.4353 17.8393 62.1111 17.6238L59.9223 15.2133C59.234 14.4555 58.8551 13.4741 58.8551 12.4502V6.96095C58.8551 4.44892 60.8987 2.40532 63.4108 2.40532H66.6126C69.1247 2.40532 71.1684 4.44892 71.1684 6.96095V12.4502C71.1684 13.4741 70.7894 14.4555 70.1011 15.2133L67.9122 17.6241C67.5881 17.8396 67.3747 18.208 67.3747 18.6261V22.5136C67.3747 23.178 67.9129 23.7163 68.5773 23.7163H73.1484C75.6 23.7163 77.5947 25.7108 77.5947 28.1626V34.728H60.292C59.6276 34.728 59.0893 35.2663 59.0893 35.9307C59.0893 36.5951 59.6276 37.1334 60.292 37.1334H78.7973C79.4617 37.1334 80 36.5951 80 35.9307V28.1626C80.0002 24.3847 76.9266 21.3111 73.1486 21.3111Z" fill="#1565D8"/>
</svg>
