<svg width="18" height="18" viewBox="0 0 18 18" fill="none" xmlns="http://www.w3.org/2000/svg">
<path d="M1.57542 1.61257L7.37647 6.85968V16.3109L10.6064 14.3912V6.85968L16.4074 1.61257H1.57542ZM5.71994 7.44838L0.545688 2.82837C0.386097 2.68705 0.25598 2.51558 0.162811 2.32381C0.0696425 2.13204 0.0152571 1.92374 0.0027769 1.71088C-0.00970329 1.49802 0.019968 1.2848 0.0900873 1.08344C0.160207 0.882088 0.269393 0.696576 0.411375 0.537558C0.568548 0.368843 0.758587 0.234114 0.969783 0.141671C1.18098 0.0492291 1.40886 0.00103199 1.63938 5.00925e-05H16.3499C16.5654 -0.00163641 16.7792 0.039278 16.9789 0.120446C17.1786 0.201613 17.3603 0.321437 17.5136 0.47304C17.667 0.624644 17.7888 0.805044 17.8723 1.00389C17.9558 1.20273 17.9992 1.41611 18 1.63177C18.0008 1.86203 17.9521 2.08976 17.8572 2.29953C17.7623 2.5093 17.6234 2.6962 17.4499 2.84756L12.2501 7.46757V14.3784C12.2495 14.6573 12.1774 14.9313 12.0408 15.1744C11.9042 15.4175 11.7076 15.6215 11.4698 15.767L8.23991 17.757C7.86744 17.9841 7.42072 18.0557 6.99601 17.9563C6.5713 17.857 6.2026 17.5947 5.96938 17.2259C5.80815 16.9689 5.72177 16.6719 5.71994 16.3684V7.44838Z" fill="#325E9E"/>
</svg>
