<svg width="73" height="60" viewBox="0 0 73 60" fill="none" xmlns="http://www.w3.org/2000/svg">
<path d="M42.4601 48.011H20.7459C20.1099 48.011 19.5118 47.7595 19.0609 47.3086C18.6148 46.8529 18.368 46.2549 18.3775 45.6141C18.387 44.5984 18.4154 43.578 18.4629 42.586C18.6433 38.6039 19.0562 35.4381 19.6874 33.1741C20.0149 32.0065 20.4136 31.0525 20.9405 30.1745C21.4008 29.4056 22.4308 27.939 24.2059 26.7334C24.4575 26.5625 24.7138 26.4059 24.9701 26.2635C27.0917 25.0674 29.1278 24.8918 30.4615 24.9488C30.6846 24.9583 30.8982 25.0342 31.0785 25.1671L36.3137 28.9831L41.8479 25.1529C42.0235 25.0295 42.2323 24.963 42.4459 24.9535C43.7796 24.8918 45.8158 25.0722 47.9374 26.2683C48.1937 26.4106 48.45 26.572 48.6968 26.7381C50.4719 27.9437 51.5066 29.4103 51.9622 30.1792C52.3609 30.8484 52.6742 31.5319 52.9495 32.3293C53.1535 32.9226 52.8355 33.5728 52.2423 33.7769C51.649 33.981 50.9987 33.663 50.7946 33.0697C50.5763 32.4289 50.3248 31.8831 50.0068 31.3515C49.7172 30.8627 48.8819 29.6239 47.4153 28.6272C47.2207 28.4943 47.0166 28.3709 46.8172 28.257C45.3412 27.4264 43.922 27.227 42.8968 27.227C42.8826 27.227 42.8731 27.227 42.8588 27.227L36.9402 31.3278C36.5415 31.6031 36.0099 31.5983 35.6207 31.3136L30.0201 27.227C28.9949 27.2223 27.5663 27.4216 26.0807 28.257C25.8814 28.3709 25.6773 28.4943 25.4827 28.6272C24.0208 29.6239 23.1807 30.8627 22.8912 31.3515C22.464 32.0635 22.1508 32.8181 21.8802 33.8006C21.3012 35.8653 20.9072 38.9456 20.7364 42.6999C20.6937 43.6682 20.6652 44.6649 20.6557 45.6521C20.6557 45.6616 20.6557 45.6901 20.6842 45.7186C20.7126 45.747 20.7411 45.747 20.7506 45.747H42.4649C43.0962 45.747 43.604 46.2549 43.604 46.8862C43.604 47.5174 43.0914 48.011 42.4601 48.011Z" fill="#1565D8"/>
<path d="M52.8022 38.0531C52.1709 38.0531 51.6631 37.5453 51.6631 36.914C51.6631 36.2828 52.1709 35.7749 52.8022 35.7749C53.4335 35.7749 53.9413 36.2828 53.9413 36.914C53.9413 37.5453 53.4335 38.0531 52.8022 38.0531Z" fill="#1565D8"/>
<path d="M26.6503 48.011C26.0191 48.011 25.5112 47.5031 25.5112 46.8719V37.3603C25.5112 36.729 26.0191 36.2212 26.6503 36.2212C27.2816 36.2212 27.7895 36.729 27.7895 37.3603V46.8719C27.7895 47.5031 27.2769 48.011 26.6503 48.011Z" fill="#1565D8"/>
<path d="M36.4985 25.3805C34.0922 25.3805 31.8329 24.3505 30.1385 22.4757C28.4773 20.6342 27.5613 18.1993 27.5613 15.6078V11.9627C27.5613 11.4786 27.8698 11.0466 28.3302 10.8853C28.7573 10.7334 30.0294 10.1781 30.7176 9.41393C31.121 8.96303 31.795 8.90133 32.2649 9.28103C32.3266 9.32375 33.2473 9.99772 34.8326 10.3395C37.0206 10.8093 39.3843 10.4534 41.8571 9.29052C41.8761 9.28103 41.8951 9.27154 41.9188 9.26204C42.3507 9.08643 42.8443 9.1956 43.1671 9.53258C43.5088 9.8933 44.2587 10.6005 44.89 10.9897C45.227 11.1985 45.4311 11.564 45.4311 11.9579V15.6126C45.4311 18.1993 44.515 20.6389 42.8538 22.4805C41.1642 24.3505 38.9049 25.3805 36.4985 25.3805ZM29.8395 12.7268V15.6126C29.8395 19.7419 32.8249 23.1022 36.4985 23.1022C40.1722 23.1022 43.1529 19.7419 43.1529 15.6126V12.5655C42.7589 12.2712 42.3887 11.9484 42.0992 11.6779C38.7103 13.0876 35.9575 12.9357 34.2061 12.537C33.1097 12.2854 32.2601 11.9152 31.6953 11.6067C31.0545 12.1146 30.3568 12.4895 29.8395 12.7268Z" fill="#1565D8"/>
<path d="M28.7053 13.1019C28.2639 13.1019 27.8462 12.8456 27.6611 12.4137C27.2292 11.4123 27.1627 10.3538 27.1058 9.41882C27.0583 8.65467 26.9966 7.70541 27.2197 6.77039C27.4143 5.94928 27.8937 5.08071 28.6863 4.11246C28.8097 3.96058 28.9378 3.81345 29.0707 3.6758C31.1971 1.40233 34.6856 0.510027 35.3643 0.3534C36.6885 0.0496371 37.9606 -0.0595278 39.1424 0.0306518C39.973 0.0923536 40.6754 0.211011 41.2972 0.381878C42.1705 0.623939 42.854 1.09857 43.2717 1.74881C43.4805 2.07156 43.6086 2.39905 43.7178 2.68383C43.808 2.92114 43.8934 3.14422 43.9931 3.25813C44.1402 3.43374 44.3443 3.59512 44.5816 3.78022C44.8522 3.99381 45.1607 4.23587 45.4407 4.55387C46.1147 5.31328 46.8741 6.58054 46.988 7.87153C47.0972 9.07234 46.6273 10.1118 46.2049 10.8807C46.1954 10.8997 46.1669 10.9471 46.1337 11.0183C45.417 12.4042 45.2556 12.6226 45.061 12.8029C44.5959 13.2253 43.8744 13.1921 43.452 12.727C43.0581 12.2951 43.0581 11.6448 43.433 11.2129C43.4947 11.118 43.6656 10.8285 44.107 9.96939C44.1545 9.87446 44.1877 9.81276 44.2019 9.78903C44.4677 9.30016 44.7667 8.6689 44.7145 8.08036C44.6623 7.49182 44.2541 6.66122 43.7273 6.06794C43.5802 5.90182 43.3761 5.74044 43.1625 5.56958C42.873 5.34175 42.5407 5.08071 42.2465 4.72948C41.9 4.3213 41.7244 3.8704 41.5867 3.50494C41.5108 3.30085 41.4348 3.111 41.3542 2.98285C41.207 2.75977 40.9033 2.63637 40.6754 2.56992C40.2008 2.43702 39.6407 2.34684 38.962 2.29463C38.008 2.22344 36.9686 2.31362 35.8674 2.56517C34.3107 2.92114 32.0277 3.83243 30.7319 5.2231C30.637 5.32752 30.5374 5.43668 30.4472 5.55059C29.7495 6.40492 29.5122 6.96973 29.4315 7.29248C29.2891 7.89526 29.3318 8.62619 29.3745 9.27168C29.422 10.0596 29.4742 10.8712 29.7495 11.5072C30.001 12.0862 29.7352 12.7555 29.1562 13.007C29.009 13.0735 28.8524 13.1019 28.7053 13.1019Z" fill="#1565D8"/>
<path d="M31.8092 28.2525C31.6479 28.2525 31.4818 28.2192 31.3251 28.1433C30.7556 27.8775 30.5088 27.1988 30.7793 26.6292C30.9929 26.1688 31.3583 25.2528 31.3868 24.2561C31.3963 23.8764 31.3536 23.715 31.2634 23.397C31.2444 23.3258 31.2255 23.2499 31.2017 23.1739C31.0451 22.5664 31.4058 21.9446 32.0181 21.7833C32.6256 21.6219 33.2474 21.9874 33.4087 22.5996C33.4277 22.6661 33.442 22.7278 33.461 22.7895C33.5654 23.1644 33.684 23.5916 33.665 24.313C33.6271 25.7227 33.1335 26.9757 32.8439 27.5927C32.6446 28.0057 32.2364 28.2525 31.8092 28.2525Z" fill="#1565D8"/>
<path d="M41.0126 28.2564C40.5997 28.2564 40.201 28.0286 39.9969 27.6394C39.4036 26.486 39.0761 25.2805 39.0476 24.1508C39.0334 23.5623 39.1093 23.1778 39.1853 22.8741C39.3419 22.2666 39.9589 21.8963 40.5712 22.0482C41.1787 22.2049 41.5489 22.8219 41.397 23.4341C41.3543 23.5955 41.3211 23.7664 41.3306 24.0891C41.3543 25.0859 41.7245 26.0019 42.0283 26.5952C42.3178 27.1552 42.0947 27.8435 41.5347 28.1282C41.3638 28.2137 41.1882 28.2564 41.0126 28.2564Z" fill="#1565D8"/>
<path d="M70.7726 43.7764H61.6455C61.0142 43.7764 60.5064 43.2685 60.5064 42.6372C60.5064 42.006 61.0142 41.4981 61.6455 41.4981H70.6255C70.5923 39.1297 70.4214 34.9055 69.6477 32.1432C69.4294 31.3743 69.1873 30.781 68.8551 30.2209C68.5798 29.7606 67.7872 28.6072 66.3633 27.8051C65.2289 27.1691 64.142 27.0077 63.3494 27.003L62.4571 27.62C62.4429 27.6295 62.4286 27.639 62.4144 27.6485L58.6316 30.2684C58.2329 30.5437 57.7013 30.5389 57.3121 30.2542L52.8506 27.003C52.058 27.0077 50.9806 27.1738 49.851 27.8051C49.4807 28.0139 49.1295 28.2607 48.7973 28.5408C48.3179 28.9489 47.6012 28.892 47.193 28.4126C46.7848 27.9332 46.8418 27.2165 47.3212 26.8084C47.7626 26.4287 48.242 26.0964 48.7356 25.8211C50.4964 24.8292 52.1814 24.682 53.2873 24.7342C53.5103 24.7437 53.7239 24.8197 53.9043 24.9526L58.0003 27.938L61.1234 25.7737C61.1281 25.7689 61.1329 25.7689 61.1376 25.7642L62.3337 24.9336C62.5093 24.8102 62.7134 24.7437 62.927 24.7342C64.0281 24.682 65.7178 24.8292 67.4787 25.8211C69.3819 26.889 70.4404 28.4411 70.8106 29.0581C71.2472 29.7843 71.5747 30.5722 71.8405 31.5309C72.6996 34.6018 72.88 39.1725 72.9037 41.6215C72.9084 42.1958 72.6901 42.7369 72.2867 43.1451C71.8832 43.5533 71.3469 43.7764 70.7726 43.7764Z" fill="#1565D8"/>
<path d="M66.0122 43.7768C65.3809 43.7768 64.873 43.269 64.873 42.6377V34.9677C64.873 34.3365 65.3809 33.8286 66.0122 33.8286C66.6434 33.8286 67.1513 34.3365 67.1513 34.9677V42.6425C67.1513 43.269 66.6387 43.7768 66.0122 43.7768Z" fill="#1565D8"/>
<path d="M58.1428 25.5222C56.1351 25.5222 54.2556 24.6631 52.8507 23.1063C51.4743 21.5827 50.7148 19.5608 50.7148 17.4202V14.4775C50.7148 13.9934 51.0234 13.5615 51.4837 13.4001C51.816 13.2815 52.7937 12.8543 53.3158 12.2753C53.724 11.8244 54.3932 11.7579 54.8631 12.1424C54.9248 12.1851 55.6415 12.7024 56.8708 12.9587C58.5842 13.3194 60.4353 13.0394 62.3765 12.1234C62.8226 11.9145 63.3495 12.0142 63.6912 12.3702C63.8858 12.579 64.5123 13.1866 65.0344 13.5093C65.3714 13.7181 65.5755 14.0836 65.5755 14.4775V17.4202C65.5755 19.5608 64.8161 21.5827 63.4397 23.1063C62.0253 24.6631 60.1457 25.5222 58.1428 25.5222ZM52.9931 15.2322V17.4202C52.9931 20.6287 55.3045 23.2439 58.1428 23.2439C60.9811 23.2439 63.2925 20.6335 63.2925 17.4202V15.0708C63.0457 14.881 62.8131 14.6816 62.6138 14.5013C58.6032 16.1293 55.6557 15.1468 54.2936 14.4443C53.8427 14.7908 53.3728 15.0518 52.9931 15.2322Z" fill="#1565D8"/>
<path d="M51.854 15.6168C51.4126 15.6168 50.9949 15.3605 50.8098 14.9286C50.4443 14.0837 50.3874 13.1724 50.3447 12.4368C50.3067 11.8055 50.2545 11.0176 50.4443 10.2345C50.6105 9.53679 51.0139 8.81061 51.6736 8.00374C51.7733 7.88033 51.8825 7.75693 51.9916 7.63827C53.7525 5.75874 56.6193 5.02306 57.1793 4.89491C58.271 4.64336 59.3199 4.55318 60.2929 4.62912C60.9764 4.68133 61.5602 4.77626 62.0728 4.92339C62.8274 5.13697 63.4207 5.5499 63.7909 6.11946C63.9713 6.39949 64.0804 6.68426 64.1706 6.91683C64.2323 7.07346 64.2988 7.25382 64.3557 7.31552C64.4601 7.43893 64.6168 7.56233 64.7971 7.70946C65.0202 7.88508 65.2765 8.08917 65.5186 8.35971C66.0834 9.00046 66.7241 10.0684 66.8238 11.16C66.9187 12.1995 66.4916 13.1155 66.1641 13.7135C66.1593 13.7278 66.1356 13.7657 66.1119 13.8132C65.5423 14.9096 65.3952 15.1374 65.2006 15.3178C64.7354 15.7402 64.014 15.707 63.5916 15.2466C63.2024 14.8194 63.1976 14.1739 63.5631 13.7467C63.6153 13.6613 63.753 13.4287 64.0899 12.769C64.1279 12.6931 64.1564 12.6409 64.1659 12.6219C64.4649 12.0761 64.5835 11.6916 64.5551 11.3689C64.5171 10.9417 64.2038 10.3152 63.8147 9.87377C63.7102 9.75512 63.5584 9.63646 63.3875 9.50356C63.1454 9.31371 62.8701 9.09538 62.6138 8.79162C62.3101 8.43565 62.1629 8.0512 62.0443 7.74269C61.9873 7.59081 61.9304 7.44842 61.8782 7.36299C61.8165 7.26806 61.6646 7.18263 61.4557 7.12092C61.0903 7.01651 60.6489 6.94531 60.1173 6.90734C59.3721 6.85039 58.5558 6.92158 57.6872 7.12092C56.4626 7.40096 54.6685 8.11765 53.6576 9.1998C53.5816 9.28049 53.5057 9.36592 53.4393 9.45135C52.9029 10.1063 52.7226 10.5288 52.6656 10.7708C52.5564 11.2265 52.5897 11.7723 52.6229 12.3039C52.6609 12.9209 52.6988 13.5569 52.9077 14.0315C53.1592 14.6106 52.8934 15.2798 52.3144 15.5314C52.1578 15.5883 52.0059 15.6168 51.854 15.6168Z" fill="#1565D8"/>
<path d="M54.3601 27.8339C54.1988 27.8339 54.0326 27.8007 53.876 27.7247C53.3065 27.459 53.0596 26.7802 53.3254 26.2107C53.4916 25.8547 53.7763 25.1475 53.7953 24.3834C53.8001 24.1081 53.7716 23.9989 53.7051 23.7568C53.6909 23.6999 53.6719 23.6382 53.6577 23.5717C53.5011 22.9642 53.8618 22.3425 54.474 22.1811C55.0816 22.0244 55.7033 22.3852 55.8647 22.9974C55.8789 23.0496 55.8932 23.1019 55.9074 23.1493C55.9976 23.4673 56.0973 23.828 56.0783 24.4403C56.0498 25.5557 55.6891 26.5429 55.3948 27.1742C55.2002 27.5918 54.7873 27.8339 54.3601 27.8339Z" fill="#1565D8"/>
<path d="M61.7831 27.8431C61.3701 27.8431 60.9715 27.6153 60.7674 27.2213C60.269 26.2483 60.0032 25.2706 59.9795 24.3119C59.9652 23.8135 60.0317 23.4813 60.0981 23.225C60.25 22.6127 60.8718 22.2472 61.4793 22.3991C62.0916 22.551 62.457 23.1727 62.3052 23.7803C62.2767 23.8989 62.253 24.0176 62.2577 24.2502C62.2767 25.0096 62.5615 25.7168 62.7988 26.1771C63.0836 26.7372 62.8652 27.4254 62.3052 27.7102C62.1343 27.8004 61.9587 27.8431 61.7831 27.8431Z" fill="#1565D8"/>
<path d="M19.6023 43.7768H2.13116C1.55686 43.7768 1.02053 43.5538 0.617094 43.1456C0.213659 42.7374 -0.00467051 42.1963 7.57845e-05 41.622C0.0285535 39.1682 0.204166 34.6023 1.06799 31.5267C1.33853 30.5679 1.66602 29.78 2.09794 29.0538C2.4634 28.4368 3.52657 26.8895 5.42983 25.8216C7.19071 24.8296 8.87564 24.6825 9.98153 24.7347C10.2046 24.7442 10.4182 24.8202 10.5985 24.953L14.6946 27.9385L19.028 24.9341C19.2036 24.8107 19.4124 24.7442 19.626 24.7347C20.7319 24.6825 22.4168 24.8296 24.1777 25.8216C24.6713 26.0969 25.1459 26.4291 25.5921 26.8089C26.0715 27.217 26.1284 27.9337 25.7202 28.4131C25.3121 28.8925 24.5954 28.9494 24.116 28.5412C23.7837 28.2565 23.4278 28.0097 23.0623 27.8056C21.9279 27.1696 20.841 27.0082 20.0484 27.0034L15.3306 30.2736C14.9319 30.5489 14.4003 30.5442 14.0111 30.2594L9.54962 27.0082C8.75698 27.0129 7.67958 27.1791 6.54996 27.8103C5.12607 28.6124 4.33344 29.7658 4.05816 30.2262C3.72591 30.7815 3.47911 31.3748 3.26552 32.1484C2.49188 34.9108 2.31627 39.1302 2.28779 41.5034H19.6023C20.2335 41.5034 20.7414 42.0112 20.7414 42.6425C20.7414 43.2737 20.2288 43.7768 19.6023 43.7768Z" fill="#1565D8"/>
<path d="M6.8918 43.7768C6.26054 43.7768 5.75269 43.269 5.75269 42.6377V34.9677C5.75269 34.3365 6.26054 33.8286 6.8918 33.8286C7.52305 33.8286 8.03091 34.3365 8.03091 34.9677V42.6425C8.03091 43.269 7.52305 43.7768 6.8918 43.7768Z" fill="#1565D8"/>
<path d="M14.8374 25.5227C12.8297 25.5227 10.9502 24.6636 9.54526 23.1068C8.16883 21.5832 7.40942 19.5613 7.40942 17.4207V14.478C7.40942 13.9939 7.71793 13.562 8.17832 13.4006C8.51056 13.282 9.4883 12.8548 10.0104 12.2758C10.4186 11.8249 11.0878 11.7584 11.5577 12.1429C11.6194 12.1856 12.3361 12.7029 13.5654 12.9592C15.2788 13.3199 17.1298 13.0399 19.0711 12.1239C19.4982 11.9198 20.0061 12.0052 20.3478 12.3375L20.3905 12.3802C20.5899 12.589 21.2022 13.187 21.729 13.5098C22.066 13.7186 22.2701 14.0841 22.2701 14.478V17.4207C22.2701 19.5613 21.5107 21.5832 20.1342 23.1068C18.7246 24.6636 16.8451 25.5227 14.8374 25.5227ZM9.68764 15.2327V17.4207C9.68764 20.6292 11.9991 23.2444 14.8374 23.2444C17.6757 23.2444 19.9871 20.634 19.9871 17.4207V15.0713C19.7688 14.9052 19.5457 14.7153 19.3131 14.5018C15.3025 16.1297 12.3551 15.1473 10.9881 14.4448C10.542 14.7913 10.0673 15.0523 9.68764 15.2327Z" fill="#1565D8"/>
<path d="M8.54808 15.6173C8.10668 15.6173 7.689 15.361 7.5039 14.9291C7.13843 14.0842 7.08148 13.1729 7.03876 12.4373C7.00079 11.806 6.94858 11.0181 7.13843 10.235C7.30455 9.53728 7.70799 8.81109 8.36772 8.00422C8.4674 7.88082 8.57656 7.75742 8.68572 7.63876C10.4466 5.75923 13.3134 5.02355 13.8734 4.8954C14.9651 4.64385 16.014 4.55367 16.987 4.62961C17.6705 4.68182 18.2543 4.77674 18.7668 4.92388C19.5215 5.13746 20.1148 5.55039 20.485 6.11994C20.6654 6.39998 20.7745 6.68475 20.8647 6.91732C20.9264 7.07395 20.9929 7.25431 21.0498 7.31601C21.1542 7.43941 21.3109 7.56282 21.4912 7.70995C21.7143 7.88557 21.9706 8.08966 22.2127 8.3602C22.7775 9.00095 23.4182 10.0689 23.5179 11.1605C23.6128 12.1999 23.1856 13.116 22.8629 13.714C22.8534 13.7283 22.8344 13.7662 22.8107 13.8184C22.2411 14.9148 22.094 15.1426 21.8994 15.323C21.4343 15.7454 20.7128 15.7122 20.2904 15.2518C19.9012 14.8246 19.8965 14.1791 20.2619 13.752C20.3141 13.6713 20.4518 13.434 20.7888 12.779C20.8267 12.7031 20.8552 12.6508 20.8647 12.6319C21.1637 12.086 21.2824 11.7016 21.2539 11.3788C21.2159 10.9517 20.9027 10.3252 20.5135 9.88375C20.4091 9.7651 20.2572 9.64644 20.0863 9.51354C19.8443 9.32369 19.569 9.10536 19.3127 8.8016C19.0089 8.44563 18.8618 8.06118 18.7431 7.75267C18.6862 7.60079 18.6292 7.4584 18.577 7.37297C18.5153 7.27804 18.3634 7.19261 18.1546 7.1309C17.7891 7.02649 17.3477 6.95529 16.8161 6.91732C16.071 6.86037 15.2546 6.93156 14.386 7.1309C13.1615 7.41094 11.3674 8.12763 10.3564 9.20978C10.2805 9.29047 10.2045 9.3759 10.1381 9.46133C9.58752 10.1068 9.40716 10.5293 9.35021 10.7666C9.24104 11.2222 9.27427 11.768 9.30749 12.2996C9.34546 12.9166 9.38343 13.5526 9.59227 14.0273C9.84382 14.6063 9.57803 15.2755 8.99898 15.5271C8.85185 15.5888 8.69996 15.6173 8.54808 15.6173Z" fill="#1565D8"/>
<path d="M11.0545 27.834C10.8931 27.834 10.727 27.8008 10.5703 27.7249C10.0008 27.4591 9.75399 26.7804 10.0198 26.2108C10.1859 25.8548 10.4707 25.1476 10.4897 24.3835C10.4944 24.1082 10.4659 23.999 10.3995 23.757C10.3852 23.7 10.3663 23.6383 10.352 23.5719C10.1954 22.9643 10.5561 22.3426 11.1684 22.1812C11.7759 22.0198 12.3977 22.3853 12.559 22.9976C12.5733 23.0498 12.5875 23.102 12.6018 23.1495C12.6919 23.4675 12.7916 23.8282 12.7726 24.4404C12.7441 25.5558 12.3834 26.5431 12.0892 27.1743C11.8946 27.592 11.4816 27.834 11.0545 27.834Z" fill="#1565D8"/>
<path d="M18.4777 27.8431C18.0647 27.8431 17.666 27.6153 17.4619 27.2213C16.9636 26.2483 16.6978 25.2706 16.6741 24.3119C16.6598 23.8135 16.7263 23.4813 16.7927 23.225C16.9446 22.6127 17.5664 22.2472 18.1739 22.3991C18.7862 22.551 19.1516 23.1727 18.9997 23.7803C18.9713 23.8989 18.9475 24.0176 18.9523 24.2502C18.9713 25.0096 19.256 25.7168 19.4934 26.1771C19.7781 26.7372 19.5598 27.4254 18.9997 27.7102C18.8289 27.8004 18.6533 27.8431 18.4777 27.8431Z" fill="#1565D8"/>
<path d="M51.6065 53.9063C48.6211 53.9063 45.8113 52.7435 43.7039 50.6314C41.5918 48.5193 40.429 45.7142 40.429 42.7288C40.429 39.7434 41.5918 36.9336 43.7039 34.8262C45.816 32.7141 48.6211 31.5513 51.6065 31.5513C54.5919 31.5513 57.4017 32.7141 59.5091 34.8262C61.6212 36.9383 62.784 39.7434 62.784 42.7288C62.784 45.7142 61.6212 48.524 59.5091 50.6314C57.4017 52.7435 54.5919 53.9063 51.6065 53.9063ZM51.6065 33.8295C46.6988 33.8295 42.7072 37.8211 42.7072 42.7288C42.7072 47.6365 46.6988 51.6281 51.6065 51.6281C56.5141 51.6281 60.5058 47.6365 60.5058 42.7288C60.5058 37.8211 56.5141 33.8295 51.6065 33.8295Z" fill="#1565D8"/>
<path d="M51.6065 49.8048C47.7051 49.8048 44.5298 46.6295 44.5298 42.7281C44.5298 38.8266 47.7051 35.6514 51.6065 35.6514C55.508 35.6514 58.6832 38.8266 58.6832 42.7281C58.6832 46.6295 55.508 49.8048 51.6065 49.8048ZM51.6065 37.9296C48.9628 37.9296 46.808 40.0797 46.808 42.7281C46.808 45.3765 48.9581 47.5266 51.6065 47.5266C54.2549 47.5266 56.405 45.3765 56.405 42.7281C56.405 40.0797 54.2502 37.9296 51.6065 37.9296Z" fill="#1565D8"/>
<path d="M65.6509 59.9908C64.7918 59.9908 63.985 59.6585 63.3775 59.051L56.277 51.9505C55.8308 51.5044 55.8308 50.783 56.277 50.3415C56.7231 49.8954 57.4446 49.8954 57.886 50.3415L64.9864 57.442C65.1621 57.6176 65.3994 57.7173 65.6509 57.7173H65.6557C65.9072 57.7173 66.1445 57.6176 66.3202 57.4373C66.6809 57.0718 66.6809 56.4785 66.3154 56.1178L59.215 49.0173C58.7688 48.5712 58.7688 47.8497 59.215 47.4083C59.6611 46.9622 60.3825 46.9622 60.8239 47.4083L67.9244 54.5088C69.1679 55.7523 69.1774 57.7885 67.9386 59.0415C67.3311 59.6538 66.5242 59.9955 65.6604 60.0003C65.6604 59.9908 65.6557 59.9908 65.6509 59.9908Z" fill="#1565D8"/>
</svg>
