<svg width="22" height="26" viewBox="0 0 22 26" fill="none" xmlns="http://www.w3.org/2000/svg">
<path d="M11 24L10.4453 24.8321C10.7812 25.056 11.2188 25.056 11.5547 24.8321L11 24ZM11 24C11.5547 24.8321 11.555 24.8319 11.5552 24.8317L11.556 24.8312L11.5581 24.8298L11.5648 24.8253L11.5877 24.8098C11.6072 24.7966 11.6349 24.7776 11.6704 24.753C11.7415 24.7038 11.8435 24.6321 11.9722 24.5392C12.2295 24.3534 12.5936 24.0822 13.0292 23.7354C13.8987 23.043 15.0606 22.0428 16.226 20.8127C18.5157 18.3958 21 14.9019 21 11C21 8.34784 19.9464 5.8043 18.0711 3.92893C16.1957 2.05357 13.6522 1 11 1C8.34784 1 5.8043 2.05357 3.92893 3.92893C2.05357 5.8043 1 8.34784 1 11C1 14.9019 3.48426 18.3958 5.77405 20.8127C6.93939 22.0428 8.10133 23.043 8.97082 23.7354C9.40636 24.0822 9.77055 24.3534 10.0278 24.5392C10.1565 24.6321 10.2585 24.7038 10.3296 24.753C10.3651 24.7776 10.3928 24.7966 10.4123 24.8098L10.4352 24.8253L10.4419 24.8298L10.444 24.8312L10.4448 24.8317C10.445 24.8319 10.4453 24.8321 11 24Z" stroke="#325E9E" stroke-width="2" stroke-linecap="round" stroke-linejoin="round"/>
<path d="M11 15C13.2091 15 15 13.2091 15 11C15 8.79086 13.2091 7 11 7C8.79086 7 7 8.79086 7 11C7 13.2091 8.79086 15 11 15Z" stroke="#325E9E" stroke-width="2" stroke-linecap="round" stroke-linejoin="round"/>
</svg>
