<svg width="19" height="19" viewBox="0 0 19 19" fill="none" xmlns="http://www.w3.org/2000/svg">
<path d="M18.5 18H17V4.5C17.0074 4.39064 16.978 4.28195 16.9163 4.1913C16.8547 4.10066 16.7644 4.0333 16.66 4L13 2.47V18H12V0.5C12 0.367392 11.9473 0.240215 11.8536 0.146447C11.7598 0.0526785 11.6326 0 11.5 0H2.5C2.36739 0 2.24021 0.0526785 2.14645 0.146447C2.05268 0.240215 2 0.367392 2 0.5V18H0.5C0.367392 18 0.240215 18.0527 0.146447 18.1464C0.0526785 18.2402 0 18.3674 0 18.5C0 18.6326 0.0526785 18.7598 0.146447 18.8536C0.240215 18.9473 0.367392 19 0.5 19H18.5C18.6326 19 18.7598 18.9473 18.8536 18.8536C18.9473 18.7598 19 18.6326 19 18.5C19 18.3674 18.9473 18.2402 18.8536 18.1464C18.7598 18.0527 18.6326 18 18.5 18ZM14.5 6H15.5C15.6326 6 15.7598 6.05268 15.8536 6.14645C15.9473 6.24021 16 6.36739 16 6.5C15.9974 6.63181 15.9439 6.7575 15.8507 6.85072C15.7575 6.94394 15.6318 6.99744 15.5 7H14.5C14.3682 6.99744 14.2425 6.94394 14.1493 6.85072C14.0561 6.7575 14.0026 6.63181 14 6.5C14 6.36739 14.0527 6.24021 14.1464 6.14645C14.2402 6.05268 14.3674 6 14.5 6ZM14.5 9H15.5C15.6326 9 15.7598 9.05268 15.8536 9.14645C15.9473 9.24021 16 9.36739 16 9.5C16 9.63261 15.9473 9.75979 15.8536 9.85355C15.7598 9.94732 15.6326 10 15.5 10H14.5C14.3674 10 14.2402 9.94732 14.1464 9.85355C14.0527 9.75979 14 9.63261 14 9.5C14 9.36739 14.0527 9.24021 14.1464 9.14645C14.2402 9.05268 14.3674 9 14.5 9ZM14.5 12H15.5C15.6318 12.0026 15.7575 12.0561 15.8507 12.1493C15.9439 12.2425 15.9974 12.3682 16 12.5C16 12.6326 15.9473 12.7598 15.8536 12.8536C15.7598 12.9473 15.6326 13 15.5 13H14.5C14.3674 13 14.2402 12.9473 14.1464 12.8536C14.0527 12.7598 14 12.6326 14 12.5C14.0026 12.3682 14.0561 12.2425 14.1493 12.1493C14.2425 12.0561 14.3682 12.0026 14.5 12ZM14.5 15H15.5C15.6326 15 15.7598 15.0527 15.8536 15.1464C15.9473 15.2402 16 15.3674 16 15.5C16 15.6326 15.9473 15.7598 15.8536 15.8536C15.7598 15.9473 15.6326 16 15.5 16H14.5C14.3674 16 14.2402 15.9473 14.1464 15.8536C14.0527 15.7598 14 15.6326 14 15.5C14 15.3674 14.0527 15.2402 14.1464 15.1464C14.2402 15.0527 14.3674 15 14.5 15ZM8 3H9C9.13261 3 9.25979 3.05268 9.35355 3.14645C9.44732 3.24021 9.5 3.36739 9.5 3.5C9.5 3.63261 9.44732 3.75979 9.35355 3.85355C9.25979 3.94732 9.13261 4 9 4H8C7.86739 4 7.74021 3.94732 7.64645 3.85355C7.55268 3.75979 7.5 3.63261 7.5 3.5C7.5 3.36739 7.55268 3.24021 7.64645 3.14645C7.74021 3.05268 7.86739 3 8 3ZM8 6H9C9.13261 6 9.25979 6.05268 9.35355 6.14645C9.44732 6.24021 9.5 6.36739 9.5 6.5C9.5 6.63261 9.44732 6.75979 9.35355 6.85355C9.25979 6.94732 9.13261 7 9 7H8C7.86739 7 7.74021 6.94732 7.64645 6.85355C7.55268 6.75979 7.5 6.63261 7.5 6.5C7.5 6.36739 7.55268 6.24021 7.64645 6.14645C7.74021 6.05268 7.86739 6 8 6ZM8 9H9C9.13261 9 9.25979 9.05268 9.35355 9.14645C9.44732 9.24021 9.5 9.36739 9.5 9.5C9.5 9.63261 9.44732 9.75979 9.35355 9.85355C9.25979 9.94732 9.13261 10 9 10H8C7.86739 10 7.74021 9.94732 7.64645 9.85355C7.55268 9.75979 7.5 9.63261 7.5 9.5C7.5 9.36739 7.55268 9.24021 7.64645 9.14645C7.74021 9.05268 7.86739 9 8 9ZM8 12H9C9.13261 12 9.25979 12.0527 9.35355 12.1464C9.44732 12.2402 9.5 12.3674 9.5 12.5C9.5 12.6326 9.44732 12.7598 9.35355 12.8536C9.25979 12.9473 9.13261 13 9 13H8C7.86739 13 7.74021 12.9473 7.64645 12.8536C7.55268 12.7598 7.5 12.6326 7.5 12.5C7.5 12.3674 7.55268 12.2402 7.64645 12.1464C7.74021 12.0527 7.86739 12 8 12ZM4.94 3H6C6.13261 3 6.25979 3.05268 6.35355 3.14645C6.44732 3.24021 6.5 3.36739 6.5 3.5C6.5 3.63261 6.44732 3.75979 6.35355 3.85355C6.25979 3.94732 6.13261 4 6 4H5C4.86739 4 4.74021 3.94732 4.64645 3.85355C4.55268 3.75979 4.5 3.63261 4.5 3.5C4.5 3.36739 4.55268 3.24021 4.64645 3.14645C4.74021 3.05268 4.86739 3 5 3H4.94ZM4.94 6H6C6.13261 6 6.25979 6.05268 6.35355 6.14645C6.44732 6.24021 6.5 6.36739 6.5 6.5C6.5 6.63261 6.44732 6.75979 6.35355 6.85355C6.25979 6.94732 6.13261 7 6 7H5C4.86739 7 4.74021 6.94732 4.64645 6.85355C4.55268 6.75979 4.5 6.63261 4.5 6.5C4.5 6.36739 4.55268 6.24021 4.64645 6.14645C4.74021 6.05268 4.86739 6 5 6H4.94ZM4.94 9H6C6.13261 9 6.25979 9.05268 6.35355 9.14645C6.44732 9.24021 6.5 9.36739 6.5 9.5C6.5 9.63261 6.44732 9.75979 6.35355 9.85355C6.25979 9.94732 6.13261 10 6 10H5C4.86739 10 4.74021 9.94732 4.64645 9.85355C4.55268 9.75979 4.5 9.63261 4.5 9.5C4.5 9.36739 4.55268 9.24021 4.64645 9.14645C4.74021 9.05268 4.86739 9 5 9H4.94ZM4.94 12H6C6.13261 12 6.25979 12.0527 6.35355 12.1464C6.44732 12.2402 6.5 12.3674 6.5 12.5C6.5 12.6326 6.44732 12.7598 6.35355 12.8536C6.25979 12.9473 6.13261 13 6 13H5C4.86739 13 4.74021 12.9473 4.64645 12.8536C4.55268 12.7598 4.5 12.6326 4.5 12.5C4.5 12.3674 4.55268 12.2402 4.64645 12.1464C4.74021 12.0527 4.86739 12 5 12H4.94ZM7.5 18V16H6.5V18H5.5V15.47C5.50765 15.3427 5.56369 15.2231 5.65664 15.1357C5.7496 15.0483 5.87243 14.9998 6 15H8C8.13261 15 8.25979 15.0527 8.35355 15.1464C8.44732 15.2402 8.5 15.3674 8.5 15.5V18H7.5Z" fill="#325E9E"/>
</svg>
