<svg width="27" height="27" viewBox="0 0 27 27" fill="none" xmlns="http://www.w3.org/2000/svg">
<path d="M11.0455 25.7725H1.22727V15.9543H11.0455V25.7725ZM11.6591 14.7271H0.613636C0.45089 14.7271 0.294809 14.7917 0.17973 14.9068C0.0646508 15.0219 0 15.1779 0 15.3407V26.3861C0 26.5489 0.0646508 26.705 0.17973 26.82C0.294809 26.9351 0.45089 26.9998 0.613636 26.9998H11.6591C11.8218 26.9998 11.9779 26.9351 12.093 26.82C12.2081 26.705 12.2727 26.5489 12.2727 26.3861V15.3407C12.2727 15.1779 12.2081 15.0219 12.093 14.9068C11.9779 14.7917 11.8218 14.7271 11.6591 14.7271Z" fill="#1565D8"/>
<path d="M11.0455 11.0455H1.22727V1.22727H11.0455V11.0455ZM11.6591 0H0.613636C0.45089 0 0.294809 0.0646508 0.17973 0.17973C0.0646508 0.294809 0 0.45089 0 0.613636V11.6591C0 11.8218 0.0646508 11.9779 0.17973 12.093C0.294809 12.2081 0.45089 12.2727 0.613636 12.2727H11.6591C11.8218 12.2727 11.9779 12.2081 12.093 12.093C12.2081 11.9779 12.2727 11.8218 12.2727 11.6591V0.613636C12.2727 0.45089 12.2081 0.294809 12.093 0.17973C11.9779 0.0646508 11.8218 0 11.6591 0Z" fill="#1565D8"/>
<path d="M25.7725 11.0455H15.9543V1.22727H25.7725V11.0455ZM26.3861 0H15.3407C15.1779 0 15.0219 0.0646508 14.9068 0.17973C14.7917 0.294809 14.7271 0.45089 14.7271 0.613636V11.6591C14.7271 11.8218 14.7917 11.9779 14.9068 12.093C15.0219 12.2081 15.1779 12.2727 15.3407 12.2727H26.3861C26.5489 12.2727 26.705 12.2081 26.82 12.093C26.9351 11.9779 26.9998 11.8218 26.9998 11.6591V0.613636C26.9998 0.45089 26.9351 0.294809 26.82 0.17973C26.705 0.0646508 26.5489 0 26.3861 0Z" fill="#1565D8"/>
<path d="M26.3861 20.2498H21.4771V15.3407C21.4771 15.1779 21.4124 15.0219 21.2973 14.9068C21.1822 14.7917 21.0262 14.7271 20.8634 14.7271C20.7007 14.7271 20.5446 14.7917 20.4295 14.9068C20.3144 15.0219 20.2498 15.1779 20.2498 15.3407V20.2498H15.3407C15.1779 20.2498 15.0219 20.3144 14.9068 20.4295C14.7917 20.5446 14.7271 20.7007 14.7271 20.8634C14.7271 21.0262 14.7917 21.1822 14.9068 21.2973C15.0219 21.4124 15.1779 21.4771 15.3407 21.4771H20.2498V26.3861C20.2498 26.5489 20.3144 26.705 20.4295 26.82C20.5446 26.9351 20.7007 26.9998 20.8634 26.9998C21.0262 26.9998 21.1822 26.9351 21.2973 26.82C21.4124 26.705 21.4771 26.5489 21.4771 26.3861V21.4771H26.3861C26.5489 21.4771 26.705 21.4124 26.82 21.2973C26.9351 21.1822 26.9998 21.0262 26.9998 20.8634C26.9998 20.7007 26.9351 20.5446 26.82 20.4295C26.705 20.3144 26.5489 20.2498 26.3861 20.2498Z" fill="#1565D8"/>
</svg>
