<svg width="54" height="60" viewBox="0 0 54 60" fill="none" xmlns="http://www.w3.org/2000/svg">
<path d="M35.8857 16.1489H7.15267C6.66517 16.1489 6.27002 16.5441 6.27002 17.0316C6.27002 17.5191 6.66517 17.9142 7.15267 17.9142H35.8858C36.3733 17.9142 36.7685 17.5191 36.7685 17.0316C36.7685 16.5441 36.3732 16.1489 35.8857 16.1489Z" fill="#1565D8"/>
<path d="M7.15267 11.7917H21.5191C22.0066 11.7917 22.4018 11.3965 22.4018 10.909C22.4018 10.4215 22.0066 10.0264 21.5191 10.0264H7.15267C6.66517 10.0264 6.27002 10.4215 6.27002 10.909C6.27002 11.3966 6.66517 11.7917 7.15267 11.7917Z" fill="#1565D8"/>
<path d="M35.8857 21.5737H7.15267C6.66517 21.5737 6.27002 21.9689 6.27002 22.4564C6.27002 22.9439 6.66517 23.339 7.15267 23.339H35.8858C36.3733 23.339 36.7685 22.9439 36.7685 22.4564C36.7684 21.9689 36.3732 21.5737 35.8857 21.5737Z" fill="#1565D8"/>
<path d="M13.6978 53.8672H4.50245C2.9932 53.8672 1.76519 52.6394 1.76519 51.1301V4.50245C1.76519 2.9932 2.9932 1.76519 4.50245 1.76519H30.9933C31.0789 1.76519 31.1631 1.77304 31.2465 1.78429V7.28905C31.2465 9.77178 33.2663 11.7915 35.7489 11.7915H41.2536C41.2649 11.8749 41.2727 11.9592 41.2727 12.0447V27.0753C41.2727 27.5628 41.6678 27.958 42.1553 27.958C42.6428 27.958 43.038 27.5628 43.038 27.0753V12.0449C43.038 11.0767 42.6609 10.1663 41.9762 9.48162L33.5563 1.06172C32.8717 0.377109 31.9615 0 30.9933 0H4.50245C2.01972 0 0 2.01984 0 4.50245V51.1301C0 53.6127 2.01984 55.6324 4.50245 55.6324H13.6978C14.1853 55.6324 14.5804 55.2373 14.5804 54.7498C14.5804 54.2623 14.1853 53.8672 13.6978 53.8672ZM40.0245 10.0263H35.749C34.2398 10.0263 33.0118 8.7983 33.0118 7.28905V3.01359L40.0245 10.0263Z" fill="#1565D8"/>
<path d="M52.9955 43.2107L45.5168 30.5872C44.9718 29.6669 43.7856 29.3626 42.8648 29.9081L41.0457 30.9859C39.6337 31.8224 39.0368 33.5152 39.5216 35.0153C38.9088 35.2374 38.2368 35.2338 37.6181 34.9947C36.1818 34.5428 35.0899 33.6338 33.2865 34.0899C30.2244 34.8695 30.3174 34.8305 30.0404 34.9254C28.2474 33.9046 27.1696 33.6008 25.2663 34.3371L23.5696 34.993C22.7841 35.2965 21.9186 35.2246 21.1927 34.7945L20.7297 34.5216C20.9557 33.1678 20.3553 31.7392 19.0841 30.9862C19.0841 30.9862 19.0841 30.9862 19.0839 30.986L17.265 29.9084C16.3467 29.3645 15.157 29.669 14.613 30.5872L7.13413 43.2108C6.58909 44.1309 6.89237 45.3175 7.81299 45.8627L9.63197 46.9404C10.1824 47.2665 10.7873 47.4216 11.385 47.4216C12.0514 47.4216 12.7085 47.2284 13.2703 46.8647L13.6494 47.0884L12.849 48.2032C11.8952 49.5319 12.1983 51.3794 13.5272 52.3333C14.1417 52.7744 14.9137 52.9759 15.7121 52.8505C15.8388 53.591 16.2445 54.284 16.9015 54.7558C17.5184 55.1988 18.287 55.4005 19.0868 55.2745C19.2138 56.0144 19.6193 56.7069 20.2759 57.1783C21.1583 57.8117 22.2554 57.885 23.1696 57.4945C23.3696 58.0141 23.7173 58.4833 24.2023 58.8316C25.4689 59.7406 27.2136 59.5036 28.1977 58.3258L30.3247 59.5858C31.7313 60.4194 33.5462 59.9561 34.3802 58.5479C34.5935 58.1879 34.7258 57.7956 34.7742 57.3923L34.779 57.3952C36.1835 58.227 38.0024 57.7613 38.8345 56.3572C39.0754 55.9504 39.2075 55.5092 39.2396 55.0671C40.4775 55.3783 41.8267 54.8584 42.5099 53.7052C42.7341 53.327 42.8641 52.9183 42.9068 52.5071C44.2336 53.0278 45.7844 52.5246 46.5337 51.2599C46.9367 50.5796 47.0507 49.7832 46.8546 49.0172C46.7425 48.5789 46.5362 48.181 46.2531 47.8451L47.4255 47.1601C48.4172 47.5672 49.549 47.5021 50.4975 46.9403L52.3163 45.8626C53.2369 45.3177 53.541 44.1314 52.9955 43.2107ZM10.5317 45.4217L8.71276 44.344C8.6319 44.296 8.60506 44.1913 8.65287 44.1104L16.1318 31.4867C16.1799 31.4054 16.285 31.3791 16.3654 31.4269L18.1843 32.5044C18.9925 32.9834 19.2454 34.02 18.7753 34.8135L12.8408 44.8307C12.3671 45.6303 11.3314 45.8953 10.5317 45.4217ZM14.5565 50.8993C14.0205 50.5145 13.8979 49.7689 14.283 49.2327L15.4595 47.5939C15.8342 47.0719 16.5811 46.929 17.1261 47.3203C17.6611 47.7043 17.7838 48.4519 17.3998 48.9868L16.2233 50.6256C15.8393 51.1608 15.0913 51.2831 14.5565 50.8993ZM17.9309 53.3219C17.396 52.9378 17.2733 52.19 17.6573 51.6552L18.8338 50.0165C18.8338 50.0165 18.8338 50.0165 18.8338 50.0164C18.8338 50.0164 18.8338 50.0163 18.8339 50.0163L20.1322 48.2079C20.3183 47.9488 20.594 47.7775 20.9088 47.7259C20.9742 47.7151 21.0397 47.7098 21.1047 47.7098C21.3525 47.7098 21.5935 47.7869 21.7988 47.9342C22.0578 48.1203 22.2291 48.396 22.2807 48.7107C22.3324 49.0256 22.2584 49.3417 22.0723 49.6008L19.5975 53.0482C19.2129 53.5843 18.4672 53.707 17.9309 53.3219ZM21.3054 55.7443C20.7706 55.3604 20.6478 54.6132 21.0311 54.0784C21.0313 54.0781 21.0315 54.0779 21.0316 54.0777L23.5065 50.6304C23.8903 50.0955 24.6384 49.9727 25.1731 50.3566C25.7081 50.7406 25.8308 51.4883 25.4468 52.0233L24.3472 53.555C24.3472 53.555 24.3472 53.555 24.3471 53.5551L22.9719 55.4707C22.5878 56.0056 21.8404 56.1286 21.3054 55.7443ZM25.2318 57.3976C24.6972 57.0137 24.5743 56.2668 24.9574 55.7319L25.7811 54.5846C26.165 54.0495 26.913 53.9272 27.4477 54.311C27.9826 54.6949 28.1054 55.4427 27.7214 55.9776L26.8983 57.1238C26.5144 57.6589 25.7666 57.7817 25.2318 57.3976ZM45.0153 50.3603C44.6794 50.9271 43.9454 51.1151 43.3784 50.7793C42.4184 50.2106 36.2258 46.5418 35.5655 46.1507C35.146 45.9022 34.6047 46.0406 34.3563 46.46C34.1078 46.8794 34.2462 47.4208 34.6656 47.6693L40.5722 51.1686L40.5723 51.1687C41.1394 51.5046 41.3286 52.2364 40.9914 52.8057C40.6554 53.3728 39.921 53.5604 39.3543 53.2249C37.1697 51.9307 35.3958 50.8797 33.4445 49.7237C33.0249 49.4753 32.4837 49.6137 32.2353 50.0331C31.9869 50.4525 32.1253 50.9939 32.5447 51.2423L36.8968 53.8207L36.8977 53.8213C37.4651 54.1582 37.6524 54.8897 37.3159 55.4578C36.98 56.0249 36.2458 56.2127 35.6787 55.8768L33.3431 54.4932C33.3428 54.4931 33.3425 54.493 33.3422 54.4927C33.342 54.4926 33.3418 54.4925 33.3415 54.4924L31.6371 53.4825C31.2175 53.2339 30.6762 53.3723 30.4278 53.7919C30.1794 54.2113 30.3178 54.7527 30.7372 55.0011L32.442 56.0111C32.4422 56.0113 32.4425 56.0115 32.4427 56.0116C33.0098 56.3475 33.1989 57.0792 32.8618 57.6485C32.5258 58.2156 31.7916 58.4034 31.2246 58.0675L29.2358 56.8895C30.0883 55.5739 29.764 53.8011 28.4772 52.8774C28.0993 52.6063 27.6785 52.4374 27.248 52.3649C27.7046 51.1441 27.311 49.7189 26.2025 48.9232C25.5462 48.4519 24.7605 48.2891 24.0189 48.4053C23.887 47.6337 23.465 46.9577 22.8283 46.5008C21.6309 45.6415 20.0036 45.8066 18.9985 46.8234C18.7943 46.4647 18.5123 46.1429 18.1556 45.8869C17.1606 45.1727 15.8687 45.166 14.8836 45.7676L14.4792 45.5289L20.0304 36.1587L20.2946 36.3145C21.4618 37.0059 22.8861 37.1501 24.2061 36.6396L25.9027 35.9837C26.8736 35.6085 27.4091 35.584 28.3694 36.0372C27.741 36.7431 27.368 37.6699 27.368 38.6688V42.5823C27.368 43.6218 28.2131 44.468 29.2517 44.4687H29.2543C30.2961 44.4687 31.2758 44.0631 32.0128 43.3266C32.4424 42.8972 32.7595 42.3853 32.9495 41.8266C34.0892 42.5014 43.5048 48.0771 44.5964 48.7239C44.871 48.8865 45.0658 49.1463 45.1449 49.4555C45.224 49.7642 45.1779 50.0857 45.0153 50.3603ZM51.417 44.344L49.5979 45.4217C48.7982 45.8952 47.7625 45.63 47.2891 44.8308L44.5075 40.1357C44.2589 39.7163 43.7173 39.5779 43.2982 39.8261C42.8788 40.0745 42.7403 40.6159 42.9886 41.0353L45.7702 45.7305C45.8226 45.8189 45.8794 45.9029 45.9382 45.9848L45.1649 46.4366C45.0086 46.5292 44.8582 46.6311 44.7145 46.7419L32.7235 39.6409C32.136 39.2932 31.3912 39.7171 31.3912 40.4003C31.3819 40.453 31.4824 41.3603 30.7648 42.0776C30.3612 42.4808 29.8247 42.703 29.2542 42.703C29.2537 42.703 29.2532 42.703 29.2528 42.703C29.1868 42.703 29.1331 42.6486 29.1331 42.5818V38.6684C29.1331 37.646 29.8365 36.7835 30.7877 36.5427L33.7192 35.8008C34.7829 35.532 35.3842 36.1 36.9769 36.639C38.0826 37.0668 39.2848 37.0404 40.3519 36.5847L40.8847 37.484C41.1332 37.9036 41.6746 38.0419 42.0939 37.7936C42.5133 37.5451 42.6518 37.0037 42.4035 36.5843L41.3542 34.8133C40.8795 34.0119 41.144 32.9793 41.9452 32.5043L43.7642 31.4268C43.8436 31.3795 43.9487 31.4037 43.998 31.4867L51.4766 44.1102C51.5249 44.1916 51.4983 44.2958 51.417 44.344Z" fill="#1565D8"/>
</svg>
