<svg width="54" height="60" viewBox="0 0 54 60" fill="none" xmlns="http://www.w3.org/2000/svg">
<path d="M50.2192 0H15.168C13.1621 0 11.5301 1.63198 11.5301 3.63785V11.7787C4.88093 13.6816 0 19.815 0 27.0672C0 34.3193 4.88081 40.4527 11.5301 42.3556V56.3621C11.5301 58.368 13.1621 60 15.168 60H43.8116C44.1515 60 44.4773 59.865 44.7177 59.6248L53.4817 50.8606C53.722 50.6203 53.8569 50.2944 53.8569 49.9545V3.63785C53.8569 1.63198 52.2251 0 50.2192 0ZM15.168 2.56255H50.2192C50.812 2.56255 51.2944 3.04492 51.2944 3.63785V7.50474H14.0927V3.63785C14.0927 3.04492 14.5751 2.56255 15.168 2.56255ZM2.56255 27.067C2.56255 19.7134 8.54514 13.7308 15.8988 13.7308C23.2525 13.7308 29.2351 19.7134 29.2351 27.067C29.2351 34.4207 23.2525 40.4034 15.8988 40.4034C8.54514 40.4034 2.56255 34.4207 2.56255 27.067ZM14.0927 56.362V42.8627C14.6858 42.9301 15.2882 42.966 15.8989 42.966C20.6744 42.966 24.9645 40.8492 27.8813 37.505H35.732C36.4396 37.505 37.0133 36.9314 37.0133 36.2238C37.0133 35.5161 36.4396 34.9425 35.732 34.9425H29.7062C30.8207 32.9962 31.5347 30.793 31.7372 28.4456H35.7319C36.4395 28.4456 37.0132 27.8719 37.0132 27.1643C37.0132 26.4567 36.4395 25.883 35.7319 25.883H31.7535C31.5802 23.5408 30.8968 21.3385 29.8149 19.3862H35.7318C36.4394 19.3862 37.013 18.8126 37.013 18.1049C37.013 17.3973 36.4394 16.8237 35.7318 16.8237H28.0473C25.1286 13.3675 20.766 11.1681 15.8986 11.1681C15.2878 11.1681 14.6854 11.204 14.0923 11.2713V10.0673H51.294V48.673H46.1678C44.1618 48.673 42.5301 50.305 42.5301 52.3107V57.4372H15.168C14.5751 57.4372 14.0927 56.955 14.0927 56.362ZM45.093 55.6251V52.3109C45.093 51.7179 45.5754 51.2357 46.1682 51.2357H49.4824L45.093 55.6251Z" fill="#1565D8"/>
<path d="M40.7657 19.3863H45.0207C45.7283 19.3863 46.302 18.8126 46.302 18.105C46.302 17.3974 45.7283 16.8237 45.0207 16.8237H40.7657C40.058 16.8237 39.4844 17.3974 39.4844 18.105C39.4844 18.8126 40.058 19.3863 40.7657 19.3863Z" fill="#1565D8"/>
<path d="M40.7657 28.4459H45.0207C45.7283 28.4459 46.302 27.8722 46.302 27.1646C46.302 26.4569 45.7283 25.8833 45.0207 25.8833H40.7657C40.058 25.8833 39.4844 26.4569 39.4844 27.1646C39.4844 27.8722 40.058 28.4459 40.7657 28.4459Z" fill="#1565D8"/>
<path d="M40.7657 37.5049H45.0207C45.7283 37.5049 46.302 36.9313 46.302 36.2237C46.302 35.516 45.7283 34.9424 45.0207 34.9424H40.7657C40.058 34.9424 39.4844 35.516 39.4844 36.2237C39.4844 36.9313 40.058 37.5049 40.7657 37.5049Z" fill="#1565D8"/>
<path d="M45.0212 46.5645C45.7289 46.5645 46.3025 45.9909 46.3025 45.2832C46.3025 44.5756 45.7289 44.002 45.0212 44.002H33.0352C32.3276 44.002 31.7539 44.5756 31.7539 45.2832C31.7539 45.9909 32.3276 46.5645 33.0352 46.5645H45.0212Z" fill="#1565D8"/>
<path d="M25.8461 20.6031L24.2829 19.0399C23.8619 18.6191 23.3023 18.3872 22.707 18.3872C22.1116 18.3872 21.552 18.6191 21.131 19.0399L12.932 27.2389L10.6657 24.9725C10.2448 24.5517 9.68505 24.3199 9.08981 24.3199C8.49456 24.3199 7.93483 24.5517 7.51396 24.9726L5.95043 26.536C5.08161 27.405 5.08161 28.8189 5.95056 29.6878L11.356 35.0931C11.7769 35.5142 12.3367 35.7461 12.932 35.7461H12.9322C13.5274 35.7461 14.0871 35.5142 14.5079 35.0933L25.8462 23.755C26.715 22.8861 26.715 21.472 25.8461 20.6031ZM12.9319 33.0451L7.99852 28.1119L9.08968 27.0207L12.0259 29.9569C12.5263 30.4573 13.3375 30.4573 13.838 29.9569L22.707 21.0879L23.7981 22.1791L12.9319 33.0451Z" fill="#1565D8"/>
</svg>
