<svg width="26" height="24" viewBox="0 0 26 24" fill="none" xmlns="http://www.w3.org/2000/svg">
<path d="M24.8237 11.8179C23.7887 9.2189 18.1717 7.1689 11.8777 7.0329C14.4567 4.1099 17.1007 2.4869 18.6077 2.7069C20.0537 2.9199 20.0127 4.8349 19.8607 5.9579C19.8237 6.2309 20.0147 6.4829 20.2887 6.5209C20.5547 6.5569 20.8137 6.3659 20.8507 6.0929C21.1957 3.5599 20.4307 1.9649 18.7527 1.7179C16.6307 1.4079 13.4247 3.5819 10.5717 7.0289C9.39969 7.0559 8.29869 7.1499 7.28869 7.3059C6.90569 5.0879 7.05869 3.3449 7.71169 2.5249C8.62469 1.3819 10.2747 2.3809 11.1777 3.0769C11.3957 3.2459 11.7117 3.2059 11.8787 2.9859C12.0477 2.7669 12.0077 2.4529 11.7887 2.2849C9.75569 0.717897 7.98569 0.576897 6.92869 1.9019C6.05169 3.0039 5.87769 5.0369 6.30169 7.4819C3.94069 7.9739 2.19969 8.8389 1.43069 9.9709C0.96169 10.6609 0.87369 11.4279 1.17669 12.1879C1.48369 12.9569 2.17069 13.6809 3.22069 14.3399C3.45569 14.4859 3.76369 14.4169 3.90969 14.1819C4.05569 13.9479 3.98569 13.6399 3.75169 13.4929C2.89869 12.9579 2.32869 12.3789 2.10669 11.8189C1.92669 11.3679 1.97669 10.9479 2.25769 10.5329C2.79569 9.7399 4.24269 8.9459 6.50069 8.4689C6.73069 9.4789 7.05269 10.5409 7.46269 11.6269C5.31769 15.5259 4.53269 19.0629 5.44269 20.9489C5.80769 21.7049 6.43169 22.1679 7.24869 22.2879C7.39169 22.3089 7.53869 22.3199 7.68969 22.3199C8.58269 22.3199 9.62169 21.9549 10.7867 21.2319C11.0207 21.0869 11.0937 20.7779 10.9477 20.5439C10.8027 20.3089 10.4927 20.2399 10.2597 20.3829C9.11869 21.0909 8.13269 21.4079 7.39269 21.2999C6.90669 21.2279 6.56269 20.9709 6.34169 20.5149C5.75269 19.2949 6.07369 16.5059 7.94769 12.8369C8.40669 13.9029 8.94469 14.9779 9.55769 16.0349C11.9537 20.1659 14.8087 22.8319 17.0087 22.9939C17.0787 22.9989 17.1487 23.0019 17.2167 23.0019C17.9647 23.0019 18.6027 22.6949 19.0707 22.1069C20.5957 20.1899 20.0157 15.3379 17.6607 10.3059C17.5427 10.0559 17.2437 9.9479 16.9957 10.0649C16.7457 10.1819 16.6377 10.4789 16.7547 10.7289C18.8867 15.2809 19.5457 19.9039 18.2877 21.4829C17.9837 21.8649 17.5847 22.0299 17.0817 21.9969C15.5687 21.8859 12.9237 19.8439 10.4227 15.5329C9.66969 14.2349 9.05569 12.9429 8.56169 11.6959C8.59069 11.6449 8.61169 11.5999 8.64069 11.5499C9.39369 10.2509 10.2117 9.0749 11.0487 8.0259C11.1067 8.0259 11.1577 8.0209 11.2167 8.0209C17.8077 8.0209 23.0937 10.1759 23.8947 12.1889C24.3347 13.2959 23.2747 14.1179 22.3077 14.6119C22.0617 14.7379 21.9637 15.0389 22.0897 15.2849C22.1787 15.4579 22.3537 15.5569 22.5347 15.5569C22.6117 15.5569 22.6887 15.5389 22.7627 15.5019C24.6247 14.5489 25.3757 13.2069 24.8237 11.8179ZM8.11569 10.4879C7.85669 9.7279 7.64869 8.9939 7.48769 8.2959C8.18069 8.1879 8.93369 8.1099 9.75069 8.0669C9.17869 8.8269 8.63269 9.6399 8.11569 10.4879Z" fill="#325E9E" stroke="#325E9E" stroke-width="0.5"/>
<path d="M11.001 12C11.001 13.103 11.898 14 13.001 14C14.104 14 15.001 13.103 15.001 12C15.001 10.897 14.104 10 13.001 10C11.898 10 11.001 10.897 11.001 12Z" fill="#325E9E"/>
</svg>
