<svg width="25" height="27" viewBox="0 0 25 27" fill="none" xmlns="http://www.w3.org/2000/svg">
<path d="M24.1877 11.8127C23.8772 11.8127 23.6252 11.5607 23.6252 11.2502C23.6252 7.94495 22.3382 4.83657 20.0005 2.49995C19.7811 2.28057 19.7811 1.92395 20.0005 1.70457C20.2198 1.4852 20.5765 1.4852 20.7958 1.70457C23.3462 4.25382 24.7502 7.64345 24.7502 11.2502C24.7502 11.5607 24.4982 11.8127 24.1877 11.8127Z" fill="#1565D8"/>
<path d="M0.5625 11.8127C0.252 11.8127 0 11.5607 0 11.2502C0 7.64345 1.404 4.25382 3.95437 1.70457C4.17375 1.4852 4.53038 1.4852 4.74975 1.70457C4.96913 1.92395 4.96913 2.28057 4.74975 2.49995C2.412 4.83657 1.125 7.94495 1.125 11.2502C1.125 11.5607 0.873 11.8127 0.5625 11.8127Z" fill="#1565D8"/>
<path d="M14.0625 4.7025C13.752 4.7025 13.5 4.4505 13.5 4.14V2.25C13.5 1.63013 12.9949 1.125 12.375 1.125C11.7551 1.125 11.25 1.63013 11.25 2.25V4.14C11.25 4.4505 10.998 4.7025 10.6875 4.7025C10.377 4.7025 10.125 4.45162 10.125 4.14V2.25C10.125 1.00912 11.1341 0 12.375 0C13.6159 0 14.625 1.00912 14.625 2.25V4.14C14.625 4.45162 14.373 4.7025 14.0625 4.7025Z" fill="#1565D8"/>
<path d="M12.375 27C10.2038 27 8.4375 25.2337 8.4375 23.0625C8.4375 22.752 8.6895 22.5 9 22.5C9.3105 22.5 9.5625 22.752 9.5625 23.0625C9.5625 24.6128 10.8248 25.875 12.375 25.875C13.9253 25.875 15.1875 24.6128 15.1875 23.0625C15.1875 22.752 15.4395 22.5 15.75 22.5C16.0605 22.5 16.3125 22.752 16.3125 23.0625C16.3125 25.2337 14.5463 27 12.375 27Z" fill="#1565D8"/>
<path d="M21.9375 23.625H2.8125C1.88213 23.625 1.125 22.8679 1.125 21.9375C1.125 21.4436 1.33988 20.9768 1.71563 20.655C3.48863 19.1565 4.5 16.9762 4.5 14.6678V11.25C4.5 6.9075 8.0325 3.375 12.375 3.375C16.7175 3.375 20.25 6.9075 20.25 11.25V14.6678C20.25 16.9774 21.2614 19.1565 23.0254 20.6471C23.4101 20.9768 23.625 21.4436 23.625 21.9375C23.625 22.8679 22.869 23.625 21.9375 23.625ZM12.375 4.5C8.65238 4.5 5.625 7.52738 5.625 11.25V14.6678C5.625 17.3092 4.4685 19.8011 2.45138 21.5066C2.322 21.6169 2.25 21.7733 2.25 21.9375C2.25 22.248 2.502 22.5 2.8125 22.5H21.9375C22.248 22.5 22.5 22.248 22.5 21.9375C22.5 21.7733 22.428 21.6169 22.3031 21.51C20.2826 19.8011 19.125 17.3081 19.125 14.6678V11.25C19.125 7.52738 16.0976 4.5 12.375 4.5Z" fill="#1565D8"/>
</svg>
