<svg width="19" height="14" viewBox="0 0 19 14" fill="none" xmlns="http://www.w3.org/2000/svg">
<path d="M15.7077 0H2.66734C1.19648 0 0 1.25153 0 2.79007V11.2099C0 12.7485 1.19648 14 2.66734 14H15.7077C17.1785 14 18.375 12.7485 18.375 11.2099V2.79007C18.375 1.25154 17.1785 0 15.7077 0ZM14.9197 1.86005L14.1013 2.53588L9.73874 6.13817C9.41274 6.40477 8.96225 6.40477 8.63625 6.13817L4.42776 2.65989L3.45768 1.86005H14.9197ZM15.7077 12.14H2.66734C2.17705 12.14 1.77823 11.7228 1.77823 11.2099V2.8488L7.53376 7.6014C8.01982 8.00443 8.60662 8.20283 9.1875 8.20283C9.76838 8.20283 10.3552 8.00442 10.8412 7.6014L16.5968 2.85092V11.2099C16.5968 11.7228 16.1979 12.14 15.7077 12.14Z" fill="#1565D8"/>
</svg>
