<svg width="40" height="40" viewBox="0 0 40 40" fill="none" xmlns="http://www.w3.org/2000/svg">
<rect width="40" height="40" rx="20" fill="white"/>
<path d="M29.7777 15.2201L22.4445 8.91562C21.7722 8.32598 20.9019 8 20 8C19.0981 8 18.2279 8.32598 17.5556 8.91562L10.2223 15.2201C9.83412 15.5606 9.52432 15.9782 9.31358 16.4453C9.10284 16.9124 8.99598 17.4181 9.00012 17.9288V28.4043C9.00012 29.3579 9.38642 30.2725 10.0741 30.9468C10.7617 31.6212 11.6943 32 12.6668 32H27.3333C28.3058 32 29.2384 31.6212 29.926 30.9468C30.6137 30.2725 31 29.3579 31 28.4043V17.9169C31.0024 17.4081 30.8947 16.9047 30.684 16.4398C30.4733 15.975 30.1644 15.5592 29.7777 15.2201ZM22.4445 29.6029H17.5556V23.61C17.5556 23.2922 17.6844 22.9873 17.9136 22.7625C18.1428 22.5378 18.4537 22.4115 18.7778 22.4115H21.2222C21.5464 22.4115 21.8573 22.5378 22.0865 22.7625C22.3157 22.9873 22.4445 23.2922 22.4445 23.61V29.6029ZM28.5555 28.4043C28.5555 28.7222 28.4268 29.027 28.1976 29.2518C27.9683 29.4766 27.6575 29.6029 27.3333 29.6029H24.8889V23.61C24.8889 22.6564 24.5026 21.7418 23.815 21.0675C23.1273 20.3932 22.1947 20.0143 21.2222 20.0143H18.7778C17.8054 20.0143 16.8727 20.3932 16.1851 21.0675C15.4975 21.7418 15.1112 22.6564 15.1112 23.61V29.6029H12.6668C12.3426 29.6029 12.0317 29.4766 11.8025 29.2518C11.5733 29.027 11.4445 28.7222 11.4445 28.4043V17.9169C11.4448 17.7467 11.4819 17.5785 11.5536 17.4235C11.6252 17.2685 11.7297 17.1302 11.8601 17.0179L19.1934 10.7255C19.4164 10.5333 19.7032 10.4273 20 10.4273C20.2969 10.4273 20.5837 10.5333 20.8067 10.7255L28.14 17.0179C28.2704 17.1302 28.3748 17.2685 28.4465 17.4235C28.5181 17.5785 28.5553 17.7467 28.5555 17.9169V28.4043Z" fill="#4885ED"/>
</svg>
