<svg width="62" height="60" viewBox="0 0 62 60" fill="none" xmlns="http://www.w3.org/2000/svg">
<path d="M62.0005 30C62.0005 29.8001 61.9406 29.6048 61.8285 29.4393C61.7164 29.2737 61.5574 29.1456 61.3718 29.0713L42.443 21.5L61.3718 13.9287C61.5575 13.8546 61.7168 13.7265 61.829 13.5609C61.9411 13.3954 62.0011 13.2 62.0011 13C62.0011 12.8 61.9411 12.6046 61.829 12.4391C61.7168 12.2735 61.5575 12.1454 61.3718 12.0712L31.3718 0.0712465C31.1334 -0.0237488 30.8677 -0.0237488 30.6293 0.0712465L0.629293 12.0712C0.443558 12.1454 0.284317 12.2735 0.172139 12.4391C0.0599614 12.6046 0 12.8 0 13C0 13.2 0.0599614 13.3954 0.172139 13.5609C0.284317 13.7265 0.443558 13.8546 0.629293 13.9287L19.558 21.5L0.629293 29.0713C0.443558 29.1454 0.284317 29.2735 0.172139 29.4391C0.0599614 29.6046 0 29.8 0 30C0 30.2 0.0599614 30.3954 0.172139 30.5609C0.284317 30.7265 0.443558 30.8546 0.629293 30.9287L19.558 38.5L0.629293 46.0713C0.443558 46.1454 0.284317 46.2735 0.172139 46.4391C0.0599614 46.6046 0 46.8 0 47C0 47.2 0.0599614 47.3954 0.172139 47.5609C0.284317 47.7265 0.443558 47.8546 0.629293 47.9287L30.6293 59.9288C30.8677 60.0237 31.1334 60.0237 31.3718 59.9288L61.3718 47.9287C61.5575 47.8546 61.7168 47.7265 61.829 47.5609C61.9411 47.3954 62.0011 47.2 62.0011 47C62.0011 46.8 61.9411 46.6046 61.829 46.4391C61.7168 46.2735 61.5575 46.1454 61.3718 46.0713L42.443 38.5L61.3718 30.9287C61.5574 30.8544 61.7164 30.7263 61.8285 30.5607C61.9406 30.3952 62.0005 30.1999 62.0005 30ZM3.69304 13L31.0005 2.0775L58.308 13L31.0005 23.9225L3.69304 13ZM58.308 47L31.0005 57.9225L3.69304 47L22.2505 39.5775L30.6293 42.9287C30.8677 43.0237 31.1334 43.0237 31.3718 42.9287L39.7505 39.5775L58.308 47ZM31.0005 40.9225L3.69304 30L22.2505 22.5775L30.6293 25.9287C30.8677 26.0237 31.1334 26.0237 31.3718 25.9287L39.7505 22.5775L58.308 30L31.0005 40.9225Z" fill="#1565D8"/>
</svg>
