<svg width="8" height="19" viewBox="0 0 8 19" fill="none" xmlns="http://www.w3.org/2000/svg">
<path d="M7.76048 16.1522L7.50749 17.1864C6.74853 17.486 6.14227 17.7139 5.69082 17.8707C5.23889 18.028 4.71377 18.1062 4.11546 18.1062C3.19666 18.1062 2.482 17.8811 1.97229 17.434C1.46259 16.9852 1.20765 16.4164 1.20765 15.7264C1.20765 15.4593 1.22615 15.1846 1.26461 14.9046C1.30339 14.6244 1.36506 14.3088 1.44944 13.956L2.39794 10.5988C2.48232 10.2774 2.55405 9.97278 2.61149 9.68474C2.66975 9.39849 2.69782 9.13511 2.69782 8.89803C2.69782 8.4693 2.60906 8.16941 2.43234 8.00081C2.25562 7.83269 1.91842 7.74734 1.4178 7.74734C1.1726 7.74734 0.920587 7.78661 0.663705 7.86255C0.405688 7.93882 0.185156 8.01249 0 8.08097L0.253636 7.04598C0.874987 6.793 1.46891 6.57636 2.03704 6.39656C2.60516 6.21627 3.14197 6.12605 3.64973 6.12605C4.5622 6.12605 5.26631 6.34658 5.76077 6.78764C6.25522 7.22903 6.50236 7.80121 6.50236 8.5063C6.50236 8.65218 6.48614 8.90923 6.45125 9.27662C6.41717 9.64482 6.35372 9.98219 6.26122 10.2891L5.31678 13.6327C5.23938 13.9013 5.16976 14.2083 5.10923 14.5538C5.04676 14.897 5.0169 15.1593 5.0169 15.3352C5.0169 15.7791 5.11588 16.0823 5.31435 16.2434C5.51427 16.4046 5.85862 16.4847 6.34771 16.4847C6.57733 16.4847 6.8386 16.444 7.12891 16.364C7.41841 16.284 7.62953 16.2137 7.76048 16.1522ZM8 2.11444C8 2.69701 7.78044 3.19455 7.33922 3.60364C6.89913 4.0142 6.36881 4.21964 5.74843 4.21964C5.12611 4.21964 4.59449 4.0142 4.14937 3.60364C3.70506 3.19439 3.48242 2.69701 3.48242 2.11444C3.48242 1.53301 3.70506 1.03467 4.14937 0.620378C4.59368 0.206738 5.12627 0 5.74843 0C6.36865 0 6.89913 0.207225 7.33922 0.620378C7.78077 1.03467 8 1.53317 8 2.11444Z" fill="#1565D8"/>
</svg>
