<?xml version="1.0" standalone="no"?>
<!DOCTYPE svg PUBLIC "-//W3C//DTD SVG 20010904//EN"
 "http://www.w3.org/TR/2001/REC-SVG-20010904/DTD/svg10.dtd">
<svg version="1.0" xmlns="http://www.w3.org/2000/svg"
 width="225.000000pt" height="225.000000pt" viewBox="0 0 225.000000 225.000000"
 preserveAspectRatio="xMidYMid meet">

<g transform="translate(0.000000,225.000000) scale(0.100000,-0.100000)"
fill="#000000" stroke="none">
<path d="M1355 2208 c-111 -40 -184 -137 -185 -248 -1 -147 102 -241 250 -227
175 16 286 174 239 342 -15 52 -82 119 -134 134 -49 14 -130 13 -170 -1z"/>
<path d="M1106 1584 c-138 -33 -273 -121 -412 -266 -100 -104 -140 -168 -124
-197 23 -45 54 -27 156 89 126 145 198 195 244 170 38 -20 25 -68 -111 -407
-167 -417 -185 -466 -216 -588 -42 -165 -34 -255 29 -311 82 -75 286 -50 470
57 144 84 343 270 388 364 21 43 21 47 6 70 -9 14 -21 25 -27 25 -6 0 -43 -35
-83 -77 -125 -136 -185 -191 -223 -204 -34 -11 -38 -10 -55 11 -29 35 -35 13
170 566 144 385 169 479 152 557 -15 72 -38 104 -94 132 -41 21 -64 25 -130
24 -45 0 -108 -7 -140 -15z"/>
</g>
</svg>
