<svg width="20" height="23" viewBox="0 0 20 23" fill="none" xmlns="http://www.w3.org/2000/svg">
<path d="M17.0815 2.84937C15.205 1.02495 12.6599 -1.92234e-08 10.0061 0C7.35233 1.92234e-08 4.80724 1.02495 2.93073 2.84937C1.05421 4.67379 1.97723e-08 7.14824 0 9.72836C-1.97723e-08 12.3085 1.05421 14.7829 2.93073 16.6074L9.14528 22.6609C9.25491 22.7683 9.38533 22.8536 9.52903 22.9118C9.67273 22.97 9.82687 23 9.98254 23C10.1382 23 10.2923 22.97 10.436 22.9118C10.5797 22.8536 10.7102 22.7683 10.8198 22.6609L17.0815 16.55C18.9502 14.7332 20 12.2691 20 9.6997C20 7.13034 18.9502 4.6662 17.0815 2.84937Z" fill="#1C4684"/>
<path d="M10.4174 13.9782C11.3394 13.8814 12.1992 13.4674 12.8498 12.8069H12.7639C13.5305 12.0748 13.975 11.0683 14 10.0086C14.002 9.08154 13.6819 8.18255 13.0944 7.46534C12.507 6.74814 11.6886 6.25727 10.7793 6.07665C9.86995 5.89603 8.92612 6.03689 8.10915 6.47514C7.29218 6.91339 6.65281 7.62181 6.30035 8.47929C5.94789 9.33677 5.90423 10.29 6.17683 11.1762C6.44943 12.0623 7.02137 12.8262 7.79485 13.3373C8.56834 13.8484 9.49535 14.0749 10.4174 13.9782Z" fill="white"/>
</svg>
