<svg width="691" height="482" viewBox="0 0 691 482" fill="none" xmlns="http://www.w3.org/2000/svg">
<g opacity="0.35">
<path d="M647.097 322.721C637.745 289.149 667.484 287.848 668.15 244.591C668.417 226.905 658.732 208.885 635.412 200.617C623.943 196.55 612.525 193.766 602.323 187.298C579.086 172.579 579.502 144.575 573.168 120.704C559.249 68.262 505.657 26.605 451.414 27.9553C412.308 28.9388 376.969 30.1223 341.313 63.3111C316.925 86.0149 301.073 113.97 278.419 137.373C254.432 162.161 225.21 174.063 192.405 182.031C161.366 189.565 127.611 198.534 103.857 221.121C81.5363 242.358 84.7868 264.545 94.3551 290.616C104.907 319.354 82.0197 338.907 58.1657 350.109C38.079 359.527 11.3246 358.71 2.00638 381.264C-8.11197 405.701 21.9264 406.118 49.8643 406.118C77.8023 406.118 439.496 403.968 540.579 406.952C567.784 407.752 654.598 415.17 666.884 381.247C675.235 358.177 653.631 346.158 647.097 322.721Z" fill="#C5E9FB"/>
</g>
<path d="M678.119 312.252C657.915 359.276 618.992 397.649 572.334 418.453" stroke="#C5E9FB" stroke-width="1.0564" stroke-miterlimit="10"/>
<path d="M672.2 324.771C679.251 318.903 684.086 310.419 685.536 301.351C685.886 299.134 685.969 296.6 684.469 294.916C684.052 294.449 683.519 294.066 682.902 294.016C681.918 293.916 681.035 294.649 680.385 295.383C676.868 299.334 675.651 304.784 675.051 310.019C674.434 315.27 673.284 319.104 672.2 324.771Z" fill="#C5E9FB"/>
<path d="M662.599 340.791C666.75 332.606 667.816 322.904 665.549 314.003C664.999 311.819 664.049 309.469 662.015 308.519C661.449 308.252 660.799 308.119 660.215 308.302C659.265 308.602 658.748 309.619 658.448 310.569C656.798 315.587 657.831 321.071 659.365 326.122C660.882 331.172 661.365 335.156 662.599 340.791Z" fill="#C5E9FB"/>
<path d="M648.48 360.494C653.597 352.876 655.848 343.374 654.681 334.273C654.397 332.039 653.747 329.589 651.847 328.405C651.33 328.072 650.697 327.855 650.08 327.972C649.097 328.155 648.463 329.105 648.046 330.006C645.796 334.773 646.163 340.357 647.046 345.558C647.963 350.742 647.946 354.76 648.48 360.494Z" fill="#C5E9FB"/>
<path d="M632.26 377.747C637.378 370.129 639.628 360.627 638.461 351.526C638.178 349.292 637.528 346.842 635.627 345.658C635.111 345.325 634.477 345.108 633.86 345.225C632.877 345.408 632.243 346.358 631.827 347.258C629.576 352.026 629.943 357.61 630.827 362.811C631.727 367.995 631.71 372.013 632.26 377.747Z" fill="#C5E9FB"/>
<path d="M607.956 397.684C613.84 390.632 617.058 381.414 616.841 372.246C616.791 369.996 616.407 367.495 614.624 366.112C614.14 365.728 613.54 365.445 612.924 365.495C611.923 365.578 611.207 366.445 610.69 367.295C607.956 371.813 607.739 377.397 608.089 382.664C608.439 387.932 608.006 391.916 607.956 397.684Z" fill="#C5E9FB"/>
<path d="M588.92 410.402C594.704 404.118 598.438 395.366 599.222 386.231C599.422 383.998 599.355 381.464 597.988 379.863C597.605 379.43 597.121 379.08 596.588 379.047C595.721 378.997 595.021 379.78 594.488 380.564C591.67 384.714 590.887 390.215 590.637 395.499C590.37 400.784 589.587 404.684 588.92 410.402Z" fill="#C5E9FB"/>
<path d="M657.798 347.841C667.117 349.375 677.152 347.441 685.52 342.524C687.57 341.323 689.704 339.69 690.137 337.406C690.254 336.773 690.22 336.106 689.887 335.589C689.337 334.756 688.187 334.572 687.153 334.556C681.686 334.472 676.418 337.173 671.734 340.207C667.033 343.224 663.133 344.907 657.798 347.841Z" fill="#C5E9FB"/>
<path d="M646.396 362.744C655.064 366.461 665.282 366.978 674.584 364.194C676.868 363.511 679.318 362.427 680.285 360.327C680.552 359.743 680.685 359.093 680.468 358.51C680.135 357.576 679.068 357.109 678.068 356.859C672.767 355.476 667.016 356.843 661.749 358.66C656.464 360.477 652.28 361.177 646.396 362.744Z" fill="#C5E9FB"/>
<path d="M629.343 380.13C637.095 385.498 646.996 388.065 656.681 387.198C659.048 386.982 661.665 386.415 663.032 384.548C663.416 384.031 663.666 383.414 663.582 382.798C663.449 381.814 662.482 381.147 661.549 380.697C656.631 378.28 650.73 378.464 645.196 379.197C639.662 379.914 635.428 379.764 629.343 380.13Z" fill="#C5E9FB"/>
<path d="M605.506 400.217C614.258 403.734 624.476 404.034 633.728 401.051C635.995 400.317 638.429 399.184 639.345 397.067C639.595 396.483 639.712 395.816 639.495 395.233C639.145 394.299 638.062 393.866 637.045 393.633C631.727 392.366 626.01 393.849 620.759 395.8C615.525 397.717 611.357 398.517 605.506 400.217Z" fill="#C5E9FB"/>
<path d="M586.236 411.719C592.471 418.804 601.456 423.671 611.057 425.155C613.408 425.522 616.091 425.605 617.858 424.121C618.342 423.721 618.758 423.171 618.808 422.554C618.908 421.571 618.142 420.687 617.342 420.021C613.157 416.487 607.373 415.253 601.822 414.62C596.305 414.003 592.237 412.836 586.236 411.719Z" fill="#C5E9FB"/>
<path d="M563.9 213.353C563.65 213.336 563.45 213.136 563.433 212.886L563.25 210.369C563.233 210.102 563.433 209.852 563.717 209.835C563.983 209.802 564.233 210.019 564.25 210.302L564.434 212.819C564.45 213.086 564.25 213.336 563.967 213.353C563.933 213.353 563.917 213.353 563.9 213.353Z" fill="#5B9FD1"/>
<path d="M575.186 327.621L568.551 328.088L561.15 220.937L564.467 220.704L567.801 220.47L575.186 327.621Z" fill="#C5E9FB"/>
<path d="M564.517 211.803L563.184 211.903L561.15 220.938L567.801 220.471L564.517 211.803Z" fill="#C5E9FB"/>
<path d="M200.123 238.473C211.942 303.051 256.966 360.627 316.792 387.681" stroke="#C5E9FB" stroke-width="1.0564" stroke-miterlimit="10"/>
<path d="M203.106 251.992C197.539 244.691 194.722 235.339 195.338 226.188C195.488 223.937 195.989 221.454 197.806 220.154C198.306 219.787 198.922 219.537 199.539 219.62C200.523 219.737 201.223 220.654 201.69 221.52C204.223 226.155 204.207 231.739 203.623 236.99C203.04 242.241 203.306 246.225 203.106 251.992Z" fill="#C5E9FB"/>
<path d="M208.891 269.744C206.673 260.843 207.79 251.141 211.991 242.973C213.025 240.973 214.458 238.889 216.658 238.423C217.259 238.289 217.925 238.306 218.459 238.623C219.326 239.123 219.592 240.24 219.676 241.223C220.176 246.474 217.925 251.591 215.308 256.176C212.708 260.76 211.358 264.544 208.891 269.744Z" fill="#C5E9FB"/>
<path d="M218.26 292.098C214.976 283.53 214.892 273.762 218.06 265.144C218.843 263.027 220.01 260.793 222.127 260.043C222.71 259.843 223.377 259.776 223.944 260.01C224.861 260.41 225.261 261.46 225.477 262.444C226.611 267.594 225.011 272.945 222.977 277.829C220.943 282.714 220.077 286.631 218.26 292.098Z" fill="#C5E9FB"/>
<path d="M230.227 312.535C226.943 303.967 226.86 294.199 230.027 285.581C230.811 283.463 231.978 281.23 234.095 280.48C234.678 280.28 235.345 280.213 235.912 280.446C236.828 280.846 237.229 281.897 237.445 282.88C238.579 288.031 236.978 293.382 234.945 298.266C232.911 303.15 232.044 307.067 230.227 312.535Z" fill="#C5E9FB"/>
<path d="M249.464 337.389C245.297 329.205 244.23 319.503 246.48 310.602C247.03 308.418 247.964 306.068 249.997 305.117C250.564 304.851 251.214 304.717 251.798 304.901C252.748 305.201 253.265 306.218 253.581 307.168C255.248 312.185 254.215 317.669 252.681 322.72C251.181 327.771 250.714 331.755 249.464 337.389Z" fill="#C5E9FB"/>
<path d="M265.2 354.042C260.966 346.641 259.266 337.273 260.533 328.188C260.85 325.954 261.467 323.504 263.167 322.27C263.634 321.92 264.184 321.687 264.717 321.787C265.567 321.937 266.084 322.854 266.434 323.737C268.268 328.405 267.784 333.956 266.867 339.157C265.917 344.341 265.834 348.325 265.2 354.042Z" fill="#C5E9FB"/>
<path d="M212.008 277.696C202.59 277.113 193.222 272.996 186.17 266.328C184.437 264.694 182.736 262.627 182.82 260.31C182.837 259.677 183.02 259.027 183.47 258.593C184.187 257.91 185.354 257.976 186.37 258.193C191.721 259.327 196.255 263.127 200.156 267.128C204.023 271.129 207.457 273.646 212.008 277.696Z" fill="#C5E9FB"/>
<path d="M219.792 294.766C210.507 296.45 200.439 294.683 191.988 289.899C189.921 288.732 187.77 287.132 187.287 284.865C187.154 284.248 187.17 283.564 187.504 283.048C188.037 282.214 189.187 281.997 190.221 281.964C195.688 281.797 200.989 284.398 205.74 287.365C210.491 290.299 214.408 291.916 219.792 294.766Z" fill="#C5E9FB"/>
<path d="M232.528 315.519C223.777 319.019 213.541 319.319 204.307 316.319C202.04 315.585 199.606 314.452 198.706 312.318C198.456 311.735 198.339 311.068 198.556 310.485C198.906 309.551 199.989 309.118 201.006 308.884C206.324 307.617 212.041 309.118 217.292 311.068C222.526 313.002 226.677 313.802 232.528 315.519Z" fill="#C5E9FB"/>
<path d="M251.298 340.407C241.98 341.891 231.945 339.89 223.61 334.923C221.56 333.706 219.443 332.056 219.026 329.789C218.909 329.155 218.943 328.488 219.293 327.972C219.843 327.138 220.993 326.955 222.026 326.955C227.494 326.905 232.745 329.639 237.412 332.689C242.08 335.74 245.964 337.44 251.298 340.407Z" fill="#C5E9FB"/>
<path d="M267.517 355.926C259.866 361.444 250.014 364.177 240.313 363.494C237.946 363.327 235.312 362.81 233.912 360.96C233.528 360.46 233.261 359.843 233.328 359.227C233.445 358.243 234.395 357.56 235.312 357.076C240.179 354.576 246.08 354.642 251.631 355.276C257.199 355.893 261.433 355.676 267.517 355.926Z" fill="#C5E9FB"/>
<path d="M83.6704 328.655C149.248 325.671 215.476 356.61 255.266 408.818" stroke="#C5E9FB" stroke-width="1.0564" stroke-miterlimit="10"/>
<path d="M97.5056 328.521C89.1375 324.737 79.4025 324.087 70.6177 326.738C68.4674 327.388 66.1503 328.421 65.3002 330.505C65.0668 331.072 64.9501 331.738 65.1668 332.305C65.5169 333.239 66.5504 333.705 67.5006 333.972C72.5847 335.406 78.019 334.122 83.0031 332.372C87.9706 330.672 91.938 330.021 97.5056 328.521Z" fill="#C5E9FB"/>
<path d="M116.109 330.173C106.924 330.006 97.7392 333.29 90.7214 339.207C89.0044 340.658 87.2875 342.525 87.3208 344.775C87.3375 345.392 87.4875 346.042 87.9209 346.492C88.6043 347.209 89.7379 347.225 90.738 347.109C95.9722 346.409 100.456 343.075 104.34 339.507C108.208 335.907 111.591 333.756 116.109 330.173Z" fill="#C5E9FB"/>
<path d="M139.997 334.29C130.912 333.006 121.377 335.14 113.692 340.157C111.809 341.391 109.892 343.041 109.642 345.275C109.575 345.891 109.658 346.542 110.025 347.042C110.625 347.842 111.742 347.992 112.742 347.992C118.026 347.942 122.877 345.175 127.161 342.107C131.445 339.007 135.062 337.273 139.997 334.29Z" fill="#C5E9FB"/>
<path d="M162.6 341.341C153.515 340.057 143.98 342.191 136.296 347.208C134.412 348.442 132.495 350.092 132.245 352.326C132.178 352.943 132.262 353.593 132.628 354.093C133.212 354.893 134.345 355.043 135.346 355.043C140.63 354.993 145.481 352.226 149.765 349.159C154.065 346.075 157.683 344.341 162.6 341.341Z" fill="#C5E9FB"/>
<path d="M191.138 354.526C182.236 352.309 172.534 353.443 164.366 357.627C162.366 358.66 160.282 360.094 159.816 362.294C159.682 362.894 159.699 363.561 160.016 364.095C160.516 364.945 161.633 365.228 162.616 365.312C167.867 365.812 172.984 363.561 177.569 360.944C182.153 358.344 185.92 356.993 191.138 354.526Z" fill="#C5E9FB"/>
<path d="M210.891 366.094C202.723 363.627 193.221 364.094 184.653 367.361C182.553 368.161 180.303 369.328 179.469 371.262C179.236 371.795 179.136 372.379 179.352 372.879C179.686 373.662 180.703 373.979 181.636 374.112C186.604 374.846 191.904 373.145 196.755 371.062C201.606 368.995 205.473 368.011 210.891 366.094Z" fill="#C5E9FB"/>
<path d="M124.543 331.422C121.86 322.37 115.742 314.169 107.657 308.801C105.674 307.485 103.273 306.284 101.04 306.884C100.423 307.051 99.8393 307.368 99.5059 307.901C98.9892 308.751 99.3226 309.868 99.7726 310.818C102.09 315.786 106.807 319.337 111.575 322.237C116.375 325.121 119.576 327.888 124.543 331.422Z" fill="#C5E9FB"/>
<path d="M142.947 335.189C142.497 325.771 138.529 316.336 131.962 309.185C130.345 307.435 128.311 305.684 125.994 305.734C125.36 305.751 124.71 305.918 124.277 306.351C123.577 307.068 123.627 308.235 123.844 309.235C124.91 314.603 128.644 319.187 132.578 323.137C136.496 327.121 138.963 330.572 142.947 335.189Z" fill="#C5E9FB"/>
<path d="M166.017 342.925C167.467 333.606 165.45 323.571 160.449 315.253C159.216 313.22 157.565 311.103 155.298 310.686C154.665 310.569 153.998 310.603 153.481 310.953C152.648 311.503 152.481 312.67 152.465 313.703C152.431 319.171 155.182 324.405 158.249 329.072C161.333 333.74 163.033 337.607 166.017 342.925Z" fill="#C5E9FB"/>
<path d="M194.488 355.626C193.838 346.208 189.638 336.89 182.92 329.872C181.269 328.155 179.186 326.455 176.885 326.555C176.252 326.588 175.602 326.772 175.168 327.222C174.485 327.939 174.568 329.105 174.785 330.122C175.969 335.473 179.803 339.957 183.837 343.825C187.871 347.692 190.404 351.092 194.488 355.626Z" fill="#C5E9FB"/>
<path d="M213.241 367.945C216.892 359.244 217.359 349.025 214.508 339.74C213.808 337.457 212.725 335.023 210.608 334.073C210.024 333.806 209.357 333.689 208.791 333.889C207.857 334.223 207.407 335.306 207.157 336.306C205.807 341.607 207.207 347.358 209.074 352.626C210.908 357.893 211.641 362.061 213.241 367.945Z" fill="#C5E9FB"/>
<path d="M290.938 356.393C281.436 347.508 268.017 342.974 255.082 344.291C246.314 345.174 236.762 349.858 234.829 358.46C233.912 362.561 234.228 367.978 230.361 369.595C226.577 371.162 222.91 367.261 219.009 365.961C212.525 363.794 205.14 371.195 207.324 377.68C208.324 380.63 210.808 383.197 210.608 386.298C210.324 390.515 205.107 392.716 200.923 392.065C196.739 391.415 193.055 388.965 188.954 387.931C184.854 386.881 179.536 387.931 178.102 391.915C176.819 395.483 179.036 400.284 176.235 402.834C175.035 403.934 173.302 404.151 171.685 404.318C136.162 407.685 97.0556 414.052 101.023 420.37C102.106 422.087 104.89 421.554 106.924 421.52C182.52 420.337 251.181 419.203 326.76 421.52" fill="#C5E9FB"/>
<path d="M299.739 212.519C294.455 227.555 278.736 244.391 260.816 244.391C240.462 244.391 235.478 227.888 229.544 222.671C214.942 209.835 205.807 206.835 187.22 203.668C175.135 201.601 162.199 184.631 165.333 167.795C171.051 137.073 226.443 122.437 240.462 99.967C251.898 81.664 251.281 70.7122 271.284 57.5767" stroke="#A6DAF6" stroke-width="1.0564" stroke-miterlimit="10" stroke-dasharray="2.64 2.64"/>
<path d="M542.729 237.656L565.133 325.538L560.882 326.621L533.144 240.107" fill="#8FCFF2"/>
<path d="M521.992 239.656C510.557 242.574 498.372 233.705 494.838 219.87C491.304 206.051 497.755 192.415 509.19 189.498C520.626 186.581 532.811 195.449 536.345 209.285C539.879 223.12 533.428 236.739 521.992 239.656ZM511.157 197.199C503.956 199.033 500.089 208.335 502.522 217.919C504.956 227.504 512.824 233.805 520.025 231.972C527.227 230.138 531.094 220.837 528.66 211.252C526.226 201.667 518.359 195.366 511.157 197.199Z" fill="#A0DDF9"/>
<path d="M533.777 215.236C534.144 216.686 540.595 241.957 540.595 241.957C540.945 243.307 540.128 244.674 538.778 245.007C537.428 245.357 536.061 244.54 535.727 243.19L534.961 240.173C534.961 240.173 531.377 232.538 521.492 235.689C521.492 235.689 533.294 234.222 533.694 234.239C534.077 234.289 533.394 213.785 533.777 215.236Z" fill="#C3E9FB"/>
<path d="M539.745 248.858C536.278 249.742 532.744 247.641 531.86 244.174C531.86 244.174 531.46 242.074 530.627 240.907C529.343 239.09 526.726 238.406 521.942 239.623L520.725 232.872C523.242 232.072 525.042 230.855 527.076 231.005C528.16 230.872 529.06 230.772 529.81 230.672C529.81 228.605 529.76 225.871 529.727 223.787C529.693 221.57 532.577 219.07 532.577 217.47C532.56 214.603 529.627 211.719 533.177 211.235L536.678 210.769L544.396 240.974C545.313 244.441 543.212 247.975 539.745 248.858Z" fill="#A0DDF9"/>
<path d="M546.029 236.856L546.096 327.554H550.497L555.914 236.856" fill="#8FCFF2"/>
<path d="M545.18 207.801C545.163 193.532 554.765 181.914 566.583 181.914C578.385 181.897 588.003 193.516 588.02 207.785C588.037 222.054 578.435 233.672 566.617 233.672C554.798 233.672 545.196 222.07 545.18 207.801ZM553.114 207.801C553.114 217.703 559.182 225.738 566.617 225.738C574.051 225.738 580.102 217.686 580.085 207.785C580.085 197.883 574.018 189.848 566.583 189.848C559.149 189.848 553.098 197.9 553.114 207.801Z" fill="#A0DDF9"/>
<path d="M549.147 212.919C549.147 214.419 549.164 240.49 549.164 240.49C549.164 241.873 550.297 243.007 551.681 243.007C553.064 243.007 554.198 241.873 554.198 240.49V237.373C554.198 237.373 555.765 229.088 566.133 229.688C566.133 229.688 554.331 231.188 553.948 231.305C553.564 231.455 549.147 211.418 549.147 212.919Z" fill="#C3E9FB"/>
<path d="M551.681 246.975C555.248 246.975 558.165 244.057 558.149 240.49C558.149 240.49 558.015 238.356 558.532 237.023C559.315 234.939 561.682 233.639 566.617 233.622L566.116 226.771C563.483 226.621 561.432 225.888 559.499 226.521C558.415 226.655 557.515 226.788 556.765 226.888C556.265 224.888 555.615 222.22 555.131 220.187C554.615 218.02 551.197 216.32 550.814 214.769C550.114 211.985 552.247 208.468 548.68 208.885L545.18 209.302V240.49C545.213 244.074 548.113 246.975 551.681 246.975Z" fill="#A0DDF9"/>
<path d="M429.878 108.868C430.028 108.168 430.195 107.451 430.395 106.734" stroke="#A6DAF6" stroke-width="1.0564" stroke-miterlimit="10"/>
<path d="M431.828 102.517C438.229 86.5144 455.999 70.5617 482.77 76.7294C502.29 81.2302 507.474 99.5999 517.959 111.419C525.727 120.17 536.762 127.354 540.379 139.74C548.731 168.278 537.362 199.166 517.059 208.885C505.807 214.269 477.919 211.885 463.5 206.901" stroke="#A6DAF6" stroke-width="1.0564" stroke-miterlimit="10" stroke-dasharray="2.67 2.67"/>
<path d="M461.384 206.117C460.667 205.834 460 205.534 459.383 205.234" stroke="#A6DAF6" stroke-width="1.0564" stroke-miterlimit="10"/>
<path d="M584.203 311.502L572.801 309.435L590.438 211.802C590.621 210.735 591.638 210.035 592.705 210.235L600.273 211.602C601.339 211.786 602.039 212.802 601.839 213.869L584.203 311.502Z" fill="#8FCFF2"/>
<path d="M600.222 222.837L588.82 220.77L590.437 211.802C590.621 210.735 591.637 210.035 592.704 210.235L600.272 211.602C601.339 211.786 602.039 212.802 601.839 213.869L600.222 222.837Z" fill="#F37C90"/>
<g opacity="0.5">
<path d="M588.804 220.776L588.188 224.188L599.589 226.247L600.205 222.835L588.804 220.776Z" fill="#5B9FD1"/>
</g>
<path d="M632.796 233.285L614.187 225.95L574.497 326.64L593.106 333.976L632.796 233.285Z" fill="#C5E9FB"/>
<path d="M625.41 234.157L631.545 236.574" stroke="#CEECF8" stroke-width="1.0564" stroke-miterlimit="10"/>
<path d="M623.343 239.391L629.477 241.808" stroke="#CEECF8" stroke-width="1.0564" stroke-miterlimit="10"/>
<path d="M621.276 244.625L627.41 247.042" stroke="#CEECF8" stroke-width="1.0564" stroke-miterlimit="10"/>
<path d="M616.226 248.66L625.36 252.26" stroke="#CEECF8" stroke-width="1.0564" stroke-miterlimit="10"/>
<path d="M617.158 255.077L623.293 257.494" stroke="#CEECF8" stroke-width="1.0564" stroke-miterlimit="10"/>
<path d="M615.092 260.311L621.226 262.728" stroke="#CEECF8" stroke-width="1.0564" stroke-miterlimit="10"/>
<path d="M613.042 265.545L619.176 267.962" stroke="#CEECF8" stroke-width="1.0564" stroke-miterlimit="10"/>
<path d="M607.974 269.596L617.109 273.197" stroke="#CEECF8" stroke-width="1.0564" stroke-miterlimit="10"/>
<path d="M608.907 275.997L615.042 278.414" stroke="#CEECF8" stroke-width="1.0564" stroke-miterlimit="10"/>
<path d="M606.857 281.231L612.991 283.649" stroke="#CEECF8" stroke-width="1.0564" stroke-miterlimit="10"/>
<path d="M604.79 286.465L610.924 288.882" stroke="#CEECF8" stroke-width="1.0564" stroke-miterlimit="10"/>
<path d="M599.722 290.516L608.857 294.117" stroke="#CEECF8" stroke-width="1.0564" stroke-miterlimit="10"/>
<path d="M600.673 296.917L606.807 299.334" stroke="#CEECF8" stroke-width="1.0564" stroke-miterlimit="10"/>
<path d="M598.605 302.151L604.74 304.568" stroke="#CEECF8" stroke-width="1.0564" stroke-miterlimit="10"/>
<path d="M596.539 307.386L602.673 309.803" stroke="#CEECF8" stroke-width="1.0564" stroke-miterlimit="10"/>
<path d="M591.471 311.436L600.606 315.037" stroke="#CEECF8" stroke-width="1.0564" stroke-miterlimit="10"/>
<path d="M592.421 317.854L598.556 320.271" stroke="#CEECF8" stroke-width="1.0564" stroke-miterlimit="10"/>
<path d="M590.354 323.071L596.488 325.488" stroke="#CEECF8" stroke-width="1.0564" stroke-miterlimit="10"/>
<path d="M588.287 328.306L594.421 330.723" stroke="#CEECF8" stroke-width="1.0564" stroke-miterlimit="10"/>
<path d="M606.741 425.937H513.925L498.339 285.531C498.139 283.747 499.54 282.18 501.34 282.18H619.343C621.143 282.18 622.543 283.747 622.343 285.531L606.741 425.937Z" fill="#A0DDF9"/>
<path d="M490.354 432.056C546.264 432.823 602.156 433.573 658.065 434.339C659.949 434.373 665.85 432.539 655.665 425.971C647.03 420.404 619.759 425.405 619.759 425.405C619.759 425.405 626.11 422.854 626.077 419.57C626.044 416.286 623.56 413.403 620.576 412.036C617.592 410.669 614.175 410.569 610.908 410.769C604.24 411.152 597.622 412.636 591.421 415.136C594.055 413.519 594.855 409.552 593.055 407.035C591.254 404.518 587.254 404.001 584.87 405.951C589.054 400.284 595.538 375.13 575.635 364.044C550.681 350.159 531.728 361.577 527.694 369.945C525.643 361.744 516.225 355.526 510.024 353.993C495.889 350.475 486.67 351.526 473.468 357.693C468.801 359.877 462.55 367.328 459.432 371.446C454.565 377.897 453.815 386.465 453.548 394.533C453.348 400.584 453.315 406.652 453.465 412.703" fill="#CEECF8"/>
<path d="M523.027 440.991C523.027 443.891 466.717 446.242 397.272 446.242C327.827 446.242 271.518 443.891 271.518 440.991C271.518 438.09 327.827 435.74 397.272 435.74C466.717 435.74 523.027 438.09 523.027 440.991Z" fill="#E9E8EE"/>
<path d="M399.656 74.9463C392.688 74.9463 387.037 80.5972 387.037 87.5651V103.734H412.275C412.275 103.734 412.275 90.8823 412.275 87.5651C412.275 80.5972 406.624 74.9463 399.656 74.9463ZM399.656 94.7996C395.739 94.7996 392.571 91.6324 392.571 87.7151C392.571 83.7978 395.739 80.6306 399.656 80.6306C403.573 80.6306 406.74 83.7978 406.74 87.7151C406.74 91.6324 403.573 94.7996 399.656 94.7996Z" fill="#E8515C"/>
<g opacity="0.45">
<path d="M406.741 87.7322C406.741 83.8149 403.574 80.6477 399.656 80.6477C399.29 80.6477 398.94 80.6977 398.59 80.7477C399.656 80.331 399.706 80.0643 401.457 80.0643C405.374 80.0643 408.541 83.2315 408.541 87.1488C408.541 90.6994 406.724 92.6164 404.007 93.3165C405.524 92.0163 406.741 89.8826 406.741 87.7322ZM390.888 102.118V85.9486C390.888 81.5645 392.789 77.6972 396.189 75.4302C390.905 76.9304 387.021 81.7979 387.021 87.5655V103.735H412.258C412.258 103.735 412.258 103.101 412.258 102.118H390.888Z" fill="#B13E45"/>
</g>
<path d="M499.973 440.924H294.555C285.587 440.924 278.319 433.656 278.319 424.688V120.821C278.319 111.852 285.587 104.584 294.555 104.584H499.956C508.924 104.584 516.192 111.852 516.192 120.821V424.688C516.209 433.656 508.941 440.924 499.973 440.924Z" fill="#4189C9"/>
<path d="M502.407 117.77H292.105V427.738H502.407V117.77Z" fill="#C5E9FB"/>
<path d="M494.322 127.255H300.19V418.287H494.322V127.255Z" fill="white"/>
<path d="M473.785 122.804H320.76V112.986C320.76 106.518 325.994 101.284 332.462 101.284H462.083C468.551 101.284 473.785 106.518 473.785 112.986V122.804Z" fill="#E8515C"/>
<path opacity="0.45" d="M326.66 119.638V110.486C326.66 106.985 328.127 103.818 330.461 101.568C324.91 102.785 320.743 107.719 320.743 113.637V122.788H473.768V119.621H326.66V119.638Z" fill="#B13E45"/>
<path opacity="0.25" d="M339.063 192.215C352.845 192.215 364.017 181.043 364.017 167.261C364.017 153.479 352.845 142.307 339.063 142.307C325.281 142.307 314.109 153.479 314.109 167.261C314.109 181.043 325.281 192.215 339.063 192.215Z" fill="#0E65AF"/>
<path d="M367.299 173.902C370.95 158.315 361.275 142.719 345.688 139.067C330.101 135.416 314.505 145.091 310.853 160.678C307.201 176.265 316.877 191.861 332.464 195.513C348.051 199.165 363.647 189.489 367.299 173.902Z" stroke="#F37C90" stroke-width="1.0564" stroke-miterlimit="10"/>
<path d="M343.98 167.628C346.431 166.028 348.064 163.261 348.064 160.11C348.064 155.143 344.047 151.125 339.08 151.125C334.112 151.125 330.095 155.143 330.095 160.11C330.095 163.261 331.728 166.028 334.179 167.628C328.595 168.962 324.427 173.946 324.427 179.947V187.415C328.545 190.415 333.612 192.216 339.096 192.216C344.581 192.216 349.648 190.415 353.765 187.415V179.947C353.732 173.963 349.565 168.962 343.98 167.628Z" fill="white"/>
<path d="M379.57 144.258L380.77 146.709L383.47 147.109L381.52 149.009L381.987 151.71L379.57 150.443L377.136 151.71L377.603 149.009L375.652 147.109L378.353 146.709L379.57 144.258Z" fill="#0E65AF"/>
<path d="M391.372 144.258L392.572 146.709L395.289 147.109L393.322 149.009L393.789 151.71L391.372 150.443L388.955 151.71L389.405 149.009L387.455 147.109L390.155 146.709L391.372 144.258Z" fill="#0E65AF"/>
<path d="M403.174 144.258L404.391 146.709L407.091 147.109L405.141 149.009L405.591 151.71L403.174 150.443L400.757 151.71L401.224 149.009L399.257 147.109L401.974 146.709L403.174 144.258Z" fill="#0E65AF"/>
<path d="M414.976 144.258L416.193 146.709L418.893 147.109L416.943 149.009L417.41 151.71L414.976 150.443L412.559 151.71L413.025 149.009L411.075 147.109L413.776 146.709L414.976 144.258Z" fill="#0E65AF"/>
<path d="M426.794 144.258L427.994 146.709L430.695 147.109L428.745 149.009L429.211 151.71L426.794 150.443L424.377 151.71L424.827 149.009L422.877 147.109L425.577 146.709L426.794 144.258Z" fill="#0E65AF"/>
<g opacity="0.15">
<path d="M376.953 158.193H402.073" stroke="#0E65AF" stroke-width="2.1128" stroke-miterlimit="10" stroke-linecap="round" stroke-linejoin="round"/>
<path d="M458.45 168.245H477.536" stroke="#0E65AF" stroke-width="2.1128" stroke-miterlimit="10" stroke-linecap="round" stroke-linejoin="round"/>
<path d="M376.953 168.245H450.165" stroke="#0E65AF" stroke-width="2.1128" stroke-miterlimit="10" stroke-linecap="round" stroke-linejoin="round"/>
<path d="M376.953 178.297H477.536" stroke="#0E65AF" stroke-width="2.1128" stroke-miterlimit="10" stroke-linecap="round" stroke-linejoin="round"/>
<path d="M445.564 188.348H477.536" stroke="#0E65AF" stroke-width="2.1128" stroke-miterlimit="10" stroke-linecap="round" stroke-linejoin="round"/>
<path d="M376.953 188.348H437.613" stroke="#0E65AF" stroke-width="2.1128" stroke-miterlimit="10" stroke-linecap="round" stroke-linejoin="round"/>
<path d="M410.308 158.193H477.535" stroke="#0E65AF" stroke-width="2.1128" stroke-miterlimit="10" stroke-linecap="round" stroke-linejoin="round"/>
</g>
<path opacity="0.25" d="M348.694 260.771C361.406 255.449 367.397 240.828 362.074 228.116C356.752 215.404 342.131 209.413 329.419 214.736C316.707 220.058 310.716 234.678 316.039 247.391C321.361 260.103 335.981 266.094 348.694 260.771Z" fill="#0E65AF"/>
<path d="M343.981 238.139C346.431 236.539 348.065 233.772 348.065 230.622C348.065 225.654 344.048 221.637 339.08 221.637C334.113 221.637 330.095 225.654 330.095 230.622C330.095 233.772 331.729 236.539 334.179 238.139C328.595 239.473 324.428 244.457 324.428 250.458V257.926C328.545 260.927 333.613 262.727 339.097 262.727C344.581 262.727 349.649 260.927 353.766 257.926V250.458C353.733 244.457 349.565 239.456 343.981 238.139Z" fill="white"/>
<path d="M379.57 214.77L380.77 217.22L383.47 217.603L381.52 219.52L381.987 222.204L379.57 220.937L377.136 222.204L377.603 219.52L375.652 217.603L378.353 217.22L379.57 214.77Z" fill="#0E65AF"/>
<path d="M391.372 214.77L392.572 217.22L395.289 217.603L393.322 219.52L393.789 222.204L391.372 220.937L388.955 222.204L389.405 219.52L387.455 217.603L390.155 217.22L391.372 214.77Z" fill="#0E65AF"/>
<path d="M403.174 214.77L404.391 217.22L407.091 217.603L405.141 219.52L405.591 222.204L403.174 220.937L400.757 222.204L401.224 219.52L399.257 217.603L401.974 217.22L403.174 214.77Z" fill="#0E65AF"/>
<path opacity="0.25" d="M414.976 214.77L416.193 217.22L418.893 217.603L416.943 219.52L417.41 222.204L414.976 220.937L412.559 222.204L413.025 219.52L411.075 217.603L413.776 217.22L414.976 214.77Z" fill="#0E65AF"/>
<path opacity="0.25" d="M426.794 214.77L427.994 217.22L430.695 217.603L428.745 219.52L429.211 222.204L426.794 220.937L424.377 222.204L424.827 219.52L422.877 217.603L425.577 217.22L426.794 214.77Z" fill="#0E65AF"/>
<g opacity="0.15">
<path d="M376.953 228.688H421.627" stroke="#0E65AF" stroke-width="2.1128" stroke-miterlimit="10" stroke-linecap="round" stroke-linejoin="round"/>
<path d="M403.407 238.74H477.536" stroke="#0E65AF" stroke-width="2.1128" stroke-miterlimit="10" stroke-linecap="round" stroke-linejoin="round"/>
<path d="M376.953 238.74H395.122" stroke="#0E65AF" stroke-width="2.1128" stroke-miterlimit="10" stroke-linecap="round" stroke-linejoin="round"/>
<path d="M376.953 248.792H477.536" stroke="#0E65AF" stroke-width="2.1128" stroke-miterlimit="10" stroke-linecap="round" stroke-linejoin="round"/>
<path d="M456.949 258.843H477.536" stroke="#0E65AF" stroke-width="2.1128" stroke-miterlimit="10" stroke-linecap="round" stroke-linejoin="round"/>
<path d="M376.953 258.843H448.981" stroke="#0E65AF" stroke-width="2.1128" stroke-miterlimit="10" stroke-linecap="round" stroke-linejoin="round"/>
<path d="M429.878 228.688H477.536" stroke="#0E65AF" stroke-width="2.1128" stroke-miterlimit="10" stroke-linecap="round" stroke-linejoin="round"/>
</g>
<path opacity="0.25" d="M362.125 317.756C367.375 305.013 361.3 290.428 348.558 285.178C335.815 279.929 321.23 286.003 315.98 298.746C310.731 311.488 316.805 326.074 329.548 331.323C342.29 336.573 356.876 330.498 362.125 317.756Z" fill="#0E65AF"/>
<path d="M343.98 308.636C346.431 307.035 348.064 304.268 348.064 301.118C348.064 296.15 344.047 292.133 339.08 292.133C334.112 292.133 330.095 296.15 330.095 301.118C330.095 304.268 331.728 307.035 334.179 308.636C328.595 309.969 324.427 314.953 324.427 320.954V328.422C328.545 331.423 333.612 333.223 339.096 333.223C344.581 333.223 349.648 331.423 353.765 328.422V320.954C353.732 314.953 349.565 309.969 343.98 308.636Z" fill="white"/>
<path d="M379.57 285.265L380.77 287.715L383.47 288.115L381.52 290.015L381.987 292.716L379.57 291.449L377.136 292.716L377.603 290.015L375.652 288.115L378.353 287.715L379.57 285.265Z" fill="#0E65AF"/>
<path d="M391.372 285.265L392.572 287.715L395.289 288.115L393.322 290.015L393.789 292.716L391.372 291.449L388.955 292.716L389.405 290.015L387.455 288.115L390.155 287.715L391.372 285.265Z" fill="#0E65AF"/>
<path d="M403.174 285.265L404.391 287.715L407.091 288.115L405.141 290.015L405.591 292.716L403.174 291.449L400.757 292.716L401.224 290.015L399.257 288.115L401.974 287.715L403.174 285.265Z" fill="#0E65AF"/>
<path d="M414.976 285.265L416.193 287.715L418.893 288.115L416.943 290.015L417.41 292.716L414.976 291.449L412.559 292.716L413.025 290.015L411.075 288.115L413.776 287.715L414.976 285.265Z" fill="#0E65AF"/>
<path opacity="0.25" d="M426.794 285.265L427.994 287.715L430.695 288.115L428.745 290.015L429.211 292.716L426.794 291.449L424.377 292.716L424.827 290.015L422.877 288.115L425.577 287.715L426.794 285.265Z" fill="#0E65AF"/>
<g opacity="0.15">
<path d="M376.953 299.184H402.073" stroke="#0E65AF" stroke-width="2.1128" stroke-miterlimit="10" stroke-linecap="round" stroke-linejoin="round"/>
<path d="M423.027 309.252H477.536" stroke="#0E65AF" stroke-width="2.1128" stroke-miterlimit="10" stroke-linecap="round" stroke-linejoin="round"/>
<path d="M376.953 309.252H414.759" stroke="#0E65AF" stroke-width="2.1128" stroke-miterlimit="10" stroke-linecap="round" stroke-linejoin="round"/>
<path d="M376.953 319.304H477.536" stroke="#0E65AF" stroke-width="2.1128" stroke-miterlimit="10" stroke-linecap="round" stroke-linejoin="round"/>
<path d="M399.839 329.355H477.536" stroke="#0E65AF" stroke-width="2.1128" stroke-miterlimit="10" stroke-linecap="round" stroke-linejoin="round"/>
<path d="M376.953 329.355H391.872" stroke="#0E65AF" stroke-width="2.1128" stroke-miterlimit="10" stroke-linecap="round" stroke-linejoin="round"/>
<path d="M410.308 299.184H477.535" stroke="#0E65AF" stroke-width="2.1128" stroke-miterlimit="10" stroke-linecap="round" stroke-linejoin="round"/>
</g>
<path opacity="0.25" d="M339.063 403.718C352.845 403.718 364.017 392.546 364.017 378.764C364.017 364.982 352.845 353.81 339.063 353.81C325.281 353.81 314.109 364.982 314.109 378.764C314.109 392.546 325.281 403.718 339.063 403.718Z" fill="#0E65AF"/>
<path d="M343.98 379.147C346.431 377.547 348.064 374.779 348.064 371.629C348.064 366.661 344.047 362.644 339.08 362.644C334.112 362.644 330.095 366.661 330.095 371.629C330.095 374.779 331.728 377.547 334.179 379.147C328.595 380.48 324.427 385.464 324.427 391.465V398.933C328.545 401.934 333.612 403.734 339.096 403.734C344.581 403.734 349.648 401.934 353.765 398.933V391.465C353.732 385.464 349.565 380.464 343.98 379.147Z" fill="white"/>
<path d="M379.57 355.776L380.77 358.226L383.47 358.61L381.52 360.527L381.987 363.21L379.57 361.944L377.136 363.21L377.603 360.527L375.652 358.61L378.353 358.226L379.57 355.776Z" fill="#0E65AF"/>
<path d="M391.372 355.776L392.572 358.226L395.289 358.61L393.322 360.527L393.789 363.21L391.372 361.944L388.955 363.21L389.405 360.527L387.455 358.61L390.155 358.226L391.372 355.776Z" fill="#0E65AF"/>
<path d="M403.174 355.776L404.391 358.226L407.091 358.61L405.141 360.527L405.591 363.21L403.174 361.944L400.757 363.21L401.224 360.527L399.257 358.61L401.974 358.226L403.174 355.776Z" fill="#0E65AF"/>
<path d="M414.976 355.776L416.193 358.226L418.893 358.61L416.943 360.527L417.41 363.21L414.976 361.944L412.559 363.21L413.025 360.527L411.075 358.61L413.776 358.226L414.976 355.776Z" fill="#0E65AF"/>
<path d="M426.794 355.776L427.994 358.226L430.695 358.61L428.745 360.527L429.211 363.21L426.794 361.944L424.377 363.21L424.827 360.527L422.877 358.61L425.577 358.226L426.794 355.776Z" fill="#0E65AF"/>
<g opacity="0.15">
<path d="M477.536 399.85H452.415" stroke="#0E65AF" stroke-width="2.1128" stroke-miterlimit="10" stroke-linecap="round" stroke-linejoin="round"/>
<path d="M396.056 389.799H376.953" stroke="#0E65AF" stroke-width="2.1128" stroke-miterlimit="10" stroke-linecap="round" stroke-linejoin="round"/>
<path d="M477.535 389.799H404.323" stroke="#0E65AF" stroke-width="2.1128" stroke-miterlimit="10" stroke-linecap="round" stroke-linejoin="round"/>
<path d="M477.536 379.747H376.953" stroke="#0E65AF" stroke-width="2.1128" stroke-miterlimit="10" stroke-linecap="round" stroke-linejoin="round"/>
<path d="M408.925 369.695H376.953" stroke="#0E65AF" stroke-width="2.1128" stroke-miterlimit="10" stroke-linecap="round" stroke-linejoin="round"/>
<path d="M477.536 369.695H416.876" stroke="#0E65AF" stroke-width="2.1128" stroke-miterlimit="10" stroke-linecap="round" stroke-linejoin="round"/>
<path d="M444.18 399.85H376.953" stroke="#0E65AF" stroke-width="2.1128" stroke-miterlimit="10" stroke-linecap="round" stroke-linejoin="round"/>
</g>
<path opacity="0.45" d="M415.858 302.734C422.643 307.485 430.561 309.952 438.662 309.952C441.013 309.952 443.38 309.752 445.73 309.336C451.481 308.319 456.815 306.068 461.483 302.834L476.369 320.821C476.335 321.421 476.402 322.038 476.535 322.621C476.935 324.305 478.002 325.988 479.669 326.488C480.103 326.622 480.619 326.688 480.853 327.072C480.986 327.289 481.003 327.555 481.053 327.822C481.286 329.089 482.603 330.056 483.886 329.889L494.938 343.241C494.955 343.941 495.205 344.591 495.788 344.991C496.105 345.208 496.539 345.392 496.572 345.775C496.589 345.975 496.489 346.158 496.439 346.342C496.255 346.925 496.472 347.592 496.939 347.975C497.405 348.359 498.122 348.409 498.639 348.109C498.656 349.359 499.739 350.492 500.989 350.542L512.375 364.295C513.258 365.361 514.525 365.912 515.792 365.912C515.942 365.912 516.075 365.895 516.225 365.878V355.01L508.107 345.208C508.19 345.091 508.274 344.991 508.357 344.875C508.774 344.375 509.274 343.958 509.791 343.591L510.007 344.091C510.007 344.091 512.475 343.208 516.209 341.891V333.706C511.558 336.573 507.79 338.907 507.79 338.907L507.84 339.04C507.74 339.074 507.624 339.107 507.524 339.14C506.94 339.307 505.09 339.207 503.106 339.224L492.021 325.772C494.071 325.205 496.805 324.405 499.706 323.471C499.772 323.455 499.822 323.438 499.889 323.405C500.256 323.288 500.623 323.171 501.006 323.038C501.139 322.988 501.273 322.954 501.423 322.904C501.723 322.804 502.039 322.704 502.34 322.588C502.49 322.538 502.656 322.488 502.806 322.421C503.09 322.321 503.373 322.221 503.656 322.121C503.823 322.054 503.99 322.004 504.157 321.938C504.423 321.838 504.707 321.738 504.973 321.638C505.14 321.571 505.307 321.521 505.473 321.454C505.757 321.354 506.023 321.238 506.307 321.137C506.457 321.071 506.624 321.021 506.774 320.954C507.057 320.837 507.357 320.721 507.64 320.604C507.774 320.554 507.924 320.487 508.057 320.437C508.441 320.287 508.807 320.137 509.157 319.971C509.191 319.954 509.241 319.937 509.274 319.921C509.674 319.754 510.074 319.571 510.458 319.404C510.558 319.354 510.658 319.304 510.758 319.254C511.024 319.12 511.308 319.004 511.558 318.87C511.691 318.804 511.808 318.737 511.941 318.67C512.158 318.554 512.391 318.454 512.591 318.337C512.725 318.27 512.858 318.187 512.991 318.12C513.191 318.02 513.375 317.904 513.558 317.804C513.691 317.737 513.808 317.654 513.941 317.587C514.108 317.487 514.275 317.37 514.442 317.27C514.558 317.203 514.675 317.12 514.775 317.053C514.942 316.937 515.092 316.837 515.242 316.72C515.342 316.653 515.425 316.587 515.525 316.52C515.675 316.403 515.808 316.287 515.958 316.153C516.025 316.103 516.092 316.037 516.159 315.987C516.175 315.97 516.208 315.937 516.225 315.92V271.929C516.008 272.146 515.775 272.329 515.558 272.563C511.091 277.364 507.94 308.135 507.824 309.286C507.74 310.136 495.038 317.487 488.704 321.104C488.721 320.254 488.371 319.354 487.82 318.737C487.154 318.004 486.254 317.537 485.32 317.187C485.203 317.137 485.053 317.103 484.92 317.103L468.201 296.917C469.384 295.617 470.518 294.266 471.551 292.799C477.669 284.048 480.003 273.43 478.136 262.911C476.269 252.393 470.418 243.241 461.666 237.124C452.915 231.006 442.296 228.672 431.778 230.539C421.259 232.406 412.108 238.257 405.99 247.008C393.355 265.128 397.772 290.099 415.858 302.734ZM413.258 252.143C418.009 245.342 425.143 240.791 433.311 239.341C435.145 239.007 436.979 238.857 438.812 238.857C445.113 238.857 451.281 240.774 456.549 244.475C463.35 249.226 467.9 256.36 469.351 264.528C470.801 272.713 468.984 280.964 464.217 287.765C459.466 294.566 452.331 299.117 444.163 300.567C435.979 302.018 427.727 300.201 420.926 295.433C406.89 285.632 403.44 266.195 413.258 252.143Z" fill="#5CB5E2"/>
<path opacity="0.35" d="M200.123 446.657C200.123 448.174 184.354 449.391 164.917 449.391C145.481 449.391 129.711 448.174 129.711 446.657C129.711 445.14 145.481 443.923 164.917 443.923C184.354 443.923 200.123 445.14 200.123 446.657Z" fill="#C1E8F9"/>
<path d="M210.775 308.685C210.775 308.685 214.676 313.202 215.392 313.469C215.826 313.635 218.81 314.202 219.793 314.369C220.16 314.436 220.527 314.502 220.86 314.669C221.193 314.836 221.477 315.102 221.743 315.386C222.477 316.152 223.127 317.003 223.777 317.836C223.944 318.053 224.127 318.286 224.244 318.536C224.394 318.836 224.477 319.186 224.544 319.52C224.961 321.437 225.327 323.37 225.627 325.304C225.644 325.404 225.661 325.521 225.611 325.604C225.511 325.821 225.161 325.771 224.977 325.604C224.794 325.437 224.644 325.204 224.41 325.137C224.41 325.304 224.41 325.471 224.41 325.637C224.077 325.821 223.66 325.671 223.327 325.487C221.927 324.721 220.743 323.57 219.926 322.203C219.76 321.937 219.61 321.637 219.393 321.42C218.793 320.82 217.859 320.837 217.043 320.62C216.309 320.437 215.526 320.22 214.842 319.903C213.575 319.32 213.425 317.803 213.309 317.519C213.242 317.353 213.109 317.236 212.975 317.119C212.142 316.369 208.858 313.885 208.858 313.885" fill="#FBBD9E"/>
<path d="M165.117 211.485C166.951 212.018 167.918 214.385 168.551 216.002C169.301 217.953 169.685 220.036 169.918 222.103C170.085 223.537 170.185 225.054 169.618 226.404C169.318 227.087 168.868 227.688 168.418 228.271C168.168 228.604 167.901 228.938 167.551 229.188C167.201 229.421 166.751 229.538 166.351 229.388C165.784 229.171 165.551 228.488 165.384 227.904C164.317 224.054 163.167 220.153 161 216.802" fill="#1F1953"/>
<path d="M167.167 223.687C167.201 222.454 168.501 221.654 169.618 222.937C170.551 223.987 170.785 225.988 170.851 227.455C170.918 229.222 169.551 229.572 168.418 229.822" fill="#F2A182"/>
<path d="M180.52 433.088C180.52 433.088 180.553 436.855 180.286 438.189C180.02 439.522 175.719 439.089 175.302 438.339C174.885 437.572 175.402 431.354 175.402 431.354" fill="#FCCCB1"/>
<path d="M174.052 439.622C173.935 441.039 173.935 443.706 173.935 443.706L178.352 444.773L178.919 444.023C178.919 444.023 180.153 445.073 181.52 445.44C182.536 445.707 184.637 445.907 185.687 445.84C189.338 445.59 191.855 444.456 191.971 443.923C192.488 441.689 187.654 441.973 186.654 441.889C183.82 441.656 181.92 439.622 181.353 438.172C180.953 437.122 181.186 436.888 180.586 437.022C180.586 437.022 180.053 437.088 179.653 437.689C179.036 438.605 177.952 439.155 176.852 438.872C176.219 438.705 175.602 438.422 175.185 437.922C175.185 437.922 174.168 438.222 174.052 439.622Z" fill="#E8515C"/>
<path d="M172.085 386.881C172.502 380.263 167.167 371.411 167.167 371.411C167.167 371.411 181.603 363.477 181.82 361.026C181.82 361.026 183.804 374.645 184.504 379.446C185.737 387.781 181.57 435.372 181.57 435.372C181.57 435.372 178.553 436.206 174.535 435.472C174.535 435.472 173.785 417.086 170.785 404.634C169.351 398.733 171.585 388.514 172.085 386.881Z" fill="#4189C9"/>
<path d="M170.918 310.602C176.336 322.687 182.22 361.693 183.62 375.162C184.22 380.88 179.47 387.564 173.919 382.397C167.301 376.229 158.016 348.008 154.682 343.024C151.365 338.04 138.93 333.472 147.414 308.185" fill="#4189C9"/>
<path d="M146.597 433.339C146.597 433.339 146.114 438.64 145.914 439.99C145.731 441.34 141.396 441.157 140.946 440.407C140.496 439.673 140.663 433.422 140.663 433.422" fill="#FCCCB1"/>
<path d="M139.73 441.541C139.63 442.958 139.88 445.275 139.88 445.275L144.847 445.608L145.147 444.791C145.147 444.791 146.697 445.725 147.964 445.808L152.165 446.091C155.232 446.291 157.016 446.025 157.133 445.491C157.616 443.258 153.932 443.108 152.965 443.041C150.215 442.858 147.331 441.374 146.781 439.94C146.381 438.89 146.597 438.657 146.031 438.807C146.031 438.807 145.514 438.89 145.131 439.49C144.547 440.424 143.514 440.991 142.447 440.724C141.83 440.574 141.23 440.29 140.813 439.807C140.813 439.807 139.83 440.124 139.73 441.541Z" fill="#E8515C"/>
<path d="M157.416 386.098C156.499 390.798 144.214 389.048 144.481 384.881C144.864 378.963 140.713 371.312 139.113 343.107C138.93 339.89 135.712 339.407 134.429 330.655C133.179 321.887 138.38 312.169 138.38 312.169L157.283 309.468C157.283 309.468 164.551 325.871 163.05 342.207C161.55 358.543 158.5 380.563 157.416 386.098Z" fill="#4189C9"/>
<path d="M144.514 383.897C144.514 383.897 140.213 392.415 139.713 398.566C138.98 407.567 139.88 437.206 139.88 437.206C139.88 437.206 144.53 438.223 147.014 437.489C147.014 437.489 157.933 384.897 158.333 379.246C158.733 373.578 144.514 383.897 144.514 383.897Z" fill="#4189C9"/>
<path d="M178.252 253.608C176.119 251.158 169.334 247.124 160.266 247.407C154.015 247.607 137.012 248.641 135.112 252.808C134.145 254.942 133.095 276.812 134.512 284.363C135.579 290.031 138.312 304.083 138.312 307.467C138.312 310.851 136.495 312.318 137.346 313.302C139.246 315.502 152.265 316.435 158.382 316.435C163.817 316.435 173.085 314.985 173.552 313.235C174.252 310.651 172.485 310.751 172.251 308.034C172.018 305.317 170.734 287.447 172.318 284.847C174.852 280.729 177.352 269.861 177.552 266.744C177.736 263.627 180.386 256.059 178.252 253.608Z" fill="#5BC6F2"/>
<path opacity="0.45" d="M139.296 271.295C138.646 272.645 134.245 279.73 134.245 279.73L134.062 280.58C134.162 282.047 134.312 283.347 134.512 284.364C135.579 290.032 138.313 304.084 138.313 307.468C138.313 310.852 136.496 312.319 137.346 313.302C138.113 314.186 140.646 314.852 143.814 315.352C143.114 314.519 142.463 313.669 142.347 313.252C142.097 312.252 143.764 312.519 144.064 311.668C144.364 310.835 140.28 294.432 139.28 286.564C138.296 278.696 139.93 269.945 139.296 271.295Z" fill="#5CB5E2"/>
<path d="M165.584 239.69C165.584 239.69 165.651 247.241 165.951 247.541C166.251 247.841 167.751 248.558 167.751 248.558C167.751 248.558 166.684 255.109 165.051 254.625C163.401 254.142 152.565 248.658 152.565 248.658C152.565 248.658 154.099 248.024 154.099 247.424C154.099 246.824 152.632 234.956 152.632 234.956" fill="#FBBD9E"/>
<path d="M158.049 212.302C159.632 212.735 163.8 211.868 164.95 213.602C166.1 215.319 167.1 219.486 167.534 220.636C168.384 222.92 168.951 225.371 169.567 227.738C170.384 230.805 171.718 236.439 168.717 239.023C167.851 239.756 167.467 240.006 166.4 240.206C164.983 240.456 163.566 240.756 162.133 241.007C159.933 241.407 157.482 241.857 155.282 241.157C152.348 240.206 150.748 236.172 149.998 233.439L145.68 217.769L158.049 212.302Z" fill="#FBBD9E"/>
<path d="M165.45 256.426C165.45 256.426 166.05 284.197 167.184 301.083L163.1 306.717L160.299 299.666C160.299 299.666 159.116 279.296 162.95 256.626L165.45 256.426Z" fill="#2C2F76"/>
<path d="M166.384 253.992L166.284 254.375C166.101 255.092 165.818 255.792 165.434 256.426L162.934 256.626C162.934 256.626 161.233 255.726 161 254.775C160.767 253.809 163.801 252.242 163.801 252.242L164.167 252.392C165.017 252.725 165.768 253.259 166.351 253.959L166.384 253.992Z" fill="#2C2F76"/>
<path d="M153.815 244.808C153.815 244.808 151.648 246.358 150.398 248.258C151.681 251.209 155.515 256.21 158.733 258.61C160.233 254.593 163.817 252.259 163.817 252.259C163.817 252.259 154.715 250.359 153.815 244.808Z" fill="#EAEAEA"/>
<path d="M163.817 252.242C163.817 252.242 166.951 253.475 168.802 256.976C168.802 256.976 169.402 252.242 168.118 248.191C168.118 248.191 166.434 245.357 165.718 245.307C166.018 248.641 163.817 252.242 163.817 252.242Z" fill="#EAEAEA"/>
<path d="M176.402 251.975C181.936 255.042 191.388 286.631 192.438 286.964C193.488 287.314 214.909 312.535 214.909 312.535L211.508 317.136C211.508 317.136 189.888 301.417 183.687 294.532C179.319 289.681 171.051 268.044 171.051 268.044C171.051 268.044 170.885 248.908 176.402 251.975Z" fill="#5BC6F2"/>
<path opacity="0.45" d="M185.721 293.249C183.587 291.349 176.803 271.295 176.803 271.295L175.169 278.163C177.886 284.498 181.353 291.932 183.687 294.533C189.888 301.417 211.508 317.136 211.508 317.136L212.825 315.353C212.825 315.353 187.854 295.149 185.721 293.249Z" fill="#5CB5E2"/>
<path d="M148.298 304.55L115.476 310.751C114.575 310.918 114.025 311.818 114.259 312.701L118.659 335.405C118.876 336.189 119.66 336.672 120.443 336.522L153.265 330.321C154.165 330.154 154.715 329.254 154.482 328.371L150.081 305.667C149.881 304.9 149.098 304.4 148.298 304.55Z" fill="#F37C90"/>
<path d="M147.915 306.3L116.493 312.235L120.843 334.772L152.265 328.837L147.915 306.3Z" fill="#E6F6FD"/>
<path d="M148.748 327.654L145.314 308.467" stroke="#A1D1F0" stroke-width="0.5282" stroke-miterlimit="10" stroke-linecap="round" stroke-linejoin="round"/>
<path d="M145.78 328.237L142.346 309.051" stroke="#A1D1F0" stroke-width="0.5282" stroke-miterlimit="10" stroke-linecap="round" stroke-linejoin="round"/>
<path d="M141.513 329.104L138.079 309.917" stroke="#A1D1F0" stroke-width="0.5282" stroke-miterlimit="10" stroke-linecap="round" stroke-linejoin="round"/>
<path d="M137.245 329.987L133.812 310.784" stroke="#A1D1F0" stroke-width="0.5282" stroke-miterlimit="10" stroke-linecap="round" stroke-linejoin="round"/>
<path d="M132.995 330.854L129.144 311.667" stroke="#A1D1F0" stroke-width="0.5282" stroke-miterlimit="10" stroke-linecap="round" stroke-linejoin="round"/>
<path d="M128.728 331.721L124.877 312.534" stroke="#A1D1F0" stroke-width="0.5282" stroke-miterlimit="10" stroke-linecap="round" stroke-linejoin="round"/>
<path d="M124.46 332.605L120.459 313.418" stroke="#A1D1F0" stroke-width="0.5282" stroke-miterlimit="10" stroke-linecap="round" stroke-linejoin="round"/>
<path d="M130.895 321.053C130.895 321.053 132.195 323.704 132.895 325.037C133.345 325.921 136.796 328.855 138.179 331.188C138.846 332.322 139.429 333.589 139.263 334.889C139.096 336.189 137.862 337.423 136.596 337.139C136.229 337.056 135.812 336.889 135.512 337.106C135.362 337.223 135.295 337.406 135.212 337.573C134.929 338.089 134.312 338.389 133.745 338.306C133.162 338.223 132.662 337.773 132.528 337.206C131.645 338.023 130.111 338.006 129.244 337.173C129.761 336.756 130.144 336.089 130.028 335.439C129.928 334.806 129.411 334.339 129.028 333.822C128.344 332.922 127.961 331.788 127.994 330.655C128.011 329.855 128.227 329.055 128.328 328.254C128.511 326.604 128.127 324.904 127.277 323.504" fill="#FBBD9E"/>
<path d="M140.78 268.028C139.796 271.562 124.677 294.815 124.677 294.815L132.762 324.287L128.144 327.171C128.144 327.171 113.759 303.283 113.725 296.532C113.675 289.781 124.244 265.06 131.962 254.942C134.412 251.725 139.346 250.091 139.346 250.091" fill="#5BC6F2"/>
<path d="M148.398 230.705C149.398 230.121 150.148 229.505 150.798 230.455C151.148 230.955 151.349 231.655 151.932 231.838C152.515 232.005 153.115 231.488 153.266 230.888C153.416 230.305 153.232 229.688 153.049 229.105C152.649 227.821 152.249 226.537 151.849 225.254C151.465 224.004 151.065 222.62 151.565 221.387C151.815 220.77 152.282 220.253 152.782 219.82C154.432 218.403 156.566 217.719 158.7 217.286C160.817 216.853 163 216.636 165.067 215.986C165.934 215.719 166.801 215.352 167.501 214.769C168.618 213.819 169.202 212.318 169.218 210.852C169.235 209.385 168.735 207.934 167.968 206.668C167.818 207.168 167.601 207.668 167.335 208.118C167.068 207.434 166.684 206.818 166.168 206.301C165.551 209.751 151.015 208.601 147.631 210.118C145.281 211.168 143.331 211.868 143.397 215.669C143.331 215.919 143.13 216.102 142.93 216.269C140.847 218.186 139.947 220.52 139.68 223.97C139.363 228.204 141.83 232.789 144.247 236.272C144.847 237.156 145.197 237.773 146.048 238.423C146.898 239.073 148.381 239.39 149.432 239.19C150.482 238.99 152.549 239.073 152.565 238.006C152.582 237.239 150.948 235.889 150.498 235.272" fill="#2C2F76"/>
<path d="M152.198 234.705C152.198 234.705 152.365 235.422 151.932 235.972C151.548 236.456 150.748 236.389 150.215 236.222C148.664 235.722 147.614 234.222 147.314 232.672C146.964 230.838 147.948 229.004 149.631 229.488C150.615 229.771 151.231 230.871 151.215 231.905" fill="#FBBD9E"/>
<path d="M165.584 240.34L160.917 241.19C160.917 241.19 162.467 242.94 165.634 242.94" fill="#F2A182"/>
<path d="M175.936 386.797C176.786 384.03 174.402 379.746 173.235 376.545C172.069 373.345 163.284 347.757 163.284 347.757L161.35 358.076C163.167 362.493 165.167 367.227 167.168 371.411C167.935 373.028 168.701 374.545 169.468 375.929C170.852 379.063 172.319 383.297 172.085 386.864C171.585 388.497 169.351 398.716 170.768 404.617C173.769 417.069 174.519 435.455 174.519 435.455C175.286 435.589 176.003 435.672 176.669 435.705C176.419 431.171 175.969 423.153 175.919 421.57C175.852 419.336 173.019 406.45 173.219 401.35C173.435 396.265 175.086 389.564 175.936 386.797Z" fill="#2D79BE"/>
<path d="M153.648 321.636L150.814 322.303L148.764 311.685L151.615 311.084L153.648 321.636Z" fill="#F37C90"/>
<path d="M157.615 315.352C157.349 313.952 155.998 313.035 154.598 313.285L151.348 313.902L152.314 318.986C152.314 318.986 154.898 318.503 155.565 318.369C156.949 318.103 157.882 316.752 157.615 315.352ZM153.615 316.102C153.465 315.319 153.981 314.552 154.765 314.402C155.548 314.252 156.315 314.769 156.465 315.552C156.615 316.336 156.098 317.103 155.315 317.253C154.515 317.403 153.765 316.886 153.615 316.102Z" fill="#F37C90"/>
<path opacity="0.35" d="M255.532 470.345C275.73 470.345 292.104 468.867 292.104 467.045C292.104 465.222 275.73 463.744 255.532 463.744C235.333 463.744 218.959 465.222 218.959 467.045C218.959 468.867 235.333 470.345 255.532 470.345Z" fill="#C1E8F9"/>
<path opacity="0.45" d="M300.572 269.012L278.119 265.995V310.986L290.287 312.62C291.338 312.753 292.321 312.119 292.571 311.153L302.256 271.313C302.523 270.246 301.739 269.179 300.572 269.012Z" fill="#5CB5E2"/>
<path d="M272.251 263.894L264.166 299.4C263.95 300.367 264.6 301.317 265.583 301.467L290.737 305.085C291.621 305.218 292.438 304.651 292.638 303.784L300.722 268.278C300.939 267.312 300.289 266.361 299.305 266.211L274.151 262.594C273.268 262.461 272.434 263.028 272.251 263.894Z" fill="#5BC6F2"/>
<path d="M273.817 265.044L266.083 299.033L291.053 302.617L298.805 268.628L273.817 265.044Z" fill="#E6F6FD"/>
<path d="M296.155 271.129L274.918 268.079" stroke="#A1D1F0" stroke-width="0.5282" stroke-miterlimit="10" stroke-linecap="round" stroke-linejoin="round"/>
<path d="M295.438 274.347L274.201 271.296" stroke="#A1D1F0" stroke-width="0.5282" stroke-miterlimit="10" stroke-linecap="round" stroke-linejoin="round"/>
<path d="M286.603 277.014L273.334 275.097" stroke="#A1D1F0" stroke-width="0.5282" stroke-miterlimit="10" stroke-linecap="round" stroke-linejoin="round"/>
<path d="M285.653 279.764L272.384 277.864" stroke="#A1D1F0" stroke-width="0.5282" stroke-miterlimit="10" stroke-linecap="round" stroke-linejoin="round"/>
<path d="M284.72 282.531L271.451 280.63" stroke="#A1D1F0" stroke-width="0.5282" stroke-miterlimit="10" stroke-linecap="round" stroke-linejoin="round"/>
<path d="M289.57 297.801L276.318 295.884" stroke="#A1D1F0" stroke-width="0.5282" stroke-miterlimit="10" stroke-linecap="round" stroke-linejoin="round"/>
<path d="M262.566 299.817C263.983 299.15 265.05 297.9 266.067 296.7C267.067 295.516 268.067 294.316 269.067 293.133C269.467 292.666 269.867 292.149 269.917 291.532C268.234 291.399 267.167 293.566 265.483 293.699C266.267 290.932 267.384 288.282 268.817 285.798C269.167 285.198 269.551 284.481 269.301 283.831C267.484 284.515 265.967 285.815 264.65 287.232C263.716 288.232 262.883 289.299 262.133 290.449C259.916 293.799 258.549 297.633 257.615 301.534" fill="#F2A182"/>
<path d="M255.348 328.422L237.379 313.27C237.379 313.27 229.011 324.605 232.161 335.54C233.712 340.924 235.662 343.591 236.495 346.142C237.279 348.525 242.696 382.281 242.28 384.748C241.88 387.215 238.979 394.116 237.862 401.384C236.529 410.119 236.762 438.574 235.729 446.108C234.695 453.66 241.663 454.926 242.046 452.376C245.313 430.556 253.965 396.567 255.182 385.665C256.415 374.763 255.915 354.793 255.348 328.422Z" fill="#FBBD9E"/>
<path d="M255.398 349.926L247.58 367.846C250.881 373.413 252.781 379.981 253.031 386.632C253.164 390.083 252.864 393.55 252.948 397.017C252.948 397.267 252.998 397.517 253.048 397.767C254.098 392.633 254.881 388.416 255.181 385.665C256.031 377.964 256.048 365.712 255.765 349.893C255.665 349.909 255.531 349.893 255.398 349.926Z" fill="#F2A182"/>
<path d="M243.281 445.375C243.281 445.375 241.614 453.293 242.064 454.293C242.514 455.31 244.131 458.227 245.798 459.294C247.531 460.411 251.382 461.728 251.699 462.211C251.999 462.694 252.032 463.394 251.482 463.828C250.065 464.945 247.598 465.478 245.998 465.228C240.78 464.361 240.23 462.061 237.196 461.694C236.663 461.627 235.696 462.411 234.246 461.661C232.795 460.911 232.079 459.577 232.212 458.31C232.429 456.127 233.646 454.326 234.529 452.726C235.396 451.109 236.013 443.741 236.013 443.741" fill="#FBBD9E"/>
<path d="M251.865 464.211C252.248 463.561 252.348 462.577 251.981 462.327C251.498 461.994 249.748 460.844 248.731 460.377C247.714 459.91 246.114 459.494 246.681 459.81C247.247 460.11 246.197 461.261 245.264 461.194C241.996 460.994 239.579 458.81 237.712 458.36C235.029 457.693 233.895 454.509 233.778 453.993C233.262 454.309 232.078 456.876 231.845 457.677C231.628 458.41 231.245 459.727 231.445 460.494C231.595 461.01 231.911 462.077 231.745 463.178C231.745 463.178 232.278 463.578 233.678 463.878C234.562 464.061 235.762 463.911 235.762 463.911L235.995 462.227C235.995 462.227 236.729 462.194 237.662 462.394C238.596 462.594 240.113 463.478 240.213 463.578C240.58 464.028 240.88 464.844 241.38 465.095C242.68 465.761 244.013 466.061 245.68 466.161C249.164 466.345 251.215 465.328 251.865 464.211Z" fill="#2C2F76"/>
<path d="M279.885 463.894C279.502 463.46 275.335 462.794 273.384 461.977C271.517 461.193 269.267 458.71 268.834 457.643C268.4 456.576 268.5 451.208 268.55 448.958C268.934 433.422 271.817 395.466 272.217 386.364C272.934 370.562 270.884 354.259 264.816 328.888L242.179 311.519C242.179 311.519 235.845 323.304 237.962 334.572C239.195 341.107 244.613 342.124 245.53 344.657C246.447 347.191 260.149 388.165 260.149 388.165C260.149 388.165 257.482 397.016 257.332 406.718C257.198 415.002 260.949 439.99 261.649 449.508C261.732 451.375 262.049 455.826 261.499 457.243C260.832 458.976 259.115 461.027 259.199 463.21C259.249 464.477 260.165 465.694 261.766 466.194C263.366 466.694 264.266 465.761 264.816 465.744C268 465.611 268.884 467.811 274.401 467.811C276.101 467.811 278.569 466.878 279.869 465.544C280.385 465.011 280.269 464.311 279.885 463.894Z" fill="#FBBD9E"/>
<path d="M280.352 465.828C280.652 465.127 280.619 464.127 280.219 463.944C279.669 463.694 277.702 462.844 276.585 462.544C275.468 462.244 273.751 462.11 274.385 462.31C275.018 462.527 274.101 463.827 273.118 463.911C269.717 464.244 266.917 462.494 264.916 462.327C262.049 462.11 260.982 459.143 260.799 458.66C260.316 459.06 258.899 461.777 258.765 462.627C258.649 463.377 258.432 464.761 258.749 465.477C258.965 465.978 259.449 466.961 259.432 468.078C259.432 468.078 260.032 468.395 261.533 468.445C262.483 468.478 263.683 468.128 263.683 468.128V466.411C263.683 466.411 264.433 466.261 265.417 466.294C266.4 466.328 267.634 466.844 268.217 467.294C268.684 467.645 269.184 468.245 269.734 468.378C271.334 468.778 272.468 468.895 274.201 468.711C277.869 468.378 279.836 467.044 280.352 465.828Z" fill="#2C2F76"/>
<path d="M237.862 311.353C236.328 313.036 230.844 322.171 230.794 329.589C230.744 337.007 233.378 341.774 233.611 343.325C235.345 354.676 237.029 368.345 237.029 369.096C237.029 369.846 243.463 374.13 252.131 373.596C268.134 372.596 274.351 368.395 274.351 368.395C274.351 368.395 273.601 340.924 271.134 327.372C269.901 320.587 264.516 309.652 264.516 309.652" fill="#2C2F76"/>
<path d="M223.26 281.68C223.26 281.68 225.844 294.482 226.51 296.766C227.194 299.05 230.528 313.519 233.695 313.269C236.862 313.019 254.215 298.533 254.215 298.533L251.764 293.616L236.495 300.9C236.495 300.9 235.112 284.364 233.912 280.43" fill="#FBBD9E"/>
<path d="M229.161 289.565C230.778 295.283 234.095 301.3 235.079 305.734C235.279 306.618 245.864 302.784 245.881 298.8" fill="#F2A182"/>
<path d="M233.611 263.944C233.611 263.944 228.544 264.477 225.977 266.444C219.426 271.462 224.493 289.648 224.493 289.648C224.493 289.648 224.176 290.615 228.56 290.365C232.961 290.115 236.478 288.865 236.478 288.865L235.212 273.962" fill="#E8515C"/>
<path d="M227.811 274.246C227.811 274.246 227.261 284.948 229.194 290.332C231.111 290.299 232.778 289.865 232.778 289.865L227.811 274.246Z" fill="#B13E45"/>
<path d="M257.816 230.373C260.866 234.323 260.266 239.891 259.516 244.842C259.132 247.342 258.749 249.842 258.382 252.343C258.199 253.526 257.966 254.827 257.032 255.593C256.099 256.36 254.765 256.36 253.565 256.293C253.581 258.36 253.581 260.427 253.598 262.495C250.064 262.578 246.53 262.595 242.98 262.545C242.98 261.094 242.663 259.644 242.063 258.327C240.329 258.294 239.179 256.56 238.496 254.96C237.712 253.126 237.145 251.209 236.595 249.292C235.862 246.742 235.162 244.158 235.095 241.508C235.028 238.857 235.662 236.107 237.345 234.056C238.496 232.656 240.063 231.673 241.663 230.839C243.863 229.689 246.497 228.789 248.747 229.789" fill="#FBBD9E"/>
<path d="M254.165 249.225C253.748 247.142 253.782 245.975 254.465 244.591C254.698 244.124 254.982 243.708 255.398 243.408C255.949 243.024 256.682 242.941 257.282 243.208C257.682 243.374 257.999 243.708 258.232 244.091C258.949 241.291 259.099 238.324 258.899 235.423C258.566 230.822 255.799 227.272 251.748 225.605C244.247 222.521 233.495 225.571 230.444 232.923C228.144 238.474 229.311 246.492 233.712 251.159C237.612 255.276 243.213 255.893 248.381 255.043C251.031 254.61 255.115 254.876 256.482 251.276C256.582 250.992 256.349 250.726 256.065 250.742C254.982 250.826 254.232 249.609 254.165 249.225Z" fill="#2C2F76"/>
<path d="M254.731 239.457C255.014 239.89 254.948 240.473 255.198 240.923C255.631 241.674 256.215 241.94 257.015 242.307C258.282 242.89 257.982 244.741 257.948 245.574C258.915 244.941 259.065 243.207 259.299 242.324C259.565 241.34 259.732 240.323 260.015 239.34C260.299 238.39 260.782 237.49 260.865 236.473C261.182 233.005 258.999 228.921 256.365 226.971C254.448 225.554 251.514 225.604 249.347 227.054C248.43 227.655 247.747 228.588 247.347 229.605C247.18 230.038 247.047 230.555 247.263 230.972" fill="#2C2F76"/>
<path d="M237.712 263.994C237.895 262.777 238.212 261.377 239.346 260.894C239.662 260.76 239.996 260.727 240.346 260.677C243.796 260.294 247.263 260.127 250.747 260.194C252.181 260.21 253.665 260.294 254.948 260.927C256.965 261.927 258.065 264.111 259.049 266.145" fill="#B13E45"/>
<path d="M266.95 308.385C266.467 307.668 265.35 306.818 264.95 306.034C263.983 304.151 263.15 296.216 263.483 294.182C263.833 292.015 265.767 290.832 266.634 285.998C267.751 279.763 265.2 274.929 263.767 272.845C261.75 269.912 262.95 269.928 262.25 266.328C262.133 265.678 261.983 264.994 261.533 264.544C261.099 264.094 258.082 262.727 257.499 262.627C251.881 261.76 248.581 262.444 242.913 262.677C240.113 262.794 237.312 263.127 234.545 263.727C231.495 264.394 228.844 265.211 228.211 269.345C227.244 275.746 228.061 282.214 229.994 288.281C231.278 292.299 238.979 306.234 237.079 308.918C236.645 309.535 235.545 310.702 235.412 311.468C234.928 314.286 241.28 315.269 244.013 315.502C248.164 315.836 252.915 315.619 257.065 315.419C260.216 315.269 267.1 314.169 267.584 310.285C267.701 309.551 267.317 308.935 266.95 308.385Z" fill="#E8515C"/>
<path d="M265.75 287.198C265.75 288.331 265.117 289.848 264.917 290.448C264.133 290.848 260.999 291.532 259.199 290.715C258.799 286.981 256.615 279.78 256.615 279.78C256.615 279.78 265.75 286.164 265.75 287.198Z" fill="#B13E45"/>
<path d="M239.546 252.476C237.379 251.859 235.062 253.076 233.628 254.81C231.961 256.793 231.244 259.894 232.795 261.961C233.378 262.728 234.195 263.278 235.045 263.761C237.612 265.195 240.663 266.045 243.53 265.328C246.397 264.628 248.897 262.061 248.864 259.127C248.831 256.46 246.88 254.243 244.913 252.443" fill="#2C2F76"/>
<path d="M261.733 284.598C261.733 284.598 272.101 309.652 276.602 309.652C279.869 309.652 287.904 286.531 287.904 286.531L282.836 284.131L277.185 293.816L271.468 275.746" fill="#FBBD9E"/>
<path d="M281.803 285.848C281.803 285.848 283.487 283.198 283.353 281.331C283.303 280.614 282.887 277.213 283.237 276.547C283.587 275.88 284.437 273.679 284.937 273.263C285.42 272.829 287.221 272.146 287.671 272.463C288.104 272.763 288.654 271.362 289.388 271.496C290.121 271.612 290.721 272.229 290.721 272.896C290.721 273.563 291.688 273.679 291.822 274.18C291.938 274.663 291.888 275.096 292.072 275.463C292.255 275.83 292.788 275.646 292.988 276.563C293.172 277.397 292.922 277.48 292.988 277.897C293.055 278.33 293.422 278.28 293.288 279.097C293.172 279.914 292.605 280.964 292.122 281.881C291.638 282.798 290.621 283.931 289.288 284.748C288.621 285.148 288.271 285.848 287.638 287.032" fill="#FBBD9E"/>
<path d="M284.587 266.495C284.454 266.295 284.104 265.961 283.687 266.262C283.27 266.545 283.403 267.062 283.487 267.262C283.57 267.462 286.554 274.196 286.554 274.196C286.554 274.196 286.804 274.48 287.271 274.063C287.788 273.613 287.621 273.379 287.621 273.379C287.621 273.379 284.72 266.695 284.587 266.495Z" fill="#2C2F76"/>
<path d="M287.821 272.913C287.237 273.946 286.554 274.279 285.954 274.863C285.47 275.313 285.537 275.596 285.003 276.063C285.92 275.996 285.77 275.446 286.97 274.596C287.521 274.196 288.104 273.763 288.204 273.079C288.237 272.846 287.971 272.712 287.821 272.913Z" fill="#F2A182"/>
<path d="M252.198 262.261C254.898 262.394 262.75 261.027 267.117 265.594C270.784 269.428 272.868 279.463 274.351 283.531C270.684 287.265 267.15 290.282 261.599 289.065C261.383 288.915 258.632 280.23 256.632 279.463" fill="#E8515C"/>
<path d="M255.181 373.346C254.164 366.761 247.847 346.324 247.58 345.758C244.146 343.091 241.879 340.34 240.729 338.123C239.945 342.607 241.996 347.025 243.913 351.159C247.263 358.36 249.247 366.194 252.114 373.596" fill="#1F1953"/>
<path d="M521.659 269.312C517.192 274.113 514.041 304.885 513.925 306.035C513.808 307.185 491.288 319.837 491.288 319.837L494.455 323.471C494.455 323.471 518.442 317.437 522.76 312.22C526.427 307.802 534.878 271.613 534.878 271.613C534.878 271.613 529.077 261.344 521.659 269.312Z" fill="#5BC6F2"/>
<path opacity="0.35" d="M556.598 481.281C593.635 481.281 623.659 479.229 623.659 476.697C623.659 474.165 593.635 472.113 556.598 472.113C519.561 472.113 489.537 474.165 489.537 476.697C489.537 479.229 519.561 481.281 556.598 481.281Z" fill="#C1E8F9"/>
<path d="M590.437 452.259C590.437 452.259 592.271 455.793 593.187 456.91C594.104 458.027 598.122 455.493 598.155 454.576C598.188 453.659 594.588 448.092 594.588 448.092" fill="#FBBD9E"/>
<path d="M599.922 454.943C600.789 456.177 602.205 458.611 602.205 458.611L598.672 461.844L597.738 461.444C597.738 461.444 597.155 463.045 596.088 464.062C595.288 464.828 593.437 466.095 592.421 466.562C588.887 468.212 585.936 468.462 585.536 468.029C583.852 466.262 588.52 464.028 589.387 463.461C591.904 461.794 592.587 458.961 592.321 457.36C592.137 456.194 591.787 456.094 592.421 455.927C592.421 455.927 592.954 455.71 593.654 456.044C594.721 456.56 596.021 456.527 596.888 455.693C597.388 455.227 597.805 454.643 597.921 453.976C597.955 453.96 599.055 453.71 599.922 454.943Z" fill="#2C2F76"/>
<path d="M524.46 464.394C524.46 464.394 523.576 466.578 523.676 468.011C523.793 469.445 528.544 469.545 529.111 468.812C529.661 468.061 529.944 461.477 529.944 461.477" fill="#FBBD9E"/>
<path d="M530.361 470.062C530.361 471.562 529.927 473.996 529.927 473.996H524.443L524.176 473.113C524.176 473.113 522.393 473.996 520.992 473.996H516.358C512.958 473.996 511.041 473.579 510.957 473.013C510.607 470.629 514.658 470.729 515.708 470.729C518.742 470.729 522.026 469.362 522.726 467.895C523.243 466.828 523.009 466.562 523.643 466.762C523.643 466.762 524.21 466.878 524.576 467.545C525.16 468.562 526.243 469.245 527.444 469.045C528.127 468.929 528.81 468.679 529.294 468.195C529.31 468.178 530.361 468.578 530.361 470.062Z" fill="#2C2F76"/>
<path d="M552.431 364.695C552.398 364.895 547.947 359.794 547.897 360.011C546.13 368.929 537.895 398.767 535.161 406.602V406.618C534.761 407.718 532.644 410.069 530.894 410.519C526.877 411.569 520.459 410.186 519.942 402.501C519.875 401.651 520.076 400.734 519.975 399.734C518.825 387.882 530.161 335.673 530.444 332.339C530.711 329.005 537.262 331.406 539.095 330.789C548.264 327.755 554.831 352.209 552.431 364.695Z" fill="#E8515C"/>
<path d="M535.695 410.819C533.844 405.268 536.662 398.75 536.662 398.75C536.662 398.75 520.859 386.598 520.059 394.016C519.976 394.6 519.392 399.617 519.392 402.451C519.392 412.586 522.926 444.691 522.659 464.295V465.578C522.659 465.578 525.293 466.095 529.927 466.062C530.144 466.062 530.361 466.062 530.594 466.045C531.911 453.843 534.778 437.24 536.128 420.537C536.462 416.453 535.995 411.753 535.695 410.819Z" fill="#E8515C"/>
<path d="M576.001 408.319C572.834 404.385 569.5 402.634 568.517 399.634C566.217 392.683 566.85 364.461 566.617 356.627C567.267 355.026 573.351 339.007 560.999 327.205C560.999 327.205 549.897 331.973 540.996 332.539C533.994 332.989 530.444 332.289 530.444 332.289C530.444 332.289 537.062 342.258 537.445 346.692C538.095 354.21 552.147 399.567 553.214 402.068C555.648 407.735 558.348 409.952 559.249 411.119C565.466 419.22 580.052 436.257 591.087 452.576L591.837 453.626C591.837 453.626 594.054 452.859 598.188 450.025C592.237 439.207 586.02 420.771 576.001 408.319Z" fill="#E8515C"/>
<path d="M521.659 269.312C523.876 266.762 533.395 262.844 542.796 263.128C549.281 263.328 569.884 265.462 571.851 269.796C572.851 272.013 572.768 293.049 571.284 300.884C570.167 306.768 566.817 321.888 566.817 325.405C566.817 328.922 568.701 330.439 567.817 331.456C565.833 333.74 551.081 334.773 544.73 334.773C539.079 334.773 529.477 333.273 528.994 331.456C528.277 328.772 530.094 328.872 530.344 326.055C530.594 323.238 531.928 304.685 530.261 301.984C527.644 297.7 523.66 285.565 523.443 282.348C523.276 279.13 519.442 271.863 521.659 269.312Z" fill="#5BC6F2"/>
<path d="M537.262 255.143C537.262 255.143 537.195 262.978 536.879 263.294C536.562 263.611 535.012 264.345 535.012 264.345C535.012 264.345 536.112 271.146 537.812 270.646C539.512 270.146 550.781 264.461 550.781 264.461C550.781 264.461 549.181 263.811 549.181 263.178C549.181 262.544 550.698 250.226 550.698 250.226" fill="#FBBD9E"/>
<path d="M540.312 229.406C538.945 228.372 536.995 228.339 535.461 229.089C533.928 229.839 532.794 231.256 532.144 232.84C531.511 234.373 531.327 236.19 532.144 237.624C531.011 237.991 530.311 239.224 530.311 240.424C530.311 241.725 531.077 242.975 531.761 244.025C532.411 245.025 533.844 245.642 535.011 245.375C535.845 245.192 536.562 244.608 537.078 243.925C537.595 243.242 537.928 242.441 538.245 241.641C539.695 237.924 540.679 234.057 541.396 230.139" fill="#1F1953"/>
<path d="M545.079 226.705C543.446 227.155 539.112 226.255 537.928 228.055C536.728 229.839 535.694 234.173 535.244 235.357C534.361 237.724 533.777 240.274 533.127 242.724C532.277 245.908 530.11 251.926 533.244 254.593C534.144 255.36 535.311 255.443 536.428 255.643C537.911 255.91 539.378 256.21 540.862 256.477C543.146 256.893 545.696 257.36 547.963 256.627C550.997 255.643 552.664 251.459 553.447 248.625L557.915 232.373L545.079 226.705Z" fill="#FBBD9E"/>
<path d="M551.797 250.259C551.797 250.259 551.714 251.009 552.231 251.526C552.698 251.993 553.498 251.809 554.031 251.576C555.565 250.876 556.482 249.192 556.598 247.559C556.732 245.625 555.498 243.858 553.831 244.558C552.848 244.958 552.348 246.175 552.481 247.225" fill="#FBBD9E"/>
<path d="M555.898 241.358C555.365 242.974 553.981 246.642 552.514 246.292C551.047 245.942 553.114 240.191 554.381 237.89C552.531 237.89 550.264 237.607 549.597 235.873C549.447 235.49 549.33 234.99 548.93 234.89C548.597 234.823 548.297 235.09 548.014 235.273C546.713 236.107 544.946 235.29 543.913 234.14C543.679 233.873 543.396 233.573 543.046 233.59C542.829 233.606 542.646 233.74 542.463 233.873C540.329 235.39 534.678 235.307 534.695 232.656C532.828 233.606 531.627 231.289 531.744 229.722C531.861 228.139 533.044 225.505 535.611 225.572C535.478 223.638 537.012 222.421 538.545 221.238C540.096 220.054 542.063 219.521 543.996 219.437C547.063 219.304 550.547 220.571 551.597 223.455C551.681 223.671 551.748 223.888 551.948 224.005C552.164 224.138 552.431 224.055 552.664 224.005C554.998 223.388 557.665 223.755 559.465 225.355C561.266 226.972 561.866 229.906 560.482 231.889C562.283 232.306 563.249 234.456 562.966 236.273C562.683 238.09 561.482 239.641 560.249 241.007C562.199 241.624 562.966 244.291 561.983 246.075C560.999 247.859 558.465 248.842 556.432 248.542C556.898 246.692 556.098 244.575 554.315 244.241" fill="#2C2F76"/>
<path d="M537.412 272.497C537.412 272.497 536.795 301.318 535.612 318.838L539.846 324.689L542.763 317.371C542.763 317.371 543.997 296.234 540.013 272.697L537.412 272.497Z" fill="#2C2F76"/>
<path d="M536.429 269.979L536.529 270.379C536.712 271.129 537.012 271.846 537.412 272.513L540.013 272.713C540.013 272.713 541.78 271.779 542.013 270.796C542.246 269.796 539.112 268.162 539.112 268.162L538.729 268.312C537.846 268.662 537.079 269.212 536.462 269.946L536.429 269.979Z" fill="#1F1953"/>
<path d="M549.481 260.444C549.481 260.444 551.731 262.045 553.031 264.028C551.698 267.095 547.714 272.296 544.397 274.763C542.846 270.596 539.112 268.162 539.112 268.162C539.112 268.162 548.547 266.195 549.481 260.444Z" fill="#EAEAEA"/>
<path d="M539.113 268.162C539.113 268.162 535.862 269.445 533.945 273.079C533.945 273.079 533.328 268.178 534.645 263.961C534.645 263.961 536.395 261.027 537.129 260.96C536.829 264.428 539.113 268.162 539.113 268.162Z" fill="#EAEAEA"/>
<path d="M535.695 410.819C535.262 409.502 535.079 408.135 535.062 406.818C535.095 406.752 535.145 406.668 535.162 406.618V406.602C536.995 401.334 541.33 386.115 544.497 373.996L539.579 356.443C539.579 356.443 536.595 392.166 535.612 394.716C534.628 397.283 531.595 405.535 531.878 407.302C532.178 409.085 534.095 412.336 533.812 415.153C533.512 417.954 533.562 443.191 533.562 443.324C534.528 436.023 535.495 428.289 536.129 420.521C536.462 416.453 535.995 411.753 535.695 410.819Z" fill="#B13E45"/>
<path d="M463.912 296.653C480.478 286.127 485.374 264.164 474.847 247.598C464.321 231.033 442.358 226.137 425.792 236.663C409.227 247.189 404.331 269.152 414.857 285.718C425.383 302.284 447.346 307.18 463.912 296.653Z" stroke="#2C2F76" stroke-width="5.282" stroke-miterlimit="10"/>
<path d="M468.983 294.2L521.892 358.127" stroke="#2C2F76" stroke-width="5.282" stroke-miterlimit="10" stroke-linecap="round" stroke-linejoin="round"/>
<path d="M518.075 334.439C518.075 334.439 515.158 335.356 513.641 335.79C512.658 336.073 507.99 335.573 505.24 336.206C503.906 336.506 502.54 336.973 501.673 338.04C500.823 339.09 500.756 340.891 501.889 341.657C502.206 341.874 502.64 342.057 502.673 342.457C502.69 342.657 502.59 342.841 502.54 343.024C502.356 343.608 502.573 344.274 503.04 344.658C503.506 345.041 504.223 345.091 504.74 344.791C504.757 346.041 505.857 347.192 507.107 347.242C507.057 346.558 507.274 345.791 507.84 345.408C508.39 345.025 509.107 345.075 509.774 345.008C510.941 344.891 512.058 344.358 512.891 343.524C513.475 342.924 513.925 342.207 514.458 341.574C515.558 340.257 517.109 339.34 518.792 338.974" fill="#FBBD9E"/>
<path opacity="0.45" d="M571.868 269.795C571.785 269.612 571.651 269.428 571.501 269.262L557.916 282.547C554.682 291.165 548.214 313.852 548.214 313.852C548.214 313.852 542.096 316.72 537.996 318.853C536.962 319.387 534.012 321.37 530.545 323.787C530.478 324.821 530.411 325.638 530.378 326.071C530.128 328.888 529.744 328.872 530.461 331.555C530.461 333.339 529.778 336.006 529.311 338.657C539.529 336.039 560.6 329.438 561.4 329.005C562.6 328.355 568.801 303.401 572.385 288.248C572.935 278.997 572.602 271.412 571.868 269.795Z" fill="#5CB5E2"/>
<path d="M557.832 281.098C556.581 284.698 549.897 316.37 549.897 316.37C549.897 316.37 543.379 318.004 539.262 320.137C536.078 321.788 513.908 335.557 513.908 335.557L516.108 340.757C516.108 340.757 555.581 326.772 557.315 325.822C559.049 324.888 574.901 284.882 574.901 277.747C574.901 273.546 571.501 269.246 571.501 269.246" fill="#5BC6F2"/>
<path d="M489.987 326.572C488.704 326.738 487.387 325.772 487.154 324.505C487.104 324.255 487.104 323.988 486.953 323.755C486.72 323.371 486.203 323.288 485.77 323.171C484.103 322.688 483.053 321.004 482.636 319.304C482.419 318.404 482.353 317.454 482.636 316.57C482.919 315.687 483.586 314.903 484.47 314.653C484.636 314.603 484.836 314.57 485.003 314.636C485.17 314.703 485.303 314.853 485.403 314.987C485.92 315.67 486.303 316.437 486.537 317.254C486.703 317.854 486.837 318.52 487.32 318.887C487.654 319.137 488.087 319.187 488.47 319.371C489.221 319.737 489.604 320.587 489.871 321.371C490.321 322.571 489.754 325.322 489.987 326.572Z" fill="#FBBD9E"/>
<path d="M494.755 318.354C494.988 317.387 494.555 316.22 493.905 315.487C493.238 314.753 492.338 314.287 491.404 313.937C491.154 313.853 490.821 313.787 490.687 314.003C490.587 314.153 490.637 314.37 490.737 314.537C491.087 315.137 491.821 315.42 492.204 315.987C492.354 316.204 492.438 316.454 492.538 316.687C492.971 317.554 493.821 318.187 494.755 318.354Z" fill="#FBBD9E"/>
<path opacity="0.45" d="M528.21 297.367C528.21 297.367 524.46 288.099 523.793 284.281C522.009 293.366 522.593 309.285 521.092 310.636C519.592 311.986 504.506 320.587 504.506 320.587C511.624 318.354 520.326 315.153 522.759 312.203C524.143 310.536 526.193 304.401 528.21 297.367Z" fill="#5CB5E2"/>
<path d="M537.262 255.81C537.262 255.81 543.63 257.194 544.763 257.01C545.897 256.827 542.313 258.944 541.646 259.027C540.979 259.111 537.262 258.594 537.262 258.594V255.81Z" fill="#F2A182"/>
<path d="M283.553 37.1402C283.62 36.9735 274.685 42.5078 274.685 42.5078L277.002 57.5603L281.386 46.2917L292.938 44.0914L309.391 28.6055L283.553 37.1402Z" fill="#89CCF1"/>
<path d="M309.407 28.6216L277.019 57.5764L281.403 46.3079L309.407 28.6216Z" fill="#A9E0F9"/>
<path d="M309.408 28.6216L266.551 37.7231L274.702 42.5072L309.408 28.6216L281.403 46.3079L295.239 54.8593L309.408 28.6216Z" fill="#C5E9FB"/>
<path d="M152.498 227.305C152.614 227.521 153.298 227.471 153.431 227.488C153.715 227.555 153.598 227.605 154.948 229.055C155.948 230.122 157.449 230.288 160.099 229.088C162.133 228.171 161.683 226.604 161.749 225.821C161.816 225.038 161.983 224.887 162.316 224.787C162.633 224.687 162.833 224.737 163.333 225.338C163.833 225.954 164.783 227.505 166.95 227.005C168.667 226.604 169.234 225.771 169.334 224.671C169.517 222.72 169.517 222.737 169.717 222.52C169.917 222.304 169.784 221.537 169.601 221.137C169.434 220.737 168.167 221.02 166.883 221.404C165.6 221.787 163.633 222.404 162.966 222.954C162.299 223.504 162.416 223.787 162.049 223.904C161.683 224.021 161.583 223.737 160.716 223.654C159.849 223.554 156.432 224.604 155.148 224.987C153.865 225.371 152.114 226.071 152.198 226.504C152.248 226.738 152.364 227.055 152.498 227.305ZM163.733 223.871C163.75 223.337 164.233 223.154 165.717 222.637C167.2 222.12 167.817 221.854 168.134 222.02C168.45 222.187 168.8 222.92 168.717 224.054C168.617 225.354 168.3 226.004 167.084 226.371C165.783 226.771 164.85 226.271 164.4 225.504C163.933 224.737 163.733 224.071 163.733 223.871ZM154.565 226.154C154.731 225.838 156.732 225.304 158.249 224.904C159.766 224.504 160.249 224.387 160.566 224.837C160.682 225.004 160.882 225.671 160.932 226.554C160.982 227.438 160.866 228.238 158.532 228.955C156.882 229.472 156.032 229.172 155.232 228.155C154.515 227.255 154.381 226.471 154.565 226.154Z" fill="#1F1953"/>
<path d="M199.756 129.688H264.25C268.417 129.688 271.784 133.056 271.784 137.223V179.13C271.784 183.297 268.417 186.665 264.25 186.665H199.756C195.588 186.665 192.221 183.297 192.221 179.13V137.223C192.221 133.072 195.588 129.688 199.756 129.688Z" fill="#C5E9FB"/>
<path d="M262.85 168.212L281.936 162.828L264.917 158.394" fill="#C5E9FB"/>
<path opacity="0.25" d="M220.517 157.807H232.386V155.073H220.517V157.807Z" fill="#0E65AF"/>
<path opacity="0.25" d="M212.147 153.729H232.4V150.995H212.147V153.729Z" fill="#0E65AF"/>
<path opacity="0.25" d="M202.81 169.777H261.07V166.41H202.81V169.777Z" fill="#0E65AF"/>
<path opacity="0.25" d="M202.81 174.811H261.07V171.443H202.81V174.811Z" fill="#0E65AF"/>
<path opacity="0.25" d="M212.147 149.667H232.4V146.933H212.147V149.667Z" fill="#0E65AF"/>
<path opacity="0.25" d="M224.952 145.589H232.387V142.856H224.952V145.589Z" fill="#0E65AF"/>
<path opacity="0.25" d="M237.229 151.376C237.229 157.96 242.563 163.294 249.147 163.294C255.732 163.294 261.066 157.96 261.066 151.376C261.066 144.791 255.732 139.457 249.147 139.457C242.563 139.457 237.229 144.791 237.229 151.376Z" fill="#0E65AF"/>
<path opacity="0.19" d="M246.814 151.558C245.647 150.792 244.863 149.475 244.863 147.975C244.863 145.607 246.78 143.674 249.164 143.674C251.531 143.674 253.465 145.591 253.465 147.975C253.465 149.475 252.681 150.792 251.515 151.558C254.182 152.192 256.182 154.576 256.182 157.443V161.01C254.215 162.444 251.798 163.294 249.181 163.294C246.564 163.294 244.147 162.444 242.18 161.01V157.443C242.146 154.576 244.147 152.192 246.814 151.558Z" fill="#0E65AF"/>
<path d="M199.706 111.319C198.005 115.57 193.188 117.637 188.937 115.953C184.687 114.253 182.62 109.436 184.303 105.185C186.003 100.934 190.821 98.8671 195.072 100.551C199.322 102.251 201.406 107.069 199.706 111.319Z" fill="#F37C90"/>
<path d="M188.471 107.268L190.338 111.402L196.555 107.551" stroke="white" stroke-width="1.0564" stroke-miterlimit="10" stroke-linecap="round" stroke-linejoin="round"/>
<path d="M520.96 43.5412C522.76 47.7419 520.81 52.6261 516.609 54.4264C512.408 56.2267 507.524 54.2764 505.724 50.0757C503.923 45.875 505.874 40.9908 510.074 39.1905C514.292 37.3902 519.159 39.3405 520.96 43.5412Z" fill="#F37C90"/>
<path d="M510.141 48.5917L514.392 50.2253L516.075 43.0908" stroke="white" stroke-width="1.0564" stroke-miterlimit="10" stroke-linecap="round" stroke-linejoin="round"/>
<path d="M627.222 337.606C629.491 323.685 620.046 310.561 606.125 308.292C592.205 306.022 579.08 315.467 576.811 329.388C574.541 343.309 583.987 356.433 597.907 358.703C611.828 360.972 624.952 351.527 627.222 337.606Z" fill="white" stroke="#F37C90" stroke-width="2.1128" stroke-miterlimit="10" stroke-linecap="round" stroke-linejoin="round"/>
<path d="M602.04 351.442C611.927 351.442 619.943 343.427 619.943 333.539C619.943 323.652 611.927 315.636 602.04 315.636C592.152 315.636 584.137 323.652 584.137 333.539C584.137 343.427 592.152 351.442 602.04 351.442Z" stroke="#F37C90" stroke-width="2.1128" stroke-miterlimit="10" stroke-linecap="round" stroke-linejoin="round"/>
<path d="M612.142 333.539C612.142 339.123 607.624 343.64 602.04 343.64C596.456 343.64 591.938 339.123 591.938 333.539C591.938 327.954 596.456 323.437 602.04 323.437C607.624 323.437 612.142 327.954 612.142 333.539Z" stroke="#F37C90" stroke-width="2.1128" stroke-miterlimit="10" stroke-linecap="round" stroke-linejoin="round"/>
<path d="M602.039 337.823C604.405 337.823 606.323 335.905 606.323 333.539C606.323 331.173 604.405 329.255 602.039 329.255C599.673 329.255 597.755 331.173 597.755 333.539C597.755 335.905 599.673 337.823 602.039 337.823Z" fill="#F37C90"/>
<path d="M602.04 333.539L634.945 300.634" stroke="#2E4091" stroke-width="1.0564" stroke-miterlimit="10"/>
<path d="M640.247 301.15H634.379V295.299" stroke="#2E4091" stroke-width="1.0564" stroke-miterlimit="10"/>
<path d="M637.312 304.084H631.444V298.216" stroke="#2E4091" stroke-width="1.0564" stroke-miterlimit="10"/>
<path d="M634.329 307.068H628.478V301.2" stroke="#2E4091" stroke-width="1.0564" stroke-miterlimit="10"/>
<path d="M607.674 333.722H601.807V327.854" stroke="#2E4091" stroke-width="1.0564" stroke-miterlimit="10"/>
<path d="M68.0839 250.109C68.0839 251.792 66.717 253.159 65.0334 253.159C63.3498 253.159 61.9829 251.792 61.9829 250.109C61.9829 248.425 63.3498 247.058 65.0334 247.058C66.7337 247.058 68.0839 248.425 68.0839 250.109Z" fill="#F37C90"/>
<path d="M643.28 183.114C643.28 184.798 641.913 186.164 640.229 186.164C638.546 186.164 637.179 184.798 637.179 183.114C637.179 181.43 638.546 180.063 640.229 180.063C641.93 180.063 643.28 181.43 643.28 183.114Z" fill="#F37C90"/>
<path d="M356.782 68.4782C356.782 70.1618 355.415 71.5287 353.731 71.5287C352.048 71.5287 350.681 70.1618 350.681 68.4782C350.681 66.7946 352.048 65.4277 353.731 65.4277C355.415 65.4444 356.782 66.7946 356.782 68.4782Z" fill="#F37C90"/>
<path d="M255.265 127.321C254.731 127.321 254.298 126.888 254.298 126.355V119.503C254.298 118.97 254.731 118.537 255.265 118.537C255.798 118.537 256.232 118.97 256.232 119.503V126.355C256.232 126.888 255.798 127.321 255.265 127.321Z" fill="#F37C90"/>
<path d="M258.682 123.887H251.831C251.298 123.887 250.864 123.453 250.864 122.92C250.864 122.387 251.298 121.953 251.831 121.953H258.682C259.216 121.953 259.649 122.387 259.649 122.92C259.666 123.453 259.232 123.887 258.682 123.887Z" fill="#F37C90"/>
<path d="M87.3199 388.548C86.7864 388.548 86.353 388.115 86.353 387.581V380.73C86.353 380.197 86.7864 379.763 87.3199 379.763C87.8533 379.763 88.2867 380.197 88.2867 380.73V387.581C88.2867 388.115 87.8533 388.548 87.3199 388.548Z" fill="#F37C90"/>
<path d="M90.754 385.114H83.9029C83.3694 385.114 82.936 384.68 82.936 384.147C82.936 383.614 83.3694 383.18 83.9029 383.18H90.754C91.2874 383.18 91.7208 383.614 91.7208 384.147C91.7208 384.68 91.2874 385.114 90.754 385.114Z" fill="#F37C90"/>
<path d="M668.767 285.982C668.233 285.982 667.8 285.548 667.8 285.015V278.164C667.8 277.63 668.233 277.197 668.767 277.197C669.3 277.197 669.733 277.63 669.733 278.164V285.015C669.75 285.548 669.317 285.982 668.767 285.982Z" fill="#F37C90"/>
<path d="M672.201 282.547H665.35C664.816 282.547 664.383 282.114 664.383 281.581C664.383 281.047 664.816 280.614 665.35 280.614H672.201C672.734 280.614 673.168 281.047 673.168 281.581C673.168 282.114 672.734 282.547 672.201 282.547Z" fill="#F37C90"/>
<path d="M484.156 24.4333L441.884 10.3442L432.723 37.8295L474.995 51.9185L484.156 24.4333Z" fill="#A0DDF9"/>
<path d="M484.153 24.4207L441.879 10.3351L468.817 0L484.153 24.4207Z" fill="#A0DDF9"/>
<path d="M480.535 20.8534L446.692 9.57373L437.168 38.1502L471.01 49.4298L480.535 20.8534Z" fill="white"/>
<path d="M441.879 10.3354L432.728 37.8234L458.115 32.0891L441.879 10.3354Z" fill="#C4E9FB"/>
<path d="M484.153 24.4204L475.001 51.9083L458.115 32.0883L484.153 24.4204Z" fill="#C4E9FB"/>
<path d="M475.001 51.909L432.728 37.8233L459.649 27.4883L475.001 51.909Z" fill="#C4E9FB"/>
<path d="M432.728 37.8229C434.895 36.7727 437.112 35.8392 439.312 34.839C441.512 33.8889 443.729 32.9387 445.946 32.0219C450.38 30.1716 454.865 28.4046 459.332 26.671L460.015 26.4043L460.399 27.0211C462.949 31.1051 465.466 35.1891 467.9 39.3398C469.134 41.4068 470.334 43.4905 471.517 45.5741C472.668 47.6912 473.884 49.7749 474.985 51.9085C473.534 49.9749 472.184 47.9912 470.784 46.0409C469.417 44.0572 468.067 42.0736 466.733 40.0732C464.049 36.0726 461.466 32.0219 458.899 27.9712L459.965 28.3213C455.465 30.0216 450.964 31.7218 446.43 33.3054C444.163 34.1056 441.896 34.889 439.612 35.6558C437.312 36.3559 435.045 37.1394 432.728 37.8229Z" fill="#A0DDF9"/>
</svg>
