<svg width="863" height="859" viewBox="0 0 863 859" fill="none" xmlns="http://www.w3.org/2000/svg">
<path d="M358.019 7.16387e-05L0.0227051 356.35L37.4161 393.571L395.413 37.2214L358.019 7.16387e-05Z" fill="#F5F9FF"/>
<path d="M431.182 72.8541L73.1858 429.204L110.579 466.425L468.576 110.075L431.182 72.8541Z" fill="#F5F9FF"/>
<path d="M751.758 391.937L393.762 748.287L431.155 785.509L789.152 429.159L751.758 391.937Z" fill="#F5F9FF"/>
<path d="M824.922 464.794L466.926 821.144L504.319 858.365L862.316 502.015L824.922 464.794Z" fill="#F5F9FF"/>
<path d="M431.58 386.827L268.473 549.183L231.121 512.003L431.58 312.387V386.827Z" fill="#F5F9FF"/>
<path d="M431.58 532.455L341.665 622.037L304.312 584.777L431.58 458.095V532.455Z" fill="#F5F9FF"/>
<path d="M541.72 821.15L37.416 319.166L0.0226257 356.388L504.326 858.372L541.72 821.15Z" fill="#F5F9FF"/>
<path d="M357.99 858.356L0 502.013L1.59284 429.158L431.181 856.771L357.99 858.356Z" fill="#F5F9FF"/>
<path d="M862.318 502.042L358.127 0.1698L320.734 37.3912L824.925 539.263L862.318 502.042Z" fill="#F5F9FF"/>
<path d="M860.77 429.16L431.182 1.62665L504.373 0.0411377L863 357.019L860.77 429.16Z" fill="#F5F9FF"/>
</svg>
