<svg width="216" height="40" viewBox="0 0 216 40" fill="none" xmlns="http://www.w3.org/2000/svg">
<path d="M16.7051 0.19965L0.223145 16.6165L1.94471 18.3312L18.4267 1.91441L16.7051 0.19965Z" fill="#3CBA54"/>
<path d="M20.0733 3.556L3.59131 19.9728L5.31288 21.6876L21.7948 5.27077L20.0733 3.556Z" fill="#3CBA54"/>
<path d="M34.8325 18.256L18.3506 34.6728L20.0722 36.3876L36.5541 19.9708L34.8325 18.256Z" fill="#4885ED"/>
<path d="M38.2009 21.6124L21.719 38.0292L23.4406 39.7439L39.9225 23.3271L38.2009 21.6124Z" fill="#4885ED"/>
<path d="M20.0918 18.0205L12.5825 25.5002L10.8628 23.7873L20.0918 14.5911V18.0205Z" fill="#DB3236"/>
<path d="M20.0918 24.7296L15.9521 28.8565L14.2324 27.14L20.0918 21.3038V24.7296Z" fill="#DB3236"/>
<path d="M25.1624 38.0295L1.94458 14.9034L0.223011 16.6182L23.4409 39.7443L25.1624 38.0295Z" fill="#3CBA54"/>
<path d="M16.7036 39.7436L0.221924 23.3271L0.295257 19.9708L20.0733 39.6706L16.7036 39.7436Z" fill="#3CBA54"/>
<path d="M39.9226 23.3284L16.71 0.20752L14.9884 1.92228L38.2011 25.0432L39.9226 23.3284Z" fill="#4885ED"/>
<path d="M39.8512 19.9708L20.0732 0.274612L23.4429 0.201569L39.9539 16.6473L39.8512 19.9708Z" fill="#4885ED"/>
<path d="M47.2874 35.0287V4.92017H65.3457V9.48538H52.0357V18.057H64.0404V22.5419H52.0357V35.0287H47.2874Z" fill="#4885ED"/>
<path d="M68.6016 35.0287V4.92017H73.3499V30.4635H86.0109V35.0287H68.6016Z" fill="#4885ED"/>
<path d="M106.999 4.92017H88.9407V9.49634H106.999V4.92017Z" fill="#4885ED"/>
<path d="M106.999 17.6882H88.9407V22.2643H106.999V17.6882Z" fill="#4885ED"/>
<path d="M106.999 30.4525H88.9407V35.0287H106.999V30.4525Z" fill="#4885ED"/>
<path d="M130.59 35.0287L123.015 23.4002L115.447 35.0287H109.855L119.975 19.4887L110.424 4.92017H116.103L123.015 15.7671L129.93 4.92017H135.61L126.058 19.4887L136.178 35.0287H130.59Z" fill="#DB3236"/>
<path d="M109.855 35.0287L119.975 19.4887L110.424 4.92017H116.103L123.352 16.293L123.429 16.4099L125.56 19.4777L123.352 22.8852L115.447 35.0287H109.855Z" fill="#F4C20D"/>
<path d="M179.225 35.0835C175.855 35.0835 173.094 33.9659 171.023 31.7563C168.951 29.5468 167.906 26.6798 167.906 23.1226V4.92017H172.654V23.2833C172.654 25.533 173.241 27.3263 174.403 28.6082C175.566 29.8901 177.146 30.5183 179.225 30.5183C181.304 30.5183 182.892 29.8937 184.043 28.6082C185.194 27.3226 185.792 25.533 185.792 23.2833V4.92017H190.559V23.1226C190.559 26.7748 189.525 29.6965 187.482 31.8403C185.44 33.9842 182.642 35.0835 179.225 35.0835Z" fill="#4885ED"/>
<path d="M194.775 35.0287V4.9202H205.849C208.177 4.88553 210.428 5.74778 212.133 7.32698C212.99 8.07671 213.67 9.00403 214.128 10.0438C214.586 11.0836 214.81 12.2106 214.784 13.3458C214.784 16.0995 213.633 18.1447 211.36 19.4376C212.539 19.9632 213.563 20.7819 214.333 21.8152C215.288 23.0924 215.795 24.646 215.778 26.2379C215.803 27.4264 215.567 28.6059 215.088 29.6945C214.609 30.7831 213.897 31.7547 213.002 32.5416C211.215 34.1998 208.845 35.0929 206.402 35.0287H194.775ZM206.582 30.4635C207.154 30.4708 207.721 30.3647 208.252 30.1514C208.782 29.9381 209.264 29.6219 209.671 29.2212C210.077 28.8205 210.399 28.3433 210.619 27.8173C210.838 27.2914 210.951 26.7272 210.949 26.1576C210.953 25.5982 210.841 25.044 210.619 24.5299C210.398 24.0157 210.072 23.5528 209.662 23.1701C209.24 22.7459 208.733 22.4133 208.176 22.1933C207.618 21.9733 207.02 21.8707 206.421 21.8918H199.524V30.4635H206.582ZM205.849 17.407C206.402 17.422 206.953 17.3234 207.466 17.1173C207.98 16.9112 208.445 16.6021 208.833 16.2091C209.209 15.8546 209.51 15.4281 209.716 14.9553C209.923 14.4825 210.031 13.973 210.035 13.4573C210.039 12.9417 209.939 12.4306 209.74 11.9545C209.541 11.4785 209.248 11.0474 208.877 10.687C208.51 10.3002 208.066 9.99457 207.572 9.79007C207.079 9.58558 206.548 9.48676 206.014 9.50002H199.524V17.407H205.849Z" fill="#4885ED"/>
<path d="M148.982 30.3868C146.848 32.3663 143.218 32.7936 140.439 31.3984C137.784 30.0654 136.153 27.8522 135.133 25.124C132.933 19.0869 134.844 12.1149 139.816 8.16695C142.081 6.39189 144.817 5.3131 147.688 5.0626C148.854 4.94817 150.026 4.89939 151.197 4.91652C151.926 4.95046 152.647 5.07311 153.346 5.28173C152.829 5.49356 152.312 5.69443 151.802 5.91356C148.626 7.25195 146.101 9.7754 144.769 12.944C142.602 17.889 142.364 22.8049 145.664 27.4687C146.418 28.5054 147.373 29.381 148.473 30.0435C148.63 30.153 148.788 30.2589 148.982 30.3868Z" fill="#325E9E"/>
<path d="M164.657 24.8282C163.502 28.2502 161.5 30.8798 158.501 32.7132C154.724 35.025 150.599 35.3647 146.177 34.7767C146.293 34.6917 146.415 34.6172 146.544 34.5539C151.043 33.0602 153.877 29.8974 155.454 25.5586C155.667 24.9779 155.912 24.7697 156.554 24.7807C159.055 24.8209 161.555 24.7807 164.056 24.7807C164.214 24.7989 164.382 24.8136 164.657 24.8282Z" fill="#4885ED"/>
<path d="M164.514 14.9856H161.038C159.326 14.9856 157.61 14.9856 155.905 14.9856C155.626 14.9856 155.421 14.9527 155.285 14.6496C154.375 12.5791 152.836 10.8447 150.885 9.68991C150.825 9.6457 150.77 9.59553 150.72 9.54017C150.86 9.42696 150.981 9.31739 151.113 9.22243C152.517 8.21138 154.215 7.68615 155.947 7.72704C157.679 7.76793 159.35 8.37269 160.705 9.44887C162.41 10.769 163.707 12.5411 164.448 14.5619C164.479 14.7015 164.501 14.8431 164.514 14.9856Z" fill="#4885ED"/>
</svg>
