<svg width="18" height="18" viewBox="0 0 18 18" fill="none" xmlns="http://www.w3.org/2000/svg">
<path d="M16.2364 12.2748L13.6912 11.9842C13.08 11.914 12.4788 12.1245 12.0479 12.5553L10.2042 14.3991C7.3685 12.9561 5.04383 10.6415 3.60092 7.79573L5.45465 5.94199C5.88552 5.51112 6.09594 4.90991 6.0258 4.29868L5.73522 1.77358C5.61497 0.761537 4.76326 0 3.7412 0H2.00771C0.875436 0 -0.0664603 0.941901 0.00368089 2.07419C0.53475 10.6315 7.37853 17.4652 15.9257 17.9963C17.058 18.0665 17.9999 17.1246 17.9999 15.9923V14.2588C18.0099 13.2467 17.2484 12.395 16.2364 12.2748Z" fill="#1C4684"/>
</svg>
