<svg width="17" height="12" viewBox="0 0 17 12" fill="none" xmlns="http://www.w3.org/2000/svg">
<path d="M8.30762 0.75C4.67125 0.75 1.5658 2.927 0.307617 6C1.5658 9.073 4.67125 11.25 8.30762 11.25C11.9476 11.25 15.0494 9.073 16.3076 6C15.0494 2.927 11.9476 0.75 8.30762 0.75ZM8.30762 9.5C6.30034 9.5 4.67125 7.932 4.67125 6C4.67125 4.068 6.30034 2.5 8.30762 2.5C10.3149 2.5 11.944 4.068 11.944 6C11.944 7.932 10.3149 9.5 8.30762 9.5ZM8.30762 3.9C7.10398 3.9 6.1258 4.8415 6.1258 6C6.1258 7.1585 7.10398 8.1 8.30762 8.1C9.51125 8.1 10.4894 7.1585 10.4894 6C10.4894 4.8415 9.51125 3.9 8.30762 3.9Z" fill="#1565D8"/>
</svg>
