<svg width="8" height="15" viewBox="0 0 8 15" fill="none" xmlns="http://www.w3.org/2000/svg">
<path d="M5.33333 6.75H4.66667V3.75H6C6.17681 3.75 6.34638 3.82902 6.4714 3.96967C6.59643 4.11032 6.66667 4.30109 6.66667 4.5C6.66667 4.69891 6.7369 4.88968 6.86193 5.03033C6.98695 5.17098 7.15652 5.25 7.33333 5.25C7.51014 5.25 7.67971 5.17098 7.80474 5.03033C7.92976 4.88968 8 4.69891 8 4.5C8 3.90326 7.78929 3.33097 7.41421 2.90901C7.03914 2.48705 6.53043 2.25 6 2.25H4.66667V0.75C4.66667 0.551088 4.59643 0.360322 4.4714 0.21967C4.34638 0.0790176 4.17681 0 4 0C3.82319 0 3.65362 0.0790176 3.5286 0.21967C3.40357 0.360322 3.33333 0.551088 3.33333 0.75V2.25H2.66667C1.95942 2.25 1.28115 2.56607 0.781048 3.12868C0.280951 3.69129 0 4.45435 0 5.25C0 6.04565 0.280951 6.80871 0.781048 7.37132C1.28115 7.93393 1.95942 8.25 2.66667 8.25H3.33333V11.25H2C1.82319 11.25 1.65362 11.171 1.5286 11.0303C1.40357 10.8897 1.33333 10.6989 1.33333 10.5C1.33333 10.3011 1.2631 10.1103 1.13807 9.96967C1.01305 9.82902 0.843478 9.75 0.666667 9.75C0.489856 9.75 0.320287 9.82902 0.195262 9.96967C0.070238 10.1103 0 10.3011 0 10.5C0 11.0967 0.210714 11.669 0.585787 12.091C0.960859 12.5129 1.46957 12.75 2 12.75H3.33333V14.25C3.33333 14.4489 3.40357 14.6397 3.5286 14.7803C3.65362 14.921 3.82319 15 4 15C4.17681 15 4.34638 14.921 4.4714 14.7803C4.59643 14.6397 4.66667 14.4489 4.66667 14.25V12.75H5.33333C6.04058 12.75 6.71885 12.4339 7.21895 11.8713C7.71905 11.3087 8 10.5456 8 9.75C8 8.95435 7.71905 8.19129 7.21895 7.62868C6.71885 7.06607 6.04058 6.75 5.33333 6.75ZM3.33333 6.75H2.66667C2.31304 6.75 1.97391 6.59196 1.72386 6.31066C1.47381 6.02936 1.33333 5.64782 1.33333 5.25C1.33333 4.85218 1.47381 4.47064 1.72386 4.18934C1.97391 3.90804 2.31304 3.75 2.66667 3.75H3.33333V6.75ZM5.33333 11.25H4.66667V8.25H5.33333C5.68696 8.25 6.02609 8.40804 6.27614 8.68934C6.52619 8.97064 6.66667 9.35218 6.66667 9.75C6.66667 10.1478 6.52619 10.5294 6.27614 10.8107C6.02609 11.092 5.68696 11.25 5.33333 11.25Z" fill="#325E9E"/>
</svg>
