<svg width="20" height="21" viewBox="0 0 20 21" fill="none" xmlns="http://www.w3.org/2000/svg">
<path d="M19.9987 9.43597C19.991 9.27922 19.857 9.15044 19.6993 9.15044H16.2417L16.8027 7.87085C16.8342 7.79896 16.836 7.71422 16.8075 7.64109L16.5202 6.90371C16.6802 6.84501 16.8352 6.77333 16.9836 6.6889L17.7038 7.13431C17.8369 7.20855 17.9637 7.19076 18.0841 7.08101L18.7804 6.3161C18.8789 6.20796 18.8852 6.0446 18.7953 5.92916L18.2782 5.26514C18.3416 5.12366 18.394 4.97781 18.4351 4.82879L19.2609 4.63814C19.4028 4.60541 19.5008 4.47559 19.4934 4.33014L19.4414 3.30081C19.434 3.15536 19.3235 3.03616 19.179 3.01785L18.3382 2.91142C18.2823 2.76734 18.2154 2.62754 18.1381 2.49315L18.5856 1.78041C18.6634 1.65651 18.6407 1.4946 18.5318 1.39695L17.7619 0.706124C17.6542 0.609478 17.4929 0.603347 17.3782 0.691458L16.7066 1.20718C16.5631 1.14375 16.4152 1.09134 16.2641 1.05047L16.0731 0.232271C16.04 0.0907085 15.91 -0.00770022 15.7653 0.000473798L14.7284 0.0528436C14.5832 0.0601762 14.4641 0.170365 14.4455 0.314492L14.3379 1.1478C14.1917 1.20374 14.0499 1.27073 13.9135 1.34834L13.1933 0.902941C13.0703 0.826891 12.9105 0.849209 12.8131 0.956232L12.1167 1.72114C12.0182 1.82929 12.0119 1.99265 12.1018 2.10809L12.6189 2.77207C12.5696 2.88209 12.5276 2.99493 12.4918 3.10964L11.0842 2.49251C10.9095 2.43473 10.7776 2.48626 10.6883 2.64705L9.49356 5.37208V0.7038C9.49356 0.315254 8.89253 0.315254 8.89253 0.7038V2.0201C6.83284 2.10717 4.93318 3.19543 3.79279 4.94952C3.58804 5.26442 4.07427 5.61919 4.29669 5.27712C5.32622 3.69357 7.03671 2.70828 8.89253 2.62157V15.3447H7.03956C6.78676 15.3447 6.58113 15.1378 6.58113 14.8834V13.8531C6.58113 13.7425 6.52043 13.6409 6.4231 13.5884C4.51066 12.5585 3.33536 10.5666 3.35588 8.38994C3.36125 7.82108 3.4496 7.25844 3.61849 6.71763C3.73429 6.34675 3.16059 6.16753 3.04479 6.53848C2.85835 7.13547 2.76082 7.75649 2.75493 8.38429C2.73289 10.7242 3.96412 12.8707 5.98014 14.0297V14.8834C5.98014 15.3645 6.30085 15.7717 6.73908 15.9019V17.3256C6.73908 18.2449 7.487 18.9928 8.4063 18.9928H8.89257V20.0559C8.89257 20.4445 9.4936 20.4445 9.4936 20.0559V12.8632L12.5557 14.2057L12.4868 14.5982C12.3857 14.6326 12.287 14.6732 12.1913 14.7198L11.6517 14.3438C11.5322 14.2606 11.3702 14.2749 11.2673 14.378L10.6737 14.9721C10.5708 15.0751 10.5566 15.2371 10.6399 15.3565L11.0164 15.8957C10.9699 15.9915 10.9293 16.0902 10.8951 16.1914L10.2525 16.3048C10.1084 16.3302 10.0036 16.4557 10.0042 16.6019L10.0076 17.4448C10.0082 17.5895 10.1119 17.7132 10.2542 17.7392L10.9007 17.8572C10.936 17.9597 10.9777 18.0598 11.0255 18.1568L10.6543 18.6924C10.5715 18.8118 10.5861 18.9734 10.6889 19.0761L11.2873 19.674C11.3901 19.7767 11.5517 19.7912 11.6711 19.7082L12.2064 19.3366C12.3035 19.3843 12.4036 19.4259 12.506 19.4612L12.6247 20.1075C12.6508 20.2499 12.7746 20.3534 12.9193 20.3538L13.7621 20.3565H13.7631C13.9089 20.3565 14.0338 20.2517 14.0591 20.1079L14.1719 19.4652C14.273 19.4309 14.3717 19.3903 14.4674 19.3436L15.007 19.7196C15.1265 19.8029 15.2885 19.7886 15.3914 19.6854L15.9849 19.0914C16.0878 18.9883 16.1021 18.8264 16.0187 18.7069L15.6422 18.1677C15.6888 18.0719 15.7293 17.9732 15.7636 17.872L16.4061 17.7586C16.5502 17.7332 16.655 17.6077 16.6544 17.4615L16.651 16.6186C16.6504 16.474 16.5468 16.3502 16.4045 16.3242L15.7968 16.2133C16.6569 16.2095 17.5304 16.2093 18.3797 16.2093C18.4791 16.228 18.571 16.1983 18.6552 16.1201L19.9183 14.777C19.9707 14.7213 19.9999 14.6477 19.9999 14.5711V9.45096C19.9999 9.44591 19.999 9.44102 19.9987 9.43597V9.43597ZM19.0041 9.75147L18.3194 10.4796H14.0079L14.6926 9.75147H19.0041ZM15.6129 4.57436C15.5845 4.50159 15.5251 4.43956 15.4535 4.40823L14.3129 3.90813C14.3674 3.36043 14.8204 2.91816 15.3915 2.88931C16.0208 2.85873 16.5568 3.3384 16.5883 3.96106C16.6141 4.47154 16.2897 4.93057 15.8137 5.08992L15.6129 4.57436ZM15.3154 5.46669L15.64 6.29991L15.9833 7.18135L14.7907 6.65456L15.3154 5.46669ZM13.2081 2.55045L12.7316 1.93856L13.0895 1.5454L13.7544 1.95663C13.8537 2.01797 13.9795 2.01637 14.0772 1.95242C14.271 1.8254 14.4811 1.72623 14.7015 1.65763C14.8136 1.62274 14.8951 1.52565 14.9102 1.40917L15.0095 0.640451L15.5449 0.613405L15.7211 1.36818C15.7478 1.48257 15.8387 1.57093 15.9538 1.59437C16.1799 1.64033 16.3989 1.71786 16.6047 1.82472C16.7083 1.87849 16.8337 1.86739 16.9262 1.79635L17.5462 1.32018L17.942 1.67523L17.5295 2.33211C17.4667 2.43216 17.4684 2.55978 17.5337 2.65819C17.6613 2.85032 17.7609 3.0584 17.8297 3.27669C17.8649 3.38864 17.9621 3.46978 18.0786 3.48453L18.8538 3.58266L18.8804 4.10928L18.119 4.28506C18.0046 4.31142 17.9161 4.40202 17.8923 4.5169C17.8459 4.74104 17.7678 4.95809 17.6602 5.16204C17.6051 5.26654 17.6164 5.39364 17.6889 5.48688L18.1655 6.09881L17.8076 6.49196L17.1426 6.08074C17.0434 6.01939 16.9176 6.021 16.8199 6.08491C16.6574 6.19137 16.4836 6.27792 16.302 6.34359L16.0318 5.65012C16.7444 5.39813 17.2275 4.7031 17.1885 3.93073C17.1403 2.97706 16.3206 2.24051 15.3611 2.28908C14.5562 2.32975 13.9051 2.9101 13.7445 3.65899L13.0458 3.35262C13.0923 3.1879 13.1563 3.02798 13.2368 2.87532C13.292 2.77078 13.2807 2.64369 13.2081 2.55045V2.55045ZM8.40622 18.3918C7.81833 18.3918 7.34003 17.9135 7.34003 17.3256V15.9457H8.89249V18.3918H8.40622ZM9.49356 6.86889L11.1181 3.16366L14.9362 4.83769L14.1195 6.68658C14.0612 6.86108 14.1124 6.99314 14.273 7.0829L16.1319 7.90402L15.5854 9.15048H14.5627C14.4798 9.15048 14.4006 9.1847 14.3438 9.24508L13.0807 10.5881C13.0188 10.654 12.9862 10.8296 12.9939 10.9243V13.7073L12.9151 13.7071L9.49356 12.207V6.86889ZM16.0524 17.2108L15.4762 17.3125C15.3598 17.333 15.2663 17.4198 15.2372 17.5343C15.1921 17.7114 15.1228 17.8804 15.0311 18.0368C14.9718 18.138 14.9768 18.2645 15.044 18.3608L15.3818 18.8446L15.144 19.0826L14.6598 18.7452C14.5635 18.6781 14.437 18.6732 14.3358 18.7327C14.1796 18.8245 14.0106 18.8939 13.8336 18.9391C13.7191 18.9684 13.6324 19.062 13.6119 19.1784L13.5108 19.7547L13.1707 19.7536L13.064 19.1725C13.043 19.0577 12.9573 18.9655 12.8444 18.936C12.6666 18.8895 12.4967 18.8188 12.3393 18.7258C12.2382 18.6661 12.1115 18.6707 12.015 18.7377L11.5344 19.0714L11.2912 18.8284L11.6245 18.3476C11.6913 18.251 11.6959 18.1244 11.636 18.0233C11.5429 17.8659 11.472 17.696 11.4254 17.5183C11.3958 17.4054 11.3035 17.3198 11.1887 17.2989L10.6075 17.1927L10.6061 16.8527L11.1823 16.751C11.2986 16.7304 11.3921 16.6436 11.4213 16.5292C11.4663 16.3521 11.5356 16.1831 11.6273 16.0267C11.6866 15.9255 11.6816 15.7989 11.6145 15.7027L11.2767 15.2188L11.5144 14.9809L11.9986 15.3183C12.0948 15.3854 12.2214 15.3903 12.3226 15.3308C12.4789 15.239 12.6479 15.1695 12.8249 15.1243C12.9393 15.0951 13.0261 15.0015 13.0465 14.8851L13.1476 14.3088L13.4877 14.3099L13.5944 14.891C13.6154 15.0058 13.7011 15.098 13.814 15.1275C13.9918 15.1739 14.1617 15.2446 14.3191 15.3376C14.4202 15.3974 14.5469 15.3928 14.6434 15.3257L15.1239 14.9921L15.3672 15.235L15.0339 15.7159C14.967 15.8124 14.9625 15.9391 15.0223 16.0402C15.1154 16.1976 15.1863 16.3675 15.2329 16.5452C15.2625 16.6581 15.3548 16.7436 15.4696 16.7646L16.0508 16.8707L16.0524 17.2108ZM18.7376 15.1552C18.7375 14.8593 18.7368 14.1283 18.7368 14.1283C18.7368 13.7397 18.1357 13.7397 18.1357 14.1283V15.6084C17.377 15.6084 16.6024 15.609 15.8372 15.6123L16.0043 15.3711C16.0871 15.2517 16.0725 15.09 15.9697 14.9873L15.3713 14.3895C15.2685 14.2868 15.1069 14.2723 14.9875 14.3552L14.4523 14.7269C14.3552 14.6791 14.2551 14.6375 14.1526 14.6023L14.034 13.9559C13.9961 13.7496 13.7783 13.6829 13.5991 13.7092C13.5942 13.3754 13.6304 11.6301 13.5991 11.0945H18.1358V12.5592C18.1358 12.9478 18.7368 12.9478 18.7368 12.5592C18.7368 12.5592 18.7377 11.4293 18.7377 10.9122L19.3989 10.2092V14.4522L18.7376 15.1552Z" fill="#1C4684"/>
<path d="M13.3282 15.6665C13.3267 15.6665 13.3252 15.6665 13.3237 15.6665C12.961 15.6665 12.6206 15.8074 12.3648 16.0634C12.1079 16.3205 11.9673 16.6627 11.9688 17.0272C11.9702 17.3908 12.1131 17.733 12.3711 17.9907C12.6291 18.2484 12.9713 18.391 13.3349 18.3921H13.3394C13.7021 18.3921 14.0426 18.2513 14.2984 17.9953C14.5552 17.7382 14.6959 17.3959 14.6944 17.0315C14.6929 16.6679 14.55 16.3257 14.2921 16.068C14.0341 15.8103 13.6918 15.6677 13.3282 15.6665V15.6665ZM13.8731 17.5704C13.7303 17.7134 13.5397 17.7933 13.3368 17.7911C13.1329 17.7905 12.9408 17.7103 12.7959 17.5655C12.6509 17.4207 12.5706 17.2286 12.5698 17.0248C12.5689 16.8217 12.6471 16.6312 12.7899 16.4882C12.9327 16.3453 13.1241 16.2662 13.3262 16.2675C13.5301 16.2682 13.7222 16.3483 13.8672 16.4932C14.0122 16.638 14.0925 16.83 14.0933 17.0339C14.0941 17.237 14.016 17.4275 13.8731 17.5704V17.5704Z" fill="#1C4684"/>
<path d="M3.89663 3.45881C4.1489 3.45881 4.28754 3.12423 4.10915 2.94581L3.08444 1.92093C2.80973 1.64614 2.38468 2.07115 2.65943 2.34586L3.6841 3.37077C3.7428 3.42948 3.81974 3.45881 3.89663 3.45881Z" fill="#1C4684"/>
<path d="M1.74053 8.19336H0.29141C-0.0971365 8.19336 -0.0971365 8.79439 0.29141 8.79439H1.74057C2.12912 8.79439 2.12912 8.19336 1.74053 8.19336V8.19336Z" fill="#1C4684"/>
<path d="M3.77566 13.5791L2.75098 14.604C2.47623 14.8788 2.90128 15.3038 3.17599 15.0289L4.20067 14.0041C4.47542 13.7293 4.05037 13.3043 3.77566 13.5791Z" fill="#1C4684"/>
</svg>
