<svg width="15" height="15" viewBox="0 0 15 15" fill="none" xmlns="http://www.w3.org/2000/svg">
<path d="M6.9675 9.9675C6.93525 10.0031 6.90519 10.0407 6.8775 10.08C6.84912 10.1218 6.82642 10.1672 6.81 10.215C6.78838 10.2575 6.77321 10.303 6.765 10.35C6.76132 10.3999 6.76132 10.4501 6.765 10.5C6.76247 10.5984 6.78302 10.696 6.825 10.785C6.85869 10.8781 6.91243 10.9626 6.98242 11.0326C7.0524 11.1026 7.13693 11.1563 7.23 11.19C7.31978 11.2297 7.41685 11.2502 7.515 11.2502C7.61315 11.2502 7.71023 11.2297 7.8 11.19C7.89307 11.1563 7.9776 11.1026 8.04759 11.0326C8.11758 10.9626 8.17132 10.8781 8.205 10.785C8.23831 10.6938 8.25359 10.597 8.25 10.5C8.25057 10.4013 8.23165 10.3034 8.19433 10.2121C8.15701 10.1207 8.10201 10.0376 8.0325 9.9675C7.96278 9.8972 7.87983 9.8414 7.78843 9.80333C7.69704 9.76525 7.59901 9.74565 7.5 9.74565C7.40099 9.74565 7.30296 9.76525 7.21157 9.80333C7.12017 9.8414 7.03722 9.8972 6.9675 9.9675ZM7.5 0C6.01664 0 4.56659 0.439867 3.33323 1.26398C2.09986 2.08809 1.13856 3.25943 0.570907 4.62987C0.00324963 6.00032 -0.145275 7.50832 0.144114 8.96317C0.433503 10.418 1.14781 11.7544 2.1967 12.8033C3.2456 13.8522 4.58197 14.5665 6.03682 14.8559C7.49168 15.1453 8.99968 14.9967 10.3701 14.4291C11.7406 13.8614 12.9119 12.9001 13.736 11.6668C14.5601 10.4334 15 8.98336 15 7.5C15 6.51508 14.806 5.53981 14.4291 4.62987C14.0522 3.71993 13.4997 2.89314 12.8033 2.1967C12.1069 1.50026 11.2801 0.947814 10.3701 0.570903C9.46019 0.193993 8.48491 0 7.5 0ZM7.5 13.5C6.31331 13.5 5.15328 13.1481 4.16658 12.4888C3.17989 11.8295 2.41085 10.8925 1.95673 9.7961C1.5026 8.69974 1.38378 7.49334 1.61529 6.32946C1.8468 5.16557 2.41825 4.09647 3.25736 3.25736C4.09648 2.41824 5.16557 1.8468 6.32946 1.61529C7.49335 1.38378 8.69974 1.5026 9.7961 1.95672C10.8925 2.41085 11.8295 3.17988 12.4888 4.16658C13.1481 5.15327 13.5 6.31331 13.5 7.5C13.5 9.0913 12.8679 10.6174 11.7426 11.7426C10.6174 12.8679 9.0913 13.5 7.5 13.5ZM7.5 3.75C7.1048 3.74975 6.7165 3.85359 6.37418 4.05108C6.03187 4.24857 5.7476 4.53274 5.55 4.875C5.49574 4.96036 5.4593 5.05582 5.44288 5.15563C5.42647 5.25544 5.43041 5.35754 5.45447 5.45579C5.47854 5.55404 5.52223 5.6464 5.58292 5.72732C5.6436 5.80825 5.72003 5.87606 5.8076 5.92668C5.89518 5.9773 5.99209 6.00969 6.0925 6.02188C6.19291 6.03408 6.29476 6.02584 6.3919 5.99766C6.48905 5.96947 6.57949 5.92193 6.65779 5.85789C6.73608 5.79385 6.80062 5.71463 6.8475 5.625C6.91358 5.51054 7.00873 5.41558 7.12331 5.34973C7.23789 5.28388 7.36784 5.24947 7.5 5.25C7.69891 5.25 7.88968 5.32902 8.03033 5.46967C8.17098 5.61032 8.25 5.80109 8.25 6C8.25 6.19891 8.17098 6.38968 8.03033 6.53033C7.88968 6.67098 7.69891 6.75 7.5 6.75C7.30109 6.75 7.11032 6.82902 6.96967 6.96967C6.82902 7.11032 6.75 7.30109 6.75 7.5V8.25C6.75 8.44891 6.82902 8.63968 6.96967 8.78033C7.11032 8.92098 7.30109 9 7.5 9C7.69891 9 7.88968 8.92098 8.03033 8.78033C8.17098 8.63968 8.25 8.44891 8.25 8.25V8.115C8.74603 7.93501 9.16302 7.58642 9.42808 7.13015C9.69314 6.67388 9.7894 6.13897 9.70005 5.61892C9.61069 5.09886 9.3414 4.62676 8.93925 4.28514C8.53709 3.94351 8.02766 3.75409 7.5 3.75Z" fill="#C4C4C4"/>
</svg>
