<svg width="21" height="16" viewBox="0 0 21 16" fill="none" xmlns="http://www.w3.org/2000/svg">
<path d="M7.32535 15.5001C7.15395 15.4996 6.9845 15.4638 6.82753 15.395C6.67055 15.3262 6.5294 15.2258 6.41285 15.1001L0.337851 8.63763C0.11076 8.39562 -0.0108925 8.07331 -0.000343544 7.74161C0.0102054 7.4099 0.152091 7.09597 0.394102 6.86888C0.636112 6.64179 0.958421 6.52014 1.29013 6.53069C1.62183 6.54124 1.93576 6.68312 2.16285 6.92513L7.31285 12.4126L17.8254 0.912632C17.932 0.779785 18.0647 0.67015 18.2153 0.590461C18.3659 0.510772 18.5312 0.462712 18.7011 0.449231C18.8709 0.435751 19.0417 0.457135 19.203 0.512071C19.3643 0.567007 19.5127 0.654334 19.639 0.768689C19.7653 0.883045 19.8668 1.02201 19.9375 1.17706C20.0081 1.33211 20.0463 1.49996 20.0497 1.67031C20.0531 1.84065 20.0217 2.0099 19.9573 2.16765C19.8929 2.32539 19.797 2.46832 19.6754 2.58763L8.25035 15.0876C8.1349 15.2156 7.99425 15.3183 7.83721 15.3893C7.68018 15.4602 7.51017 15.498 7.33785 15.5001H7.32535Z" fill="#3CBA54"/>
</svg>
