<svg width="402" height="110" viewBox="0 0 402 110" fill="none" xmlns="http://www.w3.org/2000/svg">
<rect x="0.5" y="0.5" width="401" height="109" rx="8.5" fill="white" stroke="#EAECEF"/>
<path d="M109.625 33.4205C109.564 32.8826 109.314 32.4659 108.875 32.1705C108.436 31.8712 107.883 31.7216 107.216 31.7216C106.739 31.7216 106.326 31.7973 105.977 31.9489C105.629 32.0966 105.358 32.3011 105.165 32.5625C104.975 32.8201 104.881 33.1136 104.881 33.4432C104.881 33.7197 104.945 33.9583 105.074 34.1591C105.206 34.3598 105.379 34.5284 105.591 34.6648C105.807 34.7973 106.038 34.9091 106.284 35C106.53 35.0871 106.767 35.1591 106.994 35.2159L108.131 35.5114C108.502 35.6023 108.883 35.7254 109.273 35.8807C109.663 36.036 110.025 36.2405 110.358 36.4943C110.691 36.7481 110.96 37.0625 111.165 37.4375C111.373 37.8125 111.477 38.2614 111.477 38.7841C111.477 39.4432 111.307 40.0284 110.966 40.5398C110.629 41.0511 110.138 41.4545 109.494 41.75C108.854 42.0455 108.08 42.1932 107.17 42.1932C106.299 42.1932 105.545 42.0549 104.909 41.7784C104.273 41.5019 103.775 41.1098 103.415 40.6023C103.055 40.0909 102.856 39.4848 102.818 38.7841H104.58C104.614 39.2045 104.75 39.5549 104.989 39.8352C105.231 40.1117 105.54 40.3182 105.915 40.4545C106.294 40.5871 106.708 40.6534 107.159 40.6534C107.655 40.6534 108.097 40.5758 108.483 40.4205C108.873 40.2614 109.18 40.0417 109.403 39.7614C109.627 39.4773 109.739 39.1458 109.739 38.767C109.739 38.4223 109.64 38.1402 109.443 37.9205C109.25 37.7008 108.987 37.5189 108.653 37.375C108.324 37.2311 107.951 37.1042 107.534 36.9943L106.159 36.6193C105.227 36.3655 104.489 35.9924 103.943 35.5C103.402 35.0076 103.131 34.3561 103.131 33.5455C103.131 32.875 103.313 32.2898 103.676 31.7898C104.04 31.2898 104.532 30.9015 105.153 30.625C105.775 30.3447 106.475 30.2045 107.256 30.2045C108.044 30.2045 108.739 30.3428 109.341 30.6193C109.947 30.8958 110.424 31.2765 110.773 31.7614C111.121 32.2424 111.303 32.7955 111.318 33.4205H109.625ZM115.001 39.0398L114.99 36.9659H115.286L118.763 33.2727H120.797L116.831 37.4773H116.564L115.001 39.0398ZM113.439 42V30.3636H115.138V42H113.439ZM118.95 42L115.825 37.8523L116.996 36.6648L121.036 42H118.95ZM122.345 42V33.2727H124.044V42H122.345ZM123.203 31.9261C122.908 31.9261 122.654 31.8277 122.442 31.6307C122.233 31.4299 122.129 31.1913 122.129 30.9148C122.129 30.6345 122.233 30.3958 122.442 30.1989C122.654 29.9981 122.908 29.8977 123.203 29.8977C123.499 29.8977 123.75 29.9981 123.959 30.1989C124.171 30.3958 124.277 30.6345 124.277 30.9148C124.277 31.1913 124.171 31.4299 123.959 31.6307C123.75 31.8277 123.499 31.9261 123.203 31.9261ZM128.028 30.3636V42H126.33V30.3636H128.028ZM132.013 30.3636V42H130.314V30.3636H132.013ZM138.669 42V30.3636H142.817C143.722 30.3636 144.472 30.5284 145.067 30.858C145.661 31.1875 146.107 31.6383 146.402 32.2102C146.697 32.7784 146.845 33.4186 146.845 34.1307C146.845 34.8466 146.696 35.4905 146.396 36.0625C146.101 36.6307 145.654 37.0814 145.055 37.4148C144.461 37.7443 143.713 37.9091 142.811 37.9091H139.959V36.4205H142.652C143.224 36.4205 143.688 36.322 144.044 36.125C144.4 35.9242 144.661 35.6515 144.828 35.3068C144.995 34.9621 145.078 34.5701 145.078 34.1307C145.078 33.6913 144.995 33.3011 144.828 32.9602C144.661 32.6193 144.398 32.3523 144.038 32.1591C143.682 31.9659 143.213 31.8693 142.629 31.8693H140.425V42H138.669ZM151.229 42.1932C150.676 42.1932 150.176 42.0909 149.729 41.8864C149.282 41.678 148.928 41.3769 148.666 40.983C148.409 40.589 148.28 40.1061 148.28 39.5341C148.28 39.0417 148.375 38.6364 148.564 38.3182C148.753 38 149.009 37.7481 149.331 37.5625C149.653 37.3769 150.013 37.2367 150.411 37.142C150.808 37.0473 151.214 36.9754 151.626 36.9261C152.149 36.8655 152.573 36.8163 152.899 36.7784C153.225 36.7367 153.462 36.6705 153.609 36.5795C153.757 36.4886 153.831 36.3409 153.831 36.1364V36.0966C153.831 35.6004 153.691 35.2159 153.411 34.9432C153.134 34.6705 152.721 34.5341 152.172 34.5341C151.6 34.5341 151.149 34.661 150.82 34.9148C150.494 35.1648 150.268 35.4432 150.143 35.75L148.547 35.3864C148.736 34.8561 149.013 34.428 149.376 34.1023C149.744 33.7727 150.166 33.5341 150.643 33.3864C151.121 33.2348 151.623 33.1591 152.149 33.1591C152.498 33.1591 152.867 33.2008 153.257 33.2841C153.651 33.3636 154.018 33.5114 154.359 33.7273C154.704 33.9432 154.986 34.2519 155.206 34.6534C155.426 35.0511 155.536 35.5682 155.536 36.2045V42H153.876V40.8068H153.808C153.698 41.0265 153.534 41.2424 153.314 41.4545C153.094 41.6667 152.812 41.8428 152.467 41.983C152.123 42.1231 151.71 42.1932 151.229 42.1932ZM151.598 40.8295C152.068 40.8295 152.469 40.7367 152.803 40.5511C153.14 40.3655 153.395 40.1231 153.57 39.8239C153.748 39.5208 153.837 39.197 153.837 38.8523V37.7273C153.776 37.7879 153.659 37.8447 153.484 37.8977C153.314 37.947 153.119 37.9905 152.899 38.0284C152.679 38.0625 152.465 38.0947 152.257 38.125C152.049 38.1515 151.875 38.1742 151.734 38.1932C151.405 38.2348 151.104 38.3049 150.831 38.4034C150.562 38.5019 150.346 38.6439 150.183 38.8295C150.024 39.0114 149.945 39.2538 149.945 39.5568C149.945 39.9773 150.1 40.2955 150.411 40.5114C150.721 40.7235 151.117 40.8295 151.598 40.8295ZM157.798 42V33.2727H159.44V34.6591H159.531C159.69 34.1894 159.971 33.8201 160.372 33.5511C160.777 33.2784 161.236 33.142 161.747 33.142C161.853 33.142 161.978 33.1458 162.122 33.1534C162.27 33.161 162.385 33.1705 162.469 33.1818V34.8068C162.401 34.7879 162.279 34.767 162.105 34.7443C161.931 34.7178 161.757 34.7045 161.582 34.7045C161.181 34.7045 160.823 34.7898 160.509 34.9602C160.198 35.1269 159.952 35.3598 159.77 35.6591C159.588 35.9545 159.497 36.2917 159.497 36.6705V42H157.798ZM168.528 33.2727V34.6364H163.761V33.2727H168.528ZM165.04 31.1818H166.739V39.4375C166.739 39.767 166.788 40.0152 166.886 40.1818C166.985 40.3447 167.112 40.4564 167.267 40.517C167.426 40.5739 167.598 40.6023 167.784 40.6023C167.92 40.6023 168.04 40.5928 168.142 40.5739C168.244 40.5549 168.324 40.5398 168.381 40.5284L168.688 41.9318C168.589 41.9697 168.449 42.0076 168.267 42.0455C168.085 42.0871 167.858 42.1098 167.585 42.1136C167.138 42.1212 166.722 42.0417 166.335 41.875C165.949 41.7083 165.636 41.4508 165.398 41.1023C165.159 40.7538 165.04 40.3163 165.04 39.7898V31.1818ZM172.107 36.8182V42H170.408V33.2727H172.038V34.6932H172.146C172.347 34.2311 172.661 33.8598 173.089 33.5795C173.521 33.2992 174.065 33.1591 174.72 33.1591C175.315 33.1591 175.836 33.2841 176.283 33.5341C176.73 33.7803 177.076 34.1477 177.322 34.6364C177.569 35.125 177.692 35.7292 177.692 36.4489V42H175.993V36.6534C175.993 36.0208 175.828 35.5265 175.499 35.1705C175.169 34.8106 174.716 34.6307 174.141 34.6307C173.747 34.6307 173.396 34.7159 173.089 34.8864C172.786 35.0568 172.546 35.3068 172.368 35.6364C172.194 35.9621 172.107 36.3561 172.107 36.8182ZM183.732 42.1761C182.872 42.1761 182.131 41.9924 181.51 41.625C180.893 41.2538 180.415 40.733 180.078 40.0625C179.745 39.3883 179.578 38.5985 179.578 37.6932C179.578 36.7992 179.745 36.0114 180.078 35.3295C180.415 34.6477 180.885 34.1155 181.487 33.733C182.093 33.3504 182.802 33.1591 183.612 33.1591C184.105 33.1591 184.582 33.2405 185.044 33.4034C185.506 33.5663 185.921 33.822 186.288 34.1705C186.656 34.5189 186.946 34.9716 187.158 35.5284C187.37 36.0814 187.476 36.7538 187.476 37.5455V38.1477H180.538V36.875H185.811C185.811 36.428 185.72 36.0322 185.538 35.6875C185.357 35.339 185.101 35.0644 184.771 34.8636C184.446 34.6629 184.063 34.5625 183.624 34.5625C183.146 34.5625 182.73 34.6799 182.374 34.9148C182.021 35.1458 181.749 35.4489 181.555 35.8239C181.366 36.1951 181.271 36.5985 181.271 37.0341V38.0284C181.271 38.6117 181.374 39.108 181.578 39.517C181.786 39.9261 182.076 40.2386 182.447 40.4545C182.819 40.6667 183.252 40.7727 183.749 40.7727C184.071 40.7727 184.364 40.7273 184.629 40.6364C184.894 40.5417 185.124 40.4015 185.317 40.2159C185.51 40.0303 185.658 39.8011 185.76 39.5284L187.368 39.8182C187.239 40.2917 187.008 40.7064 186.675 41.0625C186.345 41.4148 185.93 41.6894 185.43 41.8864C184.934 42.0795 184.368 42.1761 183.732 42.1761ZM189.361 42V33.2727H191.003V34.6591H191.094C191.253 34.1894 191.533 33.8201 191.935 33.5511C192.34 33.2784 192.798 33.142 193.31 33.142C193.416 33.142 193.541 33.1458 193.685 33.1534C193.832 33.161 193.948 33.1705 194.031 33.1818V34.8068C193.963 34.7879 193.842 34.767 193.668 34.7443C193.493 34.7178 193.319 34.7045 193.145 34.7045C192.743 34.7045 192.385 34.7898 192.071 34.9602C191.76 35.1269 191.514 35.3598 191.332 35.6591C191.151 35.9545 191.06 36.2917 191.06 36.6705V42H189.361Z" fill="black"/>
<rect width="48.4982" height="48.4982" rx="8" transform="matrix(0.68451 0.729003 -0.68451 0.729003 51.7036 20)" fill="#EAECEF"/>
<path fill-rule="evenodd" clip-rule="evenodd" d="M45.8075 58.2424C46.5412 57.461 47.5364 57.022 48.574 57.022H54.8338C55.8714 57.022 56.8665 57.461 57.6002 58.2424C58.3339 59.0238 58.7461 60.0836 58.7461 61.1886V62.8553C58.7461 63.3155 58.3958 63.6886 57.9637 63.6886C57.5315 63.6886 57.1812 63.3155 57.1812 62.8553V61.1886C57.1812 60.5256 56.9339 59.8897 56.4936 59.4209C56.0534 58.952 55.4563 58.6886 54.8338 58.6886H48.574C47.9514 58.6886 47.3543 58.952 46.9141 59.4209C46.4739 59.8897 46.2266 60.5256 46.2266 61.1886V62.8553C46.2266 63.3155 45.8762 63.6886 45.4441 63.6886C45.0119 63.6886 44.6616 63.3155 44.6616 62.8553V61.1886C44.6616 60.0836 45.0738 59.0238 45.8075 58.2424Z" fill="#656565"/>
<path fill-rule="evenodd" clip-rule="evenodd" d="M51.7034 48.6886C50.4069 48.6886 49.356 49.8079 49.356 51.1886C49.356 52.5694 50.4069 53.6886 51.7034 53.6886C52.9998 53.6886 54.0508 52.5694 54.0508 51.1886C54.0508 49.8079 52.9998 48.6886 51.7034 48.6886ZM47.791 51.1886C47.791 48.8875 49.5426 47.022 51.7034 47.022C53.8641 47.022 55.6157 48.8875 55.6157 51.1886C55.6157 53.4898 53.8641 55.3553 51.7034 55.3553C49.5426 55.3553 47.791 53.4898 47.791 51.1886Z" fill="#656565"/>
<path d="M104.874 53.8182V64H103.641V53.8182H104.874ZM111.125 64V56.3636H112.258V57.5568H112.358C112.517 57.1491 112.774 56.8326 113.128 56.6072C113.483 56.3786 113.909 56.2642 114.406 56.2642C114.91 56.2642 115.329 56.3786 115.664 56.6072C116.002 56.8326 116.265 57.1491 116.454 57.5568H116.534C116.729 57.1624 117.023 56.8492 117.414 56.6172C117.805 56.3819 118.274 56.2642 118.821 56.2642C119.503 56.2642 120.062 56.478 120.496 56.9055C120.93 57.3298 121.147 57.991 121.147 58.8892V64H119.974V58.8892C119.974 58.3258 119.82 57.9231 119.512 57.6811C119.203 57.4392 118.841 57.3182 118.423 57.3182C117.886 57.3182 117.47 57.4806 117.175 57.8054C116.88 58.1269 116.733 58.5346 116.733 59.0284V64H115.539V58.7699C115.539 58.3357 115.399 57.986 115.117 57.7209C114.835 57.4524 114.472 57.3182 114.028 57.3182C113.723 57.3182 113.438 57.3994 113.173 57.5618C112.911 57.7242 112.699 57.9496 112.537 58.2379C112.377 58.523 112.298 58.8527 112.298 59.2273V64H111.125ZM125.54 64.179C125.056 64.179 124.617 64.0878 124.222 63.9055C123.828 63.7199 123.515 63.4531 123.283 63.1051C123.051 62.7538 122.935 62.3295 122.935 61.8324C122.935 61.3949 123.021 61.0402 123.193 60.7685C123.366 60.4934 123.596 60.2779 123.884 60.1222C124.173 59.9664 124.491 59.8504 124.839 59.7741C125.19 59.6946 125.543 59.6316 125.898 59.5852C126.362 59.5256 126.738 59.4808 127.026 59.451C127.318 59.4179 127.53 59.3632 127.663 59.2869C127.799 59.2107 127.866 59.0781 127.866 58.8892V58.8494C127.866 58.3589 127.732 57.9777 127.464 57.706C127.199 57.4342 126.796 57.2983 126.256 57.2983C125.696 57.2983 125.256 57.4209 124.938 57.6662C124.62 57.9115 124.396 58.1733 124.267 58.4517L123.153 58.054C123.352 57.59 123.617 57.2287 123.949 56.9702C124.284 56.7083 124.648 56.526 125.043 56.4233C125.44 56.3172 125.831 56.2642 126.216 56.2642C126.461 56.2642 126.743 56.294 127.061 56.3537C127.383 56.41 127.692 56.5277 127.991 56.7067C128.292 56.8857 128.543 57.1558 128.741 57.517C128.94 57.8783 129.04 58.3622 129.04 58.9688V64H127.866V62.9659H127.807C127.727 63.1316 127.595 63.3089 127.409 63.4979C127.223 63.6868 126.977 63.8475 126.668 63.9801C126.36 64.1127 125.984 64.179 125.54 64.179ZM125.719 63.125C126.183 63.125 126.574 63.0339 126.892 62.8516C127.214 62.6693 127.455 62.4339 127.618 62.1456C127.784 61.8572 127.866 61.554 127.866 61.2358V60.1619C127.817 60.2216 127.707 60.2763 127.538 60.326C127.373 60.3724 127.18 60.4138 126.962 60.4503C126.746 60.4834 126.536 60.5133 126.33 60.5398C126.128 60.563 125.964 60.5829 125.838 60.5994C125.533 60.6392 125.248 60.7038 124.983 60.7933C124.721 60.8795 124.509 61.0104 124.347 61.1861C124.188 61.3584 124.108 61.5937 124.108 61.892C124.108 62.2997 124.259 62.608 124.56 62.8168C124.865 63.0223 125.251 63.125 125.719 63.125ZM132.355 59.4062V64H131.181V56.3636H132.315V57.5568H132.414C132.593 57.169 132.865 56.8575 133.23 56.6222C133.594 56.3835 134.065 56.2642 134.642 56.2642C135.159 56.2642 135.611 56.3703 135.999 56.5824C136.387 56.7912 136.688 57.1094 136.904 57.5369C137.119 57.9612 137.227 58.4981 137.227 59.1477V64H136.053V59.2273C136.053 58.6274 135.898 58.16 135.586 57.8253C135.275 57.4872 134.847 57.3182 134.303 57.3182C133.929 57.3182 133.594 57.3994 133.299 57.5618C133.008 57.7242 132.777 57.9612 132.608 58.2727C132.439 58.5843 132.355 58.9621 132.355 59.4062ZM141.618 64.179C141.134 64.179 140.695 64.0878 140.3 63.9055C139.906 63.7199 139.593 63.4531 139.361 63.1051C139.129 62.7538 139.013 62.3295 139.013 61.8324C139.013 61.3949 139.099 61.0402 139.271 60.7685C139.444 60.4934 139.674 60.2779 139.962 60.1222C140.251 59.9664 140.569 59.8504 140.917 59.7741C141.268 59.6946 141.621 59.6316 141.976 59.5852C142.44 59.5256 142.816 59.4808 143.104 59.451C143.396 59.4179 143.608 59.3632 143.741 59.2869C143.877 59.2107 143.945 59.0781 143.945 58.8892V58.8494C143.945 58.3589 143.81 57.9777 143.542 57.706C143.277 57.4342 142.874 57.2983 142.334 57.2983C141.774 57.2983 141.335 57.4209 141.016 57.6662C140.698 57.9115 140.474 58.1733 140.345 58.4517L139.232 58.054C139.43 57.59 139.696 57.2287 140.027 56.9702C140.362 56.7083 140.726 56.526 141.121 56.4233C141.518 56.3172 141.91 56.2642 142.294 56.2642C142.539 56.2642 142.821 56.294 143.139 56.3537C143.461 56.41 143.771 56.5277 144.069 56.7067C144.371 56.8857 144.621 57.1558 144.82 57.517C145.018 57.8783 145.118 58.3622 145.118 58.9688V64H143.945V62.9659H143.885C143.805 63.1316 143.673 63.3089 143.487 63.4979C143.302 63.6868 143.055 63.8475 142.746 63.9801C142.438 64.1127 142.062 64.179 141.618 64.179ZM141.797 63.125C142.261 63.125 142.652 63.0339 142.97 62.8516C143.292 62.6693 143.534 62.4339 143.696 62.1456C143.862 61.8572 143.945 61.554 143.945 61.2358V60.1619C143.895 60.2216 143.786 60.2763 143.616 60.326C143.451 60.3724 143.259 60.4138 143.04 60.4503C142.824 60.4834 142.614 60.5133 142.408 60.5398C142.206 60.563 142.042 60.5829 141.916 60.5994C141.611 60.6392 141.326 60.7038 141.061 60.7933C140.799 60.8795 140.587 61.0104 140.425 61.1861C140.266 61.3584 140.186 61.5937 140.186 61.892C140.186 62.2997 140.337 62.608 140.638 62.8168C140.943 63.0223 141.33 63.125 141.797 63.125ZM150.342 67.0227C149.775 67.0227 149.288 66.9498 148.88 66.804C148.472 66.6615 148.133 66.4725 147.861 66.2372C147.593 66.0052 147.379 65.7566 147.22 65.4915L148.154 64.8352C148.26 64.9744 148.395 65.1335 148.557 65.3125C148.719 65.4948 148.941 65.6522 149.223 65.7848C149.508 65.9207 149.881 65.9886 150.342 65.9886C150.958 65.9886 151.467 65.8395 151.868 65.5412C152.269 65.2429 152.47 64.7756 152.47 64.1392V62.5881H152.37C152.284 62.7273 152.161 62.8996 152.002 63.1051C151.847 63.3073 151.621 63.4879 151.326 63.647C151.035 63.8028 150.64 63.8807 150.143 63.8807C149.526 63.8807 148.973 63.7348 148.482 63.4432C147.995 63.1515 147.609 62.7273 147.324 62.1705C147.042 61.6136 146.901 60.9375 146.901 60.142C146.901 59.3598 147.039 58.6787 147.314 58.0987C147.589 57.5154 147.972 57.0646 148.463 56.7464C148.953 56.425 149.52 56.2642 150.163 56.2642C150.66 56.2642 151.054 56.3471 151.346 56.5128C151.641 56.6752 151.866 56.8608 152.022 57.0696C152.181 57.2751 152.304 57.4441 152.39 57.5767H152.509V56.3636H153.643V64.2188C153.643 64.875 153.494 65.4086 153.195 65.8196C152.901 66.2339 152.503 66.5372 152.002 66.7294C151.505 66.925 150.952 67.0227 150.342 67.0227ZM150.302 62.8267C150.773 62.8267 151.17 62.719 151.495 62.5036C151.82 62.2881 152.067 61.9782 152.236 61.5739C152.405 61.1695 152.49 60.6856 152.49 60.1222C152.49 59.572 152.407 59.0864 152.241 58.6655C152.075 58.2446 151.83 57.9148 151.505 57.6761C151.18 57.4375 150.779 57.3182 150.302 57.3182C149.805 57.3182 149.391 57.4441 149.059 57.696C148.731 57.9479 148.484 58.286 148.318 58.7102C148.156 59.1345 148.075 59.6051 148.075 60.1222C148.075 60.6525 148.158 61.1214 148.323 61.5291C148.492 61.9335 148.741 62.2517 149.069 62.4837C149.401 62.7124 149.811 62.8267 150.302 62.8267ZM158.992 64.1591C158.257 64.1591 157.622 63.9967 157.088 63.6719C156.558 63.3438 156.149 62.8864 155.86 62.2997C155.575 61.7098 155.433 61.0237 155.433 60.2415C155.433 59.4593 155.575 58.7699 155.86 58.1733C156.149 57.5734 156.55 57.1061 157.063 56.7713C157.58 56.4332 158.184 56.2642 158.873 56.2642C159.271 56.2642 159.664 56.3305 160.051 56.4631C160.439 56.5956 160.792 56.8111 161.11 57.1094C161.428 57.4044 161.682 57.7955 161.871 58.2827C162.06 58.7699 162.154 59.3698 162.154 60.0824V60.5795H156.268V59.5653H160.961C160.961 59.1345 160.875 58.75 160.703 58.4119C160.534 58.0739 160.292 57.8071 159.977 57.6115C159.665 57.416 159.297 57.3182 158.873 57.3182C158.406 57.3182 158.001 57.4342 157.66 57.6662C157.322 57.8949 157.062 58.1932 156.879 58.5611C156.697 58.929 156.606 59.3234 156.606 59.7443V60.4205C156.606 60.9972 156.705 61.486 156.904 61.8871C157.106 62.2848 157.387 62.5881 157.744 62.7969C158.102 63.0024 158.518 63.1051 158.992 63.1051C159.301 63.1051 159.579 63.062 159.828 62.9759C160.079 62.8864 160.297 62.7538 160.479 62.5781C160.661 62.3991 160.802 62.1771 160.901 61.9119L162.035 62.2301C161.916 62.6146 161.715 62.9527 161.433 63.2443C161.152 63.5327 160.804 63.758 160.389 63.9205C159.975 64.0795 159.509 64.1591 158.992 64.1591ZM170.124 64.179C169.64 64.179 169.201 64.0878 168.806 63.9055C168.412 63.7199 168.099 63.4531 167.867 63.1051C167.635 62.7538 167.519 62.3295 167.519 61.8324C167.519 61.3949 167.605 61.0402 167.777 60.7685C167.95 60.4934 168.18 60.2779 168.468 60.1222C168.757 59.9664 169.075 59.8504 169.423 59.7741C169.774 59.6946 170.127 59.6316 170.482 59.5852C170.946 59.5256 171.322 59.4808 171.61 59.451C171.902 59.4179 172.114 59.3632 172.247 59.2869C172.383 59.2107 172.45 59.0781 172.45 58.8892V58.8494C172.45 58.3589 172.316 57.9777 172.048 57.706C171.783 57.4342 171.38 57.2983 170.84 57.2983C170.28 57.2983 169.84 57.4209 169.522 57.6662C169.204 57.9115 168.98 58.1733 168.851 58.4517L167.737 58.054C167.936 57.59 168.201 57.2287 168.533 56.9702C168.868 56.7083 169.232 56.526 169.627 56.4233C170.024 56.3172 170.415 56.2642 170.8 56.2642C171.045 56.2642 171.327 56.294 171.645 56.3537C171.967 56.41 172.276 56.5277 172.575 56.7067C172.876 56.8857 173.127 57.1558 173.325 57.517C173.524 57.8783 173.624 58.3622 173.624 58.9688V64H172.45V62.9659H172.391C172.311 63.1316 172.179 63.3089 171.993 63.4979C171.807 63.6868 171.561 63.8475 171.252 63.9801C170.944 64.1127 170.568 64.179 170.124 64.179ZM170.303 63.125C170.767 63.125 171.158 63.0339 171.476 62.8516C171.798 62.6693 172.039 62.4339 172.202 62.1456C172.368 61.8572 172.45 61.554 172.45 61.2358V60.1619C172.401 60.2216 172.291 60.2763 172.122 60.326C171.957 60.3724 171.764 60.4138 171.546 60.4503C171.33 60.4834 171.12 60.5133 170.914 60.5398C170.712 60.563 170.548 60.5829 170.422 60.5994C170.117 60.6392 169.832 60.7038 169.567 60.7933C169.305 60.8795 169.093 61.0104 168.931 61.1861C168.771 61.3584 168.692 61.5937 168.692 61.892C168.692 62.2997 168.843 62.608 169.144 62.8168C169.449 63.0223 169.835 63.125 170.303 63.125ZM182.785 67.0227C182.218 67.0227 181.731 66.9498 181.324 66.804C180.916 66.6615 180.576 66.4725 180.304 66.2372C180.036 66.0052 179.822 65.7566 179.663 65.4915L180.598 64.8352C180.704 64.9744 180.838 65.1335 181 65.3125C181.163 65.4948 181.385 65.6522 181.667 65.7848C181.952 65.9207 182.324 65.9886 182.785 65.9886C183.402 65.9886 183.91 65.8395 184.311 65.5412C184.712 65.2429 184.913 64.7756 184.913 64.1392V62.5881H184.814C184.727 62.7273 184.605 62.8996 184.446 63.1051C184.29 63.3073 184.065 63.4879 183.77 63.647C183.478 63.8028 183.083 63.8807 182.586 63.8807C181.97 63.8807 181.416 63.7348 180.926 63.4432C180.439 63.1515 180.052 62.7273 179.767 62.1705C179.486 61.6136 179.345 60.9375 179.345 60.142C179.345 59.3598 179.482 58.6787 179.757 58.0987C180.033 57.5154 180.415 57.0646 180.906 56.7464C181.396 56.425 181.963 56.2642 182.606 56.2642C183.103 56.2642 183.498 56.3471 183.789 56.5128C184.084 56.6752 184.31 56.8608 184.466 57.0696C184.625 57.2751 184.747 57.4441 184.833 57.5767H184.953V56.3636H186.086V64.2188C186.086 64.875 185.937 65.4086 185.639 65.8196C185.344 66.2339 184.946 66.5372 184.446 66.7294C183.949 66.925 183.395 67.0227 182.785 67.0227ZM182.745 62.8267C183.216 62.8267 183.614 62.719 183.939 62.5036C184.263 62.2881 184.51 61.9782 184.679 61.5739C184.848 61.1695 184.933 60.6856 184.933 60.1222C184.933 59.572 184.85 59.0864 184.684 58.6655C184.519 58.2446 184.273 57.9148 183.949 57.6761C183.624 57.4375 183.223 57.3182 182.745 57.3182C182.248 57.3182 181.834 57.4441 181.502 57.696C181.174 57.9479 180.927 58.286 180.762 58.7102C180.599 59.1345 180.518 59.6051 180.518 60.1222C180.518 60.6525 180.601 61.1214 180.767 61.5291C180.936 61.9335 181.184 62.2517 181.512 62.4837C181.844 62.7124 182.255 62.8267 182.745 62.8267ZM188.234 64V56.3636H189.368V57.517H189.447C189.586 57.1392 189.838 56.8326 190.203 56.5973C190.567 56.362 190.978 56.2443 191.436 56.2443C191.522 56.2443 191.63 56.246 191.759 56.2493C191.888 56.2526 191.986 56.2576 192.052 56.2642V57.4574C192.012 57.4474 191.921 57.4325 191.779 57.4126C191.64 57.3894 191.492 57.3778 191.336 57.3778C190.965 57.3778 190.634 57.4557 190.342 57.6115C190.054 57.764 189.825 57.9761 189.656 58.2479C189.49 58.5163 189.407 58.8229 189.407 59.1676V64H188.234ZM196.313 64.1591C195.623 64.1591 195.019 63.995 194.498 63.6669C193.981 63.3388 193.577 62.8797 193.285 62.2898C192.997 61.6998 192.853 61.0104 192.853 60.2216C192.853 59.4261 192.997 58.7318 193.285 58.1385C193.577 57.5452 193.981 57.0845 194.498 56.7564C195.019 56.4283 195.623 56.2642 196.313 56.2642C197.002 56.2642 197.605 56.4283 198.123 56.7564C198.643 57.0845 199.047 57.5452 199.336 58.1385C199.627 58.7318 199.773 59.4261 199.773 60.2216C199.773 61.0104 199.627 61.6998 199.336 62.2898C199.047 62.8797 198.643 63.3388 198.123 63.6669C197.605 63.995 197.002 64.1591 196.313 64.1591ZM196.313 63.1051C196.837 63.1051 197.267 62.9709 197.605 62.7024C197.944 62.4339 198.194 62.081 198.356 61.6435C198.519 61.206 198.6 60.732 198.6 60.2216C198.6 59.7112 198.519 59.2356 198.356 58.7947C198.194 58.3539 197.944 57.9976 197.605 57.7259C197.267 57.4541 196.837 57.3182 196.313 57.3182C195.789 57.3182 195.358 57.4541 195.02 57.7259C194.682 57.9976 194.432 58.3539 194.27 58.7947C194.107 59.2356 194.026 59.7112 194.026 60.2216C194.026 60.732 194.107 61.206 194.27 61.6435C194.432 62.081 194.682 62.4339 195.02 62.7024C195.358 62.9709 195.789 63.1051 196.313 63.1051ZM206.377 60.8778V56.3636H207.55V64H206.377V62.7074H206.297C206.118 63.0952 205.84 63.425 205.462 63.6967C205.084 63.9652 204.607 64.0994 204.03 64.0994C203.553 64.0994 203.128 63.995 202.757 63.7862C202.386 63.5741 202.094 63.2559 201.882 62.8317C201.67 62.4041 201.564 61.8655 201.564 61.2159V56.3636H202.737V61.1364C202.737 61.6932 202.893 62.1373 203.205 62.4688C203.52 62.8002 203.921 62.9659 204.408 62.9659C204.7 62.9659 204.996 62.8913 205.298 62.7422C205.603 62.593 205.858 62.3643 206.063 62.0561C206.272 61.7479 206.377 61.3551 206.377 60.8778ZM209.699 66.8636V56.3636H210.832V57.5767H210.972C211.058 57.4441 211.177 57.2751 211.33 57.0696C211.485 56.8608 211.707 56.6752 211.996 56.5128C212.287 56.3471 212.682 56.2642 213.179 56.2642C213.822 56.2642 214.389 56.425 214.879 56.7464C215.37 57.0679 215.753 57.5237 216.028 58.1136C216.303 58.7036 216.44 59.3996 216.44 60.2017C216.44 61.0104 216.303 61.7114 216.028 62.3047C215.753 62.8946 215.371 63.352 214.884 63.6768C214.397 63.9983 213.835 64.1591 213.199 64.1591C212.708 64.1591 212.316 64.0779 212.021 63.9155C211.726 63.7498 211.499 63.5625 211.339 63.3537C211.18 63.1416 211.058 62.9659 210.972 62.8267H210.872V66.8636H209.699ZM210.852 60.1818C210.852 60.7585 210.937 61.2673 211.106 61.7081C211.275 62.1456 211.522 62.4886 211.847 62.7372C212.171 62.9825 212.569 63.1051 213.04 63.1051C213.53 63.1051 213.94 62.9759 214.268 62.7173C214.599 62.4555 214.848 62.1042 215.013 61.6634C215.183 61.2192 215.267 60.7254 215.267 60.1818C215.267 59.6449 215.184 59.161 215.018 58.7301C214.856 58.2959 214.609 57.9529 214.278 57.701C213.95 57.4458 213.537 57.3182 213.04 57.3182C212.563 57.3182 212.161 57.4392 211.837 57.6811C211.512 57.9197 211.267 58.2545 211.101 58.6854C210.935 59.1129 210.852 59.6117 210.852 60.1818ZM225.27 64.1591C224.58 64.1591 223.976 63.995 223.455 63.6669C222.938 63.3388 222.534 62.8797 222.242 62.2898C221.954 61.6998 221.81 61.0104 221.81 60.2216C221.81 59.4261 221.954 58.7318 222.242 58.1385C222.534 57.5452 222.938 57.0845 223.455 56.7564C223.976 56.4283 224.58 56.2642 225.27 56.2642C225.959 56.2642 226.563 56.4283 227.08 56.7564C227.6 57.0845 228.004 57.5452 228.293 58.1385C228.584 58.7318 228.73 59.4261 228.73 60.2216C228.73 61.0104 228.584 61.6998 228.293 62.2898C228.004 62.8797 227.6 63.3388 227.08 63.6669C226.563 63.995 225.959 64.1591 225.27 64.1591ZM225.27 63.1051C225.794 63.1051 226.224 62.9709 226.562 62.7024C226.901 62.4339 227.151 62.081 227.313 61.6435C227.476 61.206 227.557 60.732 227.557 60.2216C227.557 59.7112 227.476 59.2356 227.313 58.7947C227.151 58.3539 226.901 57.9976 226.562 57.7259C226.224 57.4541 225.794 57.3182 225.27 57.3182C224.746 57.3182 224.315 57.4541 223.977 57.7259C223.639 57.9976 223.389 58.3539 223.227 58.7947C223.064 59.2356 222.983 59.7112 222.983 60.2216C222.983 60.732 223.064 61.206 223.227 61.6435C223.389 62.081 223.639 62.4339 223.977 62.7024C224.315 62.9709 224.746 63.1051 225.27 63.1051ZM233.922 56.3636V57.358H229.805V56.3636H233.922ZM231.038 64V55.3097C231.038 54.8722 231.141 54.5076 231.346 54.2159C231.552 53.9242 231.819 53.7055 232.147 53.5597C232.475 53.4138 232.821 53.3409 233.186 53.3409C233.474 53.3409 233.71 53.3641 233.892 53.4105C234.074 53.4569 234.21 53.5 234.3 53.5398L233.961 54.554C233.902 54.5341 233.819 54.5092 233.713 54.4794C233.61 54.4496 233.474 54.4347 233.305 54.4347C232.917 54.4347 232.637 54.5324 232.465 54.728C232.296 54.9235 232.211 55.2102 232.211 55.5881V64H231.038ZM242.606 64.1591C241.89 64.1591 241.273 63.9901 240.756 63.652C240.239 63.3139 239.842 62.8482 239.563 62.255C239.285 61.6617 239.146 60.9839 239.146 60.2216C239.146 59.446 239.288 58.7616 239.573 58.1683C239.862 57.5717 240.263 57.1061 240.776 56.7713C241.293 56.4332 241.897 56.2642 242.586 56.2642C243.123 56.2642 243.607 56.3636 244.038 56.5625C244.469 56.7614 244.821 57.0398 245.097 57.3977C245.372 57.7557 245.542 58.1733 245.609 58.6506H244.435C244.346 58.3026 244.147 57.9943 243.839 57.7259C243.534 57.4541 243.123 57.3182 242.606 57.3182C242.148 57.3182 241.747 57.4375 241.403 57.6761C241.061 57.9115 240.795 58.2446 240.602 58.6754C240.413 59.103 240.319 59.6051 240.319 60.1818C240.319 60.7718 240.412 61.2855 240.597 61.723C240.786 62.1605 241.051 62.5002 241.393 62.7422C241.737 62.9841 242.142 63.1051 242.606 63.1051C242.911 63.1051 243.188 63.0521 243.436 62.946C243.685 62.84 243.895 62.6875 244.067 62.4886C244.24 62.2898 244.362 62.0511 244.435 61.7727H245.609C245.542 62.2235 245.378 62.6295 245.116 62.9908C244.858 63.3487 244.515 63.6338 244.087 63.8459C243.663 64.0547 243.169 64.1591 242.606 64.1591ZM250.426 64.1591C249.737 64.1591 249.132 63.995 248.612 63.6669C248.094 63.3388 247.69 62.8797 247.398 62.2898C247.11 61.6998 246.966 61.0104 246.966 60.2216C246.966 59.4261 247.11 58.7318 247.398 58.1385C247.69 57.5452 248.094 57.0845 248.612 56.7564C249.132 56.4283 249.737 56.2642 250.426 56.2642C251.116 56.2642 251.719 56.4283 252.236 56.7564C252.756 57.0845 253.161 57.5452 253.449 58.1385C253.741 58.7318 253.886 59.4261 253.886 60.2216C253.886 61.0104 253.741 61.6998 253.449 62.2898C253.161 62.8797 252.756 63.3388 252.236 63.6669C251.719 63.995 251.116 64.1591 250.426 64.1591ZM250.426 63.1051C250.95 63.1051 251.381 62.9709 251.719 62.7024C252.057 62.4339 252.307 62.081 252.469 61.6435C252.632 61.206 252.713 60.732 252.713 60.2216C252.713 59.7112 252.632 59.2356 252.469 58.7947C252.307 58.3539 252.057 57.9976 251.719 57.7259C251.381 57.4541 250.95 57.3182 250.426 57.3182C249.902 57.3182 249.472 57.4541 249.134 57.7259C248.795 57.9976 248.545 58.3539 248.383 58.7947C248.22 59.2356 248.139 59.7112 248.139 60.2216C248.139 60.732 248.22 61.206 248.383 61.6435C248.545 62.081 248.795 62.4339 249.134 62.7024C249.472 62.9709 249.902 63.1051 250.426 63.1051ZM256.851 59.4062V64H255.677V56.3636H256.811V57.5568H256.91C257.089 57.169 257.361 56.8575 257.726 56.6222C258.09 56.3835 258.561 56.2642 259.138 56.2642C259.655 56.2642 260.107 56.3703 260.495 56.5824C260.883 56.7912 261.184 57.1094 261.4 57.5369C261.615 57.9612 261.723 58.4981 261.723 59.1477V64H260.55V59.2273C260.55 58.6274 260.394 58.16 260.082 57.8253C259.771 57.4872 259.343 57.3182 258.8 57.3182C258.425 57.3182 258.09 57.3994 257.795 57.5618C257.504 57.7242 257.273 57.9612 257.104 58.2727C256.935 58.5843 256.851 58.9621 256.851 59.4062ZM269.276 58.0739L268.222 58.3722C268.156 58.1965 268.058 58.0258 267.929 57.8601C267.803 57.6911 267.63 57.5518 267.412 57.4425C267.193 57.3331 266.913 57.2784 266.571 57.2784C266.104 57.2784 265.715 57.3861 265.403 57.6016C265.095 57.8137 264.941 58.0838 264.941 58.4119C264.941 58.7036 265.047 58.9339 265.259 59.103C265.471 59.272 265.802 59.4129 266.253 59.5256L267.387 59.804C268.069 59.9697 268.578 60.2232 268.913 60.5646C269.248 60.9027 269.415 61.3385 269.415 61.8722C269.415 62.3097 269.289 62.7008 269.037 63.0455C268.789 63.3902 268.441 63.6619 267.993 63.8608C267.546 64.0597 267.025 64.1591 266.432 64.1591C265.653 64.1591 265.009 63.9901 264.498 63.652C263.988 63.3139 263.665 62.8201 263.529 62.1705L264.642 61.892C264.748 62.303 264.949 62.6113 265.244 62.8168C265.542 63.0223 265.932 63.125 266.412 63.125C266.959 63.125 267.393 63.009 267.715 62.777C268.04 62.5417 268.202 62.2599 268.202 61.9318C268.202 61.6667 268.109 61.4446 267.924 61.2656C267.738 61.0833 267.453 60.9474 267.069 60.858L265.796 60.5597C265.096 60.3939 264.583 60.1371 264.255 59.7891C263.93 59.4377 263.767 58.9986 263.767 58.4716C263.767 58.0407 263.888 57.6596 264.13 57.3281C264.376 56.9967 264.709 56.7365 265.13 56.5476C265.554 56.3587 266.034 56.2642 266.571 56.2642C267.327 56.2642 267.92 56.4299 268.351 56.7614C268.785 57.0928 269.094 57.5303 269.276 58.0739ZM275.994 60.8778V56.3636H277.167V64H275.994V62.7074H275.914C275.735 63.0952 275.457 63.425 275.079 63.6967C274.701 63.9652 274.224 64.0994 273.647 64.0994C273.17 64.0994 272.746 63.995 272.374 63.7862C272.003 63.5741 271.712 63.2559 271.499 62.8317C271.287 62.4041 271.181 61.8655 271.181 61.2159V56.3636H272.355V61.1364C272.355 61.6932 272.51 62.1373 272.822 62.4688C273.137 62.8002 273.538 62.9659 274.025 62.9659C274.317 62.9659 274.613 62.8913 274.915 62.7422C275.22 62.593 275.475 62.3643 275.681 62.0561C275.889 61.7479 275.994 61.3551 275.994 60.8778ZM280.489 53.8182V64H279.316V53.8182H280.489ZM285.959 56.3636V57.358H282.002V56.3636H285.959ZM283.155 54.5341H284.329V61.8125C284.329 62.1439 284.377 62.3925 284.473 62.5582C284.572 62.7206 284.698 62.83 284.851 62.8864C285.006 62.9394 285.171 62.9659 285.343 62.9659C285.472 62.9659 285.578 62.9593 285.661 62.946C285.744 62.9295 285.81 62.9162 285.86 62.9062L286.099 63.9602C286.019 63.9901 285.908 64.0199 285.765 64.0497C285.623 64.0829 285.442 64.0994 285.224 64.0994C284.892 64.0994 284.567 64.0282 284.249 63.8857C283.934 63.7431 283.672 63.526 283.464 63.2344C283.258 62.9427 283.155 62.5748 283.155 62.1307V54.5341ZM289.971 64.179C289.488 64.179 289.048 64.0878 288.654 63.9055C288.26 63.7199 287.946 63.4531 287.714 63.1051C287.482 62.7538 287.366 62.3295 287.366 61.8324C287.366 61.3949 287.452 61.0402 287.625 60.7685C287.797 60.4934 288.028 60.2779 288.316 60.1222C288.604 59.9664 288.922 59.8504 289.27 59.7741C289.622 59.6946 289.975 59.6316 290.329 59.5852C290.793 59.5256 291.17 59.4808 291.458 59.451C291.75 59.4179 291.962 59.3632 292.094 59.2869C292.23 59.2107 292.298 59.0781 292.298 58.8892V58.8494C292.298 58.3589 292.164 57.9777 291.895 57.706C291.63 57.4342 291.228 57.2983 290.687 57.2983C290.127 57.2983 289.688 57.4209 289.37 57.6662C289.052 57.9115 288.828 58.1733 288.699 58.4517L287.585 58.054C287.784 57.59 288.049 57.2287 288.381 56.9702C288.715 56.7083 289.08 56.526 289.474 56.4233C289.872 56.3172 290.263 56.2642 290.648 56.2642C290.893 56.2642 291.175 56.294 291.493 56.3537C291.814 56.41 292.124 56.5277 292.422 56.7067C292.724 56.8857 292.974 57.1558 293.173 57.517C293.372 57.8783 293.471 58.3622 293.471 58.9688V64H292.298V62.9659H292.238C292.159 63.1316 292.026 63.3089 291.841 63.4979C291.655 63.6868 291.408 63.8475 291.1 63.9801C290.792 64.1127 290.416 64.179 289.971 64.179ZM290.15 63.125C290.614 63.125 291.006 63.0339 291.324 62.8516C291.645 62.6693 291.887 62.4339 292.05 62.1456C292.215 61.8572 292.298 61.554 292.298 61.2358V60.1619C292.248 60.2216 292.139 60.2763 291.97 60.326C291.804 60.3724 291.612 60.4138 291.393 60.4503C291.178 60.4834 290.967 60.5133 290.762 60.5398C290.56 60.563 290.396 60.5829 290.27 60.5994C289.965 60.6392 289.68 60.7038 289.415 60.7933C289.153 60.8795 288.941 61.0104 288.778 61.1861C288.619 61.3584 288.54 61.5937 288.54 61.892C288.54 62.2997 288.69 62.608 288.992 62.8168C289.297 63.0223 289.683 63.125 290.15 63.125ZM296.786 59.4062V64H295.613V56.3636H296.746V57.5568H296.846C297.025 57.169 297.297 56.8575 297.661 56.6222C298.026 56.3835 298.496 56.2642 299.073 56.2642C299.59 56.2642 300.043 56.3703 300.43 56.5824C300.818 56.7912 301.12 57.1094 301.335 57.5369C301.551 57.9612 301.658 58.4981 301.658 59.1477V64H300.485V59.2273C300.485 58.6274 300.329 58.16 300.018 57.8253C299.706 57.4872 299.279 57.3182 298.735 57.3182C298.361 57.3182 298.026 57.3994 297.731 57.5618C297.439 57.7242 297.209 57.9612 297.04 58.2727C296.871 58.5843 296.786 58.9621 296.786 59.4062ZM307.123 56.3636V57.358H303.166V56.3636H307.123ZM304.319 54.5341H305.493V61.8125C305.493 62.1439 305.541 62.3925 305.637 62.5582C305.736 62.7206 305.862 62.83 306.015 62.8864C306.171 62.9394 306.335 62.9659 306.507 62.9659C306.636 62.9659 306.742 62.9593 306.825 62.946C306.908 62.9295 306.974 62.9162 307.024 62.9062L307.263 63.9602C307.183 63.9901 307.072 64.0199 306.93 64.0497C306.787 64.0829 306.606 64.0994 306.388 64.0994C306.056 64.0994 305.731 64.0282 305.413 63.8857C305.098 63.7431 304.836 63.526 304.628 63.2344C304.422 62.9427 304.319 62.5748 304.319 62.1307V54.5341ZM314.161 58.0739L313.107 58.3722C313.04 58.1965 312.943 58.0258 312.813 57.8601C312.687 57.6911 312.515 57.5518 312.296 57.4425C312.078 57.3331 311.798 57.2784 311.456 57.2784C310.989 57.2784 310.599 57.3861 310.288 57.6016C309.98 57.8137 309.825 58.0838 309.825 58.4119C309.825 58.7036 309.932 58.9339 310.144 59.103C310.356 59.272 310.687 59.4129 311.138 59.5256L312.271 59.804C312.954 59.9697 313.463 60.2232 313.798 60.5646C314.133 60.9027 314.3 61.3385 314.3 61.8722C314.3 62.3097 314.174 62.7008 313.922 63.0455C313.673 63.3902 313.325 63.6619 312.878 63.8608C312.431 64.0597 311.91 64.1591 311.317 64.1591C310.538 64.1591 309.893 63.9901 309.383 63.652C308.873 63.3139 308.549 62.8201 308.414 62.1705L309.527 61.892C309.633 62.303 309.834 62.6113 310.129 62.8168C310.427 63.0223 310.816 63.125 311.297 63.125C311.844 63.125 312.278 63.009 312.6 62.777C312.924 62.5417 313.087 62.2599 313.087 61.9318C313.087 61.6667 312.994 61.4446 312.808 61.2656C312.623 61.0833 312.338 60.9474 311.953 60.858L310.681 60.5597C309.981 60.3939 309.468 60.1371 309.139 59.7891C308.815 59.4377 308.652 58.9986 308.652 58.4716C308.652 58.0407 308.773 57.6596 309.015 57.3281C309.26 56.9967 309.593 56.7365 310.014 56.5476C310.439 56.3587 310.919 56.2642 311.456 56.2642C312.212 56.2642 312.805 56.4299 313.236 56.7614C313.67 57.0928 313.978 57.5303 314.161 58.0739ZM105.212 81L102.885 73.3636H104.118L105.769 79.2102H105.849L107.479 73.3636H108.732L110.343 79.1903H110.422L112.073 73.3636H113.306L110.979 81H109.826L108.155 75.1335H108.036L106.366 81H105.212ZM116.03 76.4062V81H114.857V70.8182H116.03V74.5568H116.13C116.309 74.1624 116.577 73.8492 116.935 73.6172C117.296 73.3819 117.777 73.2642 118.377 73.2642C118.897 73.2642 119.353 73.3686 119.744 73.5774C120.135 73.7829 120.439 74.0994 120.654 74.527C120.873 74.9512 120.982 75.4915 120.982 76.1477V81H119.809V76.2273C119.809 75.6207 119.651 75.1518 119.336 74.8203C119.025 74.4856 118.592 74.3182 118.039 74.3182C117.654 74.3182 117.31 74.3994 117.005 74.5618C116.703 74.7242 116.465 74.9612 116.289 75.2727C116.117 75.5843 116.03 75.9621 116.03 76.4062ZM126.231 81.1591C125.541 81.1591 124.937 80.995 124.416 80.6669C123.899 80.3388 123.495 79.8797 123.203 79.2898C122.915 78.6998 122.771 78.0104 122.771 77.2216C122.771 76.4261 122.915 75.7318 123.203 75.1385C123.495 74.5452 123.899 74.0845 124.416 73.7564C124.937 73.4283 125.541 73.2642 126.231 73.2642C126.92 73.2642 127.523 73.4283 128.04 73.7564C128.561 74.0845 128.965 74.5452 129.254 75.1385C129.545 75.7318 129.691 76.4261 129.691 77.2216C129.691 78.0104 129.545 78.6998 129.254 79.2898C128.965 79.8797 128.561 80.3388 128.04 80.6669C127.523 80.995 126.92 81.1591 126.231 81.1591ZM126.231 80.1051C126.754 80.1051 127.185 79.9709 127.523 79.7024C127.862 79.4339 128.112 79.081 128.274 78.6435C128.437 78.206 128.518 77.732 128.518 77.2216C128.518 76.7112 128.437 76.2356 128.274 75.7947C128.112 75.3539 127.862 74.9976 127.523 74.7259C127.185 74.4541 126.754 74.3182 126.231 74.3182C125.707 74.3182 125.276 74.4541 124.938 74.7259C124.6 74.9976 124.35 75.3539 124.188 75.7947C124.025 76.2356 123.944 76.7112 123.944 77.2216C123.944 77.732 124.025 78.206 124.188 78.6435C124.35 79.081 124.6 79.4339 124.938 79.7024C125.276 79.9709 125.707 80.1051 126.231 80.1051ZM138.522 81.1591C137.806 81.1591 137.189 80.9901 136.672 80.652C136.155 80.3139 135.758 79.8482 135.479 79.255C135.201 78.6617 135.062 77.9839 135.062 77.2216C135.062 76.446 135.204 75.7616 135.489 75.1683C135.778 74.5717 136.179 74.1061 136.692 73.7713C137.209 73.4332 137.813 73.2642 138.502 73.2642C139.039 73.2642 139.523 73.3636 139.954 73.5625C140.385 73.7614 140.738 74.0398 141.013 74.3977C141.288 74.7557 141.458 75.1733 141.525 75.6506H140.351C140.262 75.3026 140.063 74.9943 139.755 74.7259C139.45 74.4541 139.039 74.3182 138.522 74.3182C138.064 74.3182 137.663 74.4375 137.319 74.6761C136.977 74.9115 136.711 75.2446 136.518 75.6754C136.329 76.103 136.235 76.6051 136.235 77.1818C136.235 77.7718 136.328 78.2855 136.513 78.723C136.702 79.1605 136.967 79.5002 137.309 79.7422C137.653 79.9841 138.058 80.1051 138.522 80.1051C138.827 80.1051 139.104 80.0521 139.352 79.946C139.601 79.84 139.811 79.6875 139.983 79.4886C140.156 79.2898 140.278 79.0511 140.351 78.7727H141.525C141.458 79.2235 141.294 79.6295 141.032 79.9908C140.774 80.3487 140.431 80.6338 140.003 80.8459C139.579 81.0547 139.085 81.1591 138.522 81.1591ZM145.487 81.179C145.003 81.179 144.564 81.0878 144.17 80.9055C143.775 80.7199 143.462 80.4531 143.23 80.1051C142.998 79.7538 142.882 79.3295 142.882 78.8324C142.882 78.3949 142.968 78.0402 143.14 77.7685C143.313 77.4934 143.543 77.2779 143.831 77.1222C144.12 76.9664 144.438 76.8504 144.786 76.7741C145.137 76.6946 145.49 76.6316 145.845 76.5852C146.309 76.5256 146.685 76.4808 146.974 76.451C147.265 76.4179 147.477 76.3632 147.61 76.2869C147.746 76.2107 147.814 76.0781 147.814 75.8892V75.8494C147.814 75.3589 147.68 74.9777 147.411 74.706C147.146 74.4342 146.743 74.2983 146.203 74.2983C145.643 74.2983 145.204 74.4209 144.885 74.6662C144.567 74.9115 144.344 75.1733 144.214 75.4517L143.101 75.054C143.3 74.59 143.565 74.2287 143.896 73.9702C144.231 73.7083 144.595 73.526 144.99 73.4233C145.388 73.3172 145.779 73.2642 146.163 73.2642C146.408 73.2642 146.69 73.294 147.008 73.3537C147.33 73.41 147.64 73.5277 147.938 73.7067C148.24 73.8857 148.49 74.1558 148.689 74.517C148.888 74.8783 148.987 75.3622 148.987 75.9688V81H147.814V79.9659H147.754C147.675 80.1316 147.542 80.3089 147.356 80.4979C147.171 80.6868 146.924 80.8475 146.616 80.9801C146.307 81.1127 145.931 81.179 145.487 81.179ZM145.666 80.125C146.13 80.125 146.521 80.0339 146.839 79.8516C147.161 79.6693 147.403 79.4339 147.565 79.1456C147.731 78.8572 147.814 78.554 147.814 78.2358V77.1619C147.764 77.2216 147.655 77.2763 147.486 77.326C147.32 77.3724 147.128 77.4138 146.909 77.4503C146.693 77.4834 146.483 77.5133 146.278 77.5398C146.075 77.563 145.911 77.5829 145.785 77.5994C145.48 77.6392 145.195 77.7038 144.93 77.7933C144.668 77.8795 144.456 78.0104 144.294 78.1861C144.135 78.3584 144.055 78.5937 144.055 78.892C144.055 79.2997 144.206 79.608 144.508 79.8168C144.813 80.0223 145.199 80.125 145.666 80.125ZM152.302 76.4062V81H151.129V73.3636H152.262V74.5568H152.362C152.54 74.169 152.812 73.8575 153.177 73.6222C153.541 73.3835 154.012 73.2642 154.589 73.2642C155.106 73.2642 155.558 73.3703 155.946 73.5824C156.334 73.7912 156.635 74.1094 156.851 74.5369C157.066 74.9612 157.174 75.4981 157.174 76.1477V81H156.001V76.2273C156.001 75.6274 155.845 75.16 155.533 74.8253C155.222 74.4872 154.794 74.3182 154.251 74.3182C153.876 74.3182 153.541 74.3994 153.246 74.5618C152.955 74.7242 152.724 74.9612 152.555 75.2727C152.386 75.5843 152.302 75.9621 152.302 76.4062ZM168.665 75.0739L167.611 75.3722C167.544 75.1965 167.447 75.0258 167.317 74.8601C167.191 74.6911 167.019 74.5518 166.8 74.4425C166.581 74.3331 166.301 74.2784 165.96 74.2784C165.493 74.2784 165.103 74.3861 164.792 74.6016C164.483 74.8137 164.329 75.0838 164.329 75.4119C164.329 75.7036 164.435 75.9339 164.648 76.103C164.86 76.272 165.191 76.4129 165.642 76.5256L166.775 76.804C167.458 76.9697 167.967 77.2232 168.302 77.5646C168.636 77.9027 168.804 78.3385 168.804 78.8722C168.804 79.3097 168.678 79.7008 168.426 80.0455C168.177 80.3902 167.829 80.6619 167.382 80.8608C166.934 81.0597 166.414 81.1591 165.821 81.1591C165.042 81.1591 164.397 80.9901 163.887 80.652C163.376 80.3139 163.053 79.8201 162.917 79.1705L164.031 78.892C164.137 79.303 164.338 79.6113 164.633 79.8168C164.931 80.0223 165.32 80.125 165.801 80.125C166.348 80.125 166.782 80.009 167.104 79.777C167.428 79.5417 167.591 79.2599 167.591 78.9318C167.591 78.6667 167.498 78.4446 167.312 78.2656C167.127 78.0833 166.842 77.9474 166.457 77.858L165.184 77.5597C164.485 77.3939 163.971 77.1371 163.643 76.7891C163.318 76.4377 163.156 75.9986 163.156 75.4716C163.156 75.0407 163.277 74.6596 163.519 74.3281C163.764 73.9967 164.097 73.7365 164.518 73.5476C164.943 73.3587 165.423 73.2642 165.96 73.2642C166.716 73.2642 167.309 73.4299 167.74 73.7614C168.174 74.0928 168.482 74.5303 168.665 75.0739ZM175.382 77.8778V73.3636H176.556V81H175.382V79.7074H175.303C175.124 80.0952 174.846 80.425 174.468 80.6967C174.09 80.9652 173.613 81.0994 173.036 81.0994C172.559 81.0994 172.134 80.995 171.763 80.7862C171.392 80.5741 171.1 80.2559 170.888 79.8317C170.676 79.4041 170.57 78.8655 170.57 78.2159V73.3636H171.743V78.1364C171.743 78.6932 171.899 79.1373 172.211 79.4688C172.525 79.8002 172.926 79.9659 173.414 79.9659C173.705 79.9659 174.002 79.8913 174.304 79.7422C174.609 79.593 174.864 79.3643 175.069 79.0561C175.278 78.7479 175.382 78.3551 175.382 77.8778ZM178.705 83.8636V73.3636H179.838V74.5767H179.977C180.064 74.4441 180.183 74.2751 180.335 74.0696C180.491 73.8608 180.713 73.6752 181.002 73.5128C181.293 73.3471 181.688 73.2642 182.185 73.2642C182.828 73.2642 183.395 73.425 183.885 73.7464C184.376 74.0679 184.758 74.5237 185.034 75.1136C185.309 75.7036 185.446 76.3996 185.446 77.2017C185.446 78.0104 185.309 78.7114 185.034 79.3047C184.758 79.8946 184.377 80.352 183.89 80.6768C183.403 80.9983 182.841 81.1591 182.205 81.1591C181.714 81.1591 181.321 81.0779 181.026 80.9155C180.731 80.7498 180.504 80.5625 180.345 80.3537C180.186 80.1416 180.064 79.9659 179.977 79.8267H179.878V83.8636H178.705ZM179.858 77.1818C179.858 77.7585 179.943 78.2673 180.112 78.7081C180.281 79.1456 180.528 79.4886 180.852 79.7372C181.177 79.9825 181.575 80.1051 182.046 80.1051C182.536 80.1051 182.945 79.9759 183.274 79.7173C183.605 79.4555 183.854 79.1042 184.019 78.6634C184.188 78.2192 184.273 77.7254 184.273 77.1818C184.273 76.6449 184.19 76.161 184.024 75.7301C183.862 75.2959 183.615 74.9529 183.284 74.701C182.955 74.4458 182.543 74.3182 182.046 74.3182C181.568 74.3182 181.167 74.4392 180.843 74.6811C180.518 74.9197 180.272 75.2545 180.107 75.6854C179.941 76.1129 179.858 76.6117 179.858 77.1818ZM187.236 83.8636V73.3636H188.369V74.5767H188.509C188.595 74.4441 188.714 74.2751 188.867 74.0696C189.022 73.8608 189.244 73.6752 189.533 73.5128C189.825 73.3471 190.219 73.2642 190.716 73.2642C191.359 73.2642 191.926 73.425 192.416 73.7464C192.907 74.0679 193.29 74.5237 193.565 75.1136C193.84 75.7036 193.977 76.3996 193.977 77.2017C193.977 78.0104 193.84 78.7114 193.565 79.3047C193.29 79.8946 192.909 80.352 192.421 80.6768C191.934 80.9983 191.372 81.1591 190.736 81.1591C190.245 81.1591 189.853 81.0779 189.558 80.9155C189.263 80.7498 189.036 80.5625 188.877 80.3537C188.718 80.1416 188.595 79.9659 188.509 79.8267H188.409V83.8636H187.236ZM188.389 77.1818C188.389 77.7585 188.474 78.2673 188.643 78.7081C188.812 79.1456 189.059 79.4886 189.384 79.7372C189.709 79.9825 190.106 80.1051 190.577 80.1051C191.067 80.1051 191.477 79.9759 191.805 79.7173C192.136 79.4555 192.385 79.1042 192.551 78.6634C192.72 78.2192 192.804 77.7254 192.804 77.1818C192.804 76.6449 192.721 76.161 192.556 75.7301C192.393 75.2959 192.146 74.9529 191.815 74.701C191.487 74.4458 191.074 74.3182 190.577 74.3182C190.1 74.3182 189.699 74.4392 189.374 74.6811C189.049 74.9197 188.804 75.2545 188.638 75.6854C188.472 76.1129 188.389 76.6117 188.389 77.1818ZM198.869 81.1591C198.18 81.1591 197.575 80.995 197.055 80.6669C196.538 80.3388 196.133 79.8797 195.842 79.2898C195.553 78.6998 195.409 78.0104 195.409 77.2216C195.409 76.4261 195.553 75.7318 195.842 75.1385C196.133 74.5452 196.538 74.0845 197.055 73.7564C197.575 73.4283 198.18 73.2642 198.869 73.2642C199.559 73.2642 200.162 73.4283 200.679 73.7564C201.2 74.0845 201.604 74.5452 201.892 75.1385C202.184 75.7318 202.33 76.4261 202.33 77.2216C202.33 78.0104 202.184 78.6998 201.892 79.2898C201.604 79.8797 201.2 80.3388 200.679 80.6669C200.162 80.995 199.559 81.1591 198.869 81.1591ZM198.869 80.1051C199.393 80.1051 199.824 79.9709 200.162 79.7024C200.5 79.4339 200.75 79.081 200.913 78.6435C201.075 78.206 201.156 77.732 201.156 77.2216C201.156 76.7112 201.075 76.2356 200.913 75.7947C200.75 75.3539 200.5 74.9976 200.162 74.7259C199.824 74.4541 199.393 74.3182 198.869 74.3182C198.346 74.3182 197.915 74.4541 197.577 74.7259C197.239 74.9976 196.989 75.3539 196.826 75.7947C196.664 76.2356 196.583 76.7112 196.583 77.2216C196.583 77.732 196.664 78.206 196.826 78.6435C196.989 79.081 197.239 79.4339 197.577 79.7024C197.915 79.9709 198.346 80.1051 198.869 80.1051ZM204.121 81V73.3636H205.254V74.517H205.334C205.473 74.1392 205.725 73.8326 206.089 73.5973C206.454 73.362 206.865 73.2443 207.322 73.2443C207.409 73.2443 207.516 73.246 207.646 73.2493C207.775 73.2526 207.873 73.2576 207.939 73.2642V74.4574C207.899 74.4474 207.808 74.4325 207.665 74.4126C207.526 74.3894 207.379 74.3778 207.223 74.3778C206.852 74.3778 206.52 74.4557 206.229 74.6115C205.94 74.764 205.712 74.9761 205.543 75.2479C205.377 75.5163 205.294 75.8229 205.294 76.1676V81H204.121ZM213.129 73.3636V74.358H209.172V73.3636H213.129ZM210.325 71.5341H211.499V78.8125C211.499 79.1439 211.547 79.3925 211.643 79.5582C211.742 79.7206 211.868 79.83 212.021 79.8864C212.176 79.9394 212.34 79.9659 212.513 79.9659C212.642 79.9659 212.748 79.9593 212.831 79.946C212.914 79.9295 212.98 79.9162 213.03 79.9062L213.268 80.9602C213.189 80.9901 213.078 81.0199 212.935 81.0497C212.793 81.0829 212.612 81.0994 212.393 81.0994C212.062 81.0994 211.737 81.0282 211.419 80.8857C211.104 80.7431 210.842 80.526 210.634 80.2344C210.428 79.9427 210.325 79.5748 210.325 79.1307V71.5341ZM220.224 70.8182V81H218.991V70.8182H220.224ZM222.139 71.9119V70.8182H229.775V71.9119H226.574V81H225.341V71.9119H222.139ZM235.457 83.8636V73.3636H236.59V74.5767H236.729C236.816 74.4441 236.935 74.2751 237.087 74.0696C237.243 73.8608 237.465 73.6752 237.754 73.5128C238.045 73.3471 238.44 73.2642 238.937 73.2642C239.58 73.2642 240.147 73.425 240.637 73.7464C241.128 74.0679 241.51 74.5237 241.786 75.1136C242.061 75.7036 242.198 76.3996 242.198 77.2017C242.198 78.0104 242.061 78.7114 241.786 79.3047C241.51 79.8946 241.129 80.352 240.642 80.6768C240.155 80.9983 239.593 81.1591 238.957 81.1591C238.466 81.1591 238.073 81.0779 237.778 80.9155C237.483 80.7498 237.256 80.5625 237.097 80.3537C236.938 80.1416 236.816 79.9659 236.729 79.8267H236.63V83.8636H235.457ZM236.61 77.1818C236.61 77.7585 236.695 78.2673 236.864 78.7081C237.033 79.1456 237.28 79.4886 237.604 79.7372C237.929 79.9825 238.327 80.1051 238.798 80.1051C239.288 80.1051 239.697 79.9759 240.026 79.7173C240.357 79.4555 240.606 79.1042 240.771 78.6634C240.94 78.2192 241.025 77.7254 241.025 77.1818C241.025 76.6449 240.942 76.161 240.776 75.7301C240.614 75.2959 240.367 74.9529 240.036 74.701C239.707 74.4458 239.295 74.3182 238.798 74.3182C238.32 74.3182 237.919 74.4392 237.594 74.6811C237.27 74.9197 237.024 75.2545 236.859 75.6854C236.693 76.1129 236.61 76.6117 236.61 77.1818ZM243.988 81V73.3636H245.121V74.517H245.201C245.34 74.1392 245.592 73.8326 245.957 73.5973C246.321 73.362 246.732 73.2443 247.19 73.2443C247.276 73.2443 247.384 73.246 247.513 73.2493C247.642 73.2526 247.74 73.2576 247.806 73.2642V74.4574C247.766 74.4474 247.675 74.4325 247.533 74.4126C247.393 74.3894 247.246 74.3778 247.09 74.3778C246.719 74.3778 246.388 74.4557 246.096 74.6115C245.808 74.764 245.579 74.9761 245.41 75.2479C245.244 75.5163 245.161 75.8229 245.161 76.1676V81H243.988ZM252.067 81.1591C251.377 81.1591 250.772 80.995 250.252 80.6669C249.735 80.3388 249.331 79.8797 249.039 79.2898C248.751 78.6998 248.607 78.0104 248.607 77.2216C248.607 76.4261 248.751 75.7318 249.039 75.1385C249.331 74.5452 249.735 74.0845 250.252 73.7564C250.772 73.4283 251.377 73.2642 252.067 73.2642C252.756 73.2642 253.359 73.4283 253.876 73.7564C254.397 74.0845 254.801 74.5452 255.089 75.1385C255.381 75.7318 255.527 76.4261 255.527 77.2216C255.527 78.0104 255.381 78.6998 255.089 79.2898C254.801 79.8797 254.397 80.3388 253.876 80.6669C253.359 80.995 252.756 81.1591 252.067 81.1591ZM252.067 80.1051C252.59 80.1051 253.021 79.9709 253.359 79.7024C253.697 79.4339 253.948 79.081 254.11 78.6435C254.272 78.206 254.354 77.732 254.354 77.2216C254.354 76.7112 254.272 76.2356 254.11 75.7947C253.948 75.3539 253.697 74.9976 253.359 74.7259C253.021 74.4541 252.59 74.3182 252.067 74.3182C251.543 74.3182 251.112 74.4541 250.774 74.7259C250.436 74.9976 250.186 75.3539 250.023 75.7947C249.861 76.2356 249.78 76.7112 249.78 77.2216C249.78 77.732 249.861 78.206 250.023 78.6435C250.186 79.081 250.436 79.4339 250.774 79.7024C251.112 79.9709 251.543 80.1051 252.067 80.1051ZM257.318 73.3636H258.491V81.5568C258.491 82.0275 258.41 82.4351 258.248 82.7798C258.089 83.1245 257.847 83.3913 257.522 83.5803C257.2 83.7692 256.794 83.8636 256.304 83.8636C256.264 83.8636 256.224 83.8636 256.184 83.8636C256.145 83.8636 256.105 83.8636 256.065 83.8636V82.7699C256.105 82.7699 256.141 82.7699 256.175 82.7699C256.208 82.7699 256.244 82.7699 256.284 82.7699C256.642 82.7699 256.904 82.6638 257.069 82.4517C257.235 82.2429 257.318 81.9446 257.318 81.5568V73.3636ZM257.895 72.0909C257.666 72.0909 257.469 72.013 257.303 71.8572C257.141 71.7015 257.059 71.5142 257.059 71.2955C257.059 71.0767 257.141 70.8894 257.303 70.7337C257.469 70.5779 257.666 70.5 257.895 70.5C258.123 70.5 258.319 70.5779 258.481 70.7337C258.647 70.8894 258.73 71.0767 258.73 71.2955C258.73 71.5142 258.647 71.7015 258.481 71.8572C258.319 72.013 258.123 72.0909 257.895 72.0909ZM263.842 81.1591C263.106 81.1591 262.471 80.9967 261.938 80.6719C261.408 80.3438 260.998 79.8864 260.71 79.2997C260.425 78.7098 260.282 78.0237 260.282 77.2415C260.282 76.4593 260.425 75.7699 260.71 75.1733C260.998 74.5734 261.399 74.1061 261.913 73.7713C262.43 73.4332 263.033 73.2642 263.723 73.2642C264.12 73.2642 264.513 73.3305 264.901 73.4631C265.289 73.5956 265.642 73.8111 265.96 74.1094C266.278 74.4044 266.532 74.7955 266.721 75.2827C266.909 75.7699 267.004 76.3698 267.004 77.0824V77.5795H261.118V76.5653H265.811C265.811 76.1345 265.725 75.75 265.552 75.4119C265.383 75.0739 265.141 74.8071 264.826 74.6115C264.515 74.416 264.147 74.3182 263.723 74.3182C263.255 74.3182 262.851 74.4342 262.51 74.6662C262.172 74.8949 261.911 75.1932 261.729 75.5611C261.547 75.929 261.456 76.3234 261.456 76.7443V77.4205C261.456 77.9972 261.555 78.486 261.754 78.8871C261.956 79.2848 262.236 79.5881 262.594 79.7969C262.952 80.0024 263.368 80.1051 263.842 80.1051C264.15 80.1051 264.429 80.062 264.677 79.9759C264.929 79.8864 265.146 79.7538 265.328 79.5781C265.511 79.3991 265.652 79.1771 265.751 78.9119L266.885 79.2301C266.765 79.6146 266.565 79.9527 266.283 80.2443C266.001 80.5327 265.653 80.758 265.239 80.9205C264.825 81.0795 264.359 81.1591 263.842 81.1591ZM271.891 81.1591C271.175 81.1591 270.559 80.9901 270.042 80.652C269.525 80.3139 269.127 79.8482 268.848 79.255C268.57 78.6617 268.431 77.9839 268.431 77.2216C268.431 76.446 268.573 75.7616 268.858 75.1683C269.147 74.5717 269.548 74.1061 270.061 73.7713C270.578 73.4332 271.182 73.2642 271.871 73.2642C272.408 73.2642 272.892 73.3636 273.323 73.5625C273.754 73.7614 274.107 74.0398 274.382 74.3977C274.657 74.7557 274.828 75.1733 274.894 75.6506H273.721C273.631 75.3026 273.432 74.9943 273.124 74.7259C272.819 74.4541 272.408 74.3182 271.891 74.3182C271.434 74.3182 271.033 74.4375 270.688 74.6761C270.346 74.9115 270.08 75.2446 269.887 75.6754C269.699 76.103 269.604 76.6051 269.604 77.1818C269.604 77.7718 269.697 78.2855 269.882 78.723C270.071 79.1605 270.337 79.5002 270.678 79.7422C271.023 79.9841 271.427 80.1051 271.891 80.1051C272.196 80.1051 272.473 80.0521 272.721 79.946C272.97 79.84 273.18 79.6875 273.353 79.4886C273.525 79.2898 273.648 79.0511 273.721 78.7727H274.894C274.828 79.2235 274.663 79.6295 274.402 79.9908C274.143 80.3487 273.8 80.6338 273.373 80.8459C272.948 81.0547 272.454 81.1591 271.891 81.1591ZM279.93 73.3636V74.358H275.973V73.3636H279.93ZM277.126 71.5341H278.299V78.8125C278.299 79.1439 278.347 79.3925 278.444 79.5582C278.543 79.7206 278.669 79.83 278.821 79.8864C278.977 79.9394 279.141 79.9659 279.314 79.9659C279.443 79.9659 279.549 79.9593 279.632 79.946C279.715 79.9295 279.781 79.9162 279.831 79.9062L280.069 80.9602C279.99 80.9901 279.879 81.0199 279.736 81.0497C279.594 81.0829 279.413 81.0994 279.194 81.0994C278.863 81.0994 278.538 81.0282 278.22 80.8857C277.905 80.7431 277.643 80.526 277.434 80.2344C277.229 79.9427 277.126 79.5748 277.126 79.1307V71.5341ZM286.967 75.0739L285.913 75.3722C285.847 75.1965 285.749 75.0258 285.62 74.8601C285.494 74.6911 285.322 74.5518 285.103 74.4425C284.884 74.3331 284.604 74.2784 284.263 74.2784C283.795 74.2784 283.406 74.3861 283.094 74.6016C282.786 74.8137 282.632 75.0838 282.632 75.4119C282.632 75.7036 282.738 75.9339 282.95 76.103C283.162 76.272 283.494 76.4129 283.945 76.5256L285.078 76.804C285.761 76.9697 286.27 77.2232 286.604 77.5646C286.939 77.9027 287.107 78.3385 287.107 78.8722C287.107 79.3097 286.981 79.7008 286.729 80.0455C286.48 80.3902 286.132 80.6619 285.685 80.8608C285.237 81.0597 284.717 81.1591 284.124 81.1591C283.345 81.1591 282.7 80.9901 282.19 80.652C281.679 80.3139 281.356 79.8201 281.22 79.1705L282.334 78.892C282.44 79.303 282.64 79.6113 282.935 79.8168C283.234 80.0223 283.623 80.125 284.104 80.125C284.651 80.125 285.085 80.009 285.406 79.777C285.731 79.5417 285.893 79.2599 285.893 78.9318C285.893 78.6667 285.801 78.4446 285.615 78.2656C285.429 78.0833 285.144 77.9474 284.76 77.858L283.487 77.5597C282.788 77.3939 282.274 77.1371 281.946 76.7891C281.621 76.4377 281.459 75.9986 281.459 75.4716C281.459 75.0407 281.58 74.6596 281.822 74.3281C282.067 73.9967 282.4 73.7365 282.821 73.5476C283.245 73.3587 283.726 73.2642 284.263 73.2642C285.018 73.2642 285.612 73.4299 286.043 73.7614C286.477 74.0928 286.785 74.5303 286.967 75.0739ZM289.728 81.0795C289.483 81.0795 289.272 80.9917 289.096 80.8161C288.921 80.6404 288.833 80.4299 288.833 80.1847C288.833 79.9394 288.921 79.7289 289.096 79.5533C289.272 79.3776 289.483 79.2898 289.728 79.2898C289.973 79.2898 290.184 79.3776 290.359 79.5533C290.535 79.7289 290.623 79.9394 290.623 80.1847C290.623 80.3471 290.581 80.4962 290.498 80.6321C290.419 80.768 290.311 80.8774 290.175 80.9602C290.043 81.0398 289.894 81.0795 289.728 81.0795Z" fill="#8692A6"/>
<path fill-rule="evenodd" clip-rule="evenodd" d="M361.178 45.6736C360.872 45.368 360.377 45.368 360.071 45.6736C359.766 45.9792 359.766 46.4746 360.071 46.7802L364.213 50.9217H355.147C354.715 50.9217 354.365 51.272 354.365 51.7042C354.365 52.1363 354.715 52.4866 355.147 52.4866H364.213L360.071 56.6282C359.766 56.9338 359.766 57.4292 360.071 57.7348C360.377 58.0404 360.872 58.0404 361.178 57.7348L366.655 52.2575C366.961 51.9519 366.961 51.4565 366.655 51.1509L361.178 45.6736Z" fill="#656565"/>
</svg>
