<svg width="402" height="110" viewBox="0 0 402 110" fill="none" xmlns="http://www.w3.org/2000/svg">
<path d="M393 0.5H9C4.30558 0.5 0.5 4.30558 0.5 9V101C0.5 105.694 4.30558 109.5 9 109.5H393C397.694 109.5 401.5 105.694 401.5 101V9C401.5 4.30558 397.694 0.5 393 0.5Z" fill="white" stroke="#EAECEF"/>
<path d="M79.7214 49.5233L57.4761 25.832C54.4517 22.6111 49.5483 22.6111 46.5239 25.832L24.2786 49.5233C21.2542 52.7442 21.2542 57.9664 24.2786 61.1874L46.5239 84.8786C49.5483 88.0996 54.4517 88.0996 57.4761 84.8786L79.7214 61.1874C82.7458 57.9664 82.7458 52.7442 79.7214 49.5233Z" fill="#EAECEF"/>
<path fill-rule="evenodd" clip-rule="evenodd" d="M45.5 52C45.0398 52 44.6667 52.3731 44.6667 52.8333V61.1667C44.6667 61.6269 45.0398 62 45.5 62H58.8333C59.2936 62 59.6667 61.6269 59.6667 61.1667V52.8333C59.6667 52.3731 59.2936 52 58.8333 52H45.5ZM43 52.8333C43 51.4526 44.1193 50.3333 45.5 50.3333H58.8333C60.214 50.3333 61.3333 51.4526 61.3333 52.8333V61.1667C61.3333 62.5474 60.214 63.6667 58.8333 63.6667H45.5C44.1193 63.6667 43 62.5474 43 61.1667V52.8333Z" fill="#656565"/>
<path fill-rule="evenodd" clip-rule="evenodd" d="M48.7322 47.7322C49.2011 47.2634 49.837 47 50.5 47H53.8333C54.4964 47 55.1323 47.2634 55.6011 47.7322C56.0699 48.2011 56.3333 48.837 56.3333 49.5V62.8333C56.3333 63.2936 55.9602 63.6667 55.5 63.6667C55.0398 63.6667 54.6667 63.2936 54.6667 62.8333V49.5C54.6667 49.279 54.5789 49.067 54.4226 48.9107C54.2663 48.7545 54.0543 48.6667 53.8333 48.6667H50.5C50.279 48.6667 50.067 48.7545 49.9107 48.9107C49.7545 49.067 49.6667 49.279 49.6667 49.5V62.8333C49.6667 63.2936 49.2936 63.6667 48.8333 63.6667C48.3731 63.6667 48 63.2936 48 62.8333V49.5C48 48.837 48.2634 48.2011 48.7322 47.7322Z" fill="#656565"/>
<path fill-rule="evenodd" clip-rule="evenodd" d="M361.178 45.6735C360.872 45.3679 360.377 45.3679 360.071 45.6735C359.766 45.9791 359.766 46.4745 360.071 46.7801L364.213 50.9216H355.147C354.715 50.9216 354.365 51.2719 354.365 51.7041C354.365 52.1362 354.715 52.4865 355.147 52.4865H364.213L360.071 56.6281C359.766 56.9337 359.766 57.4291 360.071 57.7347C360.377 58.0403 360.872 58.0403 361.178 57.7347L366.655 52.2574C366.961 51.9518 366.961 51.4564 366.655 51.1508L361.178 45.6735Z" fill="black"/>
<path d="M110.852 32.4205C110.791 31.8826 110.541 31.4659 110.102 31.1705C109.662 30.8712 109.109 30.7216 108.442 30.7216C107.965 30.7216 107.552 30.7973 107.204 30.9489C106.855 31.0966 106.585 31.3011 106.391 31.5625C106.202 31.8201 106.107 32.1136 106.107 32.4432C106.107 32.7197 106.172 32.9583 106.3 33.1591C106.433 33.3598 106.605 33.5284 106.817 33.6648C107.033 33.7973 107.264 33.9091 107.511 34C107.757 34.0871 107.994 34.1591 108.221 34.2159L109.357 34.5114C109.728 34.6023 110.109 34.7254 110.499 34.8807C110.889 35.036 111.251 35.2405 111.585 35.4943C111.918 35.7481 112.187 36.0625 112.391 36.4375C112.6 36.8125 112.704 37.2614 112.704 37.7841C112.704 38.4432 112.533 39.0284 112.192 39.5398C111.855 40.0511 111.365 40.4545 110.721 40.75C110.081 41.0455 109.306 41.1932 108.397 41.1932C107.526 41.1932 106.772 41.0549 106.136 40.7784C105.499 40.5019 105.001 40.1098 104.641 39.6023C104.281 39.0909 104.083 38.4848 104.045 37.7841H105.806C105.84 38.2045 105.977 38.5549 106.215 38.8352C106.458 39.1117 106.766 39.3182 107.141 39.4545C107.52 39.5871 107.935 39.6534 108.386 39.6534C108.882 39.6534 109.323 39.5758 109.71 39.4205C110.1 39.2614 110.406 39.0417 110.63 38.7614C110.853 38.4773 110.965 38.1458 110.965 37.767C110.965 37.4223 110.867 37.1402 110.67 36.9205C110.477 36.7008 110.213 36.5189 109.88 36.375C109.55 36.2311 109.177 36.1042 108.761 35.9943L107.386 35.6193C106.454 35.3655 105.715 34.9924 105.17 34.5C104.628 34.0076 104.357 33.3561 104.357 32.5455C104.357 31.875 104.539 31.2898 104.903 30.7898C105.266 30.2898 105.759 29.9015 106.38 29.625C107.001 29.3447 107.702 29.2045 108.482 29.2045C109.27 29.2045 109.965 29.3428 110.567 29.6193C111.174 29.8958 111.651 30.2765 111.999 30.7614C112.348 31.2424 112.53 31.7955 112.545 32.4205H110.852ZM116.228 38.0398L116.217 35.9659H116.512L119.989 32.2727H122.023L118.058 36.4773H117.79L116.228 38.0398ZM114.665 41V29.3636H116.364V41H114.665ZM120.177 41L117.052 36.8523L118.222 35.6648L122.262 41H120.177ZM123.572 41V32.2727H125.271V41H123.572ZM124.43 30.9261C124.134 30.9261 123.88 30.8277 123.668 30.6307C123.46 30.4299 123.356 30.1913 123.356 29.9148C123.356 29.6345 123.46 29.3958 123.668 29.1989C123.88 28.9981 124.134 28.8977 124.43 28.8977C124.725 28.8977 124.977 28.9981 125.185 29.1989C125.397 29.3958 125.504 29.6345 125.504 29.9148C125.504 30.1913 125.397 30.4299 125.185 30.6307C124.977 30.8277 124.725 30.9261 124.43 30.9261ZM129.255 29.3636V41H127.556V29.3636H129.255ZM133.239 29.3636V41H131.54V29.3636H133.239ZM146.242 32.4205C146.182 31.8826 145.932 31.4659 145.492 31.1705C145.053 30.8712 144.5 30.7216 143.833 30.7216C143.356 30.7216 142.943 30.7973 142.594 30.9489C142.246 31.0966 141.975 31.3011 141.782 31.5625C141.593 31.8201 141.498 32.1136 141.498 32.4432C141.498 32.7197 141.562 32.9583 141.691 33.1591C141.824 33.3598 141.996 33.5284 142.208 33.6648C142.424 33.7973 142.655 33.9091 142.901 34C143.147 34.0871 143.384 34.1591 143.612 34.2159L144.748 34.5114C145.119 34.6023 145.5 34.7254 145.89 34.8807C146.28 35.036 146.642 35.2405 146.975 35.4943C147.308 35.7481 147.577 36.0625 147.782 36.4375C147.99 36.8125 148.094 37.2614 148.094 37.7841C148.094 38.4432 147.924 39.0284 147.583 39.5398C147.246 40.0511 146.755 40.4545 146.112 40.75C145.471 41.0455 144.697 41.1932 143.788 41.1932C142.916 41.1932 142.163 41.0549 141.526 40.7784C140.89 40.5019 140.392 40.1098 140.032 39.6023C139.672 39.0909 139.473 38.4848 139.435 37.7841H141.197C141.231 38.2045 141.367 38.5549 141.606 38.8352C141.848 39.1117 142.157 39.3182 142.532 39.4545C142.911 39.5871 143.326 39.6534 143.776 39.6534C144.272 39.6534 144.714 39.5758 145.1 39.4205C145.49 39.2614 145.797 39.0417 146.021 38.7614C146.244 38.4773 146.356 38.1458 146.356 37.767C146.356 37.4223 146.257 37.1402 146.06 36.9205C145.867 36.7008 145.604 36.5189 145.271 36.375C144.941 36.2311 144.568 36.1042 144.151 35.9943L142.776 35.6193C141.844 35.3655 141.106 34.9924 140.56 34.5C140.019 34.0076 139.748 33.3561 139.748 32.5455C139.748 31.875 139.93 31.2898 140.293 30.7898C140.657 30.2898 141.149 29.9015 141.771 29.625C142.392 29.3447 143.093 29.2045 143.873 29.2045C144.661 29.2045 145.356 29.3428 145.958 29.6193C146.564 29.8958 147.041 30.2765 147.39 30.7614C147.738 31.2424 147.92 31.7955 147.935 32.4205H146.242ZM153.817 41.1761C152.958 41.1761 152.217 40.9924 151.596 40.625C150.978 40.2538 150.501 39.733 150.164 39.0625C149.831 38.3883 149.664 37.5985 149.664 36.6932C149.664 35.7992 149.831 35.0114 150.164 34.3295C150.501 33.6477 150.971 33.1155 151.573 32.733C152.179 32.3504 152.888 32.1591 153.698 32.1591C154.191 32.1591 154.668 32.2405 155.13 32.4034C155.592 32.5663 156.007 32.822 156.374 33.1705C156.742 33.5189 157.031 33.9716 157.244 34.5284C157.456 35.0814 157.562 35.7538 157.562 36.5455V37.1477H150.624V35.875H155.897C155.897 35.428 155.806 35.0322 155.624 34.6875C155.442 34.339 155.187 34.0644 154.857 33.8636C154.531 33.6629 154.149 33.5625 153.71 33.5625C153.232 33.5625 152.816 33.6799 152.46 33.9148C152.107 34.1458 151.835 34.4489 151.641 34.8239C151.452 35.1951 151.357 35.5985 151.357 36.0341V37.0284C151.357 37.6117 151.46 38.108 151.664 38.517C151.872 38.9261 152.162 39.2386 152.533 39.4545C152.905 39.6667 153.338 39.7727 153.835 39.7727C154.156 39.7727 154.45 39.7273 154.715 39.6364C154.98 39.5417 155.21 39.4015 155.403 39.2159C155.596 39.0303 155.744 38.8011 155.846 38.5284L157.454 38.8182C157.325 39.2917 157.094 39.7064 156.761 40.0625C156.431 40.4148 156.016 40.6894 155.516 40.8864C155.02 41.0795 154.454 41.1761 153.817 41.1761ZM163.208 41.1761C162.348 41.1761 161.608 40.9924 160.987 40.625C160.369 40.2538 159.892 39.733 159.555 39.0625C159.221 38.3883 159.055 37.5985 159.055 36.6932C159.055 35.7992 159.221 35.0114 159.555 34.3295C159.892 33.6477 160.362 33.1155 160.964 32.733C161.57 32.3504 162.278 32.1591 163.089 32.1591C163.581 32.1591 164.058 32.2405 164.521 32.4034C164.983 32.5663 165.397 32.822 165.765 33.1705C166.132 33.5189 166.422 33.9716 166.634 34.5284C166.846 35.0814 166.952 35.7538 166.952 36.5455V37.1477H160.015V35.875H165.288C165.288 35.428 165.197 35.0322 165.015 34.6875C164.833 34.339 164.577 34.0644 164.248 33.8636C163.922 33.6629 163.54 33.5625 163.1 33.5625C162.623 33.5625 162.206 33.6799 161.85 33.9148C161.498 34.1458 161.225 34.4489 161.032 34.8239C160.843 35.1951 160.748 35.5985 160.748 36.0341V37.0284C160.748 37.6117 160.85 38.108 161.055 38.517C161.263 38.9261 161.553 39.2386 161.924 39.4545C162.295 39.6667 162.729 39.7727 163.225 39.7727C163.547 39.7727 163.841 39.7273 164.106 39.6364C164.371 39.5417 164.6 39.4015 164.793 39.2159C164.987 39.0303 165.134 38.8011 165.237 38.5284L166.844 38.8182C166.716 39.2917 166.485 39.7064 166.151 40.0625C165.822 40.4148 165.407 40.6894 164.907 40.8864C164.411 41.0795 163.844 41.1761 163.208 41.1761ZM170.4 38.0398L170.388 35.9659H170.684L174.161 32.2727H176.195L172.229 36.4773H171.962L170.4 38.0398ZM168.837 41V29.3636H170.536V41H168.837ZM174.349 41L171.224 36.8523L172.394 35.6648L176.434 41H174.349ZM181.146 41.1761C180.286 41.1761 179.545 40.9924 178.924 40.625C178.307 40.2538 177.829 39.733 177.492 39.0625C177.159 38.3883 176.992 37.5985 176.992 36.6932C176.992 35.7992 177.159 35.0114 177.492 34.3295C177.829 33.6477 178.299 33.1155 178.901 32.733C179.507 32.3504 180.216 32.1591 181.026 32.1591C181.519 32.1591 181.996 32.2405 182.458 32.4034C182.92 32.5663 183.335 32.822 183.702 33.1705C184.07 33.5189 184.36 33.9716 184.572 34.5284C184.784 35.0814 184.89 35.7538 184.89 36.5455V37.1477H177.952V35.875H183.225C183.225 35.428 183.134 35.0322 182.952 34.6875C182.771 34.339 182.515 34.0644 182.185 33.8636C181.86 33.6629 181.477 33.5625 181.038 33.5625C180.56 33.5625 180.144 33.6799 179.788 33.9148C179.435 34.1458 179.163 34.4489 178.969 34.8239C178.78 35.1951 178.685 35.5985 178.685 36.0341V37.0284C178.685 37.6117 178.788 38.108 178.992 38.517C179.201 38.9261 179.49 39.2386 179.862 39.4545C180.233 39.6667 180.666 39.7727 181.163 39.7727C181.485 39.7727 181.778 39.7273 182.043 39.6364C182.308 39.5417 182.538 39.4015 182.731 39.2159C182.924 39.0303 183.072 38.8011 183.174 38.5284L184.782 38.8182C184.653 39.2917 184.422 39.7064 184.089 40.0625C183.759 40.4148 183.344 40.6894 182.844 40.8864C182.348 41.0795 181.782 41.1761 181.146 41.1761ZM186.775 41V32.2727H188.417V33.6591H188.508C188.667 33.1894 188.947 32.8201 189.349 32.5511C189.754 32.2784 190.212 32.142 190.724 32.142C190.83 32.142 190.955 32.1458 191.099 32.1534C191.246 32.161 191.362 32.1705 191.445 32.1818V33.8068C191.377 33.7879 191.256 33.767 191.082 33.7443C190.907 33.7178 190.733 33.7045 190.559 33.7045C190.157 33.7045 189.799 33.7898 189.485 33.9602C189.174 34.1269 188.928 34.3598 188.746 34.6591C188.565 34.9545 188.474 35.2917 188.474 35.6705V41H186.775Z" fill="black"/>
<path d="M105.465 58.5455V68H104.039V58.5455H105.465ZM108.618 58.5455V59.4318C108.618 59.6934 108.569 59.9689 108.471 60.2582C108.375 60.5444 108.24 60.8198 108.064 61.0845C107.889 61.3492 107.683 61.5769 107.446 61.7678L106.762 61.2784C106.944 61.0137 107.101 60.7321 107.233 60.4336C107.369 60.1351 107.436 59.8058 107.436 59.4457V58.5455H108.618ZM109.742 68V60.9091H111.067V62.0632H111.155C111.303 61.6723 111.544 61.3677 111.88 61.1491C112.215 60.9276 112.617 60.8168 113.085 60.8168C113.559 60.8168 113.956 60.9276 114.276 61.1491C114.599 61.3707 114.837 61.6754 114.991 62.0632H115.065C115.234 61.6847 115.504 61.383 115.873 61.1584C116.242 60.9306 116.682 60.8168 117.193 60.8168C117.837 60.8168 118.361 61.0183 118.768 61.4215C119.177 61.8247 119.382 62.4325 119.382 63.245V68H118.001V63.3743C118.001 62.8942 117.87 62.5464 117.609 62.331C117.347 62.1155 117.035 62.0078 116.672 62.0078C116.222 62.0078 115.873 62.1463 115.624 62.4233C115.374 62.6972 115.25 63.0496 115.25 63.4805V68H113.874V63.2866C113.874 62.9019 113.754 62.5926 113.514 62.3587C113.274 62.1248 112.962 62.0078 112.577 62.0078C112.315 62.0078 112.074 62.0771 111.852 62.2156C111.634 62.351 111.457 62.5402 111.321 62.7834C111.189 63.0265 111.123 63.3081 111.123 63.6282V68H109.742ZM126.052 58.5455V68H124.672V58.5455H126.052ZM130.896 68.1431C130.231 68.1431 129.651 67.9908 129.156 67.6861C128.66 67.3814 128.276 66.9551 128.002 66.4073C127.728 65.8595 127.591 65.2193 127.591 64.4869C127.591 63.7513 127.728 63.1081 128.002 62.5572C128.276 62.0063 128.66 61.5785 129.156 61.2738C129.651 60.9691 130.231 60.8168 130.896 60.8168C131.561 60.8168 132.141 60.9691 132.637 61.2738C133.132 61.5785 133.517 62.0063 133.791 62.5572C134.065 63.1081 134.202 63.7513 134.202 64.4869C134.202 65.2193 134.065 65.8595 133.791 66.4073C133.517 66.9551 133.132 67.3814 132.637 67.6861C132.141 67.9908 131.561 68.1431 130.896 68.1431ZM130.901 66.9844C131.332 66.9844 131.689 66.8705 131.972 66.6428C132.255 66.415 132.464 66.1119 132.6 65.7333C132.738 65.3548 132.807 64.9377 132.807 64.4822C132.807 64.0298 132.738 63.6143 132.6 63.2358C132.464 62.8542 132.255 62.5479 131.972 62.3171C131.689 62.0863 131.332 61.9709 130.901 61.9709C130.467 61.9709 130.107 62.0863 129.821 62.3171C129.537 62.5479 129.327 62.8542 129.188 63.2358C129.053 63.6143 128.985 64.0298 128.985 64.4822C128.985 64.9377 129.053 65.3548 129.188 65.7333C129.327 66.1119 129.537 66.415 129.821 66.6428C130.107 66.8705 130.467 66.9844 130.901 66.9844ZM138.729 68.1431C138.064 68.1431 137.484 67.9908 136.989 67.6861C136.493 67.3814 136.109 66.9551 135.835 66.4073C135.561 65.8595 135.424 65.2193 135.424 64.4869C135.424 63.7513 135.561 63.1081 135.835 62.5572C136.109 62.0063 136.493 61.5785 136.989 61.2738C137.484 60.9691 138.064 60.8168 138.729 60.8168C139.394 60.8168 139.974 60.9691 140.47 61.2738C140.965 61.5785 141.35 62.0063 141.624 62.5572C141.898 63.1081 142.035 63.7513 142.035 64.4869C142.035 65.2193 141.898 65.8595 141.624 66.4073C141.35 66.9551 140.965 67.3814 140.47 67.6861C139.974 67.9908 139.394 68.1431 138.729 68.1431ZM138.734 66.9844C139.165 66.9844 139.522 66.8705 139.805 66.6428C140.088 66.415 140.297 66.1119 140.433 65.7333C140.571 65.3548 140.64 64.9377 140.64 64.4822C140.64 64.0298 140.571 63.6143 140.433 63.2358C140.297 62.8542 140.088 62.5479 139.805 62.3171C139.522 62.0863 139.165 61.9709 138.734 61.9709C138.3 61.9709 137.94 62.0863 137.654 62.3171C137.37 62.5479 137.16 62.8542 137.021 63.2358C136.886 63.6143 136.818 64.0298 136.818 64.4822C136.818 64.9377 136.886 65.3548 137.021 65.7333C137.16 66.1119 137.37 66.415 137.654 66.6428C137.94 66.8705 138.3 66.9844 138.734 66.9844ZM144.845 65.5948L144.836 63.9098H145.076L147.901 60.9091H149.554L146.331 64.3253H146.114L144.845 65.5948ZM143.575 68V58.5455H144.956V68H143.575ZM148.053 68L145.514 64.63L146.465 63.6651L149.748 68H148.053ZM150.812 68V60.9091H152.192V68H150.812ZM151.509 59.815C151.269 59.815 151.063 59.735 150.89 59.5749C150.721 59.4118 150.636 59.2179 150.636 58.9933C150.636 58.7655 150.721 58.5716 150.89 58.4116C151.063 58.2485 151.269 58.1669 151.509 58.1669C151.749 58.1669 151.954 58.2485 152.123 58.4116C152.295 58.5716 152.381 58.7655 152.381 58.9933C152.381 59.2179 152.295 59.4118 152.123 59.5749C151.954 59.735 151.749 59.815 151.509 59.815ZM155.429 63.7898V68H154.049V60.9091H155.374V62.0632H155.462C155.625 61.6877 155.88 61.3861 156.228 61.1584C156.579 60.9306 157.02 60.8168 157.553 60.8168C158.036 60.8168 158.459 60.9183 158.822 61.1214C159.186 61.3215 159.467 61.62 159.667 62.017C159.867 62.4141 159.967 62.9049 159.967 63.4897V68H158.587V63.6559C158.587 63.1419 158.453 62.7403 158.185 62.451C157.918 62.1586 157.55 62.0124 157.082 62.0124C156.762 62.0124 156.477 62.0817 156.228 62.2202C155.982 62.3587 155.786 62.5618 155.642 62.8295C155.5 63.0942 155.429 63.4143 155.429 63.7898ZM164.792 70.8068C164.228 70.8068 163.744 70.733 163.337 70.5852C162.934 70.4375 162.605 70.2421 162.349 69.9989C162.094 69.7558 161.903 69.4896 161.777 69.2003L162.963 68.7109C163.047 68.8464 163.157 68.9895 163.296 69.1403C163.437 69.2942 163.628 69.425 163.868 69.5327C164.111 69.6404 164.424 69.6942 164.805 69.6942C165.329 69.6942 165.761 69.5665 166.103 69.3111C166.444 69.0587 166.615 68.6555 166.615 68.1016V66.7074H166.527C166.444 66.8582 166.324 67.0259 166.167 67.2106C166.013 67.3952 165.801 67.5553 165.53 67.6907C165.259 67.8261 164.907 67.8938 164.473 67.8938C163.913 67.8938 163.408 67.763 162.959 67.5014C162.513 67.2367 162.159 66.8474 161.897 66.3335C161.638 65.8164 161.509 65.1809 161.509 64.4268C161.509 63.6728 161.637 63.0265 161.892 62.4879C162.151 61.9493 162.505 61.5369 162.954 61.2507C163.404 60.9614 163.913 60.8168 164.482 60.8168C164.922 60.8168 165.278 60.8906 165.549 61.0384C165.819 61.183 166.03 61.3523 166.181 61.5462C166.335 61.7401 166.453 61.9109 166.537 62.0586H166.638V60.9091H167.991V68.157C167.991 68.7663 167.849 69.2665 167.566 69.6573C167.283 70.0482 166.9 70.3375 166.417 70.5252C165.936 70.7129 165.395 70.8068 164.792 70.8068ZM164.778 66.7489C165.175 66.7489 165.51 66.6566 165.784 66.4719C166.061 66.2842 166.27 66.0165 166.412 65.6687C166.557 65.3178 166.629 64.8977 166.629 64.4084C166.629 63.9313 166.558 63.5112 166.417 63.1481C166.275 62.7849 166.067 62.5018 165.793 62.2987C165.519 62.0924 165.181 61.9893 164.778 61.9893C164.362 61.9893 164.016 62.0971 163.739 62.3125C163.462 62.5249 163.253 62.8142 163.111 63.1804C162.973 63.5466 162.903 63.956 162.903 64.4084C162.903 64.8731 162.974 65.2809 163.116 65.6317C163.257 65.9826 163.467 66.2565 163.744 66.4535C164.024 66.6504 164.368 66.7489 164.778 66.7489ZM176.657 60.9091V62.017H172.65V60.9091H176.657ZM173.749 68V60.0874C173.749 59.6442 173.846 59.2764 174.04 58.984C174.233 58.6886 174.49 58.4685 174.81 58.3239C175.131 58.1761 175.478 58.1023 175.854 58.1023C176.131 58.1023 176.368 58.1254 176.565 58.1715C176.762 58.2146 176.908 58.2546 177.003 58.2915L176.68 59.4087C176.616 59.3903 176.532 59.3687 176.431 59.3441C176.329 59.3164 176.206 59.3026 176.062 59.3026C175.726 59.3026 175.486 59.3857 175.341 59.5518C175.2 59.718 175.129 59.9581 175.129 60.272V68H173.749ZM180.789 68.1431C180.124 68.1431 179.544 67.9908 179.048 67.6861C178.553 67.3814 178.168 66.9551 177.894 66.4073C177.62 65.8595 177.483 65.2193 177.483 64.4869C177.483 63.7513 177.62 63.1081 177.894 62.5572C178.168 62.0063 178.553 61.5785 179.048 61.2738C179.544 60.9691 180.124 60.8168 180.789 60.8168C181.454 60.8168 182.034 60.9691 182.529 61.2738C183.025 61.5785 183.409 62.0063 183.683 62.5572C183.957 63.1081 184.094 63.7513 184.094 64.4869C184.094 65.2193 183.957 65.8595 183.683 66.4073C183.409 66.9551 183.025 67.3814 182.529 67.6861C182.034 67.9908 181.454 68.1431 180.789 68.1431ZM180.793 66.9844C181.224 66.9844 181.581 66.8705 181.864 66.6428C182.148 66.415 182.357 66.1119 182.492 65.7333C182.631 65.3548 182.7 64.9377 182.7 64.4822C182.7 64.0298 182.631 63.6143 182.492 63.2358C182.357 62.8542 182.148 62.5479 181.864 62.3171C181.581 62.0863 181.224 61.9709 180.793 61.9709C180.359 61.9709 179.999 62.0863 179.713 62.3171C179.43 62.5479 179.219 62.8542 179.081 63.2358C178.945 63.6143 178.878 64.0298 178.878 64.4822C178.878 64.9377 178.945 65.3548 179.081 65.7333C179.219 66.1119 179.43 66.415 179.713 66.6428C179.999 66.8705 180.359 66.9844 180.793 66.9844ZM185.635 68V60.9091H186.969V62.0355H187.043C187.172 61.6539 187.4 61.3538 187.726 61.1353C188.056 60.9137 188.428 60.8029 188.843 60.8029C188.93 60.8029 189.031 60.806 189.148 60.8121C189.268 60.8183 189.362 60.826 189.43 60.8352V62.1555C189.374 62.1402 189.276 62.1232 189.134 62.1048C188.993 62.0832 188.851 62.0724 188.71 62.0724C188.383 62.0724 188.092 62.1417 187.837 62.2802C187.585 62.4156 187.385 62.6049 187.237 62.848C187.089 63.0881 187.015 63.362 187.015 63.6697V68H185.635ZM195.602 58.5455V68H194.175V58.5455H195.602ZM197.213 59.7734V58.5455H204.53V59.7734H201.58V68H200.158V59.7734H197.213ZM209.477 70.6591V60.9091H210.825V62.0586H210.94C211.02 61.9109 211.136 61.7401 211.286 61.5462C211.437 61.3523 211.646 61.183 211.914 61.0384C212.182 60.8906 212.536 60.8168 212.976 60.8168C213.548 60.8168 214.059 60.9614 214.509 61.2507C214.958 61.54 215.31 61.957 215.566 62.5018C215.824 63.0465 215.954 63.7021 215.954 64.4684C215.954 65.2347 215.826 65.8918 215.57 66.4396C215.315 66.9844 214.964 67.4045 214.518 67.6999C214.072 67.9923 213.562 68.1385 212.99 68.1385C212.559 68.1385 212.207 68.0662 211.933 67.9215C211.662 67.7769 211.45 67.6076 211.296 67.4137C211.142 67.2198 211.023 67.0475 210.94 66.8967H210.857V70.6591H209.477ZM210.829 64.4545C210.829 64.9531 210.902 65.3902 211.046 65.7656C211.191 66.1411 211.4 66.435 211.674 66.6474C211.948 66.8567 212.284 66.9613 212.681 66.9613C213.093 66.9613 213.438 66.852 213.715 66.6335C213.992 66.4119 214.201 66.1119 214.343 65.7333C214.487 65.3548 214.559 64.9285 214.559 64.4545C214.559 63.9867 214.489 63.5666 214.347 63.1942C214.209 62.8219 213.999 62.5279 213.719 62.3125C213.442 62.0971 213.096 61.9893 212.681 61.9893C212.28 61.9893 211.942 62.0924 211.665 62.2987C211.391 62.5049 211.183 62.7926 211.042 63.1619C210.9 63.5312 210.829 63.9621 210.829 64.4545ZM217.5 68V60.9091H218.834V62.0355H218.908C219.037 61.6539 219.265 61.3538 219.591 61.1353C219.921 60.9137 220.293 60.8029 220.709 60.8029C220.795 60.8029 220.896 60.806 221.013 60.8121C221.133 60.8183 221.227 60.826 221.295 60.8352V62.1555C221.24 62.1402 221.141 62.1232 220.999 62.1048C220.858 62.0832 220.716 62.0724 220.575 62.0724C220.249 62.0724 219.958 62.1417 219.702 62.2802C219.45 62.4156 219.25 62.6049 219.102 62.848C218.954 63.0881 218.881 63.362 218.881 63.6697V68H217.5ZM225.222 68.1431C224.558 68.1431 223.977 67.9908 223.482 67.6861C222.986 67.3814 222.602 66.9551 222.328 66.4073C222.054 65.8595 221.917 65.2193 221.917 64.4869C221.917 63.7513 222.054 63.1081 222.328 62.5572C222.602 62.0063 222.986 61.5785 223.482 61.2738C223.977 60.9691 224.558 60.8168 225.222 60.8168C225.887 60.8168 226.467 60.9691 226.963 61.2738C227.458 61.5785 227.843 62.0063 228.117 62.5572C228.391 63.1081 228.528 63.7513 228.528 64.4869C228.528 65.2193 228.391 65.8595 228.117 66.4073C227.843 66.9551 227.458 67.3814 226.963 67.6861C226.467 67.9908 225.887 68.1431 225.222 68.1431ZM225.227 66.9844C225.658 66.9844 226.015 66.8705 226.298 66.6428C226.581 66.415 226.79 66.1119 226.926 65.7333C227.064 65.3548 227.134 64.9377 227.134 64.4822C227.134 64.0298 227.064 63.6143 226.926 63.2358C226.79 62.8542 226.581 62.5479 226.298 62.3171C226.015 62.0863 225.658 61.9709 225.227 61.9709C224.793 61.9709 224.433 62.0863 224.147 62.3171C223.864 62.5479 223.653 62.8542 223.514 63.2358C223.379 63.6143 223.311 64.0298 223.311 64.4822C223.311 64.9377 223.379 65.3548 223.514 65.7333C223.653 66.1119 223.864 66.415 224.147 66.6428C224.433 66.8705 224.793 66.9844 225.227 66.9844ZM233.443 60.9091V62.017H229.436V60.9091H233.443ZM230.535 68V60.0874C230.535 59.6442 230.632 59.2764 230.826 58.984C231.02 58.6886 231.277 58.4685 231.597 58.3239C231.917 58.1761 232.264 58.1023 232.64 58.1023C232.917 58.1023 233.154 58.1254 233.351 58.1715C233.548 58.2146 233.694 58.2546 233.789 58.2915L233.466 59.4087C233.402 59.3903 233.319 59.3687 233.217 59.3441C233.115 59.3164 232.992 59.3026 232.848 59.3026C232.512 59.3026 232.272 59.3857 232.127 59.5518C231.986 59.718 231.915 59.9581 231.915 60.272V68H230.535ZM237.644 68.1431C236.946 68.1431 236.344 67.9938 235.839 67.6953C235.337 67.3937 234.95 66.9705 234.676 66.4258C234.405 65.878 234.27 65.2363 234.27 64.5007C234.27 63.7744 234.405 63.1342 234.676 62.5803C234.95 62.0263 235.331 61.5939 235.821 61.283C236.313 60.9722 236.889 60.8168 237.547 60.8168C237.947 60.8168 238.335 60.8829 238.711 61.0153C239.086 61.1476 239.423 61.3554 239.722 61.6385C240.02 61.9216 240.256 62.2894 240.428 62.7418C240.6 63.1912 240.686 63.7375 240.686 64.3807V64.87H235.05V63.8359H239.334C239.334 63.4728 239.26 63.1512 239.112 62.8711C238.964 62.5879 238.757 62.3648 238.489 62.2017C238.224 62.0386 237.913 61.957 237.556 61.957C237.169 61.957 236.83 62.0524 236.541 62.2433C236.255 62.431 236.033 62.6772 235.876 62.9819C235.722 63.2835 235.645 63.6113 235.645 63.9652V64.7731C235.645 65.247 235.728 65.6502 235.895 65.9826C236.064 66.315 236.299 66.5689 236.601 66.7443C236.902 66.9167 237.255 67.0028 237.658 67.0028C237.92 67.0028 238.158 66.9659 238.374 66.892C238.589 66.8151 238.775 66.7012 238.932 66.5504C239.089 66.3996 239.209 66.2134 239.292 65.9918L240.599 66.2273C240.494 66.612 240.306 66.949 240.036 67.2383C239.768 67.5245 239.431 67.7476 239.025 67.9077C238.621 68.0646 238.161 68.1431 237.644 68.1431ZM247.532 62.6403L246.28 62.8619C246.228 62.7018 246.145 62.5495 246.031 62.4048C245.92 62.2602 245.77 62.1417 245.579 62.0494C245.388 61.957 245.149 61.9109 244.863 61.9109C244.472 61.9109 244.146 61.9986 243.884 62.174C243.623 62.3464 243.492 62.5695 243.492 62.8434C243.492 63.0804 243.58 63.2712 243.755 63.4158C243.931 63.5605 244.214 63.679 244.605 63.7713L245.731 64.0298C246.384 64.1806 246.87 64.413 247.19 64.7269C247.51 65.0408 247.67 65.4486 247.67 65.9503C247.67 66.375 247.547 66.7536 247.301 67.0859C247.058 67.4152 246.717 67.6738 246.28 67.8615C245.847 68.0492 245.343 68.1431 244.771 68.1431C243.977 68.1431 243.329 67.9738 242.827 67.6353C242.326 67.2937 242.018 66.8089 241.904 66.1811L243.238 65.978C243.321 66.3258 243.492 66.5889 243.751 66.7674C244.009 66.9428 244.346 67.0305 244.762 67.0305C245.214 67.0305 245.576 66.9367 245.847 66.7489C246.117 66.5581 246.253 66.3258 246.253 66.0518C246.253 65.8303 246.17 65.6441 246.003 65.4933C245.84 65.3424 245.59 65.2286 245.251 65.1516L244.051 64.8885C243.389 64.7377 242.9 64.4976 242.583 64.1683C242.269 63.839 242.112 63.422 242.112 62.9173C242.112 62.4987 242.229 62.1325 242.463 61.8185C242.697 61.5046 243.02 61.2599 243.432 61.0845C243.844 60.906 244.317 60.8168 244.849 60.8168C245.616 60.8168 246.219 60.983 246.659 61.3153C247.099 61.6446 247.39 62.0863 247.532 62.6403ZM254.501 62.6403L253.25 62.8619C253.198 62.7018 253.115 62.5495 253.001 62.4048C252.89 62.2602 252.739 62.1417 252.548 62.0494C252.358 61.957 252.119 61.9109 251.833 61.9109C251.442 61.9109 251.116 61.9986 250.854 62.174C250.593 62.3464 250.462 62.5695 250.462 62.8434C250.462 63.0804 250.55 63.2712 250.725 63.4158C250.9 63.5605 251.184 63.679 251.574 63.7713L252.701 64.0298C253.353 64.1806 253.84 64.413 254.16 64.7269C254.48 65.0408 254.64 65.4486 254.64 65.9503C254.64 66.375 254.517 66.7536 254.27 67.0859C254.027 67.4152 253.687 67.6738 253.25 67.8615C252.816 68.0492 252.313 68.1431 251.741 68.1431C250.947 68.1431 250.299 67.9738 249.797 67.6353C249.295 67.2937 248.988 66.8089 248.874 66.1811L250.208 65.978C250.291 66.3258 250.462 66.5889 250.72 66.7674C250.979 66.9428 251.316 67.0305 251.731 67.0305C252.184 67.0305 252.545 66.9367 252.816 66.7489C253.087 66.5581 253.222 66.3258 253.222 66.0518C253.222 65.8303 253.139 65.6441 252.973 65.4933C252.81 65.3424 252.559 65.2286 252.221 65.1516L251.02 64.8885C250.359 64.7377 249.869 64.4976 249.552 64.1683C249.238 63.839 249.081 63.422 249.081 62.9173C249.081 62.4987 249.198 62.1325 249.432 61.8185C249.666 61.5046 249.989 61.2599 250.402 61.0845C250.814 60.906 251.287 60.8168 251.819 60.8168C252.585 60.8168 253.189 60.983 253.629 61.3153C254.069 61.6446 254.36 62.0863 254.501 62.6403ZM256.157 68V60.9091H257.538V68H256.157ZM256.854 59.815C256.614 59.815 256.408 59.735 256.236 59.5749C256.067 59.4118 255.982 59.2179 255.982 58.9933C255.982 58.7655 256.067 58.5716 256.236 58.4116C256.408 58.2485 256.614 58.1669 256.854 58.1669C257.095 58.1669 257.299 58.2485 257.468 58.4116C257.641 58.5716 257.727 58.7655 257.727 58.9933C257.727 59.2179 257.641 59.4118 257.468 59.5749C257.299 59.735 257.095 59.815 256.854 59.815ZM262.382 68.1431C261.717 68.1431 261.137 67.9908 260.641 67.6861C260.146 67.3814 259.761 66.9551 259.487 66.4073C259.213 65.8595 259.076 65.2193 259.076 64.4869C259.076 63.7513 259.213 63.1081 259.487 62.5572C259.761 62.0063 260.146 61.5785 260.641 61.2738C261.137 60.9691 261.717 60.8168 262.382 60.8168C263.046 60.8168 263.626 60.9691 264.122 61.2738C264.617 61.5785 265.002 62.0063 265.276 62.5572C265.55 63.1081 265.687 63.7513 265.687 64.4869C265.687 65.2193 265.55 65.8595 265.276 66.4073C265.002 66.9551 264.617 67.3814 264.122 67.6861C263.626 67.9908 263.046 68.1431 262.382 68.1431ZM262.386 66.9844C262.817 66.9844 263.174 66.8705 263.457 66.6428C263.74 66.415 263.95 66.1119 264.085 65.7333C264.224 65.3548 264.293 64.9377 264.293 64.4822C264.293 64.0298 264.224 63.6143 264.085 63.2358C263.95 62.8542 263.74 62.5479 263.457 62.3171C263.174 62.0863 262.817 61.9709 262.386 61.9709C261.952 61.9709 261.592 62.0863 261.306 62.3171C261.023 62.5479 260.812 62.8542 260.673 63.2358C260.538 63.6143 260.47 64.0298 260.47 64.4822C260.47 64.9377 260.538 65.3548 260.673 65.7333C260.812 66.1119 261.023 66.415 261.306 66.6428C261.592 66.8705 261.952 66.9844 262.386 66.9844ZM268.608 63.7898V68H267.228V60.9091H268.553V62.0632H268.64C268.803 61.6877 269.059 61.3861 269.407 61.1584C269.758 60.9306 270.199 60.8168 270.732 60.8168C271.215 60.8168 271.638 60.9183 272.001 61.1214C272.364 61.3215 272.646 61.62 272.846 62.017C273.046 62.4141 273.146 62.9049 273.146 63.4897V68H271.766V63.6559C271.766 63.1419 271.632 62.7403 271.364 62.451C271.096 62.1586 270.729 62.0124 270.261 62.0124C269.941 62.0124 269.656 62.0817 269.407 62.2202C269.16 62.3587 268.965 62.5618 268.82 62.8295C268.679 63.0942 268.608 63.4143 268.608 63.7898ZM277.061 68.157C276.611 68.157 276.205 68.0739 275.842 67.9077C275.479 67.7384 275.191 67.4937 274.979 67.1737C274.77 66.8536 274.665 66.4612 274.665 65.9964C274.665 65.5964 274.742 65.267 274.896 65.0085C275.05 64.75 275.257 64.5453 275.519 64.3945C275.781 64.2437 276.073 64.1299 276.396 64.0529C276.719 63.976 277.049 63.9175 277.384 63.8775C277.809 63.8282 278.153 63.7882 278.418 63.7575C278.683 63.7236 278.875 63.6697 278.995 63.5959C279.115 63.522 279.175 63.402 279.175 63.2358V63.2035C279.175 62.8003 279.061 62.4879 278.834 62.2663C278.609 62.0447 278.273 61.9339 277.827 61.9339C277.362 61.9339 276.996 62.037 276.728 62.2433C276.464 62.4464 276.281 62.6726 276.179 62.9219L274.882 62.6264C275.036 62.1955 275.26 61.8478 275.556 61.5831C275.854 61.3153 276.198 61.1214 276.585 61.0014C276.973 60.8783 277.381 60.8168 277.809 60.8168C278.092 60.8168 278.392 60.8506 278.709 60.9183C279.029 60.983 279.328 61.103 279.604 61.2784C279.885 61.4538 280.114 61.7047 280.292 62.0309C280.471 62.354 280.56 62.7741 280.56 63.2912V68H279.212V67.0305H279.157C279.067 67.209 278.934 67.3845 278.755 67.5568C278.577 67.7292 278.347 67.8723 278.067 67.9862C277.787 68.1 277.452 68.157 277.061 68.157ZM277.361 67.049C277.743 67.049 278.069 66.9736 278.34 66.8228C278.613 66.672 278.821 66.475 278.963 66.2319C279.107 65.9857 279.18 65.7225 279.18 65.4425V64.5284C279.131 64.5777 279.035 64.6238 278.894 64.6669C278.755 64.7069 278.597 64.7423 278.418 64.7731C278.24 64.8008 278.066 64.8269 277.896 64.8516C277.727 64.8731 277.586 64.8916 277.472 64.907C277.204 64.9408 276.959 64.9978 276.738 65.0778C276.519 65.1578 276.344 65.2732 276.211 65.424C276.082 65.5717 276.017 65.7687 276.017 66.0149C276.017 66.3565 276.144 66.6151 276.396 66.7905C276.648 66.9628 276.97 67.049 277.361 67.049ZM283.779 58.5455V68H282.399V58.5455H283.779ZM290.949 62.6403L289.698 62.8619C289.646 62.7018 289.563 62.5495 289.449 62.4048C289.338 62.2602 289.188 62.1417 288.997 62.0494C288.806 61.957 288.567 61.9109 288.281 61.9109C287.89 61.9109 287.564 61.9986 287.302 62.174C287.041 62.3464 286.91 62.5695 286.91 62.8434C286.91 63.0804 286.998 63.2712 287.173 63.4158C287.349 63.5605 287.632 63.679 288.023 63.7713L289.149 64.0298C289.802 64.1806 290.288 64.413 290.608 64.7269C290.928 65.0408 291.088 65.4486 291.088 65.9503C291.088 66.375 290.965 66.7536 290.719 67.0859C290.476 67.4152 290.135 67.6738 289.698 67.8615C289.264 68.0492 288.761 68.1431 288.189 68.1431C287.395 68.1431 286.747 67.9738 286.245 67.6353C285.744 67.2937 285.436 66.8089 285.322 66.1811L286.656 65.978C286.739 66.3258 286.91 66.5889 287.169 66.7674C287.427 66.9428 287.764 67.0305 288.18 67.0305C288.632 67.0305 288.994 66.9367 289.264 66.7489C289.535 66.5581 289.671 66.3258 289.671 66.0518C289.671 65.8303 289.588 65.6441 289.421 65.4933C289.258 65.3424 289.007 65.2286 288.669 65.1516L287.469 64.8885C286.807 64.7377 286.318 64.4976 286.001 64.1683C285.687 63.839 285.53 63.422 285.53 62.9173C285.53 62.4987 285.647 62.1325 285.881 61.8185C286.114 61.5046 286.438 61.2599 286.85 61.0845C287.262 60.906 287.735 60.8168 288.267 60.8168C289.034 60.8168 289.637 60.983 290.077 61.3153C290.517 61.6446 290.808 62.0863 290.949 62.6403ZM299.356 60.9091V62.017H295.483V60.9091H299.356ZM296.522 59.2102H297.902V65.918C297.902 66.1857 297.942 66.3873 298.022 66.5227C298.102 66.6551 298.205 66.7459 298.331 66.7951C298.46 66.8413 298.601 66.8643 298.751 66.8643C298.862 66.8643 298.959 66.8567 299.042 66.8413C299.125 66.8259 299.19 66.8136 299.236 66.8043L299.485 67.9446C299.405 67.9754 299.291 68.0062 299.144 68.0369C298.996 68.0708 298.811 68.0893 298.59 68.0923C298.227 68.0985 297.888 68.0339 297.574 67.8984C297.26 67.763 297.006 67.5537 296.812 67.2706C296.619 66.9875 296.522 66.632 296.522 66.2042V59.2102ZM303.794 68.1431C303.129 68.1431 302.549 67.9908 302.053 67.6861C301.558 67.3814 301.173 66.9551 300.899 66.4073C300.625 65.8595 300.488 65.2193 300.488 64.4869C300.488 63.7513 300.625 63.1081 300.899 62.5572C301.173 62.0063 301.558 61.5785 302.053 61.2738C302.549 60.9691 303.129 60.8168 303.794 60.8168C304.458 60.8168 305.039 60.9691 305.534 61.2738C306.03 61.5785 306.414 62.0063 306.688 62.5572C306.962 63.1081 307.099 63.7513 307.099 64.4869C307.099 65.2193 306.962 65.8595 306.688 66.4073C306.414 66.9551 306.03 67.3814 305.534 67.6861C305.039 67.9908 304.458 68.1431 303.794 68.1431ZM303.798 66.9844C304.229 66.9844 304.586 66.8705 304.869 66.6428C305.152 66.415 305.362 66.1119 305.497 65.7333C305.636 65.3548 305.705 64.9377 305.705 64.4822C305.705 64.0298 305.636 63.6143 305.497 63.2358C305.362 62.8542 305.152 62.5479 304.869 62.3171C304.586 62.0863 304.229 61.9709 303.798 61.9709C303.364 61.9709 303.004 62.0863 302.718 62.3171C302.435 62.5479 302.224 62.8542 302.086 63.2358C301.95 63.6143 301.882 64.0298 301.882 64.4822C301.882 64.9377 301.95 65.3548 302.086 65.7333C302.224 66.1119 302.435 66.415 302.718 66.6428C303.004 66.8705 303.364 66.9844 303.798 66.9844ZM313.461 63.7898V68H312.08V58.5455H313.442V62.0632H313.53C313.696 61.6816 313.95 61.3784 314.292 61.1538C314.633 60.9291 315.079 60.8168 315.63 60.8168C316.117 60.8168 316.541 60.9168 316.904 61.1168C317.271 61.3169 317.554 61.6154 317.754 62.0124C317.957 62.4064 318.059 62.8988 318.059 63.4897V68H316.678V63.6559C316.678 63.1358 316.544 62.7326 316.277 62.4464C316.009 62.1571 315.636 62.0124 315.159 62.0124C314.833 62.0124 314.541 62.0817 314.282 62.2202C314.027 62.3587 313.825 62.5618 313.678 62.8295C313.533 63.0942 313.461 63.4143 313.461 63.7898ZM322.957 68.1431C322.258 68.1431 321.656 67.9938 321.152 67.6953C320.65 67.3937 320.262 66.9705 319.988 66.4258C319.717 65.878 319.582 65.2363 319.582 64.5007C319.582 63.7744 319.717 63.1342 319.988 62.5803C320.262 62.0263 320.644 61.5939 321.133 61.283C321.626 60.9722 322.201 60.8168 322.86 60.8168C323.26 60.8168 323.648 60.8829 324.023 61.0153C324.399 61.1476 324.736 61.3554 325.034 61.6385C325.333 61.9216 325.568 62.2894 325.74 62.7418C325.913 63.1912 325.999 63.7375 325.999 64.3807V64.87H320.362V63.8359H324.646C324.646 63.4728 324.572 63.1512 324.425 62.8711C324.277 62.5879 324.069 62.3648 323.801 62.2017C323.537 62.0386 323.226 61.957 322.869 61.957C322.481 61.957 322.143 62.0524 321.853 62.2433C321.567 62.431 321.346 62.6772 321.189 62.9819C321.035 63.2835 320.958 63.6113 320.958 63.9652V64.7731C320.958 65.247 321.041 65.6502 321.207 65.9826C321.376 66.315 321.612 66.5689 321.913 66.7443C322.215 66.9167 322.567 67.0028 322.971 67.0028C323.232 67.0028 323.471 66.9659 323.686 66.892C323.902 66.8151 324.088 66.7012 324.245 66.5504C324.402 66.3996 324.522 66.2134 324.605 65.9918L325.911 66.2273C325.807 66.612 325.619 66.949 325.348 67.2383C325.08 67.5245 324.743 67.7476 324.337 67.9077C323.934 68.0646 323.474 68.1431 322.957 68.1431ZM328.911 58.5455V68H327.53V58.5455H328.911ZM330.768 70.6591V60.9091H332.116V62.0586H332.231C332.311 61.9109 332.427 61.7401 332.577 61.5462C332.728 61.3523 332.938 61.183 333.205 61.0384C333.473 60.8906 333.827 60.8168 334.267 60.8168C334.839 60.8168 335.35 60.9614 335.8 61.2507C336.249 61.54 336.601 61.957 336.857 62.5018C337.115 63.0465 337.245 63.7021 337.245 64.4684C337.245 65.2347 337.117 65.8918 336.862 66.4396C336.606 66.9844 336.255 67.4045 335.809 67.6999C335.363 67.9923 334.853 68.1385 334.281 68.1385C333.85 68.1385 333.498 68.0662 333.224 67.9215C332.953 67.7769 332.741 67.6076 332.587 67.4137C332.433 67.2198 332.314 67.0475 332.231 66.8967H332.148V70.6591H330.768ZM332.12 64.4545C332.12 64.9531 332.193 65.3902 332.337 65.7656C332.482 66.1411 332.691 66.435 332.965 66.6474C333.239 66.8567 333.575 66.9613 333.972 66.9613C334.384 66.9613 334.729 66.852 335.006 66.6335C335.283 66.4119 335.492 66.1119 335.634 65.7333C335.778 65.3548 335.85 64.9285 335.85 64.4545C335.85 63.9867 335.78 63.5666 335.638 63.1942C335.5 62.8219 335.29 62.5279 335.01 62.3125C334.733 62.0971 334.387 61.9893 333.972 61.9893C333.571 61.9893 333.233 62.0924 332.956 62.2987C332.682 62.5049 332.474 62.7926 332.333 63.1619C332.191 63.5312 332.12 63.9621 332.12 64.4545ZM108.42 81.0593V76.9091H109.805V84H108.447V82.772H108.374C108.21 83.1506 107.949 83.466 107.589 83.7184C107.232 83.9677 106.787 84.0923 106.255 84.0923C105.799 84.0923 105.396 83.9923 105.045 83.7923C104.697 83.5891 104.423 83.2891 104.223 82.892C104.026 82.495 103.928 82.0041 103.928 81.4194V76.9091H105.308V81.2532C105.308 81.7364 105.442 82.1211 105.71 82.4073C105.978 82.6935 106.325 82.8366 106.753 82.8366C107.012 82.8366 107.269 82.772 107.524 82.6428C107.783 82.5135 107.997 82.3181 108.166 82.0565C108.338 81.7949 108.423 81.4625 108.42 81.0593ZM116.973 78.6403L115.722 78.8619C115.67 78.7018 115.586 78.5495 115.473 78.4048C115.362 78.2602 115.211 78.1417 115.02 78.0494C114.829 77.957 114.591 77.9109 114.305 77.9109C113.914 77.9109 113.588 77.9986 113.326 78.174C113.064 78.3464 112.934 78.5695 112.934 78.8434C112.934 79.0804 113.021 79.2712 113.197 79.4158C113.372 79.5605 113.655 79.679 114.046 79.7713L115.172 80.0298C115.825 80.1806 116.311 80.413 116.631 80.7269C116.951 81.0408 117.111 81.4486 117.111 81.9503C117.111 82.375 116.988 82.7536 116.742 83.0859C116.499 83.4152 116.159 83.6738 115.722 83.8615C115.288 84.0492 114.785 84.1431 114.212 84.1431C113.418 84.1431 112.77 83.9738 112.269 83.6353C111.767 83.2937 111.459 82.8089 111.345 82.1811L112.68 81.978C112.763 82.3258 112.934 82.5889 113.192 82.7674C113.451 82.9428 113.788 83.0305 114.203 83.0305C114.655 83.0305 115.017 82.9367 115.288 82.7489C115.559 82.5581 115.694 82.3258 115.694 82.0518C115.694 81.8303 115.611 81.6441 115.445 81.4933C115.282 81.3424 115.031 81.2286 114.692 81.1516L113.492 80.8885C112.83 80.7377 112.341 80.4976 112.024 80.1683C111.71 79.839 111.553 79.422 111.553 78.9173C111.553 78.4987 111.67 78.1325 111.904 77.8185C112.138 77.5046 112.461 77.2599 112.873 77.0845C113.286 76.906 113.758 76.8168 114.291 76.8168C115.057 76.8168 115.66 76.983 116.1 77.3153C116.541 77.6446 116.831 78.0863 116.973 78.6403ZM123.607 84L121.52 76.9091H122.947L124.336 82.1165H124.405L125.8 76.9091H127.226L128.611 82.0934H128.68L130.061 76.9091H131.487L129.405 84H127.997L126.557 78.8803H126.451L125.01 84H123.607ZM132.797 84V76.9091H134.177V84H132.797ZM133.494 75.815C133.254 75.815 133.048 75.735 132.876 75.5749C132.706 75.4118 132.622 75.2179 132.622 74.9933C132.622 74.7655 132.706 74.5716 132.876 74.4116C133.048 74.2485 133.254 74.1669 133.494 74.1669C133.734 74.1669 133.939 74.2485 134.108 74.4116C134.28 74.5716 134.367 74.7655 134.367 74.9933C134.367 75.2179 134.28 75.4118 134.108 75.5749C133.939 75.735 133.734 75.815 133.494 75.815ZM139.344 76.9091V78.017H135.471V76.9091H139.344ZM136.51 75.2102H137.89V81.918C137.89 82.1857 137.93 82.3873 138.01 82.5227C138.09 82.6551 138.193 82.7459 138.32 82.7951C138.449 82.8413 138.589 82.8643 138.74 82.8643C138.85 82.8643 138.947 82.8567 139.03 82.8413C139.114 82.8259 139.178 82.8136 139.224 82.8043L139.474 83.9446C139.394 83.9754 139.28 84.0062 139.132 84.0369C138.984 84.0708 138.8 84.0893 138.578 84.0923C138.215 84.0985 137.876 84.0339 137.562 83.8984C137.248 83.763 136.995 83.5537 136.801 83.2706C136.607 82.9875 136.51 82.632 136.51 82.2042V75.2102ZM142.404 79.7898V84H141.024V74.5455H142.385V78.0632H142.473C142.639 77.6816 142.893 77.3784 143.235 77.1538C143.577 76.9291 144.023 76.8168 144.574 76.8168C145.06 76.8168 145.485 76.9168 145.848 77.1168C146.214 77.3169 146.497 77.6154 146.697 78.0124C146.9 78.4064 147.002 78.8988 147.002 79.4897V84H145.622V79.6559C145.622 79.1358 145.488 78.7326 145.22 78.4464C144.952 78.1571 144.58 78.0124 144.103 78.0124C143.777 78.0124 143.484 78.0817 143.226 78.2202C142.97 78.3587 142.769 78.5618 142.621 78.8295C142.476 79.0942 142.404 79.4143 142.404 79.7898ZM155.271 84.1431C154.606 84.1431 154.026 83.9908 153.531 83.6861C153.035 83.3814 152.651 82.9551 152.377 82.4073C152.103 81.8595 151.966 81.2193 151.966 80.4869C151.966 79.7513 152.103 79.1081 152.377 78.5572C152.651 78.0063 153.035 77.5785 153.531 77.2738C154.026 76.9691 154.606 76.8168 155.271 76.8168C155.936 76.8168 156.516 76.9691 157.012 77.2738C157.507 77.5785 157.892 78.0063 158.166 78.5572C158.44 79.1081 158.577 79.7513 158.577 80.4869C158.577 81.2193 158.44 81.8595 158.166 82.4073C157.892 82.9551 157.507 83.3814 157.012 83.6861C156.516 83.9908 155.936 84.1431 155.271 84.1431ZM155.276 82.9844C155.707 82.9844 156.064 82.8705 156.347 82.6428C156.63 82.415 156.839 82.1119 156.975 81.7333C157.113 81.3548 157.182 80.9377 157.182 80.4822C157.182 80.0298 157.113 79.6143 156.975 79.2358C156.839 78.8542 156.63 78.5479 156.347 78.3171C156.064 78.0863 155.707 77.9709 155.276 77.9709C154.842 77.9709 154.482 78.0863 154.196 78.3171C153.912 78.5479 153.702 78.8542 153.563 79.2358C153.428 79.6143 153.36 80.0298 153.36 80.4822C153.36 80.9377 153.428 81.3548 153.563 81.7333C153.702 82.1119 153.912 82.415 154.196 82.6428C154.482 82.8705 154.842 82.9844 155.276 82.9844ZM164.609 81.0593V76.9091H165.994V84H164.637V82.772H164.563C164.4 83.1506 164.138 83.466 163.778 83.7184C163.421 83.9677 162.977 84.0923 162.444 84.0923C161.989 84.0923 161.585 83.9923 161.235 83.7923C160.887 83.5891 160.613 83.2891 160.413 82.892C160.216 82.495 160.117 82.0041 160.117 81.4194V76.9091H161.498V81.2532C161.498 81.7364 161.632 82.1211 161.899 82.4073C162.167 82.6935 162.515 82.8366 162.943 82.8366C163.201 82.8366 163.458 82.772 163.714 82.6428C163.972 82.5135 164.186 82.3181 164.355 82.0565C164.528 81.7949 164.612 81.4625 164.609 81.0593ZM167.849 84V76.9091H169.183V78.0355H169.257C169.386 77.6539 169.614 77.3538 169.94 77.1353C170.269 76.9137 170.642 76.8029 171.057 76.8029C171.143 76.8029 171.245 76.806 171.362 76.8121C171.482 76.8183 171.576 76.826 171.644 76.8352V78.1555C171.588 78.1402 171.49 78.1232 171.348 78.1048C171.207 78.0832 171.065 78.0724 170.923 78.0724C170.597 78.0724 170.306 78.1417 170.051 78.2802C169.799 78.4156 169.598 78.6049 169.451 78.848C169.303 79.0881 169.229 79.362 169.229 79.6697V84H167.849ZM176.278 86.6591V76.9091H177.627V78.0586H177.742C177.822 77.9109 177.937 77.7401 178.088 77.5462C178.239 77.3523 178.448 77.183 178.716 77.0384C178.984 76.8906 179.338 76.8168 179.778 76.8168C180.35 76.8168 180.861 76.9614 181.31 77.2507C181.76 77.54 182.112 77.957 182.368 78.5018C182.626 79.0465 182.755 79.7021 182.755 80.4684C182.755 81.2347 182.628 81.8918 182.372 82.4396C182.117 82.9844 181.766 83.4045 181.32 83.6999C180.873 83.9923 180.364 84.1385 179.792 84.1385C179.361 84.1385 179.008 84.0662 178.734 83.9215C178.464 83.7769 178.251 83.6076 178.097 83.4137C177.944 83.2198 177.825 83.0475 177.742 82.8967H177.659V86.6591H176.278ZM177.631 80.4545C177.631 80.9531 177.703 81.3902 177.848 81.7656C177.993 82.1411 178.202 82.435 178.476 82.6474C178.75 82.8567 179.085 82.9613 179.482 82.9613C179.895 82.9613 180.239 82.852 180.516 82.6335C180.793 82.4119 181.003 82.1119 181.144 81.7333C181.289 81.3548 181.361 80.9285 181.361 80.4545C181.361 79.9867 181.29 79.5666 181.149 79.1942C181.01 78.8219 180.801 78.5279 180.521 78.3125C180.244 78.0971 179.898 77.9893 179.482 77.9893C179.082 77.9893 178.744 78.0924 178.467 78.2987C178.193 78.5049 177.985 78.7926 177.843 79.1619C177.702 79.5312 177.631 79.9621 177.631 80.4545ZM184.302 84V76.9091H185.636V78.0355H185.71C185.839 77.6539 186.067 77.3538 186.393 77.1353C186.723 76.9137 187.095 76.8029 187.51 76.8029C187.597 76.8029 187.698 76.806 187.815 76.8121C187.935 76.8183 188.029 76.826 188.097 76.8352V78.1555C188.041 78.1402 187.943 78.1232 187.801 78.1048C187.66 78.0832 187.518 78.0724 187.377 78.0724C187.05 78.0724 186.759 78.1417 186.504 78.2802C186.252 78.4156 186.052 78.6049 185.904 78.848C185.756 79.0881 185.682 79.362 185.682 79.6697V84H184.302ZM192.024 84.1431C191.359 84.1431 190.779 83.9908 190.284 83.6861C189.788 83.3814 189.404 82.9551 189.13 82.4073C188.856 81.8595 188.719 81.2193 188.719 80.4869C188.719 79.7513 188.856 79.1081 189.13 78.5572C189.404 78.0063 189.788 77.5785 190.284 77.2738C190.779 76.9691 191.359 76.8168 192.024 76.8168C192.689 76.8168 193.269 76.9691 193.765 77.2738C194.26 77.5785 194.645 78.0063 194.919 78.5572C195.193 79.1081 195.33 79.7513 195.33 80.4869C195.33 81.2193 195.193 81.8595 194.919 82.4073C194.645 82.9551 194.26 83.3814 193.765 83.6861C193.269 83.9908 192.689 84.1431 192.024 84.1431ZM192.029 82.9844C192.46 82.9844 192.817 82.8705 193.1 82.6428C193.383 82.415 193.592 82.1119 193.728 81.7333C193.866 81.3548 193.935 80.9377 193.935 80.4822C193.935 80.0298 193.866 79.6143 193.728 79.2358C193.592 78.8542 193.383 78.5479 193.1 78.3171C192.817 78.0863 192.46 77.9709 192.029 77.9709C191.595 77.9709 191.235 78.0863 190.949 78.3171C190.665 78.5479 190.455 78.8542 190.316 79.2358C190.181 79.6143 190.113 80.0298 190.113 80.4822C190.113 80.9377 190.181 81.3548 190.316 81.7333C190.455 82.1119 190.665 82.415 190.949 82.6428C191.235 82.8705 191.595 82.9844 192.029 82.9844ZM196.87 76.9091H198.251V84.4616C198.251 84.9356 198.164 85.3357 197.992 85.6619C197.823 85.9882 197.57 86.2359 197.235 86.4052C196.903 86.5745 196.492 86.6591 196.002 86.6591C195.953 86.6591 195.907 86.6591 195.864 86.6591C195.818 86.6591 195.77 86.6576 195.721 86.6545V85.468C195.764 85.468 195.802 85.468 195.836 85.468C195.867 85.468 195.902 85.468 195.942 85.468C196.269 85.468 196.504 85.3803 196.649 85.2049C196.796 85.0326 196.87 84.7817 196.87 84.4524V76.9091ZM197.554 75.815C197.313 75.815 197.107 75.735 196.935 75.5749C196.766 75.4118 196.681 75.2179 196.681 74.9933C196.681 74.7655 196.766 74.5716 196.935 74.4116C197.107 74.2485 197.313 74.1669 197.554 74.1669C197.794 74.1669 197.998 74.2485 198.168 74.4116C198.34 74.5716 198.426 74.7655 198.426 74.9933C198.426 75.2179 198.34 75.4118 198.168 75.5749C197.998 75.735 197.794 75.815 197.554 75.815ZM203.164 84.1431C202.465 84.1431 201.863 83.9938 201.359 83.6953C200.857 83.3937 200.469 82.9705 200.195 82.4258C199.924 81.878 199.789 81.2363 199.789 80.5007C199.789 79.7744 199.924 79.1342 200.195 78.5803C200.469 78.0263 200.851 77.5939 201.34 77.283C201.833 76.9722 202.408 76.8168 203.067 76.8168C203.467 76.8168 203.855 76.8829 204.23 77.0153C204.606 77.1476 204.943 77.3554 205.241 77.6385C205.54 77.9216 205.775 78.2894 205.947 78.7418C206.12 79.1912 206.206 79.7375 206.206 80.3807V80.87H200.569V79.8359H204.853C204.853 79.4728 204.779 79.1512 204.632 78.8711C204.484 78.5879 204.276 78.3648 204.009 78.2017C203.744 78.0386 203.433 77.957 203.076 77.957C202.688 77.957 202.35 78.0524 202.06 78.2433C201.774 78.431 201.553 78.6772 201.396 78.9819C201.242 79.2835 201.165 79.6113 201.165 79.9652V80.7731C201.165 81.247 201.248 81.6502 201.414 81.9826C201.583 82.315 201.819 82.5689 202.12 82.7443C202.422 82.9167 202.774 83.0028 203.178 83.0028C203.439 83.0028 203.678 82.9659 203.893 82.892C204.109 82.8151 204.295 82.7012 204.452 82.5504C204.609 82.3996 204.729 82.2134 204.812 81.9918L206.118 82.2273C206.014 82.612 205.826 82.949 205.555 83.2383C205.287 83.5245 204.95 83.7476 204.544 83.9077C204.141 84.0646 203.681 84.1431 203.164 84.1431ZM210.724 84.1431C210.038 84.1431 209.447 83.9877 208.952 83.6768C208.459 83.3629 208.081 82.9305 207.816 82.3796C207.551 81.8287 207.419 81.1978 207.419 80.4869C207.419 79.7667 207.554 79.1312 207.825 78.5803C208.096 78.0263 208.478 77.5939 208.97 77.283C209.463 76.9722 210.043 76.8168 210.71 76.8168C211.249 76.8168 211.729 76.9168 212.151 77.1168C212.572 77.3138 212.913 77.5908 213.171 77.9478C213.433 78.3048 213.588 78.7218 213.637 79.1989H212.294C212.22 78.8665 212.051 78.5803 211.786 78.3402C211.525 78.1001 211.174 77.9801 210.734 77.9801C210.349 77.9801 210.012 78.0817 209.723 78.2848C209.436 78.4848 209.213 78.7711 209.053 79.1435C208.893 79.5128 208.813 79.9498 208.813 80.4545C208.813 80.9716 208.892 81.4179 209.049 81.7933C209.206 82.1688 209.427 82.4596 209.713 82.6658C210.003 82.872 210.343 82.9751 210.734 82.9751C210.995 82.9751 211.232 82.9274 211.445 82.832C211.66 82.7335 211.84 82.5935 211.985 82.4119C212.132 82.2304 212.235 82.0118 212.294 81.7564H213.637C213.588 82.215 213.439 82.6243 213.19 82.9844C212.94 83.3445 212.606 83.6276 212.188 83.8338C211.772 84.04 211.284 84.1431 210.724 84.1431ZM218.423 76.9091V78.017H214.55V76.9091H218.423ZM215.589 75.2102H216.969V81.918C216.969 82.1857 217.009 82.3873 217.089 82.5227C217.169 82.6551 217.272 82.7459 217.399 82.7951C217.528 82.8413 217.668 82.8643 217.819 82.8643C217.93 82.8643 218.026 82.8567 218.11 82.8413C218.193 82.8259 218.257 82.8136 218.303 82.8043L218.553 83.9446C218.473 83.9754 218.359 84.0062 218.211 84.0369C218.063 84.0708 217.879 84.0893 217.657 84.0923C217.294 84.0985 216.955 84.0339 216.642 83.8984C216.328 83.763 216.074 83.5537 215.88 83.2706C215.686 82.9875 215.589 82.632 215.589 82.2042V75.2102ZM220.352 80.076C220.352 78.9188 220.504 77.8539 220.809 76.8814C221.114 75.9089 221.558 75.0117 222.143 74.19H223.408C223.18 74.4947 222.968 74.8686 222.771 75.3118C222.574 75.755 222.402 76.2412 222.254 76.7706C222.106 77.2969 221.991 77.8432 221.908 78.4094C221.825 78.9727 221.783 79.5282 221.783 80.076C221.783 80.8085 221.855 81.5502 222 82.3011C222.145 83.0521 222.34 83.7492 222.586 84.3924C222.833 85.0356 223.107 85.5604 223.408 85.9666H222.143C221.558 85.1449 221.114 84.2478 220.809 83.2752C220.504 82.3027 220.352 81.2363 220.352 80.076ZM230.177 78.6403L228.926 78.8619C228.874 78.7018 228.791 78.5495 228.677 78.4048C228.566 78.2602 228.415 78.1417 228.224 78.0494C228.033 77.957 227.795 77.9109 227.509 77.9109C227.118 77.9109 226.792 77.9986 226.53 78.174C226.268 78.3464 226.138 78.5695 226.138 78.8434C226.138 79.0804 226.225 79.2712 226.401 79.4158C226.576 79.5605 226.859 79.679 227.25 79.7713L228.377 80.0298C229.029 80.1806 229.515 80.413 229.835 80.7269C230.155 81.0408 230.316 81.4486 230.316 81.9503C230.316 82.375 230.192 82.7536 229.946 83.0859C229.703 83.4152 229.363 83.6738 228.926 83.8615C228.492 84.0492 227.989 84.1431 227.416 84.1431C226.622 84.1431 225.974 83.9738 225.473 83.6353C224.971 83.2937 224.663 82.8089 224.55 82.1811L225.884 81.978C225.967 82.3258 226.138 82.5889 226.396 82.7674C226.655 82.9428 226.992 83.0305 227.407 83.0305C227.86 83.0305 228.221 82.9367 228.492 82.7489C228.763 82.5581 228.898 82.3258 228.898 82.0518C228.898 81.8303 228.815 81.6441 228.649 81.4933C228.486 81.3424 228.235 81.2286 227.896 81.1516L226.696 80.8885C226.035 80.7377 225.545 80.4976 225.228 80.1683C224.914 79.839 224.757 79.422 224.757 78.9173C224.757 78.4987 224.874 78.1325 225.108 77.8185C225.342 77.5046 225.665 77.2599 226.078 77.0845C226.49 76.906 226.962 76.8168 227.495 76.8168C228.261 76.8168 228.864 76.983 229.305 77.3153C229.745 77.6446 230.035 78.0863 230.177 78.6403ZM234.488 80.076C234.488 81.2363 234.335 82.3027 234.031 83.2752C233.726 84.2478 233.281 85.1449 232.696 85.9666H231.432C231.659 85.6619 231.872 85.288 232.069 84.8448C232.266 84.4016 232.438 83.9169 232.586 83.3906C232.733 82.8613 232.849 82.3134 232.932 81.7472C233.015 81.1809 233.057 80.6238 233.057 80.076C233.057 79.3466 232.984 78.6064 232.84 77.8555C232.695 77.1045 232.499 76.4074 232.253 75.7642C232.007 75.121 231.733 74.5962 231.432 74.19H232.696C233.281 75.0117 233.726 75.9089 234.031 76.8814C234.335 77.8539 234.488 78.9188 234.488 80.076ZM237.67 84.0877C237.417 84.0877 237.2 83.9985 237.019 83.82C236.837 83.6384 236.746 83.4199 236.746 83.1644C236.746 82.9121 236.837 82.6966 237.019 82.5181C237.2 82.3365 237.417 82.2457 237.67 82.2457C237.922 82.2457 238.139 82.3365 238.32 82.5181C238.502 82.6966 238.593 82.9121 238.593 83.1644C238.593 83.3337 238.55 83.4891 238.464 83.6307C238.381 83.7692 238.27 83.88 238.131 83.9631C237.993 84.0462 237.839 84.0877 237.67 84.0877Z" fill="#8692A6"/>
</svg>
