<svg width="373" height="150" viewBox="0 0 373 150" fill="none" xmlns="http://www.w3.org/2000/svg">
<rect x="0.5" y="0.5" width="372" height="149" rx="8.5" fill="#0F9970" stroke="#EAECEF"/>
<g opacity="0.5">
<mask id="mask0_409_1075" style="mask-type:alpha" maskUnits="userSpaceOnUse" x="1" y="1" width="139" height="148">
<rect x="1" y="1" width="139" height="148" rx="8" fill="white"/>
</mask>
<g mask="url(#mask0_409_1075)">
<path d="M96.8271 23H18.0778C13.5713 23 9.9047 26.6666 9.9047 31.1731V49.4632C-5.03405 53.7383 -16 67.5182 -16 83.8116C-16 100.105 -5.03432 113.885 9.9047 118.16V149.628C9.9047 154.135 13.5713 157.802 18.0778 157.802H82.4312C83.1948 157.802 83.9267 157.498 84.4668 156.959L104.157 137.268C104.697 136.728 105 135.996 105 135.233V31.1731C105 26.6666 101.334 23 96.8271 23ZM18.0778 28.7573H96.8271C98.159 28.7573 99.2427 29.841 99.2427 31.1731V39.8609H15.662V31.1731C15.662 29.841 16.7457 28.7573 18.0778 28.7573ZM-10.2427 83.8113C-10.2427 67.2899 3.19831 53.8488 19.7198 53.8488C36.2412 53.8488 49.6822 67.2899 49.6822 83.8113C49.6822 100.333 36.2412 113.774 19.7198 113.774C3.19831 113.774 -10.2427 100.333 -10.2427 83.8113ZM15.662 149.628V119.299C16.9944 119.451 18.3479 119.531 19.72 119.531C30.4491 119.531 40.0876 114.776 46.6408 107.262H64.2788C65.8687 107.262 67.1575 105.974 67.1575 104.384C67.1575 102.794 65.8687 101.505 64.2788 101.505H50.7407C53.2446 97.1323 54.8487 92.1824 55.3038 86.9084H64.2786C65.8684 86.9084 67.1572 85.6196 67.1572 84.0298C67.1572 82.44 65.8684 81.1512 64.2786 81.1512H55.3403C54.951 75.889 53.4157 70.9411 50.985 66.5548H64.2783C65.8681 66.5548 67.1569 65.266 67.1569 63.6762C67.1569 62.0864 65.8681 60.7976 64.2783 60.7976H47.0136C40.4563 53.0327 30.6547 48.0913 19.7192 48.0913C18.347 48.0913 16.9935 48.1719 15.6612 48.3232V45.6181H99.2419V132.353H87.7249C83.2181 132.353 79.552 136.02 79.552 140.526V152.044H18.0778C16.7457 152.044 15.662 150.96 15.662 149.628ZM85.3101 147.973V140.526C85.3101 139.194 86.3939 138.111 87.7257 138.111H95.1718L85.3101 147.973Z" fill="#F5F9FF"/>
<path d="M75.5888 66.5551H85.1486C86.7385 66.5551 88.0273 65.2663 88.0273 63.6765C88.0273 62.0867 86.7385 60.7979 85.1486 60.7979H75.5888C73.999 60.7979 72.7102 62.0867 72.7102 63.6765C72.7102 65.2663 73.999 66.5551 75.5888 66.5551Z" fill="#F5F9FF"/>
<path d="M75.5888 86.9082H85.1486C86.7385 86.9082 88.0273 85.6193 88.0273 84.0295C88.0273 82.4397 86.7385 81.1509 85.1486 81.1509H75.5888C73.999 81.1509 72.7102 82.4397 72.7102 84.0295C72.7102 85.6193 73.999 86.9082 75.5888 86.9082Z" fill="#F5F9FF"/>
<path d="M75.5888 107.263H85.1486C86.7385 107.263 88.0273 105.974 88.0273 104.384C88.0273 102.794 86.7385 101.505 85.1486 101.505H75.5888C73.999 101.505 72.7102 102.794 72.7102 104.384C72.7102 105.974 73.999 107.263 75.5888 107.263Z" fill="#F5F9FF"/>
<path d="M85.1486 127.616C86.7385 127.616 88.0273 126.327 88.0273 124.737C88.0273 123.147 86.7385 121.858 85.1486 121.858H58.2197C56.6299 121.858 55.3411 123.147 55.3411 124.737C55.3411 126.327 56.6299 127.616 58.2197 127.616H85.1486Z" fill="#F5F9FF"/>
<path d="M42.0694 69.2899L38.5575 65.778C37.6116 64.8324 36.3544 64.3115 35.0168 64.3115C33.6791 64.3115 32.4219 64.8324 31.476 65.778L13.0555 84.1985L7.96361 79.1066C7.01805 78.1613 5.7605 77.6404 4.42317 77.6404C3.08584 77.6404 1.82828 78.1613 0.88272 79.1069L-2.63004 82.6194C-4.58203 84.5716 -4.58203 87.7483 -2.62976 89.7005L9.51451 101.845C10.4604 102.791 11.7179 103.312 13.0555 103.312H13.0558C14.3931 103.312 15.6507 102.791 16.596 101.845L42.0697 76.3714C44.0217 74.4191 44.0217 71.2422 42.0694 69.2899ZM13.0552 97.2434L1.97139 86.1598L4.42289 83.7083L11.0196 90.305C12.1439 91.4294 13.9665 91.4294 15.0908 90.305L35.0168 70.3791L37.4683 72.8306L13.0552 97.2434Z" fill="#F5F9FF"/>
</g>
</g>
<path d="M176.273 32.3984H173.352C173.268 31.9193 173.115 31.4948 172.891 31.125C172.667 30.75 172.388 30.4323 172.055 30.1719C171.721 29.9115 171.341 29.7161 170.914 29.5859C170.492 29.4505 170.036 29.3828 169.547 29.3828C168.677 29.3828 167.906 29.6016 167.234 30.0391C166.563 30.4714 166.036 31.1068 165.656 31.9453C165.276 32.7786 165.086 33.7969 165.086 35C165.086 36.224 165.276 37.2552 165.656 38.0937C166.042 38.9271 166.568 39.5573 167.234 39.9844C167.906 40.4062 168.674 40.6172 169.539 40.6172C170.018 40.6172 170.466 40.5547 170.883 40.4297C171.305 40.2995 171.682 40.1094 172.016 39.8594C172.354 39.6094 172.638 39.3021 172.867 38.9375C173.102 38.5729 173.263 38.1562 173.352 37.6875L176.273 37.7031C176.164 38.4635 175.927 39.1771 175.562 39.8438C175.203 40.5104 174.732 41.099 174.148 41.6094C173.565 42.1146 172.883 42.5104 172.102 42.7969C171.32 43.0781 170.453 43.2187 169.5 43.2187C168.094 43.2187 166.839 42.8932 165.734 42.2422C164.63 41.5911 163.76 40.651 163.125 39.4219C162.49 38.1927 162.172 36.7187 162.172 35C162.172 33.276 162.492 31.8021 163.133 30.5781C163.773 29.349 164.646 28.4089 165.75 27.7578C166.854 27.1068 168.104 26.7812 169.5 26.7812C170.391 26.7812 171.219 26.9062 171.984 27.1562C172.75 27.4062 173.432 27.7734 174.031 28.2578C174.63 28.737 175.122 29.3255 175.508 30.0234C175.898 30.7161 176.154 31.5078 176.273 32.3984ZM182.256 43.2422C181.495 43.2422 180.811 43.1068 180.201 42.8359C179.597 42.5599 179.118 42.1536 178.764 41.6172C178.415 41.0807 178.24 40.4193 178.24 39.6328C178.24 38.9557 178.365 38.3958 178.615 37.9531C178.865 37.5104 179.206 37.1562 179.639 36.8906C180.071 36.625 180.558 36.4245 181.1 36.2891C181.646 36.1484 182.212 36.0469 182.795 35.9844C183.498 35.9115 184.068 35.8464 184.506 35.7891C184.943 35.7266 185.261 35.6328 185.459 35.5078C185.662 35.3776 185.764 35.1771 185.764 34.9062V34.8594C185.764 34.2708 185.589 33.8151 185.24 33.4922C184.891 33.1693 184.389 33.0078 183.732 33.0078C183.04 33.0078 182.49 33.1589 182.084 33.4609C181.683 33.763 181.412 34.1198 181.271 34.5312L178.631 34.1562C178.839 33.4271 179.183 32.8177 179.662 32.3281C180.141 31.8333 180.727 31.4635 181.42 31.2187C182.113 30.9688 182.878 30.8438 183.717 30.8438C184.295 30.8438 184.87 30.9115 185.443 31.0469C186.016 31.1823 186.54 31.4062 187.014 31.7187C187.488 32.026 187.868 32.4453 188.154 32.9766C188.446 33.5078 188.592 34.1719 188.592 34.9687V43H185.873V41.3516H185.779C185.607 41.6849 185.365 41.9974 185.053 42.2891C184.745 42.5755 184.357 42.8073 183.889 42.9844C183.425 43.1563 182.881 43.2422 182.256 43.2422ZM182.99 41.1641C183.558 41.1641 184.05 41.0521 184.467 40.8281C184.883 40.599 185.204 40.2969 185.428 39.9219C185.657 39.5469 185.771 39.138 185.771 38.6953V37.2812C185.683 37.3542 185.532 37.4219 185.318 37.4844C185.11 37.5469 184.876 37.6016 184.615 37.6484C184.355 37.6953 184.097 37.737 183.842 37.7734C183.587 37.8099 183.365 37.8411 183.178 37.8672C182.756 37.9245 182.378 38.0182 182.045 38.1484C181.712 38.2786 181.449 38.4609 181.256 38.6953C181.063 38.9245 180.967 39.2214 180.967 39.5859C180.967 40.1068 181.157 40.5 181.537 40.7656C181.917 41.0312 182.402 41.1641 182.99 41.1641ZM191.436 43V31H194.178V33H194.303C194.521 32.3073 194.896 31.7734 195.428 31.3984C195.964 31.0182 196.576 30.8281 197.264 30.8281C197.42 30.8281 197.594 30.8359 197.787 30.8516C197.985 30.862 198.149 30.8802 198.279 30.9062V33.5078C198.16 33.4661 197.969 33.4297 197.709 33.3984C197.454 33.362 197.206 33.3437 196.967 33.3437C196.451 33.3437 195.988 33.4557 195.576 33.6797C195.17 33.8984 194.85 34.2031 194.615 34.5937C194.381 34.9844 194.264 35.4349 194.264 35.9453V43H191.436ZM204.977 43.2344C203.773 43.2344 202.734 42.9844 201.859 42.4844C200.99 41.9792 200.32 41.2656 199.852 40.3437C199.383 39.4167 199.148 38.3255 199.148 37.0703C199.148 35.8359 199.383 34.7526 199.852 33.8203C200.326 32.8828 200.987 32.1536 201.836 31.6328C202.685 31.1068 203.682 30.8438 204.828 30.8438C205.568 30.8438 206.266 30.9635 206.922 31.2031C207.583 31.4375 208.167 31.8021 208.672 32.2969C209.182 32.7917 209.583 33.4219 209.875 34.1875C210.167 34.9479 210.313 35.8542 210.313 36.9062V37.7734H200.477V35.8672H207.602C207.596 35.3255 207.479 34.8437 207.25 34.4219C207.021 33.9948 206.701 33.6589 206.289 33.4141C205.883 33.1693 205.409 33.0469 204.867 33.0469C204.289 33.0469 203.781 33.1875 203.344 33.4687C202.906 33.7448 202.565 34.1094 202.32 34.5625C202.081 35.0104 201.958 35.5026 201.953 36.0391V37.7031C201.953 38.401 202.081 39 202.336 39.5C202.591 39.9948 202.948 40.375 203.406 40.6406C203.865 40.901 204.401 41.0312 205.016 41.0312C205.427 41.0312 205.799 40.974 206.133 40.8594C206.466 40.7396 206.755 40.5651 207 40.3359C207.245 40.1068 207.43 39.8229 207.555 39.4844L210.195 39.7812C210.029 40.4792 209.711 41.0885 209.242 41.6094C208.779 42.125 208.185 42.526 207.461 42.8125C206.737 43.0937 205.909 43.2344 204.977 43.2344ZM218.018 43.2344C216.814 43.2344 215.775 42.9844 214.9 42.4844C214.031 41.9792 213.361 41.2656 212.893 40.3437C212.424 39.4167 212.189 38.3255 212.189 37.0703C212.189 35.8359 212.424 34.7526 212.893 33.8203C213.367 32.8828 214.028 32.1536 214.877 31.6328C215.726 31.1068 216.723 30.8438 217.869 30.8438C218.609 30.8438 219.307 30.9635 219.963 31.2031C220.624 31.4375 221.208 31.8021 221.713 32.2969C222.223 32.7917 222.624 33.4219 222.916 34.1875C223.208 34.9479 223.354 35.8542 223.354 36.9062V37.7734H213.518V35.8672H220.643C220.637 35.3255 220.52 34.8437 220.291 34.4219C220.062 33.9948 219.742 33.6589 219.33 33.4141C218.924 33.1693 218.45 33.0469 217.908 33.0469C217.33 33.0469 216.822 33.1875 216.385 33.4687C215.947 33.7448 215.606 34.1094 215.361 34.5625C215.122 35.0104 214.999 35.5026 214.994 36.0391V37.7031C214.994 38.401 215.122 39 215.377 39.5C215.632 39.9948 215.989 40.375 216.447 40.6406C216.906 40.901 217.442 41.0312 218.057 41.0312C218.468 41.0312 218.84 40.974 219.174 40.8594C219.507 40.7396 219.796 40.5651 220.041 40.3359C220.286 40.1068 220.471 39.8229 220.596 39.4844L223.236 39.7812C223.07 40.4792 222.752 41.0885 222.283 41.6094C221.82 42.125 221.226 42.526 220.502 42.8125C219.778 43.0937 218.95 43.2344 218.018 43.2344ZM225.746 43V31H228.488V33H228.613C228.832 32.3073 229.207 31.7734 229.738 31.3984C230.275 31.0182 230.887 30.8281 231.574 30.8281C231.73 30.8281 231.905 30.8359 232.098 30.8516C232.296 30.862 232.46 30.8802 232.59 30.9062V33.5078C232.47 33.4661 232.28 33.4297 232.02 33.3984C231.764 33.362 231.517 33.3437 231.277 33.3437C230.762 33.3437 230.298 33.4557 229.887 33.6797C229.48 33.8984 229.16 34.2031 228.926 34.5937C228.691 34.9844 228.574 35.4349 228.574 35.9453V43H225.746ZM240.051 43V27H246.051C247.28 27 248.311 27.2292 249.145 27.6875C249.983 28.1458 250.616 28.776 251.043 29.5781C251.475 30.375 251.691 31.2812 251.691 32.2969C251.691 33.3229 251.475 34.2344 251.043 35.0313C250.611 35.8281 249.973 36.4557 249.129 36.9141C248.285 37.3672 247.246 37.5937 246.012 37.5937H242.035V35.2109H245.621C246.34 35.2109 246.928 35.0859 247.387 34.8359C247.845 34.5859 248.184 34.2422 248.402 33.8047C248.626 33.3672 248.738 32.8646 248.738 32.2969C248.738 31.7292 248.626 31.2292 248.402 30.7969C248.184 30.3646 247.842 30.0286 247.379 29.7891C246.921 29.5443 246.329 29.4219 245.605 29.4219H242.949V43H240.051ZM254.084 43V31H256.826V33H256.951C257.17 32.3073 257.545 31.7734 258.076 31.3984C258.613 31.0182 259.225 30.8281 259.912 30.8281C260.068 30.8281 260.243 30.8359 260.436 30.8516C260.633 30.862 260.798 30.8802 260.928 30.9062V33.5078C260.808 33.4661 260.618 33.4297 260.357 33.3984C260.102 33.362 259.855 33.3437 259.615 33.3437C259.1 33.3437 258.636 33.4557 258.225 33.6797C257.818 33.8984 257.498 34.2031 257.264 34.5937C257.029 34.9844 256.912 35.4349 256.912 35.9453V43H254.084ZM267.547 43.2344C266.375 43.2344 265.359 42.9766 264.5 42.4609C263.641 41.9453 262.974 41.224 262.5 40.2969C262.031 39.3698 261.797 38.2865 261.797 37.0469C261.797 35.8073 262.031 34.7214 262.5 33.7891C262.974 32.8568 263.641 32.1328 264.5 31.6172C265.359 31.1016 266.375 30.8438 267.547 30.8438C268.719 30.8438 269.734 31.1016 270.594 31.6172C271.453 32.1328 272.117 32.8568 272.586 33.7891C273.06 34.7214 273.297 35.8073 273.297 37.0469C273.297 38.2865 273.06 39.3698 272.586 40.2969C272.117 41.224 271.453 41.9453 270.594 42.4609C269.734 42.9766 268.719 43.2344 267.547 43.2344ZM267.562 40.9687C268.198 40.9687 268.729 40.7943 269.156 40.4453C269.583 40.0911 269.901 39.6172 270.109 39.0234C270.323 38.4297 270.43 37.7682 270.43 37.0391C270.43 36.3047 270.323 35.6406 270.109 35.0469C269.901 34.4479 269.583 33.9714 269.156 33.6172C268.729 33.263 268.198 33.0859 267.562 33.0859C266.911 33.0859 266.37 33.263 265.938 33.6172C265.51 33.9714 265.19 34.4479 264.977 35.0469C264.768 35.6406 264.664 36.3047 264.664 37.0391C264.664 37.7682 264.768 38.4297 264.977 39.0234C265.19 39.6172 265.51 40.0911 265.938 40.4453C266.37 40.7943 266.911 40.9687 267.562 40.9687ZM281.775 31V33.1875H274.682V31H281.775ZM276.455 43V29.8672C276.455 29.0599 276.622 28.388 276.955 27.8516C277.294 27.3151 277.747 26.9141 278.314 26.6484C278.882 26.3828 279.512 26.25 280.205 26.25C280.695 26.25 281.13 26.2891 281.51 26.3672C281.89 26.4453 282.171 26.5156 282.354 26.5781L281.791 28.7656C281.671 28.7292 281.52 28.6927 281.338 28.6562C281.156 28.6146 280.952 28.5937 280.729 28.5937C280.202 28.5937 279.83 28.7214 279.611 28.9766C279.398 29.2266 279.291 29.5859 279.291 30.0547V43H276.455ZM283.99 43V31H286.818V43H283.99ZM285.412 29.2969C284.964 29.2969 284.579 29.1484 284.256 28.8516C283.933 28.5495 283.771 28.1875 283.771 27.7656C283.771 27.3385 283.933 26.9766 284.256 26.6797C284.579 26.3776 284.964 26.2266 285.412 26.2266C285.865 26.2266 286.251 26.3776 286.568 26.6797C286.891 26.9766 287.053 27.3385 287.053 27.7656C287.053 28.1875 286.891 28.5495 286.568 28.8516C286.251 29.1484 285.865 29.2969 285.412 29.2969ZM292.555 27V43H289.727V27H292.555ZM300.775 43.2344C299.572 43.2344 298.533 42.9844 297.658 42.4844C296.788 41.9792 296.119 41.2656 295.65 40.3437C295.182 39.4167 294.947 38.3255 294.947 37.0703C294.947 35.8359 295.182 34.7526 295.65 33.8203C296.124 32.8828 296.786 32.1536 297.635 31.6328C298.484 31.1068 299.481 30.8438 300.627 30.8438C301.367 30.8438 302.064 30.9635 302.721 31.2031C303.382 31.4375 303.965 31.8021 304.471 32.2969C304.981 32.7917 305.382 33.4219 305.674 34.1875C305.965 34.9479 306.111 35.8542 306.111 36.9062V37.7734H296.275V35.8672H303.4C303.395 35.3255 303.278 34.8437 303.049 34.4219C302.82 33.9948 302.499 33.6589 302.088 33.4141C301.682 33.1693 301.208 33.0469 300.666 33.0469C300.088 33.0469 299.58 33.1875 299.143 33.4687C298.705 33.7448 298.364 34.1094 298.119 34.5625C297.88 35.0104 297.757 35.5026 297.752 36.0391V37.7031C297.752 38.401 297.88 39 298.135 39.5C298.39 39.9948 298.747 40.375 299.205 40.6406C299.663 40.901 300.2 41.0312 300.814 41.0312C301.226 41.0312 301.598 40.974 301.932 40.8594C302.265 40.7396 302.554 40.5651 302.799 40.3359C303.044 40.1068 303.229 39.8229 303.354 39.4844L305.994 39.7812C305.827 40.4792 305.51 41.0885 305.041 41.6094C304.577 42.125 303.984 42.526 303.26 42.8125C302.536 43.0937 301.708 43.2344 300.775 43.2344Z" fill="white"/>
<path d="M162.119 112.818H163.983L167.224 120.733H167.344L170.585 112.818H172.45V123H170.988V115.632H170.893L167.891 122.985H166.678L163.675 115.627H163.58V123H162.119V112.818ZM176.786 123.169C176.302 123.169 175.865 123.08 175.474 122.901C175.082 122.718 174.773 122.455 174.544 122.11C174.318 121.765 174.206 121.343 174.206 120.842C174.206 120.411 174.289 120.057 174.454 119.778C174.62 119.5 174.844 119.28 175.126 119.117C175.407 118.955 175.722 118.832 176.07 118.749C176.418 118.666 176.773 118.603 177.134 118.56C177.591 118.507 177.963 118.464 178.248 118.431C178.533 118.395 178.74 118.337 178.869 118.257C178.998 118.178 179.063 118.048 179.063 117.869V117.835C179.063 117.4 178.94 117.064 178.695 116.825C178.453 116.587 178.092 116.467 177.611 116.467C177.111 116.467 176.716 116.578 176.428 116.8C176.143 117.019 175.946 117.263 175.836 117.531L174.439 117.213C174.605 116.749 174.847 116.375 175.165 116.089C175.487 115.801 175.856 115.592 176.274 115.463C176.692 115.33 177.131 115.264 177.591 115.264C177.896 115.264 178.22 115.301 178.561 115.374C178.906 115.443 179.227 115.572 179.525 115.761C179.827 115.95 180.074 116.22 180.266 116.572C180.458 116.92 180.555 117.372 180.555 117.929V123H179.103V121.956H179.043C178.947 122.148 178.803 122.337 178.611 122.523C178.418 122.708 178.171 122.862 177.87 122.985C177.568 123.108 177.207 123.169 176.786 123.169ZM177.109 121.976C177.52 121.976 177.872 121.895 178.163 121.732C178.458 121.57 178.682 121.358 178.834 121.096C178.99 120.831 179.068 120.547 179.068 120.246V119.261C179.015 119.314 178.912 119.364 178.76 119.411C178.611 119.454 178.44 119.492 178.248 119.525C178.055 119.555 177.868 119.583 177.686 119.609C177.504 119.633 177.351 119.652 177.229 119.669C176.94 119.705 176.677 119.767 176.438 119.853C176.203 119.939 176.014 120.063 175.871 120.226C175.732 120.385 175.662 120.597 175.662 120.862C175.662 121.23 175.798 121.509 176.07 121.697C176.342 121.883 176.688 121.976 177.109 121.976ZM184.021 118.466V123H182.534V115.364H183.961V116.607H184.056C184.231 116.202 184.507 115.877 184.881 115.632C185.259 115.387 185.734 115.264 186.308 115.264C186.828 115.264 187.284 115.374 187.675 115.592C188.066 115.808 188.369 116.129 188.585 116.557C188.8 116.984 188.908 117.513 188.908 118.143V123H187.422V118.322C187.422 117.768 187.277 117.336 186.989 117.024C186.701 116.709 186.305 116.552 185.801 116.552C185.456 116.552 185.15 116.626 184.881 116.776C184.616 116.925 184.405 117.143 184.25 117.432C184.097 117.717 184.021 118.062 184.021 118.466ZM193.124 123.169C192.64 123.169 192.203 123.08 191.811 122.901C191.42 122.718 191.11 122.455 190.882 122.11C190.656 121.765 190.544 121.343 190.544 120.842C190.544 120.411 190.627 120.057 190.792 119.778C190.958 119.5 191.182 119.28 191.463 119.117C191.745 118.955 192.06 118.832 192.408 118.749C192.756 118.666 193.111 118.603 193.472 118.56C193.929 118.507 194.301 118.464 194.586 118.431C194.871 118.395 195.078 118.337 195.207 118.257C195.336 118.178 195.401 118.048 195.401 117.869V117.835C195.401 117.4 195.278 117.064 195.033 116.825C194.791 116.587 194.43 116.467 193.949 116.467C193.449 116.467 193.054 116.578 192.766 116.8C192.481 117.019 192.284 117.263 192.174 117.531L190.777 117.213C190.943 116.749 191.185 116.375 191.503 116.089C191.825 115.801 192.194 115.592 192.612 115.463C193.029 115.33 193.469 115.264 193.929 115.264C194.234 115.264 194.557 115.301 194.899 115.374C195.243 115.443 195.565 115.572 195.863 115.761C196.165 115.95 196.412 116.22 196.604 116.572C196.796 116.92 196.892 117.372 196.892 117.929V123H195.441V121.956H195.381C195.285 122.148 195.141 122.337 194.949 122.523C194.756 122.708 194.509 122.862 194.208 122.985C193.906 123.108 193.545 123.169 193.124 123.169ZM193.447 121.976C193.858 121.976 194.209 121.895 194.501 121.732C194.796 121.57 195.02 121.358 195.172 121.096C195.328 120.831 195.406 120.547 195.406 120.246V119.261C195.353 119.314 195.25 119.364 195.098 119.411C194.949 119.454 194.778 119.492 194.586 119.525C194.393 119.555 194.206 119.583 194.024 119.609C193.842 119.633 193.689 119.652 193.566 119.669C193.278 119.705 193.015 119.767 192.776 119.853C192.541 119.939 192.352 120.063 192.209 120.226C192.07 120.385 192 120.597 192 120.862C192 121.23 192.136 121.509 192.408 121.697C192.68 121.883 193.026 121.976 193.447 121.976ZM202.074 126.023C201.468 126.023 200.945 125.943 200.508 125.784C200.074 125.625 199.719 125.415 199.444 125.153C199.169 124.891 198.963 124.604 198.828 124.293L200.105 123.766C200.195 123.911 200.314 124.066 200.463 124.228C200.616 124.394 200.821 124.535 201.08 124.651C201.342 124.767 201.678 124.825 202.089 124.825C202.652 124.825 203.118 124.687 203.486 124.412C203.854 124.14 204.038 123.706 204.038 123.109V121.608H203.943C203.854 121.77 203.725 121.951 203.556 122.15C203.39 122.349 203.161 122.521 202.869 122.667C202.578 122.813 202.198 122.886 201.731 122.886C201.128 122.886 200.584 122.745 200.1 122.463C199.62 122.178 199.239 121.759 198.957 121.205C198.678 120.648 198.539 119.964 198.539 119.152C198.539 118.34 198.677 117.644 198.952 117.064C199.23 116.484 199.611 116.04 200.095 115.732C200.579 115.42 201.128 115.264 201.741 115.264C202.215 115.264 202.598 115.344 202.889 115.503C203.181 115.659 203.408 115.841 203.57 116.05C203.736 116.259 203.864 116.442 203.953 116.602H204.063V115.364H205.519V123.169C205.519 123.825 205.367 124.364 205.062 124.785C204.757 125.206 204.344 125.517 203.824 125.719C203.307 125.922 202.724 126.023 202.074 126.023ZM202.059 121.653C202.487 121.653 202.848 121.553 203.143 121.354C203.441 121.152 203.667 120.864 203.819 120.489C203.975 120.112 204.053 119.659 204.053 119.132C204.053 118.618 203.977 118.166 203.824 117.775C203.672 117.384 203.448 117.079 203.153 116.86C202.858 116.638 202.493 116.527 202.059 116.527C201.612 116.527 201.239 116.643 200.941 116.875C200.642 117.104 200.417 117.415 200.264 117.81C200.115 118.204 200.041 118.645 200.041 119.132C200.041 119.633 200.117 120.072 200.269 120.45C200.422 120.827 200.647 121.122 200.945 121.335C201.247 121.547 201.618 121.653 202.059 121.653ZM210.804 123.154C210.052 123.154 209.404 122.993 208.86 122.672C208.32 122.347 207.902 121.891 207.607 121.305C207.316 120.715 207.17 120.024 207.17 119.232C207.17 118.449 207.316 117.76 207.607 117.163C207.902 116.567 208.313 116.101 208.84 115.766C209.371 115.432 209.99 115.264 210.7 115.264C211.131 115.264 211.548 115.335 211.953 115.478C212.357 115.621 212.72 115.844 213.041 116.149C213.363 116.454 213.616 116.85 213.802 117.337C213.988 117.821 214.08 118.41 214.08 119.102V119.629H208.01V118.516H212.624C212.624 118.125 212.544 117.778 212.385 117.477C212.226 117.172 212.002 116.931 211.714 116.756C211.429 116.58 211.094 116.492 210.71 116.492C210.292 116.492 209.927 116.595 209.616 116.8C209.308 117.003 209.069 117.268 208.9 117.596C208.734 117.921 208.651 118.274 208.651 118.655V119.525C208.651 120.035 208.741 120.469 208.92 120.827C209.102 121.185 209.356 121.459 209.681 121.648C210.005 121.833 210.385 121.926 210.819 121.926C211.101 121.926 211.358 121.886 211.59 121.807C211.822 121.724 212.022 121.601 212.191 121.439C212.36 121.277 212.49 121.076 212.579 120.837L213.986 121.091C213.873 121.505 213.671 121.868 213.379 122.18C213.091 122.488 212.728 122.728 212.291 122.901C211.856 123.07 211.361 123.154 210.804 123.154ZM219.554 123V112.818H223.183C223.976 112.818 224.632 112.962 225.152 113.251C225.673 113.539 226.062 113.933 226.32 114.434C226.579 114.931 226.708 115.491 226.708 116.114C226.708 116.741 226.577 117.304 226.316 117.805C226.057 118.302 225.666 118.696 225.142 118.988C224.622 119.276 223.967 119.42 223.178 119.42H220.683V118.118H223.039C223.54 118.118 223.946 118.032 224.257 117.859C224.569 117.684 224.798 117.445 224.943 117.143C225.089 116.842 225.162 116.499 225.162 116.114C225.162 115.73 225.089 115.388 224.943 115.09C224.798 114.792 224.567 114.558 224.252 114.389C223.941 114.22 223.53 114.136 223.019 114.136H221.09V123H219.554ZM228.39 123V115.364H229.827V116.577H229.906C230.045 116.166 230.291 115.843 230.642 115.607C230.993 115.369 231.394 115.249 231.845 115.249C232.054 115.249 232.241 115.274 232.407 115.324C232.573 115.374 232.719 115.442 232.844 115.528L232.367 116.771C232.278 116.728 232.177 116.693 232.064 116.666C231.951 116.636 231.822 116.621 231.676 116.621C231.331 116.621 231.023 116.696 230.751 116.845C230.483 116.991 230.269 117.193 230.11 117.452C229.954 117.71 229.876 118.005 229.876 118.337V123H228.39ZM236.884 123.154C236.168 123.154 235.543 122.99 235.01 122.662C234.476 122.334 234.062 121.875 233.767 121.285C233.472 120.695 233.324 120.005 233.324 119.217C233.324 118.424 233.472 117.732 233.767 117.138C234.062 116.545 234.476 116.085 235.01 115.756C235.543 115.428 236.168 115.264 236.884 115.264C237.6 115.264 238.225 115.428 238.758 115.756C239.292 116.085 239.706 116.545 240.001 117.138C240.296 117.732 240.444 118.424 240.444 119.217C240.444 120.005 240.296 120.695 240.001 121.285C239.706 121.875 239.292 122.334 238.758 122.662C238.225 122.99 237.6 123.154 236.884 123.154ZM236.889 121.906C237.353 121.906 237.737 121.784 238.042 121.538C238.347 121.293 238.573 120.967 238.718 120.559C238.868 120.151 238.942 119.702 238.942 119.212C238.942 118.724 238.868 118.277 238.718 117.869C238.573 117.458 238.347 117.129 238.042 116.88C237.737 116.631 237.353 116.507 236.889 116.507C236.422 116.507 236.034 116.631 235.725 116.88C235.421 117.129 235.194 117.458 235.044 117.869C234.899 118.277 234.826 118.724 234.826 119.212C234.826 119.702 234.899 120.151 235.044 120.559C235.194 120.967 235.421 121.293 235.725 121.538C236.034 121.784 236.422 121.906 236.889 121.906ZM245.737 115.364V116.557H241.422V115.364H245.737ZM242.605 123V114.479C242.605 114.001 242.709 113.605 242.918 113.29C243.127 112.972 243.404 112.735 243.748 112.58C244.093 112.42 244.468 112.341 244.872 112.341C245.17 112.341 245.425 112.366 245.638 112.415C245.85 112.462 246.007 112.505 246.11 112.545L245.762 113.748C245.692 113.728 245.603 113.705 245.493 113.678C245.384 113.648 245.251 113.634 245.096 113.634C244.734 113.634 244.476 113.723 244.32 113.902C244.168 114.081 244.091 114.339 244.091 114.678V123H242.605ZM247.271 123V115.364H248.757V123H247.271ZM248.021 114.185C247.763 114.185 247.541 114.099 247.355 113.927C247.173 113.751 247.082 113.542 247.082 113.3C247.082 113.055 247.173 112.846 247.355 112.674C247.541 112.498 247.763 112.411 248.021 112.411C248.28 112.411 248.5 112.498 248.683 112.674C248.868 112.846 248.961 113.055 248.961 113.3C248.961 113.542 248.868 113.751 248.683 113.927C248.5 114.099 248.28 114.185 248.021 114.185ZM250.757 112.818H252.244V120.912C252.244 121.24 252.285 121.472 252.368 121.608C252.454 121.744 252.616 121.808 252.855 121.802C252.984 121.799 253.08 121.79 253.143 121.777C253.21 121.764 253.269 121.749 253.322 121.732L253.591 122.92C253.488 122.95 253.357 122.978 253.198 123.005C253.042 123.035 252.865 123.051 252.666 123.055C252.023 123.065 251.544 122.912 251.229 122.597C250.915 122.282 250.757 121.823 250.757 121.22V112.818ZM257.863 123.154C257.11 123.154 256.462 122.993 255.919 122.672C255.379 122.347 254.961 121.891 254.666 121.305C254.374 120.715 254.229 120.024 254.229 119.232C254.229 118.449 254.374 117.76 254.666 117.163C254.961 116.567 255.372 116.101 255.899 115.766C256.429 115.432 257.049 115.264 257.758 115.264C258.189 115.264 258.607 115.335 259.011 115.478C259.416 115.621 259.778 115.844 260.1 116.149C260.421 116.454 260.675 116.85 260.861 117.337C261.046 117.821 261.139 118.41 261.139 119.102V119.629H255.069V118.516H259.682C259.682 118.125 259.603 117.778 259.444 117.477C259.285 117.172 259.061 116.931 258.773 116.756C258.488 116.58 258.153 116.492 257.768 116.492C257.351 116.492 256.986 116.595 256.675 116.8C256.366 117.003 256.128 117.268 255.959 117.596C255.793 117.921 255.71 118.274 255.71 118.655V119.525C255.71 120.035 255.8 120.469 255.979 120.827C256.161 121.185 256.414 121.459 256.739 121.648C257.064 121.833 257.443 121.926 257.878 121.926C258.159 121.926 258.416 121.886 258.648 121.807C258.88 121.724 259.081 121.601 259.25 121.439C259.419 121.277 259.548 121.076 259.638 120.837L261.045 121.091C260.932 121.505 260.73 121.868 260.438 122.18C260.15 122.488 259.787 122.728 259.349 122.901C258.915 123.07 258.42 123.154 257.863 123.154Z" fill="white"/>
<path d="M161 125.784H261.795V126.739H161V125.784Z" fill="white"/>
<path fill-rule="evenodd" clip-rule="evenodd" d="M280.53 112.22C280.238 111.927 279.763 111.927 279.47 112.22C279.177 112.513 279.177 112.987 279.47 113.28L283.439 117.25H274.75C274.336 117.25 274 117.586 274 118C274 118.414 274.336 118.75 274.75 118.75H283.439L279.47 122.72C279.177 123.013 279.177 123.487 279.47 123.78C279.763 124.073 280.238 124.073 280.53 123.78L285.78 118.53C286.073 118.237 286.073 117.763 285.78 117.47L280.53 112.22Z" fill="white"/>
</svg>
