<svg width="373" height="150" viewBox="0 0 373 150" fill="none" xmlns="http://www.w3.org/2000/svg">
<rect x="0.5" y="0.5" width="372" height="149" rx="8.5" fill="#9A7107" stroke="#EAECEF"/>
<g opacity="0.5">
<mask id="mask0_409_1043" style="mask-type:alpha" maskUnits="userSpaceOnUse" x="1" y="1" width="139" height="148">
<rect x="1" y="1" width="139" height="148" rx="8" fill="white"/>
</mask>
<g mask="url(#mask0_409_1043)">
<path d="M60.6039 126.852H13.246C11.8589 126.852 10.5546 126.303 9.5712 125.32C8.59817 124.326 8.05989 123.022 8.08059 121.624C8.1013 119.409 8.1634 117.183 8.26692 115.02C8.66027 106.335 9.56085 99.4306 10.9376 94.4929C11.6518 91.9464 12.5214 89.8658 13.6704 87.9508C14.6745 86.2738 16.9207 83.0752 20.7922 80.446C21.3408 80.0733 21.8998 79.7317 22.4588 79.4212C27.0859 76.8126 31.5267 76.4296 34.4354 76.5538C34.9219 76.5745 35.3878 76.7401 35.7811 77.03L47.1988 85.3526L59.2686 76.9989C59.6516 76.7298 60.1071 76.5849 60.5729 76.5642C63.4816 76.4296 67.9224 76.8229 72.5495 79.4315C73.1085 79.7421 73.6675 80.094 74.2058 80.4563C78.0772 83.0856 80.3338 86.2842 81.3276 87.9611C82.1971 89.4207 82.8803 90.9113 83.4807 92.6503C83.9258 93.9443 83.2322 95.3624 81.9383 95.8075C80.6444 96.2527 79.2262 95.5591 78.7811 94.2652C78.3049 92.8677 77.7563 91.6773 77.0628 90.5179C76.4313 89.4517 74.6095 86.75 71.4109 84.5762C70.9865 84.2864 70.5413 84.0172 70.1066 83.7688C66.8873 81.9573 63.7922 81.5225 61.5563 81.5225C61.5252 81.5225 61.5045 81.5225 61.4735 81.5225L48.5652 90.4662C47.6957 91.0666 46.5363 91.0562 45.6875 90.4351L33.4727 81.5225C31.2368 81.5122 28.121 81.9469 24.881 83.7688C24.4463 84.0172 24.0012 84.2864 23.5767 84.5762C20.3885 86.75 18.5563 89.4517 17.9248 90.5179C16.9932 92.0707 16.31 93.7165 15.72 95.8593C14.4571 100.362 13.5979 107.08 13.2253 115.268C13.1321 117.38 13.07 119.554 13.0493 121.707C13.0493 121.728 13.0493 121.79 13.1114 121.852C13.1735 121.914 13.2356 121.914 13.2563 121.914H60.6143C61.991 121.914 63.0986 123.022 63.0986 124.398C63.0986 125.775 61.9807 126.852 60.6039 126.852Z" fill="#F5F9FF"/>
<path d="M83.1597 105.134C81.783 105.134 80.6754 104.026 80.6754 102.65C80.6754 101.273 81.783 100.165 83.1597 100.165C84.5365 100.165 85.6441 101.273 85.6441 102.65C85.6441 104.026 84.5365 105.134 83.1597 105.134Z" fill="#F5F9FF"/>
<path d="M26.1231 126.851C24.7464 126.851 23.6388 125.744 23.6388 124.367V103.623C23.6388 102.246 24.7464 101.138 26.1231 101.138C27.4999 101.138 28.6075 102.246 28.6075 103.623V124.367C28.6075 125.744 27.4895 126.851 26.1231 126.851Z" fill="#F5F9FF"/>
<path d="M47.6017 77.4957C42.3535 77.4957 37.4262 75.2494 33.7307 71.1606C30.1077 67.1442 28.1099 61.8339 28.1099 56.182V48.2321C28.1099 47.1763 28.7827 46.2343 29.7868 45.8823C30.7185 45.5511 33.4927 44.34 34.9936 42.6734C35.8735 41.69 37.3434 41.5554 38.3682 42.3835C38.5028 42.4767 40.511 43.9466 43.9683 44.6919C48.7404 45.7167 53.8954 44.9403 59.2885 42.4042C59.3299 42.3835 59.3713 42.3628 59.4231 42.3421C60.3651 41.9591 61.4416 42.1972 62.1455 42.9322C62.8908 43.7189 64.5263 45.2612 65.9031 46.1101C66.6381 46.5655 67.0832 47.3626 67.0832 48.2218V56.1924C67.0832 61.8339 65.0853 67.1546 61.4623 71.171C57.7772 75.2494 52.8499 77.4957 47.6017 77.4957ZM33.0786 49.8987V56.1924C33.0786 65.1982 39.5897 72.527 47.6017 72.527C55.6137 72.527 62.1145 65.1982 62.1145 56.1924V49.5468C61.2553 48.905 60.4479 48.2011 59.8164 47.611C52.4255 50.6854 46.4216 50.3542 42.6019 49.4846C40.2108 48.936 38.3578 48.1286 37.126 47.4558C35.7286 48.5634 34.2069 49.3811 33.0786 49.8987Z" fill="#F5F9FF"/>
<path d="M30.6054 50.7164C29.6427 50.7164 28.7317 50.1574 28.328 49.2154C27.3861 47.0313 27.2411 44.7229 27.1169 42.6837C27.0134 41.0171 26.8788 38.9468 27.3654 36.9075C27.7898 35.1167 28.8353 33.2224 30.564 31.1107C30.8331 30.7795 31.1126 30.4586 31.4024 30.1584C36.0399 25.2 43.6482 23.254 45.1285 22.9124C48.0165 22.2499 50.7907 22.0118 53.3682 22.2085C55.1797 22.343 56.7118 22.6018 58.0678 22.9745C59.9725 23.5024 61.4631 24.5375 62.374 25.9557C62.8295 26.6596 63.109 27.3738 63.347 27.9949C63.5437 28.5125 63.7301 28.999 63.9474 29.2474C64.2683 29.6305 64.7134 29.9824 65.231 30.3861C65.821 30.8519 66.4939 31.3799 67.1046 32.0734C68.5745 33.7296 70.2308 36.4935 70.4792 39.3091C70.7173 41.928 69.6925 44.195 68.7712 45.8719C68.7505 45.9133 68.6884 46.0168 68.6159 46.1721C67.0529 49.1947 66.7009 49.6709 66.2765 50.0642C65.2621 50.9855 63.6886 50.9131 62.7674 49.8986C61.9082 48.9566 61.9082 47.5385 62.726 46.5965C62.8605 46.3895 63.2332 45.758 64.1959 43.8844C64.2994 43.6774 64.3718 43.5428 64.4029 43.4911C64.9826 42.4249 65.6347 41.0481 65.5209 39.7645C65.407 38.481 64.5168 36.6695 63.3678 35.3755C63.0469 35.0132 62.6017 34.6613 62.1359 34.2886C61.5045 33.7917 60.7799 33.2224 60.1381 32.4564C59.3824 31.5662 58.9994 30.5828 58.6992 29.7857C58.5336 29.3406 58.368 28.9266 58.192 28.6471C57.8711 28.1605 57.2086 27.8914 56.7118 27.7465C55.6766 27.4566 54.4551 27.26 52.9749 27.1461C50.8942 26.9908 48.6273 27.1875 46.2257 27.7361C42.8304 28.5125 37.8514 30.5 35.0254 33.533C34.8184 33.7607 34.601 33.9988 34.4043 34.2472C32.8827 36.1105 32.3651 37.3423 32.1891 38.0462C31.8786 39.3608 31.9718 40.955 32.0649 42.3628C32.1684 44.0811 32.2823 45.8512 32.8827 47.2383C33.4313 48.5012 32.8516 49.9607 31.5887 50.5094C31.2679 50.6543 30.9263 50.7164 30.6054 50.7164Z" fill="#F5F9FF"/>
<path d="M37.3744 83.7586C37.0224 83.7586 36.6601 83.6862 36.3185 83.5206C35.0764 82.9409 34.5381 81.4606 35.1281 80.2184C35.5939 79.2144 36.391 77.2165 36.4531 75.0427C36.4738 74.2146 36.3806 73.8626 36.184 73.1691C36.1426 73.0138 36.1011 72.8482 36.0494 72.6826C35.7078 71.3576 36.4945 70.0015 37.8298 69.6496C39.1548 69.2976 40.5109 70.0947 40.8628 71.4301C40.9042 71.575 40.9353 71.7095 40.9767 71.8441C41.2044 72.6619 41.4632 73.5935 41.4218 75.1669C41.339 78.2413 40.2624 80.9741 39.631 82.3198C39.1962 83.2204 38.306 83.7586 37.3744 83.7586Z" fill="#F5F9FF"/>
<path d="M57.4469 83.7678C56.5464 83.7678 55.6768 83.271 55.2317 82.4221C53.9378 79.9067 53.2235 77.2775 53.1614 74.8138C53.1304 73.5302 53.296 72.6918 53.4616 72.0293C53.8032 70.7043 55.1489 69.8969 56.4843 70.2281C57.8092 70.5697 58.6167 71.9154 58.2854 73.2507C58.1922 73.6027 58.1198 73.9753 58.1405 74.6792C58.1922 76.8531 58.9997 78.8509 59.6622 80.1448C60.2936 81.3663 59.8071 82.8673 58.5856 83.4883C58.2129 83.6747 57.8299 83.7678 57.4469 83.7678Z" fill="#F5F9FF"/>
<path d="M122.352 117.616H102.446C101.069 117.616 99.9618 116.509 99.9618 115.132C99.9618 113.755 101.069 112.648 102.446 112.648H122.031C121.959 107.482 121.586 98.2695 119.899 92.245C119.423 90.568 118.895 89.2741 118.17 88.0526C117.57 87.0485 115.841 84.5331 112.736 82.7837C110.262 81.3966 107.891 81.0447 106.162 81.0343L104.216 82.38C104.185 82.4007 104.154 82.4214 104.123 82.4421L95.873 88.1561C95.0035 88.7565 93.8441 88.7462 92.9953 88.1251L83.2649 81.0343C81.5362 81.0447 79.1864 81.407 76.7228 82.7837C75.9154 83.2392 75.1493 83.7775 74.4247 84.3882C73.3792 85.2784 71.8162 85.1542 70.9259 84.1087C70.0357 83.0632 70.1599 81.5001 71.2054 80.6099C72.1681 79.7818 73.2136 79.0572 74.2902 78.4568C78.1306 76.2934 81.8053 75.9725 84.2172 76.0863C84.7037 76.107 85.1696 76.2727 85.5629 76.5625L94.4962 83.0736L101.307 78.3533C101.318 78.3429 101.328 78.3429 101.339 78.3326L103.947 76.5211C104.33 76.252 104.775 76.107 105.241 76.0863C107.643 75.9725 111.328 76.2934 115.168 78.4568C119.319 80.7859 121.627 84.1708 122.435 85.5165C123.387 87.1003 124.101 88.8186 124.681 90.9096C126.555 97.607 126.948 107.575 127 112.917C127.01 114.169 126.534 115.349 125.654 116.24C124.774 117.13 123.605 117.616 122.352 117.616Z" fill="#F5F9FF"/>
<path d="M111.97 117.617C110.593 117.617 109.485 116.509 109.485 115.132V98.4043C109.485 97.0275 110.593 95.9199 111.97 95.9199C113.346 95.9199 114.454 97.0275 114.454 98.4043V115.143C114.454 116.509 113.336 117.617 111.97 117.617Z" fill="#F5F9FF"/>
<path d="M94.8072 77.8042C90.4285 77.8042 86.3293 75.9306 83.2653 72.5353C80.2634 69.2125 78.6071 64.8028 78.6071 60.1342V53.7163C78.6071 52.6605 79.28 51.7185 80.284 51.3665C81.0087 51.1078 83.1411 50.1761 84.2797 48.9133C85.17 47.9299 86.6295 47.7849 87.6543 48.6234C87.7889 48.7166 89.3519 49.8449 92.033 50.4039C95.7698 51.1906 99.8069 50.5798 104.041 48.582C105.014 48.1265 106.163 48.3439 106.908 49.1203C107.332 49.5757 108.699 50.9007 109.837 51.6046C110.572 52.0601 111.018 52.8572 111.018 53.7163V60.1342C111.018 64.8028 109.361 69.2125 106.359 72.5353C103.275 75.9306 99.1755 77.8042 94.8072 77.8042ZM83.5758 55.3622V60.1342C83.5758 67.1318 88.617 72.8355 94.8072 72.8355C100.997 72.8355 106.039 67.1422 106.039 60.1342V55.0103C105.5 54.5962 104.993 54.1614 104.558 53.7681C95.8113 57.3186 89.383 55.1759 86.4121 53.6439C85.4287 54.3995 84.4039 54.9689 83.5758 55.3622Z" fill="#F5F9FF"/>
<path d="M81.0911 56.2012C80.1284 56.2012 79.2174 55.6422 78.8137 54.7003C78.0167 52.8577 77.8924 50.8702 77.7993 49.2657C77.7165 47.889 77.6026 46.1706 78.0167 44.4627C78.379 42.941 79.2588 41.3572 80.6977 39.5975C80.9151 39.3283 81.1532 39.0592 81.3913 38.8004C85.2316 34.7012 91.4839 33.0967 92.7054 32.8173C95.0862 32.2686 97.3739 32.0719 99.496 32.2376C100.987 32.3514 102.26 32.5585 103.378 32.8794C105.024 33.3452 106.318 34.2458 107.125 35.4879C107.518 36.0987 107.756 36.7198 107.953 37.227C108.088 37.5686 108.233 37.9619 108.357 38.0965C108.585 38.3656 108.926 38.6348 109.319 38.9557C109.806 39.3387 110.365 39.7838 110.893 40.3738C112.125 41.7713 113.522 44.1004 113.74 46.4812C113.947 48.7482 113.015 50.746 112.301 52.0503C112.29 52.0813 112.239 52.1641 112.187 52.2677C110.945 54.6589 110.624 55.1557 110.199 55.5491C109.185 56.4704 107.612 56.3979 106.69 55.3938C105.841 54.4622 105.831 53.0544 106.628 52.1227C106.742 51.9364 107.042 51.4292 107.777 49.9903C107.86 49.8247 107.922 49.7108 107.943 49.6694C108.595 48.479 108.854 47.6406 108.792 46.9367C108.709 46.005 108.026 44.6386 107.177 43.6759C106.949 43.4172 106.618 43.1584 106.245 42.8685C105.717 42.4545 105.117 41.9783 104.558 41.3158C103.895 40.5394 103.574 39.701 103.316 39.0281C103.191 38.6969 103.067 38.3863 102.953 38.2C102.819 37.993 102.488 37.8067 102.032 37.6721C101.235 37.4444 100.272 37.2891 99.113 37.2063C97.4878 37.0821 95.7073 37.2373 93.813 37.6721C91.1423 38.2828 87.2295 39.8459 85.0246 42.206C84.859 42.382 84.6934 42.5683 84.5484 42.7547C83.3787 44.1832 82.9854 45.1044 82.8612 45.6324C82.6231 46.6261 82.6955 47.8165 82.768 48.9759C82.8508 50.3216 82.9336 51.7087 83.3891 52.7438C83.9377 54.0067 83.358 55.4663 82.0951 56.0149C81.7535 56.1391 81.4223 56.2012 81.0911 56.2012Z" fill="#F5F9FF"/>
<path d="M86.5571 82.8456C86.2051 82.8456 85.8428 82.7731 85.5012 82.6075C84.259 82.0278 83.7208 80.5475 84.3004 79.3054C84.6627 78.529 85.2838 76.9866 85.3252 75.32C85.3356 74.7197 85.2735 74.4816 85.1286 73.9536C85.0975 73.8294 85.0561 73.6949 85.025 73.5499C84.6834 72.2249 85.4701 70.8689 86.8055 70.517C88.1305 70.1754 89.4865 70.9621 89.8385 72.2974C89.8695 72.4113 89.9006 72.5251 89.9316 72.6287C90.1283 73.3222 90.3457 74.1089 90.3043 75.4443C90.2422 77.8768 89.4555 80.03 88.8137 81.4067C88.3893 82.3176 87.4887 82.8456 86.5571 82.8456Z" fill="#F5F9FF"/>
<path d="M102.746 82.8658C101.846 82.8658 100.976 82.3689 100.531 81.5097C99.4442 79.3877 98.8645 77.2553 98.8128 75.1643C98.7817 74.0774 98.9266 73.3528 99.0715 72.7938C99.4028 71.4585 100.759 70.6614 102.084 70.9926C103.419 71.3239 104.216 72.6799 103.885 74.0049C103.823 74.2637 103.771 74.5225 103.781 75.0297C103.823 76.6859 104.444 78.2283 104.962 79.2324C105.583 80.4539 105.106 81.9548 103.885 82.5759C103.512 82.7726 103.129 82.8658 102.746 82.8658Z" fill="#F5F9FF"/>
<path d="M10.7517 117.617H-27.352C-28.6046 117.617 -29.7743 117.131 -30.6541 116.24C-31.534 115.35 -32.0102 114.17 -31.9998 112.918C-31.9377 107.566 -31.5547 97.6078 -29.6708 90.9C-29.0807 88.809 -28.3665 87.0907 -27.4245 85.5069C-26.6274 84.1612 -24.3087 80.7866 -20.1578 78.4575C-16.3174 76.2941 -12.6426 75.9732 -10.2307 76.0871C-9.74418 76.1078 -9.27836 76.2734 -8.88501 76.5632L0.0483055 83.0743L9.49919 76.5218C9.8822 76.2527 10.3377 76.1078 10.8035 76.0871C13.2154 75.9732 16.8901 76.2941 20.7305 78.4575C21.8071 79.0579 22.8422 79.7825 23.8153 80.6107C24.8608 81.5009 24.985 83.0639 24.0948 84.1094C23.2045 85.1549 21.6415 85.2792 20.596 84.3889C19.8714 83.7679 19.095 83.2296 18.2979 82.7845C15.8239 81.3974 13.4535 81.0454 11.7248 81.0351L1.4354 88.1672C0.565876 88.7676 -0.593485 88.7573 -1.44231 88.1362L-11.1727 81.0454C-12.9014 81.0558 -15.2512 81.4181 -17.7148 82.7948C-20.8203 84.5442 -22.5489 87.0596 -23.1493 88.0637C-23.8739 89.2748 -24.4122 90.5688 -24.878 92.2561C-26.5653 98.2806 -26.9483 107.483 -27.0104 112.659H10.7517C12.1285 112.659 13.2361 113.766 13.2361 115.143C13.2361 116.52 12.1181 117.617 10.7517 117.617Z" fill="#F5F9FF"/>
<path d="M0.359501 77.8047C-4.01917 77.8047 -8.11835 75.9311 -11.1824 72.5358C-14.1843 69.213 -15.8405 64.8032 -15.8405 60.1347V53.7168C-15.8405 52.661 -15.1677 51.719 -14.1636 51.367C-13.439 51.1083 -11.3066 50.1766 -10.1679 48.9137C-9.27772 47.9304 -7.81816 47.7854 -6.79336 48.6239C-6.65879 48.7171 -5.09572 49.8454 -2.41469 50.4044C1.32219 51.1911 5.35926 50.5803 9.59301 48.5825C10.5246 48.1374 11.6322 48.3237 12.3776 49.0483L12.4707 49.1415C12.9055 49.5969 14.2408 50.9012 15.3898 51.6051C16.1248 52.0606 16.5699 52.8577 16.5699 53.7168V60.1347C16.5699 64.8032 14.9137 69.213 11.9117 72.5358C8.83735 75.9311 4.73817 77.8047 0.359501 77.8047ZM-10.8718 55.3627V60.1347C-10.8718 67.1323 -5.83068 72.836 0.359501 72.836C6.54968 72.836 11.5908 67.1427 11.5908 60.1347V55.0108C11.1147 54.6485 10.6282 54.2344 10.1209 53.7686C1.37394 57.3191 -5.05432 55.1764 -8.03554 53.6444C-9.00858 54.4 -10.0437 54.9693 -10.8718 55.3627Z" fill="#F5F9FF"/>
<path d="M-13.3568 56.202C-14.3195 56.202 -15.2304 55.643 -15.6341 54.701C-16.4312 52.8584 -16.5554 50.8709 -16.6486 49.2665C-16.7314 47.8897 -16.8452 46.1714 -16.4312 44.4634C-16.0689 42.9417 -15.189 41.3579 -13.7501 39.5982C-13.5328 39.3291 -13.2947 39.0599 -13.0566 38.8011C-9.2162 34.702 -2.96392 33.0975 -1.74245 32.818C0.63839 32.2694 2.92607 32.0727 5.04811 32.2383C6.53873 32.3522 7.81196 32.5592 8.92991 32.8801C10.5758 33.3459 11.8697 34.2465 12.6771 35.4887C13.0705 36.0994 13.3086 36.7205 13.5053 37.2277C13.6398 37.5693 13.7848 37.9627 13.909 38.0972C14.1367 38.3664 14.4783 38.6355 14.8717 38.9564C15.3582 39.3394 15.9172 39.7845 16.4451 40.3746C17.6769 41.772 19.0744 44.1011 19.2917 46.4819C19.4988 48.7489 18.5671 50.7467 17.8632 52.051C17.8425 52.0821 17.8011 52.1649 17.7494 52.2787C16.5072 54.6699 16.1863 55.1668 15.7619 55.5602C14.7474 56.4814 13.174 56.409 12.2527 55.4049C11.4039 54.4733 11.3936 53.0655 12.1906 52.1338C12.3045 51.9578 12.6047 51.4403 13.3396 50.0118C13.4225 49.8461 13.4846 49.7323 13.5053 49.6909C14.1574 48.5005 14.4162 47.662 14.3541 46.9581C14.2713 46.0265 13.5881 44.6601 12.7393 43.6974C12.5115 43.4386 12.1803 43.1798 11.8076 42.89C11.2797 42.4759 10.6793 41.9997 10.1203 41.3372C9.45784 40.5609 9.13694 39.7224 8.87816 39.0496C8.75394 38.7183 8.62972 38.4078 8.51586 38.2215C8.38129 38.0144 8.05004 37.8281 7.59458 37.6935C6.79751 37.4658 5.83483 37.3105 4.67546 37.2277C3.05028 37.1035 1.26983 37.2588 -0.624487 37.6935C-3.29517 38.3043 -7.20802 39.8673 -9.41288 42.2275C-9.57851 42.4034 -9.74413 42.5898 -9.88905 42.7761C-11.0898 44.1839 -11.4832 45.1052 -11.6074 45.6228C-11.8455 46.6165 -11.773 47.8069 -11.7006 48.9663C-11.6177 50.312 -11.5349 51.6991 -11.0795 52.7342C-10.5308 53.9971 -11.1105 55.4566 -12.3734 56.0053C-12.6943 56.1398 -13.0255 56.202 -13.3568 56.202Z" fill="#F5F9FF"/>
<path d="M8.29891 82.866C7.39833 82.866 6.52881 82.3691 6.0837 81.51C4.99679 79.3879 4.41711 77.2555 4.36535 75.1645C4.3343 74.0776 4.47922 73.353 4.62414 72.794C4.95539 71.4587 6.31143 70.6616 7.63642 70.9929C8.97176 71.3241 9.76882 72.6802 9.43757 74.0052C9.37546 74.2639 9.32371 74.5227 9.33406 75.03C9.37546 76.6862 9.99655 78.2286 10.5141 79.2327C11.1352 80.4541 10.659 81.9551 9.43757 82.5762C9.06492 82.7729 8.68192 82.866 8.29891 82.866Z" fill="#F5F9FF"/>
<path d="M80.5517 139.709C74.0406 139.709 67.9125 137.172 63.3165 132.566C58.7101 127.96 56.174 121.842 56.174 115.331C56.174 108.82 58.7101 102.692 63.3165 98.0956C67.9229 93.4892 74.0406 90.9531 80.5517 90.9531C87.0627 90.9531 93.1908 93.4892 97.7869 98.0956C102.393 102.702 104.929 108.82 104.929 115.331C104.929 121.842 102.393 127.97 97.7869 132.566C93.1908 137.172 87.0627 139.709 80.5517 139.709ZM80.5517 95.9218C69.8483 95.9218 61.1427 104.627 61.1427 115.331C61.1427 126.034 69.8483 134.74 80.5517 134.74C91.2551 134.74 99.9607 126.034 99.9607 115.331C99.9607 104.627 91.2551 95.9218 80.5517 95.9218Z" fill="#F5F9FF"/>
<path d="M80.5517 130.764C72.0428 130.764 65.1177 123.839 65.1177 115.33C65.1177 106.821 72.0428 99.896 80.5517 99.896C89.0606 99.896 95.9857 106.821 95.9857 115.33C95.9857 123.839 89.0606 130.764 80.5517 130.764ZM80.5517 104.865C74.7859 104.865 70.0864 109.554 70.0864 115.33C70.0864 121.106 74.7756 125.795 80.5517 125.795C86.3278 125.795 91.017 121.106 91.017 115.33C91.017 109.554 86.3175 104.865 80.5517 104.865Z" fill="#F5F9FF"/>
<path d="M111.182 152.978C109.308 152.978 107.548 152.254 106.223 150.929L90.7375 135.443C89.7645 134.47 89.7645 132.897 90.7375 131.934C91.7105 130.961 93.284 130.961 94.2466 131.934L109.732 147.42C110.115 147.803 110.633 148.02 111.182 148.02H111.192C111.741 148.02 112.258 147.803 112.641 147.409C113.428 146.612 113.428 145.318 112.631 144.532L97.1451 129.046C96.172 128.073 96.172 126.499 97.1451 125.537C98.1181 124.564 99.6915 124.564 100.654 125.537L116.14 141.022C118.852 143.735 118.873 148.175 116.171 150.908C114.846 152.243 113.086 152.989 111.202 152.999C111.202 152.978 111.192 152.978 111.182 152.978Z" fill="#F5F9FF"/>
</g>
</g>
<path d="M162.578 43V27H165.477V40.5703H172.523V43H162.578ZM180.227 43.2344C179.023 43.2344 177.984 42.9844 177.109 42.4844C176.24 41.9792 175.57 41.2656 175.102 40.3437C174.633 39.4167 174.398 38.3255 174.398 37.0703C174.398 35.8359 174.633 34.7526 175.102 33.8203C175.576 32.8828 176.237 32.1536 177.086 31.6328C177.935 31.1068 178.932 30.8438 180.078 30.8438C180.818 30.8438 181.516 30.9635 182.172 31.2031C182.833 31.4375 183.417 31.8021 183.922 32.2969C184.432 32.7917 184.833 33.4219 185.125 34.1875C185.417 34.9479 185.563 35.8542 185.563 36.9062V37.7734H175.727V35.8672H182.852C182.846 35.3255 182.729 34.8437 182.5 34.4219C182.271 33.9948 181.951 33.6589 181.539 33.4141C181.133 33.1693 180.659 33.0469 180.117 33.0469C179.539 33.0469 179.031 33.1875 178.594 33.4687C178.156 33.7448 177.815 34.1094 177.57 34.5625C177.331 35.0104 177.208 35.5026 177.203 36.0391V37.7031C177.203 38.401 177.331 39 177.586 39.5C177.841 39.9948 178.198 40.375 178.656 40.6406C179.115 40.901 179.651 41.0312 180.266 41.0312C180.677 41.0312 181.049 40.974 181.383 40.8594C181.716 40.7396 182.005 40.5651 182.25 40.3359C182.495 40.1068 182.68 39.8229 182.805 39.4844L185.445 39.7812C185.279 40.4792 184.961 41.0885 184.492 41.6094C184.029 42.125 183.435 42.526 182.711 42.8125C181.987 43.0937 181.159 43.2344 180.227 43.2344ZM191.408 43.2422C190.648 43.2422 189.963 43.1068 189.354 42.8359C188.749 42.5599 188.27 42.1536 187.916 41.6172C187.567 41.0807 187.393 40.4193 187.393 39.6328C187.393 38.9557 187.518 38.3958 187.768 37.9531C188.018 37.5104 188.359 37.1562 188.791 36.8906C189.223 36.625 189.71 36.4245 190.252 36.2891C190.799 36.1484 191.364 36.0469 191.947 35.9844C192.65 35.9115 193.221 35.8464 193.658 35.7891C194.096 35.7266 194.413 35.6328 194.611 35.5078C194.814 35.3776 194.916 35.1771 194.916 34.9062V34.8594C194.916 34.2708 194.742 33.8151 194.393 33.4922C194.044 33.1693 193.541 33.0078 192.885 33.0078C192.192 33.0078 191.643 33.1589 191.236 33.4609C190.835 33.763 190.564 34.1198 190.424 34.5312L187.783 34.1562C187.992 33.4271 188.335 32.8177 188.814 32.3281C189.294 31.8333 189.88 31.4635 190.572 31.2187C191.265 30.9688 192.031 30.8438 192.869 30.8438C193.447 30.8438 194.023 30.9115 194.596 31.0469C195.169 31.1823 195.692 31.4062 196.166 31.7187C196.64 32.026 197.02 32.4453 197.307 32.9766C197.598 33.5078 197.744 34.1719 197.744 34.9687V43H195.025V41.3516H194.932C194.76 41.6849 194.518 41.9974 194.205 42.2891C193.898 42.5755 193.51 42.8073 193.041 42.9844C192.577 43.1563 192.033 43.2422 191.408 43.2422ZM192.143 41.1641C192.71 41.1641 193.202 41.0521 193.619 40.8281C194.036 40.599 194.356 40.2969 194.58 39.9219C194.809 39.5469 194.924 39.138 194.924 38.6953V37.2812C194.835 37.3542 194.684 37.4219 194.471 37.4844C194.262 37.5469 194.028 37.6016 193.768 37.6484C193.507 37.6953 193.249 37.737 192.994 37.7734C192.739 37.8099 192.518 37.8411 192.33 37.8672C191.908 37.9245 191.531 38.0182 191.197 38.1484C190.864 38.2786 190.601 38.4609 190.408 38.6953C190.215 38.9245 190.119 39.2214 190.119 39.5859C190.119 40.1068 190.309 40.5 190.689 40.7656C191.07 41.0312 191.554 41.1641 192.143 41.1641ZM200.588 43V31H203.33V33H203.455C203.674 32.3073 204.049 31.7734 204.58 31.3984C205.117 31.0182 205.729 30.8281 206.416 30.8281C206.572 30.8281 206.747 30.8359 206.939 30.8516C207.137 30.862 207.301 30.8802 207.432 30.9062V33.5078C207.312 33.4661 207.122 33.4297 206.861 33.3984C206.606 33.362 206.359 33.3437 206.119 33.3437C205.604 33.3437 205.14 33.4557 204.729 33.6797C204.322 33.8984 204.002 34.2031 203.768 34.5937C203.533 34.9844 203.416 35.4349 203.416 35.9453V43H200.588ZM212.139 35.9687V43H209.311V31H212.014V33.0391H212.154C212.43 32.3672 212.87 31.8333 213.475 31.4375C214.084 31.0417 214.837 30.8438 215.732 30.8438C216.561 30.8438 217.282 31.0208 217.896 31.375C218.516 31.7292 218.995 32.2422 219.334 32.9141C219.678 33.5859 219.847 34.401 219.842 35.3594V43H217.014V35.7969C217.014 34.9948 216.805 34.3672 216.389 33.9141C215.977 33.4609 215.407 33.2344 214.678 33.2344C214.183 33.2344 213.743 33.3437 213.357 33.5625C212.977 33.776 212.678 34.0859 212.459 34.4922C212.245 34.8984 212.139 35.3906 212.139 35.9687ZM232.955 43.2344C231.861 43.2344 230.921 43.0365 230.135 42.6406C229.348 42.2448 228.742 41.7109 228.314 41.0391C227.893 40.362 227.682 39.599 227.682 38.75C227.682 38.1094 227.812 37.5417 228.072 37.0469C228.338 36.5521 228.702 36.0937 229.166 35.6719C229.635 35.25 230.176 34.8307 230.791 34.4141L233.627 32.4844C234.044 32.2135 234.359 31.9271 234.572 31.625C234.791 31.3229 234.9 30.9687 234.9 30.5625C234.9 30.2187 234.755 29.8932 234.463 29.5859C234.176 29.2786 233.781 29.125 233.275 29.125C232.937 29.125 232.637 29.2057 232.377 29.3672C232.122 29.5234 231.921 29.7292 231.775 29.9844C231.635 30.2396 231.564 30.5104 231.564 30.7969C231.564 31.1458 231.661 31.5 231.854 31.8594C232.051 32.2187 232.307 32.5911 232.619 32.9766C232.937 33.362 233.275 33.7708 233.635 34.2031L241.143 43H238.08L231.846 35.8594C231.382 35.3177 230.934 34.7839 230.502 34.2578C230.075 33.7318 229.723 33.1849 229.447 32.6172C229.176 32.0443 229.041 31.4245 229.041 30.7578C229.041 30.0026 229.215 29.3281 229.564 28.7344C229.913 28.1354 230.4 27.6641 231.025 27.3203C231.656 26.9766 232.393 26.8047 233.236 26.8047C234.08 26.8047 234.804 26.9714 235.408 27.3047C236.012 27.638 236.479 28.0807 236.807 28.6328C237.135 29.1849 237.299 29.7865 237.299 30.4375C237.299 31.1927 237.111 31.8698 236.736 32.4687C236.361 33.0625 235.84 33.6016 235.174 34.0859L231.939 36.4531C231.408 36.8385 231.028 37.2292 230.799 37.625C230.57 38.0156 230.455 38.349 230.455 38.625C230.455 39.0469 230.562 39.4297 230.775 39.7734C230.989 40.1172 231.288 40.3932 231.674 40.6016C232.064 40.8047 232.52 40.9062 233.041 40.9062C233.614 40.9062 234.179 40.7786 234.736 40.5234C235.294 40.263 235.801 39.8932 236.26 39.4141C236.718 38.9349 237.083 38.362 237.354 37.6953C237.624 37.0234 237.76 36.2786 237.76 35.4609H240.189C240.189 36.4714 240.077 37.3516 239.854 38.1016C239.63 38.8464 239.34 39.4766 238.986 39.9922C238.632 40.5026 238.257 40.9115 237.861 41.2187C237.736 41.3073 237.617 41.3958 237.502 41.4844C237.387 41.5729 237.268 41.6615 237.143 41.75C236.58 42.2604 235.921 42.6354 235.166 42.875C234.416 43.1146 233.679 43.2344 232.955 43.2344ZM259.063 32.1094C258.932 31.6875 258.753 31.3099 258.523 30.9766C258.299 30.638 258.029 30.349 257.711 30.1094C257.398 29.8698 257.039 29.6901 256.633 29.5703C256.227 29.4453 255.784 29.3828 255.305 29.3828C254.445 29.3828 253.68 29.599 253.008 30.0313C252.336 30.4635 251.807 31.099 251.422 31.9375C251.042 32.7708 250.852 33.7865 250.852 34.9844C250.852 36.1927 251.042 37.2161 251.422 38.0547C251.802 38.8932 252.331 39.5312 253.008 39.9687C253.685 40.401 254.471 40.6172 255.367 40.6172C256.18 40.6172 256.883 40.4609 257.477 40.1484C258.076 39.8359 258.536 39.3932 258.859 38.8203C259.182 38.2422 259.344 37.5651 259.344 36.7891L260 36.8906H255.656V34.625H262.148V36.5469C262.148 37.9167 261.857 39.1016 261.273 40.1016C260.69 41.1016 259.888 41.8724 258.867 42.4141C257.846 42.9505 256.674 43.2187 255.352 43.2187C253.878 43.2187 252.583 42.888 251.469 42.2266C250.359 41.5599 249.492 40.6146 248.867 39.3906C248.247 38.1615 247.938 36.7031 247.938 35.0156C247.938 33.724 248.12 32.5703 248.484 31.5547C248.854 30.5391 249.37 29.6771 250.031 28.9687C250.693 28.2552 251.469 27.7135 252.359 27.3437C253.25 26.9687 254.219 26.7812 255.266 26.7812C256.151 26.7812 256.977 26.9115 257.742 27.1719C258.508 27.4271 259.188 27.7917 259.781 28.2656C260.38 28.7396 260.872 29.3021 261.258 29.9531C261.643 30.6042 261.896 31.3229 262.016 32.1094H259.063ZM264.826 43V31H267.568V33H267.693C267.912 32.3073 268.287 31.7734 268.818 31.3984C269.355 31.0182 269.967 30.8281 270.654 30.8281C270.811 30.8281 270.985 30.8359 271.178 30.8516C271.376 30.862 271.54 30.8802 271.67 30.9062V33.5078C271.55 33.4661 271.36 33.4297 271.1 33.3984C270.844 33.362 270.597 33.3437 270.357 33.3437C269.842 33.3437 269.378 33.4557 268.967 33.6797C268.561 33.8984 268.24 34.2031 268.006 34.5937C267.771 34.9844 267.654 35.4349 267.654 35.9453V43H264.826ZM278.289 43.2344C277.117 43.2344 276.102 42.9766 275.242 42.4609C274.383 41.9453 273.716 41.224 273.242 40.2969C272.773 39.3698 272.539 38.2865 272.539 37.0469C272.539 35.8073 272.773 34.7214 273.242 33.7891C273.716 32.8568 274.383 32.1328 275.242 31.6172C276.102 31.1016 277.117 30.8438 278.289 30.8438C279.461 30.8438 280.477 31.1016 281.336 31.6172C282.195 32.1328 282.859 32.8568 283.328 33.7891C283.802 34.7214 284.039 35.8073 284.039 37.0469C284.039 38.2865 283.802 39.3698 283.328 40.2969C282.859 41.224 282.195 41.9453 281.336 42.4609C280.477 42.9766 279.461 43.2344 278.289 43.2344ZM278.305 40.9687C278.94 40.9687 279.471 40.7943 279.898 40.4453C280.326 40.0911 280.643 39.6172 280.852 39.0234C281.065 38.4297 281.172 37.7682 281.172 37.0391C281.172 36.3047 281.065 35.6406 280.852 35.0469C280.643 34.4479 280.326 33.9714 279.898 33.6172C279.471 33.263 278.94 33.0859 278.305 33.0859C277.654 33.0859 277.112 33.263 276.68 33.6172C276.253 33.9714 275.932 34.4479 275.719 35.0469C275.51 35.6406 275.406 36.3047 275.406 37.0391C275.406 37.7682 275.51 38.4297 275.719 39.0234C275.932 39.6172 276.253 40.0911 276.68 40.4453C277.112 40.7943 277.654 40.9687 278.305 40.9687ZM288.572 43L285.182 31H288.064L290.174 39.4375H290.283L292.439 31H295.291L297.447 39.3906H297.564L299.643 31H302.533L299.135 43H296.189L293.939 34.8906H293.775L291.525 43H288.572Z" fill="white"/>
<path d="M166.419 123.139C165.501 123.139 164.694 122.927 163.998 122.503C163.302 122.079 162.76 121.477 162.372 120.698C161.984 119.916 161.79 118.988 161.79 117.914C161.79 117.102 161.905 116.373 162.134 115.727C162.366 115.08 162.689 114.532 163.103 114.081C163.517 113.627 164.004 113.281 164.565 113.042C165.125 112.8 165.733 112.679 166.389 112.679C166.939 112.679 167.455 112.76 167.935 112.923C168.419 113.085 168.852 113.315 169.233 113.614C169.614 113.909 169.929 114.262 170.178 114.673C170.429 115.084 170.598 115.538 170.685 116.035H169.109C169.019 115.733 168.892 115.463 168.726 115.224C168.56 114.982 168.36 114.777 168.124 114.608C167.892 114.436 167.632 114.305 167.344 114.215C167.055 114.126 166.742 114.081 166.404 114.081C165.827 114.081 165.305 114.228 164.838 114.523C164.371 114.818 164 115.251 163.724 115.821C163.453 116.388 163.317 117.082 163.317 117.904C163.317 118.729 163.451 119.427 163.719 119.997C163.988 120.567 164.356 121 164.823 121.295C165.29 121.59 165.822 121.737 166.419 121.737C166.989 121.737 167.486 121.618 167.911 121.379C168.335 121.141 168.663 120.811 168.895 120.39C169.13 119.969 169.248 119.487 169.248 118.943L169.491 119.058H166.653V117.79H170.754V123H169.571L169.432 121.782H169.382C169.008 122.216 168.583 122.551 168.109 122.786C167.639 123.022 167.075 123.139 166.419 123.139ZM175.702 123.154C174.986 123.154 174.362 122.99 173.828 122.662C173.294 122.334 172.88 121.875 172.585 121.285C172.29 120.695 172.143 120.005 172.143 119.217C172.143 118.424 172.29 117.732 172.585 117.138C172.88 116.545 173.294 116.085 173.828 115.756C174.362 115.428 174.986 115.264 175.702 115.264C176.418 115.264 177.043 115.428 177.577 115.756C178.11 116.085 178.524 116.545 178.819 117.138C179.114 117.732 179.262 118.424 179.262 119.217C179.262 120.005 179.114 120.695 178.819 121.285C178.524 121.875 178.11 122.334 177.577 122.662C177.043 122.99 176.418 123.154 175.702 123.154ZM175.707 121.906C176.171 121.906 176.556 121.784 176.861 121.538C177.166 121.293 177.391 120.967 177.537 120.559C177.686 120.151 177.76 119.702 177.76 119.212C177.76 118.724 177.686 118.277 177.537 117.869C177.391 117.458 177.166 117.129 176.861 116.88C176.556 116.631 176.171 116.507 175.707 116.507C175.24 116.507 174.852 116.631 174.544 116.88C174.239 117.129 174.012 117.458 173.863 117.869C173.717 118.277 173.644 118.724 173.644 119.212C173.644 119.702 173.717 120.151 173.863 120.559C174.012 120.967 174.239 121.293 174.544 121.538C174.852 121.784 175.24 121.906 175.707 121.906ZM184.243 114.141V112.818H192.123V114.141H188.947V123H187.415V114.141H184.243ZM195.855 123.154C195.139 123.154 194.514 122.99 193.98 122.662C193.447 122.334 193.032 121.875 192.737 121.285C192.442 120.695 192.295 120.005 192.295 119.217C192.295 118.424 192.442 117.732 192.737 117.138C193.032 116.545 193.447 116.085 193.98 115.756C194.514 115.428 195.139 115.264 195.855 115.264C196.57 115.264 197.195 115.428 197.729 115.756C198.262 116.085 198.677 116.545 198.972 117.138C199.267 117.732 199.414 118.424 199.414 119.217C199.414 120.005 199.267 120.695 198.972 121.285C198.677 121.875 198.262 122.334 197.729 122.662C197.195 122.99 196.57 123.154 195.855 123.154ZM195.86 121.906C196.324 121.906 196.708 121.784 197.013 121.538C197.318 121.293 197.543 120.967 197.689 120.559C197.838 120.151 197.913 119.702 197.913 119.212C197.913 118.724 197.838 118.277 197.689 117.869C197.543 117.458 197.318 117.129 197.013 116.88C196.708 116.631 196.324 116.507 195.86 116.507C195.392 116.507 195.004 116.631 194.696 116.88C194.391 117.129 194.164 117.458 194.015 117.869C193.869 118.277 193.796 118.724 193.796 119.212C193.796 119.702 193.869 120.151 194.015 120.559C194.164 120.967 194.391 121.293 194.696 121.538C195.004 121.784 195.392 121.906 195.86 121.906ZM213.355 116.129H211.803C211.744 115.798 211.633 115.506 211.47 115.254C211.308 115.002 211.109 114.789 210.874 114.613C210.638 114.437 210.375 114.305 210.083 114.215C209.795 114.126 209.488 114.081 209.164 114.081C208.577 114.081 208.052 114.228 207.588 114.523C207.127 114.818 206.762 115.251 206.494 115.821C206.229 116.391 206.096 117.087 206.096 117.909C206.096 118.738 206.229 119.437 206.494 120.007C206.762 120.577 207.128 121.008 207.593 121.3C208.057 121.591 208.579 121.737 209.159 121.737C209.48 121.737 209.785 121.694 210.073 121.608C210.365 121.518 210.628 121.388 210.864 121.215C211.099 121.043 211.298 120.832 211.46 120.584C211.626 120.332 211.74 120.044 211.803 119.719L213.355 119.724C213.272 120.224 213.111 120.685 212.872 121.106C212.637 121.523 212.334 121.885 211.963 122.19C211.595 122.491 211.174 122.725 210.7 122.891C210.226 123.056 209.709 123.139 209.149 123.139C208.267 123.139 207.481 122.93 206.792 122.513C206.103 122.092 205.559 121.49 205.161 120.708C204.767 119.926 204.57 118.993 204.57 117.909C204.57 116.822 204.769 115.889 205.166 115.11C205.564 114.328 206.108 113.728 206.797 113.31C207.486 112.889 208.27 112.679 209.149 112.679C209.689 112.679 210.193 112.757 210.66 112.913C211.131 113.065 211.553 113.29 211.928 113.589C212.302 113.884 212.612 114.245 212.857 114.673C213.103 115.097 213.268 115.582 213.355 116.129ZM218.29 123.154C217.574 123.154 216.949 122.99 216.416 122.662C215.882 122.334 215.468 121.875 215.173 121.285C214.878 120.695 214.73 120.005 214.73 119.217C214.73 118.424 214.878 117.732 215.173 117.138C215.468 116.545 215.882 116.085 216.416 115.756C216.949 115.428 217.574 115.264 218.29 115.264C219.006 115.264 219.631 115.428 220.164 115.756C220.698 116.085 221.112 116.545 221.407 117.138C221.702 117.732 221.85 118.424 221.85 119.217C221.85 120.005 221.702 120.695 221.407 121.285C221.112 121.875 220.698 122.334 220.164 122.662C219.631 122.99 219.006 123.154 218.29 123.154ZM218.295 121.906C218.759 121.906 219.144 121.784 219.449 121.538C219.753 121.293 219.979 120.967 220.125 120.559C220.274 120.151 220.348 119.702 220.348 119.212C220.348 118.724 220.274 118.277 220.125 117.869C219.979 117.458 219.753 117.129 219.449 116.88C219.144 116.631 218.759 116.507 218.295 116.507C217.828 116.507 217.44 116.631 217.132 116.88C216.827 117.129 216.6 117.458 216.451 117.869C216.305 118.277 216.232 118.724 216.232 119.212C216.232 119.702 216.305 120.151 216.451 120.559C216.6 120.967 216.827 121.293 217.132 121.538C217.44 121.784 217.828 121.906 218.295 121.906ZM228.346 119.833V115.364H229.838V123H228.376V121.678H228.297C228.121 122.085 227.839 122.425 227.452 122.697C227.067 122.965 226.588 123.099 226.015 123.099C225.524 123.099 225.09 122.992 224.712 122.776C224.338 122.558 224.043 122.234 223.827 121.807C223.615 121.379 223.509 120.851 223.509 120.221V115.364H224.996V120.042C224.996 120.562 225.14 120.977 225.428 121.285C225.716 121.593 226.091 121.747 226.552 121.747C226.83 121.747 227.107 121.678 227.382 121.538C227.66 121.399 227.891 121.189 228.073 120.907C228.259 120.625 228.35 120.267 228.346 119.833ZM231.835 123V115.364H233.272V116.577H233.352C233.491 116.166 233.736 115.843 234.087 115.607C234.439 115.369 234.84 115.249 235.29 115.249C235.499 115.249 235.687 115.274 235.852 115.324C236.018 115.374 236.164 115.442 236.29 115.528L235.812 116.771C235.723 116.728 235.622 116.693 235.509 116.666C235.397 116.636 235.267 116.621 235.121 116.621C234.777 116.621 234.469 116.696 234.197 116.845C233.928 116.991 233.714 117.193 233.555 117.452C233.4 117.71 233.322 118.005 233.322 118.337V123H231.835ZM243.108 117.228L241.761 117.467C241.705 117.294 241.615 117.13 241.493 116.974C241.373 116.819 241.211 116.691 241.005 116.592C240.8 116.492 240.543 116.442 240.235 116.442C239.814 116.442 239.462 116.537 239.181 116.726C238.899 116.911 238.758 117.152 238.758 117.447C238.758 117.702 238.853 117.907 239.042 118.063C239.23 118.219 239.535 118.347 239.956 118.446L241.169 118.724C241.872 118.887 242.396 119.137 242.74 119.475C243.085 119.813 243.257 120.252 243.257 120.793C243.257 121.25 243.125 121.658 242.86 122.016C242.598 122.37 242.232 122.649 241.761 122.851C241.294 123.053 240.752 123.154 240.135 123.154C239.28 123.154 238.583 122.972 238.042 122.607C237.502 122.239 237.171 121.717 237.048 121.041L238.485 120.822C238.574 121.197 238.758 121.48 239.037 121.673C239.315 121.862 239.678 121.956 240.125 121.956C240.613 121.956 241.002 121.855 241.294 121.653C241.585 121.447 241.731 121.197 241.731 120.902C241.731 120.663 241.642 120.463 241.463 120.3C241.287 120.138 241.017 120.015 240.652 119.933L239.36 119.649C238.647 119.487 238.12 119.228 237.779 118.874C237.441 118.519 237.272 118.07 237.272 117.526C237.272 117.076 237.398 116.681 237.65 116.343C237.901 116.005 238.249 115.741 238.694 115.553C239.138 115.36 239.646 115.264 240.22 115.264C241.045 115.264 241.695 115.443 242.169 115.801C242.643 116.156 242.956 116.631 243.108 117.228ZM248.183 123.154C247.431 123.154 246.783 122.993 246.239 122.672C245.699 122.347 245.281 121.891 244.986 121.305C244.695 120.715 244.549 120.024 244.549 119.232C244.549 118.449 244.695 117.76 244.986 117.163C245.281 116.567 245.692 116.101 246.219 115.766C246.75 115.432 247.369 115.264 248.079 115.264C248.51 115.264 248.927 115.335 249.331 115.478C249.736 115.621 250.099 115.844 250.42 116.149C250.742 116.454 250.995 116.85 251.181 117.337C251.367 117.821 251.459 118.41 251.459 119.102V119.629H245.389V118.516H250.003C250.003 118.125 249.923 117.778 249.764 117.477C249.605 117.172 249.381 116.931 249.093 116.756C248.808 116.58 248.473 116.492 248.089 116.492C247.671 116.492 247.306 116.595 246.995 116.8C246.687 117.003 246.448 117.268 246.279 117.596C246.113 117.921 246.03 118.274 246.03 118.655V119.525C246.03 120.035 246.12 120.469 246.299 120.827C246.481 121.185 246.735 121.459 247.059 121.648C247.384 121.833 247.764 121.926 248.198 121.926C248.48 121.926 248.737 121.886 248.969 121.807C249.201 121.724 249.401 121.601 249.57 121.439C249.739 121.277 249.868 121.076 249.958 120.837L251.365 121.091C251.252 121.505 251.05 121.868 250.758 122.18C250.47 122.488 250.107 122.728 249.67 122.901C249.235 123.07 248.74 123.154 248.183 123.154ZM258.831 117.228L257.484 117.467C257.427 117.294 257.338 117.13 257.215 116.974C257.096 116.819 256.933 116.691 256.728 116.592C256.522 116.492 256.266 116.442 255.957 116.442C255.536 116.442 255.185 116.537 254.903 116.726C254.622 116.911 254.481 117.152 254.481 117.447C254.481 117.702 254.575 117.907 254.764 118.063C254.953 118.219 255.258 118.347 255.679 118.446L256.892 118.724C257.595 118.887 258.118 119.137 258.463 119.475C258.808 119.813 258.98 120.252 258.98 120.793C258.98 121.25 258.848 121.658 258.582 122.016C258.321 122.37 257.954 122.649 257.484 122.851C257.016 123.053 256.474 123.154 255.858 123.154C255.003 123.154 254.305 122.972 253.765 122.607C253.225 122.239 252.893 121.717 252.771 121.041L254.207 120.822C254.297 121.197 254.481 121.48 254.759 121.673C255.038 121.862 255.401 121.956 255.848 121.956C256.335 121.956 256.725 121.855 257.016 121.653C257.308 121.447 257.454 121.197 257.454 120.902C257.454 120.663 257.364 120.463 257.185 120.3C257.01 120.138 256.74 120.015 256.375 119.933L255.082 119.649C254.37 119.487 253.843 119.228 253.501 118.874C253.163 118.519 252.994 118.07 252.994 117.526C252.994 117.076 253.12 116.681 253.372 116.343C253.624 116.005 253.972 115.741 254.416 115.553C254.86 115.36 255.369 115.264 255.942 115.264C256.768 115.264 257.417 115.443 257.891 115.801C258.365 116.156 258.679 116.631 258.831 117.228Z" fill="white"/>
<path d="M161 125.784H259.612V126.739H161V125.784Z" fill="white"/>
<path fill-rule="evenodd" clip-rule="evenodd" d="M278.53 112.22C278.238 111.927 277.763 111.927 277.47 112.22C277.177 112.513 277.177 112.987 277.47 113.28L281.439 117.25H272.75C272.336 117.25 272 117.586 272 118C272 118.414 272.336 118.75 272.75 118.75H281.439L277.47 122.72C277.177 123.013 277.177 123.487 277.47 123.78C277.763 124.073 278.238 124.073 278.53 123.78L283.78 118.53C284.073 118.237 284.073 117.763 283.78 117.47L278.53 112.22Z" fill="white"/>
</svg>
