<svg width="373" height="150" viewBox="0 0 373 150" fill="none" xmlns="http://www.w3.org/2000/svg">
<rect x="0.5" y="0.5" width="372" height="149" rx="8.5" fill="#C56004" stroke="#EAECEF"/>
<g opacity="0.5">
<mask id="mask0_409_1028" style="mask-type:alpha" maskUnits="userSpaceOnUse" x="1" y="1" width="139" height="148">
<rect x="1" y="1" width="139" height="148" rx="8" fill="white"/>
</mask>
<g mask="url(#mask0_409_1028)">
<path d="M72.044 57.4709H7.15331C6.05234 57.4709 5.15992 58.3634 5.15992 59.4643C5.15992 60.5653 6.05234 61.4577 7.15331 61.4577H72.0442C73.1452 61.4577 74.0376 60.5653 74.0376 59.4643C74.0376 58.3634 73.1449 57.4709 72.044 57.4709Z" fill="#F5F9FF"/>
<path d="M7.15331 47.6301H39.5985C40.6995 47.6301 41.5919 46.7377 41.5919 45.6367C41.5919 44.5357 40.6995 43.6433 39.5985 43.6433H7.15331C6.05234 43.6433 5.15992 44.5357 5.15992 45.6367C5.15992 46.7379 6.05234 47.6301 7.15331 47.6301Z" fill="#F5F9FF"/>
<path d="M72.044 69.7222H7.15331C6.05234 69.7222 5.15992 70.6146 5.15992 71.7156C5.15992 72.8165 6.05234 73.7089 7.15331 73.7089H72.0442C73.1452 73.7089 74.0376 72.8165 74.0376 71.7156C74.0374 70.6146 73.1449 69.7222 72.044 69.7222Z" fill="#F5F9FF"/>
<path d="M21.9351 142.654H1.16834C-2.24016 142.654 -5.01349 139.881 -5.01349 136.472V31.1683C-5.01349 27.7598 -2.24016 24.9865 1.16834 24.9865H60.9953C61.1885 24.9865 61.3788 25.0042 61.567 25.0296V37.4616C61.567 43.0686 66.1286 47.6299 71.7353 47.6299H84.167C84.1927 47.8184 84.2102 48.0086 84.2102 48.2018V82.1468C84.2102 83.2478 85.1026 84.1402 86.2035 84.1402C87.3045 84.1402 88.1969 83.2478 88.1969 82.1468V48.2021C88.1969 46.0155 87.3453 43.9597 85.7991 42.4133L66.7836 23.3978C65.2375 21.8517 63.1819 21 60.9953 21H1.16834C-4.43866 21 -9 25.5616 -9 31.1683V136.472C-9 142.079 -4.43839 146.64 1.16834 146.64H21.9351C23.036 146.64 23.9285 145.748 23.9285 144.647C23.9285 143.546 23.036 142.654 21.9351 142.654ZM81.3913 43.6434H71.7356C68.3271 43.6434 65.5538 40.8701 65.5538 37.4616V27.8059L81.3913 43.6434Z" fill="#F5F9FF"/>
<path d="M110.685 118.586L93.7948 90.0777C92.5639 87.9991 89.885 87.312 87.8054 88.544L83.6971 90.9781C80.5083 92.8672 79.1604 96.6901 80.2553 100.078C78.8711 100.58 77.3536 100.572 75.9562 100.031C72.7126 99.0109 70.2465 96.958 66.1737 97.988C59.2583 99.7487 59.4684 99.6606 58.8428 99.875C54.7935 97.5696 52.3595 96.8836 48.061 98.5464L44.2293 100.028C42.4553 100.713 40.5005 100.551 38.8613 99.5794L37.8156 98.963C38.3259 95.9057 36.97 92.6793 34.099 90.9786C34.099 90.9786 34.099 90.9786 34.0988 90.9783L29.9908 88.5445C27.917 87.3163 25.2302 88.0039 24.0016 90.0777L7.11131 118.587C5.8804 120.665 6.56533 123.344 8.64446 124.576L12.7524 127.01C13.9955 127.746 15.3617 128.096 16.7114 128.096C18.2165 128.096 19.7005 127.66 20.9692 126.839L21.8254 127.344L20.0178 129.862C17.8637 132.862 18.5481 137.035 21.5493 139.189C22.9372 140.185 24.6807 140.64 26.4838 140.357C26.7699 142.029 27.6862 143.595 29.1698 144.66C30.5632 145.66 32.2989 146.116 34.1051 145.831C34.392 147.502 35.3077 149.066 36.7906 150.131C38.7835 151.561 41.2612 151.727 43.3257 150.845C43.7775 152.019 44.5627 153.078 45.6581 153.865C48.5186 155.918 52.4587 155.382 54.6813 152.723L59.4848 155.568C62.6615 157.451 66.7602 156.404 68.6438 153.224C69.1254 152.411 69.4242 151.525 69.5335 150.614L69.5444 150.621C72.7163 152.499 76.8243 151.448 78.7033 148.277C79.2475 147.358 79.5457 146.361 79.6182 145.363C82.4141 146.066 85.461 144.892 87.004 142.287C87.5103 141.433 87.8038 140.51 87.9004 139.582C90.8968 140.757 94.399 139.621 96.0912 136.765C97.0014 135.228 97.2589 133.43 96.8161 131.7C96.5628 130.71 96.097 129.812 95.4576 129.053L98.1052 127.506C100.345 128.425 102.901 128.278 105.043 127.009L109.151 124.576C111.23 123.345 111.917 120.666 110.685 118.586ZM14.7845 123.58L10.6765 121.146C10.4939 121.038 10.4333 120.801 10.5412 120.618L27.4316 92.1089C27.5403 91.9255 27.7777 91.866 27.9593 91.974L32.067 94.4075C33.8923 95.4891 34.4635 97.8303 33.4017 99.6222L19.9993 122.245C18.9295 124.051 16.5905 124.649 14.7845 123.58ZM23.8741 135.95C22.6635 135.081 22.3867 133.398 23.2564 132.187L25.9132 128.486C26.7596 127.307 28.4463 126.984 29.6772 127.868C30.8853 128.735 31.1624 130.423 30.2954 131.631L27.6383 135.332C26.771 136.541 25.0817 136.817 23.8741 135.95ZM31.4948 141.422C30.2867 140.554 30.0096 138.865 30.8769 137.658L33.5337 133.957C33.5337 133.957 33.5337 133.957 33.5337 133.957C33.5337 133.957 33.5337 133.956 33.534 133.956L36.4661 129.872C36.8864 129.287 37.5091 128.9 38.22 128.784C38.3677 128.759 38.5156 128.747 38.6625 128.747C39.222 128.747 39.7664 128.921 40.2301 129.254C40.8149 129.674 41.2019 130.297 41.3183 131.008C41.435 131.719 41.268 132.433 40.8478 133.018L35.2585 140.803C34.3899 142.014 32.7059 142.291 31.4948 141.422ZM39.1156 146.892C37.908 146.025 37.6306 144.338 38.4963 143.13C38.4966 143.13 38.4971 143.129 38.4974 143.128L44.0866 135.343C44.9534 134.135 46.6429 133.858 47.8506 134.725C49.0587 135.592 49.3358 137.281 48.4685 138.489L45.9853 141.948C45.9853 141.948 45.9853 141.948 45.985 141.948L42.8793 146.274C42.012 147.483 40.324 147.76 39.1156 146.892ZM47.9832 150.626C46.7758 149.759 46.4982 148.072 47.3633 146.864L49.2236 144.273C50.0906 143.065 51.7799 142.789 52.9875 143.655C54.1954 144.522 54.4728 146.211 53.6055 147.419L51.7468 150.008C50.8798 151.216 49.1908 151.494 47.9832 150.626ZM92.6621 134.733C91.9036 136.013 90.2458 136.438 88.9654 135.679C86.7973 134.395 72.8118 126.11 71.3208 125.226C70.3733 124.665 69.1508 124.978 68.5898 125.925C68.0287 126.872 68.3413 128.095 69.2885 128.656L82.6279 136.559L82.6282 136.559C83.9088 137.317 84.336 138.97 83.5746 140.256C82.8158 141.537 81.1572 141.96 79.8773 141.203C74.9436 138.28 70.9375 135.906 66.5308 133.295C65.583 132.734 64.3608 133.047 63.7998 133.994C63.2387 134.941 63.5513 136.164 64.4985 136.725L74.3272 142.548L74.3294 142.549C75.6108 143.31 76.0337 144.962 75.2739 146.245C74.5152 147.526 72.8571 147.95 71.5764 147.192L66.3016 144.067C66.301 144.067 66.3002 144.066 66.2997 144.066C66.2992 144.066 66.2986 144.065 66.2981 144.065L62.4487 141.784C61.5012 141.223 60.2788 141.536 59.7177 142.483C59.1567 143.43 59.4692 144.653 60.4164 145.214L64.2666 147.495C64.2672 147.495 64.2677 147.496 64.2682 147.496C65.5489 148.255 65.976 149.907 65.2146 151.193C64.4559 152.473 62.7978 152.898 61.5171 152.139L57.0256 149.479C58.951 146.508 58.2187 142.504 55.3125 140.418C54.459 139.805 53.5086 139.424 52.5366 139.26C53.5677 136.503 52.6787 133.285 50.1753 131.488C48.6932 130.423 46.9187 130.056 45.244 130.318C44.946 128.575 43.9929 127.049 42.5551 126.017C39.8508 124.076 36.1758 124.449 33.9058 126.745C33.4446 125.935 32.8078 125.209 32.0022 124.63C29.755 123.018 26.8374 123.002 24.6127 124.361L23.6994 123.822L36.2361 102.66L36.8329 103.012C39.4689 104.574 42.6855 104.899 45.6666 103.746L49.4983 102.265C51.691 101.418 52.9002 101.362 55.069 102.386C53.65 103.98 52.8076 106.073 52.8076 108.329V117.167C52.8076 119.515 54.716 121.426 57.0616 121.427H57.0675C59.4202 121.427 61.6328 120.512 63.2972 118.848C64.2674 117.878 64.9836 116.722 65.4128 115.461C67.9866 116.985 89.2509 129.577 91.7162 131.037C92.3363 131.405 92.7761 131.991 92.9548 132.69C93.1334 133.387 93.0294 134.113 92.6621 134.733ZM107.12 121.146L103.011 123.58C101.205 124.649 98.8664 124.05 97.7972 122.245L91.5153 111.642C90.954 110.695 89.7307 110.382 88.7843 110.943C87.8371 111.504 87.5243 112.726 88.0851 113.674L94.367 124.277C94.4853 124.477 94.6136 124.667 94.7465 124.852L93 125.872C92.647 126.081 92.3074 126.311 91.9827 126.561L64.9023 110.524C63.5756 109.739 61.8935 110.696 61.8935 112.239C61.8726 112.359 62.0994 114.407 60.4789 116.027C59.5674 116.938 58.3558 117.44 57.0672 117.44C57.0661 117.44 57.0651 117.44 57.064 117.44C56.915 117.44 56.7938 117.317 56.7938 117.166V108.328C56.7938 106.019 58.3823 104.071 60.5305 103.528L67.1511 101.852C69.5534 101.245 70.9113 102.528 74.5083 103.745C77.0053 104.711 79.7204 104.651 82.1304 103.622L83.3335 105.653C83.8948 106.601 85.1175 106.913 86.0645 106.352C87.0117 105.791 87.3245 104.569 86.7637 103.621L84.394 99.6217C83.3218 97.812 83.9192 95.4799 85.7286 94.4072L89.8366 91.9737C90.016 91.867 90.2534 91.9216 90.3646 92.1089L107.254 120.618C107.363 120.802 107.303 121.037 107.12 121.146Z" fill="#F5F9FF"/>
</g>
</g>
<path d="M162.578 43V27H165.477V33.7734H172.891V27H175.797V43H172.891V36.2031H165.477V43H162.578ZM184.059 43.2344C182.887 43.2344 181.871 42.9766 181.012 42.4609C180.152 41.9453 179.486 41.224 179.012 40.2969C178.543 39.3698 178.309 38.2865 178.309 37.0469C178.309 35.8073 178.543 34.7214 179.012 33.7891C179.486 32.8568 180.152 32.1328 181.012 31.6172C181.871 31.1016 182.887 30.8438 184.059 30.8438C185.23 30.8438 186.246 31.1016 187.105 31.6172C187.965 32.1328 188.629 32.8568 189.098 33.7891C189.572 34.7214 189.809 35.8073 189.809 37.0469C189.809 38.2865 189.572 39.3698 189.098 40.2969C188.629 41.224 187.965 41.9453 187.105 42.4609C186.246 42.9766 185.23 43.2344 184.059 43.2344ZM184.074 40.9687C184.71 40.9687 185.241 40.7943 185.668 40.4453C186.095 40.0911 186.413 39.6172 186.621 39.0234C186.835 38.4297 186.941 37.7682 186.941 37.0391C186.941 36.3047 186.835 35.6406 186.621 35.0469C186.413 34.4479 186.095 33.9714 185.668 33.6172C185.241 33.263 184.71 33.0859 184.074 33.0859C183.423 33.0859 182.882 33.263 182.449 33.6172C182.022 33.9714 181.702 34.4479 181.488 35.0469C181.28 35.6406 181.176 36.3047 181.176 37.0391C181.176 37.7682 181.28 38.4297 181.488 39.0234C181.702 39.6172 182.022 40.0911 182.449 40.4453C182.882 40.7943 183.423 40.9687 184.074 40.9687ZM198.201 31V33.1875H191.303V31H198.201ZM193.006 28.125H195.834V39.3906C195.834 39.7708 195.891 40.0625 196.006 40.2656C196.126 40.4635 196.282 40.599 196.475 40.6719C196.667 40.7448 196.881 40.7812 197.115 40.7812C197.292 40.7812 197.454 40.7682 197.6 40.7422C197.751 40.7161 197.865 40.6927 197.943 40.6719L198.42 42.8828C198.269 42.9349 198.053 42.9922 197.771 43.0547C197.495 43.1172 197.157 43.1536 196.756 43.1641C196.048 43.1849 195.41 43.0781 194.842 42.8437C194.274 42.6042 193.824 42.2344 193.49 41.7344C193.162 41.2344 193.001 40.6094 193.006 39.8594V28.125ZM212.461 27H215.336V38.25C215.331 39.2812 215.112 40.1693 214.68 40.9141C214.247 41.6536 213.643 42.224 212.867 42.625C212.096 43.0208 211.198 43.2187 210.172 43.2187C209.234 43.2187 208.391 43.0521 207.641 42.7187C206.896 42.3802 206.305 41.8802 205.867 41.2187C205.43 40.5573 205.211 39.7344 205.211 38.75H208.094C208.099 39.1823 208.193 39.5547 208.375 39.8672C208.563 40.1797 208.82 40.4193 209.148 40.5859C209.477 40.7526 209.854 40.8359 210.281 40.8359C210.745 40.8359 211.138 40.7396 211.461 40.5469C211.784 40.349 212.029 40.0573 212.195 39.6719C212.367 39.2865 212.456 38.8125 212.461 38.25V27ZM223.59 43.2344C222.418 43.2344 221.402 42.9766 220.543 42.4609C219.684 41.9453 219.017 41.224 218.543 40.2969C218.074 39.3698 217.84 38.2865 217.84 37.0469C217.84 35.8073 218.074 34.7214 218.543 33.7891C219.017 32.8568 219.684 32.1328 220.543 31.6172C221.402 31.1016 222.418 30.8438 223.59 30.8438C224.762 30.8438 225.777 31.1016 226.637 31.6172C227.496 32.1328 228.16 32.8568 228.629 33.7891C229.103 34.7214 229.34 35.8073 229.34 37.0469C229.34 38.2865 229.103 39.3698 228.629 40.2969C228.16 41.224 227.496 41.9453 226.637 42.4609C225.777 42.9766 224.762 43.2344 223.59 43.2344ZM223.605 40.9687C224.241 40.9687 224.772 40.7943 225.199 40.4453C225.626 40.0911 225.944 39.6172 226.152 39.0234C226.366 38.4297 226.473 37.7682 226.473 37.0391C226.473 36.3047 226.366 35.6406 226.152 35.0469C225.944 34.4479 225.626 33.9714 225.199 33.6172C224.772 33.263 224.241 33.0859 223.605 33.0859C222.954 33.0859 222.413 33.263 221.98 33.6172C221.553 33.9714 221.233 34.4479 221.02 35.0469C220.811 35.6406 220.707 36.3047 220.707 37.0391C220.707 37.7682 220.811 38.4297 221.02 39.0234C221.233 39.6172 221.553 40.0911 221.98 40.4453C222.413 40.7943 222.954 40.9687 223.605 40.9687ZM231.865 43V27H234.693V32.9844H234.811C234.956 32.6927 235.162 32.3828 235.428 32.0547C235.693 31.7214 236.053 31.4375 236.506 31.2031C236.959 30.9635 237.537 30.8438 238.24 30.8438C239.167 30.8438 240.003 31.0807 240.748 31.5547C241.498 32.0234 242.092 32.7187 242.529 33.6406C242.972 34.5573 243.193 35.6823 243.193 37.0156C243.193 38.3333 242.977 39.4531 242.545 40.375C242.113 41.2969 241.524 42 240.779 42.4844C240.035 42.9688 239.191 43.2109 238.248 43.2109C237.561 43.2109 236.99 43.0964 236.537 42.8672C236.084 42.638 235.719 42.362 235.443 42.0391C235.173 41.7109 234.962 41.401 234.811 41.1094H234.646V43H231.865ZM234.639 37C234.639 37.776 234.748 38.4557 234.967 39.0391C235.191 39.6224 235.511 40.0781 235.928 40.4062C236.35 40.7292 236.86 40.8906 237.459 40.8906C238.084 40.8906 238.607 40.724 239.029 40.3906C239.451 40.0521 239.769 39.5911 239.982 39.0078C240.201 38.4193 240.311 37.75 240.311 37C240.311 36.2552 240.204 35.5937 239.99 35.0156C239.777 34.4375 239.459 33.9844 239.037 33.6562C238.615 33.3281 238.089 33.1641 237.459 33.1641C236.855 33.1641 236.342 33.3229 235.92 33.6406C235.498 33.9583 235.178 34.4036 234.959 34.9766C234.745 35.5495 234.639 36.224 234.639 37ZM255.082 34.1719L252.504 34.4531C252.431 34.1927 252.303 33.9479 252.121 33.7188C251.944 33.4896 251.704 33.3047 251.402 33.1641C251.1 33.0234 250.73 32.9531 250.293 32.9531C249.704 32.9531 249.21 33.0807 248.809 33.3359C248.413 33.5911 248.217 33.9219 248.223 34.3281C248.217 34.6771 248.345 34.9609 248.605 35.1797C248.871 35.3984 249.309 35.5781 249.918 35.7188L251.965 36.1562C253.1 36.401 253.944 36.7891 254.496 37.3203C255.053 37.8516 255.335 38.5469 255.34 39.4062C255.335 40.1615 255.113 40.8281 254.676 41.4062C254.243 41.9792 253.642 42.4271 252.871 42.75C252.1 43.0729 251.215 43.2344 250.215 43.2344C248.746 43.2344 247.564 42.9271 246.668 42.3125C245.772 41.6927 245.238 40.8307 245.066 39.7266L247.824 39.4609C247.949 40.0026 248.215 40.4115 248.621 40.6875C249.027 40.9635 249.556 41.1016 250.207 41.1016C250.879 41.1016 251.418 40.9635 251.824 40.6875C252.236 40.4115 252.441 40.0703 252.441 39.6641C252.441 39.3203 252.309 39.0365 252.043 38.8125C251.783 38.5885 251.376 38.4167 250.824 38.2969L248.777 37.8672C247.626 37.6276 246.775 37.224 246.223 36.6562C245.671 36.0833 245.397 35.3594 245.402 34.4844C245.397 33.7448 245.598 33.1042 246.004 32.5625C246.415 32.0156 246.986 31.5937 247.715 31.2969C248.449 30.9948 249.296 30.8438 250.254 30.8438C251.66 30.8438 252.767 31.1432 253.574 31.7422C254.387 32.3411 254.889 33.151 255.082 34.1719Z" fill="white"/>
<path d="M167.672 115.493C167.619 115.022 167.4 114.658 167.016 114.399C166.631 114.137 166.147 114.006 165.564 114.006C165.146 114.006 164.785 114.073 164.48 114.205C164.175 114.335 163.938 114.513 163.769 114.742C163.603 114.968 163.521 115.224 163.521 115.513C163.521 115.755 163.577 115.964 163.69 116.139C163.806 116.315 163.956 116.462 164.142 116.582C164.331 116.698 164.533 116.795 164.749 116.875C164.964 116.951 165.171 117.014 165.37 117.064L166.364 117.322C166.689 117.402 167.022 117.51 167.364 117.646C167.705 117.781 168.022 117.96 168.313 118.183C168.605 118.405 168.84 118.68 169.019 119.008C169.201 119.336 169.293 119.729 169.293 120.186C169.293 120.763 169.143 121.275 168.845 121.722C168.55 122.17 168.121 122.523 167.558 122.781C166.997 123.04 166.32 123.169 165.524 123.169C164.762 123.169 164.102 123.048 163.545 122.806C162.989 122.564 162.553 122.221 162.238 121.777C161.923 121.33 161.749 120.799 161.716 120.186H163.257C163.287 120.554 163.406 120.861 163.615 121.106C163.827 121.348 164.097 121.528 164.425 121.648C164.757 121.764 165.12 121.822 165.514 121.822C165.948 121.822 166.335 121.754 166.673 121.618C167.014 121.479 167.282 121.286 167.478 121.041C167.674 120.793 167.771 120.503 167.771 120.171C167.771 119.87 167.685 119.623 167.513 119.43C167.344 119.238 167.113 119.079 166.822 118.953C166.533 118.827 166.207 118.716 165.842 118.62L164.639 118.292C163.824 118.07 163.178 117.743 162.7 117.312C162.226 116.882 161.989 116.312 161.989 115.602C161.989 115.016 162.148 114.504 162.467 114.066C162.785 113.629 163.216 113.289 163.759 113.047C164.303 112.802 164.916 112.679 165.599 112.679C166.288 112.679 166.896 112.8 167.423 113.042C167.954 113.284 168.371 113.617 168.676 114.041C168.981 114.462 169.14 114.946 169.153 115.493H167.672ZM174.3 123.154C173.548 123.154 172.9 122.993 172.356 122.672C171.816 122.347 171.398 121.891 171.104 121.305C170.812 120.715 170.666 120.024 170.666 119.232C170.666 118.449 170.812 117.76 171.104 117.163C171.398 116.567 171.809 116.101 172.336 115.766C172.867 115.432 173.487 115.264 174.196 115.264C174.627 115.264 175.044 115.335 175.449 115.478C175.853 115.621 176.216 115.844 176.537 116.149C176.859 116.454 177.113 116.85 177.298 117.337C177.484 117.821 177.577 118.41 177.577 119.102V119.629H171.506V118.516H176.12C176.12 118.125 176.04 117.778 175.881 117.477C175.722 117.172 175.498 116.931 175.21 116.756C174.925 116.58 174.59 116.492 174.206 116.492C173.788 116.492 173.424 116.595 173.112 116.8C172.804 117.003 172.565 117.268 172.396 117.596C172.23 117.921 172.148 118.274 172.148 118.655V119.525C172.148 120.035 172.237 120.469 172.416 120.827C172.598 121.185 172.852 121.459 173.177 121.648C173.501 121.833 173.881 121.926 174.315 121.926C174.597 121.926 174.854 121.886 175.086 121.807C175.318 121.724 175.518 121.601 175.687 121.439C175.856 121.277 175.986 121.076 176.075 120.837L177.482 121.091C177.369 121.505 177.167 121.868 176.876 122.18C176.587 122.488 176.224 122.728 175.787 122.901C175.353 123.07 174.857 123.154 174.3 123.154ZM182.517 123.154C181.765 123.154 181.117 122.993 180.573 122.672C180.033 122.347 179.615 121.891 179.32 121.305C179.029 120.715 178.883 120.024 178.883 119.232C178.883 118.449 179.029 117.76 179.32 117.163C179.615 116.567 180.026 116.101 180.553 115.766C181.084 115.432 181.703 115.264 182.413 115.264C182.844 115.264 183.261 115.335 183.665 115.478C184.07 115.621 184.433 115.844 184.754 116.149C185.076 116.454 185.329 116.85 185.515 117.337C185.701 117.821 185.793 118.41 185.793 119.102V119.629H179.723V118.516H184.337C184.337 118.125 184.257 117.778 184.098 117.477C183.939 117.172 183.715 116.931 183.427 116.756C183.142 116.58 182.807 116.492 182.423 116.492C182.005 116.492 181.64 116.595 181.329 116.8C181.021 117.003 180.782 117.268 180.613 117.596C180.447 117.921 180.364 118.274 180.364 118.655V119.525C180.364 120.035 180.454 120.469 180.633 120.827C180.815 121.185 181.069 121.459 181.393 121.648C181.718 121.833 182.098 121.926 182.532 121.926C182.814 121.926 183.071 121.886 183.303 121.807C183.535 121.724 183.735 121.601 183.904 121.439C184.073 121.277 184.202 121.076 184.292 120.837L185.699 121.091C185.586 121.505 185.384 121.868 185.092 122.18C184.804 122.488 184.441 122.728 184.004 122.901C183.569 123.07 183.074 123.154 182.517 123.154ZM199.485 112.818V123H198.073L192.898 115.533H192.803V123H191.267V112.818H192.689L197.869 120.295H197.964V112.818H199.485ZM204.898 123.154C204.146 123.154 203.498 122.993 202.954 122.672C202.414 122.347 201.996 121.891 201.701 121.305C201.41 120.715 201.264 120.024 201.264 119.232C201.264 118.449 201.41 117.76 201.701 117.163C201.996 116.567 202.407 116.101 202.934 115.766C203.464 115.432 204.084 115.264 204.794 115.264C205.224 115.264 205.642 115.335 206.046 115.478C206.451 115.621 206.814 115.844 207.135 116.149C207.457 116.454 207.71 116.85 207.896 117.337C208.081 117.821 208.174 118.41 208.174 119.102V119.629H202.104V118.516H206.718C206.718 118.125 206.638 117.778 206.479 117.477C206.32 117.172 206.096 116.931 205.808 116.756C205.523 116.58 205.188 116.492 204.803 116.492C204.386 116.492 204.021 116.595 203.71 116.8C203.401 117.003 203.163 117.268 202.994 117.596C202.828 117.921 202.745 118.274 202.745 118.655V119.525C202.745 120.035 202.835 120.469 203.014 120.827C203.196 121.185 203.45 121.459 203.774 121.648C204.099 121.833 204.479 121.926 204.913 121.926C205.195 121.926 205.451 121.886 205.683 121.807C205.915 121.724 206.116 121.601 206.285 121.439C206.454 121.277 206.583 121.076 206.673 120.837L208.08 121.091C207.967 121.505 207.765 121.868 207.473 122.18C207.185 122.488 206.822 122.728 206.384 122.901C205.95 123.07 205.455 123.154 204.898 123.154ZM211.465 123L209.218 115.364H210.754L212.251 120.972H212.325L213.827 115.364H215.363L216.855 120.947H216.929L218.416 115.364H219.952L217.71 123H216.193L214.642 117.487H214.528L212.977 123H211.465ZM229.144 112.818H230.676V120.037C230.676 120.69 230.546 121.248 230.288 121.712C230.033 122.176 229.673 122.531 229.209 122.776C228.745 123.018 228.201 123.139 227.578 123.139C227.005 123.139 226.49 123.035 226.032 122.826C225.578 122.617 225.218 122.314 224.953 121.916C224.691 121.515 224.561 121.028 224.561 120.455H226.087C226.087 120.736 226.151 120.98 226.281 121.185C226.413 121.391 226.594 121.552 226.823 121.668C227.055 121.78 227.32 121.837 227.618 121.837C227.943 121.837 228.218 121.769 228.443 121.633C228.672 121.494 228.846 121.29 228.965 121.021C229.085 120.753 229.144 120.425 229.144 120.037V112.818ZM236.009 123.154C235.293 123.154 234.668 122.99 234.135 122.662C233.601 122.334 233.187 121.875 232.892 121.285C232.597 120.695 232.449 120.005 232.449 119.217C232.449 118.424 232.597 117.732 232.892 117.138C233.187 116.545 233.601 116.085 234.135 115.756C234.668 115.428 235.293 115.264 236.009 115.264C236.725 115.264 237.35 115.428 237.883 115.756C238.417 116.085 238.831 116.545 239.126 117.138C239.421 117.732 239.569 118.424 239.569 119.217C239.569 120.005 239.421 120.695 239.126 121.285C238.831 121.875 238.417 122.334 237.883 122.662C237.35 122.99 236.725 123.154 236.009 123.154ZM236.014 121.906C236.478 121.906 236.862 121.784 237.167 121.538C237.472 121.293 237.698 120.967 237.843 120.559C237.993 120.151 238.067 119.702 238.067 119.212C238.067 118.724 237.993 118.277 237.843 117.869C237.698 117.458 237.472 117.129 237.167 116.88C236.862 116.631 236.478 116.507 236.014 116.507C235.547 116.507 235.159 116.631 234.85 116.88C234.546 117.129 234.319 117.458 234.169 117.869C234.024 118.277 233.951 118.724 233.951 119.212C233.951 119.702 234.024 120.151 234.169 120.559C234.319 120.967 234.546 121.293 234.85 121.538C235.159 121.784 235.547 121.906 236.014 121.906ZM241.347 123V112.818H242.834V116.602H242.923C243.009 116.442 243.134 116.259 243.296 116.05C243.458 115.841 243.684 115.659 243.972 115.503C244.26 115.344 244.642 115.264 245.116 115.264C245.732 115.264 246.282 115.42 246.766 115.732C247.25 116.043 247.63 116.492 247.905 117.079C248.183 117.665 248.322 118.371 248.322 119.197C248.322 120.022 248.185 120.73 247.91 121.32C247.635 121.906 247.257 122.359 246.776 122.677C246.296 122.992 245.747 123.149 245.131 123.149C244.666 123.149 244.287 123.071 243.992 122.915C243.7 122.76 243.472 122.577 243.306 122.369C243.14 122.16 243.013 121.974 242.923 121.812H242.799V123H241.347ZM242.804 119.182C242.804 119.719 242.882 120.189 243.037 120.594C243.193 120.998 243.419 121.315 243.714 121.543C244.009 121.769 244.37 121.881 244.797 121.881C245.242 121.881 245.613 121.764 245.911 121.528C246.209 121.29 246.435 120.967 246.587 120.559C246.743 120.151 246.821 119.692 246.821 119.182C246.821 118.678 246.745 118.226 246.592 117.825C246.443 117.424 246.218 117.107 245.916 116.875C245.618 116.643 245.245 116.527 244.797 116.527C244.367 116.527 244.002 116.638 243.704 116.86C243.409 117.082 243.185 117.392 243.032 117.79C242.88 118.187 242.804 118.652 242.804 119.182ZM255.714 117.228L254.366 117.467C254.31 117.294 254.221 117.13 254.098 116.974C253.979 116.819 253.816 116.691 253.611 116.592C253.405 116.492 253.148 116.442 252.84 116.442C252.419 116.442 252.068 116.537 251.786 116.726C251.504 116.911 251.364 117.152 251.364 117.447C251.364 117.702 251.458 117.907 251.647 118.063C251.836 118.219 252.141 118.347 252.562 118.446L253.775 118.724C254.478 118.887 255.001 119.137 255.346 119.475C255.691 119.813 255.863 120.252 255.863 120.793C255.863 121.25 255.73 121.658 255.465 122.016C255.203 122.37 254.837 122.649 254.366 122.851C253.899 123.053 253.357 123.154 252.741 123.154C251.886 123.154 251.188 122.972 250.648 122.607C250.107 122.239 249.776 121.717 249.653 121.041L251.09 120.822C251.18 121.197 251.364 121.48 251.642 121.673C251.92 121.862 252.283 121.956 252.731 121.956C253.218 121.956 253.607 121.855 253.899 121.653C254.191 121.447 254.337 121.197 254.337 120.902C254.337 120.663 254.247 120.463 254.068 120.3C253.893 120.138 253.622 120.015 253.258 119.933L251.965 119.649C251.253 119.487 250.726 119.228 250.384 118.874C250.046 118.519 249.877 118.07 249.877 117.526C249.877 117.076 250.003 116.681 250.255 116.343C250.507 116.005 250.855 115.741 251.299 115.553C251.743 115.36 252.252 115.264 252.825 115.264C253.651 115.264 254.3 115.443 254.774 115.801C255.248 116.156 255.561 116.631 255.714 117.228Z" fill="white"/>
<path d="M161 125.784H256.494V126.739H161V125.784Z" fill="white"/>
<path fill-rule="evenodd" clip-rule="evenodd" d="M275.53 112.22C275.238 111.927 274.763 111.927 274.47 112.22C274.177 112.513 274.177 112.987 274.47 113.28L278.439 117.25H269.75C269.336 117.25 269 117.586 269 118C269 118.414 269.336 118.75 269.75 118.75H278.439L274.47 122.72C274.177 123.013 274.177 123.487 274.47 123.78C274.763 124.073 275.238 124.073 275.53 123.78L280.78 118.53C281.073 118.237 281.073 117.763 280.78 117.47L275.53 112.22Z" fill="white"/>
</svg>
