<svg width="373" height="150" viewBox="0 0 373 150" fill="none" xmlns="http://www.w3.org/2000/svg">
<rect x="0.5" y="0.5" width="372" height="149" rx="8.5" fill="#473198" stroke="#EAECEF"/>
<g opacity="0.5">
<mask id="mask0_409_1006" style="mask-type:alpha" maskUnits="userSpaceOnUse" x="1" y="1" width="139" height="148">
<rect x="1" y="1" width="139" height="148" rx="8" fill="white"/>
</mask>
<g mask="url(#mask0_409_1006)">
<path d="M115.562 35.7248H104.125V31.1498C104.125 28.723 103.161 26.3957 101.445 24.6797C99.7291 22.9638 97.4017 21.9998 94.975 21.9998C92.5483 21.9998 90.2209 22.9638 88.505 24.6797C86.789 26.3957 85.825 28.723 85.825 31.1498V35.7248H67.525V31.1498C67.525 28.723 66.561 26.3957 64.845 24.6797C63.1291 22.9638 60.8017 21.9998 58.375 21.9998C55.9483 21.9998 53.6209 22.9638 51.905 24.6797C50.189 26.3957 49.225 28.723 49.225 31.1498V35.7248H30.925V31.1498C30.925 28.723 29.961 26.3957 28.245 24.6797C26.5291 22.9638 24.2017 21.9998 21.775 21.9998C19.3483 21.9998 17.0209 22.9638 15.305 24.6797C13.589 26.3957 12.625 28.723 12.625 31.1498V35.7248H1.1875C-1.84591 35.7248 -4.75509 36.9298 -6.90003 39.0747C-9.04498 41.2197 -10.25 44.1288 -10.25 47.1623V138.662C-10.25 141.696 -9.04498 144.605 -6.90003 146.75C-4.75509 148.895 -1.84591 150.1 1.1875 150.1H65.2375C65.8442 150.1 66.426 149.859 66.855 149.43C67.284 149.001 67.525 148.419 67.525 147.812C67.525 147.206 67.284 146.624 66.855 146.195C66.426 145.766 65.8442 145.525 65.2375 145.525H1.1875C-0.630878 145.519 -2.37323 144.795 -3.65902 143.509C-4.94481 142.223 -5.66957 140.481 -5.675 138.662V67.7498H122.425V106.637C122.425 107.244 122.666 107.826 123.095 108.255C123.524 108.684 124.106 108.925 124.712 108.925C125.319 108.925 125.901 108.684 126.33 108.255C126.759 107.826 127 107.244 127 106.637V47.1623C127 44.1288 125.795 41.2197 123.65 39.0747C121.505 36.9298 118.596 35.7248 115.562 35.7248ZM90.4 31.1498C90.4 29.9364 90.882 28.7727 91.74 27.9147C92.598 27.0568 93.7616 26.5748 94.975 26.5748C96.1884 26.5748 97.352 27.0568 98.21 27.9147C99.068 28.7727 99.55 29.9364 99.55 31.1498V44.8748C99.55 46.0881 99.068 47.2518 98.21 48.1098C97.352 48.9677 96.1884 49.4498 94.975 49.4498C93.7616 49.4498 92.598 48.9677 91.74 48.1098C90.882 47.2518 90.4 46.0881 90.4 44.8748V31.1498ZM53.8 31.1498C53.8 29.9364 54.282 28.7727 55.14 27.9147C55.998 27.0568 57.1616 26.5748 58.375 26.5748C59.5884 26.5748 60.752 27.0568 61.61 27.9147C62.468 28.7727 62.95 29.9364 62.95 31.1498V44.8748C62.95 46.0881 62.468 47.2518 61.61 48.1098C60.752 48.9677 59.5884 49.4498 58.375 49.4498C57.1616 49.4498 55.998 48.9677 55.14 48.1098C54.282 47.2518 53.8 46.0881 53.8 44.8748V31.1498ZM17.2 31.1498C17.2 29.9364 17.682 28.7727 18.54 27.9147C19.398 27.0568 20.5616 26.5748 21.775 26.5748C22.9884 26.5748 24.152 27.0568 25.01 27.9147C25.868 28.7727 26.35 29.9364 26.35 31.1498V44.8748C26.35 46.0881 25.868 47.2518 25.01 48.1098C24.152 48.9677 22.9884 49.4498 21.775 49.4498C20.5616 49.4498 19.398 48.9677 18.54 48.1098C17.682 47.2518 17.2 46.0881 17.2 44.8748V31.1498ZM122.425 63.1748H-5.675V47.1623C-5.66957 45.3439 -4.94481 43.6015 -3.65902 42.3157C-2.37323 41.0299 -0.630878 40.3052 1.1875 40.2998H12.625V44.8748C12.625 47.3015 13.589 49.6288 15.305 51.3448C17.0209 53.0607 19.3483 54.0248 21.775 54.0248C24.2017 54.0248 26.5291 53.0607 28.245 51.3448C29.961 49.6288 30.925 47.3015 30.925 44.8748V40.2998H49.225V44.8748C49.225 47.3015 50.189 49.6288 51.905 51.3448C53.6209 53.0607 55.9483 54.0248 58.375 54.0248C60.8017 54.0248 63.1291 53.0607 64.845 51.3448C66.561 49.6288 67.525 47.3015 67.525 44.8748V40.2998H85.825V44.8748C85.825 47.3015 86.789 49.6288 88.505 51.3448C90.2209 53.0607 92.5483 54.0248 94.975 54.0248C97.4017 54.0248 99.7291 53.0607 101.445 51.3448C103.161 49.6288 104.125 47.3015 104.125 44.8748V40.2998H115.562C117.381 40.3052 119.123 41.0299 120.409 42.3157C121.695 43.6015 122.42 45.3439 122.425 47.1623V63.1748Z" fill="#F5F9FF"/>
<path d="M53.8003 83.7627C53.8003 82.5494 53.3183 81.3857 52.4603 80.5277C51.6023 79.6698 50.4386 79.1877 49.2253 79.1877H40.0753C38.8619 79.1877 37.6982 79.6698 36.8403 80.5277C35.9823 81.3857 35.5003 82.5494 35.5003 83.7627V90.6252C35.5003 91.8386 35.9823 93.0023 36.8403 93.8603C37.6982 94.7182 38.8619 95.2002 40.0753 95.2002H49.2253C50.4386 95.2002 51.6023 94.7182 52.4603 93.8603C53.3183 93.0023 53.8003 91.8386 53.8003 90.6252V83.7627ZM40.0753 90.6252V83.7627H49.2253V90.6252H40.0753Z" fill="#F5F9FF"/>
<path d="M26.3502 83.7627C26.3502 82.5494 25.8682 81.3857 25.0102 80.5277C24.1522 79.6698 22.9886 79.1877 21.7752 79.1877H12.6252C11.4118 79.1877 10.2482 79.6698 9.39019 80.5277C8.53221 81.3857 8.0502 82.5494 8.0502 83.7627V90.6252C8.0502 91.8386 8.53221 93.0023 9.39019 93.8603C10.2482 94.7182 11.4118 95.2002 12.6252 95.2002H21.7752C22.9886 95.2002 24.1522 94.7182 25.0102 93.8603C25.8682 93.0023 26.3502 91.8386 26.3502 90.6252V83.7627ZM12.6252 90.6252V83.7627H21.7752V90.6252H12.6252Z" fill="#F5F9FF"/>
<path d="M104.125 95.2002C105.339 95.2002 106.502 94.7182 107.36 93.8603C108.218 93.0023 108.7 91.8386 108.7 90.6252V83.7627C108.7 82.5494 108.218 81.3857 107.36 80.5277C106.502 79.6698 105.339 79.1877 104.125 79.1877H94.9753C93.7619 79.1877 92.5982 79.6698 91.7403 80.5277C90.8823 81.3857 90.4003 82.5494 90.4003 83.7627V90.6252C90.4003 91.8386 90.8823 93.0023 91.7403 93.8603C92.5982 94.7182 93.7619 95.2002 94.9753 95.2002H104.125ZM94.9753 83.7627H104.125V90.6252H94.9753V83.7627Z" fill="#F5F9FF"/>
<path d="M53.8003 104.35C53.8003 103.137 53.3183 101.973 52.4603 101.115C51.6023 100.257 50.4386 99.7754 49.2253 99.7754H40.0753C38.8619 99.7754 37.6982 100.257 36.8403 101.115C35.9823 101.973 35.5003 103.137 35.5003 104.35V111.213C35.5003 112.426 35.9823 113.59 36.8403 114.448C37.6982 115.306 38.8619 115.788 40.0753 115.788H49.2253C50.4386 115.788 51.6023 115.306 52.4603 114.448C53.3183 113.59 53.8003 112.426 53.8003 111.213V104.35ZM40.0753 111.213V104.35H49.2253V111.213H40.0753Z" fill="#F5F9FF"/>
<path d="M26.3502 104.35C26.3502 103.137 25.8682 101.973 25.0102 101.115C24.1522 100.257 22.9886 99.7754 21.7752 99.7754H12.6252C11.4118 99.7754 10.2482 100.257 9.39019 101.115C8.53221 101.973 8.0502 103.137 8.0502 104.35V111.213C8.0502 112.426 8.53221 113.59 9.39019 114.448C10.2482 115.306 11.4118 115.788 12.6252 115.788H21.7752C22.9886 115.788 24.1522 115.306 25.0102 114.448C25.8682 113.59 26.3502 112.426 26.3502 111.213V104.35ZM12.6252 111.213V104.35H21.7752V111.213H12.6252Z" fill="#F5F9FF"/>
<path d="M49.2253 120.363H40.0753C38.8619 120.363 37.6982 120.845 36.8403 121.703C35.9823 122.561 35.5003 123.724 35.5003 124.938V131.8C35.5003 133.014 35.9823 134.177 36.8403 135.035C37.6982 135.893 38.8619 136.375 40.0753 136.375H49.2253C50.4386 136.375 51.6023 135.893 52.4603 135.035C53.3183 134.177 53.8003 133.014 53.8003 131.8V124.938C53.8003 123.724 53.3183 122.561 52.4603 121.703C51.6023 120.845 50.4386 120.363 49.2253 120.363ZM40.0753 131.8V124.938H49.2253V131.8H40.0753Z" fill="#F5F9FF"/>
<path d="M67.5253 95.2002H76.6753C77.8886 95.2002 79.0523 94.7182 79.9103 93.8603C80.7683 93.0023 81.2503 91.8386 81.2503 90.6252V83.7627C81.2503 82.5494 80.7683 81.3857 79.9103 80.5277C79.0523 79.6698 77.8886 79.1877 76.6753 79.1877H67.5253C66.3119 79.1877 65.1482 79.6698 64.2902 80.5277C63.4323 81.3857 62.9503 82.5494 62.9503 83.7627V90.6252C62.9503 91.8386 63.4323 93.0023 64.2902 93.8603C65.1482 94.7182 66.3119 95.2002 67.5253 95.2002ZM67.5253 83.7627H76.6753V90.6252H67.5253V83.7627Z" fill="#F5F9FF"/>
<path d="M62.9503 111.213C62.9503 112.426 63.4323 113.59 64.2902 114.448C65.1482 115.306 66.3119 115.788 67.5253 115.788C68.1319 115.788 68.7138 115.547 69.1428 115.118C69.5718 114.689 69.8128 114.107 69.8128 113.5C69.8128 112.894 69.5718 112.312 69.1428 111.883C68.7138 111.454 68.1319 111.213 67.5253 111.213V104.35H76.6753C77.2819 104.35 77.8638 104.109 78.2928 103.68C78.7218 103.251 78.9628 102.67 78.9628 102.063C78.9628 101.456 78.7218 100.874 78.2928 100.445C77.8638 100.016 77.2819 99.7754 76.6753 99.7754H67.5253C66.3119 99.7754 65.1482 100.257 64.2902 101.115C63.4323 101.973 62.9503 103.137 62.9503 104.35V111.213Z" fill="#F5F9FF"/>
<path d="M21.7752 120.363H12.6252C11.4118 120.363 10.2482 120.845 9.39019 121.703C8.53221 122.561 8.0502 123.724 8.0502 124.938V131.8C8.0502 133.014 8.53221 134.177 9.39019 135.035C10.2482 135.893 11.4118 136.375 12.6252 136.375H21.7752C22.9886 136.375 24.1522 135.893 25.0102 135.035C25.8682 134.177 26.3502 133.014 26.3502 131.8V124.938C26.3502 123.724 25.8682 122.561 25.0102 121.703C24.1522 120.845 22.9886 120.363 21.7752 120.363V120.363ZM12.6252 131.8V124.938H21.7752V131.8H12.6252Z" fill="#F5F9FF"/>
<path d="M97.2622 99.7754C91.3807 99.7754 85.6313 101.519 80.741 104.787C75.8506 108.055 72.0391 112.699 69.7884 118.133C67.5376 123.567 66.9487 129.546 68.0961 135.314C69.2435 141.083 72.0758 146.382 76.2346 150.54C80.3935 154.699 85.6922 157.532 91.4607 158.679C97.2292 159.826 103.208 159.238 108.642 156.987C114.076 154.736 118.72 150.924 121.988 146.034C125.256 141.144 127 135.394 127 129.513C126.991 121.629 123.855 114.07 118.28 108.495C112.705 102.92 105.146 99.7845 97.2622 99.7754V99.7754ZM97.2622 154.675C92.2855 154.675 87.4206 153.2 83.2827 150.435C79.1447 147.67 75.9196 143.74 74.0151 139.142C72.1106 134.544 71.6123 129.485 72.5832 124.604C73.5541 119.723 75.9506 115.239 79.4696 111.72C82.9887 108.201 87.4722 105.805 92.3533 104.834C97.2343 103.863 102.294 104.361 106.891 106.266C111.489 108.17 115.419 111.395 118.184 115.533C120.949 119.671 122.425 124.536 122.425 129.513C122.417 136.184 119.763 142.58 115.046 147.297C110.329 152.014 103.933 154.668 97.2622 154.675Z" fill="#F5F9FF"/>
<path d="M110.479 119.923L92.6873 137.716L84.601 129.627C84.1696 129.21 83.5917 128.98 82.992 128.985C82.3922 128.99 81.8185 129.231 81.3943 129.655C80.9702 130.079 80.7296 130.653 80.7244 131.252C80.7192 131.852 80.9498 132.43 81.3665 132.861L91.07 142.567C91.499 142.996 92.0807 143.237 92.6873 143.237C93.2939 143.237 93.8756 142.996 94.3046 142.567L113.714 123.158C114.131 122.726 114.361 122.149 114.356 121.549C114.351 120.949 114.11 120.375 113.686 119.951C113.262 119.527 112.688 119.287 112.089 119.281C111.489 119.276 110.911 119.507 110.479 119.923Z" fill="#F5F9FF"/>
</g>
</g>
<path d="M161.875 29.4297V27H174.641V29.4297H169.695V43H166.82V29.4297H161.875ZM176.977 43V31H179.805V43H176.977ZM178.398 29.2969C177.951 29.2969 177.565 29.1484 177.242 28.8516C176.919 28.5495 176.758 28.1875 176.758 27.7656C176.758 27.3385 176.919 26.9766 177.242 26.6797C177.565 26.3776 177.951 26.2266 178.398 26.2266C178.852 26.2266 179.237 26.3776 179.555 26.6797C179.878 26.9766 180.039 27.3385 180.039 27.7656C180.039 28.1875 179.878 28.5495 179.555 28.8516C179.237 29.1484 178.852 29.2969 178.398 29.2969ZM182.713 43V31H185.416V33.0391H185.557C185.807 32.3516 186.221 31.8151 186.799 31.4297C187.377 31.0391 188.067 30.8438 188.869 30.8438C189.682 30.8438 190.367 31.0417 190.924 31.4375C191.486 31.8281 191.882 32.362 192.111 33.0391H192.236C192.502 32.3724 192.95 31.8411 193.58 31.4453C194.215 31.0443 194.968 30.8438 195.838 30.8438C196.942 30.8438 197.843 31.1927 198.541 31.8906C199.239 32.5885 199.588 33.6068 199.588 34.9453V43H196.752V35.3828C196.752 34.638 196.554 34.0937 196.158 33.75C195.762 33.401 195.278 33.2266 194.705 33.2266C194.023 33.2266 193.489 33.4401 193.104 33.8672C192.723 34.2891 192.533 34.8385 192.533 35.5156V43H189.76V35.2656C189.76 34.6458 189.572 34.151 189.197 33.7812C188.827 33.4115 188.343 33.2266 187.744 33.2266C187.338 33.2266 186.968 33.3307 186.635 33.5391C186.301 33.7422 186.036 34.0312 185.838 34.4062C185.64 34.776 185.541 35.2083 185.541 35.7031V43H182.713ZM207.77 43.2344C206.566 43.2344 205.527 42.9844 204.652 42.4844C203.783 41.9792 203.113 41.2656 202.645 40.3437C202.176 39.4167 201.941 38.3255 201.941 37.0703C201.941 35.8359 202.176 34.7526 202.645 33.8203C203.118 32.8828 203.78 32.1536 204.629 31.6328C205.478 31.1068 206.475 30.8438 207.621 30.8438C208.361 30.8438 209.059 30.9635 209.715 31.2031C210.376 31.4375 210.96 31.8021 211.465 32.2969C211.975 32.7917 212.376 33.4219 212.668 34.1875C212.96 34.9479 213.105 35.8542 213.105 36.9062V37.7734H203.27V35.8672H210.395C210.389 35.3255 210.272 34.8437 210.043 34.4219C209.814 33.9948 209.493 33.6589 209.082 33.4141C208.676 33.1693 208.202 33.0469 207.66 33.0469C207.082 33.0469 206.574 33.1875 206.137 33.4687C205.699 33.7448 205.358 34.1094 205.113 34.5625C204.874 35.0104 204.751 35.5026 204.746 36.0391V37.7031C204.746 38.401 204.874 39 205.129 39.5C205.384 39.9948 205.741 40.375 206.199 40.6406C206.658 40.901 207.194 41.0312 207.809 41.0312C208.22 41.0312 208.592 40.974 208.926 40.8594C209.259 40.7396 209.548 40.5651 209.793 40.3359C210.038 40.1068 210.223 39.8229 210.348 39.4844L212.988 39.7812C212.822 40.4792 212.504 41.0885 212.035 41.6094C211.572 42.125 210.978 42.526 210.254 42.8125C209.53 43.0937 208.702 43.2344 207.77 43.2344ZM224.982 34.1719L222.404 34.4531C222.331 34.1927 222.204 33.9479 222.021 33.7188C221.844 33.4896 221.605 33.3047 221.303 33.1641C221.001 33.0234 220.631 32.9531 220.193 32.9531C219.605 32.9531 219.11 33.0807 218.709 33.3359C218.313 33.5911 218.118 33.9219 218.123 34.3281C218.118 34.6771 218.245 34.9609 218.506 35.1797C218.771 35.3984 219.209 35.5781 219.818 35.7188L221.865 36.1562C223.001 36.401 223.844 36.7891 224.396 37.3203C224.954 37.8516 225.235 38.5469 225.24 39.4062C225.235 40.1615 225.014 40.8281 224.576 41.4062C224.144 41.9792 223.542 42.4271 222.771 42.75C222.001 43.0729 221.115 43.2344 220.115 43.2344C218.646 43.2344 217.464 42.9271 216.568 42.3125C215.673 41.6927 215.139 40.8307 214.967 39.7266L217.725 39.4609C217.85 40.0026 218.115 40.4115 218.521 40.6875C218.928 40.9635 219.456 41.1016 220.107 41.1016C220.779 41.1016 221.318 40.9635 221.725 40.6875C222.136 40.4115 222.342 40.0703 222.342 39.6641C222.342 39.3203 222.209 39.0365 221.943 38.8125C221.683 38.5885 221.277 38.4167 220.725 38.2969L218.678 37.8672C217.527 37.6276 216.675 37.224 216.123 36.6562C215.571 36.0833 215.298 35.3594 215.303 34.4844C215.298 33.7448 215.498 33.1042 215.904 32.5625C216.316 32.0156 216.886 31.5937 217.615 31.2969C218.35 30.9948 219.196 30.8438 220.154 30.8438C221.561 30.8438 222.667 31.1432 223.475 31.7422C224.287 32.3411 224.79 33.151 224.982 34.1719ZM230.4 35.9687V43H227.572V27H230.338V33.0391H230.479C230.76 32.362 231.195 31.8281 231.783 31.4375C232.377 31.0417 233.132 30.8438 234.049 30.8438C234.882 30.8438 235.609 31.0182 236.229 31.3672C236.848 31.7161 237.327 32.2266 237.666 32.8984C238.01 33.5703 238.182 34.3906 238.182 35.3594V43H235.354V35.7969C235.354 34.9896 235.145 34.362 234.729 33.9141C234.317 33.4609 233.739 33.2344 232.994 33.2344C232.494 33.2344 232.046 33.3437 231.65 33.5625C231.26 33.776 230.952 34.0859 230.729 34.4922C230.51 34.8984 230.4 35.3906 230.4 35.9687ZM246.377 43.2344C245.174 43.2344 244.135 42.9844 243.26 42.4844C242.39 41.9792 241.721 41.2656 241.252 40.3437C240.783 39.4167 240.549 38.3255 240.549 37.0703C240.549 35.8359 240.783 34.7526 241.252 33.8203C241.726 32.8828 242.387 32.1536 243.236 31.6328C244.085 31.1068 245.083 30.8438 246.229 30.8438C246.968 30.8438 247.666 30.9635 248.322 31.2031C248.984 31.4375 249.567 31.8021 250.072 32.2969C250.583 32.7917 250.984 33.4219 251.275 34.1875C251.567 34.9479 251.713 35.8542 251.713 36.9062V37.7734H241.877V35.8672H249.002C248.997 35.3255 248.88 34.8437 248.65 34.4219C248.421 33.9948 248.101 33.6589 247.689 33.4141C247.283 33.1693 246.809 33.0469 246.268 33.0469C245.689 33.0469 245.182 33.1875 244.744 33.4687C244.307 33.7448 243.965 34.1094 243.721 34.5625C243.481 35.0104 243.359 35.5026 243.354 36.0391V37.7031C243.354 38.401 243.481 39 243.736 39.5C243.992 39.9948 244.348 40.375 244.807 40.6406C245.265 40.901 245.801 41.0312 246.416 41.0312C246.827 41.0312 247.2 40.974 247.533 40.8594C247.867 40.7396 248.156 40.5651 248.4 40.3359C248.645 40.1068 248.83 39.8229 248.955 39.4844L251.596 39.7812C251.429 40.4792 251.111 41.0885 250.643 41.6094C250.179 42.125 249.585 42.526 248.861 42.8125C248.137 43.0937 247.309 43.2344 246.377 43.2344ZM259.418 43.2344C258.215 43.2344 257.176 42.9844 256.301 42.4844C255.431 41.9792 254.762 41.2656 254.293 40.3437C253.824 39.4167 253.59 38.3255 253.59 37.0703C253.59 35.8359 253.824 34.7526 254.293 33.8203C254.767 32.8828 255.428 32.1536 256.277 31.6328C257.126 31.1068 258.124 30.8438 259.27 30.8438C260.009 30.8438 260.707 30.9635 261.363 31.2031C262.025 31.4375 262.608 31.8021 263.113 32.2969C263.624 32.7917 264.025 33.4219 264.316 34.1875C264.608 34.9479 264.754 35.8542 264.754 36.9062V37.7734H254.918V35.8672H262.043C262.038 35.3255 261.921 34.8437 261.691 34.4219C261.462 33.9948 261.142 33.6589 260.73 33.4141C260.324 33.1693 259.85 33.0469 259.309 33.0469C258.73 33.0469 258.223 33.1875 257.785 33.4687C257.348 33.7448 257.007 34.1094 256.762 34.5625C256.522 35.0104 256.4 35.5026 256.395 36.0391V37.7031C256.395 38.401 256.522 39 256.777 39.5C257.033 39.9948 257.389 40.375 257.848 40.6406C258.306 40.901 258.842 41.0312 259.457 41.0312C259.868 41.0312 260.241 40.974 260.574 40.8594C260.908 40.7396 261.197 40.5651 261.441 40.3359C261.686 40.1068 261.871 39.8229 261.996 39.4844L264.637 39.7812C264.47 40.4792 264.152 41.0885 263.684 41.6094C263.22 42.125 262.626 42.526 261.902 42.8125C261.178 43.0937 260.35 43.2344 259.418 43.2344ZM273.139 31V33.1875H266.24V31H273.139ZM267.943 28.125H270.771V39.3906C270.771 39.7708 270.829 40.0625 270.943 40.2656C271.063 40.4635 271.219 40.599 271.412 40.6719C271.605 40.7448 271.818 40.7812 272.053 40.7812C272.23 40.7812 272.391 40.7682 272.537 40.7422C272.688 40.7161 272.803 40.6927 272.881 40.6719L273.357 42.8828C273.206 42.9349 272.99 42.9922 272.709 43.0547C272.433 43.1172 272.094 43.1536 271.693 43.1641C270.985 43.1849 270.347 43.0781 269.779 42.8437C269.212 42.6042 268.761 42.2344 268.428 41.7344C268.1 41.2344 267.938 40.6094 267.943 39.8594V28.125ZM284.816 34.1719L282.238 34.4531C282.165 34.1927 282.038 33.9479 281.855 33.7188C281.678 33.4896 281.439 33.3047 281.137 33.1641C280.835 33.0234 280.465 32.9531 280.027 32.9531C279.439 32.9531 278.944 33.0807 278.543 33.3359C278.147 33.5911 277.952 33.9219 277.957 34.3281C277.952 34.6771 278.079 34.9609 278.34 35.1797C278.605 35.3984 279.043 35.5781 279.652 35.7188L281.699 36.1562C282.835 36.401 283.678 36.7891 284.23 37.3203C284.788 37.8516 285.069 38.5469 285.074 39.4062C285.069 40.1615 284.848 40.8281 284.41 41.4062C283.978 41.9792 283.376 42.4271 282.605 42.75C281.835 43.0729 280.949 43.2344 279.949 43.2344C278.48 43.2344 277.298 42.9271 276.402 42.3125C275.507 41.6927 274.973 40.8307 274.801 39.7266L277.559 39.4609C277.684 40.0026 277.949 40.4115 278.355 40.6875C278.762 40.9635 279.29 41.1016 279.941 41.1016C280.613 41.1016 281.152 40.9635 281.559 40.6875C281.97 40.4115 282.176 40.0703 282.176 39.6641C282.176 39.3203 282.043 39.0365 281.777 38.8125C281.517 38.5885 281.111 38.4167 280.559 38.2969L278.512 37.8672C277.361 37.6276 276.509 37.224 275.957 36.6562C275.405 36.0833 275.132 35.3594 275.137 34.4844C275.132 33.7448 275.332 33.1042 275.738 32.5625C276.15 32.0156 276.72 31.5937 277.449 31.2969C278.184 30.9948 279.03 30.8438 279.988 30.8438C281.395 30.8438 282.501 31.1432 283.309 31.7422C284.121 32.3411 284.624 33.151 284.816 34.1719Z" fill="white"/>
<path d="M162.119 112.818H163.983L167.224 120.733H167.344L170.585 112.818H172.45V123H170.988V115.632H170.893L167.891 122.985H166.678L163.675 115.627H163.58V123H162.119V112.818ZM176.786 123.169C176.302 123.169 175.865 123.08 175.474 122.901C175.082 122.718 174.773 122.455 174.544 122.11C174.318 121.765 174.206 121.343 174.206 120.842C174.206 120.411 174.289 120.057 174.454 119.778C174.62 119.5 174.844 119.28 175.126 119.117C175.407 118.955 175.722 118.832 176.07 118.749C176.418 118.666 176.773 118.603 177.134 118.56C177.591 118.507 177.963 118.464 178.248 118.431C178.533 118.395 178.74 118.337 178.869 118.257C178.998 118.178 179.063 118.048 179.063 117.869V117.835C179.063 117.4 178.94 117.064 178.695 116.825C178.453 116.587 178.092 116.467 177.611 116.467C177.111 116.467 176.716 116.578 176.428 116.8C176.143 117.019 175.946 117.263 175.836 117.531L174.439 117.213C174.605 116.749 174.847 116.375 175.165 116.089C175.487 115.801 175.856 115.592 176.274 115.463C176.692 115.33 177.131 115.264 177.591 115.264C177.896 115.264 178.22 115.301 178.561 115.374C178.906 115.443 179.227 115.572 179.525 115.761C179.827 115.95 180.074 116.22 180.266 116.572C180.458 116.92 180.555 117.372 180.555 117.929V123H179.103V121.956H179.043C178.947 122.148 178.803 122.337 178.611 122.523C178.418 122.708 178.171 122.862 177.87 122.985C177.568 123.108 177.207 123.169 176.786 123.169ZM177.109 121.976C177.52 121.976 177.872 121.895 178.163 121.732C178.458 121.57 178.682 121.358 178.834 121.096C178.99 120.831 179.068 120.547 179.068 120.246V119.261C179.015 119.314 178.912 119.364 178.76 119.411C178.611 119.454 178.44 119.492 178.248 119.525C178.055 119.555 177.868 119.583 177.686 119.609C177.504 119.633 177.351 119.652 177.229 119.669C176.94 119.705 176.677 119.767 176.438 119.853C176.203 119.939 176.014 120.063 175.871 120.226C175.732 120.385 175.662 120.597 175.662 120.862C175.662 121.23 175.798 121.509 176.07 121.697C176.342 121.883 176.688 121.976 177.109 121.976ZM184.021 118.466V123H182.534V115.364H183.961V116.607H184.056C184.231 116.202 184.507 115.877 184.881 115.632C185.259 115.387 185.734 115.264 186.308 115.264C186.828 115.264 187.284 115.374 187.675 115.592C188.066 115.808 188.369 116.129 188.585 116.557C188.8 116.984 188.908 117.513 188.908 118.143V123H187.422V118.322C187.422 117.768 187.277 117.336 186.989 117.024C186.701 116.709 186.305 116.552 185.801 116.552C185.456 116.552 185.15 116.626 184.881 116.776C184.616 116.925 184.405 117.143 184.25 117.432C184.097 117.717 184.021 118.062 184.021 118.466ZM193.124 123.169C192.64 123.169 192.203 123.08 191.811 122.901C191.42 122.718 191.11 122.455 190.882 122.11C190.656 121.765 190.544 121.343 190.544 120.842C190.544 120.411 190.627 120.057 190.792 119.778C190.958 119.5 191.182 119.28 191.463 119.117C191.745 118.955 192.06 118.832 192.408 118.749C192.756 118.666 193.111 118.603 193.472 118.56C193.929 118.507 194.301 118.464 194.586 118.431C194.871 118.395 195.078 118.337 195.207 118.257C195.336 118.178 195.401 118.048 195.401 117.869V117.835C195.401 117.4 195.278 117.064 195.033 116.825C194.791 116.587 194.43 116.467 193.949 116.467C193.449 116.467 193.054 116.578 192.766 116.8C192.481 117.019 192.284 117.263 192.174 117.531L190.777 117.213C190.943 116.749 191.185 116.375 191.503 116.089C191.825 115.801 192.194 115.592 192.612 115.463C193.029 115.33 193.469 115.264 193.929 115.264C194.234 115.264 194.557 115.301 194.899 115.374C195.243 115.443 195.565 115.572 195.863 115.761C196.165 115.95 196.412 116.22 196.604 116.572C196.796 116.92 196.892 117.372 196.892 117.929V123H195.441V121.956H195.381C195.285 122.148 195.141 122.337 194.949 122.523C194.756 122.708 194.509 122.862 194.208 122.985C193.906 123.108 193.545 123.169 193.124 123.169ZM193.447 121.976C193.858 121.976 194.209 121.895 194.501 121.732C194.796 121.57 195.02 121.358 195.172 121.096C195.328 120.831 195.406 120.547 195.406 120.246V119.261C195.353 119.314 195.25 119.364 195.098 119.411C194.949 119.454 194.778 119.492 194.586 119.525C194.393 119.555 194.206 119.583 194.024 119.609C193.842 119.633 193.689 119.652 193.566 119.669C193.278 119.705 193.015 119.767 192.776 119.853C192.541 119.939 192.352 120.063 192.209 120.226C192.07 120.385 192 120.597 192 120.862C192 121.23 192.136 121.509 192.408 121.697C192.68 121.883 193.026 121.976 193.447 121.976ZM202.074 126.023C201.468 126.023 200.945 125.943 200.508 125.784C200.074 125.625 199.719 125.415 199.444 125.153C199.169 124.891 198.963 124.604 198.828 124.293L200.105 123.766C200.195 123.911 200.314 124.066 200.463 124.228C200.616 124.394 200.821 124.535 201.08 124.651C201.342 124.767 201.678 124.825 202.089 124.825C202.652 124.825 203.118 124.687 203.486 124.412C203.854 124.14 204.038 123.706 204.038 123.109V121.608H203.943C203.854 121.77 203.725 121.951 203.556 122.15C203.39 122.349 203.161 122.521 202.869 122.667C202.578 122.813 202.198 122.886 201.731 122.886C201.128 122.886 200.584 122.745 200.1 122.463C199.62 122.178 199.239 121.759 198.957 121.205C198.678 120.648 198.539 119.964 198.539 119.152C198.539 118.34 198.677 117.644 198.952 117.064C199.23 116.484 199.611 116.04 200.095 115.732C200.579 115.42 201.128 115.264 201.741 115.264C202.215 115.264 202.598 115.344 202.889 115.503C203.181 115.659 203.408 115.841 203.57 116.05C203.736 116.259 203.864 116.442 203.953 116.602H204.063V115.364H205.519V123.169C205.519 123.825 205.367 124.364 205.062 124.785C204.757 125.206 204.344 125.517 203.824 125.719C203.307 125.922 202.724 126.023 202.074 126.023ZM202.059 121.653C202.487 121.653 202.848 121.553 203.143 121.354C203.441 121.152 203.667 120.864 203.819 120.489C203.975 120.112 204.053 119.659 204.053 119.132C204.053 118.618 203.977 118.166 203.824 117.775C203.672 117.384 203.448 117.079 203.153 116.86C202.858 116.638 202.493 116.527 202.059 116.527C201.612 116.527 201.239 116.643 200.941 116.875C200.642 117.104 200.417 117.415 200.264 117.81C200.115 118.204 200.041 118.645 200.041 119.132C200.041 119.633 200.117 120.072 200.269 120.45C200.422 120.827 200.647 121.122 200.945 121.335C201.247 121.547 201.618 121.653 202.059 121.653ZM210.804 123.154C210.052 123.154 209.404 122.993 208.86 122.672C208.32 122.347 207.902 121.891 207.607 121.305C207.316 120.715 207.17 120.024 207.17 119.232C207.17 118.449 207.316 117.76 207.607 117.163C207.902 116.567 208.313 116.101 208.84 115.766C209.371 115.432 209.99 115.264 210.7 115.264C211.131 115.264 211.548 115.335 211.953 115.478C212.357 115.621 212.72 115.844 213.041 116.149C213.363 116.454 213.616 116.85 213.802 117.337C213.988 117.821 214.08 118.41 214.08 119.102V119.629H208.01V118.516H212.624C212.624 118.125 212.544 117.778 212.385 117.477C212.226 117.172 212.002 116.931 211.714 116.756C211.429 116.58 211.094 116.492 210.71 116.492C210.292 116.492 209.927 116.595 209.616 116.8C209.308 117.003 209.069 117.268 208.9 117.596C208.734 117.921 208.651 118.274 208.651 118.655V119.525C208.651 120.035 208.741 120.469 208.92 120.827C209.102 121.185 209.356 121.459 209.681 121.648C210.005 121.833 210.385 121.926 210.819 121.926C211.101 121.926 211.358 121.886 211.59 121.807C211.822 121.724 212.022 121.601 212.191 121.439C212.36 121.277 212.49 121.076 212.579 120.837L213.986 121.091C213.873 121.505 213.671 121.868 213.379 122.18C213.091 122.488 212.728 122.728 212.291 122.901C211.856 123.07 211.361 123.154 210.804 123.154ZM219.052 114.141V112.818H226.932V114.141H223.755V123H222.224V114.141H219.052ZM228.554 123V115.364H230.04V123H228.554ZM229.305 114.185C229.046 114.185 228.824 114.099 228.638 113.927C228.456 113.751 228.365 113.542 228.365 113.3C228.365 113.055 228.456 112.846 228.638 112.674C228.824 112.498 229.046 112.411 229.305 112.411C229.563 112.411 229.784 112.498 229.966 112.674C230.152 112.846 230.244 113.055 230.244 113.3C230.244 113.542 230.152 113.751 229.966 113.927C229.784 114.099 229.563 114.185 229.305 114.185ZM232.04 123V115.364H233.467V116.607H233.562C233.721 116.186 233.981 115.857 234.342 115.622C234.703 115.384 235.136 115.264 235.64 115.264C236.15 115.264 236.578 115.384 236.922 115.622C237.27 115.861 237.527 116.189 237.693 116.607H237.773C237.955 116.199 238.245 115.874 238.643 115.632C239.04 115.387 239.514 115.264 240.064 115.264C240.757 115.264 241.322 115.481 241.76 115.915C242.201 116.35 242.421 117.004 242.421 117.879V123H240.934V118.018C240.934 117.501 240.794 117.127 240.512 116.895C240.23 116.663 239.894 116.547 239.503 116.547C239.019 116.547 238.643 116.696 238.374 116.994C238.106 117.289 237.971 117.669 237.971 118.133V123H236.49V117.924C236.49 117.51 236.361 117.177 236.102 116.925C235.844 116.673 235.507 116.547 235.093 116.547C234.811 116.547 234.551 116.621 234.312 116.771C234.077 116.916 233.886 117.12 233.741 117.382C233.598 117.644 233.527 117.947 233.527 118.292V123H232.04ZM247.705 123.154C246.952 123.154 246.304 122.993 245.761 122.672C245.22 122.347 244.803 121.891 244.508 121.305C244.216 120.715 244.07 120.024 244.07 119.232C244.07 118.449 244.216 117.76 244.508 117.163C244.803 116.567 245.214 116.101 245.741 115.766C246.271 115.432 246.891 115.264 247.6 115.264C248.031 115.264 248.449 115.335 248.853 115.478C249.257 115.621 249.62 115.844 249.942 116.149C250.263 116.454 250.517 116.85 250.702 117.337C250.888 117.821 250.981 118.41 250.981 119.102V119.629H244.911V118.516H249.524C249.524 118.125 249.445 117.778 249.286 117.477C249.126 117.172 248.903 116.931 248.614 116.756C248.329 116.58 247.995 116.492 247.61 116.492C247.192 116.492 246.828 116.595 246.516 116.8C246.208 117.003 245.969 117.268 245.8 117.596C245.635 117.921 245.552 118.274 245.552 118.655V119.525C245.552 120.035 245.641 120.469 245.82 120.827C246.003 121.185 246.256 121.459 246.581 121.648C246.906 121.833 247.285 121.926 247.719 121.926C248.001 121.926 248.258 121.886 248.49 121.807C248.722 121.724 248.923 121.601 249.092 121.439C249.261 121.277 249.39 121.076 249.479 120.837L250.886 121.091C250.774 121.505 250.571 121.868 250.28 122.18C249.991 122.488 249.629 122.728 249.191 122.901C248.757 123.07 248.261 123.154 247.705 123.154ZM258.352 117.228L257.005 117.467C256.949 117.294 256.859 117.13 256.737 116.974C256.617 116.819 256.455 116.691 256.249 116.592C256.044 116.492 255.787 116.442 255.479 116.442C255.058 116.442 254.707 116.537 254.425 116.726C254.143 116.911 254.002 117.152 254.002 117.447C254.002 117.702 254.097 117.907 254.286 118.063C254.475 118.219 254.78 118.347 255.2 118.446L256.414 118.724C257.116 118.887 257.64 119.137 257.985 119.475C258.329 119.813 258.502 120.252 258.502 120.793C258.502 121.25 258.369 121.658 258.104 122.016C257.842 122.37 257.476 122.649 257.005 122.851C256.538 123.053 255.996 123.154 255.379 123.154C254.524 123.154 253.827 122.972 253.286 122.607C252.746 122.239 252.415 121.717 252.292 121.041L253.729 120.822C253.818 121.197 254.002 121.48 254.281 121.673C254.559 121.862 254.922 121.956 255.369 121.956C255.857 121.956 256.246 121.855 256.538 121.653C256.829 121.447 256.975 121.197 256.975 120.902C256.975 120.663 256.886 120.463 256.707 120.3C256.531 120.138 256.261 120.015 255.896 119.933L254.604 119.649C253.891 119.487 253.364 119.228 253.023 118.874C252.685 118.519 252.516 118.07 252.516 117.526C252.516 117.076 252.642 116.681 252.894 116.343C253.146 116.005 253.494 115.741 253.938 115.553C254.382 115.36 254.891 115.264 255.464 115.264C256.289 115.264 256.939 115.443 257.413 115.801C257.887 116.156 258.2 116.631 258.352 117.228ZM261.623 118.466V123H260.136V112.818H261.603V116.607H261.697C261.876 116.196 262.15 115.869 262.517 115.627C262.885 115.385 263.366 115.264 263.959 115.264C264.483 115.264 264.94 115.372 265.331 115.587C265.726 115.803 266.031 116.124 266.246 116.552C266.465 116.976 266.574 117.506 266.574 118.143V123H265.088V118.322C265.088 117.762 264.944 117.327 264.655 117.019C264.367 116.708 263.966 116.552 263.452 116.552C263.101 116.552 262.786 116.626 262.507 116.776C262.232 116.925 262.015 117.143 261.856 117.432C261.7 117.717 261.623 118.062 261.623 118.466ZM271.849 123.154C271.097 123.154 270.449 122.993 269.905 122.672C269.365 122.347 268.947 121.891 268.652 121.305C268.361 120.715 268.215 120.024 268.215 119.232C268.215 118.449 268.361 117.76 268.652 117.163C268.947 116.567 269.358 116.101 269.885 115.766C270.416 115.432 271.035 115.264 271.745 115.264C272.176 115.264 272.593 115.335 272.998 115.478C273.402 115.621 273.765 115.844 274.086 116.149C274.408 116.454 274.661 116.85 274.847 117.337C275.033 117.821 275.125 118.41 275.125 119.102V119.629H269.055V118.516H273.669C273.669 118.125 273.589 117.778 273.43 117.477C273.271 117.172 273.047 116.931 272.759 116.756C272.474 116.58 272.139 116.492 271.755 116.492C271.337 116.492 270.972 116.595 270.661 116.8C270.353 117.003 270.114 117.268 269.945 117.596C269.779 117.921 269.696 118.274 269.696 118.655V119.525C269.696 120.035 269.786 120.469 269.965 120.827C270.147 121.185 270.401 121.459 270.725 121.648C271.05 121.833 271.43 121.926 271.864 121.926C272.146 121.926 272.403 121.886 272.635 121.807C272.867 121.724 273.067 121.601 273.236 121.439C273.405 121.277 273.534 121.076 273.624 120.837L275.031 121.091C274.918 121.505 274.716 121.868 274.424 122.18C274.136 122.488 273.773 122.728 273.336 122.901C272.901 123.07 272.406 123.154 271.849 123.154ZM280.066 123.154C279.314 123.154 278.666 122.993 278.122 122.672C277.582 122.347 277.164 121.891 276.869 121.305C276.577 120.715 276.432 120.024 276.432 119.232C276.432 118.449 276.577 117.76 276.869 117.163C277.164 116.567 277.575 116.101 278.102 115.766C278.632 115.432 279.252 115.264 279.961 115.264C280.392 115.264 280.81 115.335 281.214 115.478C281.619 115.621 281.982 115.844 282.303 116.149C282.625 116.454 282.878 116.85 283.064 117.337C283.249 117.821 283.342 118.41 283.342 119.102V119.629H277.272V118.516H281.885C281.885 118.125 281.806 117.778 281.647 117.477C281.488 117.172 281.264 116.931 280.976 116.756C280.691 116.58 280.356 116.492 279.971 116.492C279.554 116.492 279.189 116.595 278.878 116.8C278.569 117.003 278.331 117.268 278.162 117.596C277.996 117.921 277.913 118.274 277.913 118.655V119.525C277.913 120.035 278.003 120.469 278.182 120.827C278.364 121.185 278.617 121.459 278.942 121.648C279.267 121.833 279.647 121.926 280.081 121.926C280.363 121.926 280.619 121.886 280.851 121.807C281.083 121.724 281.284 121.601 281.453 121.439C281.622 121.277 281.751 121.076 281.841 120.837L283.248 121.091C283.135 121.505 282.933 121.868 282.641 122.18C282.353 122.488 281.99 122.728 281.552 122.901C281.118 123.07 280.623 123.154 280.066 123.154ZM288.556 115.364V116.557H284.385V115.364H288.556ZM285.504 113.534H286.99V120.758C286.99 121.046 287.033 121.263 287.119 121.409C287.205 121.552 287.317 121.649 287.452 121.702C287.592 121.752 287.742 121.777 287.905 121.777C288.024 121.777 288.129 121.769 288.218 121.752C288.308 121.736 288.377 121.722 288.427 121.712L288.695 122.94C288.609 122.973 288.487 123.007 288.327 123.04C288.168 123.076 287.969 123.096 287.731 123.099C287.34 123.106 286.975 123.036 286.637 122.891C286.299 122.745 286.026 122.519 285.817 122.214C285.608 121.91 285.504 121.527 285.504 121.066V113.534ZM295.8 117.228L294.452 117.467C294.396 117.294 294.307 117.13 294.184 116.974C294.065 116.819 293.902 116.691 293.697 116.592C293.491 116.492 293.234 116.442 292.926 116.442C292.505 116.442 292.154 116.537 291.872 116.726C291.59 116.911 291.45 117.152 291.45 117.447C291.45 117.702 291.544 117.907 291.733 118.063C291.922 118.219 292.227 118.347 292.648 118.446L293.861 118.724C294.563 118.887 295.087 119.137 295.432 119.475C295.777 119.813 295.949 120.252 295.949 120.793C295.949 121.25 295.816 121.658 295.551 122.016C295.289 122.37 294.923 122.649 294.452 122.851C293.985 123.053 293.443 123.154 292.827 123.154C291.972 123.154 291.274 122.972 290.734 122.607C290.193 122.239 289.862 121.717 289.739 121.041L291.176 120.822C291.266 121.197 291.45 121.48 291.728 121.673C292.006 121.862 292.369 121.956 292.817 121.956C293.304 121.956 293.693 121.855 293.985 121.653C294.277 121.447 294.423 121.197 294.423 120.902C294.423 120.663 294.333 120.463 294.154 120.3C293.978 120.138 293.708 120.015 293.344 119.933L292.051 119.649C291.339 119.487 290.812 119.228 290.47 118.874C290.132 118.519 289.963 118.07 289.963 117.526C289.963 117.076 290.089 116.681 290.341 116.343C290.593 116.005 290.941 115.741 291.385 115.553C291.829 115.36 292.338 115.264 292.911 115.264C293.737 115.264 294.386 115.443 294.86 115.801C295.334 116.156 295.647 116.631 295.8 117.228Z" fill="white"/>
<path d="M161 125.784H296.58V126.739H161V125.784Z" fill="white"/>
<path fill-rule="evenodd" clip-rule="evenodd" d="M315.53 112.22C315.238 111.927 314.763 111.927 314.47 112.22C314.177 112.513 314.177 112.987 314.47 113.28L318.439 117.25H309.75C309.336 117.25 309 117.586 309 118C309 118.414 309.336 118.75 309.75 118.75H318.439L314.47 122.72C314.177 123.013 314.177 123.487 314.47 123.78C314.763 124.073 315.238 124.073 315.53 123.78L320.78 118.53C321.073 118.237 321.073 117.763 320.78 117.47L315.53 112.22Z" fill="white"/>
</svg>
