<svg width="373" height="150" viewBox="0 0 373 150" fill="none" xmlns="http://www.w3.org/2000/svg">
<rect x="0.5" y="0.5" width="372" height="149" rx="8.5" fill="#473198" stroke="#EAECEF"/>
<g opacity="0.5">
<mask id="mask0_243_321" style="mask-type:alpha" maskUnits="userSpaceOnUse" x="0" y="0" width="141" height="150">
<path d="M140.5 1V0.5H140H9C4.30558 0.5 0.5 4.30558 0.5 9V141C0.5 145.694 4.30558 149.5 9 149.5H140H140.5V149V1Z" fill="white" stroke="#F5F9FF"/>
</mask>
<g mask="url(#mask0_243_321)">
<path d="M96.1818 150.454V137.182C96.1818 130.141 93.385 123.389 88.4068 118.411C83.4286 113.433 76.6766 110.636 69.6363 110.636H16.5454C9.50516 110.636 2.75322 113.433 -2.22502 118.411C-7.20326 123.389 -10 130.141 -10 137.182L-10 150.454" stroke="#F5F9FF" stroke-width="8" stroke-linecap="round" stroke-linejoin="round"/>
<path d="M43.0913 84.0909C57.752 84.0909 69.6368 72.2061 69.6368 57.5454C69.6368 42.8848 57.752 31 43.0913 31C28.4307 31 16.5459 42.8848 16.5459 57.5454C16.5459 72.2061 28.4307 84.0909 43.0913 84.0909Z" stroke="#F5F9FF" stroke-width="8" stroke-linecap="round" stroke-linejoin="round"/>
<path d="M136 150.455V137.182C135.996 131.3 134.038 125.587 130.435 120.938C126.831 116.29 121.786 112.97 116.091 111.499M89.5459 31.8628C95.2559 33.3248 100.317 36.6456 103.931 41.3018C107.545 45.9579 109.507 51.6845 109.507 57.5787C109.507 63.4729 107.545 69.1995 103.931 73.8556C100.317 78.5118 95.2559 81.8326 89.5459 83.2946" stroke="#F5F9FF" stroke-width="8" stroke-linecap="round" stroke-linejoin="round"/>
</g>
</g>
<path d="M161.875 29.4297V27H174.641V29.4297H169.695V43H166.82V29.4297H161.875ZM178.797 43.2422C178.036 43.2422 177.352 43.1068 176.742 42.8359C176.138 42.5599 175.659 42.1536 175.305 41.6172C174.956 41.0807 174.781 40.4193 174.781 39.6328C174.781 38.9557 174.906 38.3958 175.156 37.9531C175.406 37.5104 175.747 37.1562 176.18 36.8906C176.612 36.625 177.099 36.4245 177.641 36.2891C178.188 36.1484 178.753 36.0469 179.336 35.9844C180.039 35.9115 180.609 35.8464 181.047 35.7891C181.484 35.7266 181.802 35.6328 182 35.5078C182.203 35.3776 182.305 35.1771 182.305 34.9062V34.8594C182.305 34.2708 182.13 33.8151 181.781 33.4922C181.432 33.1693 180.93 33.0078 180.273 33.0078C179.581 33.0078 179.031 33.1589 178.625 33.4609C178.224 33.763 177.953 34.1198 177.813 34.5312L175.172 34.1562C175.38 33.4271 175.724 32.8177 176.203 32.3281C176.682 31.8333 177.268 31.4635 177.961 31.2187C178.654 30.9688 179.419 30.8438 180.258 30.8438C180.836 30.8438 181.411 30.9115 181.984 31.0469C182.557 31.1823 183.081 31.4062 183.555 31.7187C184.029 32.026 184.409 32.4453 184.695 32.9766C184.987 33.5078 185.133 34.1719 185.133 34.9687V43H182.414V41.3516H182.32C182.148 41.6849 181.906 41.9974 181.594 42.2891C181.286 42.5755 180.898 42.8073 180.43 42.9844C179.966 43.1563 179.422 43.2422 178.797 43.2422ZM179.531 41.1641C180.099 41.1641 180.591 41.0521 181.008 40.8281C181.424 40.599 181.745 40.2969 181.969 39.9219C182.198 39.5469 182.312 39.138 182.312 38.6953V37.2812C182.224 37.3542 182.073 37.4219 181.859 37.4844C181.651 37.5469 181.417 37.6016 181.156 37.6484C180.896 37.6953 180.638 37.737 180.383 37.7734C180.128 37.8099 179.906 37.8411 179.719 37.8672C179.297 37.9245 178.919 38.0182 178.586 38.1484C178.253 38.2786 177.99 38.4609 177.797 38.6953C177.604 38.9245 177.508 39.2214 177.508 39.5859C177.508 40.1068 177.698 40.5 178.078 40.7656C178.458 41.0312 178.943 41.1641 179.531 41.1641ZM190.805 27V43H187.977V27H190.805ZM199.025 43.2344C197.822 43.2344 196.783 42.9844 195.908 42.4844C195.038 41.9792 194.369 41.2656 193.9 40.3437C193.432 39.4167 193.197 38.3255 193.197 37.0703C193.197 35.8359 193.432 34.7526 193.9 33.8203C194.374 32.8828 195.036 32.1536 195.885 31.6328C196.734 31.1068 197.731 30.8438 198.877 30.8438C199.617 30.8438 200.314 30.9635 200.971 31.2031C201.632 31.4375 202.215 31.8021 202.721 32.2969C203.231 32.7917 203.632 33.4219 203.924 34.1875C204.215 34.9479 204.361 35.8542 204.361 36.9062V37.7734H194.525V35.8672H201.65C201.645 35.3255 201.528 34.8437 201.299 34.4219C201.07 33.9948 200.749 33.6589 200.338 33.4141C199.932 33.1693 199.458 33.0469 198.916 33.0469C198.338 33.0469 197.83 33.1875 197.393 33.4687C196.955 33.7448 196.614 34.1094 196.369 34.5625C196.13 35.0104 196.007 35.5026 196.002 36.0391V37.7031C196.002 38.401 196.13 39 196.385 39.5C196.64 39.9948 196.997 40.375 197.455 40.6406C197.913 40.901 198.45 41.0312 199.064 41.0312C199.476 41.0312 199.848 40.974 200.182 40.8594C200.515 40.7396 200.804 40.5651 201.049 40.3359C201.294 40.1068 201.479 39.8229 201.604 39.4844L204.244 39.7812C204.077 40.4792 203.76 41.0885 203.291 41.6094C202.827 42.125 202.234 42.526 201.51 42.8125C200.786 43.0937 199.958 43.2344 199.025 43.2344ZM209.582 35.9687V43H206.754V31H209.457V33.0391H209.598C209.874 32.3672 210.314 31.8333 210.918 31.4375C211.527 31.0417 212.28 30.8438 213.176 30.8438C214.004 30.8438 214.725 31.0208 215.34 31.375C215.96 31.7292 216.439 32.2422 216.777 32.9141C217.121 33.5859 217.29 34.401 217.285 35.3594V43H214.457V35.7969C214.457 34.9948 214.249 34.3672 213.832 33.9141C213.421 33.4609 212.85 33.2344 212.121 33.2344C211.626 33.2344 211.186 33.3437 210.801 33.5625C210.421 33.776 210.121 34.0859 209.902 34.4922C209.689 34.8984 209.582 35.3906 209.582 35.9687ZM226.152 31V33.1875H219.254V31H226.152ZM220.957 28.125H223.785V39.3906C223.785 39.7708 223.842 40.0625 223.957 40.2656C224.077 40.4635 224.233 40.599 224.426 40.6719C224.618 40.7448 224.832 40.7812 225.066 40.7812C225.243 40.7812 225.405 40.7682 225.551 40.7422C225.702 40.7161 225.816 40.6927 225.895 40.6719L226.371 42.8828C226.22 42.9349 226.004 42.9922 225.723 43.0547C225.447 43.1172 225.108 43.1536 224.707 43.1641C223.999 43.1849 223.361 43.0781 222.793 42.8437C222.225 42.6042 221.775 42.2344 221.441 41.7344C221.113 41.2344 220.952 40.6094 220.957 39.8594V28.125ZM237.83 34.1719L235.252 34.4531C235.179 34.1927 235.051 33.9479 234.869 33.7188C234.692 33.4896 234.452 33.3047 234.15 33.1641C233.848 33.0234 233.479 32.9531 233.041 32.9531C232.452 32.9531 231.958 33.0807 231.557 33.3359C231.161 33.5911 230.965 33.9219 230.971 34.3281C230.965 34.6771 231.093 34.9609 231.354 35.1797C231.619 35.3984 232.057 35.5781 232.666 35.7188L234.713 36.1562C235.848 36.401 236.692 36.7891 237.244 37.3203C237.801 37.8516 238.083 38.5469 238.088 39.4062C238.083 40.1615 237.861 40.8281 237.424 41.4062C236.992 41.9792 236.39 42.4271 235.619 42.75C234.848 43.0729 233.963 43.2344 232.963 43.2344C231.494 43.2344 230.312 42.9271 229.416 42.3125C228.52 41.6927 227.986 40.8307 227.814 39.7266L230.572 39.4609C230.697 40.0026 230.963 40.4115 231.369 40.6875C231.775 40.9635 232.304 41.1016 232.955 41.1016C233.627 41.1016 234.166 40.9635 234.572 40.6875C234.984 40.4115 235.189 40.0703 235.189 39.6641C235.189 39.3203 235.057 39.0365 234.791 38.8125C234.531 38.5885 234.124 38.4167 233.572 38.2969L231.525 37.8672C230.374 37.6276 229.523 37.224 228.971 36.6562C228.419 36.0833 228.145 35.3594 228.15 34.4844C228.145 33.7448 228.346 33.1042 228.752 32.5625C229.163 32.0156 229.734 31.5937 230.463 31.2969C231.197 30.9948 232.044 30.8438 233.002 30.8438C234.408 30.8438 235.515 31.1432 236.322 31.7422C237.135 32.3411 237.637 33.151 237.83 34.1719Z" fill="white"/>
<path d="M162.119 112.818H163.983L167.224 120.733H167.344L170.585 112.818H172.45V123H170.988V115.632H170.893L167.891 122.985H166.678L163.675 115.627H163.58V123H162.119V112.818ZM176.786 123.169C176.302 123.169 175.865 123.08 175.474 122.901C175.082 122.718 174.773 122.455 174.544 122.11C174.318 121.765 174.206 121.343 174.206 120.842C174.206 120.411 174.289 120.057 174.454 119.778C174.62 119.5 174.844 119.28 175.126 119.117C175.407 118.955 175.722 118.832 176.07 118.749C176.418 118.666 176.773 118.603 177.134 118.56C177.591 118.507 177.963 118.464 178.248 118.431C178.533 118.395 178.74 118.337 178.869 118.257C178.998 118.178 179.063 118.048 179.063 117.869V117.835C179.063 117.4 178.94 117.064 178.695 116.825C178.453 116.587 178.092 116.467 177.611 116.467C177.111 116.467 176.716 116.578 176.428 116.8C176.143 117.019 175.946 117.263 175.836 117.531L174.439 117.213C174.605 116.749 174.847 116.375 175.165 116.089C175.487 115.801 175.856 115.592 176.274 115.463C176.692 115.33 177.131 115.264 177.591 115.264C177.896 115.264 178.22 115.301 178.561 115.374C178.906 115.443 179.227 115.572 179.525 115.761C179.827 115.95 180.074 116.22 180.266 116.572C180.458 116.92 180.555 117.372 180.555 117.929V123H179.103V121.956H179.043C178.947 122.148 178.803 122.337 178.611 122.523C178.418 122.708 178.171 122.862 177.87 122.985C177.568 123.108 177.207 123.169 176.786 123.169ZM177.109 121.976C177.52 121.976 177.872 121.895 178.163 121.732C178.458 121.57 178.682 121.358 178.834 121.096C178.99 120.831 179.068 120.547 179.068 120.246V119.261C179.015 119.314 178.912 119.364 178.76 119.411C178.611 119.454 178.44 119.492 178.248 119.525C178.055 119.555 177.868 119.583 177.686 119.609C177.504 119.633 177.351 119.652 177.229 119.669C176.94 119.705 176.677 119.767 176.438 119.853C176.203 119.939 176.014 120.063 175.871 120.226C175.732 120.385 175.662 120.597 175.662 120.862C175.662 121.23 175.798 121.509 176.07 121.697C176.342 121.883 176.688 121.976 177.109 121.976ZM184.021 118.466V123H182.534V115.364H183.961V116.607H184.056C184.231 116.202 184.507 115.877 184.881 115.632C185.259 115.387 185.734 115.264 186.308 115.264C186.828 115.264 187.284 115.374 187.675 115.592C188.066 115.808 188.369 116.129 188.585 116.557C188.8 116.984 188.908 117.513 188.908 118.143V123H187.422V118.322C187.422 117.768 187.277 117.336 186.989 117.024C186.701 116.709 186.305 116.552 185.801 116.552C185.456 116.552 185.15 116.626 184.881 116.776C184.616 116.925 184.405 117.143 184.25 117.432C184.097 117.717 184.021 118.062 184.021 118.466ZM193.124 123.169C192.64 123.169 192.203 123.08 191.811 122.901C191.42 122.718 191.11 122.455 190.882 122.11C190.656 121.765 190.544 121.343 190.544 120.842C190.544 120.411 190.627 120.057 190.792 119.778C190.958 119.5 191.182 119.28 191.463 119.117C191.745 118.955 192.06 118.832 192.408 118.749C192.756 118.666 193.111 118.603 193.472 118.56C193.929 118.507 194.301 118.464 194.586 118.431C194.871 118.395 195.078 118.337 195.207 118.257C195.336 118.178 195.401 118.048 195.401 117.869V117.835C195.401 117.4 195.278 117.064 195.033 116.825C194.791 116.587 194.43 116.467 193.949 116.467C193.449 116.467 193.054 116.578 192.766 116.8C192.481 117.019 192.284 117.263 192.174 117.531L190.777 117.213C190.943 116.749 191.185 116.375 191.503 116.089C191.825 115.801 192.194 115.592 192.612 115.463C193.029 115.33 193.469 115.264 193.929 115.264C194.234 115.264 194.557 115.301 194.899 115.374C195.243 115.443 195.565 115.572 195.863 115.761C196.165 115.95 196.412 116.22 196.604 116.572C196.796 116.92 196.892 117.372 196.892 117.929V123H195.441V121.956H195.381C195.285 122.148 195.141 122.337 194.949 122.523C194.756 122.708 194.509 122.862 194.208 122.985C193.906 123.108 193.545 123.169 193.124 123.169ZM193.447 121.976C193.858 121.976 194.209 121.895 194.501 121.732C194.796 121.57 195.02 121.358 195.172 121.096C195.328 120.831 195.406 120.547 195.406 120.246V119.261C195.353 119.314 195.25 119.364 195.098 119.411C194.949 119.454 194.778 119.492 194.586 119.525C194.393 119.555 194.206 119.583 194.024 119.609C193.842 119.633 193.689 119.652 193.566 119.669C193.278 119.705 193.015 119.767 192.776 119.853C192.541 119.939 192.352 120.063 192.209 120.226C192.07 120.385 192 120.597 192 120.862C192 121.23 192.136 121.509 192.408 121.697C192.68 121.883 193.026 121.976 193.447 121.976ZM202.074 126.023C201.468 126.023 200.945 125.943 200.508 125.784C200.074 125.625 199.719 125.415 199.444 125.153C199.169 124.891 198.963 124.604 198.828 124.293L200.105 123.766C200.195 123.911 200.314 124.066 200.463 124.228C200.616 124.394 200.821 124.535 201.08 124.651C201.342 124.767 201.678 124.825 202.089 124.825C202.652 124.825 203.118 124.687 203.486 124.412C203.854 124.14 204.038 123.706 204.038 123.109V121.608H203.943C203.854 121.77 203.725 121.951 203.556 122.15C203.39 122.349 203.161 122.521 202.869 122.667C202.578 122.813 202.198 122.886 201.731 122.886C201.128 122.886 200.584 122.745 200.1 122.463C199.62 122.178 199.239 121.759 198.957 121.205C198.678 120.648 198.539 119.964 198.539 119.152C198.539 118.34 198.677 117.644 198.952 117.064C199.23 116.484 199.611 116.04 200.095 115.732C200.579 115.42 201.128 115.264 201.741 115.264C202.215 115.264 202.598 115.344 202.889 115.503C203.181 115.659 203.408 115.841 203.57 116.05C203.736 116.259 203.864 116.442 203.953 116.602H204.063V115.364H205.519V123.169C205.519 123.825 205.367 124.364 205.062 124.785C204.757 125.206 204.344 125.517 203.824 125.719C203.307 125.922 202.724 126.023 202.074 126.023ZM202.059 121.653C202.487 121.653 202.848 121.553 203.143 121.354C203.441 121.152 203.667 120.864 203.819 120.489C203.975 120.112 204.053 119.659 204.053 119.132C204.053 118.618 203.977 118.166 203.824 117.775C203.672 117.384 203.448 117.079 203.153 116.86C202.858 116.638 202.493 116.527 202.059 116.527C201.612 116.527 201.239 116.643 200.941 116.875C200.642 117.104 200.417 117.415 200.264 117.81C200.115 118.204 200.041 118.645 200.041 119.132C200.041 119.633 200.117 120.072 200.269 120.45C200.422 120.827 200.647 121.122 200.945 121.335C201.247 121.547 201.618 121.653 202.059 121.653ZM210.804 123.154C210.052 123.154 209.404 122.993 208.86 122.672C208.32 122.347 207.902 121.891 207.607 121.305C207.316 120.715 207.17 120.024 207.17 119.232C207.17 118.449 207.316 117.76 207.607 117.163C207.902 116.567 208.313 116.101 208.84 115.766C209.371 115.432 209.99 115.264 210.7 115.264C211.131 115.264 211.548 115.335 211.953 115.478C212.357 115.621 212.72 115.844 213.041 116.149C213.363 116.454 213.616 116.85 213.802 117.337C213.988 117.821 214.08 118.41 214.08 119.102V119.629H208.01V118.516H212.624C212.624 118.125 212.544 117.778 212.385 117.477C212.226 117.172 212.002 116.931 211.714 116.756C211.429 116.58 211.094 116.492 210.71 116.492C210.292 116.492 209.927 116.595 209.616 116.8C209.308 117.003 209.069 117.268 208.9 117.596C208.734 117.921 208.651 118.274 208.651 118.655V119.525C208.651 120.035 208.741 120.469 208.92 120.827C209.102 121.185 209.356 121.459 209.681 121.648C210.005 121.833 210.385 121.926 210.819 121.926C211.101 121.926 211.358 121.886 211.59 121.807C211.822 121.724 212.022 121.601 212.191 121.439C212.36 121.277 212.49 121.076 212.579 120.837L213.986 121.091C213.873 121.505 213.671 121.868 213.379 122.18C213.091 122.488 212.728 122.728 212.291 122.901C211.856 123.07 211.361 123.154 210.804 123.154ZM219.052 114.141V112.818H226.932V114.141H223.755V123H222.224V114.141H219.052ZM229.737 123.169C229.253 123.169 228.816 123.08 228.425 122.901C228.034 122.718 227.724 122.455 227.495 122.11C227.27 121.765 227.157 121.343 227.157 120.842C227.157 120.411 227.24 120.057 227.406 119.778C227.571 119.5 227.795 119.28 228.077 119.117C228.358 118.955 228.673 118.832 229.021 118.749C229.369 118.666 229.724 118.603 230.085 118.56C230.543 118.507 230.914 118.464 231.199 118.431C231.484 118.395 231.691 118.337 231.82 118.257C231.95 118.178 232.014 118.048 232.014 117.869V117.835C232.014 117.4 231.892 117.064 231.646 116.825C231.404 116.587 231.043 116.467 230.562 116.467C230.062 116.467 229.668 116.578 229.379 116.8C229.094 117.019 228.897 117.263 228.788 117.531L227.391 117.213C227.556 116.749 227.798 116.375 228.116 116.089C228.438 115.801 228.808 115.592 229.225 115.463C229.643 115.33 230.082 115.264 230.543 115.264C230.848 115.264 231.171 115.301 231.512 115.374C231.857 115.443 232.178 115.572 232.477 115.761C232.778 115.95 233.025 116.22 233.217 116.572C233.41 116.92 233.506 117.372 233.506 117.929V123H232.054V121.956H231.994C231.898 122.148 231.754 122.337 231.562 122.523C231.37 122.708 231.123 122.862 230.821 122.985C230.519 123.108 230.158 123.169 229.737 123.169ZM230.06 121.976C230.471 121.976 230.823 121.895 231.114 121.732C231.409 121.57 231.633 121.358 231.786 121.096C231.941 120.831 232.019 120.547 232.019 120.246V119.261C231.966 119.314 231.863 119.364 231.711 119.411C231.562 119.454 231.391 119.492 231.199 119.525C231.007 119.555 230.819 119.583 230.637 119.609C230.455 119.633 230.302 119.652 230.18 119.669C229.891 119.705 229.628 119.767 229.389 119.853C229.154 119.939 228.965 120.063 228.822 120.226C228.683 120.385 228.614 120.597 228.614 120.862C228.614 121.23 228.75 121.509 229.021 121.697C229.293 121.883 229.639 121.976 230.06 121.976ZM235.486 112.818H236.972V120.912C236.972 121.24 237.014 121.472 237.096 121.608C237.183 121.744 237.345 121.808 237.584 121.802C237.713 121.799 237.809 121.79 237.872 121.777C237.938 121.764 237.998 121.749 238.051 121.732L238.319 122.92C238.217 122.95 238.086 122.978 237.927 123.005C237.771 123.035 237.594 123.051 237.395 123.055C236.752 123.065 236.273 122.912 235.958 122.597C235.643 122.282 235.486 121.823 235.486 121.22V112.818ZM242.591 123.154C241.839 123.154 241.191 122.993 240.647 122.672C240.107 122.347 239.69 121.891 239.395 121.305C239.103 120.715 238.957 120.024 238.957 119.232C238.957 118.449 239.103 117.76 239.395 117.163C239.69 116.567 240.1 116.101 240.627 115.766C241.158 115.432 241.778 115.264 242.487 115.264C242.918 115.264 243.335 115.335 243.74 115.478C244.144 115.621 244.507 115.844 244.828 116.149C245.15 116.454 245.404 116.85 245.589 117.337C245.775 117.821 245.868 118.41 245.868 119.102V119.629H239.797V118.516H244.411C244.411 118.125 244.331 117.778 244.172 117.477C244.013 117.172 243.789 116.931 243.501 116.756C243.216 116.58 242.881 116.492 242.497 116.492C242.079 116.492 241.715 116.595 241.403 116.8C241.095 117.003 240.856 117.268 240.687 117.596C240.521 117.921 240.439 118.274 240.439 118.655V119.525C240.439 120.035 240.528 120.469 240.707 120.827C240.889 121.185 241.143 121.459 241.468 121.648C241.792 121.833 242.172 121.926 242.606 121.926C242.888 121.926 243.145 121.886 243.377 121.807C243.609 121.724 243.809 121.601 243.978 121.439C244.147 121.277 244.277 121.076 244.366 120.837L245.773 121.091C245.66 121.505 245.458 121.868 245.167 122.18C244.878 122.488 244.515 122.728 244.078 122.901C243.644 123.07 243.148 123.154 242.591 123.154ZM249.003 118.466V123H247.517V115.364H248.944V116.607H249.038C249.214 116.202 249.489 115.877 249.863 115.632C250.241 115.387 250.717 115.264 251.29 115.264C251.811 115.264 252.266 115.374 252.657 115.592C253.049 115.808 253.352 116.129 253.567 116.557C253.783 116.984 253.89 117.513 253.89 118.143V123H252.404V118.322C252.404 117.768 252.26 117.336 251.971 117.024C251.683 116.709 251.287 116.552 250.783 116.552C250.439 116.552 250.132 116.626 249.863 116.776C249.598 116.925 249.388 117.143 249.232 117.432C249.08 117.717 249.003 118.062 249.003 118.466ZM259.449 115.364V116.557H255.278V115.364H259.449ZM256.396 113.534H257.883V120.758C257.883 121.046 257.926 121.263 258.012 121.409C258.098 121.552 258.209 121.649 258.345 121.702C258.484 121.752 258.635 121.777 258.797 121.777C258.917 121.777 259.021 121.769 259.111 121.752C259.2 121.736 259.27 121.722 259.319 121.712L259.588 122.94C259.502 122.973 259.379 123.007 259.22 123.04C259.061 123.076 258.862 123.096 258.623 123.099C258.232 123.106 257.868 123.036 257.53 122.891C257.192 122.745 256.918 122.519 256.709 122.214C256.501 121.91 256.396 121.527 256.396 121.066V113.534ZM266.692 117.228L265.345 117.467C265.289 117.294 265.199 117.13 265.077 116.974C264.957 116.819 264.795 116.691 264.589 116.592C264.384 116.492 264.127 116.442 263.819 116.442C263.398 116.442 263.046 116.537 262.765 116.726C262.483 116.911 262.342 117.152 262.342 117.447C262.342 117.702 262.437 117.907 262.626 118.063C262.814 118.219 263.119 118.347 263.54 118.446L264.753 118.724C265.456 118.887 265.98 119.137 266.324 119.475C266.669 119.813 266.841 120.252 266.841 120.793C266.841 121.25 266.709 121.658 266.444 122.016C266.182 122.37 265.816 122.649 265.345 122.851C264.878 123.053 264.336 123.154 263.719 123.154C262.864 123.154 262.166 122.972 261.626 122.607C261.086 122.239 260.755 121.717 260.632 121.041L262.069 120.822C262.158 121.197 262.342 121.48 262.621 121.673C262.899 121.862 263.262 121.956 263.709 121.956C264.197 121.956 264.586 121.855 264.878 121.653C265.169 121.447 265.315 121.197 265.315 120.902C265.315 120.663 265.226 120.463 265.047 120.3C264.871 120.138 264.601 120.015 264.236 119.933L262.944 119.649C262.231 119.487 261.704 119.228 261.363 118.874C261.025 118.519 260.856 118.07 260.856 117.526C260.856 117.076 260.982 116.681 261.233 116.343C261.485 116.005 261.833 115.741 262.278 115.553C262.722 115.36 263.23 115.264 263.804 115.264C264.629 115.264 265.279 115.443 265.753 115.801C266.227 116.156 266.54 116.631 266.692 117.228Z" fill="white"/>
<path d="M161 125.784H267.473V126.739H161V125.784Z" fill="white"/>
<path fill-rule="evenodd" clip-rule="evenodd" d="M284.53 112.22C284.238 111.927 283.763 111.927 283.47 112.22C283.177 112.513 283.177 112.987 283.47 113.28L287.439 117.25H278.75C278.336 117.25 278 117.586 278 118C278 118.414 278.336 118.75 278.75 118.75H287.439L283.47 122.72C283.177 123.013 283.177 123.487 283.47 123.78C283.763 124.073 284.238 124.073 284.53 123.78L289.78 118.53C290.073 118.237 290.073 117.763 289.78 117.47L284.53 112.22Z" fill="white"/>
</svg>
