<svg width="373" height="150" viewBox="0 0 373 150" fill="none" xmlns="http://www.w3.org/2000/svg">
<rect x="0.5" y="0.5" width="372" height="149" rx="8.5" fill="#C56004" stroke="#EAECEF"/>
<g opacity="0.5">
<mask id="mask0_173_275" style="mask-type:alpha" maskUnits="userSpaceOnUse" x="1" y="1" width="139" height="148">
<rect x="1" y="1" width="139" height="148" rx="8" fill="white"/>
</mask>
<g mask="url(#mask0_173_275)">
<path d="M72.0442 57.4708H7.15354C6.05257 57.4708 5.16016 58.3632 5.16016 59.4642C5.16016 60.5652 6.05257 61.4576 7.15354 61.4576H72.0445C73.1454 61.4576 74.0379 60.5652 74.0379 59.4642C74.0379 58.3632 73.1452 57.4708 72.0442 57.4708Z" fill="#F5F9FF"/>
<path d="M7.15354 47.6301H39.5987C40.6997 47.6301 41.5921 46.7377 41.5921 45.6367C41.5921 44.5357 40.6997 43.6433 39.5987 43.6433H7.15354C6.05257 43.6433 5.16016 44.5357 5.16016 45.6367C5.16016 46.7379 6.05257 47.6301 7.15354 47.6301Z" fill="#F5F9FF"/>
<path d="M72.0442 69.7223H7.15354C6.05257 69.7223 5.16016 70.6147 5.16016 71.7157C5.16016 72.8166 6.05257 73.7091 7.15354 73.7091H72.0445C73.1454 73.7091 74.0379 72.8166 74.0379 71.7157C74.0376 70.6147 73.1452 69.7223 72.0442 69.7223Z" fill="#F5F9FF"/>
<path d="M21.9351 142.654H1.16834C-2.24016 142.654 -5.01349 139.881 -5.01349 136.472V31.1683C-5.01349 27.7598 -2.24016 24.9865 1.16834 24.9865H60.9953C61.1885 24.9865 61.3788 25.0042 61.567 25.0296V37.4616C61.567 43.0686 66.1286 47.6299 71.7353 47.6299H84.167C84.1927 47.8184 84.2102 48.0086 84.2102 48.2018V82.1468C84.2102 83.2478 85.1026 84.1402 86.2035 84.1402C87.3045 84.1402 88.1969 83.2478 88.1969 82.1468V48.2021C88.1969 46.0155 87.3453 43.9597 85.7991 42.4133L66.7836 23.3978C65.2375 21.8517 63.1819 21 60.9953 21H1.16834C-4.43866 21 -9 25.5616 -9 31.1683V136.472C-9 142.079 -4.43839 146.64 1.16834 146.64H21.9351C23.036 146.64 23.9285 145.748 23.9285 144.647C23.9285 143.546 23.036 142.654 21.9351 142.654ZM81.3913 43.6434H71.7356C68.3271 43.6434 65.5538 40.8701 65.5538 37.4616V27.8059L81.3913 43.6434Z" fill="#F5F9FF"/>
<path d="M110.685 118.587L93.7952 90.0778C92.5642 87.9992 89.8854 87.3122 87.8057 88.5441L83.6975 90.9782C80.5086 92.8673 79.1608 96.6902 80.2556 100.078C78.8715 100.58 77.354 100.572 75.9566 100.032C72.7129 99.011 70.2469 96.9581 66.1741 97.9881C59.2586 99.7489 59.4688 99.6607 58.8431 99.8751C54.7939 97.5697 52.3599 96.8837 48.0613 98.5465L44.2296 100.028C42.4557 100.713 40.5009 100.551 38.8616 99.5795L37.816 98.9631C38.3262 95.9058 36.9704 92.6794 34.0994 90.9787C34.0994 90.9787 34.0994 90.9787 34.0991 90.9784L29.9912 88.5447C27.9173 87.3164 25.2305 88.004 24.002 90.0778L7.11168 118.587C5.88076 120.665 6.56569 123.345 8.64483 124.576L12.7528 127.01C13.9959 127.746 15.3621 128.096 16.7118 128.096C18.2169 128.096 19.7008 127.66 20.9696 126.839L21.8257 127.344L20.0181 129.862C17.8641 132.862 18.5485 137.035 21.5497 139.189C22.9376 140.185 24.6811 140.64 26.4842 140.357C26.7703 142.029 27.6865 143.595 29.1702 144.66C30.5636 145.661 32.2992 146.116 34.1055 145.832C34.3924 147.503 35.3081 149.066 36.791 150.131C38.7838 151.562 41.2615 151.727 43.3261 150.845C43.7779 152.019 44.5631 153.078 45.6585 153.865C48.5189 155.918 52.4591 155.382 54.6817 152.723L59.4852 155.568C62.6619 157.451 66.7606 156.405 68.6441 153.224C69.1258 152.411 69.4246 151.525 69.5339 150.614L69.5448 150.621C72.7167 152.5 76.8246 151.448 78.7037 148.277C79.2478 147.358 79.5461 146.362 79.6186 145.363C82.4144 146.066 85.4614 144.892 87.0044 142.288C87.5106 141.433 87.8041 140.51 87.9007 139.582C90.8972 140.758 94.3994 139.621 96.0916 136.765C97.0017 135.229 97.2592 133.43 96.8165 131.7C96.5632 130.71 96.0974 129.812 95.458 129.053L98.1056 127.506C100.345 128.425 102.901 128.278 105.044 127.009L109.151 124.576C111.23 123.345 111.917 120.666 110.685 118.587ZM14.7848 123.58L10.6769 121.146C10.4942 121.038 10.4336 120.801 10.5416 120.619L27.4319 92.109C27.5407 91.9256 27.7781 91.8661 27.9597 91.9741L32.0674 94.4076C33.8927 95.4892 34.4638 97.8304 33.402 99.6224L19.9996 122.245C18.9299 124.051 16.5908 124.65 14.7848 123.58ZM23.8744 135.951C22.6639 135.081 22.3871 133.398 23.2567 132.187L25.9136 128.486C26.76 127.307 28.4466 126.984 29.6775 127.868C30.8857 128.735 31.1628 130.423 30.2958 131.631L27.6386 135.332C26.7714 136.541 25.0821 136.817 23.8744 135.951ZM31.4952 141.422C30.287 140.554 30.01 138.866 30.8772 137.658L33.5341 133.957C33.5341 133.957 33.5341 133.957 33.5341 133.957C33.5341 133.957 33.5341 133.956 33.5344 133.956L36.4665 129.872C36.8868 129.287 37.5095 128.9 38.2204 128.784C38.368 128.759 38.516 128.747 38.6629 128.747C39.2224 128.747 39.7668 128.922 40.2304 129.254C40.8153 129.675 41.2022 130.297 41.3187 131.008C41.4354 131.719 41.2684 132.433 40.8481 133.018L35.2589 140.804C34.3903 142.014 32.7063 142.291 31.4952 141.422ZM39.116 146.893C37.9083 146.026 37.631 144.338 38.4967 143.13C38.4969 143.13 38.4975 143.129 38.4977 143.129L44.087 135.343C44.9537 134.135 46.6433 133.858 47.8509 134.725C49.0591 135.592 49.3362 137.281 48.4689 138.489L45.9856 141.948C45.9856 141.948 45.9856 141.948 45.9854 141.948L42.8796 146.275C42.0124 147.483 40.3244 147.76 39.116 146.893ZM47.9835 150.626C46.7762 149.759 46.4985 148.073 47.3637 146.864L49.224 144.273C50.091 143.065 51.7803 142.789 52.9879 143.656C54.1958 144.523 54.4731 146.211 53.6059 147.419L51.7472 150.008C50.8802 151.216 49.1911 151.494 47.9835 150.626ZM92.6624 134.733C91.9039 136.013 90.2461 136.438 88.9657 135.68C86.7977 134.395 72.8122 126.11 71.3211 125.226C70.3737 124.665 69.1512 124.978 68.5901 125.925C68.0291 126.872 68.3416 128.095 69.2888 128.656L82.6283 136.559L82.6285 136.559C83.9092 137.318 84.3364 138.97 83.575 140.256C82.8162 141.537 81.1576 141.96 79.8777 141.203C74.944 138.28 70.9379 135.906 66.5311 133.296C65.5834 132.735 64.3612 133.047 63.8001 133.994C63.2391 134.941 63.5516 136.164 64.4988 136.725L74.3276 142.548L74.3297 142.55C75.6112 143.31 76.0341 144.962 75.2743 146.245C74.5155 147.526 72.8574 147.95 71.5768 147.192L66.3019 144.067C66.3014 144.067 66.3006 144.067 66.3001 144.066C66.2995 144.066 66.299 144.065 66.2985 144.065L62.4491 141.784C61.5016 141.223 60.2792 141.536 59.7181 142.483C59.157 143.43 59.4696 144.653 60.4168 145.214L64.267 147.495C64.2675 147.495 64.2681 147.496 64.2686 147.496C65.5492 148.255 65.9764 149.907 65.215 151.193C64.4562 152.474 62.7981 152.898 61.5175 152.139L57.026 149.479C58.9514 146.508 58.2191 142.504 55.3129 140.418C54.4594 139.806 53.509 139.424 52.5369 139.26C53.568 136.503 52.679 133.285 50.1757 131.488C48.6936 130.423 46.9191 130.056 45.2443 130.318C44.9463 128.575 43.9933 127.049 42.5554 126.017C39.8512 124.076 36.1762 124.449 33.9062 126.746C33.4449 125.935 32.8082 125.209 32.0025 124.63C29.7554 123.018 26.8378 123.003 24.6131 124.361L23.6998 123.822L36.2365 102.66L36.8333 103.012C39.4693 104.574 42.6859 104.899 45.667 103.746L49.4987 102.265C51.6913 101.418 52.9006 101.362 55.0694 102.386C53.6503 103.98 52.8079 106.073 52.8079 108.329V117.167C52.8079 119.515 54.7164 121.426 57.062 121.428H57.0678C59.4206 121.428 61.6331 120.512 63.2976 118.848C64.2678 117.879 64.9839 116.723 65.4132 115.461C67.987 116.985 89.2513 129.577 91.7166 131.038C92.3366 131.405 92.7765 131.992 92.9551 132.69C93.1338 133.387 93.0298 134.113 92.6624 134.733ZM107.12 121.146L103.012 123.58C101.206 124.649 98.8668 124.05 97.7975 122.245L91.5157 111.642C90.9543 110.695 89.7311 110.382 88.7847 110.943C87.8375 111.504 87.5247 112.727 88.0855 113.674L94.3673 124.277C94.4856 124.477 94.614 124.667 94.7469 124.852L93.0004 125.872C92.6473 126.081 92.3078 126.311 91.9831 126.561L64.9027 110.525C63.576 109.739 61.8938 110.697 61.8938 112.24C61.8729 112.359 62.0997 114.408 60.4792 116.028C59.5678 116.938 58.3562 117.44 57.0676 117.44C57.0665 117.44 57.0654 117.44 57.0644 117.44C56.9154 117.44 56.7942 117.317 56.7942 117.166V108.328C56.7942 106.019 58.3826 104.071 60.5308 103.528L67.1515 101.852C69.5538 101.245 70.9117 102.528 74.5086 103.745C77.0057 104.711 79.7208 104.652 82.1307 103.622L83.3338 105.653C83.8952 106.601 85.1179 106.913 86.0648 106.353C87.012 105.791 87.3249 104.569 86.764 103.622L84.3943 99.6218C83.3222 97.8121 83.9195 95.48 85.729 94.4073L89.837 91.9738C90.0164 91.8672 90.2538 91.9217 90.365 92.109L107.255 120.618C107.364 120.802 107.304 121.037 107.12 121.146Z" fill="#F5F9FF"/>
</g>
</g>
<path d="M176.273 32.3984H173.352C173.268 31.9193 173.115 31.4948 172.891 31.125C172.667 30.75 172.388 30.4323 172.055 30.1719C171.721 29.9115 171.341 29.7161 170.914 29.5859C170.492 29.4505 170.036 29.3828 169.547 29.3828C168.677 29.3828 167.906 29.6016 167.234 30.0391C166.563 30.4714 166.036 31.1068 165.656 31.9453C165.276 32.7786 165.086 33.7969 165.086 35C165.086 36.224 165.276 37.2552 165.656 38.0937C166.042 38.9271 166.568 39.5573 167.234 39.9844C167.906 40.4062 168.674 40.6172 169.539 40.6172C170.018 40.6172 170.466 40.5547 170.883 40.4297C171.305 40.2995 171.682 40.1094 172.016 39.8594C172.354 39.6094 172.638 39.3021 172.867 38.9375C173.102 38.5729 173.263 38.1562 173.352 37.6875L176.273 37.7031C176.164 38.4635 175.927 39.1771 175.562 39.8438C175.203 40.5104 174.732 41.099 174.148 41.6094C173.565 42.1146 172.883 42.5104 172.102 42.7969C171.32 43.0781 170.453 43.2187 169.5 43.2187C168.094 43.2187 166.839 42.8932 165.734 42.2422C164.63 41.5911 163.76 40.651 163.125 39.4219C162.49 38.1927 162.172 36.7187 162.172 35C162.172 33.276 162.492 31.8021 163.133 30.5781C163.773 29.349 164.646 28.4089 165.75 27.7578C166.854 27.1068 168.104 26.7812 169.5 26.7812C170.391 26.7812 171.219 26.9062 171.984 27.1562C172.75 27.4062 173.432 27.7734 174.031 28.2578C174.63 28.737 175.122 29.3255 175.508 30.0234C175.898 30.7161 176.154 31.5078 176.273 32.3984ZM184.037 43.2344C182.865 43.2344 181.85 42.9766 180.99 42.4609C180.131 41.9453 179.464 41.224 178.99 40.2969C178.521 39.3698 178.287 38.2865 178.287 37.0469C178.287 35.8073 178.521 34.7214 178.99 33.7891C179.464 32.8568 180.131 32.1328 180.99 31.6172C181.85 31.1016 182.865 30.8438 184.037 30.8438C185.209 30.8438 186.225 31.1016 187.084 31.6172C187.943 32.1328 188.607 32.8568 189.076 33.7891C189.55 34.7214 189.787 35.8073 189.787 37.0469C189.787 38.2865 189.55 39.3698 189.076 40.2969C188.607 41.224 187.943 41.9453 187.084 42.4609C186.225 42.9766 185.209 43.2344 184.037 43.2344ZM184.053 40.9687C184.688 40.9687 185.219 40.7943 185.646 40.4453C186.074 40.0911 186.391 39.6172 186.6 39.0234C186.813 38.4297 186.92 37.7682 186.92 37.0391C186.92 36.3047 186.813 35.6406 186.6 35.0469C186.391 34.4479 186.074 33.9714 185.646 33.6172C185.219 33.263 184.688 33.0859 184.053 33.0859C183.402 33.0859 182.86 33.263 182.428 33.6172C182.001 33.9714 181.68 34.4479 181.467 35.0469C181.258 35.6406 181.154 36.3047 181.154 37.0391C181.154 37.7682 181.258 38.4297 181.467 39.0234C181.68 39.6172 182.001 40.0911 182.428 40.4453C182.86 40.7943 183.402 40.9687 184.053 40.9687ZM195.016 35.9687V43H192.188V31H194.891V33.0391H195.031C195.307 32.3672 195.747 31.8333 196.352 31.4375C196.961 31.0417 197.714 30.8438 198.609 30.8438C199.438 30.8438 200.159 31.0208 200.773 31.375C201.393 31.7292 201.872 32.2422 202.211 32.9141C202.555 33.5859 202.724 34.401 202.719 35.3594V43H199.891V35.7969C199.891 34.9948 199.682 34.3672 199.266 33.9141C198.854 33.4609 198.284 33.2344 197.555 33.2344C197.06 33.2344 196.62 33.3437 196.234 33.5625C195.854 33.776 195.555 34.0859 195.336 34.4922C195.122 34.8984 195.016 35.3906 195.016 35.9687ZM211.586 31V33.1875H204.688V31H211.586ZM206.391 28.125H209.219V39.3906C209.219 39.7708 209.276 40.0625 209.391 40.2656C209.51 40.4635 209.667 40.599 209.859 40.6719C210.052 40.7448 210.266 40.7812 210.5 40.7812C210.677 40.7812 210.839 40.7682 210.984 40.7422C211.135 40.7161 211.25 40.6927 211.328 40.6719L211.805 42.8828C211.654 42.9349 211.438 42.9922 211.156 43.0547C210.88 43.1172 210.542 43.1536 210.141 43.1641C209.432 43.1849 208.794 43.0781 208.227 42.8437C207.659 42.6042 207.208 42.2344 206.875 41.7344C206.547 41.2344 206.385 40.6094 206.391 39.8594V28.125ZM213.951 43V31H216.693V33H216.818C217.037 32.3073 217.412 31.7734 217.943 31.3984C218.48 31.0182 219.092 30.8281 219.779 30.8281C219.936 30.8281 220.11 30.8359 220.303 30.8516C220.501 30.862 220.665 30.8802 220.795 30.9062V33.5078C220.675 33.4661 220.485 33.4297 220.225 33.3984C219.969 33.362 219.722 33.3437 219.482 33.3437C218.967 33.3437 218.503 33.4557 218.092 33.6797C217.686 33.8984 217.365 34.2031 217.131 34.5937C216.896 34.9844 216.779 35.4349 216.779 35.9453V43H213.951ZM225.912 43.2422C225.152 43.2422 224.467 43.1068 223.857 42.8359C223.253 42.5599 222.774 42.1536 222.42 41.6172C222.071 41.0807 221.896 40.4193 221.896 39.6328C221.896 38.9557 222.021 38.3958 222.271 37.9531C222.521 37.5104 222.863 37.1562 223.295 36.8906C223.727 36.625 224.214 36.4245 224.756 36.2891C225.303 36.1484 225.868 36.0469 226.451 35.9844C227.154 35.9115 227.725 35.8464 228.162 35.7891C228.6 35.7266 228.917 35.6328 229.115 35.5078C229.318 35.3776 229.42 35.1771 229.42 34.9062V34.8594C229.42 34.2708 229.245 33.8151 228.896 33.4922C228.548 33.1693 228.045 33.0078 227.389 33.0078C226.696 33.0078 226.146 33.1589 225.74 33.4609C225.339 33.763 225.068 34.1198 224.928 34.5312L222.287 34.1562C222.495 33.4271 222.839 32.8177 223.318 32.3281C223.798 31.8333 224.383 31.4635 225.076 31.2187C225.769 30.9688 226.535 30.8438 227.373 30.8438C227.951 30.8438 228.527 30.9115 229.1 31.0469C229.673 31.1823 230.196 31.4062 230.67 31.7187C231.144 32.026 231.524 32.4453 231.811 32.9766C232.102 33.5078 232.248 34.1719 232.248 34.9687V43H229.529V41.3516H229.436C229.264 41.6849 229.021 41.9974 228.709 42.2891C228.402 42.5755 228.014 42.8073 227.545 42.9844C227.081 43.1563 226.537 43.2422 225.912 43.2422ZM226.646 41.1641C227.214 41.1641 227.706 41.0521 228.123 40.8281C228.54 40.599 228.86 40.2969 229.084 39.9219C229.313 39.5469 229.428 39.138 229.428 38.6953V37.2812C229.339 37.3542 229.188 37.4219 228.975 37.4844C228.766 37.5469 228.532 37.6016 228.271 37.6484C228.011 37.6953 227.753 37.737 227.498 37.7734C227.243 37.8099 227.021 37.8411 226.834 37.8672C226.412 37.9245 226.035 38.0182 225.701 38.1484C225.368 38.2786 225.105 38.4609 224.912 38.6953C224.719 38.9245 224.623 39.2214 224.623 39.5859C224.623 40.1068 224.813 40.5 225.193 40.7656C225.574 41.0312 226.058 41.1641 226.646 41.1641ZM240.326 43.2344C239.128 43.2344 238.1 42.9714 237.24 42.4453C236.386 41.9193 235.727 41.1927 235.264 40.2656C234.805 39.3333 234.576 38.2604 234.576 37.0469C234.576 35.8281 234.811 34.7526 235.279 33.8203C235.748 32.8828 236.41 32.1536 237.264 31.6328C238.123 31.1068 239.139 30.8438 240.311 30.8438C241.285 30.8438 242.146 31.0234 242.896 31.3828C243.652 31.737 244.253 32.2396 244.701 32.8906C245.149 33.5365 245.404 34.2917 245.467 35.1562H242.764C242.654 34.5781 242.394 34.0964 241.982 33.7109C241.576 33.3203 241.032 33.125 240.35 33.125C239.771 33.125 239.264 33.2812 238.826 33.5937C238.389 33.901 238.048 34.3437 237.803 34.9219C237.563 35.5 237.443 36.1927 237.443 37C237.443 37.8177 237.563 38.5208 237.803 39.1094C238.042 39.6927 238.378 40.1432 238.811 40.4609C239.248 40.7734 239.761 40.9297 240.35 40.9297C240.766 40.9297 241.139 40.8516 241.467 40.6953C241.8 40.5339 242.079 40.3021 242.303 40C242.527 39.6979 242.68 39.3307 242.764 38.8984H245.467C245.399 39.7474 245.149 40.5 244.717 41.1562C244.285 41.8073 243.696 42.3177 242.951 42.6875C242.206 43.0521 241.331 43.2344 240.326 43.2344ZM253.781 31V33.1875H246.883V31H253.781ZM248.586 28.125H251.414V39.3906C251.414 39.7708 251.471 40.0625 251.586 40.2656C251.706 40.4635 251.862 40.599 252.055 40.6719C252.247 40.7448 252.461 40.7812 252.695 40.7812C252.872 40.7812 253.034 40.7682 253.18 40.7422C253.331 40.7161 253.445 40.6927 253.523 40.6719L254 42.8828C253.849 42.9349 253.633 42.9922 253.352 43.0547C253.076 43.1172 252.737 43.1536 252.336 43.1641C251.628 43.1849 250.99 43.0781 250.422 42.8437C249.854 42.6042 249.404 42.2344 249.07 41.7344C248.742 41.2344 248.581 40.6094 248.586 39.8594V28.125ZM265.459 34.1719L262.881 34.4531C262.808 34.1927 262.68 33.9479 262.498 33.7188C262.321 33.4896 262.081 33.3047 261.779 33.1641C261.477 33.0234 261.107 32.9531 260.67 32.9531C260.081 32.9531 259.587 33.0807 259.186 33.3359C258.79 33.5911 258.594 33.9219 258.6 34.3281C258.594 34.6771 258.722 34.9609 258.982 35.1797C259.248 35.3984 259.686 35.5781 260.295 35.7188L262.342 36.1562C263.477 36.401 264.321 36.7891 264.873 37.3203C265.43 37.8516 265.712 38.5469 265.717 39.4062C265.712 40.1615 265.49 40.8281 265.053 41.4062C264.62 41.9792 264.019 42.4271 263.248 42.75C262.477 43.0729 261.592 43.2344 260.592 43.2344C259.123 43.2344 257.941 42.9271 257.045 42.3125C256.149 41.6927 255.615 40.8307 255.443 39.7266L258.201 39.4609C258.326 40.0026 258.592 40.4115 258.998 40.6875C259.404 40.9635 259.933 41.1016 260.584 41.1016C261.256 41.1016 261.795 40.9635 262.201 40.6875C262.613 40.4115 262.818 40.0703 262.818 39.6641C262.818 39.3203 262.686 39.0365 262.42 38.8125C262.16 38.5885 261.753 38.4167 261.201 38.2969L259.154 37.8672C258.003 37.6276 257.152 37.224 256.6 36.6562C256.048 36.0833 255.774 35.3594 255.779 34.4844C255.774 33.7448 255.975 33.1042 256.381 32.5625C256.792 32.0156 257.363 31.5937 258.092 31.2969C258.826 30.9948 259.673 30.8438 260.631 30.8438C262.037 30.8438 263.144 31.1432 263.951 31.7422C264.764 32.3411 265.266 33.151 265.459 34.1719Z" fill="white"/>
<path d="M162.119 112.818H163.983L167.224 120.733H167.344L170.585 112.818H172.45V123H170.988V115.632H170.893L167.891 122.985H166.678L163.675 115.627H163.58V123H162.119V112.818ZM176.786 123.169C176.302 123.169 175.865 123.08 175.474 122.901C175.082 122.718 174.773 122.455 174.544 122.11C174.318 121.765 174.206 121.343 174.206 120.842C174.206 120.411 174.289 120.057 174.454 119.778C174.62 119.5 174.844 119.28 175.126 119.117C175.407 118.955 175.722 118.832 176.07 118.749C176.418 118.666 176.773 118.603 177.134 118.56C177.591 118.507 177.963 118.464 178.248 118.431C178.533 118.395 178.74 118.337 178.869 118.257C178.998 118.178 179.063 118.048 179.063 117.869V117.835C179.063 117.4 178.94 117.064 178.695 116.825C178.453 116.587 178.092 116.467 177.611 116.467C177.111 116.467 176.716 116.578 176.428 116.8C176.143 117.019 175.946 117.263 175.836 117.531L174.439 117.213C174.605 116.749 174.847 116.375 175.165 116.089C175.487 115.801 175.856 115.592 176.274 115.463C176.692 115.33 177.131 115.264 177.591 115.264C177.896 115.264 178.22 115.301 178.561 115.374C178.906 115.443 179.227 115.572 179.525 115.761C179.827 115.95 180.074 116.22 180.266 116.572C180.458 116.92 180.555 117.372 180.555 117.929V123H179.103V121.956H179.043C178.947 122.148 178.803 122.337 178.611 122.523C178.418 122.708 178.171 122.862 177.87 122.985C177.568 123.108 177.207 123.169 176.786 123.169ZM177.109 121.976C177.52 121.976 177.872 121.895 178.163 121.732C178.458 121.57 178.682 121.358 178.834 121.096C178.99 120.831 179.068 120.547 179.068 120.246V119.261C179.015 119.314 178.912 119.364 178.76 119.411C178.611 119.454 178.44 119.492 178.248 119.525C178.055 119.555 177.868 119.583 177.686 119.609C177.504 119.633 177.351 119.652 177.229 119.669C176.94 119.705 176.677 119.767 176.438 119.853C176.203 119.939 176.014 120.063 175.871 120.226C175.732 120.385 175.662 120.597 175.662 120.862C175.662 121.23 175.798 121.509 176.07 121.697C176.342 121.883 176.688 121.976 177.109 121.976ZM184.021 118.466V123H182.534V115.364H183.961V116.607H184.056C184.231 116.202 184.507 115.877 184.881 115.632C185.259 115.387 185.734 115.264 186.308 115.264C186.828 115.264 187.284 115.374 187.675 115.592C188.066 115.808 188.369 116.129 188.585 116.557C188.8 116.984 188.908 117.513 188.908 118.143V123H187.422V118.322C187.422 117.768 187.277 117.336 186.989 117.024C186.701 116.709 186.305 116.552 185.801 116.552C185.456 116.552 185.15 116.626 184.881 116.776C184.616 116.925 184.405 117.143 184.25 117.432C184.097 117.717 184.021 118.062 184.021 118.466ZM193.124 123.169C192.64 123.169 192.203 123.08 191.811 122.901C191.42 122.718 191.11 122.455 190.882 122.11C190.656 121.765 190.544 121.343 190.544 120.842C190.544 120.411 190.627 120.057 190.792 119.778C190.958 119.5 191.182 119.28 191.463 119.117C191.745 118.955 192.06 118.832 192.408 118.749C192.756 118.666 193.111 118.603 193.472 118.56C193.929 118.507 194.301 118.464 194.586 118.431C194.871 118.395 195.078 118.337 195.207 118.257C195.336 118.178 195.401 118.048 195.401 117.869V117.835C195.401 117.4 195.278 117.064 195.033 116.825C194.791 116.587 194.43 116.467 193.949 116.467C193.449 116.467 193.054 116.578 192.766 116.8C192.481 117.019 192.284 117.263 192.174 117.531L190.777 117.213C190.943 116.749 191.185 116.375 191.503 116.089C191.825 115.801 192.194 115.592 192.612 115.463C193.029 115.33 193.469 115.264 193.929 115.264C194.234 115.264 194.557 115.301 194.899 115.374C195.243 115.443 195.565 115.572 195.863 115.761C196.165 115.95 196.412 116.22 196.604 116.572C196.796 116.92 196.892 117.372 196.892 117.929V123H195.441V121.956H195.381C195.285 122.148 195.141 122.337 194.949 122.523C194.756 122.708 194.509 122.862 194.208 122.985C193.906 123.108 193.545 123.169 193.124 123.169ZM193.447 121.976C193.858 121.976 194.209 121.895 194.501 121.732C194.796 121.57 195.02 121.358 195.172 121.096C195.328 120.831 195.406 120.547 195.406 120.246V119.261C195.353 119.314 195.25 119.364 195.098 119.411C194.949 119.454 194.778 119.492 194.586 119.525C194.393 119.555 194.206 119.583 194.024 119.609C193.842 119.633 193.689 119.652 193.566 119.669C193.278 119.705 193.015 119.767 192.776 119.853C192.541 119.939 192.352 120.063 192.209 120.226C192.07 120.385 192 120.597 192 120.862C192 121.23 192.136 121.509 192.408 121.697C192.68 121.883 193.026 121.976 193.447 121.976ZM202.074 126.023C201.468 126.023 200.945 125.943 200.508 125.784C200.074 125.625 199.719 125.415 199.444 125.153C199.169 124.891 198.963 124.604 198.828 124.293L200.105 123.766C200.195 123.911 200.314 124.066 200.463 124.228C200.616 124.394 200.821 124.535 201.08 124.651C201.342 124.767 201.678 124.825 202.089 124.825C202.652 124.825 203.118 124.687 203.486 124.412C203.854 124.14 204.038 123.706 204.038 123.109V121.608H203.943C203.854 121.77 203.725 121.951 203.556 122.15C203.39 122.349 203.161 122.521 202.869 122.667C202.578 122.813 202.198 122.886 201.731 122.886C201.128 122.886 200.584 122.745 200.1 122.463C199.62 122.178 199.239 121.759 198.957 121.205C198.678 120.648 198.539 119.964 198.539 119.152C198.539 118.34 198.677 117.644 198.952 117.064C199.23 116.484 199.611 116.04 200.095 115.732C200.579 115.42 201.128 115.264 201.741 115.264C202.215 115.264 202.598 115.344 202.889 115.503C203.181 115.659 203.408 115.841 203.57 116.05C203.736 116.259 203.864 116.442 203.953 116.602H204.063V115.364H205.519V123.169C205.519 123.825 205.367 124.364 205.062 124.785C204.757 125.206 204.344 125.517 203.824 125.719C203.307 125.922 202.724 126.023 202.074 126.023ZM202.059 121.653C202.487 121.653 202.848 121.553 203.143 121.354C203.441 121.152 203.667 120.864 203.819 120.489C203.975 120.112 204.053 119.659 204.053 119.132C204.053 118.618 203.977 118.166 203.824 117.775C203.672 117.384 203.448 117.079 203.153 116.86C202.858 116.638 202.493 116.527 202.059 116.527C201.612 116.527 201.239 116.643 200.941 116.875C200.642 117.104 200.417 117.415 200.264 117.81C200.115 118.204 200.041 118.645 200.041 119.132C200.041 119.633 200.117 120.072 200.269 120.45C200.422 120.827 200.647 121.122 200.945 121.335C201.247 121.547 201.618 121.653 202.059 121.653ZM210.804 123.154C210.052 123.154 209.404 122.993 208.86 122.672C208.32 122.347 207.902 121.891 207.607 121.305C207.316 120.715 207.17 120.024 207.17 119.232C207.17 118.449 207.316 117.76 207.607 117.163C207.902 116.567 208.313 116.101 208.84 115.766C209.371 115.432 209.99 115.264 210.7 115.264C211.131 115.264 211.548 115.335 211.953 115.478C212.357 115.621 212.72 115.844 213.041 116.149C213.363 116.454 213.616 116.85 213.802 117.337C213.988 117.821 214.08 118.41 214.08 119.102V119.629H208.01V118.516H212.624C212.624 118.125 212.544 117.778 212.385 117.477C212.226 117.172 212.002 116.931 211.714 116.756C211.429 116.58 211.094 116.492 210.71 116.492C210.292 116.492 209.927 116.595 209.616 116.8C209.308 117.003 209.069 117.268 208.9 117.596C208.734 117.921 208.651 118.274 208.651 118.655V119.525C208.651 120.035 208.741 120.469 208.92 120.827C209.102 121.185 209.356 121.459 209.681 121.648C210.005 121.833 210.385 121.926 210.819 121.926C211.101 121.926 211.358 121.886 211.59 121.807C211.822 121.724 212.022 121.601 212.191 121.439C212.36 121.277 212.49 121.076 212.579 120.837L213.986 121.091C213.873 121.505 213.671 121.868 213.379 122.18C213.091 122.488 212.728 122.728 212.291 122.901C211.856 123.07 211.361 123.154 210.804 123.154ZM228.011 116.129H226.46C226.4 115.798 226.289 115.506 226.127 115.254C225.964 115.002 225.765 114.789 225.53 114.613C225.295 114.437 225.031 114.305 224.74 114.215C224.451 114.126 224.145 114.081 223.82 114.081C223.233 114.081 222.708 114.228 222.244 114.523C221.783 114.818 221.419 115.251 221.15 115.821C220.885 116.391 220.752 117.087 220.752 117.909C220.752 118.738 220.885 119.437 221.15 120.007C221.419 120.577 221.785 121.008 222.249 121.3C222.713 121.591 223.235 121.737 223.815 121.737C224.136 121.737 224.441 121.694 224.73 121.608C225.021 121.518 225.285 121.388 225.52 121.215C225.755 121.043 225.954 120.832 226.117 120.584C226.282 120.332 226.397 120.044 226.46 119.719L228.011 119.724C227.928 120.224 227.767 120.685 227.529 121.106C227.293 121.523 226.99 121.885 226.619 122.19C226.251 122.491 225.83 122.725 225.356 122.891C224.882 123.056 224.365 123.139 223.805 123.139C222.923 123.139 222.138 122.93 221.448 122.513C220.759 122.092 220.215 121.49 219.818 120.708C219.423 119.926 219.226 118.993 219.226 117.909C219.226 116.822 219.425 115.889 219.823 115.11C220.22 114.328 220.764 113.728 221.453 113.31C222.143 112.889 222.927 112.679 223.805 112.679C224.345 112.679 224.849 112.757 225.316 112.913C225.787 113.065 226.209 113.29 226.584 113.589C226.959 113.884 227.268 114.245 227.514 114.673C227.759 115.097 227.925 115.582 228.011 116.129ZM232.946 123.154C232.23 123.154 231.606 122.99 231.072 122.662C230.538 122.334 230.124 121.875 229.829 121.285C229.534 120.695 229.387 120.005 229.387 119.217C229.387 118.424 229.534 117.732 229.829 117.138C230.124 116.545 230.538 116.085 231.072 115.756C231.606 115.428 232.23 115.264 232.946 115.264C233.662 115.264 234.287 115.428 234.821 115.756C235.354 116.085 235.769 116.545 236.064 117.138C236.359 117.732 236.506 118.424 236.506 119.217C236.506 120.005 236.359 120.695 236.064 121.285C235.769 121.875 235.354 122.334 234.821 122.662C234.287 122.99 233.662 123.154 232.946 123.154ZM232.951 121.906C233.415 121.906 233.8 121.784 234.105 121.538C234.41 121.293 234.635 120.967 234.781 120.559C234.93 120.151 235.005 119.702 235.005 119.212C235.005 118.724 234.93 118.277 234.781 117.869C234.635 117.458 234.41 117.129 234.105 116.88C233.8 116.631 233.415 116.507 232.951 116.507C232.484 116.507 232.096 116.631 231.788 116.88C231.483 117.129 231.256 117.458 231.107 117.869C230.961 118.277 230.888 118.724 230.888 119.212C230.888 119.702 230.961 120.151 231.107 120.559C231.256 120.967 231.483 121.293 231.788 121.538C232.096 121.784 232.484 121.906 232.951 121.906ZM239.652 118.466V123H238.165V115.364H239.592V116.607H239.687C239.862 116.202 240.137 115.877 240.512 115.632C240.89 115.387 241.365 115.264 241.939 115.264C242.459 115.264 242.915 115.374 243.306 115.592C243.697 115.808 244 116.129 244.216 116.557C244.431 116.984 244.539 117.513 244.539 118.143V123H243.052V118.322C243.052 117.768 242.908 117.336 242.62 117.024C242.331 116.709 241.935 116.552 241.432 116.552C241.087 116.552 240.78 116.626 240.512 116.776C240.247 116.925 240.036 117.143 239.881 117.432C239.728 117.717 239.652 118.062 239.652 118.466ZM250.097 115.364V116.557H245.926V115.364H250.097ZM247.045 113.534H248.531V120.758C248.531 121.046 248.574 121.263 248.66 121.409C248.747 121.552 248.858 121.649 248.993 121.702C249.133 121.752 249.283 121.777 249.446 121.777C249.565 121.777 249.67 121.769 249.759 121.752C249.849 121.736 249.918 121.722 249.968 121.712L250.236 122.94C250.15 122.973 250.028 123.007 249.868 123.04C249.709 123.076 249.51 123.096 249.272 123.099C248.881 123.106 248.516 123.036 248.178 122.891C247.84 122.745 247.567 122.519 247.358 122.214C247.149 121.91 247.045 121.527 247.045 121.066V113.534ZM251.741 123V115.364H253.178V116.577H253.258C253.397 116.166 253.642 115.843 253.994 115.607C254.345 115.369 254.746 115.249 255.197 115.249C255.406 115.249 255.593 115.274 255.759 115.324C255.924 115.374 256.07 115.442 256.196 115.528L255.719 116.771C255.629 116.728 255.528 116.693 255.415 116.666C255.303 116.636 255.174 116.621 255.028 116.621C254.683 116.621 254.375 116.696 254.103 116.845C253.835 116.991 253.621 117.193 253.462 117.452C253.306 117.71 253.228 118.005 253.228 118.337V123H251.741ZM259.446 123.169C258.962 123.169 258.525 123.08 258.134 122.901C257.743 122.718 257.433 122.455 257.204 122.11C256.979 121.765 256.866 121.343 256.866 120.842C256.866 120.411 256.949 120.057 257.115 119.778C257.28 119.5 257.504 119.28 257.786 119.117C258.067 118.955 258.382 118.832 258.73 118.749C259.078 118.666 259.433 118.603 259.794 118.56C260.252 118.507 260.623 118.464 260.908 118.431C261.193 118.395 261.4 118.337 261.529 118.257C261.659 118.178 261.723 118.048 261.723 117.869V117.835C261.723 117.4 261.601 117.064 261.355 116.825C261.113 116.587 260.752 116.467 260.271 116.467C259.771 116.467 259.377 116.578 259.088 116.8C258.803 117.019 258.606 117.263 258.497 117.531L257.1 117.213C257.265 116.749 257.507 116.375 257.825 116.089C258.147 115.801 258.517 115.592 258.934 115.463C259.352 115.33 259.791 115.264 260.252 115.264C260.557 115.264 260.88 115.301 261.221 115.374C261.566 115.443 261.887 115.572 262.186 115.761C262.487 115.95 262.734 116.22 262.926 116.572C263.119 116.92 263.215 117.372 263.215 117.929V123H261.763V121.956H261.703C261.607 122.148 261.463 122.337 261.271 122.523C261.079 122.708 260.832 122.862 260.53 122.985C260.228 123.108 259.867 123.169 259.446 123.169ZM259.769 121.976C260.18 121.976 260.532 121.895 260.823 121.732C261.118 121.57 261.342 121.358 261.494 121.096C261.65 120.831 261.728 120.547 261.728 120.246V119.261C261.675 119.314 261.572 119.364 261.42 119.411C261.271 119.454 261.1 119.492 260.908 119.525C260.716 119.555 260.528 119.583 260.346 119.609C260.164 119.633 260.011 119.652 259.889 119.669C259.6 119.705 259.337 119.767 259.098 119.853C258.863 119.939 258.674 120.063 258.531 120.226C258.392 120.385 258.323 120.597 258.323 120.862C258.323 121.23 258.459 121.509 258.73 121.697C259.002 121.883 259.348 121.976 259.769 121.976ZM268.411 123.154C267.672 123.154 267.036 122.987 266.502 122.652C265.972 122.314 265.564 121.848 265.279 121.255C264.994 120.662 264.852 119.982 264.852 119.217C264.852 118.441 264.997 117.757 265.289 117.163C265.581 116.567 265.992 116.101 266.522 115.766C267.052 115.432 267.677 115.264 268.396 115.264C268.976 115.264 269.493 115.372 269.947 115.587C270.402 115.799 270.768 116.098 271.046 116.482C271.328 116.867 271.495 117.316 271.548 117.83H270.102C270.022 117.472 269.84 117.163 269.555 116.905C269.273 116.646 268.895 116.517 268.421 116.517C268.007 116.517 267.644 116.626 267.332 116.845C267.024 117.061 266.784 117.369 266.612 117.77C266.439 118.168 266.353 118.638 266.353 119.182C266.353 119.739 266.438 120.219 266.607 120.624C266.776 121.028 267.014 121.341 267.322 121.563C267.634 121.785 268 121.896 268.421 121.896C268.703 121.896 268.958 121.845 269.187 121.742C269.419 121.636 269.613 121.485 269.768 121.29C269.928 121.094 270.039 120.859 270.102 120.584H271.548C271.495 121.078 271.335 121.518 271.066 121.906C270.798 122.294 270.438 122.599 269.987 122.821C269.54 123.043 269.014 123.154 268.411 123.154ZM276.703 115.364V116.557H272.531V115.364H276.703ZM273.65 113.534H275.137V120.758C275.137 121.046 275.18 121.263 275.266 121.409C275.352 121.552 275.463 121.649 275.599 121.702C275.738 121.752 275.889 121.777 276.051 121.777C276.171 121.777 276.275 121.769 276.365 121.752C276.454 121.736 276.524 121.722 276.573 121.712L276.842 122.94C276.756 122.973 276.633 123.007 276.474 123.04C276.315 123.076 276.116 123.096 275.877 123.099C275.486 123.106 275.122 123.036 274.784 122.891C274.445 122.745 274.172 122.519 273.963 122.214C273.754 121.91 273.65 121.527 273.65 121.066V113.534ZM283.946 117.228L282.599 117.467C282.543 117.294 282.453 117.13 282.33 116.974C282.211 116.819 282.049 116.691 281.843 116.592C281.638 116.492 281.381 116.442 281.073 116.442C280.652 116.442 280.3 116.537 280.019 116.726C279.737 116.911 279.596 117.152 279.596 117.447C279.596 117.702 279.691 117.907 279.879 118.063C280.068 118.219 280.373 118.347 280.794 118.446L282.007 118.724C282.71 118.887 283.234 119.137 283.578 119.475C283.923 119.813 284.095 120.252 284.095 120.793C284.095 121.25 283.963 121.658 283.698 122.016C283.436 122.37 283.07 122.649 282.599 122.851C282.132 123.053 281.59 123.154 280.973 123.154C280.118 123.154 279.42 122.972 278.88 122.607C278.34 122.239 278.008 121.717 277.886 121.041L279.323 120.822C279.412 121.197 279.596 121.48 279.874 121.673C280.153 121.862 280.516 121.956 280.963 121.956C281.45 121.956 281.84 121.855 282.132 121.653C282.423 121.447 282.569 121.197 282.569 120.902C282.569 120.663 282.48 120.463 282.301 120.3C282.125 120.138 281.855 120.015 281.49 119.933L280.198 119.649C279.485 119.487 278.958 119.228 278.617 118.874C278.279 118.519 278.11 118.07 278.11 117.526C278.11 117.076 278.235 116.681 278.487 116.343C278.739 116.005 279.087 115.741 279.531 115.553C279.976 115.36 280.484 115.264 281.058 115.264C281.883 115.264 282.533 115.443 283.007 115.801C283.481 116.156 283.794 116.631 283.946 117.228Z" fill="white"/>
<path d="M161 125.784H284.727V126.739H161V125.784Z" fill="white"/>
<path fill-rule="evenodd" clip-rule="evenodd" d="M301.53 112.22C301.238 111.927 300.763 111.927 300.47 112.22C300.177 112.513 300.177 112.987 300.47 113.28L304.439 117.25H295.75C295.336 117.25 295 117.586 295 118C295 118.414 295.336 118.75 295.75 118.75H304.439L300.47 122.72C300.177 123.013 300.177 123.487 300.47 123.78C300.763 124.073 301.238 124.073 301.53 123.78L306.78 118.53C307.073 118.237 307.073 117.763 306.78 117.47L301.53 112.22Z" fill="white"/>
</svg>
