<svg width="373" height="150" viewBox="0 0 373 150" fill="none" xmlns="http://www.w3.org/2000/svg">
<rect x="0.5" y="0.5" width="372" height="149" rx="8.5" fill="#9A7107" stroke="#EAECEF"/>
<g opacity="0.5">
<mask id="mask0_173_290" style="mask-type:alpha" maskUnits="userSpaceOnUse" x="1" y="1" width="139" height="148">
<rect x="1" y="1" width="139" height="148" rx="8" fill="white"/>
</mask>
<g mask="url(#mask0_173_290)">
<path d="M60.604 126.852H13.246C11.8589 126.852 10.5547 126.303 9.57126 125.32C8.59823 124.326 8.05995 123.022 8.08065 121.624C8.10136 119.409 8.16346 117.183 8.26698 115.02C8.66033 106.335 9.56091 99.4307 10.9377 94.493C11.6519 91.9466 12.5214 89.8659 13.6704 87.9509C14.6745 86.274 16.9208 83.0754 20.7923 80.4461C21.3409 80.0734 21.8999 79.7318 22.4588 79.4213C27.0859 76.8127 31.5267 76.4297 34.4355 76.5539C34.922 76.5746 35.3878 76.7403 35.7812 77.0301L47.1988 85.3527L59.2687 76.999C59.6517 76.7299 60.1071 76.585 60.5729 76.5643C63.4817 76.4297 67.9225 76.8231 72.5496 79.4316C73.1086 79.7422 73.6675 80.0941 74.2058 80.4564C78.0773 83.0857 80.3339 86.2843 81.3276 87.9613C82.1972 89.4208 82.8803 90.9114 83.4807 92.6505C83.9258 93.9444 83.2323 95.3625 81.9384 95.8077C80.6444 96.2528 79.2263 95.5592 78.7812 94.2653C78.305 92.8678 77.7564 91.6774 77.0628 90.5181C76.4314 89.4519 74.6095 86.7501 71.4109 84.5763C70.9865 84.2865 70.5414 84.0173 70.1066 83.7689C66.8873 81.9574 63.7922 81.5226 61.5563 81.5226C61.5253 81.5226 61.5046 81.5226 61.4735 81.5226L48.5652 90.4663C47.6957 91.0667 46.5364 91.0563 45.6875 90.4352L33.4728 81.5226C31.2369 81.5123 28.1211 81.947 24.8811 83.7689C24.4463 84.0173 24.0012 84.2865 23.5768 84.5763C20.3886 86.7501 18.5563 89.4519 17.9249 90.5181C16.9933 92.0708 16.3101 93.7167 15.72 95.8594C14.4572 100.362 13.598 107.08 13.2253 115.268C13.1322 117.38 13.0701 119.554 13.0494 121.707C13.0494 121.728 13.0494 121.79 13.1115 121.852C13.1736 121.914 13.2357 121.914 13.2564 121.914H60.6143C61.9911 121.914 63.0987 123.022 63.0987 124.398C63.0987 125.775 61.9807 126.852 60.604 126.852Z" fill="#F5F9FF"/>
<path d="M83.1601 105.134C81.7834 105.134 80.6758 104.027 80.6758 102.65C80.6758 101.273 81.7834 100.165 83.1601 100.165C84.5369 100.165 85.6445 101.273 85.6445 102.65C85.6445 104.027 84.5369 105.134 83.1601 105.134Z" fill="#F5F9FF"/>
<path d="M26.123 126.852C24.7463 126.852 23.6387 125.744 23.6387 124.367V103.623C23.6387 102.246 24.7463 101.139 26.123 101.139C27.4998 101.139 28.6074 102.246 28.6074 103.623V124.367C28.6074 125.744 27.4894 126.852 26.123 126.852Z" fill="#F5F9FF"/>
<path d="M47.6022 77.4958C42.354 77.4958 37.4267 75.2496 33.7312 71.1607C30.1082 67.1444 28.1104 61.8341 28.1104 56.1822V48.2322C28.1104 47.1764 28.7832 46.2344 29.7873 45.8825C30.7189 45.5512 33.4931 44.3401 34.9941 42.6735C35.874 41.6901 37.3439 41.5555 38.3687 42.3837C38.5032 42.4768 40.5114 43.9467 43.9688 44.692C48.7408 45.7168 53.8959 44.9405 59.289 42.4044C59.3304 42.3837 59.3718 42.363 59.4235 42.3423C60.3655 41.9593 61.4421 42.1973 62.146 42.9323C62.8913 43.719 64.5268 45.2614 65.9036 46.1102C66.6385 46.5657 67.0836 47.3627 67.0836 48.2219V56.1925C67.0836 61.8341 65.0858 67.1547 61.4628 71.1711C57.7777 75.2496 52.8504 77.4958 47.6022 77.4958ZM33.0791 49.8988V56.1925C33.0791 65.1983 39.5901 72.5271 47.6022 72.5271C55.6142 72.5271 62.1149 65.1983 62.1149 56.1925V49.5469C61.2557 48.9051 60.4483 48.2012 59.8169 47.6112C52.4259 50.6855 46.4221 50.3543 42.6024 49.4848C40.2112 48.9361 38.3583 48.1287 37.1265 47.4559C35.729 48.5635 34.2074 49.3813 33.0791 49.8988Z" fill="#F5F9FF"/>
<path d="M30.6052 50.7165C29.6425 50.7165 28.7316 50.1575 28.3279 49.2156C27.3859 47.0314 27.241 44.723 27.1168 42.6838C27.0132 41.0172 26.8787 38.9469 27.3652 36.9077C27.7896 35.1169 28.8351 33.2225 30.5638 31.1108C30.8329 30.7796 31.1124 30.4587 31.4023 30.1585C36.0397 25.2001 43.6481 23.2541 45.1283 22.9125C48.0164 22.25 50.7906 22.0119 53.3681 22.2086C55.1796 22.3431 56.7116 22.6019 58.0676 22.9746C59.9723 23.5025 61.4629 24.5377 62.3739 25.9558C62.8293 26.6597 63.1088 27.374 63.3469 27.995C63.5436 28.5126 63.7299 28.9991 63.9473 29.2476C64.2682 29.6306 64.7133 29.9825 65.2309 30.3862C65.8209 30.852 66.4937 31.38 67.1045 32.0735C68.5744 33.7298 70.2306 36.4936 70.4791 39.3092C70.7171 41.9281 69.6923 44.1951 68.7711 45.872C68.7504 45.9134 68.6883 46.0169 68.6158 46.1722C67.0527 49.1948 66.7008 49.671 66.2764 50.0644C65.2619 50.9857 63.6885 50.9132 62.7672 49.8987C61.908 48.9568 61.908 47.5386 62.7258 46.5966C62.8604 46.3896 63.233 45.7582 64.1957 43.8845C64.2992 43.6775 64.3717 43.5429 64.4027 43.4912C64.9824 42.425 65.6346 41.0482 65.5207 39.7647C65.4068 38.4811 64.5166 36.6696 63.3676 35.3756C63.0467 35.0133 62.6016 34.6614 62.1358 34.2887C61.5043 33.7919 60.7797 33.2225 60.1379 32.4565C59.3823 31.5663 58.9993 30.5829 58.6991 29.7858C58.5335 29.3407 58.3678 28.9267 58.1919 28.6472C57.871 28.1607 57.2085 27.8915 56.7116 27.7466C55.6765 27.4568 54.455 27.2601 52.9747 27.1462C50.8941 26.991 48.6271 27.1876 46.2256 27.7363C42.8303 28.5126 37.8512 30.5001 35.0253 33.5331C34.8183 33.7608 34.6009 33.9989 34.4042 34.2473C32.8825 36.1106 32.365 37.3424 32.189 38.0463C31.8784 39.361 31.9716 40.9551 32.0648 42.3629C32.1683 44.0812 32.2821 45.8513 32.8825 47.2384C33.4312 48.5013 32.8515 49.9609 31.5886 50.5095C31.2677 50.6544 30.9261 50.7165 30.6052 50.7165Z" fill="#F5F9FF"/>
<path d="M37.3746 83.7586C37.0226 83.7586 36.6603 83.6862 36.3187 83.5206C35.0765 82.9409 34.5383 81.4606 35.1283 80.2184C35.5941 79.2144 36.3912 77.2165 36.4533 75.0427C36.474 74.2146 36.3808 73.8626 36.1841 73.1691C36.1427 73.0138 36.1013 72.8482 36.0496 72.6826C35.708 71.3576 36.4947 70.0015 37.83 69.6496C39.155 69.2976 40.5111 70.0947 40.863 71.4301C40.9044 71.575 40.9355 71.7095 40.9769 71.8441C41.2046 72.6619 41.4634 73.5935 41.422 75.1669C41.3392 78.2413 40.2626 80.9741 39.6312 82.3198C39.1964 83.2204 38.3062 83.7586 37.3746 83.7586Z" fill="#F5F9FF"/>
<path d="M57.4465 83.7678C56.5459 83.7678 55.6764 83.271 55.2313 82.4221C53.9374 79.9067 53.2231 77.2775 53.161 74.8138C53.13 73.5302 53.2956 72.6918 53.4612 72.0293C53.8028 70.7043 55.1485 69.8969 56.4838 70.2281C57.8088 70.5697 58.6162 71.9154 58.285 73.2507C58.1918 73.6027 58.1194 73.9753 58.1401 74.6792C58.1918 76.8531 58.9992 78.8509 59.6617 80.1448C60.2932 81.3663 59.8066 82.8673 58.5852 83.4883C58.2125 83.6747 57.8295 83.7678 57.4465 83.7678Z" fill="#F5F9FF"/>
<path d="M122.352 117.617H102.446C101.07 117.617 99.9619 116.509 99.9619 115.132C99.9619 113.755 101.07 112.648 102.446 112.648H122.031C121.959 107.482 121.586 98.2696 119.899 92.2451C119.423 90.5682 118.895 89.2742 118.17 88.0527C117.57 87.0487 115.841 84.5332 112.736 82.7839C110.262 81.3968 107.891 81.0448 106.162 81.0345L104.216 82.3801C104.185 82.4008 104.154 82.4215 104.123 82.4422L95.8731 88.1563C95.0036 88.7566 93.8442 88.7463 92.9954 88.1252L83.265 81.0345C81.5363 81.0448 79.1865 81.4071 76.7229 82.7839C75.9155 83.2393 75.1495 83.7776 74.4249 84.3883C73.3794 85.2786 71.8163 85.1543 70.9261 84.1088C70.0358 83.0633 70.1601 81.5003 71.2056 80.61C72.1682 79.7819 73.2137 79.0573 74.2903 78.4569C78.1307 76.2935 81.8054 75.9726 84.2173 76.0865C84.7039 76.1072 85.1697 76.2728 85.563 76.5626L94.4964 83.0737L101.308 78.3534C101.318 78.3431 101.328 78.3431 101.339 78.3327L103.947 76.5212C104.33 76.2521 104.775 76.1072 105.241 76.0865C107.643 75.9726 111.328 76.2935 115.168 78.4569C119.319 80.786 121.628 84.1709 122.435 85.5166C123.387 87.1004 124.102 88.8188 124.681 90.9098C126.555 97.6072 126.948 107.576 127 112.917C127.01 114.169 126.534 115.35 125.654 116.24C124.774 117.13 123.605 117.617 122.352 117.617Z" fill="#F5F9FF"/>
<path d="M111.97 117.617C110.593 117.617 109.485 116.509 109.485 115.132V98.4045C109.485 97.0278 110.593 95.9202 111.97 95.9202C113.346 95.9202 114.454 97.0278 114.454 98.4045V115.143C114.454 116.509 113.336 117.617 111.97 117.617Z" fill="#F5F9FF"/>
<path d="M94.8075 77.8043C90.4288 77.8043 86.3296 75.9307 83.2656 72.5354C80.2637 69.2126 78.6074 64.8029 78.6074 60.1344V53.7165C78.6074 52.6606 79.2803 51.7186 80.2844 51.3667C81.009 51.1079 83.1414 50.1763 84.28 48.9134C85.1703 47.93 86.6298 47.7851 87.6546 48.6235C87.7892 48.7167 89.3522 49.845 92.0333 50.404C95.7702 51.1907 99.8072 50.58 104.041 48.5821C105.014 48.1267 106.163 48.344 106.908 49.1204C107.333 49.5759 108.699 50.9009 109.838 51.6048C110.573 52.0602 111.018 52.8573 111.018 53.7165V60.1344C111.018 64.8029 109.362 69.2126 106.36 72.5354C103.275 75.9307 99.1758 77.8043 94.8075 77.8043ZM83.5761 55.3623V60.1344C83.5761 67.132 88.6173 72.8356 94.8075 72.8356C100.998 72.8356 106.039 67.1423 106.039 60.1344V55.0104C105.501 54.5963 104.993 54.1616 104.559 53.7682C95.8116 57.3188 89.3833 55.176 86.4124 53.644C85.429 54.3997 84.4042 54.969 83.5761 55.3623Z" fill="#F5F9FF"/>
<path d="M81.0912 56.2013C80.1286 56.2013 79.2176 55.6424 78.8139 54.7004C78.0169 52.8578 77.8926 50.8703 77.7995 49.2659C77.7167 47.8891 77.6028 46.1708 78.0169 44.4628C78.3792 42.9411 79.259 41.3573 80.6979 39.5976C80.9153 39.3285 81.1533 39.0593 81.3914 38.8005C85.2318 34.7013 91.4841 33.0969 92.7056 32.8174C95.0864 32.2688 97.3741 32.0721 99.4962 32.2377C100.987 32.3516 102.26 32.5586 103.378 32.8795C105.024 33.3453 106.318 34.2459 107.125 35.4881C107.519 36.0988 107.757 36.7199 107.953 37.2271C108.088 37.5687 108.233 37.9621 108.357 38.0966C108.585 38.3658 108.926 38.6349 109.32 38.9558C109.806 39.3388 110.365 39.7839 110.893 40.374C112.125 41.7714 113.522 44.1005 113.74 46.4813C113.947 48.7483 113.015 50.7461 112.301 52.0504C112.291 52.0815 112.239 52.1643 112.187 52.2678C110.945 54.659 110.624 55.1558 110.2 55.5492C109.185 56.4705 107.612 56.398 106.69 55.3939C105.842 54.4623 105.831 53.0545 106.628 52.1229C106.742 51.9365 107.042 51.4293 107.777 49.9905C107.86 49.8248 107.922 49.711 107.943 49.6696C108.595 48.4791 108.854 47.6407 108.792 46.9368C108.709 46.0051 108.026 44.6388 107.177 43.6761C106.949 43.4173 106.618 43.1585 106.245 42.8687C105.717 42.4546 105.117 41.9784 104.558 41.3159C103.896 40.5396 103.575 39.7011 103.316 39.0283C103.192 38.697 103.067 38.3865 102.954 38.2001C102.819 37.9931 102.488 37.8068 102.032 37.6722C101.235 37.4445 100.273 37.2892 99.1131 37.2064C97.488 37.0822 95.7075 37.2375 93.8132 37.6722C91.1425 38.283 87.2297 39.846 85.0248 42.2062C84.8592 42.3821 84.6936 42.5685 84.5486 42.7548C83.3789 44.1833 82.9856 45.1046 82.8613 45.6325C82.6233 46.6262 82.6957 47.8167 82.7682 48.976C82.851 50.3217 82.9338 51.7088 83.3893 52.744C83.9379 54.0068 83.3582 55.4664 82.0953 56.015C81.7537 56.1392 81.4225 56.2013 81.0912 56.2013Z" fill="#F5F9FF"/>
<path d="M86.5572 82.8457C86.2053 82.8457 85.843 82.7732 85.5014 82.6076C84.2592 82.0279 83.7209 80.5476 84.3006 79.3055C84.6629 78.5291 85.284 76.9867 85.3254 75.3202C85.3358 74.7198 85.2736 74.4817 85.1287 73.9538C85.0977 73.8295 85.0563 73.695 85.0252 73.5501C84.6836 72.2251 85.4703 70.869 86.8057 70.5171C88.1306 70.1755 89.4867 70.9622 89.8386 72.2975C89.8697 72.4114 89.9008 72.5253 89.9318 72.6288C90.1285 73.3223 90.3459 74.109 90.3045 75.4444C90.2423 77.877 89.4556 80.0301 88.8138 81.4068C88.3894 82.3177 87.4889 82.8457 86.5572 82.8457Z" fill="#F5F9FF"/>
<path d="M102.746 82.866C101.846 82.866 100.976 82.3691 100.531 81.51C99.4443 79.3879 98.8646 77.2555 98.8128 75.1645C98.7818 74.0776 98.9267 73.353 99.0716 72.794C99.4029 71.4587 100.759 70.6616 102.084 70.9929C103.419 71.3241 104.216 72.6802 103.885 74.0052C103.823 74.2639 103.771 74.5227 103.782 75.03C103.823 76.6862 104.444 78.2286 104.962 79.2327C105.583 80.4541 105.107 81.9551 103.885 82.5762C103.512 82.7729 103.129 82.866 102.746 82.866Z" fill="#F5F9FF"/>
<path d="M10.7517 117.617H-27.352C-28.6046 117.617 -29.7743 117.131 -30.6541 116.24C-31.534 115.35 -32.0102 114.17 -31.9998 112.918C-31.9377 107.566 -31.5547 97.6078 -29.6708 90.9C-29.0807 88.809 -28.3665 87.0907 -27.4245 85.5069C-26.6274 84.1612 -24.3087 80.7866 -20.1578 78.4575C-16.3174 76.2941 -12.6426 75.9732 -10.2307 76.0871C-9.74418 76.1078 -9.27836 76.2734 -8.88501 76.5632L0.0483055 83.0743L9.49919 76.5218C9.8822 76.2527 10.3377 76.1078 10.8035 76.0871C13.2154 75.9732 16.8901 76.2941 20.7305 78.4575C21.8071 79.0579 22.8422 79.7825 23.8153 80.6107C24.8608 81.5009 24.985 83.0639 24.0948 84.1094C23.2045 85.1549 21.6415 85.2792 20.596 84.3889C19.8714 83.7679 19.095 83.2296 18.2979 82.7845C15.8239 81.3974 13.4535 81.0454 11.7248 81.0351L1.4354 88.1672C0.565876 88.7676 -0.593485 88.7573 -1.44231 88.1362L-11.1727 81.0454C-12.9014 81.0558 -15.2512 81.4181 -17.7148 82.7948C-20.8203 84.5442 -22.5489 87.0596 -23.1493 88.0637C-23.8739 89.2748 -24.4122 90.5688 -24.878 92.2561C-26.5653 98.2806 -26.9483 107.483 -27.0104 112.659H10.7517C12.1285 112.659 13.2361 113.766 13.2361 115.143C13.2361 116.52 12.1181 117.617 10.7517 117.617Z" fill="#F5F9FF"/>
<path d="M0.359226 77.8049C-4.01944 77.8049 -8.11863 75.9313 -11.1827 72.536C-14.1846 69.2132 -15.8408 64.8035 -15.8408 60.135V53.7171C-15.8408 52.6612 -15.168 51.7192 -14.1639 51.3673C-13.4393 51.1085 -11.3069 50.1769 -10.1682 48.914C-9.27799 47.9306 -7.81843 47.7857 -6.79364 48.6241C-6.65907 48.7173 -5.096 49.8456 -2.41497 50.4046C1.32191 51.1913 5.35898 50.5806 9.59274 48.5827C10.5244 48.1376 11.632 48.324 12.3773 49.0486L12.4704 49.1417C12.9052 49.5972 14.2405 50.9015 15.3896 51.6054C16.1245 52.0608 16.5696 52.8579 16.5696 53.7171V60.135C16.5696 64.8035 14.9134 69.2132 11.9115 72.536C8.83708 75.9313 4.7379 77.8049 0.359226 77.8049ZM-10.8721 55.3629V60.135C-10.8721 67.1326 -5.83095 72.8362 0.359226 72.8362C6.5494 72.8362 11.5906 67.1429 11.5906 60.135V55.011C11.1144 54.6487 10.6279 54.2346 10.1207 53.7688C1.37367 57.3194 -5.05459 55.1766 -8.03581 53.6446C-9.00885 54.4003 -10.044 54.9696 -10.8721 55.3629Z" fill="#F5F9FF"/>
<path d="M-13.357 56.2021C-14.3197 56.2021 -15.2306 55.6431 -15.6343 54.7011C-16.4314 52.8586 -16.5556 50.8711 -16.6488 49.2666C-16.7316 47.8898 -16.8454 46.1715 -16.4314 44.4635C-16.0691 42.9418 -15.1892 41.3581 -13.7504 39.5983C-13.533 39.3292 -13.2949 39.06 -13.0568 38.8013C-9.21642 34.7021 -2.96413 33.0976 -1.74266 32.8181C0.638176 32.2695 2.92585 32.0728 5.0479 32.2384C6.53851 32.3523 7.81174 32.5593 8.9297 32.8802C10.5756 33.346 11.8695 34.2466 12.6769 35.4888C13.0703 36.0995 13.3084 36.7206 13.5051 37.2278C13.6396 37.5694 13.7845 37.9628 13.9088 38.0974C14.1365 38.3665 14.4781 38.6356 14.8714 38.9565C15.358 39.3395 15.9169 39.7846 16.4449 40.3747C17.6767 41.7721 19.0741 44.1012 19.2915 46.482C19.4986 48.749 18.5669 50.7469 17.863 52.0511C17.8423 52.0822 17.8009 52.165 17.7491 52.2789C16.507 54.6701 16.1861 55.1669 15.7617 55.5603C14.7472 56.4816 13.1738 56.4091 12.2525 55.405C11.4037 54.4734 11.3934 53.0656 12.1904 52.1339C12.3043 51.958 12.6045 51.4404 13.3394 50.0119C13.4222 49.8463 13.4843 49.7324 13.5051 49.691C14.1572 48.5006 14.416 47.6621 14.3539 46.9582C14.2711 46.0266 13.5879 44.6602 12.739 43.6975C12.5113 43.4387 12.1801 43.1799 11.8074 42.8901C11.2795 42.476 10.6791 41.9999 10.1201 41.3374C9.45763 40.561 9.13673 39.7225 8.87794 39.0497C8.75373 38.7184 8.62951 38.4079 8.51564 38.2216C8.38107 38.0145 8.04983 37.8282 7.59436 37.6936C6.7973 37.4659 5.83461 37.3106 4.67525 37.2278C3.05007 37.1036 1.26962 37.2589 -0.624701 37.6936C-3.29538 38.3044 -7.20823 39.8675 -9.4131 42.2276C-9.57872 42.4036 -9.74434 42.5899 -9.88926 42.7762C-11.09 44.184 -11.4834 45.1053 -11.6076 45.6229C-11.8457 46.6166 -11.7732 47.807 -11.7008 48.9664C-11.618 50.3121 -11.5351 51.6992 -11.0797 52.7343C-10.5311 53.9972 -11.1107 55.4568 -12.3736 56.0054C-12.6945 56.14 -13.0258 56.2021 -13.357 56.2021Z" fill="#F5F9FF"/>
<path d="M8.29913 82.8661C7.39855 82.8661 6.52903 82.3693 6.08391 81.5101C4.99701 79.388 4.41733 77.2556 4.36557 75.1646C4.33451 74.0777 4.47943 73.3531 4.62435 72.7942C4.9556 71.4588 6.31164 70.6618 7.63663 70.993C8.97197 71.3243 9.76903 72.6803 9.43779 74.0053C9.37568 74.2641 9.32392 74.5229 9.33427 75.0301C9.37568 76.6863 9.99677 78.2287 10.5143 79.2328C11.1354 80.4542 10.6593 81.9552 9.43779 82.5763C9.06513 82.773 8.68213 82.8661 8.29913 82.8661Z" fill="#F5F9FF"/>
<path d="M80.5515 139.709C74.0405 139.709 67.9124 137.172 63.3163 132.566C58.7099 127.96 56.1738 121.842 56.1738 115.331C56.1738 108.82 58.7099 102.692 63.3163 98.0956C67.9227 93.4892 74.0405 90.9531 80.5515 90.9531C87.0626 90.9531 93.1907 93.4892 97.7867 98.0956C102.393 102.702 104.929 108.82 104.929 115.331C104.929 121.842 102.393 127.97 97.7867 132.566C93.1907 137.172 87.0626 139.709 80.5515 139.709ZM80.5515 95.9218C69.8481 95.9218 61.1425 104.627 61.1425 115.331C61.1425 126.034 69.8481 134.74 80.5515 134.74C91.255 134.74 99.9605 126.034 99.9605 115.331C99.9605 104.627 91.255 95.9218 80.5515 95.9218Z" fill="#F5F9FF"/>
<path d="M80.5512 130.764C72.0423 130.764 65.1172 123.839 65.1172 115.33C65.1172 106.821 72.0423 99.8962 80.5512 99.8962C89.0601 99.8962 95.9853 106.821 95.9853 115.33C95.9853 123.839 89.0601 130.764 80.5512 130.764ZM80.5512 104.865C74.7855 104.865 70.0859 109.554 70.0859 115.33C70.0859 121.106 74.7751 125.796 80.5512 125.796C86.3273 125.796 91.0166 121.106 91.0166 115.33C91.0166 109.554 86.317 104.865 80.5512 104.865Z" fill="#F5F9FF"/>
<path d="M111.182 152.979C109.308 152.979 107.548 152.254 106.223 150.929L90.7376 135.443C89.7646 134.47 89.7646 132.897 90.7376 131.934C91.7106 130.961 93.2841 130.961 94.2467 131.934L109.733 147.42C110.116 147.803 110.633 148.02 111.182 148.02H111.192C111.741 148.02 112.258 147.803 112.641 147.409C113.428 146.612 113.428 145.318 112.631 144.532L97.1452 129.046C96.1721 128.073 96.1721 126.499 97.1452 125.537C98.1182 124.564 99.6916 124.564 100.654 125.537L116.14 141.023C118.852 143.735 118.873 148.175 116.171 150.908C114.846 152.244 113.086 152.989 111.202 152.999C111.202 152.979 111.192 152.979 111.182 152.979Z" fill="#F5F9FF"/>
</g>
</g>
<path d="M162.578 43V27H165.477V33.7734H172.891V27H175.797V43H172.891V36.2031H165.477V43H162.578ZM178.824 43V31H181.652V43H178.824ZM180.246 29.2969C179.798 29.2969 179.413 29.1484 179.09 28.8516C178.767 28.5495 178.605 28.1875 178.605 27.7656C178.605 27.3385 178.767 26.9766 179.09 26.6797C179.413 26.3776 179.798 26.2266 180.246 26.2266C180.699 26.2266 181.085 26.3776 181.402 26.6797C181.725 26.9766 181.887 27.3385 181.887 27.7656C181.887 28.1875 181.725 28.5495 181.402 28.8516C181.085 29.1484 180.699 29.2969 180.246 29.2969ZM184.561 43V31H187.303V33H187.428C187.646 32.3073 188.021 31.7734 188.553 31.3984C189.089 31.0182 189.701 30.8281 190.389 30.8281C190.545 30.8281 190.719 30.8359 190.912 30.8516C191.11 30.862 191.274 30.8802 191.404 30.9062V33.5078C191.285 33.4661 191.094 33.4297 190.834 33.3984C190.579 33.362 190.331 33.3437 190.092 33.3437C189.576 33.3437 189.113 33.4557 188.701 33.6797C188.295 33.8984 187.975 34.2031 187.74 34.5937C187.506 34.9844 187.389 35.4349 187.389 35.9453V43H184.561ZM193.283 43V31H196.111V43H193.283ZM194.705 29.2969C194.257 29.2969 193.872 29.1484 193.549 28.8516C193.226 28.5495 193.064 28.1875 193.064 27.7656C193.064 27.3385 193.226 26.9766 193.549 26.6797C193.872 26.3776 194.257 26.2266 194.705 26.2266C195.158 26.2266 195.544 26.3776 195.861 26.6797C196.184 26.9766 196.346 27.3385 196.346 27.7656C196.346 28.1875 196.184 28.5495 195.861 28.8516C195.544 29.1484 195.158 29.2969 194.705 29.2969ZM201.848 35.9687V43H199.02V31H201.723V33.0391H201.863C202.139 32.3672 202.579 31.8333 203.184 31.4375C203.793 31.0417 204.546 30.8438 205.441 30.8438C206.27 30.8438 206.991 31.0208 207.605 31.375C208.225 31.7292 208.704 32.2422 209.043 32.9141C209.387 33.5859 209.556 34.401 209.551 35.3594V43H206.723V35.7969C206.723 34.9948 206.514 34.3672 206.098 33.9141C205.686 33.4609 205.116 33.2344 204.387 33.2344C203.892 33.2344 203.452 33.3437 203.066 33.5625C202.686 33.776 202.387 34.0859 202.168 34.4922C201.954 34.8984 201.848 35.3906 201.848 35.9687ZM217.645 47.75C216.629 47.75 215.757 47.612 215.027 47.3359C214.298 47.0651 213.712 46.7005 213.27 46.2422C212.827 45.7839 212.52 45.276 212.348 44.7188L214.895 44.1016C215.009 44.3359 215.176 44.5677 215.395 44.7969C215.613 45.0313 215.908 45.224 216.277 45.375C216.652 45.5313 217.124 45.6094 217.691 45.6094C218.493 45.6094 219.158 45.4141 219.684 45.0234C220.21 44.638 220.473 44.0026 220.473 43.1172V40.8437H220.332C220.186 41.1354 219.973 41.4349 219.691 41.7422C219.415 42.0495 219.048 42.3073 218.59 42.5156C218.137 42.724 217.566 42.8281 216.879 42.8281C215.957 42.8281 215.121 42.612 214.371 42.1797C213.626 41.7422 213.033 41.0911 212.59 40.2266C212.152 39.3568 211.934 38.2682 211.934 36.9609C211.934 35.6432 212.152 34.5312 212.59 33.625C213.033 32.7135 213.629 32.0234 214.379 31.5547C215.129 31.0807 215.965 30.8438 216.887 30.8438C217.59 30.8438 218.168 30.9635 218.621 31.2031C219.079 31.4375 219.444 31.7214 219.715 32.0547C219.986 32.3828 220.191 32.6927 220.332 32.9844H220.488V31H223.277V43.1953C223.277 44.2214 223.033 45.0703 222.543 45.7422C222.053 46.4141 221.384 46.9167 220.535 47.25C219.686 47.5833 218.723 47.75 217.645 47.75ZM217.668 40.6094C218.267 40.6094 218.777 40.4635 219.199 40.1719C219.621 39.8802 219.941 39.4609 220.16 38.9141C220.379 38.3672 220.488 37.7109 220.488 36.9453C220.488 36.1901 220.379 35.5286 220.16 34.9609C219.947 34.3932 219.629 33.9531 219.207 33.6406C218.79 33.3229 218.277 33.1641 217.668 33.1641C217.038 33.1641 216.512 33.3281 216.09 33.6562C215.668 33.9844 215.35 34.4349 215.137 35.0078C214.923 35.5755 214.816 36.2214 214.816 36.9453C214.816 37.6797 214.923 38.3229 215.137 38.875C215.355 39.4219 215.676 39.849 216.098 40.1562C216.525 40.4583 217.048 40.6094 217.668 40.6094Z" fill="white"/>
<path d="M162.119 112.818H163.983L167.224 120.733H167.344L170.585 112.818H172.45V123H170.988V115.632H170.893L167.891 122.985H166.678L163.675 115.627H163.58V123H162.119V112.818ZM176.786 123.169C176.302 123.169 175.865 123.08 175.474 122.901C175.082 122.718 174.773 122.455 174.544 122.11C174.318 121.765 174.206 121.343 174.206 120.842C174.206 120.411 174.289 120.057 174.454 119.778C174.62 119.5 174.844 119.28 175.126 119.117C175.407 118.955 175.722 118.832 176.07 118.749C176.418 118.666 176.773 118.603 177.134 118.56C177.591 118.507 177.963 118.464 178.248 118.431C178.533 118.395 178.74 118.337 178.869 118.257C178.998 118.178 179.063 118.048 179.063 117.869V117.835C179.063 117.4 178.94 117.064 178.695 116.825C178.453 116.587 178.092 116.467 177.611 116.467C177.111 116.467 176.716 116.578 176.428 116.8C176.143 117.019 175.946 117.263 175.836 117.531L174.439 117.213C174.605 116.749 174.847 116.375 175.165 116.089C175.487 115.801 175.856 115.592 176.274 115.463C176.692 115.33 177.131 115.264 177.591 115.264C177.896 115.264 178.22 115.301 178.561 115.374C178.906 115.443 179.227 115.572 179.525 115.761C179.827 115.95 180.074 116.22 180.266 116.572C180.458 116.92 180.555 117.372 180.555 117.929V123H179.103V121.956H179.043C178.947 122.148 178.803 122.337 178.611 122.523C178.418 122.708 178.171 122.862 177.87 122.985C177.568 123.108 177.207 123.169 176.786 123.169ZM177.109 121.976C177.52 121.976 177.872 121.895 178.163 121.732C178.458 121.57 178.682 121.358 178.834 121.096C178.99 120.831 179.068 120.547 179.068 120.246V119.261C179.015 119.314 178.912 119.364 178.76 119.411C178.611 119.454 178.44 119.492 178.248 119.525C178.055 119.555 177.868 119.583 177.686 119.609C177.504 119.633 177.351 119.652 177.229 119.669C176.94 119.705 176.677 119.767 176.438 119.853C176.203 119.939 176.014 120.063 175.871 120.226C175.732 120.385 175.662 120.597 175.662 120.862C175.662 121.23 175.798 121.509 176.07 121.697C176.342 121.883 176.688 121.976 177.109 121.976ZM184.021 118.466V123H182.534V115.364H183.961V116.607H184.056C184.231 116.202 184.507 115.877 184.881 115.632C185.259 115.387 185.734 115.264 186.308 115.264C186.828 115.264 187.284 115.374 187.675 115.592C188.066 115.808 188.369 116.129 188.585 116.557C188.8 116.984 188.908 117.513 188.908 118.143V123H187.422V118.322C187.422 117.768 187.277 117.336 186.989 117.024C186.701 116.709 186.305 116.552 185.801 116.552C185.456 116.552 185.15 116.626 184.881 116.776C184.616 116.925 184.405 117.143 184.25 117.432C184.097 117.717 184.021 118.062 184.021 118.466ZM193.124 123.169C192.64 123.169 192.203 123.08 191.811 122.901C191.42 122.718 191.11 122.455 190.882 122.11C190.656 121.765 190.544 121.343 190.544 120.842C190.544 120.411 190.627 120.057 190.792 119.778C190.958 119.5 191.182 119.28 191.463 119.117C191.745 118.955 192.06 118.832 192.408 118.749C192.756 118.666 193.111 118.603 193.472 118.56C193.929 118.507 194.301 118.464 194.586 118.431C194.871 118.395 195.078 118.337 195.207 118.257C195.336 118.178 195.401 118.048 195.401 117.869V117.835C195.401 117.4 195.278 117.064 195.033 116.825C194.791 116.587 194.43 116.467 193.949 116.467C193.449 116.467 193.054 116.578 192.766 116.8C192.481 117.019 192.284 117.263 192.174 117.531L190.777 117.213C190.943 116.749 191.185 116.375 191.503 116.089C191.825 115.801 192.194 115.592 192.612 115.463C193.029 115.33 193.469 115.264 193.929 115.264C194.234 115.264 194.557 115.301 194.899 115.374C195.243 115.443 195.565 115.572 195.863 115.761C196.165 115.95 196.412 116.22 196.604 116.572C196.796 116.92 196.892 117.372 196.892 117.929V123H195.441V121.956H195.381C195.285 122.148 195.141 122.337 194.949 122.523C194.756 122.708 194.509 122.862 194.208 122.985C193.906 123.108 193.545 123.169 193.124 123.169ZM193.447 121.976C193.858 121.976 194.209 121.895 194.501 121.732C194.796 121.57 195.02 121.358 195.172 121.096C195.328 120.831 195.406 120.547 195.406 120.246V119.261C195.353 119.314 195.25 119.364 195.098 119.411C194.949 119.454 194.778 119.492 194.586 119.525C194.393 119.555 194.206 119.583 194.024 119.609C193.842 119.633 193.689 119.652 193.566 119.669C193.278 119.705 193.015 119.767 192.776 119.853C192.541 119.939 192.352 120.063 192.209 120.226C192.07 120.385 192 120.597 192 120.862C192 121.23 192.136 121.509 192.408 121.697C192.68 121.883 193.026 121.976 193.447 121.976ZM202.074 126.023C201.468 126.023 200.945 125.943 200.508 125.784C200.074 125.625 199.719 125.415 199.444 125.153C199.169 124.891 198.963 124.604 198.828 124.293L200.105 123.766C200.195 123.911 200.314 124.066 200.463 124.228C200.616 124.394 200.821 124.535 201.08 124.651C201.342 124.767 201.678 124.825 202.089 124.825C202.652 124.825 203.118 124.687 203.486 124.412C203.854 124.14 204.038 123.706 204.038 123.109V121.608H203.943C203.854 121.77 203.725 121.951 203.556 122.15C203.39 122.349 203.161 122.521 202.869 122.667C202.578 122.813 202.198 122.886 201.731 122.886C201.128 122.886 200.584 122.745 200.1 122.463C199.62 122.178 199.239 121.759 198.957 121.205C198.678 120.648 198.539 119.964 198.539 119.152C198.539 118.34 198.677 117.644 198.952 117.064C199.23 116.484 199.611 116.04 200.095 115.732C200.579 115.42 201.128 115.264 201.741 115.264C202.215 115.264 202.598 115.344 202.889 115.503C203.181 115.659 203.408 115.841 203.57 116.05C203.736 116.259 203.864 116.442 203.953 116.602H204.063V115.364H205.519V123.169C205.519 123.825 205.367 124.364 205.062 124.785C204.757 125.206 204.344 125.517 203.824 125.719C203.307 125.922 202.724 126.023 202.074 126.023ZM202.059 121.653C202.487 121.653 202.848 121.553 203.143 121.354C203.441 121.152 203.667 120.864 203.819 120.489C203.975 120.112 204.053 119.659 204.053 119.132C204.053 118.618 203.977 118.166 203.824 117.775C203.672 117.384 203.448 117.079 203.153 116.86C202.858 116.638 202.493 116.527 202.059 116.527C201.612 116.527 201.239 116.643 200.941 116.875C200.642 117.104 200.417 117.415 200.264 117.81C200.115 118.204 200.041 118.645 200.041 119.132C200.041 119.633 200.117 120.072 200.269 120.45C200.422 120.827 200.647 121.122 200.945 121.335C201.247 121.547 201.618 121.653 202.059 121.653ZM210.804 123.154C210.052 123.154 209.404 122.993 208.86 122.672C208.32 122.347 207.902 121.891 207.607 121.305C207.316 120.715 207.17 120.024 207.17 119.232C207.17 118.449 207.316 117.76 207.607 117.163C207.902 116.567 208.313 116.101 208.84 115.766C209.371 115.432 209.99 115.264 210.7 115.264C211.131 115.264 211.548 115.335 211.953 115.478C212.357 115.621 212.72 115.844 213.041 116.149C213.363 116.454 213.616 116.85 213.802 117.337C213.988 117.821 214.08 118.41 214.08 119.102V119.629H208.01V118.516H212.624C212.624 118.125 212.544 117.778 212.385 117.477C212.226 117.172 212.002 116.931 211.714 116.756C211.429 116.58 211.094 116.492 210.71 116.492C210.292 116.492 209.927 116.595 209.616 116.8C209.308 117.003 209.069 117.268 208.9 117.596C208.734 117.921 208.651 118.274 208.651 118.655V119.525C208.651 120.035 208.741 120.469 208.92 120.827C209.102 121.185 209.356 121.459 209.681 121.648C210.005 121.833 210.385 121.926 210.819 121.926C211.101 121.926 211.358 121.886 211.59 121.807C211.822 121.724 212.022 121.601 212.191 121.439C212.36 121.277 212.49 121.076 212.579 120.837L213.986 121.091C213.873 121.505 213.671 121.868 213.379 122.18C213.091 122.488 212.728 122.728 212.291 122.901C211.856 123.07 211.361 123.154 210.804 123.154ZM219.554 123V112.818H221.09V117.243H226.166V112.818H227.708V123H226.166V118.56H221.09V123H219.554ZM229.825 123V115.364H231.312V123H229.825ZM230.576 114.185C230.318 114.185 230.096 114.099 229.91 113.927C229.728 113.751 229.637 113.542 229.637 113.3C229.637 113.055 229.728 112.846 229.91 112.674C230.096 112.498 230.318 112.411 230.576 112.411C230.835 112.411 231.055 112.498 231.237 112.674C231.423 112.846 231.516 113.055 231.516 113.3C231.516 113.542 231.423 113.751 231.237 113.927C231.055 114.099 230.835 114.185 230.576 114.185ZM233.312 123V115.364H234.749V116.577H234.828C234.967 116.166 235.213 115.843 235.564 115.607C235.915 115.369 236.316 115.249 236.767 115.249C236.976 115.249 237.163 115.274 237.329 115.324C237.495 115.374 237.64 115.442 237.766 115.528L237.289 116.771C237.2 116.728 237.098 116.693 236.986 116.666C236.873 116.636 236.744 116.621 236.598 116.621C236.253 116.621 235.945 116.696 235.673 116.845C235.405 116.991 235.191 117.193 235.032 117.452C234.876 117.71 234.798 118.005 234.798 118.337V123H233.312ZM238.863 123V115.364H240.349V123H238.863ZM239.613 114.185C239.355 114.185 239.133 114.099 238.947 113.927C238.765 113.751 238.674 113.542 238.674 113.3C238.674 113.055 238.765 112.846 238.947 112.674C239.133 112.498 239.355 112.411 239.613 112.411C239.872 112.411 240.092 112.498 240.275 112.674C240.46 112.846 240.553 113.055 240.553 113.3C240.553 113.542 240.46 113.751 240.275 113.927C240.092 114.099 239.872 114.185 239.613 114.185ZM243.835 118.466V123H242.349V115.364H243.776V116.607H243.87C244.046 116.202 244.321 115.877 244.695 115.632C245.073 115.387 245.549 115.264 246.122 115.264C246.643 115.264 247.098 115.374 247.49 115.592C247.881 115.808 248.184 116.129 248.399 116.557C248.615 116.984 248.722 117.513 248.722 118.143V123H247.236V118.322C247.236 117.768 247.092 117.336 246.803 117.024C246.515 116.709 246.119 116.552 245.615 116.552C245.271 116.552 244.964 116.626 244.695 116.776C244.43 116.925 244.22 117.143 244.064 117.432C243.912 117.717 243.835 118.062 243.835 118.466ZM253.918 126.023C253.311 126.023 252.789 125.943 252.352 125.784C251.918 125.625 251.563 125.415 251.288 125.153C251.013 124.891 250.807 124.604 250.671 124.293L251.949 123.766C252.039 123.911 252.158 124.066 252.307 124.228C252.459 124.394 252.665 124.535 252.923 124.651C253.185 124.767 253.522 124.825 253.933 124.825C254.496 124.825 254.962 124.687 255.33 124.412C255.698 124.14 255.882 123.706 255.882 123.109V121.608H255.787C255.698 121.77 255.568 121.951 255.399 122.15C255.234 122.349 255.005 122.521 254.713 122.667C254.422 122.813 254.042 122.886 253.575 122.886C252.972 122.886 252.428 122.745 251.944 122.463C251.463 122.178 251.082 121.759 250.801 121.205C250.522 120.648 250.383 119.964 250.383 119.152C250.383 118.34 250.521 117.644 250.796 117.064C251.074 116.484 251.455 116.04 251.939 115.732C252.423 115.42 252.972 115.264 253.585 115.264C254.059 115.264 254.441 115.344 254.733 115.503C255.025 115.659 255.252 115.841 255.414 116.05C255.58 116.259 255.708 116.442 255.797 116.602H255.906V115.364H257.363V123.169C257.363 123.825 257.211 124.364 256.906 124.785C256.601 125.206 256.188 125.517 255.668 125.719C255.151 125.922 254.567 126.023 253.918 126.023ZM253.903 121.653C254.33 121.653 254.692 121.553 254.987 121.354C255.285 121.152 255.51 120.864 255.663 120.489C255.819 120.112 255.896 119.659 255.896 119.132C255.896 118.618 255.82 118.166 255.668 117.775C255.515 117.384 255.292 117.079 254.997 116.86C254.702 116.638 254.337 116.527 253.903 116.527C253.455 116.527 253.083 116.643 252.784 116.875C252.486 117.104 252.261 117.415 252.108 117.81C251.959 118.204 251.884 118.645 251.884 119.132C251.884 119.633 251.961 120.072 252.113 120.45C252.266 120.827 252.491 121.122 252.789 121.335C253.091 121.547 253.462 121.653 253.903 121.653Z" fill="white"/>
<path d="M161 125.784H258.357V126.739H161V125.784Z" fill="white"/>
<path fill-rule="evenodd" clip-rule="evenodd" d="M275.53 112.22C275.238 111.927 274.763 111.927 274.47 112.22C274.177 112.513 274.177 112.987 274.47 113.28L278.439 117.25H269.75C269.336 117.25 269 117.586 269 118C269 118.414 269.336 118.75 269.75 118.75H278.439L274.47 122.72C274.177 123.013 274.177 123.487 274.47 123.78C274.763 124.073 275.238 124.073 275.53 123.78L280.78 118.53C281.073 118.237 281.073 117.763 280.78 117.47L275.53 112.22Z" fill="white"/>
</svg>
