<svg width="373" height="150" viewBox="0 0 373 150" fill="none" xmlns="http://www.w3.org/2000/svg">
<rect x="0.5" y="0.5" width="372" height="149" rx="8.5" fill="#0F9970" stroke="#EAECEF"/>
<g opacity="0.5">
<mask id="mask0_173_322" style="mask-type:alpha" maskUnits="userSpaceOnUse" x="1" y="1" width="139" height="148">
<rect x="1" y="1" width="139" height="148" rx="8" fill="white"/>
</mask>
<g mask="url(#mask0_173_322)">
<path d="M96.8271 23H18.0778C13.5713 23 9.9047 26.6666 9.9047 31.1731V49.4632C-5.03405 53.7383 -16 67.5182 -16 83.8116C-16 100.105 -5.03432 113.885 9.9047 118.16V149.628C9.9047 154.135 13.5713 157.802 18.0778 157.802H82.4312C83.1948 157.802 83.9267 157.498 84.4668 156.959L104.157 137.268C104.697 136.728 105 135.996 105 135.233V31.1731C105 26.6666 101.334 23 96.8271 23ZM18.0778 28.7573H96.8271C98.159 28.7573 99.2427 29.841 99.2427 31.1731V39.8609H15.662V31.1731C15.662 29.841 16.7457 28.7573 18.0778 28.7573ZM-10.2427 83.8113C-10.2427 67.2899 3.19831 53.8488 19.7198 53.8488C36.2412 53.8488 49.6822 67.2899 49.6822 83.8113C49.6822 100.333 36.2412 113.774 19.7198 113.774C3.19831 113.774 -10.2427 100.333 -10.2427 83.8113ZM15.662 149.628V119.299C16.9944 119.451 18.3479 119.531 19.72 119.531C30.4491 119.531 40.0876 114.776 46.6408 107.262H64.2788C65.8687 107.262 67.1575 105.974 67.1575 104.384C67.1575 102.794 65.8687 101.505 64.2788 101.505H50.7407C53.2446 97.1323 54.8487 92.1824 55.3038 86.9084H64.2786C65.8684 86.9084 67.1572 85.6196 67.1572 84.0298C67.1572 82.44 65.8684 81.1512 64.2786 81.1512H55.3403C54.951 75.889 53.4157 70.9411 50.985 66.5548H64.2783C65.8681 66.5548 67.1569 65.266 67.1569 63.6762C67.1569 62.0864 65.8681 60.7976 64.2783 60.7976H47.0136C40.4563 53.0327 30.6547 48.0913 19.7192 48.0913C18.347 48.0913 16.9935 48.1719 15.6612 48.3232V45.6181H99.2419V132.353H87.7249C83.2181 132.353 79.552 136.02 79.552 140.526V152.044H18.0778C16.7457 152.044 15.662 150.96 15.662 149.628ZM85.3101 147.973V140.526C85.3101 139.194 86.3939 138.111 87.7257 138.111H95.1718L85.3101 147.973Z" fill="#F5F9FF"/>
<path d="M75.5886 66.555H85.1484C86.7382 66.555 88.027 65.2662 88.027 63.6764C88.027 62.0865 86.7382 60.7977 85.1484 60.7977H75.5886C73.9988 60.7977 72.71 62.0865 72.71 63.6764C72.71 65.2662 73.9988 66.555 75.5886 66.555Z" fill="#F5F9FF"/>
<path d="M75.5886 86.9082H85.1484C86.7382 86.9082 88.027 85.6193 88.027 84.0295C88.027 82.4397 86.7382 81.1509 85.1484 81.1509H75.5886C73.9988 81.1509 72.71 82.4397 72.71 84.0295C72.71 85.6193 73.9988 86.9082 75.5886 86.9082Z" fill="#F5F9FF"/>
<path d="M75.5886 107.263H85.1484C86.7382 107.263 88.027 105.974 88.027 104.384C88.027 102.794 86.7382 101.505 85.1484 101.505H75.5886C73.9988 101.505 72.71 102.794 72.71 104.384C72.71 105.974 73.9988 107.263 75.5886 107.263Z" fill="#F5F9FF"/>
<path d="M85.1484 127.616C86.7382 127.616 88.027 126.327 88.027 124.737C88.027 123.147 86.7382 121.858 85.1484 121.858H58.2195C56.6296 121.858 55.3408 123.147 55.3408 124.737C55.3408 126.327 56.6296 127.616 58.2195 127.616H85.1484Z" fill="#F5F9FF"/>
<path d="M42.0697 69.2899L38.5577 65.778C37.6119 64.8324 36.3546 64.3115 35.017 64.3115C33.6794 64.3115 32.4221 64.8324 31.4763 65.778L13.0557 84.1985L7.96386 79.1066C7.0183 78.1613 5.76074 77.6404 4.42341 77.6404C3.08608 77.6404 1.82853 78.1613 0.882964 79.1069L-2.62979 82.6194C-4.58178 84.5716 -4.58178 87.7483 -2.62952 89.7005L9.51476 101.845C10.4606 102.791 11.7181 103.312 13.0557 103.312H13.056C14.3934 103.312 15.6509 102.791 16.5962 101.845L42.0699 76.3714C44.0219 74.4191 44.0219 71.2422 42.0697 69.2899ZM13.0555 97.2434L1.97164 86.1598L4.42314 83.7083L11.0199 90.305C12.1442 91.4294 13.9668 91.4294 15.0911 90.305L35.017 70.3791L37.4685 72.8306L13.0555 97.2434Z" fill="#F5F9FF"/>
</g>
</g>
<path d="M165.477 27V43H162.578V27H165.477ZM171.318 35.9687V43H168.49V31H171.193V33.0391H171.334C171.61 32.3672 172.05 31.8333 172.654 31.4375C173.264 31.0417 174.016 30.8438 174.912 30.8438C175.74 30.8438 176.462 31.0208 177.076 31.375C177.696 31.7292 178.175 32.2422 178.514 32.9141C178.857 33.5859 179.027 34.401 179.021 35.3594V43H176.193V35.7969C176.193 34.9948 175.985 34.3672 175.568 33.9141C175.157 33.4609 174.587 33.2344 173.857 33.2344C173.363 33.2344 172.923 33.3437 172.537 33.5625C172.157 33.776 171.857 34.0859 171.639 34.4922C171.425 34.8984 171.318 35.3906 171.318 35.9687ZM192.186 31L187.912 43H184.787L180.514 31H183.529L186.287 39.9141H186.412L189.178 31H192.186ZM198.969 43.2344C197.797 43.2344 196.781 42.9766 195.922 42.4609C195.063 41.9453 194.396 41.224 193.922 40.2969C193.453 39.3698 193.219 38.2865 193.219 37.0469C193.219 35.8073 193.453 34.7214 193.922 33.7891C194.396 32.8568 195.063 32.1328 195.922 31.6172C196.781 31.1016 197.797 30.8438 198.969 30.8438C200.141 30.8438 201.156 31.1016 202.016 31.6172C202.875 32.1328 203.539 32.8568 204.008 33.7891C204.482 34.7214 204.719 35.8073 204.719 37.0469C204.719 38.2865 204.482 39.3698 204.008 40.2969C203.539 41.224 202.875 41.9453 202.016 42.4609C201.156 42.9766 200.141 43.2344 198.969 43.2344ZM198.984 40.9687C199.62 40.9687 200.151 40.7943 200.578 40.4453C201.005 40.0911 201.323 39.6172 201.531 39.0234C201.745 38.4297 201.852 37.7682 201.852 37.0391C201.852 36.3047 201.745 35.6406 201.531 35.0469C201.323 34.4479 201.005 33.9714 200.578 33.6172C200.151 33.263 199.62 33.0859 198.984 33.0859C198.333 33.0859 197.792 33.263 197.359 33.6172C196.932 33.9714 196.612 34.4479 196.398 35.0469C196.19 35.6406 196.086 36.3047 196.086 37.0391C196.086 37.7682 196.19 38.4297 196.398 39.0234C196.612 39.6172 196.932 40.0911 197.359 40.4453C197.792 40.7943 198.333 40.9687 198.984 40.9687ZM207.119 43V31H209.947V43H207.119ZM208.541 29.2969C208.093 29.2969 207.708 29.1484 207.385 28.8516C207.062 28.5495 206.9 28.1875 206.9 27.7656C206.9 27.3385 207.062 26.9766 207.385 26.6797C207.708 26.3776 208.093 26.2266 208.541 26.2266C208.994 26.2266 209.38 26.3776 209.697 26.6797C210.02 26.9766 210.182 27.3385 210.182 27.7656C210.182 28.1875 210.02 28.5495 209.697 28.8516C209.38 29.1484 208.994 29.2969 208.541 29.2969ZM218.09 43.2344C216.892 43.2344 215.863 42.9714 215.004 42.4453C214.15 41.9193 213.491 41.1927 213.027 40.2656C212.569 39.3333 212.34 38.2604 212.34 37.0469C212.34 35.8281 212.574 34.7526 213.043 33.8203C213.512 32.8828 214.173 32.1536 215.027 31.6328C215.887 31.1068 216.902 30.8438 218.074 30.8438C219.048 30.8438 219.91 31.0234 220.66 31.3828C221.415 31.737 222.017 32.2396 222.465 32.8906C222.913 33.5365 223.168 34.2917 223.23 35.1562H220.527C220.418 34.5781 220.158 34.0964 219.746 33.7109C219.34 33.3203 218.796 33.125 218.113 33.125C217.535 33.125 217.027 33.2812 216.59 33.5937C216.152 33.901 215.811 34.3437 215.566 34.9219C215.327 35.5 215.207 36.1927 215.207 37C215.207 37.8177 215.327 38.5208 215.566 39.1094C215.806 39.6927 216.142 40.1432 216.574 40.4609C217.012 40.7734 217.525 40.9297 218.113 40.9297C218.53 40.9297 218.902 40.8516 219.23 40.6953C219.564 40.5339 219.842 40.3021 220.066 40C220.29 39.6979 220.444 39.3307 220.527 38.8984H223.23C223.163 39.7474 222.913 40.5 222.48 41.1562C222.048 41.8073 221.46 42.3177 220.715 42.6875C219.97 43.0521 219.095 43.2344 218.09 43.2344ZM230.865 43.2344C229.662 43.2344 228.623 42.9844 227.748 42.4844C226.878 41.9792 226.209 41.2656 225.74 40.3437C225.271 39.4167 225.037 38.3255 225.037 37.0703C225.037 35.8359 225.271 34.7526 225.74 33.8203C226.214 32.8828 226.876 32.1536 227.725 31.6328C228.574 31.1068 229.571 30.8438 230.717 30.8438C231.456 30.8438 232.154 30.9635 232.811 31.2031C233.472 31.4375 234.055 31.8021 234.561 32.2969C235.071 32.7917 235.472 33.4219 235.764 34.1875C236.055 34.9479 236.201 35.8542 236.201 36.9062V37.7734H226.365V35.8672H233.49C233.485 35.3255 233.368 34.8437 233.139 34.4219C232.91 33.9948 232.589 33.6589 232.178 33.4141C231.771 33.1693 231.298 33.0469 230.756 33.0469C230.178 33.0469 229.67 33.1875 229.232 33.4687C228.795 33.7448 228.454 34.1094 228.209 34.5625C227.969 35.0104 227.847 35.5026 227.842 36.0391V37.7031C227.842 38.401 227.969 39 228.225 39.5C228.48 39.9948 228.837 40.375 229.295 40.6406C229.753 40.901 230.29 41.0312 230.904 41.0312C231.316 41.0312 231.688 40.974 232.021 40.8594C232.355 40.7396 232.644 40.5651 232.889 40.3359C233.133 40.1068 233.318 39.8229 233.443 39.4844L236.084 39.7812C235.917 40.4792 235.6 41.0885 235.131 41.6094C234.667 42.125 234.074 42.526 233.35 42.8125C232.626 43.0937 231.798 43.2344 230.865 43.2344Z" fill="white"/>
<path d="M162.119 112.818H163.983L167.224 120.733H167.344L170.585 112.818H172.45V123H170.988V115.632H170.893L167.891 122.985H166.678L163.675 115.627H163.58V123H162.119V112.818ZM176.786 123.169C176.302 123.169 175.865 123.08 175.474 122.901C175.082 122.718 174.773 122.455 174.544 122.11C174.318 121.765 174.206 121.343 174.206 120.842C174.206 120.411 174.289 120.057 174.454 119.778C174.62 119.5 174.844 119.28 175.126 119.117C175.407 118.955 175.722 118.832 176.07 118.749C176.418 118.666 176.773 118.603 177.134 118.56C177.591 118.507 177.963 118.464 178.248 118.431C178.533 118.395 178.74 118.337 178.869 118.257C178.998 118.178 179.063 118.048 179.063 117.869V117.835C179.063 117.4 178.94 117.064 178.695 116.825C178.453 116.587 178.092 116.467 177.611 116.467C177.111 116.467 176.716 116.578 176.428 116.8C176.143 117.019 175.946 117.263 175.836 117.531L174.439 117.213C174.605 116.749 174.847 116.375 175.165 116.089C175.487 115.801 175.856 115.592 176.274 115.463C176.692 115.33 177.131 115.264 177.591 115.264C177.896 115.264 178.22 115.301 178.561 115.374C178.906 115.443 179.227 115.572 179.525 115.761C179.827 115.95 180.074 116.22 180.266 116.572C180.458 116.92 180.555 117.372 180.555 117.929V123H179.103V121.956H179.043C178.947 122.148 178.803 122.337 178.611 122.523C178.418 122.708 178.171 122.862 177.87 122.985C177.568 123.108 177.207 123.169 176.786 123.169ZM177.109 121.976C177.52 121.976 177.872 121.895 178.163 121.732C178.458 121.57 178.682 121.358 178.834 121.096C178.99 120.831 179.068 120.547 179.068 120.246V119.261C179.015 119.314 178.912 119.364 178.76 119.411C178.611 119.454 178.44 119.492 178.248 119.525C178.055 119.555 177.868 119.583 177.686 119.609C177.504 119.633 177.351 119.652 177.229 119.669C176.94 119.705 176.677 119.767 176.438 119.853C176.203 119.939 176.014 120.063 175.871 120.226C175.732 120.385 175.662 120.597 175.662 120.862C175.662 121.23 175.798 121.509 176.07 121.697C176.342 121.883 176.688 121.976 177.109 121.976ZM184.021 118.466V123H182.534V115.364H183.961V116.607H184.056C184.231 116.202 184.507 115.877 184.881 115.632C185.259 115.387 185.734 115.264 186.308 115.264C186.828 115.264 187.284 115.374 187.675 115.592C188.066 115.808 188.369 116.129 188.585 116.557C188.8 116.984 188.908 117.513 188.908 118.143V123H187.422V118.322C187.422 117.768 187.277 117.336 186.989 117.024C186.701 116.709 186.305 116.552 185.801 116.552C185.456 116.552 185.15 116.626 184.881 116.776C184.616 116.925 184.405 117.143 184.25 117.432C184.097 117.717 184.021 118.062 184.021 118.466ZM193.124 123.169C192.64 123.169 192.203 123.08 191.811 122.901C191.42 122.718 191.11 122.455 190.882 122.11C190.656 121.765 190.544 121.343 190.544 120.842C190.544 120.411 190.627 120.057 190.792 119.778C190.958 119.5 191.182 119.28 191.463 119.117C191.745 118.955 192.06 118.832 192.408 118.749C192.756 118.666 193.111 118.603 193.472 118.56C193.929 118.507 194.301 118.464 194.586 118.431C194.871 118.395 195.078 118.337 195.207 118.257C195.336 118.178 195.401 118.048 195.401 117.869V117.835C195.401 117.4 195.278 117.064 195.033 116.825C194.791 116.587 194.43 116.467 193.949 116.467C193.449 116.467 193.054 116.578 192.766 116.8C192.481 117.019 192.284 117.263 192.174 117.531L190.777 117.213C190.943 116.749 191.185 116.375 191.503 116.089C191.825 115.801 192.194 115.592 192.612 115.463C193.029 115.33 193.469 115.264 193.929 115.264C194.234 115.264 194.557 115.301 194.899 115.374C195.243 115.443 195.565 115.572 195.863 115.761C196.165 115.95 196.412 116.22 196.604 116.572C196.796 116.92 196.892 117.372 196.892 117.929V123H195.441V121.956H195.381C195.285 122.148 195.141 122.337 194.949 122.523C194.756 122.708 194.509 122.862 194.208 122.985C193.906 123.108 193.545 123.169 193.124 123.169ZM193.447 121.976C193.858 121.976 194.209 121.895 194.501 121.732C194.796 121.57 195.02 121.358 195.172 121.096C195.328 120.831 195.406 120.547 195.406 120.246V119.261C195.353 119.314 195.25 119.364 195.098 119.411C194.949 119.454 194.778 119.492 194.586 119.525C194.393 119.555 194.206 119.583 194.024 119.609C193.842 119.633 193.689 119.652 193.566 119.669C193.278 119.705 193.015 119.767 192.776 119.853C192.541 119.939 192.352 120.063 192.209 120.226C192.07 120.385 192 120.597 192 120.862C192 121.23 192.136 121.509 192.408 121.697C192.68 121.883 193.026 121.976 193.447 121.976ZM202.074 126.023C201.468 126.023 200.945 125.943 200.508 125.784C200.074 125.625 199.719 125.415 199.444 125.153C199.169 124.891 198.963 124.604 198.828 124.293L200.105 123.766C200.195 123.911 200.314 124.066 200.463 124.228C200.616 124.394 200.821 124.535 201.08 124.651C201.342 124.767 201.678 124.825 202.089 124.825C202.652 124.825 203.118 124.687 203.486 124.412C203.854 124.14 204.038 123.706 204.038 123.109V121.608H203.943C203.854 121.77 203.725 121.951 203.556 122.15C203.39 122.349 203.161 122.521 202.869 122.667C202.578 122.813 202.198 122.886 201.731 122.886C201.128 122.886 200.584 122.745 200.1 122.463C199.62 122.178 199.239 121.759 198.957 121.205C198.678 120.648 198.539 119.964 198.539 119.152C198.539 118.34 198.677 117.644 198.952 117.064C199.23 116.484 199.611 116.04 200.095 115.732C200.579 115.42 201.128 115.264 201.741 115.264C202.215 115.264 202.598 115.344 202.889 115.503C203.181 115.659 203.408 115.841 203.57 116.05C203.736 116.259 203.864 116.442 203.953 116.602H204.063V115.364H205.519V123.169C205.519 123.825 205.367 124.364 205.062 124.785C204.757 125.206 204.344 125.517 203.824 125.719C203.307 125.922 202.724 126.023 202.074 126.023ZM202.059 121.653C202.487 121.653 202.848 121.553 203.143 121.354C203.441 121.152 203.667 120.864 203.819 120.489C203.975 120.112 204.053 119.659 204.053 119.132C204.053 118.618 203.977 118.166 203.824 117.775C203.672 117.384 203.448 117.079 203.153 116.86C202.858 116.638 202.493 116.527 202.059 116.527C201.612 116.527 201.239 116.643 200.941 116.875C200.642 117.104 200.417 117.415 200.264 117.81C200.115 118.204 200.041 118.645 200.041 119.132C200.041 119.633 200.117 120.072 200.269 120.45C200.422 120.827 200.647 121.122 200.945 121.335C201.247 121.547 201.618 121.653 202.059 121.653ZM210.804 123.154C210.052 123.154 209.404 122.993 208.86 122.672C208.32 122.347 207.902 121.891 207.607 121.305C207.316 120.715 207.17 120.024 207.17 119.232C207.17 118.449 207.316 117.76 207.607 117.163C207.902 116.567 208.313 116.101 208.84 115.766C209.371 115.432 209.99 115.264 210.7 115.264C211.131 115.264 211.548 115.335 211.953 115.478C212.357 115.621 212.72 115.844 213.041 116.149C213.363 116.454 213.616 116.85 213.802 117.337C213.988 117.821 214.08 118.41 214.08 119.102V119.629H208.01V118.516H212.624C212.624 118.125 212.544 117.778 212.385 117.477C212.226 117.172 212.002 116.931 211.714 116.756C211.429 116.58 211.094 116.492 210.71 116.492C210.292 116.492 209.927 116.595 209.616 116.8C209.308 117.003 209.069 117.268 208.9 117.596C208.734 117.921 208.651 118.274 208.651 118.655V119.525C208.651 120.035 208.741 120.469 208.92 120.827C209.102 121.185 209.356 121.459 209.681 121.648C210.005 121.833 210.385 121.926 210.819 121.926C211.101 121.926 211.358 121.886 211.59 121.807C211.822 121.724 212.022 121.601 212.191 121.439C212.36 121.277 212.49 121.076 212.579 120.837L213.986 121.091C213.873 121.505 213.671 121.868 213.379 122.18C213.091 122.488 212.728 122.728 212.291 122.901C211.856 123.07 211.361 123.154 210.804 123.154ZM219.052 114.141V112.818H224.193V114.141H219.052ZM219.052 123V121.678H224.193V123H219.052ZM222.393 112.818V123H220.852V112.818H222.393ZM227.292 118.466V123H225.806V115.364H227.233V116.607H227.327C227.503 116.202 227.778 115.877 228.153 115.632C228.53 115.387 229.006 115.264 229.579 115.264C230.1 115.264 230.555 115.374 230.947 115.592C231.338 115.808 231.641 116.129 231.856 116.557C232.072 116.984 232.18 117.513 232.18 118.143V123H230.693V118.322C230.693 117.768 230.549 117.336 230.26 117.024C229.972 116.709 229.576 116.552 229.072 116.552C228.728 116.552 228.421 116.626 228.153 116.776C227.887 116.925 227.677 117.143 227.521 117.432C227.369 117.717 227.292 118.062 227.292 118.466ZM240.432 115.364L237.663 123H236.072L233.298 115.364H234.894L236.828 121.24H236.907L238.836 115.364H240.432ZM244.786 123.154C244.07 123.154 243.446 122.99 242.912 122.662C242.378 122.334 241.964 121.875 241.669 121.285C241.374 120.695 241.227 120.005 241.227 119.217C241.227 118.424 241.374 117.732 241.669 117.138C241.964 116.545 242.378 116.085 242.912 115.756C243.446 115.428 244.07 115.264 244.786 115.264C245.502 115.264 246.127 115.428 246.661 115.756C247.194 116.085 247.608 116.545 247.903 117.138C248.198 117.732 248.346 118.424 248.346 119.217C248.346 120.005 248.198 120.695 247.903 121.285C247.608 121.875 247.194 122.334 246.661 122.662C246.127 122.99 245.502 123.154 244.786 123.154ZM244.791 121.906C245.255 121.906 245.64 121.784 245.945 121.538C246.25 121.293 246.475 120.967 246.621 120.559C246.77 120.151 246.844 119.702 246.844 119.212C246.844 118.724 246.77 118.277 246.621 117.869C246.475 117.458 246.25 117.129 245.945 116.88C245.64 116.631 245.255 116.507 244.791 116.507C244.324 116.507 243.936 116.631 243.628 116.88C243.323 117.129 243.096 117.458 242.947 117.869C242.801 118.277 242.728 118.724 242.728 119.212C242.728 119.702 242.801 120.151 242.947 120.559C243.096 120.967 243.323 121.293 243.628 121.538C243.936 121.784 244.324 121.906 244.791 121.906ZM250.005 123V115.364H251.492V123H250.005ZM250.756 114.185C250.497 114.185 250.275 114.099 250.09 113.927C249.907 113.751 249.816 113.542 249.816 113.3C249.816 113.055 249.907 112.846 250.09 112.674C250.275 112.498 250.497 112.411 250.756 112.411C251.014 112.411 251.235 112.498 251.417 112.674C251.603 112.846 251.695 113.055 251.695 113.3C251.695 113.542 251.603 113.751 251.417 113.927C251.235 114.099 251.014 114.185 250.756 114.185ZM256.708 123.154C255.969 123.154 255.333 122.987 254.799 122.652C254.269 122.314 253.861 121.848 253.576 121.255C253.291 120.662 253.148 119.982 253.148 119.217C253.148 118.441 253.294 117.757 253.586 117.163C253.878 116.567 254.289 116.101 254.819 115.766C255.349 115.432 255.974 115.264 256.693 115.264C257.273 115.264 257.79 115.372 258.244 115.587C258.698 115.799 259.065 116.098 259.343 116.482C259.625 116.867 259.792 117.316 259.845 117.83H258.398C258.319 117.472 258.137 117.163 257.852 116.905C257.57 116.646 257.192 116.517 256.718 116.517C256.304 116.517 255.941 116.626 255.629 116.845C255.321 117.061 255.081 117.369 254.908 117.77C254.736 118.168 254.65 118.638 254.65 119.182C254.65 119.739 254.734 120.219 254.903 120.624C255.072 121.028 255.311 121.341 255.619 121.563C255.931 121.785 256.297 121.896 256.718 121.896C257 121.896 257.255 121.845 257.484 121.742C257.716 121.636 257.91 121.485 258.065 121.29C258.224 121.094 258.335 120.859 258.398 120.584H259.845C259.792 121.078 259.631 121.518 259.363 121.906C259.094 122.294 258.735 122.599 258.284 122.821C257.837 123.043 257.311 123.154 256.708 123.154ZM264.726 123.154C263.974 123.154 263.326 122.993 262.782 122.672C262.242 122.347 261.824 121.891 261.529 121.305C261.238 120.715 261.092 120.024 261.092 119.232C261.092 118.449 261.238 117.76 261.529 117.163C261.824 116.567 262.235 116.101 262.762 115.766C263.293 115.432 263.912 115.264 264.622 115.264C265.052 115.264 265.47 115.335 265.874 115.478C266.279 115.621 266.642 115.844 266.963 116.149C267.285 116.454 267.538 116.85 267.724 117.337C267.91 117.821 268.002 118.41 268.002 119.102V119.629H261.932V118.516H266.546C266.546 118.125 266.466 117.778 266.307 117.477C266.148 117.172 265.924 116.931 265.636 116.756C265.351 116.58 265.016 116.492 264.632 116.492C264.214 116.492 263.849 116.595 263.538 116.8C263.23 117.003 262.991 117.268 262.822 117.596C262.656 117.921 262.573 118.274 262.573 118.655V119.525C262.573 120.035 262.663 120.469 262.842 120.827C263.024 121.185 263.278 121.459 263.602 121.648C263.927 121.833 264.307 121.926 264.741 121.926C265.023 121.926 265.28 121.886 265.512 121.807C265.744 121.724 265.944 121.601 266.113 121.439C266.282 121.277 266.411 121.076 266.501 120.837L267.908 121.091C267.795 121.505 267.593 121.868 267.301 122.18C267.013 122.488 266.65 122.728 266.213 122.901C265.778 123.07 265.283 123.154 264.726 123.154ZM275.374 117.228L274.027 117.467C273.97 117.294 273.881 117.13 273.758 116.974C273.639 116.819 273.476 116.691 273.271 116.592C273.065 116.492 272.809 116.442 272.5 116.442C272.079 116.442 271.728 116.537 271.446 116.726C271.165 116.911 271.024 117.152 271.024 117.447C271.024 117.702 271.118 117.907 271.307 118.063C271.496 118.219 271.801 118.347 272.222 118.446L273.435 118.724C274.138 118.887 274.661 119.137 275.006 119.475C275.351 119.813 275.523 120.252 275.523 120.793C275.523 121.25 275.391 121.658 275.125 122.016C274.864 122.37 274.497 122.649 274.027 122.851C273.559 123.053 273.017 123.154 272.401 123.154C271.546 123.154 270.848 122.972 270.308 122.607C269.768 122.239 269.436 121.717 269.314 121.041L270.75 120.822C270.84 121.197 271.024 121.48 271.302 121.673C271.581 121.862 271.944 121.956 272.391 121.956C272.878 121.956 273.268 121.855 273.559 121.653C273.851 121.447 273.997 121.197 273.997 120.902C273.997 120.663 273.907 120.463 273.728 120.3C273.553 120.138 273.283 120.015 272.918 119.933L271.625 119.649C270.913 119.487 270.386 119.228 270.044 118.874C269.706 118.519 269.537 118.07 269.537 117.526C269.537 117.076 269.663 116.681 269.915 116.343C270.167 116.005 270.515 115.741 270.959 115.553C271.403 115.36 271.912 115.264 272.485 115.264C273.311 115.264 273.96 115.443 274.434 115.801C274.908 116.156 275.221 116.631 275.374 117.228Z" fill="white"/>
<path d="M161 125.784H276.154V126.739H161V125.784Z" fill="white"/>
<path fill-rule="evenodd" clip-rule="evenodd" d="M293.53 112.22C293.238 111.927 292.763 111.927 292.47 112.22C292.177 112.513 292.177 112.987 292.47 113.28L296.439 117.25H287.75C287.336 117.25 287 117.586 287 118C287 118.414 287.336 118.75 287.75 118.75H296.439L292.47 122.72C292.177 123.013 292.177 123.487 292.47 123.78C292.763 124.073 293.238 124.073 293.53 123.78L298.78 118.53C299.073 118.237 299.073 117.763 298.78 117.47L293.53 112.22Z" fill="white"/>
</svg>
