<svg width="373" height="150" viewBox="0 0 373 150" fill="none" xmlns="http://www.w3.org/2000/svg">
<rect x="0.5" y="0.5" width="372" height="149" rx="8.5" fill="#473198" stroke="#EAECEF"/>
<g opacity="0.5">
<mask id="mask0_173_253" style="mask-type:alpha" maskUnits="userSpaceOnUse" x="1" y="1" width="139" height="148">
<rect x="1" y="1" width="139" height="148" rx="8" fill="white"/>
</mask>
<g mask="url(#mask0_173_253)">
<path d="M115.562 35.7248H104.125V31.1498C104.125 28.723 103.161 26.3957 101.445 24.6797C99.7291 22.9638 97.4017 21.9998 94.975 21.9998C92.5483 21.9998 90.2209 22.9638 88.505 24.6797C86.789 26.3957 85.825 28.723 85.825 31.1498V35.7248H67.525V31.1498C67.525 28.723 66.561 26.3957 64.845 24.6797C63.1291 22.9638 60.8017 21.9998 58.375 21.9998C55.9483 21.9998 53.6209 22.9638 51.905 24.6797C50.189 26.3957 49.225 28.723 49.225 31.1498V35.7248H30.925V31.1498C30.925 28.723 29.961 26.3957 28.245 24.6797C26.5291 22.9638 24.2017 21.9998 21.775 21.9998C19.3483 21.9998 17.0209 22.9638 15.305 24.6797C13.589 26.3957 12.625 28.723 12.625 31.1498V35.7248H1.1875C-1.84591 35.7248 -4.75509 36.9298 -6.90003 39.0747C-9.04498 41.2197 -10.25 44.1288 -10.25 47.1623V138.662C-10.25 141.696 -9.04498 144.605 -6.90003 146.75C-4.75509 148.895 -1.84591 150.1 1.1875 150.1H65.2375C65.8442 150.1 66.426 149.859 66.855 149.43C67.284 149.001 67.525 148.419 67.525 147.812C67.525 147.206 67.284 146.624 66.855 146.195C66.426 145.766 65.8442 145.525 65.2375 145.525H1.1875C-0.630878 145.519 -2.37323 144.795 -3.65902 143.509C-4.94481 142.223 -5.66957 140.481 -5.675 138.662V67.7498H122.425V106.637C122.425 107.244 122.666 107.826 123.095 108.255C123.524 108.684 124.106 108.925 124.712 108.925C125.319 108.925 125.901 108.684 126.33 108.255C126.759 107.826 127 107.244 127 106.637V47.1623C127 44.1288 125.795 41.2197 123.65 39.0747C121.505 36.9298 118.596 35.7248 115.562 35.7248ZM90.4 31.1498C90.4 29.9364 90.882 28.7727 91.74 27.9147C92.598 27.0568 93.7616 26.5748 94.975 26.5748C96.1884 26.5748 97.352 27.0568 98.21 27.9147C99.068 28.7727 99.55 29.9364 99.55 31.1498V44.8748C99.55 46.0881 99.068 47.2518 98.21 48.1098C97.352 48.9677 96.1884 49.4498 94.975 49.4498C93.7616 49.4498 92.598 48.9677 91.74 48.1098C90.882 47.2518 90.4 46.0881 90.4 44.8748V31.1498ZM53.8 31.1498C53.8 29.9364 54.282 28.7727 55.14 27.9147C55.998 27.0568 57.1616 26.5748 58.375 26.5748C59.5884 26.5748 60.752 27.0568 61.61 27.9147C62.468 28.7727 62.95 29.9364 62.95 31.1498V44.8748C62.95 46.0881 62.468 47.2518 61.61 48.1098C60.752 48.9677 59.5884 49.4498 58.375 49.4498C57.1616 49.4498 55.998 48.9677 55.14 48.1098C54.282 47.2518 53.8 46.0881 53.8 44.8748V31.1498ZM17.2 31.1498C17.2 29.9364 17.682 28.7727 18.54 27.9147C19.398 27.0568 20.5616 26.5748 21.775 26.5748C22.9884 26.5748 24.152 27.0568 25.01 27.9147C25.868 28.7727 26.35 29.9364 26.35 31.1498V44.8748C26.35 46.0881 25.868 47.2518 25.01 48.1098C24.152 48.9677 22.9884 49.4498 21.775 49.4498C20.5616 49.4498 19.398 48.9677 18.54 48.1098C17.682 47.2518 17.2 46.0881 17.2 44.8748V31.1498ZM122.425 63.1748H-5.675V47.1623C-5.66957 45.3439 -4.94481 43.6015 -3.65902 42.3157C-2.37323 41.0299 -0.630878 40.3052 1.1875 40.2998H12.625V44.8748C12.625 47.3015 13.589 49.6288 15.305 51.3448C17.0209 53.0607 19.3483 54.0248 21.775 54.0248C24.2017 54.0248 26.5291 53.0607 28.245 51.3448C29.961 49.6288 30.925 47.3015 30.925 44.8748V40.2998H49.225V44.8748C49.225 47.3015 50.189 49.6288 51.905 51.3448C53.6209 53.0607 55.9483 54.0248 58.375 54.0248C60.8017 54.0248 63.1291 53.0607 64.845 51.3448C66.561 49.6288 67.525 47.3015 67.525 44.8748V40.2998H85.825V44.8748C85.825 47.3015 86.789 49.6288 88.505 51.3448C90.2209 53.0607 92.5483 54.0248 94.975 54.0248C97.4017 54.0248 99.7291 53.0607 101.445 51.3448C103.161 49.6288 104.125 47.3015 104.125 44.8748V40.2998H115.562C117.381 40.3052 119.123 41.0299 120.409 42.3157C121.695 43.6015 122.42 45.3439 122.425 47.1623V63.1748Z" fill="#F5F9FF"/>
<path d="M53.8 83.7627C53.8 82.5494 53.318 81.3857 52.46 80.5277C51.602 79.6698 50.4384 79.1877 49.225 79.1877H40.075C38.8616 79.1877 37.698 79.6698 36.84 80.5277C35.982 81.3857 35.5 82.5494 35.5 83.7627V90.6252C35.5 91.8386 35.982 93.0023 36.84 93.8603C37.698 94.7182 38.8616 95.2002 40.075 95.2002H49.225C50.4384 95.2002 51.602 94.7182 52.46 93.8603C53.318 93.0023 53.8 91.8386 53.8 90.6252V83.7627ZM40.075 90.6252V83.7627H49.225V90.6252H40.075Z" fill="#F5F9FF"/>
<path d="M26.3498 83.7627C26.3498 82.5494 25.8678 81.3857 25.0098 80.5277C24.1518 79.6698 22.9882 79.1877 21.7748 79.1877H12.6248C11.4114 79.1877 10.2478 79.6698 9.38979 80.5277C8.53181 81.3857 8.0498 82.5494 8.0498 83.7627V90.6252C8.0498 91.8386 8.53181 93.0023 9.38979 93.8603C10.2478 94.7182 11.4114 95.2002 12.6248 95.2002H21.7748C22.9882 95.2002 24.1518 94.7182 25.0098 93.8603C25.8678 93.0023 26.3498 91.8386 26.3498 90.6252V83.7627ZM12.6248 90.6252V83.7627H21.7748V90.6252H12.6248Z" fill="#F5F9FF"/>
<path d="M104.125 95.2002C105.339 95.2002 106.502 94.7182 107.36 93.8603C108.218 93.0023 108.7 91.8386 108.7 90.6252V83.7627C108.7 82.5494 108.218 81.3857 107.36 80.5277C106.502 79.6698 105.339 79.1877 104.125 79.1877H94.9754C93.762 79.1877 92.5984 79.6698 91.7404 80.5277C90.8824 81.3857 90.4004 82.5494 90.4004 83.7627V90.6252C90.4004 91.8386 90.8824 93.0023 91.7404 93.8603C92.5984 94.7182 93.762 95.2002 94.9754 95.2002H104.125ZM94.9754 83.7627H104.125V90.6252H94.9754V83.7627Z" fill="#F5F9FF"/>
<path d="M53.8 104.35C53.8 103.137 53.318 101.973 52.46 101.115C51.602 100.257 50.4384 99.7754 49.225 99.7754H40.075C38.8616 99.7754 37.698 100.257 36.84 101.115C35.982 101.973 35.5 103.137 35.5 104.35V111.213C35.5 112.426 35.982 113.59 36.84 114.448C37.698 115.306 38.8616 115.788 40.075 115.788H49.225C50.4384 115.788 51.602 115.306 52.46 114.448C53.318 113.59 53.8 112.426 53.8 111.213V104.35ZM40.075 111.213V104.35H49.225V111.213H40.075Z" fill="#F5F9FF"/>
<path d="M26.3498 104.35C26.3498 103.137 25.8678 101.973 25.0098 101.115C24.1518 100.257 22.9882 99.7754 21.7748 99.7754H12.6248C11.4114 99.7754 10.2478 100.257 9.38979 101.115C8.53181 101.973 8.0498 103.137 8.0498 104.35V111.213C8.0498 112.426 8.53181 113.59 9.38979 114.448C10.2478 115.306 11.4114 115.788 12.6248 115.788H21.7748C22.9882 115.788 24.1518 115.306 25.0098 114.448C25.8678 113.59 26.3498 112.426 26.3498 111.213V104.35ZM12.6248 111.213V104.35H21.7748V111.213H12.6248Z" fill="#F5F9FF"/>
<path d="M49.225 120.363H40.075C38.8616 120.363 37.698 120.845 36.84 121.703C35.982 122.561 35.5 123.724 35.5 124.938V131.8C35.5 133.014 35.982 134.177 36.84 135.035C37.698 135.893 38.8616 136.375 40.075 136.375H49.225C50.4384 136.375 51.602 135.893 52.46 135.035C53.318 134.177 53.8 133.014 53.8 131.8V124.938C53.8 123.724 53.318 122.561 52.46 121.703C51.602 120.845 50.4384 120.363 49.225 120.363ZM40.075 131.8V124.938H49.225V131.8H40.075Z" fill="#F5F9FF"/>
<path d="M67.5252 95.2002H76.6752C77.8886 95.2002 79.0522 94.7182 79.9102 93.8603C80.7682 93.0023 81.2502 91.8386 81.2502 90.6252V83.7627C81.2502 82.5494 80.7682 81.3857 79.9102 80.5277C79.0522 79.6698 77.8886 79.1877 76.6752 79.1877H67.5252C66.3118 79.1877 65.1482 79.6698 64.2902 80.5277C63.4322 81.3857 62.9502 82.5494 62.9502 83.7627V90.6252C62.9502 91.8386 63.4322 93.0023 64.2902 93.8603C65.1482 94.7182 66.3118 95.2002 67.5252 95.2002ZM67.5252 83.7627H76.6752V90.6252H67.5252V83.7627Z" fill="#F5F9FF"/>
<path d="M62.9502 111.213C62.9502 112.426 63.4322 113.59 64.2902 114.448C65.1482 115.306 66.3118 115.788 67.5252 115.788C68.1319 115.788 68.7137 115.547 69.1427 115.118C69.5717 114.689 69.8127 114.107 69.8127 113.5C69.8127 112.894 69.5717 112.312 69.1427 111.883C68.7137 111.454 68.1319 111.213 67.5252 111.213V104.35H76.6752C77.2819 104.35 77.8637 104.109 78.2927 103.68C78.7217 103.251 78.9627 102.67 78.9627 102.063C78.9627 101.456 78.7217 100.874 78.2927 100.445C77.8637 100.016 77.2819 99.7754 76.6752 99.7754H67.5252C66.3118 99.7754 65.1482 100.257 64.2902 101.115C63.4322 101.973 62.9502 103.137 62.9502 104.35V111.213Z" fill="#F5F9FF"/>
<path d="M21.7748 120.363H12.6248C11.4114 120.363 10.2478 120.845 9.38979 121.703C8.53181 122.561 8.0498 123.724 8.0498 124.938V131.8C8.0498 133.014 8.53181 134.177 9.38979 135.035C10.2478 135.893 11.4114 136.375 12.6248 136.375H21.7748C22.9882 136.375 24.1518 135.893 25.0098 135.035C25.8678 134.177 26.3498 133.014 26.3498 131.8V124.938C26.3498 123.724 25.8678 122.561 25.0098 121.703C24.1518 120.845 22.9882 120.363 21.7748 120.363V120.363ZM12.6248 131.8V124.938H21.7748V131.8H12.6248Z" fill="#F5F9FF"/>
<path d="M97.2619 99.7754C91.3804 99.7754 85.631 101.519 80.7407 104.787C75.8504 108.055 72.0388 112.699 69.7881 118.133C67.5373 123.567 66.9484 129.546 68.0958 135.314C69.2433 141.083 72.0755 146.382 76.2343 150.54C80.3932 154.699 85.6919 157.532 91.4604 158.679C97.2289 159.826 103.208 159.238 108.642 156.987C114.076 154.736 118.72 150.924 121.988 146.034C125.255 141.144 126.999 135.394 126.999 129.513C126.99 121.629 123.854 114.07 118.279 108.495C112.705 102.92 105.146 99.7845 97.2619 99.7754V99.7754ZM97.2619 154.675C92.2853 154.675 87.4204 153.2 83.2824 150.435C79.1444 147.67 75.9193 143.74 74.0148 139.142C72.1103 134.544 71.612 129.485 72.5829 124.604C73.5538 119.723 75.9503 115.239 79.4694 111.72C82.9884 108.201 87.4719 105.805 92.353 104.834C97.234 103.863 102.293 104.361 106.891 106.266C111.489 108.17 115.419 111.395 118.184 115.533C120.949 119.671 122.424 124.536 122.424 129.513C122.417 136.184 119.763 142.58 115.046 147.297C110.329 152.014 103.933 154.668 97.2619 154.675Z" fill="#F5F9FF"/>
<path d="M110.48 119.923L92.6876 137.715L84.6013 129.627C84.1698 129.21 83.592 128.98 82.9922 128.985C82.3925 128.99 81.8187 129.231 81.3946 129.655C80.9705 130.079 80.7299 130.653 80.7247 131.252C80.7195 131.852 80.9501 132.43 81.3667 132.861L91.0703 142.567C91.4993 142.996 92.081 143.237 92.6876 143.237C93.2941 143.237 93.8759 142.996 94.3048 142.567L113.714 123.158C114.131 122.726 114.362 122.149 114.356 121.549C114.351 120.949 114.111 120.375 113.686 119.951C113.262 119.527 112.689 119.286 112.089 119.281C111.489 119.276 110.911 119.507 110.48 119.923Z" fill="#F5F9FF"/>
</g>
</g>
<path d="M168.891 27H171.766V38.25C171.76 39.2812 171.542 40.1693 171.109 40.9141C170.677 41.6536 170.073 42.224 169.297 42.625C168.526 43.0208 167.628 43.2187 166.602 43.2187C165.664 43.2187 164.82 43.0521 164.07 42.7187C163.326 42.3802 162.734 41.8802 162.297 41.2187C161.859 40.5573 161.641 39.7344 161.641 38.75H164.523C164.529 39.1823 164.622 39.5547 164.805 39.8672C164.992 40.1797 165.25 40.4193 165.578 40.5859C165.906 40.7526 166.284 40.8359 166.711 40.8359C167.174 40.8359 167.568 40.7396 167.891 40.5469C168.214 40.349 168.458 40.0573 168.625 39.6719C168.797 39.2865 168.885 38.8125 168.891 38.25V27ZM180.02 43.2344C178.848 43.2344 177.832 42.9766 176.973 42.4609C176.113 41.9453 175.447 41.224 174.973 40.2969C174.504 39.3698 174.27 38.2865 174.27 37.0469C174.27 35.8073 174.504 34.7214 174.973 33.7891C175.447 32.8568 176.113 32.1328 176.973 31.6172C177.832 31.1016 178.848 30.8438 180.02 30.8438C181.191 30.8438 182.207 31.1016 183.066 31.6172C183.926 32.1328 184.59 32.8568 185.059 33.7891C185.533 34.7214 185.77 35.8073 185.77 37.0469C185.77 38.2865 185.533 39.3698 185.059 40.2969C184.59 41.224 183.926 41.9453 183.066 42.4609C182.207 42.9766 181.191 43.2344 180.02 43.2344ZM180.035 40.9687C180.671 40.9687 181.202 40.7943 181.629 40.4453C182.056 40.0911 182.374 39.6172 182.582 39.0234C182.796 38.4297 182.902 37.7682 182.902 37.0391C182.902 36.3047 182.796 35.6406 182.582 35.0469C182.374 34.4479 182.056 33.9714 181.629 33.6172C181.202 33.263 180.671 33.0859 180.035 33.0859C179.384 33.0859 178.842 33.263 178.41 33.6172C177.983 33.9714 177.663 34.4479 177.449 35.0469C177.241 35.6406 177.137 36.3047 177.137 37.0391C177.137 37.7682 177.241 38.4297 177.449 39.0234C177.663 39.6172 177.983 40.0911 178.41 40.4453C178.842 40.7943 179.384 40.9687 180.035 40.9687ZM188.295 43V27H191.123V32.9844H191.24C191.386 32.6927 191.592 32.3828 191.857 32.0547C192.123 31.7214 192.482 31.4375 192.936 31.2031C193.389 30.9635 193.967 30.8438 194.67 30.8438C195.597 30.8438 196.433 31.0807 197.178 31.5547C197.928 32.0234 198.521 32.7187 198.959 33.6406C199.402 34.5573 199.623 35.6823 199.623 37.0156C199.623 38.3333 199.407 39.4531 198.975 40.375C198.542 41.2969 197.954 42 197.209 42.4844C196.464 42.9688 195.62 43.2109 194.678 43.2109C193.99 43.2109 193.42 43.0964 192.967 42.8672C192.514 42.638 192.149 42.362 191.873 42.0391C191.602 41.7109 191.391 41.401 191.24 41.1094H191.076V43H188.295ZM191.068 37C191.068 37.776 191.178 38.4557 191.396 39.0391C191.62 39.6224 191.941 40.0781 192.357 40.4062C192.779 40.7292 193.29 40.8906 193.889 40.8906C194.514 40.8906 195.037 40.724 195.459 40.3906C195.881 40.0521 196.199 39.5911 196.412 39.0078C196.631 38.4193 196.74 37.75 196.74 37C196.74 36.2552 196.633 35.5937 196.42 35.0156C196.206 34.4375 195.889 33.9844 195.467 33.6562C195.045 33.3281 194.519 33.1641 193.889 33.1641C193.285 33.1641 192.771 33.3229 192.35 33.6406C191.928 33.9583 191.607 34.4036 191.389 34.9766C191.175 35.5495 191.068 36.224 191.068 37ZM211.512 34.1719L208.934 34.4531C208.861 34.1927 208.733 33.9479 208.551 33.7188C208.374 33.4896 208.134 33.3047 207.832 33.1641C207.53 33.0234 207.16 32.9531 206.723 32.9531C206.134 32.9531 205.639 33.0807 205.238 33.3359C204.842 33.5911 204.647 33.9219 204.652 34.3281C204.647 34.6771 204.775 34.9609 205.035 35.1797C205.301 35.3984 205.738 35.5781 206.348 35.7188L208.395 36.1562C209.53 36.401 210.374 36.7891 210.926 37.3203C211.483 37.8516 211.764 38.5469 211.77 39.4062C211.764 40.1615 211.543 40.8281 211.105 41.4062C210.673 41.9792 210.072 42.4271 209.301 42.75C208.53 43.0729 207.645 43.2344 206.645 43.2344C205.176 43.2344 203.993 42.9271 203.098 42.3125C202.202 41.6927 201.668 40.8307 201.496 39.7266L204.254 39.4609C204.379 40.0026 204.645 40.4115 205.051 40.6875C205.457 40.9635 205.986 41.1016 206.637 41.1016C207.309 41.1016 207.848 40.9635 208.254 40.6875C208.665 40.4115 208.871 40.0703 208.871 39.6641C208.871 39.3203 208.738 39.0365 208.473 38.8125C208.212 38.5885 207.806 38.4167 207.254 38.2969L205.207 37.8672C204.056 37.6276 203.204 37.224 202.652 36.6562C202.1 36.0833 201.827 35.3594 201.832 34.4844C201.827 33.7448 202.027 33.1042 202.434 32.5625C202.845 32.0156 203.415 31.5937 204.145 31.2969C204.879 30.9948 205.725 30.8438 206.684 30.8438C208.09 30.8438 209.197 31.1432 210.004 31.7422C210.816 32.3411 211.319 33.151 211.512 34.1719Z" fill="white"/>
<path d="M162.119 112.818H163.983L167.224 120.733H167.344L170.585 112.818H172.45V123H170.988V115.632H170.893L167.891 122.985H166.678L163.675 115.627H163.58V123H162.119V112.818ZM176.786 123.169C176.302 123.169 175.865 123.08 175.474 122.901C175.082 122.718 174.773 122.455 174.544 122.11C174.318 121.765 174.206 121.343 174.206 120.842C174.206 120.411 174.289 120.057 174.454 119.778C174.62 119.5 174.844 119.28 175.126 119.117C175.407 118.955 175.722 118.832 176.07 118.749C176.418 118.666 176.773 118.603 177.134 118.56C177.591 118.507 177.963 118.464 178.248 118.431C178.533 118.395 178.74 118.337 178.869 118.257C178.998 118.178 179.063 118.048 179.063 117.869V117.835C179.063 117.4 178.94 117.064 178.695 116.825C178.453 116.587 178.092 116.467 177.611 116.467C177.111 116.467 176.716 116.578 176.428 116.8C176.143 117.019 175.946 117.263 175.836 117.531L174.439 117.213C174.605 116.749 174.847 116.375 175.165 116.089C175.487 115.801 175.856 115.592 176.274 115.463C176.692 115.33 177.131 115.264 177.591 115.264C177.896 115.264 178.22 115.301 178.561 115.374C178.906 115.443 179.227 115.572 179.525 115.761C179.827 115.95 180.074 116.22 180.266 116.572C180.458 116.92 180.555 117.372 180.555 117.929V123H179.103V121.956H179.043C178.947 122.148 178.803 122.337 178.611 122.523C178.418 122.708 178.171 122.862 177.87 122.985C177.568 123.108 177.207 123.169 176.786 123.169ZM177.109 121.976C177.52 121.976 177.872 121.895 178.163 121.732C178.458 121.57 178.682 121.358 178.834 121.096C178.99 120.831 179.068 120.547 179.068 120.246V119.261C179.015 119.314 178.912 119.364 178.76 119.411C178.611 119.454 178.44 119.492 178.248 119.525C178.055 119.555 177.868 119.583 177.686 119.609C177.504 119.633 177.351 119.652 177.229 119.669C176.94 119.705 176.677 119.767 176.438 119.853C176.203 119.939 176.014 120.063 175.871 120.226C175.732 120.385 175.662 120.597 175.662 120.862C175.662 121.23 175.798 121.509 176.07 121.697C176.342 121.883 176.688 121.976 177.109 121.976ZM184.021 118.466V123H182.534V115.364H183.961V116.607H184.056C184.231 116.202 184.507 115.877 184.881 115.632C185.259 115.387 185.734 115.264 186.308 115.264C186.828 115.264 187.284 115.374 187.675 115.592C188.066 115.808 188.369 116.129 188.585 116.557C188.8 116.984 188.908 117.513 188.908 118.143V123H187.422V118.322C187.422 117.768 187.277 117.336 186.989 117.024C186.701 116.709 186.305 116.552 185.801 116.552C185.456 116.552 185.15 116.626 184.881 116.776C184.616 116.925 184.405 117.143 184.25 117.432C184.097 117.717 184.021 118.062 184.021 118.466ZM193.124 123.169C192.64 123.169 192.203 123.08 191.811 122.901C191.42 122.718 191.11 122.455 190.882 122.11C190.656 121.765 190.544 121.343 190.544 120.842C190.544 120.411 190.627 120.057 190.792 119.778C190.958 119.5 191.182 119.28 191.463 119.117C191.745 118.955 192.06 118.832 192.408 118.749C192.756 118.666 193.111 118.603 193.472 118.56C193.929 118.507 194.301 118.464 194.586 118.431C194.871 118.395 195.078 118.337 195.207 118.257C195.336 118.178 195.401 118.048 195.401 117.869V117.835C195.401 117.4 195.278 117.064 195.033 116.825C194.791 116.587 194.43 116.467 193.949 116.467C193.449 116.467 193.054 116.578 192.766 116.8C192.481 117.019 192.284 117.263 192.174 117.531L190.777 117.213C190.943 116.749 191.185 116.375 191.503 116.089C191.825 115.801 192.194 115.592 192.612 115.463C193.029 115.33 193.469 115.264 193.929 115.264C194.234 115.264 194.557 115.301 194.899 115.374C195.243 115.443 195.565 115.572 195.863 115.761C196.165 115.95 196.412 116.22 196.604 116.572C196.796 116.92 196.892 117.372 196.892 117.929V123H195.441V121.956H195.381C195.285 122.148 195.141 122.337 194.949 122.523C194.756 122.708 194.509 122.862 194.208 122.985C193.906 123.108 193.545 123.169 193.124 123.169ZM193.447 121.976C193.858 121.976 194.209 121.895 194.501 121.732C194.796 121.57 195.02 121.358 195.172 121.096C195.328 120.831 195.406 120.547 195.406 120.246V119.261C195.353 119.314 195.25 119.364 195.098 119.411C194.949 119.454 194.778 119.492 194.586 119.525C194.393 119.555 194.206 119.583 194.024 119.609C193.842 119.633 193.689 119.652 193.566 119.669C193.278 119.705 193.015 119.767 192.776 119.853C192.541 119.939 192.352 120.063 192.209 120.226C192.07 120.385 192 120.597 192 120.862C192 121.23 192.136 121.509 192.408 121.697C192.68 121.883 193.026 121.976 193.447 121.976ZM202.074 126.023C201.468 126.023 200.945 125.943 200.508 125.784C200.074 125.625 199.719 125.415 199.444 125.153C199.169 124.891 198.963 124.604 198.828 124.293L200.105 123.766C200.195 123.911 200.314 124.066 200.463 124.228C200.616 124.394 200.821 124.535 201.08 124.651C201.342 124.767 201.678 124.825 202.089 124.825C202.652 124.825 203.118 124.687 203.486 124.412C203.854 124.14 204.038 123.706 204.038 123.109V121.608H203.943C203.854 121.77 203.725 121.951 203.556 122.15C203.39 122.349 203.161 122.521 202.869 122.667C202.578 122.813 202.198 122.886 201.731 122.886C201.128 122.886 200.584 122.745 200.1 122.463C199.62 122.178 199.239 121.759 198.957 121.205C198.678 120.648 198.539 119.964 198.539 119.152C198.539 118.34 198.677 117.644 198.952 117.064C199.23 116.484 199.611 116.04 200.095 115.732C200.579 115.42 201.128 115.264 201.741 115.264C202.215 115.264 202.598 115.344 202.889 115.503C203.181 115.659 203.408 115.841 203.57 116.05C203.736 116.259 203.864 116.442 203.953 116.602H204.063V115.364H205.519V123.169C205.519 123.825 205.367 124.364 205.062 124.785C204.757 125.206 204.344 125.517 203.824 125.719C203.307 125.922 202.724 126.023 202.074 126.023ZM202.059 121.653C202.487 121.653 202.848 121.553 203.143 121.354C203.441 121.152 203.667 120.864 203.819 120.489C203.975 120.112 204.053 119.659 204.053 119.132C204.053 118.618 203.977 118.166 203.824 117.775C203.672 117.384 203.448 117.079 203.153 116.86C202.858 116.638 202.493 116.527 202.059 116.527C201.612 116.527 201.239 116.643 200.941 116.875C200.642 117.104 200.417 117.415 200.264 117.81C200.115 118.204 200.041 118.645 200.041 119.132C200.041 119.633 200.117 120.072 200.269 120.45C200.422 120.827 200.647 121.122 200.945 121.335C201.247 121.547 201.618 121.653 202.059 121.653ZM210.804 123.154C210.052 123.154 209.404 122.993 208.86 122.672C208.32 122.347 207.902 121.891 207.607 121.305C207.316 120.715 207.17 120.024 207.17 119.232C207.17 118.449 207.316 117.76 207.607 117.163C207.902 116.567 208.313 116.101 208.84 115.766C209.371 115.432 209.99 115.264 210.7 115.264C211.131 115.264 211.548 115.335 211.953 115.478C212.357 115.621 212.72 115.844 213.041 116.149C213.363 116.454 213.616 116.85 213.802 117.337C213.988 117.821 214.08 118.41 214.08 119.102V119.629H208.01V118.516H212.624C212.624 118.125 212.544 117.778 212.385 117.477C212.226 117.172 212.002 116.931 211.714 116.756C211.429 116.58 211.094 116.492 210.71 116.492C210.292 116.492 209.927 116.595 209.616 116.8C209.308 117.003 209.069 117.268 208.9 117.596C208.734 117.921 208.651 118.274 208.651 118.655V119.525C208.651 120.035 208.741 120.469 208.92 120.827C209.102 121.185 209.356 121.459 209.681 121.648C210.005 121.833 210.385 121.926 210.819 121.926C211.101 121.926 211.358 121.886 211.59 121.807C211.822 121.724 212.022 121.601 212.191 121.439C212.36 121.277 212.49 121.076 212.579 120.837L213.986 121.091C213.873 121.505 213.671 121.868 213.379 122.18C213.091 122.488 212.728 122.728 212.291 122.901C211.856 123.07 211.361 123.154 210.804 123.154ZM223.512 112.818H225.043V120.037C225.043 120.69 224.914 121.248 224.655 121.712C224.4 122.176 224.04 122.531 223.576 122.776C223.112 123.018 222.569 123.139 221.945 123.139C221.372 123.139 220.857 123.035 220.399 122.826C219.945 122.617 219.586 122.314 219.32 121.916C219.059 121.515 218.928 121.028 218.928 120.455H220.454C220.454 120.736 220.519 120.98 220.648 121.185C220.78 121.391 220.961 121.552 221.19 121.668C221.422 121.78 221.687 121.837 221.985 121.837C222.31 121.837 222.585 121.769 222.811 121.633C223.039 121.494 223.213 121.29 223.333 121.021C223.452 120.753 223.512 120.425 223.512 120.037V112.818ZM230.376 123.154C229.66 123.154 229.035 122.99 228.502 122.662C227.968 122.334 227.554 121.875 227.259 121.285C226.964 120.695 226.816 120.005 226.816 119.217C226.816 118.424 226.964 117.732 227.259 117.138C227.554 116.545 227.968 116.085 228.502 115.756C229.035 115.428 229.66 115.264 230.376 115.264C231.092 115.264 231.717 115.428 232.25 115.756C232.784 116.085 233.198 116.545 233.493 117.138C233.788 117.732 233.936 118.424 233.936 119.217C233.936 120.005 233.788 120.695 233.493 121.285C233.198 121.875 232.784 122.334 232.25 122.662C231.717 122.99 231.092 123.154 230.376 123.154ZM230.381 121.906C230.845 121.906 231.23 121.784 231.534 121.538C231.839 121.293 232.065 120.967 232.211 120.559C232.36 120.151 232.434 119.702 232.434 119.212C232.434 118.724 232.36 118.277 232.211 117.869C232.065 117.458 231.839 117.129 231.534 116.88C231.23 116.631 230.845 116.507 230.381 116.507C229.914 116.507 229.526 116.631 229.218 116.88C228.913 117.129 228.686 117.458 228.537 117.869C228.391 118.277 228.318 118.724 228.318 119.212C228.318 119.702 228.391 120.151 228.537 120.559C228.686 120.967 228.913 121.293 229.218 121.538C229.526 121.784 229.914 121.906 230.381 121.906ZM235.714 123V112.818H237.201V116.602H237.29C237.376 116.442 237.501 116.259 237.663 116.05C237.826 115.841 238.051 115.659 238.339 115.503C238.628 115.344 239.009 115.264 239.483 115.264C240.099 115.264 240.649 115.42 241.133 115.732C241.617 116.043 241.997 116.492 242.272 117.079C242.55 117.665 242.689 118.371 242.689 119.197C242.689 120.022 242.552 120.73 242.277 121.32C242.002 121.906 241.624 122.359 241.143 122.677C240.663 122.992 240.114 123.149 239.498 123.149C239.034 123.149 238.654 123.071 238.359 122.915C238.068 122.76 237.839 122.577 237.673 122.369C237.507 122.16 237.38 121.974 237.29 121.812H237.166V123H235.714ZM237.171 119.182C237.171 119.719 237.249 120.189 237.405 120.594C237.56 120.998 237.786 121.315 238.081 121.543C238.376 121.769 238.737 121.881 239.165 121.881C239.609 121.881 239.98 121.764 240.278 121.528C240.577 121.29 240.802 120.967 240.954 120.559C241.11 120.151 241.188 119.692 241.188 119.182C241.188 118.678 241.112 118.226 240.959 117.825C240.81 117.424 240.585 117.107 240.283 116.875C239.985 116.643 239.612 116.527 239.165 116.527C238.734 116.527 238.369 116.638 238.071 116.86C237.776 117.082 237.552 117.392 237.4 117.79C237.247 118.187 237.171 118.652 237.171 119.182ZM250.081 117.228L248.734 117.467C248.677 117.294 248.588 117.13 248.465 116.974C248.346 116.819 248.183 116.691 247.978 116.592C247.772 116.492 247.516 116.442 247.207 116.442C246.786 116.442 246.435 116.537 246.153 116.726C245.872 116.911 245.731 117.152 245.731 117.447C245.731 117.702 245.825 117.907 246.014 118.063C246.203 118.219 246.508 118.347 246.929 118.446L248.142 118.724C248.845 118.887 249.368 119.137 249.713 119.475C250.058 119.813 250.23 120.252 250.23 120.793C250.23 121.25 250.098 121.658 249.832 122.016C249.571 122.37 249.204 122.649 248.734 122.851C248.266 123.053 247.724 123.154 247.108 123.154C246.253 123.154 245.555 122.972 245.015 122.607C244.475 122.239 244.143 121.717 244.021 121.041L245.457 120.822C245.547 121.197 245.731 121.48 246.009 121.673C246.288 121.862 246.651 121.956 247.098 121.956C247.585 121.956 247.975 121.855 248.266 121.653C248.558 121.447 248.704 121.197 248.704 120.902C248.704 120.663 248.614 120.463 248.435 120.3C248.26 120.138 247.99 120.015 247.625 119.933L246.332 119.649C245.62 119.487 245.093 119.228 244.751 118.874C244.413 118.519 244.244 118.07 244.244 117.526C244.244 117.076 244.37 116.681 244.622 116.343C244.874 116.005 245.222 115.741 245.666 115.553C246.11 115.36 246.619 115.264 247.192 115.264C248.018 115.264 248.667 115.443 249.141 115.801C249.615 116.156 249.929 116.631 250.081 117.228Z" fill="white"/>
<path d="M161 125.784H250.862V126.739H161V125.784Z" fill="white"/>
<path fill-rule="evenodd" clip-rule="evenodd" d="M267.53 112.22C267.238 111.927 266.763 111.927 266.47 112.22C266.177 112.513 266.177 112.987 266.47 113.28L270.439 117.25H261.75C261.336 117.25 261 117.586 261 118C261 118.414 261.336 118.75 261.75 118.75H270.439L266.47 122.72C266.177 123.013 266.177 123.487 266.47 123.78C266.763 124.073 267.238 124.073 267.53 123.78L272.78 118.53C273.073 118.237 273.073 117.763 272.78 117.47L267.53 112.22Z" fill="white"/>
</svg>
