<svg width="373" height="150" viewBox="0 0 373 150" fill="none" xmlns="http://www.w3.org/2000/svg">
<rect x="0.5" y="0.5" width="372" height="149" rx="8.5" fill="#F97D0B" stroke="#EAECEF"/>
<g opacity="0.5">
<mask id="mask0_6134_13050" style="mask-type:alpha" maskUnits="userSpaceOnUse" x="1" y="1" width="139" height="148">
<rect x="1" y="1" width="139" height="148" rx="8" fill="white"/>
</mask>
<g mask="url(#mask0_6134_13050)">
<path d="M60.6039 126.851H13.246C11.8589 126.851 10.5546 126.303 9.5712 125.319C8.59817 124.326 8.05989 123.021 8.08059 121.624C8.1013 119.409 8.1634 117.183 8.26692 115.02C8.66027 106.335 9.56085 99.4303 10.9376 94.4927C11.6518 91.9462 12.5214 89.8656 13.6704 87.9505C14.6745 86.2736 16.9207 83.075 20.7922 80.4457C21.3408 80.0731 21.8998 79.7315 22.4588 79.4209C27.0859 76.8124 31.5267 76.4294 34.4354 76.5536C34.9219 76.5743 35.3878 76.7399 35.7811 77.0297L47.1988 85.3523L59.2686 76.9987C59.6516 76.7295 60.1071 76.5846 60.5729 76.5639C63.4816 76.4293 67.9224 76.8227 72.5495 79.4313C73.1085 79.7418 73.6675 80.0938 74.2058 80.4561C78.0772 83.0853 80.3338 86.2839 81.3276 87.9609C82.1971 89.4204 82.8803 90.9111 83.4807 92.6501C83.9258 93.944 83.2322 95.3622 81.9383 95.8073C80.6444 96.2524 79.2262 95.5589 78.7811 94.2649C78.3049 92.8675 77.7563 91.6771 77.0628 90.5177C76.4313 89.4515 74.6095 86.7498 71.4109 84.576C70.9865 84.2861 70.5413 84.017 70.1066 83.7685C66.8873 81.957 63.7922 81.5223 61.5563 81.5223C61.5252 81.5223 61.5045 81.5223 61.4735 81.5223L48.5652 90.4659C47.6957 91.0663 46.5363 91.056 45.6875 90.4349L33.4727 81.5223C31.2368 81.5119 28.121 81.9467 24.881 83.7685C24.4463 84.017 24.0012 84.2861 23.5767 84.576C20.3885 86.7498 18.5563 89.4515 17.9248 90.5177C16.9932 92.0704 16.31 93.7163 15.72 95.8591C14.4571 100.362 13.5979 107.08 13.2253 115.268C13.1321 117.38 13.07 119.554 13.0493 121.707C13.0493 121.727 13.0493 121.789 13.1114 121.852C13.1735 121.914 13.2356 121.914 13.2563 121.914H60.6143C61.991 121.914 63.0986 123.021 63.0986 124.398C63.0986 125.775 61.9807 126.851 60.6039 126.851Z" fill="#F5F9FF"/>
<path d="M83.1597 105.134C81.783 105.134 80.6754 104.027 80.6754 102.65C80.6754 101.273 81.783 100.166 83.1597 100.166C84.5365 100.166 85.6441 101.273 85.6441 102.65C85.6441 104.027 84.5365 105.134 83.1597 105.134Z" fill="#F5F9FF"/>
<path d="M26.1231 126.851C24.7464 126.851 23.6388 125.744 23.6388 124.367V103.623C23.6388 102.246 24.7464 101.138 26.1231 101.138C27.4999 101.138 28.6075 102.246 28.6075 103.623V124.367C28.6075 125.744 27.4895 126.851 26.1231 126.851Z" fill="#F5F9FF"/>
<path d="M47.6017 77.4957C42.3535 77.4957 37.4262 75.2494 33.7307 71.1606C30.1077 67.1442 28.1099 61.8339 28.1099 56.182V48.2321C28.1099 47.1763 28.7827 46.2343 29.7868 45.8823C30.7185 45.5511 33.4927 44.34 34.9936 42.6734C35.8735 41.69 37.3434 41.5554 38.3682 42.3835C38.5028 42.4767 40.511 43.9466 43.9683 44.6919C48.7404 45.7167 53.8954 44.9403 59.2885 42.4042C59.3299 42.3835 59.3713 42.3628 59.4231 42.3421C60.3651 41.9591 61.4416 42.1972 62.1455 42.9322C62.8908 43.7189 64.5263 45.2612 65.9031 46.1101C66.6381 46.5655 67.0832 47.3626 67.0832 48.2218V56.1924C67.0832 61.8339 65.0853 67.1546 61.4623 71.171C57.7772 75.2494 52.8499 77.4957 47.6017 77.4957ZM33.0786 49.8987V56.1924C33.0786 65.1982 39.5897 72.527 47.6017 72.527C55.6137 72.527 62.1145 65.1982 62.1145 56.1924V49.5468C61.2553 48.905 60.4479 48.2011 59.8164 47.611C52.4255 50.6854 46.4216 50.3542 42.6019 49.4846C40.2108 48.936 38.3578 48.1286 37.126 47.4558C35.7286 48.5634 34.2069 49.3811 33.0786 49.8987Z" fill="#F5F9FF"/>
<path d="M30.6054 50.7164C29.6427 50.7164 28.7317 50.1574 28.328 49.2154C27.3861 47.0313 27.2411 44.7229 27.1169 42.6837C27.0134 41.0171 26.8788 38.9468 27.3654 36.9075C27.7898 35.1167 28.8353 33.2224 30.564 31.1107C30.8331 30.7795 31.1126 30.4586 31.4024 30.1584C36.0399 25.2 43.6482 23.254 45.1285 22.9124C48.0165 22.2499 50.7907 22.0118 53.3682 22.2085C55.1797 22.343 56.7118 22.6018 58.0678 22.9745C59.9725 23.5024 61.4631 24.5375 62.374 25.9557C62.8295 26.6596 63.109 27.3738 63.347 27.9949C63.5437 28.5125 63.7301 28.999 63.9474 29.2474C64.2683 29.6305 64.7134 29.9824 65.231 30.3861C65.821 30.8519 66.4939 31.3799 67.1046 32.0734C68.5745 33.7296 70.2308 36.4935 70.4792 39.3091C70.7173 41.928 69.6925 44.195 68.7712 45.8719C68.7505 45.9133 68.6884 46.0168 68.6159 46.1721C67.0529 49.1947 66.7009 49.6709 66.2765 50.0642C65.2621 50.9855 63.6886 50.9131 62.7674 49.8986C61.9082 48.9566 61.9082 47.5385 62.726 46.5965C62.8605 46.3895 63.2332 45.758 64.1959 43.8844C64.2994 43.6774 64.3718 43.5428 64.4029 43.4911C64.9826 42.4249 65.6347 41.0481 65.5209 39.7645C65.407 38.481 64.5168 36.6695 63.3678 35.3755C63.0469 35.0132 62.6017 34.6613 62.1359 34.2886C61.5045 33.7917 60.7799 33.2224 60.1381 32.4564C59.3824 31.5662 58.9994 30.5828 58.6992 29.7857C58.5336 29.3406 58.368 28.9266 58.192 28.6471C57.8711 28.1605 57.2086 27.8914 56.7118 27.7465C55.6766 27.4566 54.4551 27.26 52.9749 27.1461C50.8942 26.9908 48.6273 27.1875 46.2257 27.7361C42.8304 28.5125 37.8514 30.5 35.0254 33.533C34.8184 33.7607 34.601 33.9988 34.4043 34.2472C32.8827 36.1105 32.3651 37.3423 32.1891 38.0462C31.8786 39.3608 31.9718 40.955 32.0649 42.3628C32.1684 44.0811 32.2823 45.8512 32.8827 47.2383C33.4313 48.5012 32.8516 49.9607 31.5887 50.5094C31.2679 50.6543 30.9263 50.7164 30.6054 50.7164Z" fill="#F5F9FF"/>
<path d="M37.3744 83.7586C37.0224 83.7586 36.6601 83.6862 36.3185 83.5206C35.0764 82.9409 34.5381 81.4606 35.1281 80.2184C35.5939 79.2144 36.391 77.2165 36.4531 75.0427C36.4738 74.2146 36.3806 73.8626 36.184 73.1691C36.1426 73.0138 36.1011 72.8482 36.0494 72.6826C35.7078 71.3576 36.4945 70.0015 37.8298 69.6496C39.1548 69.2976 40.5109 70.0947 40.8628 71.4301C40.9042 71.575 40.9353 71.7095 40.9767 71.8441C41.2044 72.6619 41.4632 73.5935 41.4218 75.1669C41.339 78.2413 40.2624 80.9741 39.631 82.3198C39.1962 83.2204 38.306 83.7586 37.3744 83.7586Z" fill="#F5F9FF"/>
<path d="M57.4469 83.7678C56.5464 83.7678 55.6768 83.271 55.2317 82.4221C53.9378 79.9067 53.2235 77.2775 53.1614 74.8138C53.1304 73.5302 53.296 72.6918 53.4616 72.0293C53.8032 70.7043 55.1489 69.8969 56.4843 70.2281C57.8092 70.5697 58.6167 71.9154 58.2854 73.2507C58.1922 73.6027 58.1198 73.9753 58.1405 74.6792C58.1922 76.8531 58.9997 78.8509 59.6622 80.1448C60.2936 81.3663 59.8071 82.8673 58.5856 83.4883C58.2129 83.6747 57.8299 83.7678 57.4469 83.7678Z" fill="#F5F9FF"/>
<path d="M122.352 117.616H102.446C101.069 117.616 99.9618 116.509 99.9618 115.132C99.9618 113.755 101.069 112.648 102.446 112.648H122.031C121.959 107.482 121.586 98.2695 119.899 92.245C119.423 90.568 118.895 89.2741 118.17 88.0526C117.57 87.0485 115.841 84.5331 112.736 82.7837C110.262 81.3966 107.891 81.0447 106.162 81.0343L104.216 82.38C104.185 82.4007 104.154 82.4214 104.123 82.4421L95.873 88.1561C95.0035 88.7565 93.8441 88.7462 92.9953 88.1251L83.2649 81.0343C81.5362 81.0447 79.1864 81.407 76.7228 82.7837C75.9154 83.2392 75.1493 83.7775 74.4247 84.3882C73.3792 85.2784 71.8162 85.1542 70.9259 84.1087C70.0357 83.0632 70.1599 81.5001 71.2054 80.6099C72.1681 79.7818 73.2136 79.0572 74.2902 78.4568C78.1306 76.2934 81.8053 75.9725 84.2172 76.0863C84.7037 76.107 85.1696 76.2727 85.5629 76.5625L94.4962 83.0736L101.307 78.3533C101.318 78.3429 101.328 78.3429 101.339 78.3326L103.947 76.5211C104.33 76.252 104.775 76.107 105.241 76.0863C107.643 75.9725 111.328 76.2934 115.168 78.4568C119.319 80.7859 121.627 84.1708 122.435 85.5165C123.387 87.1003 124.101 88.8186 124.681 90.9096C126.555 97.607 126.948 107.575 127 112.917C127.01 114.169 126.534 115.349 125.654 116.24C124.774 117.13 123.605 117.616 122.352 117.616Z" fill="#F5F9FF"/>
<path d="M111.97 117.617C110.593 117.617 109.485 116.509 109.485 115.132V98.4043C109.485 97.0275 110.593 95.9199 111.97 95.9199C113.346 95.9199 114.454 97.0275 114.454 98.4043V115.143C114.454 116.509 113.336 117.617 111.97 117.617Z" fill="#F5F9FF"/>
<path d="M94.8072 77.804C90.4285 77.804 86.3293 75.9303 83.2653 72.5351C80.2634 69.2122 78.6071 64.8025 78.6071 60.134V53.7161C78.6071 52.6602 79.28 51.7183 80.284 51.3663C81.0087 51.1075 83.1411 50.1759 84.2797 48.913C85.17 47.9296 86.6295 47.7847 87.6543 48.6232C87.7889 48.7163 89.3519 49.8446 92.033 50.4036C95.7698 51.1903 99.8069 50.5796 104.041 48.5818C105.014 48.1263 106.163 48.3437 106.908 49.12C107.332 49.5755 108.699 50.9005 109.837 51.6044C110.572 52.0599 111.018 52.8569 111.018 53.7161V60.134C111.018 64.8025 109.361 69.2122 106.359 72.5351C103.275 75.9303 99.1755 77.804 94.8072 77.804ZM83.5758 55.362V60.134C83.5758 67.1316 88.617 72.8352 94.8072 72.8352C100.997 72.8352 106.039 67.1419 106.039 60.134V55.01C105.5 54.596 104.993 54.1612 104.558 53.7678C95.8113 57.3184 89.383 55.1756 86.4121 53.6436C85.4287 54.3993 84.4039 54.9686 83.5758 55.362Z" fill="#F5F9FF"/>
<path d="M81.0911 56.2012C80.1284 56.2012 79.2174 55.6422 78.8137 54.7003C78.0167 52.8577 77.8924 50.8702 77.7993 49.2657C77.7165 47.889 77.6026 46.1706 78.0167 44.4627C78.379 42.941 79.2588 41.3572 80.6977 39.5975C80.9151 39.3283 81.1532 39.0592 81.3913 38.8004C85.2316 34.7012 91.4839 33.0967 92.7054 32.8173C95.0862 32.2686 97.3739 32.0719 99.496 32.2376C100.987 32.3514 102.26 32.5585 103.378 32.8794C105.024 33.3452 106.318 34.2458 107.125 35.4879C107.518 36.0987 107.756 36.7198 107.953 37.227C108.088 37.5686 108.233 37.9619 108.357 38.0965C108.585 38.3656 108.926 38.6348 109.319 38.9557C109.806 39.3387 110.365 39.7838 110.893 40.3738C112.125 41.7713 113.522 44.1004 113.74 46.4812C113.947 48.7482 113.015 50.746 112.301 52.0503C112.29 52.0813 112.239 52.1641 112.187 52.2677C110.945 54.6589 110.624 55.1557 110.199 55.5491C109.185 56.4704 107.612 56.3979 106.69 55.3938C105.841 54.4622 105.831 53.0544 106.628 52.1227C106.742 51.9364 107.042 51.4292 107.777 49.9903C107.86 49.8247 107.922 49.7108 107.943 49.6694C108.595 48.479 108.854 47.6406 108.792 46.9367C108.709 46.005 108.026 44.6386 107.177 43.6759C106.949 43.4172 106.618 43.1584 106.245 42.8685C105.717 42.4545 105.117 41.9783 104.558 41.3158C103.895 40.5394 103.574 39.701 103.316 39.0281C103.191 38.6969 103.067 38.3863 102.953 38.2C102.819 37.993 102.488 37.8067 102.032 37.6721C101.235 37.4444 100.272 37.2891 99.113 37.2063C97.4878 37.0821 95.7073 37.2373 93.813 37.6721C91.1423 38.2828 87.2295 39.8459 85.0246 42.206C84.859 42.382 84.6934 42.5683 84.5484 42.7547C83.3787 44.1832 82.9854 45.1044 82.8612 45.6324C82.6231 46.6261 82.6955 47.8165 82.768 48.9759C82.8508 50.3216 82.9336 51.7087 83.3891 52.7438C83.9377 54.0067 83.358 55.4663 82.0951 56.0149C81.7535 56.1391 81.4223 56.2012 81.0911 56.2012Z" fill="#F5F9FF"/>
<path d="M86.557 82.8458C86.2051 82.8458 85.8428 82.7733 85.5012 82.6077C84.259 82.028 83.7207 80.5478 84.3004 79.3056C84.6627 78.5292 85.2838 76.9869 85.3252 75.3203C85.3356 74.7199 85.2735 74.4818 85.1285 73.9539C85.0975 73.8297 85.0561 73.6951 85.025 73.5502C84.6834 72.2252 85.4701 70.8692 86.8055 70.5172C88.1305 70.1756 89.4865 70.9623 89.8385 72.2977C89.8695 72.4115 89.9006 72.5254 89.9316 72.6289C90.1283 73.3224 90.3457 74.1092 90.3043 75.4445C90.2422 77.8771 89.4555 80.0302 88.8137 81.4069C88.3893 82.3179 87.4887 82.8458 86.557 82.8458Z" fill="#F5F9FF"/>
<path d="M102.746 82.866C101.846 82.866 100.976 82.3691 100.531 81.51C99.4442 79.3879 98.8645 77.2555 98.8128 75.1645C98.7817 74.0776 98.9266 73.353 99.0715 72.794C99.4028 71.4587 100.759 70.6616 102.084 70.9929C103.419 71.3241 104.216 72.6802 103.885 74.0052C103.823 74.2639 103.771 74.5227 103.781 75.03C103.823 76.6862 104.444 78.2286 104.962 79.2327C105.583 80.4541 105.106 81.9551 103.885 82.5762C103.512 82.7729 103.129 82.866 102.746 82.866Z" fill="#F5F9FF"/>
<path d="M10.7517 117.617H-27.352C-28.6046 117.617 -29.7743 117.13 -30.6541 116.24C-31.534 115.35 -32.0102 114.17 -31.9998 112.917C-31.9377 107.566 -31.5547 97.6075 -29.6708 90.8998C-29.0807 88.8088 -28.3665 87.0904 -27.4245 85.5067C-26.6274 84.161 -24.3087 80.7864 -20.1578 78.4573C-16.3174 76.2938 -12.6426 75.973 -10.2307 76.0868C-9.74418 76.1075 -9.27836 76.2731 -8.88501 76.563L0.0483055 83.0741L9.49919 76.5216C9.8822 76.2524 10.3377 76.1075 10.8035 76.0868C13.2154 75.973 16.8901 76.2938 20.7305 78.4573C21.8071 79.0577 22.8422 79.7823 23.8153 80.6104C24.8608 81.5006 24.985 83.0637 24.0948 84.1092C23.2045 85.1547 21.6415 85.2789 20.596 84.3887C19.8714 83.7676 19.095 83.2293 18.2979 82.7842C15.8239 81.3971 13.4535 81.0452 11.7248 81.0348L1.4354 88.167C0.565876 88.7674 -0.593485 88.757 -1.44231 88.1359L-11.1727 81.0452C-12.9014 81.0555 -15.2512 81.4178 -17.7148 82.7946C-20.8203 84.544 -22.5489 87.0594 -23.1493 88.0635C-23.8739 89.2746 -24.4122 90.5685 -24.878 92.2558C-26.5653 98.2804 -26.9483 107.483 -27.0104 112.659H10.7517C12.1285 112.659 13.2361 113.766 13.2361 115.143C13.2361 116.52 12.1181 117.617 10.7517 117.617Z" fill="#F5F9FF"/>
<path d="M0.359501 77.8049C-4.01917 77.8049 -8.11835 75.9313 -11.1824 72.536C-14.1843 69.2132 -15.8405 64.8035 -15.8405 60.135V53.7171C-15.8405 52.6612 -15.1677 51.7192 -14.1636 51.3673C-13.439 51.1085 -11.3066 50.1769 -10.1679 48.914C-9.27772 47.9306 -7.81816 47.7857 -6.79336 48.6241C-6.65879 48.7173 -5.09572 49.8456 -2.41469 50.4046C1.32219 51.1913 5.35926 50.5806 9.59301 48.5827C10.5246 48.1376 11.6322 48.324 12.3776 49.0486L12.4707 49.1417C12.9055 49.5972 14.2408 50.9015 15.3898 51.6054C16.1248 52.0608 16.5699 52.8579 16.5699 53.7171V60.135C16.5699 64.8035 14.9137 69.2132 11.9117 72.536C8.83735 75.9313 4.73817 77.8049 0.359501 77.8049ZM-10.8718 55.3629V60.135C-10.8718 67.1326 -5.83068 72.8362 0.359501 72.8362C6.54968 72.8362 11.5908 67.1429 11.5908 60.135V55.011C11.1147 54.6487 10.6282 54.2346 10.1209 53.7688C1.37394 57.3194 -5.05432 55.1766 -8.03554 53.6446C-9.00858 54.4003 -10.0437 54.9696 -10.8718 55.3629Z" fill="#F5F9FF"/>
<path d="M-13.3568 56.2017C-14.3195 56.2017 -15.2304 55.6427 -15.6341 54.7007C-16.4312 52.8582 -16.5554 50.8707 -16.6486 49.2662C-16.7314 47.8895 -16.8452 46.1711 -16.4312 44.4631C-16.0689 42.9415 -15.189 41.3577 -13.7501 39.598C-13.5328 39.3288 -13.2947 39.0597 -13.0566 38.8009C-9.2162 34.7017 -2.96392 33.0972 -1.74245 32.8177C0.63839 32.2691 2.92607 32.0724 5.04811 32.2381C6.53873 32.3519 7.81196 32.559 8.92991 32.8799C10.5758 33.3457 11.8697 34.2462 12.6771 35.4884C13.0705 36.0992 13.3086 36.7202 13.5053 37.2275C13.6398 37.5691 13.7848 37.9624 13.909 38.097C14.1367 38.3661 14.4783 38.6353 14.8717 38.9562C15.3582 39.3392 15.9172 39.7843 16.4451 40.3743C17.6769 41.7718 19.0744 44.1008 19.2917 46.4817C19.4988 48.7487 18.5671 50.7465 17.8632 52.0508C17.8425 52.0818 17.8011 52.1646 17.7494 52.2785C16.5072 54.6697 16.1863 55.1666 15.7619 55.5599C14.7474 56.4812 13.174 56.4087 12.2527 55.4046C11.4039 54.473 11.3936 53.0652 12.1906 52.1336C12.3045 51.9576 12.6047 51.44 13.3396 50.0115C13.4225 49.8459 13.4846 49.732 13.5053 49.6906C14.1574 48.5002 14.4162 47.6617 14.3541 46.9578C14.2713 46.0262 13.5881 44.6598 12.7393 43.6971C12.5115 43.4383 12.1803 43.1796 11.8076 42.8897C11.2797 42.4757 10.6793 41.9995 10.1203 41.337C9.45784 40.5606 9.13694 39.7222 8.87816 39.0493C8.75394 38.7181 8.62972 38.4075 8.51586 38.2212C8.38129 38.0142 8.05004 37.8279 7.59458 37.6933C6.79751 37.4656 5.83483 37.3103 4.67546 37.2275C3.05028 37.1032 1.26983 37.2585 -0.624487 37.6933C-3.29517 38.304 -7.20802 39.8671 -9.41288 42.2272C-9.57851 42.4032 -9.74413 42.5895 -9.88905 42.7759C-11.0898 44.1837 -11.4832 45.1049 -11.6074 45.6225C-11.8455 46.6162 -11.773 47.8067 -11.7006 48.966C-11.6177 50.3117 -11.5349 51.6988 -11.0795 52.734C-10.5308 53.9968 -11.1105 55.4564 -12.3734 56.005C-12.6943 56.1396 -13.0255 56.2017 -13.3568 56.2017Z" fill="#F5F9FF"/>
<path d="M8.29891 82.866C7.39833 82.866 6.52881 82.3691 6.0837 81.51C4.99679 79.3879 4.41711 77.2555 4.36535 75.1645C4.3343 74.0776 4.47922 73.353 4.62414 72.794C4.95539 71.4587 6.31143 70.6616 7.63642 70.9929C8.97176 71.3241 9.76882 72.6802 9.43757 74.0052C9.37546 74.2639 9.32371 74.5227 9.33406 75.03C9.37546 76.6862 9.99655 78.2286 10.5141 79.2327C11.1352 80.4541 10.659 81.9551 9.43757 82.5762C9.06492 82.7729 8.68192 82.866 8.29891 82.866Z" fill="#F5F9FF"/>
<path d="M80.5517 139.709C74.0406 139.709 67.9125 137.172 63.3165 132.566C58.7101 127.96 56.174 121.842 56.174 115.331C56.174 108.82 58.7101 102.692 63.3165 98.0956C67.9229 93.4892 74.0406 90.9531 80.5517 90.9531C87.0627 90.9531 93.1908 93.4892 97.7869 98.0956C102.393 102.702 104.929 108.82 104.929 115.331C104.929 121.842 102.393 127.97 97.7869 132.566C93.1908 137.172 87.0627 139.709 80.5517 139.709ZM80.5517 95.9218C69.8482 95.9218 61.1427 104.627 61.1427 115.331C61.1427 126.034 69.8482 134.74 80.5517 134.74C91.2551 134.74 99.9607 126.034 99.9607 115.331C99.9607 104.627 91.2551 95.9218 80.5517 95.9218Z" fill="#F5F9FF"/>
<path d="M80.5517 130.764C72.0428 130.764 65.1177 123.839 65.1177 115.33C65.1177 106.821 72.0428 99.896 80.5517 99.896C89.0606 99.896 95.9858 106.821 95.9858 115.33C95.9858 123.839 89.0606 130.764 80.5517 130.764ZM80.5517 104.865C74.7859 104.865 70.0864 109.554 70.0864 115.33C70.0864 121.106 74.7756 125.795 80.5517 125.795C86.3278 125.795 91.017 121.106 91.017 115.33C91.017 109.554 86.3175 104.865 80.5517 104.865Z" fill="#F5F9FF"/>
<path d="M111.182 152.979C109.308 152.979 107.548 152.254 106.223 150.929L90.7375 135.443C89.7645 134.47 89.7645 132.897 90.7375 131.934C91.7105 130.961 93.284 130.961 94.2466 131.934L109.732 147.42C110.115 147.803 110.633 148.02 111.182 148.02H111.192C111.741 148.02 112.258 147.803 112.641 147.41C113.428 146.612 113.428 145.319 112.631 144.532L97.1451 129.046C96.172 128.073 96.172 126.5 97.1451 125.537C98.1181 124.564 99.6915 124.564 100.654 125.537L116.14 141.023C118.852 143.735 118.873 148.176 116.171 150.908C114.846 152.244 113.086 152.989 111.202 152.999C111.202 152.979 111.192 152.979 111.182 152.979Z" fill="#F5F9FF"/>
</g>
</g>
<path d="M162.578 43V27H168.578C169.807 27 170.839 27.2292 171.672 27.6875C172.51 28.1458 173.143 28.776 173.57 29.5781C174.003 30.375 174.219 31.2812 174.219 32.2969C174.219 33.3229 174.003 34.2344 173.57 35.0313C173.138 35.8281 172.5 36.4557 171.656 36.9141C170.813 37.3672 169.773 37.5937 168.539 37.5937H164.563V35.2109H168.148C168.867 35.2109 169.456 35.0859 169.914 34.8359C170.372 34.5859 170.711 34.2422 170.93 33.8047C171.154 33.3672 171.266 32.8646 171.266 32.2969C171.266 31.7292 171.154 31.2292 170.93 30.7969C170.711 30.3646 170.37 30.0286 169.906 29.7891C169.448 29.5443 168.857 29.4219 168.133 29.4219H165.477V43H162.578ZM176.611 43V31H179.354V33H179.479C179.697 32.3073 180.072 31.7734 180.604 31.3984C181.14 31.0182 181.752 30.8281 182.439 30.8281C182.596 30.8281 182.77 30.8359 182.963 30.8516C183.161 30.862 183.325 30.8802 183.455 30.9062V33.5078C183.335 33.4661 183.145 33.4297 182.885 33.3984C182.63 33.362 182.382 33.3437 182.143 33.3437C181.627 33.3437 181.163 33.4557 180.752 33.6797C180.346 33.8984 180.025 34.2031 179.791 34.5937C179.557 34.9844 179.439 35.4349 179.439 35.9453V43H176.611ZM190.074 43.2344C188.902 43.2344 187.887 42.9766 187.027 42.4609C186.168 41.9453 185.501 41.224 185.027 40.2969C184.559 39.3698 184.324 38.2865 184.324 37.0469C184.324 35.8073 184.559 34.7214 185.027 33.7891C185.501 32.8568 186.168 32.1328 187.027 31.6172C187.887 31.1016 188.902 30.8438 190.074 30.8438C191.246 30.8438 192.262 31.1016 193.121 31.6172C193.98 32.1328 194.645 32.8568 195.113 33.7891C195.587 34.7214 195.824 35.8073 195.824 37.0469C195.824 38.2865 195.587 39.3698 195.113 40.2969C194.645 41.224 193.98 41.9453 193.121 42.4609C192.262 42.9766 191.246 43.2344 190.074 43.2344ZM190.09 40.9687C190.725 40.9687 191.257 40.7943 191.684 40.4453C192.111 40.0911 192.428 39.6172 192.637 39.0234C192.85 38.4297 192.957 37.7682 192.957 37.0391C192.957 36.3047 192.85 35.6406 192.637 35.0469C192.428 34.4479 192.111 33.9714 191.684 33.6172C191.257 33.263 190.725 33.0859 190.09 33.0859C189.439 33.0859 188.897 33.263 188.465 33.6172C188.038 33.9714 187.717 34.4479 187.504 35.0469C187.296 35.6406 187.191 36.3047 187.191 37.0391C187.191 37.7682 187.296 38.4297 187.504 39.0234C187.717 39.6172 188.038 40.0911 188.465 40.4453C188.897 40.7943 189.439 40.9687 190.09 40.9687ZM198.225 31H201.053V43.6875C201.053 44.5521 200.889 45.2656 200.561 45.8281C200.232 46.3906 199.758 46.8099 199.139 47.0859C198.519 47.362 197.766 47.5 196.881 47.5C196.777 47.5 196.68 47.4974 196.592 47.4922C196.503 47.4922 196.407 47.4896 196.303 47.4844V45.1797C196.381 45.1849 196.451 45.1875 196.514 45.1875C196.576 45.1927 196.641 45.1953 196.709 45.1953C197.251 45.1953 197.639 45.0625 197.873 44.7969C198.107 44.5365 198.225 44.1536 198.225 43.6484V31ZM199.631 29.2969C199.178 29.2969 198.79 29.1484 198.467 28.8516C198.149 28.5495 197.99 28.1875 197.99 27.7656C197.99 27.3385 198.149 26.9766 198.467 26.6797C198.79 26.3776 199.178 26.2266 199.631 26.2266C200.079 26.2266 200.462 26.3776 200.779 26.6797C201.102 26.9766 201.264 27.3385 201.264 27.7656C201.264 28.1875 201.102 28.5495 200.779 28.8516C200.462 29.1484 200.079 29.2969 199.631 29.2969ZM209.273 43.2344C208.07 43.2344 207.031 42.9844 206.156 42.4844C205.286 41.9792 204.617 41.2656 204.148 40.3437C203.68 39.4167 203.445 38.3255 203.445 37.0703C203.445 35.8359 203.68 34.7526 204.148 33.8203C204.622 32.8828 205.284 32.1536 206.133 31.6328C206.982 31.1068 207.979 30.8438 209.125 30.8438C209.865 30.8438 210.563 30.9635 211.219 31.2031C211.88 31.4375 212.464 31.8021 212.969 32.2969C213.479 32.7917 213.88 33.4219 214.172 34.1875C214.464 34.9479 214.609 35.8542 214.609 36.9062V37.7734H204.773V35.8672H211.898C211.893 35.3255 211.776 34.8437 211.547 34.4219C211.318 33.9948 210.997 33.6589 210.586 33.4141C210.18 33.1693 209.706 33.0469 209.164 33.0469C208.586 33.0469 208.078 33.1875 207.641 33.4687C207.203 33.7448 206.862 34.1094 206.617 34.5625C206.378 35.0104 206.255 35.5026 206.25 36.0391V37.7031C206.25 38.401 206.378 39 206.633 39.5C206.888 39.9948 207.245 40.375 207.703 40.6406C208.161 40.901 208.698 41.0312 209.313 41.0312C209.724 41.0312 210.096 40.974 210.43 40.8594C210.763 40.7396 211.052 40.5651 211.297 40.3359C211.542 40.1068 211.727 39.8229 211.852 39.4844L214.492 39.7812C214.326 40.4792 214.008 41.0885 213.539 41.6094C213.076 42.125 212.482 42.526 211.758 42.8125C211.034 43.0937 210.206 43.2344 209.273 43.2344ZM222.236 43.2344C221.038 43.2344 220.01 42.9714 219.15 42.4453C218.296 41.9193 217.637 41.1927 217.174 40.2656C216.715 39.3333 216.486 38.2604 216.486 37.0469C216.486 35.8281 216.721 34.7526 217.189 33.8203C217.658 32.8828 218.32 32.1536 219.174 31.6328C220.033 31.1068 221.049 30.8438 222.221 30.8438C223.195 30.8438 224.057 31.0234 224.807 31.3828C225.562 31.737 226.163 32.2396 226.611 32.8906C227.059 33.5365 227.314 34.2917 227.377 35.1562H224.674C224.564 34.5781 224.304 34.0964 223.893 33.7109C223.486 33.3203 222.942 33.125 222.26 33.125C221.682 33.125 221.174 33.2812 220.736 33.5937C220.299 33.901 219.958 34.3437 219.713 34.9219C219.473 35.5 219.354 36.1927 219.354 37C219.354 37.8177 219.473 38.5208 219.713 39.1094C219.952 39.6927 220.288 40.1432 220.721 40.4609C221.158 40.7734 221.671 40.9297 222.26 40.9297C222.676 40.9297 223.049 40.8516 223.377 40.6953C223.71 40.5339 223.989 40.3021 224.213 40C224.437 39.6979 224.59 39.3307 224.674 38.8984H227.377C227.309 39.7474 227.059 40.5 226.627 41.1562C226.195 41.8073 225.606 42.3177 224.861 42.6875C224.117 43.0521 223.242 43.2344 222.236 43.2344ZM235.691 31V33.1875H228.793V31H235.691ZM230.496 28.125H233.324V39.3906C233.324 39.7708 233.382 40.0625 233.496 40.2656C233.616 40.4635 233.772 40.599 233.965 40.6719C234.158 40.7448 234.371 40.7812 234.605 40.7812C234.783 40.7812 234.944 40.7682 235.09 40.7422C235.241 40.7161 235.355 40.6927 235.434 40.6719L235.91 42.8828C235.759 42.9349 235.543 42.9922 235.262 43.0547C234.986 43.1172 234.647 43.1536 234.246 43.1641C233.538 43.1849 232.9 43.0781 232.332 42.8437C231.764 42.6042 231.314 42.2344 230.98 41.7344C230.652 41.2344 230.491 40.6094 230.496 39.8594V28.125ZM247.369 34.1719L244.791 34.4531C244.718 34.1927 244.59 33.9479 244.408 33.7188C244.231 33.4896 243.992 33.3047 243.689 33.1641C243.387 33.0234 243.018 32.9531 242.58 32.9531C241.992 32.9531 241.497 33.0807 241.096 33.3359C240.7 33.5911 240.505 33.9219 240.51 34.3281C240.505 34.6771 240.632 34.9609 240.893 35.1797C241.158 35.3984 241.596 35.5781 242.205 35.7188L244.252 36.1562C245.387 36.401 246.231 36.7891 246.783 37.3203C247.34 37.8516 247.622 38.5469 247.627 39.4062C247.622 40.1615 247.4 40.8281 246.963 41.4062C246.531 41.9792 245.929 42.4271 245.158 42.75C244.387 43.0729 243.502 43.2344 242.502 43.2344C241.033 43.2344 239.851 42.9271 238.955 42.3125C238.059 41.6927 237.525 40.8307 237.354 39.7266L240.111 39.4609C240.236 40.0026 240.502 40.4115 240.908 40.6875C241.314 40.9635 241.843 41.1016 242.494 41.1016C243.166 41.1016 243.705 40.9635 244.111 40.6875C244.523 40.4115 244.729 40.0703 244.729 39.6641C244.729 39.3203 244.596 39.0365 244.33 38.8125C244.07 38.5885 243.663 38.4167 243.111 38.2969L241.064 37.8672C239.913 37.6276 239.062 37.224 238.51 36.6562C237.958 36.0833 237.684 35.3594 237.689 34.4844C237.684 33.7448 237.885 33.1042 238.291 32.5625C238.702 32.0156 239.273 31.5937 240.002 31.2969C240.736 30.9948 241.583 30.8438 242.541 30.8438C243.947 30.8438 245.054 31.1432 245.861 31.7422C246.674 32.3411 247.176 33.151 247.369 34.1719Z" fill="white"/>
<path d="M162.119 112.818H163.983L167.224 120.733H167.344L170.585 112.818H172.45V123H170.988V115.632H170.893L167.891 122.985H166.678L163.675 115.627H163.58V123H162.119V112.818ZM176.786 123.169C176.302 123.169 175.865 123.08 175.474 122.901C175.082 122.718 174.773 122.455 174.544 122.11C174.318 121.765 174.206 121.343 174.206 120.842C174.206 120.411 174.289 120.057 174.454 119.778C174.62 119.5 174.844 119.28 175.126 119.117C175.407 118.955 175.722 118.832 176.07 118.749C176.418 118.666 176.773 118.603 177.134 118.56C177.591 118.507 177.963 118.464 178.248 118.431C178.533 118.395 178.74 118.337 178.869 118.257C178.998 118.178 179.063 118.048 179.063 117.869V117.835C179.063 117.4 178.94 117.064 178.695 116.825C178.453 116.587 178.092 116.467 177.611 116.467C177.111 116.467 176.716 116.578 176.428 116.8C176.143 117.019 175.946 117.263 175.836 117.531L174.439 117.213C174.605 116.749 174.847 116.375 175.165 116.089C175.487 115.801 175.856 115.592 176.274 115.463C176.692 115.33 177.131 115.264 177.591 115.264C177.896 115.264 178.22 115.301 178.561 115.374C178.906 115.443 179.227 115.572 179.525 115.761C179.827 115.95 180.074 116.22 180.266 116.572C180.458 116.92 180.555 117.372 180.555 117.929V123H179.103V121.956H179.043C178.947 122.148 178.803 122.337 178.611 122.523C178.418 122.708 178.171 122.862 177.87 122.985C177.568 123.108 177.207 123.169 176.786 123.169ZM177.109 121.976C177.52 121.976 177.872 121.895 178.163 121.732C178.458 121.57 178.682 121.358 178.834 121.096C178.99 120.831 179.068 120.547 179.068 120.246V119.261C179.015 119.314 178.912 119.364 178.76 119.411C178.611 119.454 178.44 119.492 178.248 119.525C178.055 119.555 177.868 119.583 177.686 119.609C177.504 119.633 177.351 119.652 177.229 119.669C176.94 119.705 176.677 119.767 176.438 119.853C176.203 119.939 176.014 120.063 175.871 120.226C175.732 120.385 175.662 120.597 175.662 120.862C175.662 121.23 175.798 121.509 176.07 121.697C176.342 121.883 176.688 121.976 177.109 121.976ZM184.021 118.466V123H182.534V115.364H183.961V116.607H184.056C184.231 116.202 184.507 115.877 184.881 115.632C185.259 115.387 185.734 115.264 186.308 115.264C186.828 115.264 187.284 115.374 187.675 115.592C188.066 115.808 188.369 116.129 188.585 116.557C188.8 116.984 188.908 117.513 188.908 118.143V123H187.422V118.322C187.422 117.768 187.277 117.336 186.989 117.024C186.701 116.709 186.305 116.552 185.801 116.552C185.456 116.552 185.15 116.626 184.881 116.776C184.616 116.925 184.405 117.143 184.25 117.432C184.097 117.717 184.021 118.062 184.021 118.466ZM193.124 123.169C192.64 123.169 192.203 123.08 191.811 122.901C191.42 122.718 191.11 122.455 190.882 122.11C190.656 121.765 190.544 121.343 190.544 120.842C190.544 120.411 190.627 120.057 190.792 119.778C190.958 119.5 191.182 119.28 191.463 119.117C191.745 118.955 192.06 118.832 192.408 118.749C192.756 118.666 193.111 118.603 193.472 118.56C193.929 118.507 194.301 118.464 194.586 118.431C194.871 118.395 195.078 118.337 195.207 118.257C195.336 118.178 195.401 118.048 195.401 117.869V117.835C195.401 117.4 195.278 117.064 195.033 116.825C194.791 116.587 194.43 116.467 193.949 116.467C193.449 116.467 193.054 116.578 192.766 116.8C192.481 117.019 192.284 117.263 192.174 117.531L190.777 117.213C190.943 116.749 191.185 116.375 191.503 116.089C191.825 115.801 192.194 115.592 192.612 115.463C193.029 115.33 193.469 115.264 193.929 115.264C194.234 115.264 194.557 115.301 194.899 115.374C195.243 115.443 195.565 115.572 195.863 115.761C196.165 115.95 196.412 116.22 196.604 116.572C196.796 116.92 196.892 117.372 196.892 117.929V123H195.441V121.956H195.381C195.285 122.148 195.141 122.337 194.949 122.523C194.756 122.708 194.509 122.862 194.208 122.985C193.906 123.108 193.545 123.169 193.124 123.169ZM193.447 121.976C193.858 121.976 194.209 121.895 194.501 121.732C194.796 121.57 195.02 121.358 195.172 121.096C195.328 120.831 195.406 120.547 195.406 120.246V119.261C195.353 119.314 195.25 119.364 195.098 119.411C194.949 119.454 194.778 119.492 194.586 119.525C194.393 119.555 194.206 119.583 194.024 119.609C193.842 119.633 193.689 119.652 193.566 119.669C193.278 119.705 193.015 119.767 192.776 119.853C192.541 119.939 192.352 120.063 192.209 120.226C192.07 120.385 192 120.597 192 120.862C192 121.23 192.136 121.509 192.408 121.697C192.68 121.883 193.026 121.976 193.447 121.976ZM202.074 126.023C201.468 126.023 200.945 125.943 200.508 125.784C200.074 125.625 199.719 125.415 199.444 125.153C199.169 124.891 198.963 124.604 198.828 124.293L200.105 123.766C200.195 123.911 200.314 124.066 200.463 124.228C200.616 124.394 200.821 124.535 201.08 124.651C201.342 124.767 201.678 124.825 202.089 124.825C202.652 124.825 203.118 124.687 203.486 124.412C203.854 124.14 204.038 123.706 204.038 123.109V121.608H203.943C203.854 121.77 203.725 121.951 203.556 122.15C203.39 122.349 203.161 122.521 202.869 122.667C202.578 122.813 202.198 122.886 201.731 122.886C201.128 122.886 200.584 122.745 200.1 122.463C199.62 122.178 199.239 121.759 198.957 121.205C198.678 120.648 198.539 119.964 198.539 119.152C198.539 118.34 198.677 117.644 198.952 117.064C199.23 116.484 199.611 116.04 200.095 115.732C200.579 115.42 201.128 115.264 201.741 115.264C202.215 115.264 202.598 115.344 202.889 115.503C203.181 115.659 203.408 115.841 203.57 116.05C203.736 116.259 203.864 116.442 203.953 116.602H204.063V115.364H205.519V123.169C205.519 123.825 205.367 124.364 205.062 124.785C204.757 125.206 204.344 125.517 203.824 125.719C203.307 125.922 202.724 126.023 202.074 126.023ZM202.059 121.653C202.487 121.653 202.848 121.553 203.143 121.354C203.441 121.152 203.667 120.864 203.819 120.489C203.975 120.112 204.053 119.659 204.053 119.132C204.053 118.618 203.977 118.166 203.824 117.775C203.672 117.384 203.448 117.079 203.153 116.86C202.858 116.638 202.493 116.527 202.059 116.527C201.612 116.527 201.239 116.643 200.941 116.875C200.642 117.104 200.417 117.415 200.264 117.81C200.115 118.204 200.041 118.645 200.041 119.132C200.041 119.633 200.117 120.072 200.269 120.45C200.422 120.827 200.647 121.122 200.945 121.335C201.247 121.547 201.618 121.653 202.059 121.653ZM210.804 123.154C210.052 123.154 209.404 122.993 208.86 122.672C208.32 122.347 207.902 121.891 207.607 121.305C207.316 120.715 207.17 120.024 207.17 119.232C207.17 118.449 207.316 117.76 207.607 117.163C207.902 116.567 208.313 116.101 208.84 115.766C209.371 115.432 209.99 115.264 210.7 115.264C211.131 115.264 211.548 115.335 211.953 115.478C212.357 115.621 212.72 115.844 213.041 116.149C213.363 116.454 213.616 116.85 213.802 117.337C213.988 117.821 214.08 118.41 214.08 119.102V119.629H208.01V118.516H212.624C212.624 118.125 212.544 117.778 212.385 117.477C212.226 117.172 212.002 116.931 211.714 116.756C211.429 116.58 211.094 116.492 210.71 116.492C210.292 116.492 209.927 116.595 209.616 116.8C209.308 117.003 209.069 117.268 208.9 117.596C208.734 117.921 208.651 118.274 208.651 118.655V119.525C208.651 120.035 208.741 120.469 208.92 120.827C209.102 121.185 209.356 121.459 209.681 121.648C210.005 121.833 210.385 121.926 210.819 121.926C211.101 121.926 211.358 121.886 211.59 121.807C211.822 121.724 212.022 121.601 212.191 121.439C212.36 121.277 212.49 121.076 212.579 120.837L213.986 121.091C213.873 121.505 213.671 121.868 213.379 122.18C213.091 122.488 212.728 122.728 212.291 122.901C211.856 123.07 211.361 123.154 210.804 123.154ZM219.554 123V112.818H223.183C223.976 112.818 224.632 112.962 225.152 113.251C225.673 113.539 226.062 113.933 226.32 114.434C226.579 114.931 226.708 115.491 226.708 116.114C226.708 116.741 226.577 117.304 226.316 117.805C226.057 118.302 225.666 118.696 225.142 118.988C224.622 119.276 223.967 119.42 223.178 119.42H220.683V118.118H223.039C223.54 118.118 223.946 118.032 224.257 117.859C224.569 117.684 224.798 117.445 224.943 117.143C225.089 116.842 225.162 116.499 225.162 116.114C225.162 115.73 225.089 115.388 224.943 115.09C224.798 114.792 224.567 114.558 224.252 114.389C223.941 114.22 223.53 114.136 223.019 114.136H221.09V123H219.554ZM228.39 123V115.364H229.827V116.577H229.906C230.045 116.166 230.291 115.843 230.642 115.607C230.993 115.369 231.394 115.249 231.845 115.249C232.054 115.249 232.241 115.274 232.407 115.324C232.573 115.374 232.719 115.442 232.844 115.528L232.367 116.771C232.278 116.728 232.177 116.693 232.064 116.666C231.951 116.636 231.822 116.621 231.676 116.621C231.331 116.621 231.023 116.696 230.751 116.845C230.483 116.991 230.269 117.193 230.11 117.452C229.954 117.71 229.876 118.005 229.876 118.337V123H228.39ZM236.884 123.154C236.168 123.154 235.543 122.99 235.01 122.662C234.476 122.334 234.062 121.875 233.767 121.285C233.472 120.695 233.324 120.005 233.324 119.217C233.324 118.424 233.472 117.732 233.767 117.138C234.062 116.545 234.476 116.085 235.01 115.756C235.543 115.428 236.168 115.264 236.884 115.264C237.6 115.264 238.225 115.428 238.758 115.756C239.292 116.085 239.706 116.545 240.001 117.138C240.296 117.732 240.444 118.424 240.444 119.217C240.444 120.005 240.296 120.695 240.001 121.285C239.706 121.875 239.292 122.334 238.758 122.662C238.225 122.99 237.6 123.154 236.884 123.154ZM236.889 121.906C237.353 121.906 237.737 121.784 238.042 121.538C238.347 121.293 238.573 120.967 238.718 120.559C238.868 120.151 238.942 119.702 238.942 119.212C238.942 118.724 238.868 118.277 238.718 117.869C238.573 117.458 238.347 117.129 238.042 116.88C237.737 116.631 237.353 116.507 236.889 116.507C236.422 116.507 236.034 116.631 235.725 116.88C235.421 117.129 235.194 117.458 235.044 117.869C234.899 118.277 234.826 118.724 234.826 119.212C234.826 119.702 234.899 120.151 235.044 120.559C235.194 120.967 235.421 121.293 235.725 121.538C236.034 121.784 236.422 121.906 236.889 121.906ZM242.103 115.364H243.589V123.497C243.589 124.008 243.497 124.438 243.311 124.79C243.129 125.141 242.857 125.408 242.496 125.59C242.138 125.772 241.695 125.864 241.168 125.864C241.115 125.864 241.065 125.864 241.019 125.864C240.969 125.864 240.918 125.862 240.865 125.859V124.581C240.911 124.581 240.953 124.581 240.989 124.581C241.022 124.581 241.06 124.581 241.104 124.581C241.455 124.581 241.708 124.487 241.864 124.298C242.023 124.112 242.103 123.842 242.103 123.487V115.364ZM242.839 114.185C242.58 114.185 242.358 114.099 242.172 113.927C241.99 113.751 241.899 113.542 241.899 113.3C241.899 113.055 241.99 112.846 242.172 112.674C242.358 112.498 242.58 112.411 242.839 112.411C243.097 112.411 243.318 112.498 243.5 112.674C243.685 112.846 243.778 113.055 243.778 113.3C243.778 113.542 243.685 113.751 243.5 113.927C243.318 114.099 243.097 114.185 242.839 114.185ZM248.88 123.154C248.128 123.154 247.48 122.993 246.936 122.672C246.396 122.347 245.979 121.891 245.684 121.305C245.392 120.715 245.246 120.024 245.246 119.232C245.246 118.449 245.392 117.76 245.684 117.163C245.979 116.567 246.39 116.101 246.917 115.766C247.447 115.432 248.067 115.264 248.776 115.264C249.207 115.264 249.624 115.335 250.029 115.478C250.433 115.621 250.796 115.844 251.118 116.149C251.439 116.454 251.693 116.85 251.878 117.337C252.064 117.821 252.157 118.41 252.157 119.102V119.629H246.086V118.516H250.7C250.7 118.125 250.62 117.778 250.461 117.477C250.302 117.172 250.078 116.931 249.79 116.756C249.505 116.58 249.17 116.492 248.786 116.492C248.368 116.492 248.004 116.595 247.692 116.8C247.384 117.003 247.145 117.268 246.976 117.596C246.81 117.921 246.728 118.274 246.728 118.655V119.525C246.728 120.035 246.817 120.469 246.996 120.827C247.178 121.185 247.432 121.459 247.757 121.648C248.082 121.833 248.461 121.926 248.895 121.926C249.177 121.926 249.434 121.886 249.666 121.807C249.898 121.724 250.098 121.601 250.267 121.439C250.436 121.277 250.566 121.076 250.655 120.837L252.062 121.091C251.949 121.505 251.747 121.868 251.456 122.18C251.167 122.488 250.804 122.728 250.367 122.901C249.933 123.07 249.437 123.154 248.88 123.154ZM257.023 123.154C256.283 123.154 255.647 122.987 255.113 122.652C254.583 122.314 254.175 121.848 253.89 121.255C253.605 120.662 253.463 119.982 253.463 119.217C253.463 118.441 253.609 117.757 253.9 117.163C254.192 116.567 254.603 116.101 255.133 115.766C255.664 115.432 256.288 115.264 257.008 115.264C257.588 115.264 258.105 115.372 258.559 115.587C259.013 115.799 259.379 116.098 259.657 116.482C259.939 116.867 260.107 117.316 260.16 117.83H258.713C258.633 117.472 258.451 117.163 258.166 116.905C257.884 116.646 257.506 116.517 257.032 116.517C256.618 116.517 256.255 116.626 255.944 116.845C255.635 117.061 255.395 117.369 255.223 117.77C255.05 118.168 254.964 118.638 254.964 119.182C254.964 119.739 255.049 120.219 255.218 120.624C255.387 121.028 255.626 121.341 255.934 121.563C256.245 121.785 256.612 121.896 257.032 121.896C257.314 121.896 257.569 121.845 257.798 121.742C258.03 121.636 258.224 121.485 258.38 121.29C258.539 121.094 258.65 120.859 258.713 120.584H260.16C260.107 121.078 259.946 121.518 259.677 121.906C259.409 122.294 259.049 122.599 258.599 122.821C258.151 123.043 257.626 123.154 257.023 123.154ZM265.314 115.364V116.557H261.143V115.364H265.314ZM262.261 113.534H263.748V120.758C263.748 121.046 263.791 121.263 263.877 121.409C263.963 121.552 264.074 121.649 264.21 121.702C264.349 121.752 264.5 121.777 264.663 121.777C264.782 121.777 264.886 121.769 264.976 121.752C265.065 121.736 265.135 121.722 265.185 121.712L265.453 122.94C265.367 122.973 265.244 123.007 265.085 123.04C264.926 123.076 264.727 123.096 264.489 123.099C264.098 123.106 263.733 123.036 263.395 122.891C263.057 122.745 262.783 122.519 262.575 122.214C262.366 121.91 262.261 121.527 262.261 121.066V113.534ZM272.558 117.228L271.21 117.467C271.154 117.294 271.064 117.13 270.942 116.974C270.822 116.819 270.66 116.691 270.455 116.592C270.249 116.492 269.992 116.442 269.684 116.442C269.263 116.442 268.912 116.537 268.63 116.726C268.348 116.911 268.207 117.152 268.207 117.447C268.207 117.702 268.302 117.907 268.491 118.063C268.68 118.219 268.985 118.347 269.406 118.446L270.619 118.724C271.321 118.887 271.845 119.137 272.19 119.475C272.534 119.813 272.707 120.252 272.707 120.793C272.707 121.25 272.574 121.658 272.309 122.016C272.047 122.37 271.681 122.649 271.21 122.851C270.743 123.053 270.201 123.154 269.585 123.154C268.729 123.154 268.032 122.972 267.491 122.607C266.951 122.239 266.62 121.717 266.497 121.041L267.934 120.822C268.023 121.197 268.207 121.48 268.486 121.673C268.764 121.862 269.127 121.956 269.575 121.956C270.062 121.956 270.451 121.855 270.743 121.653C271.035 121.447 271.18 121.197 271.18 120.902C271.18 120.663 271.091 120.463 270.912 120.3C270.736 120.138 270.466 120.015 270.102 119.933L268.809 119.649C268.096 119.487 267.569 119.228 267.228 118.874C266.89 118.519 266.721 118.07 266.721 117.526C266.721 117.076 266.847 116.681 267.099 116.343C267.351 116.005 267.699 115.741 268.143 115.553C268.587 115.36 269.096 115.264 269.669 115.264C270.494 115.264 271.144 115.443 271.618 115.801C272.092 116.156 272.405 116.631 272.558 117.228Z" fill="white"/>
<path d="M161 125.784H273.338V126.739H161V125.784Z" fill="white"/>
<path fill-rule="evenodd" clip-rule="evenodd" d="M285.53 112.22C285.238 111.927 284.763 111.927 284.47 112.22C284.177 112.513 284.177 112.987 284.47 113.28L288.439 117.25H279.75C279.336 117.25 279 117.586 279 118C279 118.414 279.336 118.75 279.75 118.75H288.439L284.47 122.72C284.177 123.013 284.177 123.487 284.47 123.78C284.763 124.073 285.238 124.073 285.53 123.78L290.78 118.53C291.073 118.237 291.073 117.763 290.78 117.47L285.53 112.22Z" fill="white"/>
</svg>
