<svg width="60" height="60" viewBox="0 0 60 60" fill="none" xmlns="http://www.w3.org/2000/svg">
<path d="M44.9814 20.1371C44.0578 19.1633 42.5181 19.1204 41.5428 20.0463L26.0141 34.7731L18.6074 27.1685C17.6693 26.206 16.1312 26.1849 15.168 27.1231C14.2055 28.0604 14.1852 29.6001 15.1225 30.5626L24.2036 39.8861C24.6795 40.375 25.3119 40.6215 25.946 40.6215C26.5477 40.6215 27.1493 40.3993 27.6204 39.9542L44.8907 23.5759C45.8652 22.6515 45.9065 21.1118 44.9814 20.1371Z" fill="#3CBA54"/>
<path d="M30 0C13.4578 0 0 13.4578 0 30C0 46.5422 13.4578 60 30 60C46.5422 60 60 46.5422 60 30C60 13.4578 46.5422 0 30 0ZM30 55.1352C16.1408 55.1352 4.8648 43.8601 4.8648 30C4.8648 16.1408 16.1407 4.8648 30 4.8648C43.86 4.8648 55.1352 16.1407 55.1352 30C55.1352 43.86 43.86 55.1352 30 55.1352Z" fill="#3CBA54"/>
</svg>
