<?xml version="1.0" encoding="utf-8"?>
<!-- Generator: Adobe Illustrator 25.2.0, SVG Export Plug-In . SVG Version: 6.00 Build 0)  -->
<svg version="1.1" id="OBJECTS" xmlns="http://www.w3.org/2000/svg" xmlns:xlink="http://www.w3.org/1999/xlink" x="0px" y="0px"
	 viewBox="0 0 471.83 467.74" style="enable-background:new 0 0 471.83 467.74;" xml:space="preserve">
<style type="text/css">
	.st0{fill:#EEEEFF;}
	.st1{opacity:0.3;}
	.st2{fill:none;stroke:#7371FC;stroke-miterlimit:10;}
	.st3{fill:#ACD4F7;}
	.st4{fill:#FFFFFF;}
	.st5{fill:#31313C;}
	.st6{opacity:0.4;fill:#9BAFD3;}
	.st7{fill:#D5D5D5;}
	.st8{fill:#91C4FB;}
	.st9{fill:#FEFFFD;}
	.st10{fill:none;stroke:#333333;stroke-width:4.0278;stroke-linecap:round;stroke-linejoin:round;stroke-miterlimit:10;}
	.st11{fill:#333333;}
	.st12{fill:#32338C;}
	.st13{fill:#9BAFD3;}
	.st14{fill:none;stroke:#32338C;stroke-width:3.8829;stroke-linecap:round;stroke-linejoin:round;stroke-miterlimit:10;}
	.st15{fill:#CFE9FF;}
	.st16{fill:#EEEEFE;}
	.st17{fill:none;stroke:#9BAFD3;stroke-width:3.1984;stroke-linecap:round;stroke-linejoin:round;stroke-miterlimit:10;}
	.st18{fill:none;stroke:#91C4FB;stroke-width:3.1984;stroke-linecap:round;stroke-linejoin:round;stroke-miterlimit:10;}
</style>
<g>
	<g>
		<path class="st0" d="M58.65,355.49c-53.2-62.65-34.56-155.51-2.89-183.65c31.67-28.14,81.92-43.6,108.84-76.47
			c26.92-32.88,57.93-56.42,114.61-39.45c56.68,16.96,55.83,61.03,72.84,88.3c17,27.27,92.81,42.49,88.49,112.47
			c-4.32,69.97-52.43,69.85-74.38,87.09c-21.94,17.24-56.55,98.65-125.82,99.5C155.45,444.32,103.68,408.51,58.65,355.49z"/>
		<g>
			<g transform="translate(0,-952.3622)" class="st1">
				<path class="st2" d="M250.37,970.6l-3,10.43c-2.75,0.75-5.36,1.81-7.78,3.17l-9.61-5.28l-8.59,8.48l5.34,9.48
					c-1.38,2.39-2.46,4.97-3.21,7.68l-10.56,2.96v12.01l10.56,2.96c0.76,2.71,1.83,5.29,3.21,7.68l-5.34,9.48l8.59,8.48l9.61-5.28
					c2.42,1.36,5.04,2.42,7.78,3.17l3,10.43h12.17l3-10.43c2.75-0.75,5.36-1.81,7.78-3.17l9.61,5.28l8.59-8.48l-5.34-9.48
					c1.38-2.39,2.46-4.97,3.21-7.68l10.56-2.96v-12.01l-10.56-2.96c-0.76-2.71-1.83-5.29-3.21-7.68l5.34-9.48l-8.59-8.48l-9.61,5.28
					c-2.42-1.36-5.04-2.42-7.78-3.17l-3-10.43H250.37z M256.45,991.1c12.52,0,22.73,10.08,22.73,22.44
					c0,12.35-10.21,22.44-22.73,22.44c-12.52,0-22.73-10.08-22.73-22.44C233.73,1001.18,243.94,991.1,256.45,991.1z"/>
			</g>
			<g transform="translate(0,-952.3622)" class="st1">
				<path class="st2" d="M427.98,1168.24l-1.99,6.94c-1.83,0.5-3.57,1.2-5.18,2.11l-6.39-3.51l-5.71,5.64l3.56,6.31
					c-0.92,1.59-1.63,3.31-2.14,5.11l-7.03,1.97v7.99l7.03,1.97c0.5,1.8,1.22,3.52,2.14,5.11l-3.56,6.31l5.71,5.64l6.39-3.51
					c1.61,0.91,3.35,1.61,5.18,2.11l1.99,6.94h8.1l1.99-6.94c1.83-0.5,3.57-1.2,5.18-2.11l6.39,3.51l5.71-5.64l-3.56-6.31
					c0.92-1.59,1.63-3.31,2.14-5.11l7.03-1.97v-7.99l-7.03-1.97c-0.5-1.8-1.22-3.52-2.14-5.11l3.56-6.31l-5.71-5.64l-6.39,3.51
					c-1.61-0.91-3.35-1.61-5.18-2.11l-1.99-6.94H427.98z M432.03,1181.88c8.33,0,15.12,6.71,15.12,14.93
					c0,8.22-6.8,14.93-15.12,14.93c-8.33,0-15.12-6.71-15.12-14.93C416.91,1188.58,423.7,1181.88,432.03,1181.88z"/>
			</g>
			<g transform="translate(0,-952.3622)" class="st1">
				<path class="st2" d="M64.94,1186.51l-4.33,15.08c-3.97,1.08-7.75,2.62-11.25,4.59l-13.89-7.63l-12.42,12.26l7.73,13.71
					c-1.99,3.46-3.55,7.19-4.64,11.11l-15.27,4.28v17.37l15.27,4.28c1.09,3.92,2.65,7.65,4.64,11.11l-7.73,13.71l12.42,12.26
					l13.89-7.63c3.5,1.97,7.28,3.51,11.25,4.59l4.33,15.08h17.6l4.33-15.08c3.97-1.08,7.75-2.62,11.25-4.59l13.89,7.63l12.42-12.26
					l-7.73-13.71c1.99-3.46,3.55-7.19,4.64-11.11l15.27-4.28v-17.37l-15.27-4.28c-1.09-3.92-2.65-7.65-4.64-11.11l7.73-13.71
					l-12.42-12.26l-13.89,7.63c-3.5-1.97-7.28-3.51-11.25-4.59l-4.33-15.08H64.94z M73.74,1216.15c18.1,0,32.86,14.58,32.86,32.44
					c0,17.86-14.77,32.44-32.86,32.44c-18.1,0-32.86-14.58-32.86-32.44C40.88,1230.72,55.65,1216.15,73.74,1216.15z"/>
			</g>
		</g>
	</g>
	<g>
		<path class="st3" d="M335.53,97.99c7.37,0.94,14.44,3.35,21.03,6.77c19.16,9.94,36.39,23.57,50.46,39.93
			c5.68,6.6,11.05,14.12,11.94,22.79c1.02,9.93-3.97,19.37-8.8,28.1c-4.02,7.27-8.88,15.21-16.91,17.32
			c-6.58,1.73-13.48-1.03-19.43-4.34c-23.25-12.94-40.69-35.03-50.7-59.69c-4.86-11.98-6.67-23.36-5.84-36.19
			c0.23-3.59-9.18-3.92-6.65-6.77C314.23,101.85,325.43,96.7,335.53,97.99z"/>
		<g>
			<path class="st4" d="M394.41,119.58c-0.77,1.04-1.62,2.02-2.54,2.92c-3.17,3.07-7.1,5.26-11.19,6.92
				c-3.03,1.23-6.24,2.2-9.51,2.13c-0.36-0.01-0.73-0.03-1.09-0.07c0.16,0.63,0.39,1.23,0.78,1.76c1.21,1.64,3.46,2.06,5.49,2.18
				c5.47,0.32,11.01-0.64,16.05-2.79c0.55-0.23,1.12-0.51,1.43-1.02c0.32-0.52,0.29-1.17,0.25-1.78
				C393.89,126.35,394.08,122.95,394.41,119.58z"/>
			<path class="st4" d="M380.68,129.42c4.09-1.66,8.02-3.86,11.19-6.92c0.93-0.89,1.78-1.88,2.54-2.92
				c0.55-5.55,1.5-11.01,1.79-16.65c-5.69-1.34-14.87,4.57-18.83,8.29c-5.11,4.8-8.31,11.86-7.56,18.82
				c0.05,0.48,0.14,0.96,0.25,1.43c0.36,0.04,0.73,0.06,1.09,0.07C374.44,131.62,377.65,130.65,380.68,129.42z"/>
		</g>
		<path class="st5" d="M418.99,77.76c3.46-4.87,6.97-9.81,9.1-15.39c2.14-5.58,2.79-11.97,0.51-17.5
			c-2.29-5.52-7.98-9.83-13.93-9.31c1.87-3.83-0.41-8.08-3.53-10.98c-3.12-2.9-7.42-4.18-11.63-4.83
			c-11.93-1.84-24.09,0.66-36.14,0.13c-4.45-0.2-9-0.85-12.87-3.05c-3.87-2.21-6.93-6.24-6.93-10.7c-1.56,3.39-3.31,7.49-3.05,11.21
			c0.26,3.72,2.29,7.5,5.73,8.96c-3.46,0.98-7.08-1.16-9.33-3.97c-2.25-2.81-3.14-6.49-3.37-10.08c-3.81,2.4-6.44,6.38-7.86,10.65
			c-1.29,3.89-1.97,8.06-1.29,12.1c0.68,4.04,2.84,7.94,6.3,10.14c-1.65,0.28-3.43,0.45-4.97-0.2c-0.1,2.28,1.2,4.45,2.97,5.9
			c1.77,1.44,3.96,2.26,6.15,2.92c7.5,2.25,15.38,2.85,23.07,4.35c18.15,3.53,34.91,11.93,52.16,18.59
			C412.48,77.63,416.48,78.38,418.99,77.76z"/>
		<g>
			<path class="st4" d="M400.06,75.04c-2.6-9.21-1.22-19.14,1.65-28.27c-9.07,8.54-22.42,10.64-34.76,8.97c4.11-2,7.83-4.8,10.9-8.2
				c-12.27-0.8-24.93,2.19-37.17,1.05c-1.4,4.24-2.31,8.65-2.81,12.73c-1.07,8.8-0.38,17.73,1.08,26.47
				c1.59,9.54,4.24,19.23,10.28,26.78c6.04,7.55,16.13,12.5,25.5,10.12c3.49-0.89,6.68-2.72,9.62-4.8
				c10.84-7.68,18.71-18.92,23.99-31.16C404.42,85.1,401.51,80.21,400.06,75.04z"/>
			<path class="st5" d="M377.85,47.55c-3.06,3.4-6.78,6.2-10.9,8.2c12.34,1.67,25.69-0.43,34.76-8.97
				c-2.88,9.13-4.25,19.05-1.65,28.27c1.46,5.17,4.36,10.05,8.28,13.69c0.69-1.59,1.33-3.19,1.93-4.81
				c2.58-6.96,4.45-14.27,4.51-21.69c0.07-7.42-1.77-14.99-6.05-21.05c-6.04-8.54-16.28-13.25-26.56-15.18
				c-5.02-0.94-10.21-1.31-15.22-0.32c-6.67,1.32-15.75,5.07-20.08,10.68c-2.7,3.5-4.72,7.77-6.19,12.23
				C352.92,49.74,365.58,46.75,377.85,47.55z"/>
		</g>
		<g>
			<path class="st4" d="M403.24,75.1c-1.43,3.82-1.44,8.05-0.71,12.07c0.56,3.1,1.83,6.45,4.68,7.78c2.11,0.99,4.67,0.6,6.69-0.55
				c2.02-1.15,3.57-2.97,4.89-4.89c1.99-2.89,3.57-6.15,3.98-9.63c0.41-3.49-0.48-7.22-2.88-9.78c-2.34-2.5-6.47-4.32-9.7-2.83
				C406.93,68.76,404.48,71.78,403.24,75.1z"/>
			<g>
				<path class="st5" d="M418.27,73.82c-1.02-1.32-2.74-1.84-4.28-1.66c-1.57,0.13-2.95,1.06-3.94,2.25
					c-1.01,1.2-1.66,2.66-2.06,4.2c-0.42,1.54-0.59,3.15-0.8,4.78l-0.98-0.41c0.98-1.17,2.44-2.15,4.14-2.04
					c0.83,0.05,1.65,0.45,2.21,1.04c0.57,0.59,0.91,1.34,1.07,2.1c0.15,0.76,0.14,1.56-0.1,2.3c-0.24,0.74-0.65,1.39-1.16,1.93
					c-1.05,1.06-2.4,1.73-3.8,2.04c1.32-0.52,2.57-1.29,3.41-2.37c0.41-0.54,0.75-1.14,0.9-1.78c0.16-0.63,0.12-1.31-0.05-1.93
					c-0.34-1.25-1.35-2.28-2.55-2.31c-1.2-0.04-2.42,0.71-3.22,1.71l-1.18,1.47l0.2-1.88c0.18-1.64,0.4-3.3,0.86-4.94
					c0.46-1.63,1.23-3.24,2.43-4.51c1.18-1.25,2.82-2.2,4.58-2.23C415.66,71.57,417.47,72.33,418.27,73.82z"/>
			</g>
		</g>
		<g>
			<path class="st5" d="M366.44,64.69c0.91,4.56,0.87,9.32,0.04,13.92c-0.83,4.61-2.45,9.08-4.83,13.09l-0.12-0.42
				c0.68,0.41,1.39,0.79,2.14,1.09c0.75,0.3,1.52,0.54,2.32,0.73c-0.82-0.04-1.63-0.18-2.43-0.4c-0.8-0.22-1.59-0.5-2.33-0.87
				l-0.26-0.13l0.14-0.29c1.97-4.15,3.43-8.52,4.32-13C366.3,73.92,366.61,69.32,366.44,64.69z"/>
		</g>
		<g>
			<path class="st5" d="M363.32,105.89c1.07,0.68,2.19,1.16,3.34,1.27c3.13,0.29,6.08-2.57,8.15-5.29
				C370.65,101.59,366.39,103.08,363.32,105.89z"/>
			<path class="st5" d="M365.48,100.69c-3.99-0.41-9.91-3.99-9.91-3.99s3.38,6.39,7.74,9.19c3.08-2.81,7.33-4.3,11.49-4.02
				c1.8-2.36,2.93-4.62,2.93-4.62S369.48,101.1,365.48,100.69z"/>
		</g>
		<path class="st5" d="M354.88,74.01c0.11,2.13-0.92,3.91-2.28,3.98c-1.37,0.07-2.56-1.6-2.67-3.73c-0.11-2.13,0.92-3.91,2.28-3.98
			C353.58,70.21,354.78,71.88,354.88,74.01z"/>
		<path class="st5" d="M382.69,74.53c0.11,2.13-0.92,3.91-2.28,3.98c-1.37,0.07-2.56-1.6-2.67-3.73c-0.11-2.13,0.92-3.91,2.28-3.98
			S382.58,72.4,382.69,74.53z"/>
		<g>
			<path class="st5" d="M344.29,65.74c0.35-1.29,0.96-2.53,1.75-3.69c0.4-0.57,0.85-1.12,1.36-1.64c0.51-0.5,1.08-0.97,1.68-1.4
				c0.61-0.42,1.24-0.87,1.92-1.25c0.69-0.37,1.46-0.55,2.24-0.51c1.55,0.08,3.18,0.7,4.13,2.25l-0.12,0.43
				c-1.51,0.87-2.47,1.35-3.45,1.75c-0.48,0.2-0.96,0.29-1.49,0.3c-0.53,0.01-1.09,0.04-1.61,0.2c-0.52,0.16-1.05,0.36-1.56,0.62
				c-0.53,0.23-1.04,0.52-1.55,0.84c-1.03,0.63-1.99,1.43-2.93,2.33L344.29,65.74z"/>
		</g>
		<g>
			<path class="st5" d="M387.31,65.97c-0.94-0.9-1.9-1.7-2.93-2.33c-0.5-0.32-1.02-0.61-1.55-0.84c-0.51-0.25-1.03-0.46-1.56-0.62
				c-0.52-0.16-1.08-0.2-1.61-0.2c-0.53-0.01-1.01-0.11-1.49-0.3c-0.98-0.41-1.94-0.88-3.45-1.75l-0.12-0.43
				c0.95-1.55,2.58-2.17,4.13-2.25c0.78-0.04,1.56,0.15,2.24,0.51c0.69,0.37,1.31,0.82,1.92,1.25c0.61,0.43,1.17,0.9,1.68,1.4
				c0.5,0.52,0.95,1.07,1.36,1.64c0.79,1.16,1.39,2.4,1.75,3.69L387.31,65.97z"/>
		</g>
		<g>
			<path class="st6" d="M353.49,91.96c0,1.7-2.3,3.08-5.14,3.08c-2.84,0-5.14-1.38-5.14-3.08c0-1.7,2.3-3.08,5.14-3.08
				C351.19,88.88,353.49,90.26,353.49,91.96z"/>
			<path class="st6" d="M389.15,91.96c0,1.7-2.3,3.08-5.14,3.08c-2.84,0-5.14-1.38-5.14-3.08c0-1.7,2.3-3.08,5.14-3.08
				C386.85,88.88,389.15,90.26,389.15,91.96z"/>
		</g>
		<g>
			<g>
				<path class="st7" d="M343.72,6.3c-0.72,3.51-0.18,7.18,1.34,10.35c1.49,3.18,3.93,5.92,7,7.56c3.09,1.61,6.64,2.12,10.16,2.18
					c3.54,0.05,7.09-0.19,10.63-0.51c7.09-0.56,14.24-1.52,21.45-0.96c3.57,0.32,7.24,1.18,10.25,3.3c1.47,1.08,2.74,2.42,3.64,3.99
					c0.91,1.56,1.42,3.36,1.35,5.15c-0.05-1.79-0.66-3.51-1.61-5c-0.95-1.48-2.25-2.73-3.7-3.69c-2.94-1.94-6.5-2.68-10-2.89
					c-7.08-0.37-14.17,0.57-21.28,1.22c-3.57,0.29-7.15,0.5-10.75,0.41c-3.58-0.11-7.32-0.61-10.54-2.44
					c-3.2-1.83-5.66-4.76-7.09-8.08C343.17,13.54,342.75,9.75,343.72,6.3z"/>
			</g>
			<g>
				<path class="st7" d="M405.48,43.47c-0.61-4.11-3.74-7.44-7.41-8.97c-3.72-1.6-7.93-1.64-11.89-0.96
					c-3.99,0.7-7.87,2.01-11.82,3.15c-3.95,1.13-7.96,2.12-12.06,2.7c-4.09,0.56-8.28,0.68-12.4,0.11
					c-4.08-0.59-8.25-1.75-11.61-4.33c-3.33-2.55-5.77-6.23-6.74-10.29c-0.93-4.05-0.46-8.4,1.37-12.08
					c-1.6,3.77-1.92,8.05-0.84,11.94c1.05,3.9,3.49,7.38,6.72,9.73c3.26,2.34,7.25,3.49,11.24,4.01c4.01,0.52,8.09,0.37,12.11-0.21
					c4.03-0.53,8-1.47,11.94-2.57c3.93-1.08,7.84-2.44,11.96-3.02c4.08-0.6,8.43-0.46,12.25,1.31c1.89,0.89,3.57,2.2,4.86,3.83
					C404.44,39.44,405.32,41.41,405.48,43.47z"/>
			</g>
			<g>
				<path class="st7" d="M401.3,41.54c-1.31-2.16-3.61-3.43-5.94-3.83c-2.36-0.38-4.81,0.06-7.03,0.99
					c-2.23,0.91-4.22,2.37-6.09,3.97c-1.86,1.62-3.62,3.4-5.48,5.08c1.54-1.97,3.08-3.95,4.89-5.72c1.79-1.77,3.86-3.37,6.25-4.36
					c1.2-0.48,2.45-0.84,3.74-1c1.29-0.14,2.61-0.11,3.88,0.19c1.27,0.3,2.48,0.86,3.49,1.66C400.02,39.33,400.86,40.36,401.3,41.54
					z"/>
			</g>
			<g>
				<path class="st7" d="M415.34,41.33c1.42-0.5,3.04-0.37,4.47,0.17c1.44,0.55,2.7,1.57,3.66,2.78c1.93,2.47,2.71,5.61,2.81,8.65
					c0.06,3.07-0.58,6.11-1.74,8.9c-0.58,1.39-1.26,2.74-2.02,4.04c-0.79,1.28-1.61,2.53-2.53,3.7c0.71-1.32,1.43-2.61,2.05-3.96
					c0.65-1.33,1.22-2.69,1.69-4.08c0.94-2.77,1.51-5.67,1.43-8.57c-0.07-2.88-0.77-5.8-2.38-8.17c-0.81-1.18-1.89-2.17-3.19-2.79
					C418.31,41.33,416.81,41.08,415.34,41.33z"/>
			</g>
			<g>
				<path class="st7" d="M407.5,46.08c1.04-0.23,2.17,0.03,3.14,0.52c0.98,0.51,1.8,1.31,2.42,2.22c1.25,1.83,1.87,3.93,2.31,6.03
					c0.4,2.12,0.48,4.29,0.2,6.42c-0.13,1.06-0.35,2.11-0.66,3.13c-0.17,0.51-0.34,1.01-0.54,1.5c-0.1,0.24-0.18,0.51-0.36,0.73
					c-0.16,0.21-0.46,0.43-0.72,0.27c0.28,0.09,0.47-0.15,0.58-0.37c0.12-0.22,0.16-0.47,0.22-0.73c0.12-0.51,0.21-1.02,0.29-1.54
					c0.18-1.02,0.27-2.06,0.33-3.09c0.1-2.06-0.03-4.12-0.42-6.13c-0.39-2-0.96-4.02-1.94-5.77c-0.51-0.86-1.15-1.65-1.97-2.22
					C409.55,46.46,408.55,46.11,407.5,46.08z"/>
			</g>
		</g>
	</g>
	<g>
		
			<rect x="55.18" y="84.12" transform="matrix(0.9918 -0.128 0.128 0.9918 -18.5832 16.4055)" class="st0" width="126.42" height="137.41"/>
		
			<rect x="44.47" y="54.87" transform="matrix(0.9918 -0.128 0.128 0.9918 -8.0519 14.3532)" class="st8" width="126.42" height="29.94"/>
		
			<rect x="38.56" y="93.31" transform="matrix(0.9918 -0.128 0.128 0.9918 -20.3455 7.3673)" class="st8" width="17.21" height="137.41"/>
		
			<rect x="27.85" y="64.06" transform="matrix(0.9918 -0.128 0.128 0.9918 -9.8127 5.3142)" class="st3" width="17.21" height="29.94"/>
		
			<rect x="58.19" y="99.94" transform="matrix(0.9918 -0.128 0.128 0.9918 -13.9089 9.6123)" class="st9" width="19.32" height="26.23"/>
		
			<rect x="80.94" y="97" transform="matrix(0.9918 -0.128 0.128 0.9918 -13.3468 12.4984)" class="st9" width="19.32" height="26.23"/>
		
			<rect x="103.68" y="94.07" transform="matrix(0.9918 -0.128 0.128 0.9918 -12.785 15.3851)" class="st9" width="19.32" height="26.23"/>
		
			<rect x="126.42" y="91.14" transform="matrix(0.9918 -0.128 0.128 0.9918 -12.2219 18.2701)" class="st9" width="19.32" height="26.23"/>
		
			<rect x="149.16" y="88.2" transform="matrix(0.9918 -0.128 0.128 0.9918 -11.6588 21.1546)" class="st9" width="19.32" height="26.23"/>
		
			<rect x="61.99" y="129.35" transform="matrix(0.9918 -0.128 0.128 0.9918 -17.642 10.3401)" class="st9" width="19.32" height="26.23"/>
		
			<rect x="84.73" y="126.42" transform="matrix(0.9918 -0.128 0.128 0.9918 -17.0782 13.2248)" class="st9" width="19.32" height="26.23"/>
		
			<rect x="107.47" y="123.48" transform="matrix(0.9918 -0.128 0.128 0.9918 -16.517 16.1117)" class="st9" width="19.32" height="26.23"/>
		
			<rect x="130.21" y="120.55" transform="matrix(0.9918 -0.128 0.128 0.9918 -15.954 18.9967)" class="st9" width="19.32" height="26.23"/>
		
			<rect x="152.95" y="117.62" transform="matrix(0.9918 -0.128 0.128 0.9918 -15.3922 21.8834)" class="st9" width="19.32" height="26.23"/>
		
			<rect x="65.78" y="158.76" transform="matrix(0.9918 -0.128 0.128 0.9918 -21.3745 11.0674)" class="st9" width="19.32" height="26.23"/>
		
			<rect x="88.53" y="155.83" transform="matrix(0.9918 -0.128 0.128 0.9918 -20.8123 13.9534)" class="st9" width="19.32" height="26.23"/>
		
			<rect x="111.27" y="152.9" transform="matrix(0.9918 -0.128 0.128 0.9918 -20.2481 16.8377)" class="st9" width="19.32" height="26.23"/>
		
			<rect x="134.01" y="149.96" transform="matrix(0.9918 -0.128 0.128 0.9918 -19.6875 19.7253)" class="st9" width="19.32" height="26.23"/>
		
			<rect x="156.75" y="147.03" transform="matrix(0.9918 -0.128 0.128 0.9918 -19.1248 22.6109)" class="st9" width="19.32" height="26.23"/>
		
			<rect x="69.58" y="188.18" transform="matrix(0.9918 -0.128 0.128 0.9918 -25.1071 11.7949)" class="st9" width="19.32" height="26.23"/>
		
			<rect x="92.32" y="185.24" transform="matrix(0.9918 -0.128 0.128 0.9918 -24.5438 14.6801)" class="st9" width="19.32" height="26.23"/>
		
			<rect x="115.06" y="182.31" transform="matrix(0.9918 -0.128 0.128 0.9918 -23.9824 17.5667)" class="st9" width="19.32" height="26.23"/>
		
			<rect x="137.8" y="179.38" transform="matrix(0.9918 -0.128 0.128 0.9918 -23.4181 20.4507)" class="st9" width="19.32" height="26.23"/>
		
			<rect x="160.54" y="176.44" transform="matrix(0.9918 -0.128 0.128 0.9918 -22.8575 23.3383)" class="st9" width="19.32" height="26.23"/>
		<path class="st10" d="M36.08,63.98l-1.09-8.44c-0.68-5.29,3.05-10.13,8.34-10.82l5.87-0.76c5.29-0.68,10.13,3.05,10.82,8.34
			l1.88,14.54c0.68,5.29-3.05,10.13-8.34,10.82l0,0"/>
		<path class="st10" d="M52.81,61.82l-1.09-8.44c-0.68-5.29,3.05-10.13,8.34-10.82l5.87-0.76c5.29-0.68,10.13,3.05,10.82,8.34
			l1.88,14.54c0.68,5.29-3.05,10.13-8.34,10.82l0,0"/>
		<path class="st10" d="M69.54,59.66l-1.09-8.44c-0.68-5.29,3.05-10.13,8.34-10.82l5.87-0.76c5.29-0.68,10.13,3.05,10.82,8.34
			l1.88,14.54c0.68,5.29-3.05,10.13-8.34,10.82l0,0"/>
		<path class="st10" d="M86.27,57.51l-1.09-8.44c-0.68-5.29,3.05-10.13,8.34-10.82l5.87-0.76c5.29-0.68,10.13,3.05,10.82,8.34
			l1.88,14.54c0.68,5.29-3.05,10.13-8.34,10.82l0,0"/>
		<path class="st10" d="M103,55.35l-1.09-8.44c-0.68-5.29,3.05-10.13,8.34-10.82l5.87-0.76c5.29-0.68,10.13,3.05,10.82,8.34
			l1.88,14.54c0.68,5.29-3.05,10.13-8.34,10.82l0,0"/>
		<path class="st10" d="M119.72,53.19l-1.09-8.44c-0.68-5.29,3.05-10.13,8.34-10.82l5.87-0.76c5.29-0.68,10.13,3.05,10.82,8.34
			l1.88,14.54c0.68,5.29-3.05,10.13-8.34,10.82l0,0"/>
		<path class="st10" d="M136.45,51.03l-1.09-8.44c-0.68-5.29,3.05-10.13,8.34-10.82l5.87-0.76c5.29-0.68,10.13,3.05,10.82,8.34
			l1.88,14.54c0.68,5.29-3.05,10.13-8.34,10.82l0,0"/>
	</g>
	<g>
		<circle class="st11" cx="226.01" cy="238.17" r="153.24"/>
		<circle class="st8" cx="233.22" cy="238.17" r="153.24"/>
		<g>
			<path class="st4" d="M257.11,313.83c27.65-11.16,52.75-29.71,69.03-54.7c18.91-29.01,24.62-64.2,22.96-99.2
				c-25.13-37.15-67.66-61.58-115.89-61.58C156,98.35,93.4,160.95,93.4,238.17c0,25.6,6.88,49.58,18.89,70.22
				C157.17,329.6,210.95,332.45,257.11,313.83z"/>
			<path class="st0" d="M349.11,159.93c1.66,35-4.05,70.19-22.96,99.2c-16.28,24.98-41.38,43.54-69.03,54.7
				c-46.16,18.62-99.95,15.77-144.82-5.45c24.22,41.62,69.3,69.6,120.92,69.6c77.22,0,139.81-62.6,139.81-139.81
				C373.03,209.18,364.21,182.26,349.11,159.93z"/>
		</g>
		<polygon class="st12" points="231.69,239.97 165.91,181.33 234.74,236.36 		"/>
		<polygon class="st12" points="235.84,236.51 266.19,347.95 230.6,239.82 		"/>
		<circle class="st13" cx="233.22" cy="238.17" r="10.36"/>
		<g>
			<line class="st14" x1="233.22" y1="98.35" x2="233.22" y2="128.07"/>
			<line class="st14" x1="233.22" y1="348.26" x2="233.22" y2="377.98"/>
			<line class="st14" x1="373.03" y1="238.17" x2="343.31" y2="238.17"/>
			<line class="st14" x1="123.12" y1="238.17" x2="93.4" y2="238.17"/>
		</g>
		<g>
			<line class="st14" x1="115.2" y1="163.19" x2="140.29" y2="179.13"/>
			<line class="st14" x1="326.14" y1="297.2" x2="351.23" y2="313.14"/>
			<line class="st14" x1="308.19" y1="120.15" x2="292.25" y2="145.24"/>
			<line class="st14" x1="174.18" y1="331.09" x2="158.25" y2="356.18"/>
		</g>
		<g>
			<line class="st14" x1="351.23" y1="163.19" x2="326.14" y2="179.13"/>
			<line class="st14" x1="140.29" y1="297.2" x2="115.2" y2="313.14"/>
			<line class="st14" x1="158.25" y1="120.15" x2="174.18" y2="145.24"/>
			<line class="st14" x1="292.25" y1="331.09" x2="308.19" y2="356.18"/>
		</g>
	</g>
	<g>
		
			<rect x="30.38" y="338.3" transform="matrix(0.9351 -0.3544 0.3544 0.9351 -127.2813 60.8605)" class="st15" width="144.3" height="79.31"/>
		<polygon class="st13" points="102.53,377.96 21.01,366.44 105.85,386.72 155.95,315.31 		"/>
	</g>
	<g>
		<g>
			
				<rect x="282.4" y="281.72" transform="matrix(0.9733 0.2297 -0.2297 0.9733 93.1561 -69.96)" class="st12" width="129.25" height="166.73"/>
			
				<rect x="284.73" y="282.27" transform="matrix(0.9733 0.2297 -0.2297 0.9733 93.345 -70.4816)" class="st8" width="129.25" height="166.73"/>
			
				<rect x="294.58" y="298.3" transform="matrix(0.9733 0.2297 -0.2297 0.9733 94.0407 -70.2296)" class="st4" width="108.09" height="140.89"/>
			<path class="st11" d="M391.41,271.72l-37.66-8.89c-6.05-1.43-12.11,2.32-13.54,8.37l-1.48,6.28l59.56,14.06l1.48-6.28
				C401.2,279.21,397.46,273.14,391.41,271.72z"/>
			<g>
				
					<ellipse transform="matrix(0.9784 -0.2068 0.2068 0.9784 -57.5825 74.4121)" class="st16" cx="327.09" cy="312.6" rx="10.39" ry="10.39"/>
				<polyline class="st17" points="322.24,308.2 326.58,315.22 339.07,307.51 				"/>
				<g>
					<line class="st18" x1="347.34" y1="310.71" x2="404.6" y2="324.22"/>
					<line class="st18" x1="345.85" y1="317.03" x2="403.1" y2="330.54"/>
					<line class="st18" x1="344.36" y1="323.35" x2="401.61" y2="336.87"/>
				</g>
			</g>
			<g>
				<path class="st16" d="M329.61,347.19c-1.32,5.59-6.92,9.04-12.5,7.73c-5.59-1.32-9.04-6.92-7.73-12.5
					c1.32-5.59,6.92-9.04,12.5-7.73C327.47,336.01,330.93,341.6,329.61,347.19z"/>
				<polyline class="st17" points="314.64,340.4 318.98,347.42 331.47,339.7 				"/>
				<g>
					<line class="st18" x1="339.74" y1="342.91" x2="397" y2="356.42"/>
					<line class="st18" x1="338.25" y1="349.23" x2="395.5" y2="362.74"/>
					<line class="st18" x1="336.76" y1="355.55" x2="394.01" y2="369.07"/>
				</g>
			</g>
			<g>
				
					<ellipse transform="matrix(0.43 -0.9028 0.9028 0.43 -162.5839 496.4882)" class="st16" cx="311.89" cy="377" rx="10.39" ry="10.39"/>
				<polyline class="st17" points="307.04,372.6 311.38,379.62 323.87,371.9 				"/>
				<g>
					<line class="st18" x1="332.14" y1="375.1" x2="389.4" y2="388.62"/>
					<line class="st18" x1="330.65" y1="381.43" x2="387.9" y2="394.94"/>
					<line class="st18" x1="329.16" y1="387.75" x2="386.41" y2="401.26"/>
				</g>
			</g>
			<path class="st8" d="M405.06,303.12l-77.57-18.31c-2.45-0.58-3.96-3.03-3.38-5.47l1.19-5.03l86.43,20.4l-1.19,5.03
				C409.96,302.18,407.51,303.7,405.06,303.12z"/>
		</g>
		<g>
			
				<ellipse transform="matrix(0.8454 -0.5342 0.5342 0.8454 -171.5285 225.9605)" class="st16" cx="304.53" cy="409.25" rx="10.39" ry="10.39"/>
			<polyline class="st17" points="299.68,404.85 304.02,411.88 316.51,404.16 			"/>
			<g>
				<line class="st18" x1="324.78" y1="407.36" x2="382.03" y2="420.87"/>
				<line class="st18" x1="323.28" y1="413.68" x2="380.54" y2="427.2"/>
				<line class="st18" x1="321.79" y1="420" x2="379.05" y2="433.52"/>
			</g>
		</g>
	</g>
	<g>
		<g>
			<path class="st4" d="M394.41,151.55c-1.37,3.3-3.04,6.44-4.78,9.53c-1.77,3.08-3.61,6.11-5.75,8.98c1.37-3.3,3.04-6.44,4.78-9.53
				C390.44,157.46,392.28,154.42,394.41,151.55z"/>
		</g>
		<g>
			<path class="st3" d="M409.15,197.39c0,0-10.09,15.84-20.08,27.63c-9.99,11.8-24.07,25.02-24.07,25.02l-75.34-31.56l11.06-25.8
				l55.16,17.04l31.78-44.98L409.15,197.39z"/>
			<g>
				<path class="st13" d="M288.84,187.69l11.88,4.99l-7.79,18.18l-7.72-2.63l-17.04,0.7l-5-2.5c-1.84-0.92-2.54-3.19-1.53-4.98
					l1.37-2.43l-1.21-0.94c-1.72-1.35-1.86-3.91-0.29-5.43l1.36-1.31l-1.84-2.49c-1.31-1.78-0.73-4.3,1.22-5.33l1.87-0.98
					l-0.61-3.31c-0.34-1.88,0.84-3.7,2.69-4.15v0c2.4-0.59,4.94-0.09,6.95,1.35L288.84,187.69z"/>
				<path class="st13" d="M289.05,188.91c-3.61-7.74-7.29-15.69-7.94-24.21c-0.03-0.42-0.09-0.89-0.43-1.13
					c-0.2-0.14-0.45-0.17-0.69-0.17c-2-0.02-3.83,1.47-4.54,3.33c-0.72,1.87-0.44,4.01,0.41,5.82c0.19,0.4,0.41,0.81,0.39,1.25
					c-0.02,0.38-0.21,0.73-0.4,1.06c-0.63,1.11-1.26,2.21-1.89,3.32C277.89,182.96,283.19,186.87,289.05,188.91z"/>
				<g>
					<path class="st0" d="M282.15,183.76c-0.72-0.45-1.39-0.94-2.07-1.44c-0.68-0.5-1.32-1.02-1.97-1.55
						c-0.64-0.54-1.28-1.08-1.89-1.65c-0.61-0.57-1.22-1.15-1.79-1.77c0.72,0.45,1.39,0.94,2.07,1.44c0.68,0.5,1.32,1.02,1.97,1.55
						c0.64,0.54,1.28,1.08,1.89,1.65C280.97,182.56,281.58,183.13,282.15,183.76z"/>
				</g>
			</g>
			<g>
				<path class="st13" d="M278.23,82.11l18.23,7.04c2.37,0.91,3.83,3.29,3.58,5.82l-0.92,9.28l-6.31,10.34c0,0-2.59-0.72-1.65-3.62
					c0.93-2.9,4.03-10.65,4.03-10.65v-5.48c0,0-2.99,12.65-5.84,15c-2.85,2.35-13.18-2.24-15.97-4.51
					c-1.36-1.11,1.06-4.69,1.39-10.03C275.12,89.68,273.52,82.33,278.23,82.11z"/>
				<g>
					<path class="st11" d="M289.89,86.35c0.31,2.1,0.36,4.23,0.22,6.35c-0.14,2.12-0.53,4.23-1.07,6.29
						c-0.58,2.05-1.32,4.06-2.27,5.96c-0.95,1.9-2.08,3.72-3.41,5.37c1.14-1.78,2.16-3.63,3.02-5.55c0.86-1.92,1.59-3.89,2.12-5.92
						c0.57-2.02,0.94-4.09,1.18-6.18C289.92,90.58,289.97,88.47,289.89,86.35z"/>
				</g>
				<g>
					<path class="st11" d="M282.95,83.95c0.2,2.06,0.18,4.15,0.02,6.22c-0.16,2.07-0.52,4.13-0.99,6.15
						c-0.51,2.02-1.14,4.01-1.94,5.92c-0.41,0.95-0.84,1.9-1.32,2.82c-0.25,0.45-0.48,0.92-0.76,1.36
						c-0.27,0.44-0.64,0.88-1.15,1.03c0.48-0.21,0.78-0.66,1.02-1.1c0.23-0.45,0.43-0.94,0.64-1.41c0.42-0.94,0.81-1.9,1.17-2.86
						c0.72-1.93,1.34-3.89,1.8-5.9c0.51-1.99,0.85-4.02,1.1-6.07C282.8,88.08,282.92,86.02,282.95,83.95z"/>
				</g>
			</g>
		</g>
	</g>
</g>
</svg>
