<svg width="190" height="35" viewBox="0 0 190 35" fill="none" xmlns="http://www.w3.org/2000/svg">
<path d="M14.5287 3.11637e-05L0.000976562 14.5302L1.51843 16.0478L16.0462 1.51773L14.5287 3.11637e-05Z" fill="#3CBA54"/>
<path d="M17.4975 2.97061L2.96973 17.5007L4.48718 19.0184L19.0149 4.48831L17.4975 2.97061Z" fill="#3CBA54"/>
<path d="M30.5068 15.9812L15.979 30.5114L17.4965 32.029L32.0242 17.4989L30.5068 15.9812Z" fill="#4885ED"/>
<path d="M33.476 18.9518L18.9482 33.4819L20.4657 34.9996L34.9935 20.4695L33.476 18.9518Z" fill="#4885ED"/>
<path d="M17.5137 15.7728L10.8947 22.3929L9.37891 20.8769L17.5137 12.7375V15.7728Z" fill="#DB3236"/>
<path d="M17.5137 21.7109L13.8649 25.3635L12.3491 23.8443L17.5137 18.6788V21.7109Z" fill="#DB3236"/>
<path d="M21.9836 33.4823L1.51855 13.0139L0.00110438 14.5316L20.4661 35L21.9836 33.4823Z" fill="#3CBA54"/>
<path d="M14.5275 34.9994L0 20.4695L0.0646386 17.4989L17.4976 34.9347L14.5275 34.9994Z" fill="#3CBA54"/>
<path d="M34.9936 20.4707L14.5332 0.00695801L13.0158 1.52465L33.4762 21.9884L34.9936 20.4707Z" fill="#4885ED"/>
<path d="M34.9306 17.499L17.4976 0.066358L20.4677 0.00170898L35.0211 14.5574L34.9306 17.499Z" fill="#4885ED"/>
<path d="M41.4849 30.8263V4.17798H57.4021V8.21854H45.6702V15.8051H56.2515V19.7746H45.6702V30.8263H41.4849Z" fill="#4885ED"/>
<path d="M60.272 30.8263V4.17798H64.4573V26.7857H75.6171V30.8263H60.272Z" fill="#4885ED"/>
<path d="M94.1169 4.17798H78.1997V8.22824H94.1169V4.17798Z" fill="#4885ED"/>
<path d="M94.1169 15.4786H78.1997V19.5289H94.1169V15.4786Z" fill="#4885ED"/>
<path d="M94.1169 26.7761H78.1997V30.8264H94.1169V26.7761Z" fill="#4885ED"/>
<path d="M114.911 30.8263L108.234 20.5342L101.563 30.8263H96.6348L105.555 17.0722L97.1357 4.17798H102.142L108.234 13.7784L114.33 4.17798H119.336L110.917 17.0722L119.837 30.8263H114.911Z" fill="#DB3236"/>
<path d="M96.6348 30.8263L105.555 17.0722L97.1357 4.17798H102.142L108.531 14.2438L108.599 14.3473L110.477 17.0625L108.531 20.0784L101.563 30.8263H96.6348Z" fill="#F4C20D"/>
<path d="M157.779 30.8748C154.809 30.8748 152.375 29.8857 150.549 27.93C148.723 25.9744 147.802 23.4369 147.802 20.2885V4.17798H151.988V20.4307C151.988 22.4219 152.505 24.0091 153.529 25.1437C154.554 26.2782 155.947 26.8342 157.779 26.8342C159.612 26.8342 161.011 26.2815 162.026 25.1437C163.041 24.0058 163.568 22.4219 163.568 20.4307V4.17798H167.769V20.2885C167.769 23.521 166.858 26.1069 165.057 28.0044C163.257 29.9018 160.791 30.8748 157.779 30.8748Z" fill="#4885ED"/>
<path d="M171.486 30.8263V4.17801H181.246C183.298 4.14733 185.283 4.91049 186.786 6.3082C187.54 6.97177 188.141 7.79252 188.544 8.7128C188.948 9.63308 189.145 10.6306 189.122 11.6353C189.122 14.0725 188.108 15.8827 186.104 17.027C187.143 17.4922 188.046 18.2168 188.725 19.1313C189.566 20.2618 190.013 21.6368 189.998 23.0458C190.02 24.0977 189.812 25.1417 189.39 26.1052C188.967 27.0687 188.34 27.9286 187.552 28.625C185.976 30.0927 183.887 30.8831 181.734 30.8263H171.486ZM181.893 26.7858C182.397 26.7922 182.897 26.6983 183.364 26.5096C183.832 26.3208 184.257 26.0409 184.615 25.6863C184.973 25.3316 185.257 24.9092 185.451 24.4437C185.644 23.9782 185.743 23.4788 185.742 22.9747C185.745 22.4796 185.646 21.9891 185.451 21.5341C185.256 21.079 184.969 20.6693 184.607 20.3306C184.235 19.9551 183.789 19.6607 183.297 19.466C182.806 19.2713 182.279 19.1805 181.75 19.1992H175.671V26.7858H181.893ZM181.246 15.2298C181.734 15.2431 182.219 15.1558 182.672 14.9734C183.125 14.791 183.535 14.5174 183.877 14.1695C184.208 13.8558 184.473 13.4783 184.655 13.0598C184.837 12.6413 184.933 12.1904 184.936 11.734C184.94 11.2777 184.852 10.8253 184.676 10.404C184.501 9.98262 184.242 9.60104 183.916 9.28206C183.592 8.93968 183.2 8.66922 182.766 8.48823C182.331 8.30724 181.863 8.21977 181.392 8.23151H175.671V15.2298H181.246Z" fill="#4885ED"/>
<path d="M131.122 26.7179C129.241 28.4699 126.042 28.8481 123.592 27.6133C121.252 26.4335 119.814 24.4746 118.915 22.06C116.976 16.7167 118.66 10.546 123.042 7.05171C125.039 5.48065 127.451 4.52584 129.981 4.30413C131.009 4.20284 132.042 4.15967 133.074 4.17483C133.716 4.20487 134.353 4.31343 134.968 4.49807C134.513 4.68556 134.057 4.86334 133.608 5.05729C130.808 6.24187 128.583 8.47532 127.409 11.2798C125.499 15.6565 125.289 20.0074 128.197 24.1352C128.862 25.0528 129.704 25.8277 130.673 26.4141C130.812 26.5111 130.951 26.6048 131.122 26.7179Z" fill="#325E9E"/>
<path d="M144.939 21.7981C143.921 24.8269 142.156 27.1543 139.512 28.777C136.184 30.8231 132.548 31.1237 128.65 30.6033C128.752 30.5281 128.86 30.4621 128.973 30.4061C132.939 29.0841 135.437 26.2848 136.827 22.4446C137.014 21.9307 137.231 21.7464 137.796 21.7561C140 21.7917 142.205 21.7561 144.409 21.7561C144.548 21.7723 144.696 21.7852 144.939 21.7981Z" fill="#4885ED"/>
<path d="M144.813 13.0867H141.749C140.24 13.0867 138.727 13.0867 137.224 13.0867C136.979 13.0867 136.798 13.0576 136.678 12.7893C135.876 10.9568 134.519 9.42169 132.8 8.39965C132.747 8.36052 132.698 8.31612 132.654 8.26712C132.777 8.16692 132.884 8.06994 133 7.9859C134.238 7.09104 135.734 6.62617 137.261 6.66236C138.788 6.69856 140.261 7.23381 141.455 8.18631C142.958 9.35477 144.102 10.9232 144.755 12.7117C144.782 12.8353 144.802 12.9606 144.813 13.0867Z" fill="#4885ED"/>
</svg>
