<svg id="Layer_1" data-name="Layer 1" xmlns="http://www.w3.org/2000/svg" viewBox="0 0 600 115"><defs><style>.cls-1{fill:#3cba54;}.cls-2{fill:#4885ed;}.cls-3{fill:#db3236;}.cls-4{fill:#f4c20d;}.cls-5{fill:#325e9e;}</style></defs><rect class="cls-1" x="-0.9" y="24.79" width="63.57" height="6.64" transform="translate(-10.83 30.07) rotate(-45)"/><rect class="cls-1" x="8.29" y="33.98" width="63.57" height="6.64" transform="translate(-14.64 39.26) rotate(-45)"/><rect class="cls-2" x="48.54" y="74.23" width="63.57" height="6.64" transform="translate(-31.31 79.51) rotate(-45)"/><rect class="cls-2" x="57.73" y="83.42" width="63.57" height="6.64" transform="translate(-35.12 88.7) rotate(-45)"/><polygon class="cls-3" points="60.25 52.08 39.77 72.56 35.08 67.87 60.25 42.69 60.25 52.08"/><polygon class="cls-3" points="60.25 70.45 48.96 81.75 44.27 77.05 60.25 61.07 60.25 70.45"/><rect class="cls-1" x="-4.7" y="74.23" width="89.55" height="6.64" transform="translate(66.57 -5.62) rotate(45)"/><polygon class="cls-1" points="51.01 111.56 6.06 66.61 6.26 57.42 60.2 111.36 51.01 111.56"/><rect class="cls-2" x="35.57" y="33.99" width="89.53" height="6.64" transform="translate(49.91 -45.88) rotate(45)"/><polygon class="cls-2" points="114.14 57.42 60.2 3.49 69.39 3.29 114.42 48.32 114.14 57.42"/><polygon class="cls-2" points="134.42 98.65 134.42 16.21 183.67 16.21 183.67 28.71 147.37 28.71 147.37 52.18 180.11 52.18 180.11 64.46 147.37 64.46 147.37 98.65 134.42 98.65"/><polygon class="cls-2" points="192.55 98.65 192.55 16.21 205.5 16.21 205.5 86.15 240.03 86.15 240.03 98.65 192.55 98.65"/><rect class="cls-2" x="248.02" y="16.21" width="49.25" height="12.53"/><rect class="cls-2" x="248.02" y="51.17" width="49.25" height="12.53"/><rect class="cls-2" x="248.02" y="86.12" width="49.25" height="12.53"/><polygon class="cls-3" points="361.61 98.65 340.95 66.81 320.31 98.65 305.06 98.65 332.66 56.1 306.61 16.21 322.1 16.21 340.95 45.91 359.81 16.21 375.3 16.21 349.25 56.1 376.85 98.65 361.61 98.65"/><polygon class="cls-4" points="305.06 98.65 332.66 56.1 306.61 16.21 322.1 16.21 341.87 47.35 342.08 47.67 347.89 56.07 341.87 65.4 320.31 98.65 305.06 98.65"/><path class="cls-2" d="M494.25,98.8c-9.19,0-16.72-3.06-22.37-9.11s-8.5-13.9-8.5-23.64V16.21h12.95V66.49c0,6.16,1.6,11.07,4.77,14.58s7.48,5.23,13.15,5.23,10-1.71,13.14-5.23,4.77-8.42,4.77-14.58V16.21h13V66.05c0,10-2.82,18-8.39,23.87S503.57,98.8,494.25,98.8Z"/><path class="cls-2" d="M536.66,98.65V16.21h30.2A24.63,24.63,0,0,1,584,22.8a21.3,21.3,0,0,1,7.23,16.48c0,7.54-3.14,13.14-9.34,16.68A20.56,20.56,0,0,1,590,62.47a19.93,19.93,0,0,1,3.94,12.11,22.41,22.41,0,0,1-7.57,17.26,25.43,25.43,0,0,1-18,6.81Zm32.2-12.5a11.76,11.76,0,0,0,11.91-11.79,11.11,11.11,0,0,0-3.51-8.18,11.86,11.86,0,0,0-8.84-3.5H549.61V86.15Zm-2-35.75A11,11,0,0,0,575,47.12,10.49,10.49,0,0,0,575.12,32a10.39,10.39,0,0,0-7.81-3.25h-17.7V50.4Z"/><path class="cls-5" d="M411.77,85.94c-5.82,5.42-15.72,6.59-23.3,2.77C381.23,85.06,376.78,79,374,71.53,368,55,373.21,35.91,386.77,25.1a40.43,40.43,0,0,1,21.47-8.5,84.89,84.89,0,0,1,9.57-.4,24.37,24.37,0,0,1,5.86,1c-1.41.58-2.82,1.13-4.21,1.73a36,36,0,0,0-19.18,19.25c-5.91,13.54-6.56,27,2.44,39.77A26.2,26.2,0,0,0,410.38,85C410.81,85.3,411.24,85.59,411.77,85.94Z"/><path class="cls-2" d="M454.52,70.72c-3.15,9.37-8.61,16.57-16.79,21.59-10.3,6.33-21.55,7.26-33.61,5.65a6.59,6.59,0,0,1,1-.61c12.27-4.09,20-12.75,24.3-24.63.58-1.59,1.25-2.16,3-2.13,6.82.11,13.64,0,20.46,0C453.31,70.64,453.77,70.68,454.52,70.72Z"/><path class="cls-2" d="M454.13,43.77h-9.48c-4.67,0-9.35,0-14,0-.76,0-1.32-.09-1.69-.92a29.62,29.62,0,0,0-12-13.58,3,3,0,0,1-.45-.41c.38-.31.71-.61,1.07-.87a21.63,21.63,0,0,1,26.16.62,31.35,31.35,0,0,1,10.21,14A9,9,0,0,1,454.13,43.77Z"/></svg>