<svg width="800" height="148" viewBox="0 0 800 148" fill="none" xmlns="http://www.w3.org/2000/svg">
<path d="M73.7418 66.401L45.8724 94.2704L39.4902 87.8882L73.7418 53.623V66.401Z" fill="#ED1C00"/>
<path d="M73.7418 91.3992L58.3783 106.776L51.9961 100.381L73.7418 78.6348V91.3992Z" fill="#ED1C00"/>
<path d="M61.1734 -9.89706e-06L0.00390625 61.1695L6.39317 67.5588L67.5627 6.38925L61.1734 -9.89706e-06Z" fill="#21A43A"/>
<path d="M73.6749 12.5058L12.5054 73.6754L18.8946 80.0646L80.0641 18.8951L73.6749 12.5058Z" fill="#21A43A"/>
<path d="M128.45 67.2785L67.2803 128.448L73.6695 134.837L134.839 73.6678L128.45 67.2785Z" fill="#0078E7"/>
<path d="M140.951 79.7844L79.7812 140.954L86.1705 147.343L147.34 86.1736L140.951 79.7844Z" fill="#0078E7"/>
<path d="M92.5615 140.955L6.39307 54.7867L0.00380308 61.1759L86.1723 147.344L92.5615 140.955Z" fill="#21A43A"/>
<path d="M61.1684 147.342L0 86.1736L0.272163 73.6677L73.6743 147.07L61.1684 147.342Z" fill="#21A43A"/>
<path d="M147.342 86.1786L61.1924 0.0293579L54.8031 6.41862L140.952 92.5678L147.342 86.1786Z" fill="#0078E7"/>
<path d="M147.076 73.6678L73.6738 0.279303L86.1797 0.00714111L147.457 61.2845L147.076 73.6678Z" fill="#0078E7"/>
<path d="M174.674 129.774V17.5888H241.694V34.5989H192.296V66.5372H236.849V83.2479H192.296V129.774H174.674Z" fill="#0078E7"/>
<path d="M253.777 129.774V17.5888H271.4V112.764H318.389V129.774H253.777Z" fill="#0078E7"/>
<path d="M396.282 17.5888H329.262V34.6398H396.282V17.5888Z" fill="#0078E7"/>
<path d="M396.282 65.1628H329.262V82.2137H396.282V65.1628Z" fill="#0078E7"/>
<path d="M396.282 112.723H329.262V129.774H396.282V112.723Z" fill="#0078E7"/>
<path d="M483.837 129.774L455.722 86.4458L427.635 129.774H406.883L444.441 71.8716L408.992 17.5888H430.071L455.722 58.0049L481.387 17.5888H502.466L467.017 71.8716L504.575 129.774H483.837Z" fill="#ED1C00"/>
<path d="M406.883 129.774L444.441 71.8716L408.992 17.5888H430.071L456.974 59.9645L457.26 60.3999L465.166 71.8307L456.974 84.5271L427.635 129.774H406.883Z" fill="#FFC800"/>
<path d="M664.334 129.978C651.829 129.978 641.582 125.814 633.893 117.581C626.204 109.348 622.326 98.6659 622.326 85.4116V17.5888H639.949V86.0104C639.949 94.393 642.126 101.075 646.44 105.851C650.754 110.627 656.619 112.968 664.334 112.968C672.05 112.968 677.943 110.641 682.215 105.851C686.488 101.061 688.707 94.393 688.707 86.0104V17.5888H706.397V85.4116C706.397 99.0197 702.56 109.906 694.98 117.894C687.4 125.882 677.017 129.978 664.334 129.978Z" fill="#0078E7"/>
<path d="M722.046 129.774V17.5888H763.142C771.783 17.4596 780.139 20.6724 786.467 26.5565C789.644 29.3501 792.171 32.8053 793.871 36.6795C795.571 40.5537 796.402 44.7531 796.305 48.9827C796.305 59.2432 792.033 66.8637 783.596 71.681C787.973 73.6394 791.773 76.69 794.632 80.5399C798.173 85.2988 800.056 91.0876 799.993 97.0193C800.085 101.448 799.211 105.843 797.432 109.899C795.653 113.955 793.012 117.575 789.692 120.507C783.056 126.685 774.261 130.013 765.197 129.774H722.046ZM765.864 112.764C767.986 112.791 770.093 112.396 772.06 111.601C774.028 110.806 775.818 109.628 777.327 108.135C778.835 106.642 780.031 104.864 780.846 102.904C781.66 100.944 782.077 98.8422 782.071 96.7199C782.086 94.6355 781.669 92.5706 780.847 90.6549C780.025 88.7393 778.815 87.0144 777.295 85.5885C775.727 84.0077 773.849 82.7685 771.778 81.9489C769.708 81.1292 767.491 80.7468 765.265 80.8257H739.668V112.764H765.864ZM763.142 64.1149C765.196 64.1709 767.24 63.8036 769.145 63.0357C771.051 62.2678 772.778 61.1158 774.22 59.6514C775.615 58.3306 776.729 56.7416 777.495 54.9798C778.262 53.2181 778.665 51.3197 778.68 49.3985C778.695 47.4772 778.323 45.5727 777.584 43.799C776.846 42.0252 775.757 40.4188 774.383 39.076C773.021 37.6346 771.37 36.496 769.539 35.7341C767.708 34.9721 765.737 34.6039 763.755 34.6533H739.668V64.1149H763.142Z" fill="#0078E7"/>
<path d="M552.094 112.478C544.174 119.854 530.702 121.446 520.387 116.248C510.535 111.281 504.479 103.034 500.696 92.8688C492.531 70.3746 499.621 44.3968 518.074 29.6864C526.481 23.0725 536.634 19.0529 547.29 18.1195C551.618 17.6931 555.965 17.5114 560.313 17.5752C563.017 17.7017 565.695 18.1587 568.288 18.936C566.369 19.7253 564.45 20.4737 562.559 21.2902C550.77 26.2771 541.402 35.6795 536.458 47.4858C528.416 65.9112 527.531 84.2277 539.779 101.605C542.577 105.468 546.121 108.731 550.202 111.199C550.788 111.607 551.373 112.002 552.094 112.478Z" fill="#1C519F"/>
<path d="M610.269 91.7666C605.983 104.517 598.553 114.315 587.421 121.146C573.405 129.76 558.096 131.026 541.685 128.835C542.113 128.519 542.568 128.241 543.045 128.005C559.743 122.439 570.262 110.655 576.113 94.4882C576.902 92.3245 577.814 91.5488 580.196 91.5897C589.476 91.7393 598.757 91.5897 608.038 91.5897C608.623 91.6577 609.249 91.7121 610.269 91.7666Z" fill="#0078E7"/>
<path d="M609.739 55.0927H596.838C590.483 55.0927 584.115 55.0927 577.787 55.0927C576.753 55.0927 575.99 54.9703 575.487 53.8408C572.108 46.1261 566.397 39.6636 559.157 35.361C558.935 35.1962 558.73 35.0093 558.545 34.803C559.062 34.3812 559.511 33.973 560.001 33.6191C565.212 29.8519 571.514 27.8949 577.942 28.0473C584.371 28.1996 590.573 30.453 595.6 34.4628C601.929 39.3819 606.744 45.9846 609.494 53.5142C609.61 54.0345 609.691 54.5618 609.739 55.0927Z" fill="#0078E7"/>
</svg>
