<svg id="Layer_1" data-name="Layer 1" xmlns="http://www.w3.org/2000/svg" viewBox="0 0 600 115"><defs><style>.cls-1{fill:#b7b7b7;}.cls-2{fill:#eaeaea;}.cls-3{fill:#d8d8d8;}.cls-4{fill:#f2f2f2;}.cls-5{fill:#9b9b9b;}</style></defs><rect class="cls-1" x="-0.9" y="24.87" width="63.57" height="6.64" transform="translate(-10.88 30.09) rotate(-45)"/><rect class="cls-1" x="8.29" y="34.05" width="63.57" height="6.64" transform="translate(-14.69 39.28) rotate(-45)"/><rect class="cls-2" x="48.54" y="74.31" width="63.57" height="6.64" transform="translate(-31.36 79.54) rotate(-45)"/><rect class="cls-2" x="57.73" y="83.5" width="63.57" height="6.64" transform="translate(-35.17 88.72) rotate(-45)"/><polygon class="cls-3" points="60.25 52.15 39.77 72.64 35.08 67.94 60.25 42.77 60.25 52.15"/><polygon class="cls-3" points="60.25 70.53 48.96 81.82 44.27 77.13 60.25 61.14 60.25 70.53"/><rect class="cls-1" x="-4.7" y="74.31" width="89.55" height="6.64" transform="translate(66.63 -5.6) rotate(45)"/><polygon class="cls-1" points="51.01 111.64 6.06 66.69 6.26 57.5 60.2 111.44 51.01 111.64"/><rect class="cls-2" x="35.57" y="34.06" width="89.53" height="6.64" transform="translate(49.96 -45.86) rotate(45)"/><polygon class="cls-2" points="114.14 57.5 60.2 3.56 69.39 3.37 114.42 48.4 114.14 57.5"/><polygon class="cls-2" points="134.42 98.72 134.42 16.28 183.67 16.28 183.67 28.78 147.37 28.78 147.37 52.26 180.11 52.26 180.11 64.53 147.37 64.53 147.37 98.72 134.42 98.72"/><polygon class="cls-2" points="192.55 98.72 192.55 16.28 205.5 16.28 205.5 86.22 240.03 86.22 240.03 98.72 192.55 98.72"/><rect class="cls-2" x="248.02" y="16.28" width="49.25" height="12.53"/><rect class="cls-2" x="248.02" y="51.24" width="49.25" height="12.53"/><rect class="cls-2" x="248.02" y="86.2" width="49.25" height="12.53"/><polygon class="cls-3" points="361.61 98.72 340.95 66.88 320.31 98.72 305.06 98.72 332.66 56.17 306.61 16.28 322.1 16.28 340.95 45.98 359.81 16.28 375.3 16.28 349.25 56.17 376.85 98.72 361.61 98.72"/><polygon class="cls-4" points="305.06 98.72 332.66 56.17 306.61 16.28 322.1 16.28 341.87 47.42 342.08 47.75 347.89 56.14 341.87 65.48 320.31 98.72 305.06 98.72"/><path class="cls-2" d="M494.25,98.88c-9.19,0-16.72-3.07-22.37-9.12s-8.5-13.89-8.5-23.64V16.28h12.95V66.57c0,6.16,1.6,11.06,4.77,14.57s7.48,5.24,13.15,5.24,10-1.71,13.14-5.24,4.77-8.42,4.77-14.57V16.28h13V66.12c0,10-2.82,18-8.39,23.87S503.57,98.88,494.25,98.88Z"/><path class="cls-2" d="M536.66,98.73V16.28h30.2A24.59,24.59,0,0,1,584,22.88a21.3,21.3,0,0,1,7.23,16.47c0,7.55-3.14,13.15-9.34,16.69A20.47,20.47,0,0,1,590,62.55a19.9,19.9,0,0,1,3.94,12.1,22.43,22.43,0,0,1-7.57,17.27,25.43,25.43,0,0,1-18,6.81Zm32.2-12.51a11.76,11.76,0,0,0,11.91-11.79,11.13,11.13,0,0,0-3.51-8.18,11.9,11.9,0,0,0-8.84-3.5H549.61V86.22Zm-2-35.75A11,11,0,0,0,575,47.19a10.58,10.58,0,0,0,3.28-7.62,10.7,10.7,0,0,0-3.2-7.54,10.39,10.39,0,0,0-7.81-3.25h-17.7V50.47Z"/><path class="cls-5" d="M411.77,86c-5.82,5.43-15.72,6.6-23.3,2.77C381.23,85.13,376.78,79,374,71.6,368,55.09,373.21,36,386.77,25.17a40.49,40.49,0,0,1,21.47-8.49,82.61,82.61,0,0,1,9.57-.4,23.89,23.89,0,0,1,5.86,1c-1.41.57-2.82,1.12-4.21,1.72a36,36,0,0,0-19.18,19.25c-5.91,13.55-6.56,27,2.44,39.77a26.23,26.23,0,0,0,7.66,7.1Z"/><path class="cls-2" d="M454.52,70.8c-3.15,9.36-8.61,16.57-16.79,21.59-10.3,6.32-21.55,7.25-33.61,5.64a7.59,7.59,0,0,1,1-.61c12.27-4.09,20-12.74,24.3-24.62.58-1.6,1.25-2.16,3-2.14,6.82.11,13.64,0,20.46,0C453.31,70.72,453.77,70.76,454.52,70.8Z"/><path class="cls-2" d="M454.13,43.85h-9.48q-7,0-14,0c-.76,0-1.32-.09-1.69-.91a29.52,29.52,0,0,0-12-13.58,5,5,0,0,1-.45-.41c.38-.31.71-.62,1.07-.87a21.65,21.65,0,0,1,26.16.61,31.41,31.41,0,0,1,10.21,14A9.22,9.22,0,0,1,454.13,43.85Z"/></svg>