<svg id="Layer_1" data-name="Layer 1" xmlns="http://www.w3.org/2000/svg" viewBox="0 0 492 92"><defs><style>.cls-1{fill:#f2f2f2;}</style></defs><polygon class="cls-1" points="2.63 89.59 2.63 2.26 54.8 2.26 54.8 15.5 16.34 15.5 16.34 40.37 51.03 40.37 51.03 53.37 16.34 53.37 16.34 89.59 2.63 89.59"/><polygon class="cls-1" points="64.21 89.59 64.21 2.26 77.92 2.26 77.92 76.35 114.49 76.35 114.49 89.59 64.21 89.59"/><rect class="cls-1" x="122.96" y="2.26" width="52.17" height="13.27"/><rect class="cls-1" x="122.96" y="39.29" width="52.17" height="13.27"/><rect class="cls-1" x="122.96" y="76.32" width="52.17" height="13.27"/><polygon class="cls-1" points="243.28 89.59 221.4 55.86 199.53 89.59 183.38 89.59 212.62 44.51 185.02 2.26 201.42 2.26 221.4 33.72 241.38 2.26 257.78 2.26 230.19 44.51 259.42 89.59 243.28 89.59"/><polygon class="cls-1" points="183.38 89.59 212.62 44.51 185.02 2.26 201.42 2.26 222.37 35.25 222.6 35.59 228.75 44.48 222.37 54.37 199.53 89.59 183.38 89.59"/><path class="cls-1" d="M383.77,89.75c-9.73,0-17.7-3.25-23.69-9.65s-9-14.72-9-25V2.26h13.71V55.53c0,6.52,1.71,11.71,5.06,15.43s7.92,5.55,13.92,5.55S394.33,74.7,397.69,71s5.06-8.91,5.06-15.43V2.26h13.72V55.05c0,10.56-3,19.07-8.89,25.29S393.65,89.75,383.77,89.75Z"/><path class="cls-1" d="M428.7,89.59V2.26h32a26.07,26.07,0,0,1,18.19,7,22.56,22.56,0,0,1,7.66,17.45c0,8-3.33,13.92-9.9,17.67a21.69,21.69,0,0,1,8.56,6.9,21,21,0,0,1,4.17,12.82,23.76,23.76,0,0,1-8,18.29,26.9,26.9,0,0,1-19,7.21Zm34.11-13.24a12.46,12.46,0,0,0,12.61-12.49,11.78,11.78,0,0,0-3.71-8.67,12.62,12.62,0,0,0-9.37-3.71H442.42V76.35Zm-2.12-37.87A11.65,11.65,0,0,0,469.35,35a11.09,11.09,0,0,0,.09-16,11,11,0,0,0-8.28-3.45H442.42v23Z"/><path class="cls-1" d="M296.41,76.12c-6.16,5.75-16.65,7-24.68,2.94-7.67-3.87-12.38-10.32-15.28-18.2-6.44-17.49-.89-37.73,13.48-49.18a42.89,42.89,0,0,1,22.75-9,90,90,0,0,1,10.13-.43,25.72,25.72,0,0,1,6.2,1c-1.48.61-3,1.2-4.46,1.83a38.1,38.1,0,0,0-20.31,20.39c-6.26,14.35-6.94,28.63,2.59,42.13a27.86,27.86,0,0,0,8.11,7.52C295.4,75.45,295.85,75.75,296.41,76.12Z"/><path class="cls-1" d="M341.7,60c-3.35,9.92-9.13,17.55-17.79,22.86-10.91,6.7-22.82,7.69-35.6,6a6.39,6.39,0,0,1,1.07-.65c13-4.33,21.14-13.5,25.74-26.08.62-1.69,1.32-2.29,3.14-2.26,7.22.11,14.44,0,21.66.05C340.41,59.92,340.9,60,341.7,60Z"/><path class="cls-1" d="M341.28,31.46h-10q-7.42,0-14.87,0c-.8,0-1.39-.09-1.78-1A31.29,31.29,0,0,0,301.83,16.1a4.55,4.55,0,0,1-.47-.44c.4-.32.75-.64,1.13-.91,8.51-6,19.22-5.79,27.71.65A33.14,33.14,0,0,1,341,30.27,9.58,9.58,0,0,1,341.28,31.46Z"/></svg>