<svg id="Layer_1" data-name="Layer 1" xmlns="http://www.w3.org/2000/svg" viewBox="0 0 260 260"><defs><style>.cls-1{fill:#f2f2f2;}</style></defs><rect class="cls-1" x="-13.37" y="53.48" width="149.06" height="15.56" transform="translate(-25.4 61.19) rotate(-45)"/><rect class="cls-1" x="8.18" y="75.02" width="149.06" height="15.56" transform="translate(-34.33 82.73) rotate(-45)"/><rect class="cls-1" x="102.57" y="169.42" width="149.05" height="15.56" transform="translate(-73.43 177.13) rotate(-45)"/><rect class="cls-1" x="124.11" y="190.96" width="149.05" height="15.56" transform="translate(-82.35 198.67) rotate(-45)"/><polygon class="cls-1" points="130.02 117.47 82 165.49 71 154.49 130.02 95.46 130.02 117.47"/><polygon class="cls-1" points="130.02 160.55 103.54 187.03 92.54 176.03 130.02 138.54 130.02 160.55"/><rect class="cls-1" x="-22.29" y="169.42" width="209.98" height="15.56" transform="translate(149.52 -6.58) rotate(45)"/><polygon class="cls-1" points="108.36 256.94 2.96 151.54 3.43 130 129.9 256.47 108.36 256.94"/><rect class="cls-1" x="72.15" y="75.04" width="209.93" height="15.56" transform="translate(110.44 -100.98) rotate(45)"/><polygon class="cls-1" points="256.37 130 129.9 3.53 151.44 3.06 257.04 108.66 256.37 130"/></svg>